<?xml version="1.0" encoding="UTF-8" standalone="no"?><svg xmlns="http://www.w3.org/2000/svg" xmlns:xlink="http://www.w3.org/1999/xlink" contentScriptType="application/ecmascript" contentStyleType="text/css" height="272px" preserveAspectRatio="none" style="width:403px;height:272px;background:#FFFFFF;" version="1.1" viewBox="0 0 403 272" width="403px" zoomAndPan="magnify"><defs><filter height="300%" id="f1a8ocgl134uuv" width="300%" x="-1" y="-1"><feGaussianBlur result="blurOut" stdDeviation="2.0"/><feColorMatrix in="blurOut" result="blurOut2" type="matrix" values="0 0 0 0 0 0 0 0 0 0 0 0 0 0 0 0 0 0 .4 0"/><feOffset dx="4.0" dy="4.0" in="blurOut2" result="blurOut3"/><feBlend in="SourceGraphic" in2="blurOut3" mode="normal"/></filter></defs><g><rect fill="#FFFFFF" filter="url(#f1a8ocgl134uuv)" height="21.1328" style="stroke:#A80036;stroke-width:1.0;" width="10" x="37.5" y="50.2969"/><rect fill="#FFFFFF" filter="url(#f1a8ocgl134uuv)" height="88.2656" style="stroke:#A80036;stroke-width:1.0;" width="10" x="37.5" y="158.8281"/><rect fill="#FFFFFF" filter="url(#f1a8ocgl134uuv)" height="29.1328" style="stroke:#A80036;stroke-width:1.0;" width="10" x="171.5" y="71.4297"/><rect fill="#FFFFFF" filter="url(#f1a8ocgl134uuv)" height="59.1328" style="stroke:#A80036;stroke-width:1.0;" width="10" x="171.5" y="129.6953"/><rect fill="#FFFFFF" filter="url(#f1a8ocgl134uuv)" height="38.1328" style="stroke:#A80036;stroke-width:1.0;" width="10" x="171.5" y="217.9609"/><rect fill="#FFFFFF" filter="url(#f1a8ocgl134uuv)" height="29.1328" style="stroke:#A80036;stroke-width:1.0;" width="10" x="352.5" y="100.5625"/><rect fill="#FFFFFF" filter="url(#f1a8ocgl134uuv)" height="9" style="stroke:#A80036;stroke-width:1.0;" width="10" x="352.5" y="247.0938"/><line style="stroke:#A80036;stroke-width:1.0;stroke-dasharray:5.0,5.0;" x1="42" x2="42" y1="40.2969" y2="265.0938"/><line style="stroke:#A80036;stroke-width:1.0;stroke-dasharray:5.0,5.0;" x1="176.5" x2="176.5" y1="40.2969" y2="265.0938"/><line style="stroke:#A80036;stroke-width:1.0;stroke-dasharray:5.0,5.0;" x1="357.5" x2="357.5" y1="40.2969" y2="265.0938"/><rect fill="#FEFECE" filter="url(#f1a8ocgl134uuv)" height="30.2969" style="stroke:#A80036;stroke-width:1.5;" width="71" x="5" y="5"/><text fill="#000000" font-family="sans-serif" font-size="14" lengthAdjust="spacing" textLength="57" x="12" y="24.9951">Browser</text><rect fill="#FEFECE" filter="url(#f1a8ocgl134uuv)" height="30.2969" style="stroke:#A80036;stroke-width:1.5;" width="102" x="123.5" y="5"/><text fill="#000000" font-family="sans-serif" font-size="14" lengthAdjust="spacing" textLength="88" x="130.5" y="24.9951">WebConsole</text><rect fill="#FEFECE" filter="url(#f1a8ocgl134uuv)" height="30.2969" style="stroke:#A80036;stroke-width:1.5;" width="68" x="321.5" y="5"/><text fill="#000000" font-family="sans-serif" font-size="14" lengthAdjust="spacing" textLength="54" x="328.5" y="24.9951">ConletX</text><rect fill="#FFFFFF" filter="url(#f1a8ocgl134uuv)" height="21.1328" style="stroke:#A80036;stroke-width:1.0;" width="10" x="37.5" y="50.2969"/><rect fill="#FFFFFF" filter="url(#f1a8ocgl134uuv)" height="88.2656" style="stroke:#A80036;stroke-width:1.0;" width="10" x="37.5" y="158.8281"/><rect fill="#FFFFFF" filter="url(#f1a8ocgl134uuv)" height="29.1328" style="stroke:#A80036;stroke-width:1.0;" width="10" x="171.5" y="71.4297"/><rect fill="#FFFFFF" filter="url(#f1a8ocgl134uuv)" height="59.1328" style="stroke:#A80036;stroke-width:1.0;" width="10" x="171.5" y="129.6953"/><rect fill="#FFFFFF" filter="url(#f1a8ocgl134uuv)" height="38.1328" style="stroke:#A80036;stroke-width:1.0;" width="10" x="171.5" y="217.9609"/><rect fill="#FFFFFF" filter="url(#f1a8ocgl134uuv)" height="29.1328" style="stroke:#A80036;stroke-width:1.0;" width="10" x="352.5" y="100.5625"/><rect fill="#FFFFFF" filter="url(#f1a8ocgl134uuv)" height="9" style="stroke:#A80036;stroke-width:1.0;" width="10" x="352.5" y="247.0938"/><polygon fill="#A80036" points="159.5,67.4297,169.5,71.4297,159.5,75.4297,163.5,71.4297" style="stroke:#A80036;stroke-width:1.0;"/><line style="stroke:#A80036;stroke-width:1.0;" x1="42.5" x2="165.5" y1="71.4297" y2="71.4297"/><text fill="#000000" font-family="sans-serif" font-size="13" lengthAdjust="spacing" textLength="98" x="49.5" y="66.3638">"consoleReady"</text><polygon fill="#A80036" points="340.5,96.5625,350.5,100.5625,340.5,104.5625,344.5,100.5625" style="stroke:#A80036;stroke-width:1.0;"/><line style="stroke:#A80036;stroke-width:1.0;" x1="176.5" x2="346.5" y1="100.5625" y2="100.5625"/><text fill="#000000" font-family="sans-serif" font-size="13" lengthAdjust="spacing" textLength="90" x="183.5" y="95.4966">ConsoleReady</text><polygon fill="#A80036" points="192.5,125.6953,182.5,129.6953,192.5,133.6953,188.5,129.6953" style="stroke:#A80036;stroke-width:1.0;"/><line style="stroke:#A80036;stroke-width:1.0;" x1="186.5" x2="356.5" y1="129.6953" y2="129.6953"/><text fill="#000000" font-family="sans-serif" font-size="13" lengthAdjust="spacing" textLength="96" x="198.5" y="124.6294">AddConletType</text><polygon fill="#A80036" points="58.5,154.8281,48.5,158.8281,58.5,162.8281,54.5,158.8281" style="stroke:#A80036;stroke-width:1.0;"/><line style="stroke:#A80036;stroke-width:1.0;" x1="52.5" x2="170.5" y1="158.8281" y2="158.8281"/><text fill="#000000" font-family="sans-serif" font-size="13" lengthAdjust="spacing" textLength="105" x="64.5" y="153.7622">"addConletType"</text><polygon fill="#A80036" points="159.5,213.9609,169.5,217.9609,159.5,221.9609,163.5,217.9609" style="stroke:#A80036;stroke-width:1.0;"/><line style="stroke:#A80036;stroke-width:1.0;" x1="47.5" x2="165.5" y1="217.9609" y2="217.9609"/><text fill="#000000" font-family="sans-serif" font-size="13" lengthAdjust="spacing" textLength="39" x="54.5" y="212.895">"GET "</text><polygon fill="#A80036" points="340.5,243.0938,350.5,247.0938,340.5,251.0938,344.5,247.0938" style="stroke:#A80036;stroke-width:1.0;"/><line style="stroke:#A80036;stroke-width:1.0;" x1="181.5" x2="346.5" y1="247.0938" y2="247.0938"/><text fill="#000000" font-family="sans-serif" font-size="13" lengthAdjust="spacing" textLength="152" x="188.5" y="242.0278">ConletResourceRequest</text><!--MD5=[e3fa8be03defa79ec9f6860c88bd8724]
@startuml
hide footbox
 
 activate Browser
 Browser -> WebConsole: "consoleReady"
 deactivate Browser
 activate WebConsole
 WebConsole -> ConletX: ConsoleReady 
 deactivate WebConsole
 activate ConletX
 ConletX -> WebConsole: AddConletType 
 deactivate ConletX
 activate WebConsole
 WebConsole -> Browser: "addConletType"
 activate Browser
 deactivate WebConsole
 Browser -> WebConsole: "GET "
 activate WebConsole
 WebConsole -> ConletX: ConletResourceRequest
 deactivate Browser
 activate ConletX
 deactivate ConletX
@enduml

PlantUML version 1.2022.1(Tue Feb 01 18:19:58 UTC 2022)
(GPL source distribution)
Java Runtime: OpenJDK Runtime Environment
JVM: OpenJDK 64-Bit Server VM
Default Encoding: UTF-8
Language: en
Country: 
--></g></svg>