<?xml version="1.0" encoding="us-ascii" standalone="no"?><svg xmlns="http://www.w3.org/2000/svg" xmlns:xlink="http://www.w3.org/1999/xlink" contentStyleType="text/css" height="179px" preserveAspectRatio="none" style="width:412px;height:179px;background:#FFFFFF;" version="1.1" viewBox="0 0 412 179" width="412px" zoomAndPan="magnify"><defs/><g><rect fill="#FFFFFF" height="29.1328" style="stroke:#181818;stroke-width:1.0;" width="10" x="204.5" y="67.4297"/><rect fill="#FFFFFF" height="29.1328" style="stroke:#181818;stroke-width:1.0;" width="10" x="204.5" y="125.6953"/><rect fill="#FFFFFF" height="29.1328" style="stroke:#181818;stroke-width:1.0;" width="10" x="371.5" y="96.5625"/><line style="stroke:#181818;stroke-width:0.5;stroke-dasharray:5.0,5.0;" x1="40" x2="40" y1="36.2969" y2="172.8281"/><line style="stroke:#181818;stroke-width:0.5;stroke-dasharray:5.0,5.0;" x1="209.5" x2="209.5" y1="36.2969" y2="172.8281"/><line style="stroke:#181818;stroke-width:0.5;stroke-dasharray:5.0,5.0;" x1="376" x2="376" y1="36.2969" y2="172.8281"/><rect fill="#E2E2F0" height="30.2969" rx="2.5" ry="2.5" style="stroke:#181818;stroke-width:0.5;" width="71" x="5" y="5"/><text fill="#000000" font-family="sans-serif" font-size="14" lengthAdjust="spacing" textLength="57" x="12" y="24.9951">Browser</text><rect fill="#E2E2F0" height="30.2969" rx="2.5" ry="2.5" style="stroke:#181818;stroke-width:0.5;" width="102" x="158.5" y="5"/><text fill="#000000" font-family="sans-serif" font-size="14" lengthAdjust="spacing" textLength="88" x="165.5" y="24.9951">WebConsole</text><rect fill="#E2E2F0" height="30.2969" rx="2.5" ry="2.5" style="stroke:#181818;stroke-width:0.5;" width="59" x="347" y="5"/><text fill="#000000" font-family="sans-serif" font-size="14" lengthAdjust="spacing" textLength="45" x="354" y="24.9951">Conlet</text><rect fill="#FFFFFF" height="29.1328" style="stroke:#181818;stroke-width:1.0;" width="10" x="204.5" y="67.4297"/><rect fill="#FFFFFF" height="29.1328" style="stroke:#181818;stroke-width:1.0;" width="10" x="204.5" y="125.6953"/><rect fill="#FFFFFF" height="29.1328" style="stroke:#181818;stroke-width:1.0;" width="10" x="371.5" y="96.5625"/><polygon fill="#181818" points="192.5,63.4297,202.5,67.4297,192.5,71.4297,196.5,67.4297" style="stroke:#181818;stroke-width:1.0;"/><line style="stroke:#181818;stroke-width:1.0;" x1="40.5" x2="198.5" y1="67.4297" y2="67.4297"/><text fill="#000000" font-family="sans-serif" font-size="13" lengthAdjust="spacing" textLength="145" x="47.5" y="62.3638">"renderConletRequest"</text><polygon fill="#181818" points="359.5,92.5625,369.5,96.5625,359.5,100.5625,363.5,96.5625" style="stroke:#181818;stroke-width:1.0;"/><line style="stroke:#181818;stroke-width:1.0;" x1="209.5" x2="365.5" y1="96.5625" y2="96.5625"/><text fill="#000000" font-family="sans-serif" font-size="13" lengthAdjust="spacing" textLength="138" x="216.5" y="91.4966">RenderConletRequest</text><polygon fill="#181818" points="225.5,121.6953,215.5,125.6953,225.5,129.6953,221.5,125.6953" style="stroke:#181818;stroke-width:1.0;"/><line style="stroke:#181818;stroke-width:1.0;" x1="219.5" x2="375.5" y1="125.6953" y2="125.6953"/><text fill="#000000" font-family="sans-serif" font-size="13" lengthAdjust="spacing" textLength="86" x="231.5" y="120.6294">RenderConlet</text><polygon fill="#181818" points="51.5,150.8281,41.5,154.8281,51.5,158.8281,47.5,154.8281" style="stroke:#181818;stroke-width:1.0;"/><line style="stroke:#181818;stroke-width:1.0;" x1="45.5" x2="208.5" y1="154.8281" y2="154.8281"/><text fill="#000000" font-family="sans-serif" font-size="13" lengthAdjust="spacing" textLength="93" x="57.5" y="149.7622">"renderConlet"</text><!--SRC=[oyXCILL8oyylISglu5BWKd0goYylJYrIqBLJ24zDSixFAyxFIRLIK2fApKj9BGBoSr9BWb8BIrEBIvIu51AJIpBB4ajIaTHo8R51fa2qM2a4OHh0fP2IYjK4k214EHUKHdSKif4ePi64Y70UrBzeFbJ2uJG0]--></g></svg>