<?xml version="1.0" encoding="UTF-8" standalone="no"?><svg xmlns="http://www.w3.org/2000/svg" xmlns:xlink="http://www.w3.org/1999/xlink" contentScriptType="application/ecmascript" contentStyleType="text/css" height="325px" preserveAspectRatio="none" style="width:579px;height:325px;" version="1.1" viewBox="0 0 579 325" width="579px" zoomAndPan="magnify"><defs><filter height="300%" id="fld3jvn9oglw5" width="300%" x="-1" y="-1"><feGaussianBlur result="blurOut" stdDeviation="2.0"/><feColorMatrix in="blurOut" result="blurOut2" type="matrix" values="0 0 0 0 0 0 0 0 0 0 0 0 0 0 0 0 0 0 .4 0"/><feOffset dx="4.0" dy="4.0" in="blurOut2" result="blurOut3"/><feBlend in="SourceGraphic" in2="blurOut3" mode="normal"/></filter></defs><g><rect fill="#FFFFFF" filter="url(#fld3jvn9oglw5)" height="51" style="stroke: #A80036; stroke-width: 1.0;" width="10" x="71" y="96.2969"/><rect fill="#FFFFFF" filter="url(#fld3jvn9oglw5)" height="111.5313" style="stroke: #A80036; stroke-width: 1.0;" width="10" x="71" y="176.4297"/><rect fill="#FFFFFF" filter="url(#fld3jvn9oglw5)" height="30" style="stroke: #A80036; stroke-width: 1.0;" width="10" x="397.5" y="117.2969"/><rect fill="#FFFFFF" filter="url(#fld3jvn9oglw5)" height="75.3984" style="stroke: #000000; stroke-width: 2.0;" width="555" x="13" y="220.6953"/><line style="stroke: #A80036; stroke-width: 1.0; stroke-dasharray: 5.0,5.0;" x1="76" x2="76" y1="86.2969" y2="313.0938"/><line style="stroke: #A80036; stroke-width: 1.0; stroke-dasharray: 5.0,5.0;" x1="281" x2="281" y1="86.2969" y2="313.0938"/><line style="stroke: #A80036; stroke-width: 1.0; stroke-dasharray: 5.0,5.0;" x1="402" x2="402" y1="86.2969" y2="313.0938"/><line style="stroke: #A80036; stroke-width: 1.0; stroke-dasharray: 5.0,5.0;" x1="520" x2="520" y1="86.2969" y2="313.0938"/><rect fill="#FEFECE" filter="url(#fld3jvn9oglw5)" height="30.2969" style="stroke: #A80036; stroke-width: 1.5;" width="102" x="23" y="51"/><text fill="#000000" font-family="sans-serif" font-size="14" lengthAdjust="spacingAndGlyphs" textLength="88" x="30" y="70.9951">WebConsole</text><text fill="#000000" font-family="sans-serif" font-size="14" lengthAdjust="spacingAndGlyphs" textLength="76" x="240" y="82.9951">Framework</text><ellipse cx="281" cy="13" fill="#FEFECE" filter="url(#fld3jvn9oglw5)" rx="8" ry="8" style="stroke: #A80036; stroke-width: 2.0;"/><path d="M281,21 L281,48 M268,29 L294,29 M281,48 L268,63 M281,48 L294,63 " fill="#FEFECE" filter="url(#fld3jvn9oglw5)" style="stroke: #A80036; stroke-width: 2.0;"/><rect fill="#FEFECE" filter="url(#fld3jvn9oglw5)" height="30.2969" style="stroke: #A80036; stroke-width: 1.5;" width="137" x="332" y="51"/><text fill="#000000" font-family="sans-serif" font-size="14" lengthAdjust="spacingAndGlyphs" textLength="123" x="339" y="70.9951">ResourceProvider</text><rect fill="#FEFECE" filter="url(#fld3jvn9oglw5)" height="30.2969" style="stroke: #A80036; stroke-width: 1.5;" width="71" x="483" y="51"/><text fill="#000000" font-family="sans-serif" font-size="14" lengthAdjust="spacingAndGlyphs" textLength="57" x="490" y="70.9951">Browser</text><rect fill="#FFFFFF" filter="url(#fld3jvn9oglw5)" height="51" style="stroke: #A80036; stroke-width: 1.0;" width="10" x="71" y="96.2969"/><rect fill="#FFFFFF" filter="url(#fld3jvn9oglw5)" height="111.5313" style="stroke: #A80036; stroke-width: 1.0;" width="10" x="71" y="176.4297"/><rect fill="#FFFFFF" filter="url(#fld3jvn9oglw5)" height="30" style="stroke: #A80036; stroke-width: 1.0;" width="10" x="397.5" y="117.2969"/><polygon fill="#A80036" points="385.5,113.2969,395.5,117.2969,385.5,121.2969,389.5,117.2969" style="stroke: #A80036; stroke-width: 1.0;"/><line style="stroke: #A80036; stroke-width: 1.0;" x1="81" x2="391.5" y1="117.2969" y2="117.2969"/><text fill="#000000" font-family="sans-serif" font-size="13" lengthAdjust="spacingAndGlyphs" textLength="111" x="88" y="112.3638">ResourceRequest</text><polygon fill="#A80036" points="92,172.4297,82,176.4297,92,180.4297,88,176.4297" style="stroke: #A80036; stroke-width: 1.0;"/><line style="stroke: #A80036; stroke-width: 1.0;" x1="86" x2="280" y1="176.4297" y2="176.4297"/><text fill="#000000" font-family="sans-serif" font-size="13" lengthAdjust="spacingAndGlyphs" textLength="181" x="98" y="171.4966">ResourceRequestCompleted</text><polygon fill="#A80036" points="508.5,201.5625,518.5,205.5625,508.5,209.5625,512.5,205.5625" style="stroke: #A80036; stroke-width: 1.0;"/><line style="stroke: #A80036; stroke-width: 1.0;" x1="81" x2="514.5" y1="205.5625" y2="205.5625"/><text fill="#000000" font-family="sans-serif" font-size="13" lengthAdjust="spacingAndGlyphs" textLength="123" x="88" y="200.6294">"Response Header"</text><rect fill="none" height="75.3984" style="stroke: #000000; stroke-width: 2.0;" width="555" x="13" y="220.6953"/><polygon fill="#EEEEEE" points="13,220.6953,90,220.6953,90,227.6953,80,237.6953,13,237.6953,13,220.6953" style="stroke: #000000; stroke-width: 2.0;"/><text fill="#000000" font-family="sans-serif" font-size="13" font-weight="bold" lengthAdjust="spacingAndGlyphs" textLength="32" x="28" y="233.7622">loop</text><text fill="#000000" font-family="sans-serif" font-size="11" font-weight="bold" lengthAdjust="spacingAndGlyphs" textLength="117" x="105" y="232.9058">[until end of data]</text><polygon fill="#A80036" points="508.5,254.8281,518.5,258.8281,508.5,262.8281,512.5,258.8281" style="stroke: #A80036; stroke-width: 1.0;"/><line style="stroke: #A80036; stroke-width: 1.0;" x1="81" x2="514.5" y1="258.8281" y2="258.8281"/><text fill="#000000" font-family="sans-serif" font-size="13" lengthAdjust="spacingAndGlyphs" textLength="44" x="88" y="253.895">Output</text><polygon fill="#A80036" points="508.5,283.9609,518.5,287.9609,508.5,291.9609,512.5,287.9609" style="stroke: #A80036; stroke-width: 1.0;"/><line style="stroke: #A80036; stroke-width: 1.0;" x1="76" x2="514.5" y1="287.9609" y2="287.9609"/><text fill="#000000" font-family="sans-serif" font-size="13" lengthAdjust="spacingAndGlyphs" textLength="107" x="83" y="283.0278">"Response body"</text><!--
@startuml
hide footbox
 
 activate WebConsole
 actor Framework
 WebConsole -> ResourceProvider: ResourceRequest
 activate ResourceProvider
 deactivate ResourceProvider
 deactivate WebConsole
 Framework -> WebConsole: ResourceRequestCompleted
 activate WebConsole
 WebConsole -> Browser: "Response Header"
 loop until end of data
     WebConsole -> Browser: Output
     WebConsole -> Browser: "Response body"
     deactivate WebConsole
 end loop
 deactivate ResourceProvider
 deactivate Browser
@enduml

PlantUML version 1.2017.18(Fri Oct 06 16:56:32 UTC 2017)
(GPL source distribution)
Java Runtime: OpenJDK Runtime Environment
JVM: OpenJDK 64-Bit Server VM
Java Version: 11.0.10+9-LTS
Operating System: Linux
OS Version: 5.4.0-1043-azure
Default Encoding: UTF-8
Language: en
Country: 
--></g></svg>