<?xml version="1.0" encoding="UTF-8" standalone="no"?><svg xmlns="http://www.w3.org/2000/svg" xmlns:xlink="http://www.w3.org/1999/xlink" contentScriptType="application/ecmascript" contentStyleType="text/css" height="295px" preserveAspectRatio="none" style="width:603px;height:295px;" version="1.1" viewBox="0 0 603 295" width="603px" zoomAndPan="magnify"><defs><filter height="300%" id="ffrk66q50gyyq" width="300%" x="-1" y="-1"><feGaussianBlur result="blurOut" stdDeviation="2.0"/><feColorMatrix in="blurOut" result="blurOut2" type="matrix" values="0 0 0 0 0 0 0 0 0 0 0 0 0 0 0 0 0 0 .4 0"/><feOffset dx="4.0" dy="4.0" in="blurOut2" result="blurOut3"/><feBlend in="SourceGraphic" in2="blurOut3" mode="normal"/></filter></defs><g><rect fill="#FFFFFF" filter="url(#ffrk66q50gyyq)" height="50.1328" style="stroke: #A80036; stroke-width: 1.0;" width="10" x="56" y="96.2969"/><rect fill="#FFFFFF" filter="url(#ffrk66q50gyyq)" height="155.7969" style="stroke: #A80036; stroke-width: 1.0;" width="10" x="387.5" y="117.2969"/><rect fill="#FFFFFF" filter="url(#ffrk66q50gyyq)" height="75.3984" style="stroke: #000000; stroke-width: 2.0;" width="280" x="312" y="190.6953"/><line style="stroke: #A80036; stroke-width: 1.0; stroke-dasharray: 5.0,5.0;" x1="61" x2="61" y1="86.2969" y2="283.0938"/><line style="stroke: #A80036; stroke-width: 1.0; stroke-dasharray: 5.0,5.0;" x1="271" x2="271" y1="86.2969" y2="283.0938"/><line style="stroke: #A80036; stroke-width: 1.0; stroke-dasharray: 5.0,5.0;" x1="392" x2="392" y1="86.2969" y2="283.0938"/><line style="stroke: #A80036; stroke-width: 1.0; stroke-dasharray: 5.0,5.0;" x1="544" x2="544" y1="86.2969" y2="283.0938"/><rect fill="#FEFECE" filter="url(#ffrk66q50gyyq)" height="30.2969" style="stroke: #A80036; stroke-width: 1.5;" width="102" x="8" y="51"/><text fill="#000000" font-family="sans-serif" font-size="14" lengthAdjust="spacingAndGlyphs" textLength="88" x="15" y="70.9951">WebConsole</text><text fill="#000000" font-family="sans-serif" font-size="14" lengthAdjust="spacingAndGlyphs" textLength="76" x="230" y="82.9951">Framework</text><ellipse cx="271" cy="13" fill="#FEFECE" filter="url(#ffrk66q50gyyq)" rx="8" ry="8" style="stroke: #A80036; stroke-width: 2.0;"/><path d="M271,21 L271,48 M258,29 L284,29 M271,48 L258,63 M271,48 L284,63 " fill="#FEFECE" filter="url(#ffrk66q50gyyq)" style="stroke: #A80036; stroke-width: 2.0;"/><rect fill="#FEFECE" filter="url(#ffrk66q50gyyq)" height="30.2969" style="stroke: #A80036; stroke-width: 1.5;" width="137" x="322" y="51"/><text fill="#000000" font-family="sans-serif" font-size="14" lengthAdjust="spacingAndGlyphs" textLength="123" x="329" y="70.9951">ResourceProvider</text><rect fill="#FEFECE" filter="url(#ffrk66q50gyyq)" height="30.2969" style="stroke: #A80036; stroke-width: 1.5;" width="71" x="507" y="51"/><text fill="#000000" font-family="sans-serif" font-size="14" lengthAdjust="spacingAndGlyphs" textLength="57" x="514" y="70.9951">Browser</text><rect fill="#FFFFFF" filter="url(#ffrk66q50gyyq)" height="50.1328" style="stroke: #A80036; stroke-width: 1.0;" width="10" x="56" y="96.2969"/><rect fill="#FFFFFF" filter="url(#ffrk66q50gyyq)" height="155.7969" style="stroke: #A80036; stroke-width: 1.0;" width="10" x="387.5" y="117.2969"/><polygon fill="#A80036" points="375.5,113.2969,385.5,117.2969,375.5,121.2969,379.5,117.2969" style="stroke: #A80036; stroke-width: 1.0;"/><line style="stroke: #A80036; stroke-width: 1.0;" x1="66" x2="381.5" y1="117.2969" y2="117.2969"/><text fill="#000000" font-family="sans-serif" font-size="13" lengthAdjust="spacingAndGlyphs" textLength="111" x="73" y="112.3638">ResourceRequest</text><polygon fill="#A80036" points="72,142.4297,62,146.4297,72,150.4297,68,146.4297" style="stroke: #A80036; stroke-width: 1.0;"/><line style="stroke: #A80036; stroke-width: 1.0;" x1="66" x2="270" y1="146.4297" y2="146.4297"/><text fill="#000000" font-family="sans-serif" font-size="13" lengthAdjust="spacingAndGlyphs" textLength="181" x="78" y="141.4966">ResourceRequestCompleted</text><polygon fill="#A80036" points="532.5,171.5625,542.5,175.5625,532.5,179.5625,536.5,175.5625" style="stroke: #A80036; stroke-width: 1.0;"/><line style="stroke: #A80036; stroke-width: 1.0;" x1="397.5" x2="538.5" y1="175.5625" y2="175.5625"/><text fill="#000000" font-family="sans-serif" font-size="13" lengthAdjust="spacingAndGlyphs" textLength="123" x="404.5" y="170.6294">"Response Header"</text><rect fill="none" height="75.3984" style="stroke: #000000; stroke-width: 2.0;" width="280" x="312" y="190.6953"/><polygon fill="#EEEEEE" points="312,190.6953,389,190.6953,389,197.6953,379,207.6953,312,207.6953,312,190.6953" style="stroke: #000000; stroke-width: 2.0;"/><text fill="#000000" font-family="sans-serif" font-size="13" font-weight="bold" lengthAdjust="spacingAndGlyphs" textLength="32" x="327" y="203.7622">loop</text><text fill="#000000" font-family="sans-serif" font-size="11" font-weight="bold" lengthAdjust="spacingAndGlyphs" textLength="117" x="404" y="202.9058">[until end of data]</text><polygon fill="#A80036" points="532.5,224.8281,542.5,228.8281,532.5,232.8281,536.5,228.8281" style="stroke: #A80036; stroke-width: 1.0;"/><line style="stroke: #A80036; stroke-width: 1.0;" x1="397.5" x2="538.5" y1="228.8281" y2="228.8281"/><text fill="#000000" font-family="sans-serif" font-size="13" lengthAdjust="spacingAndGlyphs" textLength="44" x="404.5" y="223.895">Output</text><polygon fill="#A80036" points="532.5,253.9609,542.5,257.9609,532.5,261.9609,536.5,257.9609" style="stroke: #A80036; stroke-width: 1.0;"/><line style="stroke: #A80036; stroke-width: 1.0;" x1="397.5" x2="538.5" y1="257.9609" y2="257.9609"/><text fill="#000000" font-family="sans-serif" font-size="13" lengthAdjust="spacingAndGlyphs" textLength="107" x="404.5" y="253.0278">"Response body"</text><!--
@startuml
hide footbox
 
 activate WebConsole
 actor Framework
 WebConsole -> ResourceProvider: ResourceRequest
 activate ResourceProvider
 Framework -> WebConsole: ResourceRequestCompleted
 deactivate WebConsole
 ResourceProvider -> Browser: "Response Header"
 loop until end of data
     ResourceProvider -> Browser: Output
     ResourceProvider -> Browser: "Response body"
     deactivate WebConsole
 end loop
 deactivate ResourceProvider
 deactivate Browser
@enduml

PlantUML version 1.2017.18(Fri Oct 06 16:56:32 UTC 2017)
(GPL source distribution)
Java Runtime: OpenJDK Runtime Environment
JVM: OpenJDK 64-Bit Server VM
Java Version: 11.0.14+9-LTS
Operating System: Linux
OS Version: 5.11.0-1027-azure
Default Encoding: UTF-8
Language: en
Country: 
--></g></svg>