<?xml version="1.0" encoding="UTF-8" standalone="no"?><svg xmlns="http://www.w3.org/2000/svg" xmlns:xlink="http://www.w3.org/1999/xlink" contentScriptType="application/ecmascript" contentStyleType="text/css" height="292px" preserveAspectRatio="none" style="width:603px;height:292px;background:#FFFFFF;" version="1.1" viewBox="0 0 603 292" width="603px" zoomAndPan="magnify"><defs><filter height="300%" id="ffrk66q50gyyq" width="300%" x="-1" y="-1"><feGaussianBlur result="blurOut" stdDeviation="2.0"/><feColorMatrix in="blurOut" result="blurOut2" type="matrix" values="0 0 0 0 0 0 0 0 0 0 0 0 0 0 0 0 0 0 .4 0"/><feOffset dx="4.0" dy="4.0" in="blurOut2" result="blurOut3"/><feBlend in="SourceGraphic" in2="blurOut3" mode="normal"/></filter></defs><g><rect fill="#FFFFFF" filter="url(#ffrk66q50gyyq)" height="50.2656" style="stroke:#A80036;stroke-width:1.0;" width="10" x="53" y="98.2969"/><rect fill="#FFFFFF" filter="url(#ffrk66q50gyyq)" height="155.6641" style="stroke:#A80036;stroke-width:1.0;" width="10" x="384.5" y="119.4297"/><rect fill="#FFFFFF" filter="url(#ffrk66q50gyyq)" height="75.3984" style="stroke:#000000;stroke-width:2.0;" width="280" x="309" y="192.6953"/><line style="stroke:#A80036;stroke-width:1.0;stroke-dasharray:5.0,5.0;" x1="58" x2="58" y1="88.2969" y2="285.0938"/><line style="stroke:#A80036;stroke-width:1.0;stroke-dasharray:5.0,5.0;" x1="268" x2="268" y1="88.2969" y2="285.0938"/><line style="stroke:#A80036;stroke-width:1.0;stroke-dasharray:5.0,5.0;" x1="389" x2="389" y1="88.2969" y2="285.0938"/><line style="stroke:#A80036;stroke-width:1.0;stroke-dasharray:5.0,5.0;" x1="541" x2="541" y1="88.2969" y2="285.0938"/><rect fill="#FEFECE" filter="url(#ffrk66q50gyyq)" height="30.2969" style="stroke:#A80036;stroke-width:1.5;" width="102" x="5" y="53"/><text fill="#000000" font-family="sans-serif" font-size="14" lengthAdjust="spacing" textLength="88" x="12" y="72.9951">WebConsole</text><text fill="#000000" font-family="sans-serif" font-size="14" lengthAdjust="spacing" textLength="76" x="227" y="84.9951">Framework</text><ellipse cx="268" cy="15" fill="#FEFECE" filter="url(#ffrk66q50gyyq)" rx="8" ry="8" style="stroke:#A80036;stroke-width:2.0;"/><path d="M268,23 L268,50 M255,31 L281,31 M268,50 L255,65 M268,50 L281,65 " fill="none" filter="url(#ffrk66q50gyyq)" style="stroke:#A80036;stroke-width:2.0;"/><rect fill="#FEFECE" filter="url(#ffrk66q50gyyq)" height="30.2969" style="stroke:#A80036;stroke-width:1.5;" width="137" x="319" y="53"/><text fill="#000000" font-family="sans-serif" font-size="14" lengthAdjust="spacing" textLength="123" x="326" y="72.9951">ResourceProvider</text><rect fill="#FEFECE" filter="url(#ffrk66q50gyyq)" height="30.2969" style="stroke:#A80036;stroke-width:1.5;" width="71" x="504" y="53"/><text fill="#000000" font-family="sans-serif" font-size="14" lengthAdjust="spacing" textLength="57" x="511" y="72.9951">Browser</text><rect fill="#FFFFFF" filter="url(#ffrk66q50gyyq)" height="50.2656" style="stroke:#A80036;stroke-width:1.0;" width="10" x="53" y="98.2969"/><rect fill="#FFFFFF" filter="url(#ffrk66q50gyyq)" height="155.6641" style="stroke:#A80036;stroke-width:1.0;" width="10" x="384.5" y="119.4297"/><polygon fill="#A80036" points="372.5,115.4297,382.5,119.4297,372.5,123.4297,376.5,119.4297" style="stroke:#A80036;stroke-width:1.0;"/><line style="stroke:#A80036;stroke-width:1.0;" x1="63" x2="378.5" y1="119.4297" y2="119.4297"/><text fill="#000000" font-family="sans-serif" font-size="13" lengthAdjust="spacing" textLength="111" x="70" y="114.3638">ResourceRequest</text><polygon fill="#A80036" points="69,144.5625,59,148.5625,69,152.5625,65,148.5625" style="stroke:#A80036;stroke-width:1.0;"/><line style="stroke:#A80036;stroke-width:1.0;" x1="63" x2="267" y1="148.5625" y2="148.5625"/><text fill="#000000" font-family="sans-serif" font-size="13" lengthAdjust="spacing" textLength="181" x="75" y="143.4966">ResourceRequestCompleted</text><polygon fill="#A80036" points="529.5,173.6953,539.5,177.6953,529.5,181.6953,533.5,177.6953" style="stroke:#A80036;stroke-width:1.0;"/><line style="stroke:#A80036;stroke-width:1.0;" x1="394.5" x2="535.5" y1="177.6953" y2="177.6953"/><text fill="#000000" font-family="sans-serif" font-size="13" lengthAdjust="spacing" textLength="123" x="401.5" y="172.6294">"Response Header"</text><path d="M309,192.6953 L386,192.6953 L386,199.6953 L376,209.6953 L309,209.6953 L309,192.6953 " fill="#EEEEEE" style="stroke:#000000;stroke-width:1.0;"/><rect fill="none" height="75.3984" style="stroke:#000000;stroke-width:2.0;" width="280" x="309" y="192.6953"/><text fill="#000000" font-family="sans-serif" font-size="13" font-weight="bold" lengthAdjust="spacing" textLength="32" x="324" y="205.7622">loop</text><text fill="#000000" font-family="sans-serif" font-size="11" font-weight="bold" lengthAdjust="spacing" textLength="117" x="401" y="204.9058">[until end of data]</text><polygon fill="#A80036" points="529.5,226.9609,539.5,230.9609,529.5,234.9609,533.5,230.9609" style="stroke:#A80036;stroke-width:1.0;"/><line style="stroke:#A80036;stroke-width:1.0;" x1="394.5" x2="535.5" y1="230.9609" y2="230.9609"/><text fill="#000000" font-family="sans-serif" font-size="13" lengthAdjust="spacing" textLength="44" x="401.5" y="225.895">Output</text><polygon fill="#A80036" points="529.5,256.0938,539.5,260.0938,529.5,264.0938,533.5,260.0938" style="stroke:#A80036;stroke-width:1.0;"/><line style="stroke:#A80036;stroke-width:1.0;" x1="394.5" x2="535.5" y1="260.0938" y2="260.0938"/><text fill="#000000" font-family="sans-serif" font-size="13" lengthAdjust="spacing" textLength="107" x="401.5" y="255.0278">"Response body"</text><!--MD5=[47e6adf5ac95bf1c441a280c778ce54e]
@startuml
hide footbox
 
 activate WebConsole
 actor Framework
 WebConsole -> ResourceProvider: ResourceRequest
 activate ResourceProvider
 Framework -> WebConsole: ResourceRequestCompleted
 deactivate WebConsole
 ResourceProvider -> Browser: "Response Header"
 loop until end of data
     ResourceProvider -> Browser: Output
     ResourceProvider -> Browser: "Response body"
     deactivate WebConsole
 end loop
 deactivate ResourceProvider
 deactivate Browser
@enduml

PlantUML version 1.2022.1(Tue Feb 01 19:19:58 CET 2022)
(GPL source distribution)
Java Runtime: OpenJDK Runtime Environment
JVM: OpenJDK 64-Bit Server VM
Default Encoding: UTF-8
Language: de
Country: DE
--></g></svg>