<?xml version="1.0" encoding="UTF-8" standalone="no"?><svg xmlns="http://www.w3.org/2000/svg" xmlns:xlink="http://www.w3.org/1999/xlink" contentScriptType="application/ecmascript" contentStyleType="text/css" height="322px" preserveAspectRatio="none" style="width:579px;height:322px;background:#FFFFFF;" version="1.1" viewBox="0 0 579 322" width="579px" zoomAndPan="magnify"><defs><filter height="300%" id="fld3jvn9oglw5" width="300%" x="-1" y="-1"><feGaussianBlur result="blurOut" stdDeviation="2.0"/><feColorMatrix in="blurOut" result="blurOut2" type="matrix" values="0 0 0 0 0 0 0 0 0 0 0 0 0 0 0 0 0 0 .4 0"/><feOffset dx="4.0" dy="4.0" in="blurOut2" result="blurOut3"/><feBlend in="SourceGraphic" in2="blurOut3" mode="normal"/></filter></defs><g><rect fill="#FFFFFF" filter="url(#fld3jvn9oglw5)" height="51.1328" style="stroke:#A80036;stroke-width:1.0;" width="10" x="68" y="98.2969"/><rect fill="#FFFFFF" filter="url(#fld3jvn9oglw5)" height="111.5313" style="stroke:#A80036;stroke-width:1.0;" width="10" x="68" y="178.5625"/><rect fill="#FFFFFF" filter="url(#fld3jvn9oglw5)" height="30" style="stroke:#A80036;stroke-width:1.0;" width="10" x="394.5" y="119.4297"/><rect fill="#FFFFFF" filter="url(#fld3jvn9oglw5)" height="75.3984" style="stroke:#000000;stroke-width:2.0;" width="555" x="10" y="222.6953"/><line style="stroke:#A80036;stroke-width:1.0;stroke-dasharray:5.0,5.0;" x1="73" x2="73" y1="88.2969" y2="315.0938"/><line style="stroke:#A80036;stroke-width:1.0;stroke-dasharray:5.0,5.0;" x1="278" x2="278" y1="88.2969" y2="315.0938"/><line style="stroke:#A80036;stroke-width:1.0;stroke-dasharray:5.0,5.0;" x1="399" x2="399" y1="88.2969" y2="315.0938"/><line style="stroke:#A80036;stroke-width:1.0;stroke-dasharray:5.0,5.0;" x1="517" x2="517" y1="88.2969" y2="315.0938"/><rect fill="#FEFECE" filter="url(#fld3jvn9oglw5)" height="30.2969" style="stroke:#A80036;stroke-width:1.5;" width="102" x="20" y="53"/><text fill="#000000" font-family="sans-serif" font-size="14" lengthAdjust="spacing" textLength="88" x="27" y="72.9951">WebConsole</text><text fill="#000000" font-family="sans-serif" font-size="14" lengthAdjust="spacing" textLength="76" x="237" y="84.9951">Framework</text><ellipse cx="278" cy="15" fill="#FEFECE" filter="url(#fld3jvn9oglw5)" rx="8" ry="8" style="stroke:#A80036;stroke-width:2.0;"/><path d="M278,23 L278,50 M265,31 L291,31 M278,50 L265,65 M278,50 L291,65 " fill="none" filter="url(#fld3jvn9oglw5)" style="stroke:#A80036;stroke-width:2.0;"/><rect fill="#FEFECE" filter="url(#fld3jvn9oglw5)" height="30.2969" style="stroke:#A80036;stroke-width:1.5;" width="137" x="329" y="53"/><text fill="#000000" font-family="sans-serif" font-size="14" lengthAdjust="spacing" textLength="123" x="336" y="72.9951">ResourceProvider</text><rect fill="#FEFECE" filter="url(#fld3jvn9oglw5)" height="30.2969" style="stroke:#A80036;stroke-width:1.5;" width="71" x="480" y="53"/><text fill="#000000" font-family="sans-serif" font-size="14" lengthAdjust="spacing" textLength="57" x="487" y="72.9951">Browser</text><rect fill="#FFFFFF" filter="url(#fld3jvn9oglw5)" height="51.1328" style="stroke:#A80036;stroke-width:1.0;" width="10" x="68" y="98.2969"/><rect fill="#FFFFFF" filter="url(#fld3jvn9oglw5)" height="111.5313" style="stroke:#A80036;stroke-width:1.0;" width="10" x="68" y="178.5625"/><rect fill="#FFFFFF" filter="url(#fld3jvn9oglw5)" height="30" style="stroke:#A80036;stroke-width:1.0;" width="10" x="394.5" y="119.4297"/><polygon fill="#A80036" points="382.5,115.4297,392.5,119.4297,382.5,123.4297,386.5,119.4297" style="stroke:#A80036;stroke-width:1.0;"/><line style="stroke:#A80036;stroke-width:1.0;" x1="78" x2="388.5" y1="119.4297" y2="119.4297"/><text fill="#000000" font-family="sans-serif" font-size="13" lengthAdjust="spacing" textLength="111" x="85" y="114.3638">ResourceRequest</text><polygon fill="#A80036" points="89,174.5625,79,178.5625,89,182.5625,85,178.5625" style="stroke:#A80036;stroke-width:1.0;"/><line style="stroke:#A80036;stroke-width:1.0;" x1="83" x2="277" y1="178.5625" y2="178.5625"/><text fill="#000000" font-family="sans-serif" font-size="13" lengthAdjust="spacing" textLength="181" x="95" y="173.4966">ResourceRequestCompleted</text><polygon fill="#A80036" points="505.5,203.6953,515.5,207.6953,505.5,211.6953,509.5,207.6953" style="stroke:#A80036;stroke-width:1.0;"/><line style="stroke:#A80036;stroke-width:1.0;" x1="78" x2="511.5" y1="207.6953" y2="207.6953"/><text fill="#000000" font-family="sans-serif" font-size="13" lengthAdjust="spacing" textLength="123" x="85" y="202.6294">"Response Header"</text><path d="M10,222.6953 L87,222.6953 L87,229.6953 L77,239.6953 L10,239.6953 L10,222.6953 " fill="#EEEEEE" style="stroke:#000000;stroke-width:1.0;"/><rect fill="none" height="75.3984" style="stroke:#000000;stroke-width:2.0;" width="555" x="10" y="222.6953"/><text fill="#000000" font-family="sans-serif" font-size="13" font-weight="bold" lengthAdjust="spacing" textLength="32" x="25" y="235.7622">loop</text><text fill="#000000" font-family="sans-serif" font-size="11" font-weight="bold" lengthAdjust="spacing" textLength="117" x="102" y="234.9058">[until end of data]</text><polygon fill="#A80036" points="505.5,256.9609,515.5,260.9609,505.5,264.9609,509.5,260.9609" style="stroke:#A80036;stroke-width:1.0;"/><line style="stroke:#A80036;stroke-width:1.0;" x1="78" x2="511.5" y1="260.9609" y2="260.9609"/><text fill="#000000" font-family="sans-serif" font-size="13" lengthAdjust="spacing" textLength="44" x="85" y="255.895">Output</text><polygon fill="#A80036" points="505.5,286.0938,515.5,290.0938,505.5,294.0938,509.5,290.0938" style="stroke:#A80036;stroke-width:1.0;"/><line style="stroke:#A80036;stroke-width:1.0;" x1="73" x2="511.5" y1="290.0938" y2="290.0938"/><text fill="#000000" font-family="sans-serif" font-size="13" lengthAdjust="spacing" textLength="107" x="80" y="285.0278">"Response body"</text><!--MD5=[338639d7c5d3c41577bdc958bcefd225]
@startuml
hide footbox
 
 activate WebConsole
 actor Framework
 WebConsole -> ResourceProvider: ResourceRequest
 activate ResourceProvider
 deactivate ResourceProvider
 deactivate WebConsole
 Framework -> WebConsole: ResourceRequestCompleted
 activate WebConsole
 WebConsole -> Browser: "Response Header"
 loop until end of data
     WebConsole -> Browser: Output
     WebConsole -> Browser: "Response body"
     deactivate WebConsole
 end loop
 deactivate ResourceProvider
 deactivate Browser
@enduml

PlantUML version 1.2022.1(Tue Feb 01 18:19:58 UTC 2022)
(GPL source distribution)
Java Runtime: OpenJDK Runtime Environment
JVM: OpenJDK 64-Bit Server VM
Default Encoding: UTF-8
Language: en
Country: 
--></g></svg>