<?xml version="1.0" encoding="us-ascii" standalone="no"?><svg xmlns="http://www.w3.org/2000/svg" xmlns:xlink="http://www.w3.org/1999/xlink" contentStyleType="text/css" height="316px" preserveAspectRatio="none" style="width:494px;height:316px;background:#FFFFFF;" version="1.1" viewBox="0 0 494 316" width="494px" zoomAndPan="magnify"><defs/><g><rect fill="#FFFFFF" height="97.3984" style="stroke:#181818;stroke-width:1.0;" width="10" x="147" y="112.4297"/><rect fill="#FFFFFF" height="29.1328" style="stroke:#181818;stroke-width:1.0;" width="10" x="267.5" y="112.4297"/><rect fill="#FFFFFF" height="68.2656" style="stroke:#181818;stroke-width:1.0;" width="10" x="267.5" y="230.9609"/><rect fill="none" height="46.2656" style="stroke:#000000;stroke-width:1.5;" width="320" x="91" y="156.5625"/><rect fill="none" height="46.2656" style="stroke:#000000;stroke-width:1.5;" width="332" x="10" y="245.9609"/><line style="stroke:#181818;stroke-width:0.5;stroke-dasharray:5.0,5.0;" x1="55" x2="55" y1="81.2969" y2="309.2266"/><line style="stroke:#181818;stroke-width:0.5;stroke-dasharray:5.0,5.0;" x1="152" x2="152" y1="81.2969" y2="309.2266"/><line style="stroke:#181818;stroke-width:0.5;stroke-dasharray:5.0,5.0;" x1="272" x2="272" y1="81.2969" y2="309.2266"/><line style="stroke:#181818;stroke-width:0.5;stroke-dasharray:5.0,5.0;" x1="371" x2="371" y1="81.2969" y2="309.2266"/><line style="stroke:#181818;stroke-width:0.5;stroke-dasharray:5.0,5.0;" x1="452" x2="452" y1="81.2969" y2="309.2266"/><rect fill="#E2E2F0" height="30.2969" rx="2.5" ry="2.5" style="stroke:#181818;stroke-width:0.5;" width="71" x="20" y="50"/><text fill="#000000" font-family="sans-serif" font-size="14" lengthAdjust="spacing" textLength="57" x="27" y="69.9951">Browser</text><rect fill="#E2E2F0" height="30.2969" rx="2.5" ry="2.5" style="stroke:#181818;stroke-width:0.5;" width="102" x="101" y="50"/><text fill="#000000" font-family="sans-serif" font-size="14" lengthAdjust="spacing" textLength="88" x="108" y="69.9951">WebConsole</text><rect fill="#E2E2F0" height="30.2969" rx="2.5" ry="2.5" style="stroke:#181818;stroke-width:0.5;" width="119" x="213" y="50"/><text fill="#000000" font-family="sans-serif" font-size="14" lengthAdjust="spacing" textLength="105" x="220" y="69.9951">ConsoleWeblet</text><rect fill="#E2E2F0" height="30.2969" rx="2.5" ry="2.5" style="stroke:#181818;stroke-width:0.5;" width="59" x="342" y="50"/><text fill="#000000" font-family="sans-serif" font-size="14" lengthAdjust="spacing" textLength="45" x="349" y="69.9951">Conlet</text><text fill="#000000" font-family="sans-serif" font-size="14" lengthAdjust="spacing" textLength="76" x="411" y="77.9951">Framework</text><ellipse cx="452" cy="13.5" fill="#E2E2F0" rx="8" ry="8" style="stroke:#181818;stroke-width:0.5;"/><path d="M452,21.5 L452,48.5 M439,29.5 L465,29.5 M452,48.5 L439,63.5 M452,48.5 L465,63.5 " fill="none" style="stroke:#181818;stroke-width:0.5;"/><rect fill="#FFFFFF" height="97.3984" style="stroke:#181818;stroke-width:1.0;" width="10" x="147" y="112.4297"/><rect fill="#FFFFFF" height="29.1328" style="stroke:#181818;stroke-width:1.0;" width="10" x="267.5" y="112.4297"/><rect fill="#FFFFFF" height="68.2656" style="stroke:#181818;stroke-width:1.0;" width="10" x="267.5" y="230.9609"/><polygon fill="#181818" points="135,108.4297,145,112.4297,135,116.4297,139,112.4297" style="stroke:#181818;stroke-width:1.0;"/><line style="stroke:#181818;stroke-width:1.0;" x1="55.5" x2="141" y1="112.4297" y2="112.4297"/><text fill="#000000" font-family="sans-serif" font-size="13" lengthAdjust="spacing" textLength="71" x="62.5" y="107.3638">"setLocale"</text><polygon fill="#181818" points="260.5,137.5625,270.5,141.5625,260.5,145.5625,264.5,141.5625" style="stroke:#181818;stroke-width:1.0;"/><line style="stroke:#181818;stroke-width:1.0;" x1="157" x2="266.5" y1="141.5625" y2="141.5625"/><text fill="#000000" font-family="sans-serif" font-size="13" lengthAdjust="spacing" textLength="63" x="164" y="136.4966">SetLocale</text><path d="M91,156.5625 L168,156.5625 L168,163.6953 L158,173.6953 L91,173.6953 L91,156.5625 " fill="#EEEEEE" style="stroke:#000000;stroke-width:1.5;"/><rect fill="none" height="46.2656" style="stroke:#000000;stroke-width:1.5;" width="320" x="91" y="156.5625"/><text fill="#000000" font-family="sans-serif" font-size="13" font-weight="bold" lengthAdjust="spacing" textLength="32" x="106" y="169.6294">loop</text><text fill="#000000" font-family="sans-serif" font-size="11" font-weight="bold" lengthAdjust="spacing" textLength="196" x="183" y="168.7729">[for conlets with l10n support]</text><polygon fill="#181818" points="359.5,190.8281,369.5,194.8281,359.5,198.8281,363.5,194.8281" style="stroke:#181818;stroke-width:1.0;"/><line style="stroke:#181818;stroke-width:1.0;" x1="157" x2="365.5" y1="194.8281" y2="194.8281"/><text fill="#000000" font-family="sans-serif" font-size="13" lengthAdjust="spacing" textLength="63" x="164" y="189.7622">SetLocale</text><polygon fill="#181818" points="288.5,226.9609,278.5,230.9609,288.5,234.9609,284.5,230.9609" style="stroke:#181818;stroke-width:1.0;"/><line style="stroke:#181818;stroke-width:1.0;" x1="282.5" x2="451" y1="230.9609" y2="230.9609"/><text fill="#000000" font-family="sans-serif" font-size="13" lengthAdjust="spacing" textLength="97" x="294.5" y="225.895">SetLocaleDone</text><path d="M10,245.9609 L80,245.9609 L80,253.0938 L70,263.0938 L10,263.0938 L10,245.9609 " fill="#EEEEEE" style="stroke:#000000;stroke-width:1.5;"/><rect fill="none" height="46.2656" style="stroke:#000000;stroke-width:1.5;" width="332" x="10" y="245.9609"/><text fill="#000000" font-family="sans-serif" font-size="13" font-weight="bold" lengthAdjust="spacing" textLength="25" x="25" y="259.0278">opt</text><text fill="#000000" font-family="sans-serif" font-size="11" font-weight="bold" lengthAdjust="spacing" textLength="120" x="95" y="258.1714">[reload requested]</text><polygon fill="#181818" points="66.5,280.2266,56.5,284.2266,66.5,288.2266,62.5,284.2266" style="stroke:#181818;stroke-width:1.0;"/><line style="stroke:#181818;stroke-width:1.0;" x1="60.5" x2="266.5" y1="284.2266" y2="284.2266"/><text fill="#000000" font-family="sans-serif" font-size="13" lengthAdjust="spacing" textLength="50" x="72.5" y="279.1606">"reload"</text><!--SRC=[VL2x3i8m4Dlp5QVkIB0oC01YOcDWJfj3hGXnIQwKpoTz8DgYDaiYdsFxd1U6wGP8YhSYHNkFEh2drOwkd1xW0YnlAGaiPsJQSg98PrAyjF20CG1x9CuiYnfm6itHS4kNhweYmtCA5YXZH4yPN0G2rONaP3ThHw4gI_Z8QSwVqzI2dMd5HcQJ7QBDoUi7r_1tzNikPJ_2BUoFKiYpXJRnUbOSX4sNTqHi3FhkOzlTXwIDF5_D1m00]--></g></svg>