<?xml version="1.0" encoding="UTF-8" standalone="no"?><svg xmlns="http://www.w3.org/2000/svg" xmlns:xlink="http://www.w3.org/1999/xlink" contentScriptType="application/ecmascript" contentStyleType="text/css" height="323px" preserveAspectRatio="none" style="width:510px;height:323px;background:#FFFFFF;" version="1.1" viewBox="0 0 510 323" width="510px" zoomAndPan="magnify"><defs><filter height="300%" id="fw896xtzp51zc" width="300%" x="-1" y="-1"><feGaussianBlur result="blurOut" stdDeviation="2.0"/><feColorMatrix in="blurOut" result="blurOut2" type="matrix" values="0 0 0 0 0 0 0 0 0 0 0 0 0 0 0 0 0 0 .4 0"/><feOffset dx="4.0" dy="4.0" in="blurOut2" result="blurOut3"/><feBlend in="SourceGraphic" in2="blurOut3" mode="normal"/></filter></defs><g><rect fill="#FFFFFF" filter="url(#fw896xtzp51zc)" height="97.3984" style="stroke:#A80036;stroke-width:1.0;" width="10" x="153" y="119.4297"/><rect fill="#FFFFFF" filter="url(#fw896xtzp51zc)" height="29.1328" style="stroke:#A80036;stroke-width:1.0;" width="10" x="277.5" y="119.4297"/><rect fill="#FFFFFF" filter="url(#fw896xtzp51zc)" height="68.2656" style="stroke:#A80036;stroke-width:1.0;" width="10" x="277.5" y="237.9609"/><rect fill="#FFFFFF" filter="url(#fw896xtzp51zc)" height="46.2656" style="stroke:#000000;stroke-width:2.0;" width="332" x="95" y="163.5625"/><rect fill="#FFFFFF" filter="url(#fw896xtzp51zc)" height="46.2656" style="stroke:#000000;stroke-width:2.0;" width="344" x="10" y="252.9609"/><line style="stroke:#A80036;stroke-width:1.0;stroke-dasharray:5.0,5.0;" x1="57" x2="57" y1="88.2969" y2="316.2266"/><line style="stroke:#A80036;stroke-width:1.0;stroke-dasharray:5.0,5.0;" x1="158" x2="158" y1="88.2969" y2="316.2266"/><line style="stroke:#A80036;stroke-width:1.0;stroke-dasharray:5.0,5.0;" x1="282" x2="282" y1="88.2969" y2="316.2266"/><line style="stroke:#A80036;stroke-width:1.0;stroke-dasharray:5.0,5.0;" x1="385" x2="385" y1="88.2969" y2="316.2266"/><line style="stroke:#A80036;stroke-width:1.0;stroke-dasharray:5.0,5.0;" x1="468" x2="468" y1="88.2969" y2="316.2266"/><rect fill="#FEFECE" filter="url(#fw896xtzp51zc)" height="30.2969" style="stroke:#A80036;stroke-width:1.5;" width="71" x="20" y="53"/><text fill="#000000" font-family="sans-serif" font-size="14" lengthAdjust="spacing" textLength="57" x="27" y="72.9951">Browser</text><rect fill="#FEFECE" filter="url(#fw896xtzp51zc)" height="30.2969" style="stroke:#A80036;stroke-width:1.5;" width="102" x="105" y="53"/><text fill="#000000" font-family="sans-serif" font-size="14" lengthAdjust="spacing" textLength="88" x="112" y="72.9951">WebConsole</text><rect fill="#FEFECE" filter="url(#fw896xtzp51zc)" height="30.2969" style="stroke:#A80036;stroke-width:1.5;" width="119" x="221" y="53"/><text fill="#000000" font-family="sans-serif" font-size="14" lengthAdjust="spacing" textLength="105" x="228" y="72.9951">ConsoleWeblet</text><rect fill="#FEFECE" filter="url(#fw896xtzp51zc)" height="30.2969" style="stroke:#A80036;stroke-width:1.5;" width="59" x="354" y="53"/><text fill="#000000" font-family="sans-serif" font-size="14" lengthAdjust="spacing" textLength="45" x="361" y="72.9951">Conlet</text><text fill="#000000" font-family="sans-serif" font-size="14" lengthAdjust="spacing" textLength="76" x="427" y="84.9951">Framework</text><ellipse cx="468" cy="15" fill="#FEFECE" filter="url(#fw896xtzp51zc)" rx="8" ry="8" style="stroke:#A80036;stroke-width:2.0;"/><path d="M468,23 L468,50 M455,31 L481,31 M468,50 L455,65 M468,50 L481,65 " fill="none" filter="url(#fw896xtzp51zc)" style="stroke:#A80036;stroke-width:2.0;"/><rect fill="#FFFFFF" filter="url(#fw896xtzp51zc)" height="97.3984" style="stroke:#A80036;stroke-width:1.0;" width="10" x="153" y="119.4297"/><rect fill="#FFFFFF" filter="url(#fw896xtzp51zc)" height="29.1328" style="stroke:#A80036;stroke-width:1.0;" width="10" x="277.5" y="119.4297"/><rect fill="#FFFFFF" filter="url(#fw896xtzp51zc)" height="68.2656" style="stroke:#A80036;stroke-width:1.0;" width="10" x="277.5" y="237.9609"/><polygon fill="#A80036" points="141,115.4297,151,119.4297,141,123.4297,145,119.4297" style="stroke:#A80036;stroke-width:1.0;"/><line style="stroke:#A80036;stroke-width:1.0;" x1="57.5" x2="147" y1="119.4297" y2="119.4297"/><text fill="#000000" font-family="sans-serif" font-size="13" lengthAdjust="spacing" textLength="71" x="64.5" y="114.3638">"setLocale"</text><polygon fill="#A80036" points="270.5,144.5625,280.5,148.5625,270.5,152.5625,274.5,148.5625" style="stroke:#A80036;stroke-width:1.0;"/><line style="stroke:#A80036;stroke-width:1.0;" x1="163" x2="276.5" y1="148.5625" y2="148.5625"/><text fill="#000000" font-family="sans-serif" font-size="13" lengthAdjust="spacing" textLength="63" x="170" y="143.4966">SetLocale</text><path d="M95,163.5625 L172,163.5625 L172,170.5625 L162,180.5625 L95,180.5625 L95,163.5625 " fill="#EEEEEE" style="stroke:#000000;stroke-width:1.0;"/><rect fill="none" height="46.2656" style="stroke:#000000;stroke-width:2.0;" width="332" x="95" y="163.5625"/><text fill="#000000" font-family="sans-serif" font-size="13" font-weight="bold" lengthAdjust="spacing" textLength="32" x="110" y="176.6294">loop</text><text fill="#000000" font-family="sans-serif" font-size="11" font-weight="bold" lengthAdjust="spacing" textLength="196" x="187" y="175.7729">[for conlets with l10n support]</text><polygon fill="#A80036" points="373.5,197.8281,383.5,201.8281,373.5,205.8281,377.5,201.8281" style="stroke:#A80036;stroke-width:1.0;"/><line style="stroke:#A80036;stroke-width:1.0;" x1="163" x2="379.5" y1="201.8281" y2="201.8281"/><text fill="#000000" font-family="sans-serif" font-size="13" lengthAdjust="spacing" textLength="63" x="170" y="196.7622">SetLocale</text><polygon fill="#A80036" points="298.5,233.9609,288.5,237.9609,298.5,241.9609,294.5,237.9609" style="stroke:#A80036;stroke-width:1.0;"/><line style="stroke:#A80036;stroke-width:1.0;" x1="292.5" x2="467" y1="237.9609" y2="237.9609"/><text fill="#000000" font-family="sans-serif" font-size="13" lengthAdjust="spacing" textLength="97" x="304.5" y="232.895">SetLocaleDone</text><path d="M10,252.9609 L80,252.9609 L80,259.9609 L70,269.9609 L10,269.9609 L10,252.9609 " fill="#EEEEEE" style="stroke:#000000;stroke-width:1.0;"/><rect fill="none" height="46.2656" style="stroke:#000000;stroke-width:2.0;" width="344" x="10" y="252.9609"/><text fill="#000000" font-family="sans-serif" font-size="13" font-weight="bold" lengthAdjust="spacing" textLength="25" x="25" y="266.0278">opt</text><text fill="#000000" font-family="sans-serif" font-size="11" font-weight="bold" lengthAdjust="spacing" textLength="120" x="95" y="265.1714">[reload requested]</text><polygon fill="#A80036" points="68.5,287.2266,58.5,291.2266,68.5,295.2266,64.5,291.2266" style="stroke:#A80036;stroke-width:1.0;"/><line style="stroke:#A80036;stroke-width:1.0;" x1="62.5" x2="276.5" y1="291.2266" y2="291.2266"/><text fill="#000000" font-family="sans-serif" font-size="13" lengthAdjust="spacing" textLength="50" x="74.5" y="286.1606">"reload"</text><!--MD5=[4f796f34464033c5a0b3b2b29c952b9b]
@startuml
hide footbox
 
 Browser -> WebConsole: "setLocale"
 activate WebConsole
 activate ConsoleWeblet
 WebConsole -> ConsoleWeblet: SetLocale
 deactivate ConsoleWeblet
 loop for conlets with l10n support
     WebConsole -> Conlet: SetLocale
 end loop
 deactivate WebConsole
 actor Framework
 Framework -> ConsoleWeblet: SetLocaleDone
 activate ConsoleWeblet
 opt reload requested
     ConsoleWeblet -> Browser: "reload"
 end
 deactivate ConsoleWeblet
@enduml

PlantUML version 1.2022.1(Tue Feb 01 19:19:58 CET 2022)
(GPL source distribution)
Java Runtime: OpenJDK Runtime Environment
JVM: OpenJDK 64-Bit Server VM
Default Encoding: UTF-8
Language: de
Country: DE
--></g></svg>