<?xml version="1.0" encoding="UTF-8" standalone="no"?><svg xmlns="http://www.w3.org/2000/svg" xmlns:xlink="http://www.w3.org/1999/xlink" contentScriptType="application/ecmascript" contentStyleType="text/css" height="326px" preserveAspectRatio="none" style="width:518px;height:326px;" version="1.1" viewBox="0 0 518 326" width="518px" zoomAndPan="magnify"><defs><filter height="300%" id="fw896xtzp51zc" width="300%" x="-1" y="-1"><feGaussianBlur result="blurOut" stdDeviation="2.0"/><feColorMatrix in="blurOut" result="blurOut2" type="matrix" values="0 0 0 0 0 0 0 0 0 0 0 0 0 0 0 0 0 0 .4 0"/><feOffset dx="4.0" dy="4.0" in="blurOut2" result="blurOut3"/><feBlend in="SourceGraphic" in2="blurOut3" mode="normal"/></filter></defs><g><rect fill="#FFFFFF" filter="url(#fw896xtzp51zc)" height="97.5313" style="stroke: #A80036; stroke-width: 1.0;" width="10" x="156" y="117.2969"/><rect fill="#FFFFFF" filter="url(#fw896xtzp51zc)" height="29.1328" style="stroke: #A80036; stroke-width: 1.0;" width="10" x="280.5" y="117.2969"/><rect fill="#FFFFFF" filter="url(#fw896xtzp51zc)" height="68.3984" style="stroke: #A80036; stroke-width: 1.0;" width="10" x="280.5" y="235.8281"/><rect fill="#FFFFFF" filter="url(#fw896xtzp51zc)" height="46.2656" style="stroke: #000000; stroke-width: 2.0;" width="332" x="98" y="161.5625"/><rect fill="#FFFFFF" filter="url(#fw896xtzp51zc)" height="46.2656" style="stroke: #000000; stroke-width: 2.0;" width="344" x="13" y="250.9609"/><line style="stroke: #A80036; stroke-width: 1.0; stroke-dasharray: 5.0,5.0;" x1="60" x2="60" y1="86.2969" y2="314.2266"/><line style="stroke: #A80036; stroke-width: 1.0; stroke-dasharray: 5.0,5.0;" x1="161" x2="161" y1="86.2969" y2="314.2266"/><line style="stroke: #A80036; stroke-width: 1.0; stroke-dasharray: 5.0,5.0;" x1="285" x2="285" y1="86.2969" y2="314.2266"/><line style="stroke: #A80036; stroke-width: 1.0; stroke-dasharray: 5.0,5.0;" x1="388" x2="388" y1="86.2969" y2="314.2266"/><line style="stroke: #A80036; stroke-width: 1.0; stroke-dasharray: 5.0,5.0;" x1="471" x2="471" y1="86.2969" y2="314.2266"/><rect fill="#FEFECE" filter="url(#fw896xtzp51zc)" height="30.2969" style="stroke: #A80036; stroke-width: 1.5;" width="71" x="23" y="51"/><text fill="#000000" font-family="sans-serif" font-size="14" lengthAdjust="spacingAndGlyphs" textLength="57" x="30" y="70.9951">Browser</text><rect fill="#FEFECE" filter="url(#fw896xtzp51zc)" height="30.2969" style="stroke: #A80036; stroke-width: 1.5;" width="102" x="108" y="51"/><text fill="#000000" font-family="sans-serif" font-size="14" lengthAdjust="spacingAndGlyphs" textLength="88" x="115" y="70.9951">WebConsole</text><rect fill="#FEFECE" filter="url(#fw896xtzp51zc)" height="30.2969" style="stroke: #A80036; stroke-width: 1.5;" width="119" x="224" y="51"/><text fill="#000000" font-family="sans-serif" font-size="14" lengthAdjust="spacingAndGlyphs" textLength="105" x="231" y="70.9951">ConsoleWeblet</text><rect fill="#FEFECE" filter="url(#fw896xtzp51zc)" height="30.2969" style="stroke: #A80036; stroke-width: 1.5;" width="59" x="357" y="51"/><text fill="#000000" font-family="sans-serif" font-size="14" lengthAdjust="spacingAndGlyphs" textLength="45" x="364" y="70.9951">Conlet</text><text fill="#000000" font-family="sans-serif" font-size="14" lengthAdjust="spacingAndGlyphs" textLength="76" x="430" y="82.9951">Framework</text><ellipse cx="471" cy="13" fill="#FEFECE" filter="url(#fw896xtzp51zc)" rx="8" ry="8" style="stroke: #A80036; stroke-width: 2.0;"/><path d="M471,21 L471,48 M458,29 L484,29 M471,48 L458,63 M471,48 L484,63 " fill="#FEFECE" filter="url(#fw896xtzp51zc)" style="stroke: #A80036; stroke-width: 2.0;"/><rect fill="#FFFFFF" filter="url(#fw896xtzp51zc)" height="97.5313" style="stroke: #A80036; stroke-width: 1.0;" width="10" x="156" y="117.2969"/><rect fill="#FFFFFF" filter="url(#fw896xtzp51zc)" height="29.1328" style="stroke: #A80036; stroke-width: 1.0;" width="10" x="280.5" y="117.2969"/><rect fill="#FFFFFF" filter="url(#fw896xtzp51zc)" height="68.3984" style="stroke: #A80036; stroke-width: 1.0;" width="10" x="280.5" y="235.8281"/><polygon fill="#A80036" points="144,113.2969,154,117.2969,144,121.2969,148,117.2969" style="stroke: #A80036; stroke-width: 1.0;"/><line style="stroke: #A80036; stroke-width: 1.0;" x1="60.5" x2="150" y1="117.2969" y2="117.2969"/><text fill="#000000" font-family="sans-serif" font-size="13" lengthAdjust="spacingAndGlyphs" textLength="71" x="67.5" y="112.3638">"setLocale"</text><polygon fill="#A80036" points="273.5,142.4297,283.5,146.4297,273.5,150.4297,277.5,146.4297" style="stroke: #A80036; stroke-width: 1.0;"/><line style="stroke: #A80036; stroke-width: 1.0;" x1="166" x2="279.5" y1="146.4297" y2="146.4297"/><text fill="#000000" font-family="sans-serif" font-size="13" lengthAdjust="spacingAndGlyphs" textLength="63" x="173" y="141.4966">SetLocale</text><rect fill="none" height="46.2656" style="stroke: #000000; stroke-width: 2.0;" width="332" x="98" y="161.5625"/><polygon fill="#EEEEEE" points="98,161.5625,175,161.5625,175,168.5625,165,178.5625,98,178.5625,98,161.5625" style="stroke: #000000; stroke-width: 2.0;"/><text fill="#000000" font-family="sans-serif" font-size="13" font-weight="bold" lengthAdjust="spacingAndGlyphs" textLength="32" x="113" y="174.6294">loop</text><text fill="#000000" font-family="sans-serif" font-size="11" font-weight="bold" lengthAdjust="spacingAndGlyphs" textLength="196" x="190" y="173.7729">[for conlets with l10n support]</text><polygon fill="#A80036" points="376.5,195.6953,386.5,199.6953,376.5,203.6953,380.5,199.6953" style="stroke: #A80036; stroke-width: 1.0;"/><line style="stroke: #A80036; stroke-width: 1.0;" x1="166" x2="382.5" y1="199.6953" y2="199.6953"/><text fill="#000000" font-family="sans-serif" font-size="13" lengthAdjust="spacingAndGlyphs" textLength="63" x="173" y="194.7622">SetLocale</text><polygon fill="#A80036" points="301.5,231.8281,291.5,235.8281,301.5,239.8281,297.5,235.8281" style="stroke: #A80036; stroke-width: 1.0;"/><line style="stroke: #A80036; stroke-width: 1.0;" x1="295.5" x2="470" y1="235.8281" y2="235.8281"/><text fill="#000000" font-family="sans-serif" font-size="13" lengthAdjust="spacingAndGlyphs" textLength="97" x="307.5" y="230.895">SetLocaleDone</text><rect fill="none" height="46.2656" style="stroke: #000000; stroke-width: 2.0;" width="344" x="13" y="250.9609"/><polygon fill="#EEEEEE" points="13,250.9609,83,250.9609,83,257.9609,73,267.9609,13,267.9609,13,250.9609" style="stroke: #000000; stroke-width: 2.0;"/><text fill="#000000" font-family="sans-serif" font-size="13" font-weight="bold" lengthAdjust="spacingAndGlyphs" textLength="25" x="28" y="264.0278">opt</text><text fill="#000000" font-family="sans-serif" font-size="11" font-weight="bold" lengthAdjust="spacingAndGlyphs" textLength="120" x="98" y="263.1714">[reload requested]</text><polygon fill="#A80036" points="71.5,285.0938,61.5,289.0938,71.5,293.0938,67.5,289.0938" style="stroke: #A80036; stroke-width: 1.0;"/><line style="stroke: #A80036; stroke-width: 1.0;" x1="65.5" x2="279.5" y1="289.0938" y2="289.0938"/><text fill="#000000" font-family="sans-serif" font-size="13" lengthAdjust="spacingAndGlyphs" textLength="50" x="77.5" y="284.1606">"reload"</text><!--
@startuml
hide footbox
 
 Browser -> WebConsole: "setLocale"
 activate WebConsole
 activate ConsoleWeblet
 WebConsole -> ConsoleWeblet: SetLocale
 deactivate ConsoleWeblet
 loop for conlets with l10n support
     WebConsole -> Conlet: SetLocale
 end loop
 deactivate WebConsole
 actor Framework
 Framework -> ConsoleWeblet: SetLocaleDone
 activate ConsoleWeblet
 opt reload requested
     ConsoleWeblet -> Browser: "reload"
 end
 deactivate ConsoleWeblet
@enduml

PlantUML version 1.2017.18(Fri Oct 06 16:56:32 UTC 2017)
(GPL source distribution)
Java Runtime: OpenJDK Runtime Environment
JVM: OpenJDK 64-Bit Server VM
Java Version: 1.8.0_222-8u222-b10-1ubuntu1~16.04.1-b10
Operating System: Linux
OS Version: 4.15.0-1050-gcp
Default Encoding: UTF-8
Language: en
Country: US
--></g></svg>