<?xml version="1.0" encoding="UTF-8" standalone="no"?><svg xmlns="http://www.w3.org/2000/svg" xmlns:xlink="http://www.w3.org/1999/xlink" contentScriptType="application/ecmascript" contentStyleType="text/css" height="280px" preserveAspectRatio="none" style="width:348px;height:280px;" version="1.1" viewBox="0 0 348 280" width="348px" zoomAndPan="magnify"><defs><filter height="300%" id="f1xtle6op7ry7b" width="300%" x="-1" y="-1"><feGaussianBlur result="blurOut" stdDeviation="2.0"/><feColorMatrix in="blurOut" result="blurOut2" type="matrix" values="0 0 0 0 0 0 0 0 0 0 0 0 0 0 0 0 0 0 .4 0"/><feOffset dx="4.0" dy="4.0" in="blurOut2" result="blurOut3"/><feBlend in="SourceGraphic" in2="blurOut3" mode="normal"/></filter></defs><g><rect fill="#FEFECE" filter="url(#f1xtle6op7ry7b)" height="33.9688" style="stroke: #A80036; stroke-width: 1.5;" width="128" x="10.5" y="11"/><text fill="#000000" font-family="sans-serif" font-size="12" lengthAdjust="spacingAndGlyphs" textLength="114" x="17.5" y="24.1387">app: EchoUntilQuit</text><line style="stroke: #A80036; stroke-width: 1.5;" x1="11.5" x2="137.5" y1="28.9688" y2="28.9688"/><rect fill="#FEFECE" filter="url(#f1xtle6op7ry7b)" height="33.9688" style="stroke: #A80036; stroke-width: 1.5;" width="189" x="6" y="236"/><text fill="#000000" font-family="sans-serif" font-size="12" lengthAdjust="spacingAndGlyphs" textLength="175" x="13" y="249.1387">console: InputStreamMonitor</text><line style="stroke: #A80036; stroke-width: 1.5;" x1="7" x2="194" y1="253.9688" y2="253.9688"/><rect fill="#FEFECE" filter="url(#f1xtle6op7ry7b)" height="33.9688" style="stroke: #A80036; stroke-width: 1.5;" width="119" x="125" y="125"/><text fill="#000000" font-family="sans-serif" font-size="12" lengthAdjust="spacingAndGlyphs" textLength="105" x="132" y="138.1387">channel: Channel</text><line style="stroke: #A80036; stroke-width: 1.5;" x1="126" x2="243" y1="142.9688" y2="142.9688"/><polygon fill="#FBFB77" filter="url(#f1xtle6op7ry7b)" points="177,8,177,48.2656,326,48.2656,326,18,316,8,177,8" style="stroke: #A80036; stroke-width: 1.0;"/><line style="stroke: #A80036; stroke-width: 1.0;" x1="316" x2="316" y1="8" y2="18"/><line style="stroke: #A80036; stroke-width: 1.0;" x1="326" x2="316" y1="18" y2="18"/><text fill="#000000" font-family="sans-serif" font-size="13" lengthAdjust="spacingAndGlyphs" textLength="63" x="183" y="25.0669">Serves as</text><text fill="#000000" font-family="sans-serif" font-size="13" lengthAdjust="spacingAndGlyphs" textLength="128" x="183" y="40.1997">communication bus</text><!--link app to console--><path d="M78.0113,58.3861 C83.5545,106.3564 94.1527,198.0715 98.5318,235.9673 " fill="none" id="app-console" style="stroke: #A80036; stroke-width: 1.0;"/><polygon fill="#A80036" points="76.497,45.2818,73.2123,51.7013,77.8746,57.2025,81.1594,50.7829,76.497,45.2818" style="stroke: #A80036; stroke-width: 1.0;"/><!--link app to channel--><path d="M84.6733,45.0376 C93.6228,59.2605 107.5292,79.6197 122.5,95 C133.2402,106.034 146.7097,116.5611 158.348,124.8447 " fill="none" id="app-channel" style="stroke: #A80036; stroke-width: 1.0;"/><text fill="#000000" font-family="sans-serif" font-size="13" lengthAdjust="spacingAndGlyphs" textLength="84" x="123.5" y="91.0669">connected to</text><polygon fill="#000000" points="161,100.1328,164,106.1328,167,100.1328,161,100.1328" style="stroke: #000000; stroke-width: 1.0;"/><!--link channel to console--><path d="M171.375,159.3437 C155.5942,180.1969 129.2724,214.9793 113.5328,235.778 " fill="none" id="channel-console" style="stroke: #A80036; stroke-width: 1.0;"/><polygon fill="#000000" points="187,200,190,194,193,200,187,200" style="stroke: #000000; stroke-width: 1.0;"/><text fill="#000000" font-family="sans-serif" font-size="13" lengthAdjust="spacingAndGlyphs" textLength="84" x="149.5" y="215.0669">connected to</text><!--link GMN1085 to channel--><path d="M247.4014,48.0483 C243.9896,61.9092 238.2562,80.4078 229.5,95 C222.8737,106.0427 213.2253,116.5708 204.5604,124.8527 " fill="none" id="GMN1085-channel" style="stroke: #A80036; stroke-width: 1.0; stroke-dasharray: 7.0,7.0;"/><!--
@startuml ConsoleEchoApp.svg

object "app: EchoUntilQuit" as app
object "console: InputStreamMonitor" as console
object "channel: Channel" as channel

app *- - console
app - - channel: connected to >
console -up- channel: connected to >

note top of channel:	Serves as\ncommunication bus

@enduml

PlantUML version 1.2017.15(Mon Jul 03 18:45:34 CEST 2017)
(EPL source distribution)
Java Runtime: OpenJDK Runtime Environment
JVM: OpenJDK 64-Bit Server VM
Java Version: 1.8.0_161-b14
Operating System: Linux
OS Version: 4.14.14-300.fc27.x86_64
Default Encoding: UTF-8
Language: de
Country: DE
--></g></svg>