<?xml version="1.0" encoding="UTF-8" standalone="no"?><svg xmlns="http://www.w3.org/2000/svg" xmlns:xlink="http://www.w3.org/1999/xlink" contentScriptType="application/ecmascript" contentStyleType="text/css" height="280px" preserveAspectRatio="none" style="width:350px;height:280px;" version="1.1" viewBox="0 0 350 280" width="350px" zoomAndPan="magnify"><defs><filter height="300%" id="fmsgu8zjhlyaz" width="300%" x="-1" y="-1"><feGaussianBlur result="blurOut" stdDeviation="2.0"/><feColorMatrix in="blurOut" result="blurOut2" type="matrix" values="0 0 0 0 0 0 0 0 0 0 0 0 0 0 0 0 0 0 .4 0"/><feOffset dx="4.0" dy="4.0" in="blurOut2" result="blurOut3"/><feBlend in="SourceGraphic" in2="blurOut3" mode="normal"/></filter></defs><g><rect fill="#FEFECE" filter="url(#fmsgu8zjhlyaz)" height="33.9688" style="stroke: #A80036; stroke-width: 1.5;" width="130" x="12.5" y="11"/><text fill="#000000" font-family="sans-serif" font-size="12" lengthAdjust="spacingAndGlyphs" textLength="116" x="19.5" y="24.1387">app: EchoUntilQuit</text><line style="stroke: #A80036; stroke-width: 1.5;" x1="13.5" x2="141.5" y1="28.9688" y2="28.9688"/><rect fill="#FEFECE" filter="url(#fmsgu8zjhlyaz)" height="33.9688" style="stroke: #A80036; stroke-width: 1.5;" width="195" x="6" y="236"/><text fill="#000000" font-family="sans-serif" font-size="12" lengthAdjust="spacingAndGlyphs" textLength="181" x="13" y="249.1387">console: InputStreamMonitor</text><line style="stroke: #A80036; stroke-width: 1.5;" x1="7" x2="200" y1="253.9688" y2="253.9688"/><rect fill="#FEFECE" filter="url(#fmsgu8zjhlyaz)" height="33.9688" style="stroke: #A80036; stroke-width: 1.5;" width="198" x="127.5" y="125"/><text fill="#000000" font-family="sans-serif" font-size="12" lengthAdjust="spacingAndGlyphs" textLength="184" x="134.5" y="138.1387">mainChannel: NamedChannel</text><line style="stroke: #A80036; stroke-width: 1.5;" x1="128.5" x2="324.5" y1="142.9688" y2="142.9688"/><polygon fill="#FBFB77" filter="url(#fmsgu8zjhlyaz)" points="181,8,181,48.2656,328,48.2656,328,18,318,8,181,8" style="stroke: #A80036; stroke-width: 1.0;"/><polygon fill="#FBFB77" points="181,8,181,48.2656,245.5586,48.2656,230.7512,124.6917,253.5586,48.2656,328,48.2656,328,18,318,8,181,8" style="stroke: #A80036; stroke-width: 1.0;"/><line style="stroke: #A80036; stroke-width: 1.0;" x1="318" x2="318" y1="8" y2="18"/><line style="stroke: #A80036; stroke-width: 1.0;" x1="328" x2="318" y1="18" y2="18"/><text fill="#000000" font-family="sans-serif" font-size="13" lengthAdjust="spacingAndGlyphs" textLength="63" x="187" y="25.0669">Serves as</text><text fill="#000000" font-family="sans-serif" font-size="13" lengthAdjust="spacingAndGlyphs" textLength="126" x="187" y="40.1997">communication bus</text><!--link app to console--><path d="M81.0113,58.3861 C86.5545,106.3564 97.1527,198.0715 101.5318,235.9673 " fill="none" id="app-console" style="stroke: #A80036; stroke-width: 1.0;"/><polygon fill="#A80036" points="79.497,45.2818,76.2123,51.7013,80.8746,57.2025,84.1594,50.7829,79.497,45.2818" style="stroke: #A80036; stroke-width: 1.0;"/><!--link app to channel--><path d="M88.2241,45.1545 C98.0692,59.8369 113.7847,80.7932 131.5,95 C146.573,107.0877 165.2631,117.1665 182.0674,124.8507 " fill="none" id="app-channel" style="stroke: #A80036; stroke-width: 1.0;"/><text fill="#000000" font-family="sans-serif" font-size="13" lengthAdjust="spacingAndGlyphs" textLength="84" x="132.5" y="91.0669">connected to</text><polygon fill="#000000" points="219.5,85.0664,225.5,88.0664,219.5,91.0664,219.5,85.0664" style="stroke: #000000; stroke-width: 1.0;"/><!--link channel to console--><path d="M207.5508,159.1005 C184.5042,179.8986 145.8208,214.808 122.6734,235.6972 " fill="none" id="channel-console" style="stroke: #A80036; stroke-width: 1.0;"/><text fill="#000000" font-family="sans-serif" font-size="13" lengthAdjust="spacingAndGlyphs" textLength="84" x="173.5" y="202.0669">connected to</text><polygon fill="#000000" points="260.5,196.0664,266.5,199.0664,260.5,202.0664,260.5,196.0664" style="stroke: #000000; stroke-width: 1.0;"/><!--
@startuml ConsoleEchoApp.svg

object "app: EchoUntilQuit" as app
object "console: InputStreamMonitor" as console
object "mainChannel: NamedChannel" as channel

app *- - console
app - - channel: connected to >
console -up- channel: connected to >

note top of channel:	Serves as\ncommunication bus

@enduml

PlantUML version 1.2017.15(Mon Jul 03 18:45:34 CEST 2017)
(EPL source distribution)
Java Runtime: Java(TM) SE Runtime Environment
JVM: Java HotSpot(TM) 64-Bit Server VM
Java Version: 1.8.0_181-b13
Operating System: Linux
OS Version: 4.18.9-200.fc28.x86_64
Default Encoding: UTF-8
Language: de
Country: DE
--></g></svg>