<?xml version="1.0" encoding="UTF-8" standalone="no"?><svg xmlns="http://www.w3.org/2000/svg" xmlns:xlink="http://www.w3.org/1999/xlink" contentScriptType="application/ecmascript" contentStyleType="text/css" height="274px" preserveAspectRatio="none" style="width:584px;height:274px;" version="1.1" viewBox="0 0 584 274" width="584px" zoomAndPan="magnify"><defs><filter height="300%" id="f1287rwfa1wwpa" width="300%" x="-1" y="-1"><feGaussianBlur result="blurOut" stdDeviation="2.0"/><feColorMatrix in="blurOut" result="blurOut2" type="matrix" values="0 0 0 0 0 0 0 0 0 0 0 0 0 0 0 0 0 0 .4 0"/><feOffset dx="4.0" dy="4.0" in="blurOut2" result="blurOut3"/><feBlend in="SourceGraphic" in2="blurOut3" mode="normal"/></filter></defs><g><rect fill="#FEFECE" filter="url(#f1287rwfa1wwpa)" height="33.9688" style="stroke: #A80036; stroke-width: 1.5;" width="117" x="284" y="8"/><text fill="#000000" font-family="sans-serif" font-size="12" lengthAdjust="spacingAndGlyphs" textLength="103" x="291" y="21.1387">app: EchoServer</text><line style="stroke: #A80036; stroke-width: 1.5;" x1="285" x2="400" y1="25.9688" y2="25.9688"/><rect fill="#FEFECE" filter="url(#f1287rwfa1wwpa)" height="33.9688" style="stroke: #A80036; stroke-width: 1.5;" width="218" x="71.5" y="119"/><text fill="#000000" font-family="sans-serif" font-size="12" lengthAdjust="spacingAndGlyphs" textLength="204" x="78.5" y="132.1387">networkChannel: NamedChannel</text><line style="stroke: #A80036; stroke-width: 1.5;" x1="72.5" x2="288.5" y1="136.9688" y2="136.9688"/><rect fill="#FEFECE" filter="url(#f1287rwfa1wwpa)" height="33.9688" style="stroke: #A80036; stroke-width: 1.5;" width="229" x="6" y="230"/><text fill="#000000" font-family="sans-serif" font-size="12" lengthAdjust="spacingAndGlyphs" textLength="215" x="13" y="243.1387">connectionChannel: IOSubchannel</text><line style="stroke: #A80036; stroke-width: 1.5;" x1="7" x2="234" y1="247.9688" y2="247.9688"/><rect fill="#FEFECE" filter="url(#f1287rwfa1wwpa)" height="33.9688" style="stroke: #A80036; stroke-width: 1.5;" width="144" x="270.5" y="230"/><text fill="#000000" font-family="sans-serif" font-size="12" lengthAdjust="spacingAndGlyphs" textLength="130" x="277.5" y="243.1387">tcpServer: TcpServer</text><line style="stroke: #A80036; stroke-width: 1.5;" x1="271.5" x2="413.5" y1="247.9688" y2="247.9688"/><rect fill="#FEFECE" filter="url(#f1287rwfa1wwpa)" height="33.9688" style="stroke: #A80036; stroke-width: 1.5;" width="177" x="396" y="119"/><text fill="#000000" font-family="sans-serif" font-size="12" lengthAdjust="spacingAndGlyphs" textLength="163" x="403" y="132.1387">dispatcher: NioDispatcher</text><line style="stroke: #A80036; stroke-width: 1.5;" x1="397" x2="572" y1="136.9688" y2="136.9688"/><!--link app to dispatcher--><path d="M374.7722,50.2269 C401.5357,71.1477 438.8778,100.3376 462.3649,118.6972 " fill="none" id="app-dispatcher" style="stroke: #A80036; stroke-width: 1.0;"/><polygon fill="#A80036" points="364.3763,42.1005,366.6401,48.9471,373.8306,49.4907,371.5669,42.6442,364.3763,42.1005" style="stroke: #A80036; stroke-width: 1.0;"/><!--link app to tcpServer--><path d="M342.5,55.2509 C342.5,102.5267 342.5,192.3872 342.5,229.8906 " fill="none" id="app-tcpServer" style="stroke: #A80036; stroke-width: 1.0;"/><polygon fill="#A80036" points="342.5,42.0513,338.5,48.0513,342.5,54.0513,346.5,48.0513,342.5,42.0513" style="stroke: #A80036; stroke-width: 1.0;"/><!--link app to channel--><path d="M283.989,37.9293 C261.3657,45.1166 236.4238,55.9591 217.5,72 C202.7167,84.5312 192.5002,104.5461 186.6064,118.8565 " fill="none" id="app-channel" style="stroke: #A80036; stroke-width: 1.0;"/><polygon fill="#000000" points="225.5,79.0664,219.5,82.0664,225.5,85.0664,225.5,79.0664" style="stroke: #000000; stroke-width: 1.0;"/><text fill="#000000" font-family="sans-serif" font-size="13" lengthAdjust="spacingAndGlyphs" textLength="84" x="231.5" y="85.0669">connected to</text><!--link channel to tcpServer--><path d="M186.6064,153.1435 C192.5002,167.4539 202.7167,187.4688 217.5,200 C233.0635,213.1925 252.6976,222.8689 271.7647,229.8876 " fill="none" id="channel-tcpServer" style="stroke: #A80036; stroke-width: 1.0;"/><polygon fill="#000000" points="225.5,190.0664,219.5,193.0664,225.5,196.0664,225.5,190.0664" style="stroke: #000000; stroke-width: 1.0;"/><text fill="#000000" font-family="sans-serif" font-size="13" lengthAdjust="spacingAndGlyphs" textLength="84" x="231.5" y="196.0669">connected to</text><!--link channel to subchannel--><path d="M168.6409,157.9394 C157.2465,179.019 140.2612,210.4417 129.8092,229.778 " fill="none" id="channel-subchannel" style="stroke: #A80036; stroke-width: 1.0;"/><polygon fill="#A80036" points="171.125,153.3437,163.3264,159.3588,168.7473,157.7422,170.364,163.1631,171.125,153.3437" style="stroke: #A80036; stroke-width: 1.0;"/><!--
@startuml EchoServer.svg

object "app: EchoServer" as app
object "networkChannel: NamedChannel" as channel
object "connectionChannel: IOSubchannel" as subchannel
object "tcpServer: TcpServer" as tcpServer
object "dispatcher: NioDispatcher" as dispatcher

app *- - dispatcher
app *- - tcpServer
app - - channel: connected to >
tcpServer -up- channel: connected to >
subchannel -up-> channel

@enduml

PlantUML version 1.2017.15(Mon Jul 03 18:45:34 CEST 2017)
(EPL source distribution)
Java Runtime: Java(TM) SE Runtime Environment
JVM: Java HotSpot(TM) 64-Bit Server VM
Java Version: 1.8.0_181-b13
Operating System: Linux
OS Version: 4.18.9-200.fc28.x86_64
Default Encoding: UTF-8
Language: de
Country: DE
--></g></svg>