<?xml version="1.0" encoding="UTF-8" standalone="no"?><svg xmlns="http://www.w3.org/2000/svg" xmlns:xlink="http://www.w3.org/1999/xlink" contentStyleType="text/css" height="275px" preserveAspectRatio="none" style="width:651px;height:275px;background:#FFFFFF;" version="1.1" viewBox="0 0 651 275" width="651px" zoomAndPan="magnify"><defs/><g><g id="elem_app"><rect fill="#F1F1F1" height="36.2969" style="stroke:#181818;stroke-width:0.5;" width="128" x="335" y="7"/><text fill="#000000" font-family="sans-serif" font-size="14" lengthAdjust="spacing" textLength="114" x="342" y="21.9951">app: EchoServer</text><line style="stroke:#181818;stroke-width:0.5;" x1="336" x2="462" y1="27.2969" y2="27.2969"/></g><g id="elem_channel"><rect fill="#F1F1F1" height="36.2969" style="stroke:#181818;stroke-width:0.5;" width="242" x="104" y="120"/><text fill="#000000" font-family="sans-serif" font-size="14" lengthAdjust="spacing" textLength="228" x="111" y="134.9951">networkChannel: NamedChannel</text><line style="stroke:#181818;stroke-width:0.5;" x1="105" x2="345" y1="140.2969" y2="140.2969"/></g><g id="elem_subchannel"><rect fill="#F1F1F1" height="36.2969" style="stroke:#181818;stroke-width:0.5;" width="254" x="7" y="233"/><text fill="#000000" font-family="sans-serif" font-size="14" lengthAdjust="spacing" textLength="240" x="14" y="247.9951">connectionChannel: IOSubchannel</text><line style="stroke:#181818;stroke-width:0.5;" x1="8" x2="260" y1="253.2969" y2="253.2969"/></g><g id="elem_socketServer"><rect fill="#F1F1F1" height="36.2969" style="stroke:#181818;stroke-width:0.5;" width="206" x="296" y="233"/><text fill="#000000" font-family="sans-serif" font-size="14" lengthAdjust="spacing" textLength="192" x="303" y="247.9951">socketServer: SocketServer</text><line style="stroke:#181818;stroke-width:0.5;" x1="297" x2="501" y1="253.2969" y2="253.2969"/></g><g id="elem_dispatcher"><rect fill="#F1F1F1" height="36.2969" style="stroke:#181818;stroke-width:0.5;" width="193" x="452.5" y="120"/><text fill="#000000" font-family="sans-serif" font-size="14" lengthAdjust="spacing" textLength="179" x="459.5" y="134.9951">dispatcher: NioDispatcher</text><line style="stroke:#181818;stroke-width:0.5;" x1="453.5" x2="644.5" y1="140.2969" y2="140.2969"/></g><!--MD5=[bbb09a82d119e983426c55626290aef3]
reverse link app to dispatcher--><g id="link_app_dispatcher"><path codeLine="8" d="M432.71,50.95 C461.01,71.89 500.7,101.26 525.62,119.7 " fill="none" id="app-backto-dispatcher" style="stroke:#181818;stroke-width:1.0;"/><polygon fill="#181818" points="422.11,43.1,424.5473,49.8867,431.7494,50.2471,429.3121,43.4604,422.11,43.1" style="stroke:#181818;stroke-width:1.0;"/></g><!--MD5=[dd1e3f603352007ab138c854e3f575cb]
reverse link app to socketServer--><g id="link_app_socketServer"><path codeLine="9" d="M399,56.22 C399,103.83 399,194.81 399,232.74 " fill="none" id="app-backto-socketServer" style="stroke:#181818;stroke-width:1.0;"/><polygon fill="#181818" points="399,43.2,395,49.2,399,55.2,403,49.2,399,43.2" style="stroke:#181818;stroke-width:1.0;"/></g><!--MD5=[0f07614e11fb76696cb26faa6505454f]
link app to channel--><g id="link_app_channel"><path codeLine="10" d="M334.82,42.47 C314.15,49.71 291.97,59.67 274,73 C257.03,85.59 243.03,105.6 234.4,119.89 " fill="none" id="app-channel" style="stroke:#181818;stroke-width:1.0;"/><polygon fill="#000000" points="275.0402,84.6193,283.998,81.4241,280.4091,76.7691,275.0402,84.6193" style="stroke:#000000;stroke-width:1.0;"/><text fill="#000000" font-family="sans-serif" font-size="13" lengthAdjust="spacing" textLength="84" x="288" y="86.0669">connected to</text></g><!--MD5=[73a02ec37fa9124adf2c0ee1f26e6957]
link channel to socketServer--><g id="link_channel_socketServer"><path codeLine="11" d="M234.4,156.11 C243.03,170.4 257.03,190.41 274,203 C291.5,215.99 313,225.78 333.21,232.96 " fill="none" id="channel-socketServer" style="stroke:#181818;stroke-width:1.0;"/><polygon fill="#000000" points="275.0532,191.4968,280.3887,199.3697,283.9973,194.7299,275.0532,191.4968" style="stroke:#000000;stroke-width:1.0;"/><text fill="#000000" font-family="sans-serif" font-size="13" lengthAdjust="spacing" textLength="84" x="288" y="199.0669">connected to</text></g><!--MD5=[1be2e873afcd55714b2f5f4afe2a8aff]
reverse link channel to subchannel--><g id="link_channel_subchannel"><path codeLine="12" d="M207.45,160.41 C190.17,181.49 164.1,213.28 148.12,232.78 " fill="none" id="channel-backto-subchannel" style="stroke:#181818;stroke-width:1.0;"/><polygon fill="#181818" points="210.78,156.34,201.9743,160.7514,207.6045,160.2021,208.1538,165.8323,210.78,156.34" style="stroke:#181818;stroke-width:1.0;"/></g><!--MD5=[dc3c5835492a5a455504544443f84896]
@startuml EchoServer.svg

object "app: EchoServer" as app
object "networkChannel: NamedChannel" as channel
object "connectionChannel: IOSubchannel" as subchannel
object "socketServer: SocketServer" as socketServer
object "dispatcher: NioDispatcher" as dispatcher

app *- - dispatcher
app *- - socketServer
app - - channel: connected to >
socketServer -up- channel: connected to >
subchannel -up-> channel

@enduml

PlantUML version 1.2022.7(Mon Aug 22 19:01:30 CEST 2022)
(EPL source distribution)
Java Runtime: OpenJDK Runtime Environment
JVM: OpenJDK 64-Bit Server VM
Default Encoding: UTF-8
Language: de
Country: DE
--></g></svg>