<?xml version="1.0" encoding="UTF-8" standalone="no"?><svg xmlns="http://www.w3.org/2000/svg" xmlns:xlink="http://www.w3.org/1999/xlink" contentScriptType="application/ecmascript" contentStyleType="text/css" height="326px" preserveAspectRatio="none" style="width:558px;height:326px;" version="1.1" viewBox="0 0 558 326" width="558px" zoomAndPan="magnify"><defs><filter height="300%" id="fakm5zlzfqhpn" width="300%" x="-1" y="-1"><feGaussianBlur result="blurOut" stdDeviation="2.0"/><feColorMatrix in="blurOut" result="blurOut2" type="matrix" values="0 0 0 0 0 0 0 0 0 0 0 0 0 0 0 0 0 0 .4 0"/><feOffset dx="4.0" dy="4.0" in="blurOut2" result="blurOut3"/><feBlend in="SourceGraphic" in2="blurOut3" mode="normal"/></filter></defs><g><rect fill="#FFFFFF" filter="url(#fakm5zlzfqhpn)" height="97.5313" style="stroke: #A80036; stroke-width: 1.0;" width="10" x="150.5" y="117.2969"/><rect fill="#FFFFFF" filter="url(#fakm5zlzfqhpn)" height="29.1328" style="stroke: #A80036; stroke-width: 1.0;" width="10" x="247.5" y="117.2969"/><rect fill="#FFFFFF" filter="url(#fakm5zlzfqhpn)" height="68.3984" style="stroke: #A80036; stroke-width: 1.0;" width="10" x="247.5" y="235.8281"/><rect fill="#FFFFFF" filter="url(#fakm5zlzfqhpn)" height="46.2656" style="stroke: #000000; stroke-width: 2.0;" width="353" x="117" y="161.5625"/><rect fill="#FFFFFF" filter="url(#fakm5zlzfqhpn)" height="46.2656" style="stroke: #000000; stroke-width: 2.0;" width="302" x="13" y="250.9609"/><line style="stroke: #A80036; stroke-width: 1.0; stroke-dasharray: 5.0,5.0;" x1="60" x2="60" y1="86.2969" y2="314.2266"/><line style="stroke: #A80036; stroke-width: 1.0; stroke-dasharray: 5.0,5.0;" x1="155" x2="155" y1="86.2969" y2="314.2266"/><line style="stroke: #A80036; stroke-width: 1.0; stroke-dasharray: 5.0,5.0;" x1="252" x2="252" y1="86.2969" y2="314.2266"/><line style="stroke: #A80036; stroke-width: 1.0; stroke-dasharray: 5.0,5.0;" x1="387" x2="387" y1="86.2969" y2="314.2266"/><line style="stroke: #A80036; stroke-width: 1.0; stroke-dasharray: 5.0,5.0;" x1="511" x2="511" y1="86.2969" y2="314.2266"/><rect fill="#FEFECE" filter="url(#fakm5zlzfqhpn)" height="30.2969" style="stroke: #A80036; stroke-width: 1.5;" width="71" x="23" y="51"/><text fill="#000000" font-family="sans-serif" font-size="14" lengthAdjust="spacingAndGlyphs" textLength="57" x="30" y="70.9951">Browser</text><rect fill="#FEFECE" filter="url(#fakm5zlzfqhpn)" height="30.2969" style="stroke: #A80036; stroke-width: 1.5;" width="53" x="127" y="51"/><text fill="#000000" font-family="sans-serif" font-size="14" lengthAdjust="spacingAndGlyphs" textLength="39" x="134" y="70.9951">Portal</text><rect fill="#FEFECE" filter="url(#fakm5zlzfqhpn)" height="30.2969" style="stroke: #A80036; stroke-width: 1.5;" width="101" x="200" y="51"/><text fill="#000000" font-family="sans-serif" font-size="14" lengthAdjust="spacingAndGlyphs" textLength="87" x="207" y="70.9951">PortalWeblet</text><rect fill="#FEFECE" filter="url(#fakm5zlzfqhpn)" height="30.2969" style="stroke: #A80036; stroke-width: 1.5;" width="141" x="315" y="51"/><text fill="#000000" font-family="sans-serif" font-size="14" lengthAdjust="spacingAndGlyphs" textLength="127" x="322" y="70.9951">PortletComponent</text><text fill="#000000" font-family="sans-serif" font-size="14" lengthAdjust="spacingAndGlyphs" textLength="76" x="470" y="82.9951">Framework</text><ellipse cx="511" cy="13" fill="#FEFECE" filter="url(#fakm5zlzfqhpn)" rx="8" ry="8" style="stroke: #A80036; stroke-width: 2.0;"/><path d="M511,21 L511,48 M498,29 L524,29 M511,48 L498,63 M511,48 L524,63 " fill="#FEFECE" filter="url(#fakm5zlzfqhpn)" style="stroke: #A80036; stroke-width: 2.0;"/><rect fill="#FFFFFF" filter="url(#fakm5zlzfqhpn)" height="97.5313" style="stroke: #A80036; stroke-width: 1.0;" width="10" x="150.5" y="117.2969"/><rect fill="#FFFFFF" filter="url(#fakm5zlzfqhpn)" height="29.1328" style="stroke: #A80036; stroke-width: 1.0;" width="10" x="247.5" y="117.2969"/><rect fill="#FFFFFF" filter="url(#fakm5zlzfqhpn)" height="68.3984" style="stroke: #A80036; stroke-width: 1.0;" width="10" x="247.5" y="235.8281"/><polygon fill="#A80036" points="138.5,113.2969,148.5,117.2969,138.5,121.2969,142.5,117.2969" style="stroke: #A80036; stroke-width: 1.0;"/><line style="stroke: #A80036; stroke-width: 1.0;" x1="60.5" x2="144.5" y1="117.2969" y2="117.2969"/><text fill="#000000" font-family="sans-serif" font-size="13" lengthAdjust="spacingAndGlyphs" textLength="71" x="67.5" y="112.3638">"setLocale"</text><polygon fill="#A80036" points="240.5,142.4297,250.5,146.4297,240.5,150.4297,244.5,146.4297" style="stroke: #A80036; stroke-width: 1.0;"/><line style="stroke: #A80036; stroke-width: 1.0;" x1="160.5" x2="246.5" y1="146.4297" y2="146.4297"/><text fill="#000000" font-family="sans-serif" font-size="13" lengthAdjust="spacingAndGlyphs" textLength="63" x="167.5" y="141.4966">SetLocale</text><rect fill="none" height="46.2656" style="stroke: #000000; stroke-width: 2.0;" width="353" x="117" y="161.5625"/><polygon fill="#EEEEEE" points="117,161.5625,194,161.5625,194,168.5625,184,178.5625,117,178.5625,117,161.5625" style="stroke: #000000; stroke-width: 2.0;"/><text fill="#000000" font-family="sans-serif" font-size="13" font-weight="bold" lengthAdjust="spacingAndGlyphs" textLength="32" x="132" y="174.6294">loop</text><text fill="#000000" font-family="sans-serif" font-size="11" font-weight="bold" lengthAdjust="spacingAndGlyphs" textLength="199" x="209" y="173.7729">[for portlets with l10n support]</text><polygon fill="#A80036" points="375.5,195.6953,385.5,199.6953,375.5,203.6953,379.5,199.6953" style="stroke: #A80036; stroke-width: 1.0;"/><line style="stroke: #A80036; stroke-width: 1.0;" x1="160.5" x2="381.5" y1="199.6953" y2="199.6953"/><text fill="#000000" font-family="sans-serif" font-size="13" lengthAdjust="spacingAndGlyphs" textLength="63" x="167.5" y="194.7622">SetLocale</text><polygon fill="#A80036" points="268.5,231.8281,258.5,235.8281,268.5,239.8281,264.5,235.8281" style="stroke: #A80036; stroke-width: 1.0;"/><line style="stroke: #A80036; stroke-width: 1.0;" x1="262.5" x2="510" y1="235.8281" y2="235.8281"/><text fill="#000000" font-family="sans-serif" font-size="13" lengthAdjust="spacingAndGlyphs" textLength="97" x="274.5" y="230.895">SetLocaleDone</text><rect fill="none" height="46.2656" style="stroke: #000000; stroke-width: 2.0;" width="302" x="13" y="250.9609"/><polygon fill="#EEEEEE" points="13,250.9609,83,250.9609,83,257.9609,73,267.9609,13,267.9609,13,250.9609" style="stroke: #000000; stroke-width: 2.0;"/><text fill="#000000" font-family="sans-serif" font-size="13" font-weight="bold" lengthAdjust="spacingAndGlyphs" textLength="25" x="28" y="264.0278">opt</text><text fill="#000000" font-family="sans-serif" font-size="11" font-weight="bold" lengthAdjust="spacingAndGlyphs" textLength="120" x="98" y="263.1714">[reload requested]</text><polygon fill="#A80036" points="71.5,285.0938,61.5,289.0938,71.5,293.0938,67.5,289.0938" style="stroke: #A80036; stroke-width: 1.0;"/><line style="stroke: #A80036; stroke-width: 1.0;" x1="65.5" x2="246.5" y1="289.0938" y2="289.0938"/><text fill="#000000" font-family="sans-serif" font-size="13" lengthAdjust="spacingAndGlyphs" textLength="50" x="77.5" y="284.1606">"reload"</text><!--
@startuml
hide footbox
 
 Browser -> Portal: "setLocale"
 activate Portal
 activate PortalWeblet
 Portal -> PortalWeblet: SetLocale
 deactivate PortalWeblet
 loop for portlets with l10n support
     Portal -> PortletComponent: SetLocale
 end loop
 deactivate Portal
 actor Framework
 Framework -> PortalWeblet: SetLocaleDone
 activate PortalWeblet
 opt reload requested
     PortalWeblet -> Browser: "reload"
 end
 deactivate PortalWeblet
@enduml

PlantUML version 1.2017.18(Fri Oct 06 16:56:32 UTC 2017)
(GPL source distribution)
Java Runtime: OpenJDK Runtime Environment
JVM: OpenJDK 64-Bit Server VM
Java Version: 1.8.0_222-8u222-b10-1ubuntu1~16.04.1-b10
Operating System: Linux
OS Version: 4.15.0-1050-gcp
Default Encoding: UTF-8
Language: en
Country: US
--></g></svg>