<?xml version="1.0" encoding="UTF-8" standalone="no"?><svg xmlns="http://www.w3.org/2000/svg" xmlns:xlink="http://www.w3.org/1999/xlink" contentScriptType="application/ecmascript" contentStyleType="text/css" height="244px" preserveAspectRatio="none" style="width:577px;height:244px;background:#FFFFFF;" version="1.1" viewBox="0 0 577 244" width="577px" zoomAndPan="magnify"><defs><filter height="300%" id="f17dwaq4k71bhw" width="300%" x="-1" y="-1"><feGaussianBlur result="blurOut" stdDeviation="2.0"/><feColorMatrix in="blurOut" result="blurOut2" type="matrix" values="0 0 0 0 0 0 0 0 0 0 0 0 0 0 0 0 0 0 .4 0"/><feOffset dx="4.0" dy="4.0" in="blurOut2" result="blurOut3"/><feBlend in="SourceGraphic" in2="blurOut3" mode="normal"/></filter></defs><g><!--MD5=[4e13963c9dc916a21a8436ef39422b32]
class Component--><rect codeLine="1" fill="#FEFECE" filter="url(#f17dwaq4k71bhw)" height="73.6094" id="Component" style="stroke:#A80036;stroke-width:1.5;" width="152" x="7" y="7"/><ellipse cx="43.6" cy="23" fill="#ADD1B2" rx="11" ry="11" style="stroke:#A80036;stroke-width:1.0;"/><path d="M46.5688,28.6406 Q45.9906,28.9375 45.35,29.0781 Q44.7094,29.2344 44.0063,29.2344 Q41.5063,29.2344 40.1781,27.5938 Q38.8656,25.9375 38.8656,22.8125 Q38.8656,19.6875 40.1781,18.0313 Q41.5063,16.375 44.0063,16.375 Q44.7094,16.375 45.35,16.5313 Q46.0063,16.6875 46.5688,16.9844 L46.5688,19.7031 Q45.9438,19.125 45.35,18.8594 Q44.7563,18.5781 44.1313,18.5781 Q42.7875,18.5781 42.1,19.6563 Q41.4125,20.7188 41.4125,22.8125 Q41.4125,24.9063 42.1,25.9844 Q42.7875,27.0469 44.1313,27.0469 Q44.7563,27.0469 45.35,26.7813 Q45.9438,26.5 46.5688,25.9219 L46.5688,28.6406 Z " fill="#000000"/><text fill="#000000" font-family="sans-serif" font-size="12" lengthAdjust="spacing" textLength="72" x="62.4" y="27.1543">Component</text><line style="stroke:#A80036;stroke-width:1.5;" x1="8" x2="158" y1="39" y2="39"/><line style="stroke:#A80036;stroke-width:1.5;" x1="8" x2="158" y1="47" y2="47"/><ellipse cx="18" cy="58" fill="#84BE84" rx="3" ry="3" style="stroke:#038048;stroke-width:1.0;"/><text fill="#000000" font-family="sans-serif" font-size="11" lengthAdjust="spacing" textLength="126" x="27" y="61.2104">fire(event: Event): void</text><ellipse cx="18" cy="70.8047" fill="#84BE84" rx="3" ry="3" style="stroke:#038048;stroke-width:1.0;"/><text fill="#000000" font-family="sans-serif" font-size="11" lengthAdjust="spacing" textLength="116" x="27" y="74.0151">onSomeEvent(): void</text><!--MD5=[36a2e91f7ebfa1ef56a627ca8e9a4f2d]
class SomeChannel--><rect codeLine="6" fill="#FEFECE" filter="url(#f17dwaq4k71bhw)" height="60.8047" id="SomeChannel" style="stroke:#A80036;stroke-width:1.5;" width="177" x="386" y="13"/><ellipse cx="427.55" cy="29" fill="#ADD1B2" rx="11" ry="11" style="stroke:#A80036;stroke-width:1.0;"/><path d="M430.5188,34.6406 Q429.9406,34.9375 429.3,35.0781 Q428.6594,35.2344 427.9563,35.2344 Q425.4563,35.2344 424.1281,33.5938 Q422.8156,31.9375 422.8156,28.8125 Q422.8156,25.6875 424.1281,24.0313 Q425.4563,22.375 427.9563,22.375 Q428.6594,22.375 429.3,22.5313 Q429.9563,22.6875 430.5188,22.9844 L430.5188,25.7031 Q429.8938,25.125 429.3,24.8594 Q428.7063,24.5781 428.0813,24.5781 Q426.7375,24.5781 426.05,25.6563 Q425.3625,26.7188 425.3625,28.8125 Q425.3625,30.9063 426.05,31.9844 Q426.7375,33.0469 428.0813,33.0469 Q428.7063,33.0469 429.3,32.7813 Q429.8938,32.5 430.5188,31.9219 L430.5188,34.6406 Z " fill="#000000"/><text fill="#000000" font-family="sans-serif" font-size="12" lengthAdjust="spacing" textLength="86" x="447.45" y="33.1543">SomeChannel</text><line style="stroke:#A80036;stroke-width:1.5;" x1="387" x2="562" y1="45" y2="45"/><line style="stroke:#A80036;stroke-width:1.5;" x1="387" x2="562" y1="53" y2="53"/><ellipse cx="397" cy="64" fill="#84BE84" rx="3" ry="3" style="stroke:#038048;stroke-width:1.0;"/><text fill="#000000" font-family="sans-serif" font-size="11" lengthAdjust="spacing" textLength="151" x="406" y="67.2104">forward(event: Event): void</text><!--MD5=[b4b6ae868bbaec0af03f5c97e17f7a55]
link Component to SomeChannel--><!--MD5=[b4b6ae868bbaec0af03f5c97e17f7a55]
link Component to SomeChannel--><path codeLine="12" d="M136.69,80.11 C156.04,91.35 178.68,102.29 201,108 C263.01,123.85 282.73,122.8 345,108 C370.41,101.96 396.5,90.07 418.5,78.1 " fill="none" id="Component-to-SomeChannel-1" style="stroke:#A80036;stroke-width:1.0;stroke-dasharray:7.0,7.0;"/><polygon fill="#A80036" points="427.35,73.16,417.5412,74.0478,422.9826,75.5943,421.4361,81.0356,427.35,73.16" style="stroke:#A80036;stroke-width:1.0;"/><text fill="#000000" font-family="sans-serif" font-size="13" lengthAdjust="spacing" textLength="22" x="214.5" y="93.0669">&lt;&gt;</text><path d="M242.5,74 L242.5,99 L323.5,99 L323.5,84 L313.5,74 L242.5,74 " fill="#FBFB77" filter="url(#f17dwaq4k71bhw)" style="stroke:#A80036;stroke-width:1.0;"/><path d="M313.5,74 L313.5,84 L323.5,84 L313.5,74 " fill="#FBFB77" style="stroke:#A80036;stroke-width:1.0;"/><text fill="#000000" font-family="sans-serif" font-size="13" lengthAdjust="spacing" textLength="60" x="248.5" y="91.0669">fire event</text><text fill="#000000" font-family="sans-serif" font-size="13" lengthAdjust="spacing" textLength="23" x="355.9638" y="88.6442">0..*</text><!--MD5=[00c607bcd41d8e79f56d06b3497a0ccc]
reverse link Component to SomeChannel--><path codeLine="15" d="M102.77,80.07 C122.29,113.27 156.26,160.37 201,181 C259.12,207.79 286.29,206.48 345,181 C395.39,159.12 435.07,106.79 456.48,73.23 " fill="none" id="Component-backto-SomeChannel" style="stroke:#A80036;stroke-width:1.0;stroke-dasharray:7.0,7.0;"/><polygon fill="#A80036" points="201,127,200.4148,136.8315,202.7556,131.6816,207.9054,134.0225,201,127" style="stroke:#A80036;stroke-width:1.0;"/><line style="stroke:#A80036;stroke-width:1.0;" x1="202.7556" x2="273" y1="131.6816" y2="154"/><path d="M206,132 L206,172 L312,172 L312,142 L302,132 L206,132 " fill="#FBFB77" filter="url(#f17dwaq4k71bhw)" style="stroke:#A80036;stroke-width:1.0;"/><path d="M302,132 L302,142 L312,142 L302,132 " fill="#FBFB77" style="stroke:#A80036;stroke-width:1.0;"/><text fill="#000000" font-family="sans-serif" font-size="13" lengthAdjust="spacing" textLength="81" x="212" y="149.0669">invoke event</text><text fill="#000000" font-family="sans-serif" font-size="13" lengthAdjust="spacing" textLength="55" x="212" y="164.1997">handlers</text><text fill="#000000" font-family="sans-serif" font-size="13" lengthAdjust="spacing" textLength="22" x="322" y="158.6333">&lt;&gt;</text><text fill="#000000" font-family="sans-serif" font-size="13" lengthAdjust="spacing" textLength="23" x="86.5928" y="100.9231">0..*</text><!--MD5=[24dcdaf0fb65a7138c3cde0fa52e07c2]
@startuml
class Component {
  + fire(event: Event): void
  + onSomeEvent(): void
 }
 
 class SomeChannel {
  + forward(event: Event): void
 }
 
 Component -[hidden]right-> SomeChannel
 
 Component ..> "0..*" SomeChannel : <>
 note right on link: fire event
 
 Component "0..*" <.. SomeChannel : <>
 note left on link
 invoke event 
 handlers
 end note
@enduml

PlantUML version 1.2022.1(Tue Feb 01 19:19:58 CET 2022)
(GPL source distribution)
Java Runtime: OpenJDK Runtime Environment
JVM: OpenJDK 64-Bit Server VM
Default Encoding: UTF-8
Language: de
Country: DE
--></g></svg>