<?xml version="1.0" encoding="UTF-8" standalone="no"?><svg xmlns="http://www.w3.org/2000/svg" xmlns:xlink="http://www.w3.org/1999/xlink" contentScriptType="application/ecmascript" contentStyleType="text/css" height="119px" preserveAspectRatio="none" style="width:544px;height:119px;" version="1.1" viewBox="0 0 544 119" width="544px" zoomAndPan="magnify"><defs><filter height="300%" id="fh4qsa9" width="300%" x="-1" y="-1"><feGaussianBlur result="blurOut" stdDeviation="2.0"/><feColorMatrix in="blurOut" result="blurOut2" type="matrix" values="0 0 0 0 0 0 0 0 0 0 0 0 0 0 0 0 0 0 .4 0"/><feOffset dx="4.0" dy="4.0" in="blurOut2" result="blurOut3"/><feBlend in="SourceGraphic" in2="blurOut3" mode="normal"/></filter></defs><g><!--class Component--><rect fill="#FEFECE" filter="url(#fh4qsa9)" height="73.6094" style="stroke: #A80036; stroke-width: 1.5;" width="154" x="6" y="31.0203"/><ellipse cx="43.5" cy="47.0203" fill="#ADD1B2" rx="11" ry="11" style="stroke: #A80036; stroke-width: 1.0;"/><path d="M46.4688,52.6609 Q45.8906,52.9578 45.25,53.1062 Q44.6094,53.2547 43.9063,53.2547 Q41.4063,53.2547 40.0859,51.6062 Q38.7656,49.9578 38.7656,46.8328 Q38.7656,43.7078 40.0859,42.0516 Q41.4063,40.3953 43.9063,40.3953 Q44.6094,40.3953 45.2578,40.5516 Q45.9063,40.7078 46.4688,41.0047 L46.4688,43.7234 Q45.8438,43.1453 45.25,42.8719 Q44.6563,42.5984 44.0313,42.5984 Q42.6875,42.5984 42,43.6687 Q41.3125,44.7391 41.3125,46.8328 Q41.3125,48.9266 42,49.9969 Q42.6875,51.0672 44.0313,51.0672 Q44.6563,51.0672 45.25,50.7937 Q45.8438,50.5203 46.4688,49.9422 L46.4688,52.6609 Z "/><text fill="#000000" font-family="sans-serif" font-size="12" lengthAdjust="spacingAndGlyphs" textLength="72" x="62.5" y="51.1746">Component</text><line style="stroke: #A80036; stroke-width: 1.5;" x1="7" x2="159" y1="63.0203" y2="63.0203"/><line style="stroke: #A80036; stroke-width: 1.5;" x1="7" x2="159" y1="71.0203" y2="71.0203"/><ellipse cx="17" cy="82.9226" fill="#84BE84" rx="3" ry="3" style="stroke: #038048; stroke-width: 1.0;"/><text fill="#000000" font-family="sans-serif" font-size="11" lengthAdjust="spacingAndGlyphs" textLength="128" x="26" y="85.2307">fire(event: Event): void</text><ellipse cx="17" cy="95.7273" fill="#84BE84" rx="3" ry="3" style="stroke: #038048; stroke-width: 1.0;"/><text fill="#000000" font-family="sans-serif" font-size="11" lengthAdjust="spacingAndGlyphs" textLength="117" x="26" y="98.0354">onSomeEvent(): void</text><!--class SomeChannel--><rect fill="#FEFECE" filter="url(#fh4qsa9)" height="60.8047" style="stroke: #A80036; stroke-width: 1.5;" width="179" x="356.5" y="37.5203"/><ellipse cx="398.95" cy="53.5203" fill="#ADD1B2" rx="11" ry="11" style="stroke: #A80036; stroke-width: 1.0;"/><path d="M401.9188,59.1609 Q401.3406,59.4578 400.7,59.6062 Q400.0594,59.7547 399.3563,59.7547 Q396.8563,59.7547 395.5359,58.1062 Q394.2156,56.4578 394.2156,53.3328 Q394.2156,50.2078 395.5359,48.5516 Q396.8563,46.8953 399.3563,46.8953 Q400.0594,46.8953 400.7078,47.0516 Q401.3563,47.2078 401.9188,47.5047 L401.9188,50.2234 Q401.2938,49.6453 400.7,49.3719 Q400.1063,49.0984 399.4813,49.0984 Q398.1375,49.0984 397.45,50.1687 Q396.7625,51.2391 396.7625,53.3328 Q396.7625,55.4266 397.45,56.4969 Q398.1375,57.5672 399.4813,57.5672 Q400.1063,57.5672 400.7,57.2937 Q401.2938,57.0203 401.9188,56.4422 L401.9188,59.1609 Z "/><text fill="#000000" font-family="sans-serif" font-size="12" lengthAdjust="spacingAndGlyphs" textLength="86" x="419.05" y="57.6746">SomeChannel</text><line style="stroke: #A80036; stroke-width: 1.5;" x1="357.5" x2="534.5" y1="69.5203" y2="69.5203"/><line style="stroke: #A80036; stroke-width: 1.5;" x1="357.5" x2="534.5" y1="77.5203" y2="77.5203"/><ellipse cx="367.5" cy="89.4226" fill="#84BE84" rx="3" ry="3" style="stroke: #038048; stroke-width: 1.0;"/><text fill="#000000" font-family="sans-serif" font-size="11" lengthAdjust="spacingAndGlyphs" textLength="153" x="376.5" y="91.7307">forward(event: Event): void</text><path d="M160.037,101.8512 C170.363,105.2134 180.947,108.0915 191.25,110.0203 C220.519,115.4994 295.888,114.9809 325.25,110.0203 C338.602,107.7645 352.447,104.1986 365.793,100.0751 " fill="none" style="stroke: #A80036; stroke-width: 1.0; stroke-dasharray: 7.0,7.0;"/><polygon fill="#A80036" points="370.686,98.5321,360.8996,97.425,365.9176,100.0363,363.3063,105.0544,370.686,98.5321" style="stroke: #A80036; stroke-width: 1.0;"/><text fill="#000000" font-family="sans-serif" font-size="13" lengthAdjust="spacingAndGlyphs" textLength="37" x="192.25" y="95.0872">«call»</text><polygon fill="#FBFB77" filter="url(#fh4qsa9)" points="235.25,76.0203,235.25,101.0203,316.25,101.0203,316.25,86.0203,306.25,76.0203,235.25,76.0203" style="stroke: #A80036; stroke-width: 1.0;"/><line style="stroke: #A80036; stroke-width: 1.0;" x1="306.25" x2="306.25" y1="76.0203" y2="86.0203"/><line style="stroke: #A80036; stroke-width: 1.0;" x1="316.25" x2="306.25" y1="86.0203" y2="86.0203"/><text fill="#000000" font-family="sans-serif" font-size="13" lengthAdjust="spacingAndGlyphs" textLength="60" x="241.25" y="93.0872">fire event</text><text fill="#000000" font-family="sans-serif" font-size="13" lengthAdjust="spacingAndGlyphs" textLength="23" x="329.7806" y="118.4728">0..*</text><path d="M165.522,68.0203 C222.365,68.0203 297.867,68.0203 356.215,68.0203 " fill="none" style="stroke: #A80036; stroke-width: 1.0; stroke-dasharray: 7.0,7.0;"/><polygon fill="#A80036" points="160.427,68.0203,169.427,72.0203,165.427,68.0203,169.427,64.0203,160.427,68.0203" style="stroke: #A80036; stroke-width: 1.0;"/><polygon fill="#FBFB77" filter="url(#fh4qsa9)" points="182.25,16.02,182.25,56.02,291.25,56.02,291.25,26.02,281.25,16.02,182.25,16.02" style="stroke: #A80036; stroke-width: 1.0;"/><line style="stroke: #A80036; stroke-width: 1.0;" x1="281.25" x2="281.25" y1="16.02" y2="26.02"/><line style="stroke: #A80036; stroke-width: 1.0;" x1="291.25" x2="281.25" y1="26.02" y2="26.02"/><text fill="#000000" font-family="sans-serif" font-size="13" lengthAdjust="spacingAndGlyphs" textLength="41" x="188.25" y="33.0869">invoke</text><text fill="#000000" font-family="sans-serif" font-size="13" lengthAdjust="spacingAndGlyphs" textLength="88" x="188.25" y="48.2197">event handler</text><text fill="#000000" font-family="sans-serif" font-size="13" lengthAdjust="spacingAndGlyphs" textLength="37" x="301.25" y="42.6533">«call»</text><text fill="#000000" font-family="sans-serif" font-size="13" lengthAdjust="spacingAndGlyphs" textLength="23" x="168.0692" y="80.7542">0..*</text></g></svg>