<?xml version="1.0" encoding="UTF-8" standalone="no"?><svg xmlns="http://www.w3.org/2000/svg" xmlns:xlink="http://www.w3.org/1999/xlink" contentScriptType="application/ecmascript" contentStyleType="text/css" height="133px" preserveAspectRatio="none" style="width:544px;height:133px;" version="1.1" viewBox="0 0 544 133" width="544px" zoomAndPan="magnify"><defs><filter height="300%" id="f15vj1q8d3jtbw" width="300%" x="-1" y="-1"><feGaussianBlur result="blurOut" stdDeviation="2.0"/><feColorMatrix in="blurOut" result="blurOut2" type="matrix" values="0 0 0 0 0 0 0 0 0 0 0 0 0 0 0 0 0 0 .4 0"/><feOffset dx="4.0" dy="4.0" in="blurOut2" result="blurOut3"/><feBlend in="SourceGraphic" in2="blurOut3" mode="normal"/></filter></defs><g><!--class Component--><rect fill="#FEFECE" filter="url(#f15vj1q8d3jtbw)" height="73.6094" id="Component" style="stroke: #A80036; stroke-width: 1.5;" width="154" x="6" y="32.8542"/><ellipse cx="43.5" cy="48.8542" fill="#ADD1B2" rx="11" ry="11" style="stroke: #A80036; stroke-width: 1.0;"/><path d="M46.4688,54.4948 Q45.8906,54.7917 45.25,54.9401 Q44.6094,55.0886 43.9063,55.0886 Q41.4063,55.0886 40.0859,53.4401 Q38.7656,51.7917 38.7656,48.6667 Q38.7656,45.5417 40.0859,43.8855 Q41.4063,42.2292 43.9063,42.2292 Q44.6094,42.2292 45.2578,42.3855 Q45.9063,42.5417 46.4688,42.8386 L46.4688,45.5573 Q45.8438,44.9792 45.25,44.7058 Q44.6563,44.4323 44.0313,44.4323 Q42.6875,44.4323 42,45.5026 Q41.3125,46.573 41.3125,48.6667 Q41.3125,50.7605 42,51.8308 Q42.6875,52.9011 44.0313,52.9011 Q44.6563,52.9011 45.25,52.6276 Q45.8438,52.3542 46.4688,51.7761 L46.4688,54.4948 Z "/><text fill="#000000" font-family="sans-serif" font-size="12" lengthAdjust="spacingAndGlyphs" textLength="72" x="62.5" y="53.0085">Component</text><line style="stroke: #A80036; stroke-width: 1.5;" x1="7" x2="159" y1="64.8542" y2="64.8542"/><line style="stroke: #A80036; stroke-width: 1.5;" x1="7" x2="159" y1="72.8542" y2="72.8542"/><ellipse cx="17" cy="84.7565" fill="#84BE84" rx="3" ry="3" style="stroke: #038048; stroke-width: 1.0;"/><text fill="#000000" font-family="sans-serif" font-size="11" lengthAdjust="spacingAndGlyphs" textLength="128" x="26" y="87.0646">fire(event: Event): void</text><ellipse cx="17" cy="97.5612" fill="#84BE84" rx="3" ry="3" style="stroke: #038048; stroke-width: 1.0;"/><text fill="#000000" font-family="sans-serif" font-size="11" lengthAdjust="spacingAndGlyphs" textLength="117" x="26" y="99.8693">onSomeEvent(): void</text><!--class SomeChannel--><rect fill="#FEFECE" filter="url(#f15vj1q8d3jtbw)" height="60.8047" id="SomeChannel" style="stroke: #A80036; stroke-width: 1.5;" width="179" x="354.75" y="39.3542"/><ellipse cx="397.2" cy="55.3542" fill="#ADD1B2" rx="11" ry="11" style="stroke: #A80036; stroke-width: 1.0;"/><path d="M400.1688,60.9948 Q399.5906,61.2917 398.95,61.4401 Q398.3094,61.5886 397.6063,61.5886 Q395.1063,61.5886 393.7859,59.9401 Q392.4656,58.2917 392.4656,55.1667 Q392.4656,52.0417 393.7859,50.3855 Q395.1063,48.7292 397.6063,48.7292 Q398.3094,48.7292 398.9578,48.8855 Q399.6063,49.0417 400.1688,49.3386 L400.1688,52.0573 Q399.5438,51.4792 398.95,51.2058 Q398.3563,50.9323 397.7313,50.9323 Q396.3875,50.9323 395.7,52.0026 Q395.0125,53.073 395.0125,55.1667 Q395.0125,57.2605 395.7,58.3308 Q396.3875,59.4011 397.7313,59.4011 Q398.3563,59.4011 398.95,59.1276 Q399.5438,58.8542 400.1688,58.2761 L400.1688,60.9948 Z "/><text fill="#000000" font-family="sans-serif" font-size="12" lengthAdjust="spacingAndGlyphs" textLength="86" x="417.3" y="59.5085">SomeChannel</text><line style="stroke: #A80036; stroke-width: 1.5;" x1="355.75" x2="532.75" y1="71.3542" y2="71.3542"/><line style="stroke: #A80036; stroke-width: 1.5;" x1="355.75" x2="532.75" y1="79.3542" y2="79.3542"/><ellipse cx="365.75" cy="91.2565" fill="#84BE84" rx="3" ry="3" style="stroke: #038048; stroke-width: 1.0;"/><text fill="#000000" font-family="sans-serif" font-size="11" lengthAdjust="spacingAndGlyphs" textLength="153" x="374.75" y="93.5646">forward(event: Event): void</text><!--link Component to SomeChannel--><!--link Component to SomeChannel--><path d="M160.072,104.8811 C169.894,108.1544 179.943,110.9532 189.75,112.8543 C219.202,118.5631 295.198,118.0195 324.75,112.8543 C338.555,110.4413 352.871,106.5681 366.589,102.1104 " fill="none" id="Component-SomeChannel" style="stroke: #A80036; stroke-width: 1.0; stroke-dasharray: 7.0,7.0;"/><polygon fill="#A80036" points="371.614,100.4433,361.8123,99.4805,366.8683,102.0176,364.3312,107.0736,371.614,100.4433" style="stroke: #A80036; stroke-width: 1.0;"/><text fill="#000000" font-family="sans-serif" font-size="13" lengthAdjust="spacingAndGlyphs" textLength="37" x="190.75" y="96.9211">«call»</text><polygon fill="#FBFB77" filter="url(#f15vj1q8d3jtbw)" points="233.75,77.8542,233.75,102.8542,314.75,102.8542,314.75,87.8542,304.75,77.8542,233.75,77.8542" style="stroke: #A80036; stroke-width: 1.0;"/><line style="stroke: #A80036; stroke-width: 1.0;" x1="304.75" x2="304.75" y1="77.8542" y2="87.8542"/><line style="stroke: #A80036; stroke-width: 1.0;" x1="314.75" x2="304.75" y1="87.8542" y2="87.8542"/><text fill="#000000" font-family="sans-serif" font-size="13" lengthAdjust="spacingAndGlyphs" textLength="60" x="239.75" y="94.9211">fire event</text><text fill="#000000" font-family="sans-serif" font-size="13" lengthAdjust="spacingAndGlyphs" textLength="23" x="330.0547" y="120.3999">0..*</text><!--link Component to SomeChannel--><path d="M165.067,69.8542 C221.597,69.8542 296.684,69.8542 354.71,69.8542 " fill="none" id="Component-SomeChannel" style="stroke: #A80036; stroke-width: 1.0; stroke-dasharray: 7.0,7.0;"/><polygon fill="#A80036" points="160.001,69.8542,169.001,73.8542,165.001,69.8542,169.001,65.8542,160.001,69.8542" style="stroke: #A80036; stroke-width: 1.0;"/><polygon fill="#FBFB77" filter="url(#f15vj1q8d3jtbw)" points="182.25,16.854,182.25,56.854,288.25,56.854,288.25,26.854,278.25,16.854,182.25,16.854" style="stroke: #A80036; stroke-width: 1.0;"/><line style="stroke: #A80036; stroke-width: 1.0;" x1="278.25" x2="278.25" y1="16.854" y2="26.854"/><line style="stroke: #A80036; stroke-width: 1.0;" x1="288.25" x2="278.25" y1="26.854" y2="26.854"/><text fill="#000000" font-family="sans-serif" font-size="13" lengthAdjust="spacingAndGlyphs" textLength="81" x="188.25" y="33.9209">invoke event</text><text fill="#000000" font-family="sans-serif" font-size="13" lengthAdjust="spacingAndGlyphs" textLength="55" x="188.25" y="49.0537">handlers</text><text fill="#000000" font-family="sans-serif" font-size="13" lengthAdjust="spacingAndGlyphs" textLength="37" x="298.25" y="43.4873">«call»</text><text fill="#000000" font-family="sans-serif" font-size="13" lengthAdjust="spacingAndGlyphs" textLength="23" x="167.8831" y="82.6124">0..*</text><!--
@startuml
class Component {
  + fire(event: Event): void
  + onSomeEvent(): void
 }
 
 class SomeChannel {
  + forward(event: Event): void
 }
 
 Component -[hidden]right-> SomeChannel
 
 Component ..> "0..*" SomeChannel : <<call>>
 note right on link: fire event
 
 Component "0..*" <.. SomeChannel : <<call>>
 note left on link
 invoke event 
 handlers
 end note
@enduml

PlantUML version 1.2017.18(Fri Oct 06 16:56:32 UTC 2017)
(GPL source distribution)
Java Runtime: Java(TM) SE Runtime Environment
JVM: Java HotSpot(TM) 64-Bit Server VM
Java Version: 1.8.0_151-b12
Operating System: Linux
OS Version: 4.4.0-112-generic
Default Encoding: UTF-8
Language: en
Country: US
--></g></svg>