<?xml version="1.0" encoding="UTF-8" standalone="no"?><svg xmlns="http://www.w3.org/2000/svg" xmlns:xlink="http://www.w3.org/1999/xlink" contentScriptType="application/ecmascript" contentStyleType="text/css" height="493px" preserveAspectRatio="none" style="width:727px;height:493px;" version="1.1" viewBox="0 0 727 493" width="727px" zoomAndPan="magnify"><defs><filter height="300%" id="f1evercgjnt8vh" width="300%" x="-1" y="-1"><feGaussianBlur result="blurOut" stdDeviation="2.0"/><feColorMatrix in="blurOut" result="blurOut2" type="matrix" values="0 0 0 0 0 0 0 0 0 0 0 0 0 0 0 0 0 0 .4 0"/><feOffset dx="4.0" dy="4.0" in="blurOut2" result="blurOut3"/><feBlend in="SourceGraphic" in2="blurOut3" mode="normal"/></filter></defs><g><!--class Manager--><rect fill="#FEFECE" filter="url(#f1evercgjnt8vh)" height="150.3945" id="Manager" style="stroke: #A80036; stroke-width: 1.5;" width="370" x="289.75" y="116"/><ellipse cx="445.5" cy="132" fill="#B4A7E5" rx="11" ry="11" style="stroke: #A80036; stroke-width: 1.0;"/><path d="M444.0781,138 L444.0781,125.7188 L446.8281,125.7188 L446.8281,138 L444.0781,138 Z "/><text fill="#000000" font-family="sans-serif" font-size="12" font-style="italic" lengthAdjust="spacingAndGlyphs" textLength="50" x="466" y="136.4209">Manager</text><line style="stroke: #A80036; stroke-width: 1.5;" x1="290.75" x2="658.75" y1="148" y2="148"/><line style="stroke: #A80036; stroke-width: 1.5;" x1="290.75" x2="658.75" y1="156" y2="156"/><text fill="#000000" font-family="sans-serif" font-size="11" lengthAdjust="spacingAndGlyphs" textLength="87" x="295.75" y="170.4521">T attach(T child)</text><text fill="#000000" font-family="sans-serif" font-size="11" lengthAdjust="spacingAndGlyphs" textLength="136" x="295.75" y="183.2515">ComponentType detach()</text><text fill="#000000" font-family="sans-serif" font-size="11" lengthAdjust="spacingAndGlyphs" textLength="181" x="295.75" y="196.0508">List&lt;ComponentType&gt; children()</text><text fill="#000000" font-family="sans-serif" font-size="11" lengthAdjust="spacingAndGlyphs" textLength="135" x="295.75" y="208.8501">ComponentType parent()</text><text fill="#000000" font-family="sans-serif" font-size="11" lengthAdjust="spacingAndGlyphs" textLength="123" x="295.75" y="221.6494">ComponentType root()</text><text fill="#000000" font-family="sans-serif" font-size="11" lengthAdjust="spacingAndGlyphs" textLength="97" x="295.75" y="234.4487">Channel channel()</text><text fill="#000000" font-family="sans-serif" font-size="11" lengthAdjust="spacingAndGlyphs" textLength="278" x="295.75" y="247.248">Event&lt;T&gt; fire(Event&lt;T&gt; event, Channel[] channels)</text><text fill="#000000" font-family="sans-serif" font-size="11" lengthAdjust="spacingAndGlyphs" textLength="358" x="295.75" y="260.0474">void addHandler(Method method, HandlerScope scope, int priority)</text><!--class ComponentType--><rect fill="#FEFECE" filter="url(#f1evercgjnt8vh)" height="48" id="ComponentType" style="stroke: #A80036; stroke-width: 1.5;" width="127" x="358" y="8"/><ellipse cx="373" cy="24" fill="#B4A7E5" rx="11" ry="11" style="stroke: #A80036; stroke-width: 1.0;"/><path d="M371.5781,30 L371.5781,17.7188 L374.3281,17.7188 L374.3281,30 L371.5781,30 Z "/><text fill="#000000" font-family="sans-serif" font-size="12" font-style="italic" lengthAdjust="spacingAndGlyphs" textLength="95" x="387" y="28.4209">ComponentType</text><line style="stroke: #A80036; stroke-width: 1.5;" x1="359" x2="484" y1="40" y2="40"/><line style="stroke: #A80036; stroke-width: 1.5;" x1="359" x2="484" y1="48" y2="48"/><!--class ComponentWithOwnBaseClass--><rect fill="#FFDEAD" filter="url(#f1evercgjnt8vh)" height="60.7993" id="ComponentWithOwnBaseClass" style="stroke: #A80036; stroke-width: 1.5;" width="249" x="6" y="160.5"/><rect fill="#FFDEAD" height="32" style="stroke: #A80036; stroke-width: 1.5;" width="249" x="6" y="160.5"/><ellipse cx="41.25" cy="176.5" fill="#ADD1B2" rx="11" ry="11" style="stroke: #A80036; stroke-width: 1.0;"/><path d="M41.3438,182.8125 Q38.4844,182.8125 36.9219,181.125 Q35.3594,179.4375 35.3594,176.3594 Q35.3594,173.2969 36.9531,171.6016 Q38.5469,169.9063 41.4375,169.9063 Q44.0781,169.9063 46.2188,170.4531 L46.2188,172.3906 Q42.7813,171.2031 41.4063,171.2031 Q40.4063,171.2031 39.3125,172.5625 Q38.2188,173.9219 38.2188,176.375 Q38.2188,178.7344 39.3906,180.0938 Q40.5625,181.4531 41.5781,181.4531 Q43.3281,181.4531 46.2031,179.9531 L46.2031,181.875 Q44.5,182.8125 41.3438,182.8125 Z "/><text fill="#000000" font-family="sans-serif" font-size="12" lengthAdjust="spacingAndGlyphs" textLength="172" x="59.75" y="180.9209">ComponentWithOwnBaseClass</text><line style="stroke: #A80036; stroke-width: 1.5;" x1="7" x2="254" y1="192.5" y2="192.5"/><rect fill="none" height="6" style="stroke: #C82930; stroke-width: 1.0;" width="6" x="14" y="201.3997"/><text fill="#000000" font-family="sans-serif" font-size="11" lengthAdjust="spacingAndGlyphs" textLength="223" x="26" y="206.9521">«ComponentManager» manager: Manager</text><line style="stroke: #A80036; stroke-width: 1.5;" x1="7" x2="254" y1="213.2993" y2="213.2993"/><!--class SomeComponent--><rect fill="#FFDEAD" filter="url(#f1evercgjnt8vh)" height="48" id="SomeComponent" style="stroke: #A80036; stroke-width: 1.5;" width="129" x="529" y="434"/><rect fill="#FFDEAD" height="32" style="stroke: #A80036; stroke-width: 1.5;" width="129" x="529" y="434"/><ellipse cx="544" cy="450" fill="#ADD1B2" rx="11" ry="11" style="stroke: #A80036; stroke-width: 1.0;"/><path d="M544.0938,456.3125 Q541.2344,456.3125 539.6719,454.625 Q538.1094,452.9375 538.1094,449.8594 Q538.1094,446.7969 539.7031,445.1016 Q541.2969,443.4063 544.1875,443.4063 Q546.8281,443.4063 548.9688,443.9531 L548.9688,445.8906 Q545.5313,444.7031 544.1563,444.7031 Q543.1563,444.7031 542.0625,446.0625 Q540.9688,447.4219 540.9688,449.875 Q540.9688,452.2344 542.1406,453.5938 Q543.3125,454.9531 544.3281,454.9531 Q546.0781,454.9531 548.9531,453.4531 L548.9531,455.375 Q547.25,456.3125 544.0938,456.3125 Z "/><text fill="#000000" font-family="sans-serif" font-size="12" lengthAdjust="spacingAndGlyphs" textLength="97" x="558" y="454.4209">SomeComponent</text><line style="stroke: #A80036; stroke-width: 1.5;" x1="530" x2="657" y1="466" y2="466"/><line style="stroke: #A80036; stroke-width: 1.5;" x1="530" x2="657" y1="474" y2="474"/><!--class Component--><rect fill="#FEFECE" filter="url(#f1evercgjnt8vh)" height="48" id="Component" style="stroke: #A80036; stroke-width: 1.5;" width="98" x="544.75" y="326"/><ellipse cx="559.75" cy="342" fill="#ADD1B2" rx="11" ry="11" style="stroke: #A80036; stroke-width: 1.0;"/><path d="M559.8438,348.3125 Q556.9844,348.3125 555.4219,346.625 Q553.8594,344.9375 553.8594,341.8594 Q553.8594,338.7969 555.4531,337.1016 Q557.0469,335.4063 559.9375,335.4063 Q562.5781,335.4063 564.7188,335.9531 L564.7188,337.8906 Q561.2813,336.7031 559.9063,336.7031 Q558.9063,336.7031 557.8125,338.0625 Q556.7188,339.4219 556.7188,341.875 Q556.7188,344.2344 557.8906,345.5938 Q559.0625,346.9531 560.0781,346.9531 Q561.8281,346.9531 564.7031,345.4531 L564.7031,347.375 Q563,348.3125 559.8438,348.3125 Z "/><text fill="#000000" font-family="sans-serif" font-size="12" lengthAdjust="spacingAndGlyphs" textLength="66" x="573.75" y="346.4209">Component</text><line style="stroke: #A80036; stroke-width: 1.5;" x1="545.75" x2="641.75" y1="358" y2="358"/><line style="stroke: #A80036; stroke-width: 1.5;" x1="545.75" x2="641.75" y1="366" y2="366"/><!--link ComponentWithOwnBaseClass to Manager--><path d="M267.742,191 C270.72,191 273.698,191 276.676,191 " fill="none" id="ComponentWithOwnBaseClass-Manager" style="stroke: #A80036; stroke-width: 1.0;"/><polygon fill="#A80036" points="289.734,191,280.734,187,284.734,191,280.734,195,289.734,191" style="stroke: #A80036; stroke-width: 1.0;"/><line style="stroke: #A80036; stroke-width: 1.0;" x1="284.734" x2="276.734" y1="191" y2="191"/><polygon fill="#A80036" points="254.547,191,260.547,195,266.547,191,260.547,187,254.547,191" style="stroke: #A80036; stroke-width: 1.0;"/><text fill="#000000" font-family="sans-serif" font-size="13" lengthAdjust="spacingAndGlyphs" textLength="8" x="273.9053" y="187.0423">1</text><!--link Manager to Component--><path d="M542.851,282.507 C554.992,298.526 566.616,313.861 575.635,325.76 " fill="none" id="Manager-Component" style="stroke: #A80036; stroke-width: 1.0; stroke-dasharray: 7.0,7.0;"/><polygon fill="none" points="537.116,286.529,530.614,266.362,548.273,278.073,537.116,286.529" style="stroke: #A80036; stroke-width: 1.0;"/><!--link ComponentType to Component--><path d="M504.522,35.86 C562.955,42.755 637.342,62.418 676.25,116 C715.422,169.945 701.762,204.408 676.25,266 C666.19,290.287 645.193,311.173 626.836,325.918 " fill="none" id="ComponentType-Component" style="stroke: #A80036; stroke-width: 1.0; stroke-dasharray: 7.0,7.0;"/><polygon fill="none" points="503.83,42.826,484.603,33.919,505.188,28.892,503.83,42.826" style="stroke: #A80036; stroke-width: 1.0;"/><!--link Component to SomeComponent--><path d="M593.25,394.0236 C593.25,407.5792 593.25,422.0381 593.25,433.6784 " fill="none" id="Component-SomeComponent" style="stroke: #A80036; stroke-width: 1.0;"/><polygon fill="none" points="586.25,394.0005,593.25,374,600.25,394.0004,586.25,394.0005" style="stroke: #A80036; stroke-width: 1.0;"/><!--link ComponentType to ComponentWithOwnBaseClass--><path d="M360.66,65.689 C308.895,93.618 235.072,133.446 185.046,160.436 " fill="none" id="ComponentType-ComponentWithOwnBaseClass" style="stroke: #A80036; stroke-width: 1.0; stroke-dasharray: 7.0,7.0;"/><polygon fill="none" points="357.387,59.502,378.312,56.166,364.034,71.823,357.387,59.502" style="stroke: #A80036; stroke-width: 1.0;"/><!--
@startuml
interface Manager {
   T attach(T child)
   ComponentType detach()
   List<ComponentType> children()
   ComponentType parent()
   ComponentType root()
   Channel channel()
   Event<T> fire(Event<T> event, Channel[] channels)
   void addHandler(Method method, HandlerScope scope, int priority)
 }
 interface ComponentType
 class ComponentWithOwnBaseClass #NavajoWhite {
   -<<ComponentManager>> manager: Manager 
 }
 class SomeComponent #NavajoWhite
 
 ComponentWithOwnBaseClass *-> "1" Manager
 Manager <|.. Component
 ComponentType <|.. Component
 Component <|- - SomeComponent
 ComponentType <|.. ComponentWithOwnBaseClass
@enduml

PlantUML version 1.2017.18(Fri Oct 06 16:56:32 UTC 2017)
(GPL source distribution)
Java Runtime: Java(TM) SE Runtime Environment
JVM: Java HotSpot(TM) 64-Bit Server VM
Java Version: 9.0.1+11
Operating System: Linux
OS Version: 4.14.12-041412-generic
Default Encoding: UTF-8
Language: en
Country: US
--></g></svg>