<?xml version="1.0" encoding="UTF-8" standalone="no"?><svg xmlns="http://www.w3.org/2000/svg" xmlns:xlink="http://www.w3.org/1999/xlink" contentScriptType="application/ecmascript" contentStyleType="text/css" height="131px" preserveAspectRatio="none" style="width:543px;height:131px;" version="1.1" viewBox="0 0 543 131" width="543px" zoomAndPan="magnify"><defs><filter height="300%" id="f15vj1q8d3jtbw" width="300%" x="-1" y="-1"><feGaussianBlur result="blurOut" stdDeviation="2.0"/><feColorMatrix in="blurOut" result="blurOut2" type="matrix" values="0 0 0 0 0 0 0 0 0 0 0 0 0 0 0 0 0 0 .4 0"/><feOffset dx="4.0" dy="4.0" in="blurOut2" result="blurOut3"/><feBlend in="SourceGraphic" in2="blurOut3" mode="normal"/></filter></defs><g><!--class Component--><rect fill="#FEFECE" filter="url(#f15vj1q8d3jtbw)" height="73.6094" id="Component" style="stroke: #A80036; stroke-width: 1.5;" width="154" x="6" y="30.97"/><ellipse cx="43.5" cy="46.97" fill="#ADD1B2" rx="11" ry="11" style="stroke: #A80036; stroke-width: 1.0;"/><path d="M46.4688,52.6106 Q45.8906,52.9075 45.25,53.0481 Q44.6094,53.2044 43.9063,53.2044 Q41.4063,53.2044 40.0781,51.5638 Q38.7656,49.9075 38.7656,46.7825 Q38.7656,43.6575 40.0781,42.0013 Q41.4063,40.345 43.9063,40.345 Q44.6094,40.345 45.25,40.5013 Q45.9063,40.6575 46.4688,40.9544 L46.4688,43.6731 Q45.8438,43.095 45.25,42.8294 Q44.6563,42.5481 44.0313,42.5481 Q42.6875,42.5481 42,43.6263 Q41.3125,44.6888 41.3125,46.7825 Q41.3125,48.8763 42,49.9544 Q42.6875,51.0169 44.0313,51.0169 Q44.6563,51.0169 45.25,50.7513 Q45.8438,50.47 46.4688,49.8919 L46.4688,52.6106 Z "/><text fill="#000000" font-family="sans-serif" font-size="12" lengthAdjust="spacingAndGlyphs" textLength="72" x="62.5" y="51.1243">Component</text><line style="stroke: #A80036; stroke-width: 1.5;" x1="7" x2="159" y1="62.97" y2="62.97"/><line style="stroke: #A80036; stroke-width: 1.5;" x1="7" x2="159" y1="70.97" y2="70.97"/><ellipse cx="17" cy="82.8723" fill="#84BE84" rx="3" ry="3" style="stroke: #038048; stroke-width: 1.0;"/><text fill="#000000" font-family="sans-serif" font-size="11" lengthAdjust="spacingAndGlyphs" textLength="128" x="26" y="85.1804">fire(event: Event): void</text><ellipse cx="17" cy="95.677" fill="#84BE84" rx="3" ry="3" style="stroke: #038048; stroke-width: 1.0;"/><text fill="#000000" font-family="sans-serif" font-size="11" lengthAdjust="spacingAndGlyphs" textLength="117" x="26" y="97.9851">onSomeEvent(): void</text><!--class SomeChannel--><rect fill="#FEFECE" filter="url(#f15vj1q8d3jtbw)" height="60.8047" id="SomeChannel" style="stroke: #A80036; stroke-width: 1.5;" width="179" x="353.5" y="37.47"/><ellipse cx="395.95" cy="53.47" fill="#ADD1B2" rx="11" ry="11" style="stroke: #A80036; stroke-width: 1.0;"/><path d="M398.9188,59.1106 Q398.3406,59.4075 397.7,59.5481 Q397.0594,59.7044 396.3563,59.7044 Q393.8563,59.7044 392.5281,58.0638 Q391.2156,56.4075 391.2156,53.2825 Q391.2156,50.1575 392.5281,48.5013 Q393.8563,46.845 396.3563,46.845 Q397.0594,46.845 397.7,47.0013 Q398.3563,47.1575 398.9188,47.4544 L398.9188,50.1731 Q398.2938,49.595 397.7,49.3294 Q397.1063,49.0481 396.4813,49.0481 Q395.1375,49.0481 394.45,50.1263 Q393.7625,51.1888 393.7625,53.2825 Q393.7625,55.3763 394.45,56.4544 Q395.1375,57.5169 396.4813,57.5169 Q397.1063,57.5169 397.7,57.2513 Q398.2938,56.97 398.9188,56.3919 L398.9188,59.1106 Z "/><text fill="#000000" font-family="sans-serif" font-size="12" lengthAdjust="spacingAndGlyphs" textLength="86" x="416.05" y="57.6243">SomeChannel</text><line style="stroke: #A80036; stroke-width: 1.5;" x1="354.5" x2="531.5" y1="69.47" y2="69.47"/><line style="stroke: #A80036; stroke-width: 1.5;" x1="354.5" x2="531.5" y1="77.47" y2="77.47"/><ellipse cx="364.5" cy="89.3723" fill="#84BE84" rx="3" ry="3" style="stroke: #038048; stroke-width: 1.0;"/><text fill="#000000" font-family="sans-serif" font-size="11" lengthAdjust="spacingAndGlyphs" textLength="153" x="373.5" y="91.6804">forward(event: Event): void</text><!--link Component to SomeChannel--><!--link Component to SomeChannel--><path d="M160.12,102.19 C169.93,105.38 179.97,108.12 189.75,109.97 C219.01,115.52 294.4,114.99 323.75,109.97 C336.95,107.71 350.63,104.15 363.81,100.02 " fill="none" id="Component-SomeChannel" style="stroke: #A80036; stroke-width: 1.0; stroke-dasharray: 7.0,7.0;"/><polygon fill="#A80036" points="368.65,98.48,358.8578,97.425,363.8897,100.0096,361.3051,105.0415,368.65,98.48" style="stroke: #A80036; stroke-width: 1.0;"/><text fill="#000000" font-family="sans-serif" font-size="13" lengthAdjust="spacingAndGlyphs" textLength="37" x="190.75" y="95.0369">«call»</text><polygon fill="#FBFB77" filter="url(#f15vj1q8d3jtbw)" points="233.75,75.97,233.75,100.97,314.75,100.97,314.75,85.97,304.75,75.97,233.75,75.97" style="stroke: #A80036; stroke-width: 1.0;"/><line style="stroke: #A80036; stroke-width: 1.0;" x1="304.75" x2="304.75" y1="75.97" y2="85.97"/><line style="stroke: #A80036; stroke-width: 1.0;" x1="314.75" x2="304.75" y1="85.97" y2="85.97"/><text fill="#000000" font-family="sans-serif" font-size="13" lengthAdjust="spacingAndGlyphs" textLength="60" x="239.75" y="93.0369">fire event</text><text fill="#000000" font-family="sans-serif" font-size="13" lengthAdjust="spacingAndGlyphs" textLength="23" x="327.9434" y="118.4203">0..*</text><!--link Component to SomeChannel--><path d="M165.26,67.97 C221.33,67.97 295.58,67.97 353.2,67.97 " fill="none" id="Component-SomeChannel" style="stroke: #A80036; stroke-width: 1.0; stroke-dasharray: 7.0,7.0;"/><polygon fill="#A80036" points="160.23,67.97,169.23,71.97,165.23,67.97,169.23,63.97,160.23,67.97" style="stroke: #A80036; stroke-width: 1.0;"/><polygon fill="#FBFB77" filter="url(#f15vj1q8d3jtbw)" points="182.25,15.97,182.25,55.97,288.25,55.97,288.25,25.97,278.25,15.97,182.25,15.97" style="stroke: #A80036; stroke-width: 1.0;"/><line style="stroke: #A80036; stroke-width: 1.0;" x1="278.25" x2="278.25" y1="15.97" y2="25.97"/><line style="stroke: #A80036; stroke-width: 1.0;" x1="288.25" x2="278.25" y1="25.97" y2="25.97"/><text fill="#000000" font-family="sans-serif" font-size="13" lengthAdjust="spacingAndGlyphs" textLength="81" x="188.25" y="33.0369">invoke event</text><text fill="#000000" font-family="sans-serif" font-size="13" lengthAdjust="spacingAndGlyphs" textLength="55" x="188.25" y="48.1697">handlers</text><text fill="#000000" font-family="sans-serif" font-size="13" lengthAdjust="spacingAndGlyphs" textLength="37" x="298.25" y="42.6033">«call»</text><text fill="#000000" font-family="sans-serif" font-size="13" lengthAdjust="spacingAndGlyphs" textLength="23" x="168.1325" y="80.7282">0..*</text><!--
@startuml
class Component {
  + fire(event: Event): void
  + onSomeEvent(): void
 }
 
 class SomeChannel {
  + forward(event: Event): void
 }
 
 Component -[hidden]right-> SomeChannel
 
 Component ..> "0..*" SomeChannel : <<call>>
 note right on link: fire event
 
 Component "0..*" <.. SomeChannel : <<call>>
 note left on link
 invoke event 
 handlers
 end note
@enduml

PlantUML version 1.2017.18(Fri Oct 06 16:56:32 UTC 2017)
(GPL source distribution)
Java Runtime: OpenJDK Runtime Environment
JVM: OpenJDK 64-Bit Server VM
Java Version: 1.8.0_312-b07
Operating System: Linux
OS Version: 5.11.0-1021-azure
Default Encoding: UTF-8
Language: en
Country: null
--></g></svg>