<?xml version="1.0" encoding="us-ascii" standalone="no"?><svg xmlns="http://www.w3.org/2000/svg" xmlns:xlink="http://www.w3.org/1999/xlink" contentStyleType="text/css" height="116px" preserveAspectRatio="none" style="width:596px;height:116px;background:#FFFFFF;" version="1.1" viewBox="0 0 596 116" width="596px" zoomAndPan="magnify"><defs/><g><!--class Component--><g id="elem_Component"><rect codeLine="1" fill="#F1F1F1" height="80.5938" id="Component" rx="2.5" ry="2.5" style="stroke:#181818;stroke-width:0.5;" width="181" x="7" y="26.49"/><ellipse cx="52.25" cy="42.49" fill="#ADD1B2" rx="11" ry="11" style="stroke:#181818;stroke-width:1.0;"/><path d="M55.2188,48.1306 Q54.6406,48.4275 54,48.5681 Q53.3594,48.7244 52.6563,48.7244 Q50.1563,48.7244 48.8281,47.0837 Q47.5156,45.4275 47.5156,42.3025 Q47.5156,39.1775 48.8281,37.5212 Q50.1563,35.865 52.6563,35.865 Q53.3594,35.865 54,36.0212 Q54.6563,36.1775 55.2188,36.4744 L55.2188,39.1931 Q54.5938,38.615 54,38.3494 Q53.4063,38.0681 52.7813,38.0681 Q51.4375,38.0681 50.75,39.1462 Q50.0625,40.2087 50.0625,42.3025 Q50.0625,44.3962 50.75,45.4744 Q51.4375,46.5369 52.7813,46.5369 Q53.4063,46.5369 54,46.2712 Q54.5938,45.99 55.2188,45.4119 L55.2188,48.1306 Z " fill="#000000"/><text fill="#000000" font-family="sans-serif" font-size="14" lengthAdjust="spacing" textLength="82" x="72.75" y="47.3367">Component</text><line style="stroke:#181818;stroke-width:0.5;" x1="8" x2="187" y1="58.49" y2="58.49"/><line style="stroke:#181818;stroke-width:0.5;" x1="8" x2="187" y1="66.49" y2="66.49"/><ellipse cx="18" cy="80.1384" fill="#84BE84" rx="3" ry="3" style="stroke:#038048;stroke-width:1.0;"/><text fill="#000000" font-family="sans-serif" font-size="14" lengthAdjust="spacing" textLength="155" x="27" y="83.4851">fire(event: Event): void</text><ellipse cx="18" cy="96.4353" fill="#84BE84" rx="3" ry="3" style="stroke:#038048;stroke-width:1.0;"/><text fill="#000000" font-family="sans-serif" font-size="14" lengthAdjust="spacing" textLength="144" x="27" y="99.782">onSomeEvent(): void</text></g><!--class SomeChannel--><g id="elem_SomeChannel"><rect codeLine="6" fill="#F1F1F1" height="64.2969" id="SomeChannel" rx="2.5" ry="2.5" style="stroke:#181818;stroke-width:0.5;" width="211" x="378" y="34.64"/><ellipse cx="430.75" cy="50.64" fill="#ADD1B2" rx="11" ry="11" style="stroke:#181818;stroke-width:1.0;"/><path d="M433.7188,56.2806 Q433.1406,56.5775 432.5,56.7181 Q431.8594,56.8744 431.1563,56.8744 Q428.6563,56.8744 427.3281,55.2338 Q426.0156,53.5775 426.0156,50.4525 Q426.0156,47.3275 427.3281,45.6713 Q428.6563,44.015 431.1563,44.015 Q431.8594,44.015 432.5,44.1713 Q433.1563,44.3275 433.7188,44.6244 L433.7188,47.3431 Q433.0938,46.765 432.5,46.4994 Q431.9063,46.2181 431.2813,46.2181 Q429.9375,46.2181 429.25,47.2963 Q428.5625,48.3588 428.5625,50.4525 Q428.5625,52.5463 429.25,53.6244 Q429.9375,54.6869 431.2813,54.6869 Q431.9063,54.6869 432.5,54.4213 Q433.0938,54.14 433.7188,53.5619 L433.7188,56.2806 Z " fill="#000000"/><text fill="#000000" font-family="sans-serif" font-size="14" lengthAdjust="spacing" textLength="97" x="451.25" y="55.4867">SomeChannel</text><line style="stroke:#181818;stroke-width:0.5;" x1="379" x2="588" y1="66.64" y2="66.64"/><line style="stroke:#181818;stroke-width:0.5;" x1="379" x2="588" y1="74.64" y2="74.64"/><ellipse cx="389" cy="88.2884" fill="#84BE84" rx="3" ry="3" style="stroke:#038048;stroke-width:1.0;"/><text fill="#000000" font-family="sans-serif" font-size="14" lengthAdjust="spacing" textLength="185" x="398" y="91.6351">forward(event: Event): void</text></g><!--link Component to SomeChannel--><!--link Component to SomeChannel--><g id="link_Component_SomeChannel"><path codeLine="12" d="M188.26,98.62 C198.19,101.14 208.24,103.29 218,104.79 C246.55,109.18 319.38,108.73 348,104.79 C357.8,103.44 362.0288,102.8531 372.0788,100.6531 " fill="none" id="Component-to-SomeChannel-1" style="stroke:#181818;stroke-width:1.0;stroke-dasharray:7.0,7.0;"/><polygon fill="#181818" points="377.94,99.37,368.2928,97.3871,373.0557,100.4392,370.0036,105.202,377.94,99.37" style="stroke:#181818;stroke-width:1.0;"/><text fill="#000000" font-family="sans-serif" font-size="13" lengthAdjust="spacing" textLength="37" x="219" y="91.8569">&#171;call&#187;</text><path d="M262,74.79 L262,99.79 L343,99.79 L343,84.79 L333,74.79 L262,74.79 " fill="#FEFFDD" style="stroke:#181818;stroke-width:0.5;"/><path d="M333,74.79 L333,84.79 L343,84.79 L333,74.79 " fill="#FEFFDD" style="stroke:#181818;stroke-width:0.5;"/><text fill="#000000" font-family="sans-serif" font-size="13" lengthAdjust="spacing" textLength="60" x="268" y="91.8569">fire event</text><text fill="#000000" font-family="sans-serif" font-size="13" lengthAdjust="spacing" textLength="23" x="347.075" y="98.1265">0..*</text></g><!--reverse link Component to SomeChannel--><g id="link_Component_SomeChannel"><path codeLine="15" d="M194.49,66.79 C251.21,66.79 318.44,66.79 377.74,66.79 " fill="none" id="Component-backto-SomeChannel" style="stroke:#181818;stroke-width:1.0;stroke-dasharray:7.0,7.0;"/><polygon fill="#181818" points="188.49,66.79,197.49,70.79,193.49,66.79,197.49,62.79,188.49,66.79" style="stroke:#181818;stroke-width:1.0;"/><path d="M210.5,18.79 L210.5,58.79 L316.5,58.79 L316.5,28.79 L306.5,18.79 L210.5,18.79 " fill="#FEFFDD" style="stroke:#181818;stroke-width:0.5;"/><path d="M306.5,18.79 L306.5,28.79 L316.5,28.79 L306.5,18.79 " fill="#FEFFDD" style="stroke:#181818;stroke-width:0.5;"/><text fill="#000000" font-family="sans-serif" font-size="13" lengthAdjust="spacing" textLength="81" x="216.5" y="35.8569">invoke event</text><text fill="#000000" font-family="sans-serif" font-size="13" lengthAdjust="spacing" textLength="55" x="216.5" y="50.9897">handlers</text><text fill="#000000" font-family="sans-serif" font-size="13" lengthAdjust="spacing" textLength="37" x="322.5" y="43.4233">&#171;call&#187;</text><text fill="#000000" font-family="sans-serif" font-size="13" lengthAdjust="spacing" textLength="23" x="196.0166" y="79.4128">0..*</text></g><!--SRC=[VS-n3e8m40RWlK_nnmarDCw4T24-WQDn8FIGXd8rXU1WV7TBWoY9SMhotztNkygMVO_2TJV7n0CU0jYZDfuI6aEGuJWzsmoZCpeM7PzSHp5Eblmf8515RAeMJSbCziqvVo-z_Yt6oSy2wRanMXDVlBasGwg-kNMdb0gRWvIxpUhB37bUbTOg9S1k84GeR0rhkCtYROYRhBcPogNyprcg5qt0yEZQsGjS6DAMV2z0h6F_2m00]--></g></svg>