<?xml version="1.0" encoding="UTF-8" standalone="no"?><svg xmlns="http://www.w3.org/2000/svg" xmlns:xlink="http://www.w3.org/1999/xlink" contentScriptType="application/ecmascript" contentStyleType="text/css" height="493px" preserveAspectRatio="none" style="width:721px;height:493px;" version="1.1" viewBox="0 0 721 493" width="721px" zoomAndPan="magnify"><defs><filter height="300%" id="fooq7eku6rafo" width="300%" x="-1" y="-1"><feGaussianBlur result="blurOut" stdDeviation="2.0"/><feColorMatrix in="blurOut" result="blurOut2" type="matrix" values="0 0 0 0 0 0 0 0 0 0 0 0 0 0 0 0 0 0 .4 0"/><feOffset dx="4.0" dy="4.0" in="blurOut2" result="blurOut3"/><feBlend in="SourceGraphic" in2="blurOut3" mode="normal"/></filter></defs><g><!--class Manager--><rect fill="#FEFECE" filter="url(#fooq7eku6rafo)" height="150.4375" id="Manager" style="stroke: #A80036; stroke-width: 1.5;" width="391" x="262" y="116"/><ellipse cx="425.75" cy="132" fill="#B4A7E5" rx="11" ry="11" style="stroke: #A80036; stroke-width: 1.0;"/><path d="M421.6719,127.7656 L421.6719,125.6094 L429.0625,125.6094 L429.0625,127.7656 L426.5938,127.7656 L426.5938,135.8438 L429.0625,135.8438 L429.0625,138 L421.6719,138 L421.6719,135.8438 L424.1406,135.8438 L424.1406,127.7656 L421.6719,127.7656 Z "/><text fill="#000000" font-family="sans-serif" font-size="12" font-style="italic" lengthAdjust="spacingAndGlyphs" textLength="55" x="446.25" y="136.1543">Manager</text><line style="stroke: #A80036; stroke-width: 1.5;" x1="263" x2="652" y1="148" y2="148"/><line style="stroke: #A80036; stroke-width: 1.5;" x1="263" x2="652" y1="156" y2="156"/><text fill="#000000" font-family="sans-serif" font-size="11" lengthAdjust="spacingAndGlyphs" textLength="91" x="268" y="170.2104">T attach(T child)</text><text fill="#000000" font-family="sans-serif" font-size="11" lengthAdjust="spacingAndGlyphs" textLength="142" x="268" y="183.0151">ComponentType detach()</text><text fill="#000000" font-family="sans-serif" font-size="11" lengthAdjust="spacingAndGlyphs" textLength="77" x="268" y="195.8198">List children()</text><text fill="#000000" font-family="sans-serif" font-size="11" lengthAdjust="spacingAndGlyphs" textLength="141" x="268" y="208.6245">ComponentType parent()</text><text fill="#000000" font-family="sans-serif" font-size="11" lengthAdjust="spacingAndGlyphs" textLength="127" x="268" y="221.4292">ComponentType root()</text><text fill="#000000" font-family="sans-serif" font-size="11" lengthAdjust="spacingAndGlyphs" textLength="102" x="268" y="234.2339">Channel channel()</text><text fill="#000000" font-family="sans-serif" font-size="11" lengthAdjust="spacingAndGlyphs" textLength="245" x="268" y="247.0386">Event fire(Event event, Channel[] channels)</text><text fill="#000000" font-family="sans-serif" font-size="11" lengthAdjust="spacingAndGlyphs" textLength="379" x="268" y="259.8433">void addHandler(Method method, HandlerScope scope, int priority)</text><!--class ComponentType--><rect fill="#FEFECE" filter="url(#fooq7eku6rafo)" height="48" id="ComponentType" style="stroke: #A80036; stroke-width: 1.5;" width="134" x="344.5" y="8"/><ellipse cx="359.5" cy="24" fill="#B4A7E5" rx="11" ry="11" style="stroke: #A80036; stroke-width: 1.0;"/><path d="M355.4219,19.7656 L355.4219,17.6094 L362.8125,17.6094 L362.8125,19.7656 L360.3438,19.7656 L360.3438,27.8438 L362.8125,27.8438 L362.8125,30 L355.4219,30 L355.4219,27.8438 L357.8906,27.8438 L357.8906,19.7656 L355.4219,19.7656 Z "/><text fill="#000000" font-family="sans-serif" font-size="12" font-style="italic" lengthAdjust="spacingAndGlyphs" textLength="102" x="373.5" y="28.1543">ComponentType</text><line style="stroke: #A80036; stroke-width: 1.5;" x1="345.5" x2="477.5" y1="40" y2="40"/><line style="stroke: #A80036; stroke-width: 1.5;" x1="345.5" x2="477.5" y1="48" y2="48"/><!--class ComponentWithOwnBaseClass--><rect fill="#FFDEAD" filter="url(#fooq7eku6rafo)" height="60.8047" id="ComponentWithOwnBaseClass" style="stroke: #A80036; stroke-width: 1.5;" width="221" x="6" y="160.5"/><rect fill="#FFDEAD" height="32" style="stroke: #A80036; stroke-width: 1.5;" width="221" x="6" y="160.5"/><ellipse cx="21" cy="176.5" fill="#ADD1B2" rx="11" ry="11" style="stroke: #A80036; stroke-width: 1.0;"/><path d="M23.9688,182.1406 Q23.3906,182.4375 22.75,182.5781 Q22.1094,182.7344 21.4063,182.7344 Q18.9063,182.7344 17.5781,181.0938 Q16.2656,179.4375 16.2656,176.3125 Q16.2656,173.1875 17.5781,171.5313 Q18.9063,169.875 21.4063,169.875 Q22.1094,169.875 22.75,170.0313 Q23.4063,170.1875 23.9688,170.4844 L23.9688,173.2031 Q23.3438,172.625 22.75,172.3594 Q22.1563,172.0781 21.5313,172.0781 Q20.1875,172.0781 19.5,173.1563 Q18.8125,174.2188 18.8125,176.3125 Q18.8125,178.4063 19.5,179.4844 Q20.1875,180.5469 21.5313,180.5469 Q22.1563,180.5469 22.75,180.2813 Q23.3438,180 23.9688,179.4219 L23.9688,182.1406 Z "/><text fill="#000000" font-family="sans-serif" font-size="12" lengthAdjust="spacingAndGlyphs" textLength="189" x="35" y="180.6543">ComponentWithOwnBaseClass</text><line style="stroke: #A80036; stroke-width: 1.5;" x1="7" x2="226" y1="192.5" y2="192.5"/><rect fill="none" height="6" style="stroke: #C82930; stroke-width: 1.0;" width="6" x="14" y="201.4023"/><text fill="#000000" font-family="sans-serif" font-size="11" lengthAdjust="spacingAndGlyphs" textLength="130" x="26" y="206.7104">&lt;&gt; manager: Manager</text><line style="stroke: #A80036; stroke-width: 1.5;" x1="7" x2="226" y1="213.3047" y2="213.3047"/><!--class SomeComponent--><rect fill="#FFDEAD" filter="url(#fooq7eku6rafo)" height="48" id="SomeComponent" style="stroke: #A80036; stroke-width: 1.5;" width="139" x="512" y="434"/><rect fill="#FFDEAD" height="32" style="stroke: #A80036; stroke-width: 1.5;" width="139" x="512" y="434"/><ellipse cx="527" cy="450" fill="#ADD1B2" rx="11" ry="11" style="stroke: #A80036; stroke-width: 1.0;"/><path d="M529.9688,455.6406 Q529.3906,455.9375 528.75,456.0781 Q528.1094,456.2344 527.4063,456.2344 Q524.9063,456.2344 523.5781,454.5938 Q522.2656,452.9375 522.2656,449.8125 Q522.2656,446.6875 523.5781,445.0313 Q524.9063,443.375 527.4063,443.375 Q528.1094,443.375 528.75,443.5313 Q529.4063,443.6875 529.9688,443.9844 L529.9688,446.7031 Q529.3438,446.125 528.75,445.8594 Q528.1563,445.5781 527.5313,445.5781 Q526.1875,445.5781 525.5,446.6563 Q524.8125,447.7188 524.8125,449.8125 Q524.8125,451.9063 525.5,452.9844 Q526.1875,454.0469 527.5313,454.0469 Q528.1563,454.0469 528.75,453.7813 Q529.3438,453.5 529.9688,452.9219 L529.9688,455.6406 Z "/><text fill="#000000" font-family="sans-serif" font-size="12" lengthAdjust="spacingAndGlyphs" textLength="107" x="541" y="454.1543">SomeComponent</text><line style="stroke: #A80036; stroke-width: 1.5;" x1="513" x2="650" y1="466" y2="466"/><line style="stroke: #A80036; stroke-width: 1.5;" x1="513" x2="650" y1="474" y2="474"/><!--class Component--><rect fill="#FEFECE" filter="url(#fooq7eku6rafo)" height="48" id="Component" style="stroke: #A80036; stroke-width: 1.5;" width="104" x="529.5" y="326"/><ellipse cx="544.5" cy="342" fill="#ADD1B2" rx="11" ry="11" style="stroke: #A80036; stroke-width: 1.0;"/><path d="M547.4688,347.6406 Q546.8906,347.9375 546.25,348.0781 Q545.6094,348.2344 544.9063,348.2344 Q542.4063,348.2344 541.0781,346.5938 Q539.7656,344.9375 539.7656,341.8125 Q539.7656,338.6875 541.0781,337.0313 Q542.4063,335.375 544.9063,335.375 Q545.6094,335.375 546.25,335.5313 Q546.9063,335.6875 547.4688,335.9844 L547.4688,338.7031 Q546.8438,338.125 546.25,337.8594 Q545.6563,337.5781 545.0313,337.5781 Q543.6875,337.5781 543,338.6563 Q542.3125,339.7188 542.3125,341.8125 Q542.3125,343.9063 543,344.9844 Q543.6875,346.0469 545.0313,346.0469 Q545.6563,346.0469 546.25,345.7813 Q546.8438,345.5 547.4688,344.9219 L547.4688,347.6406 Z "/><text fill="#000000" font-family="sans-serif" font-size="12" lengthAdjust="spacingAndGlyphs" textLength="72" x="558.5" y="346.1543">Component</text><line style="stroke: #A80036; stroke-width: 1.5;" x1="530.5" x2="632.5" y1="358" y2="358"/><line style="stroke: #A80036; stroke-width: 1.5;" x1="530.5" x2="632.5" y1="366" y2="366"/><!--link ComponentWithOwnBaseClass to Manager--><path d="M240.33,191 C243.11,191 245.9,191 248.68,191 " fill="none" id="ComponentWithOwnBaseClass-Manager" style="stroke: #A80036; stroke-width: 1.0;"/><polygon fill="#A80036" points="261.71,191,252.71,187,256.71,191,252.71,195,261.71,191" style="stroke: #A80036; stroke-width: 1.0;"/><line style="stroke: #A80036; stroke-width: 1.0;" x1="256.71" x2="248.71" y1="191" y2="191"/><polygon fill="#A80036" points="227.06,191,233.06,195,239.06,191,233.06,187,227.06,191" style="stroke: #A80036; stroke-width: 1.0;"/><text fill="#000000" font-family="sans-serif" font-size="13" lengthAdjust="spacingAndGlyphs" textLength="8" x="245.9057" y="187.768">1</text><!--link Manager to Component--><path d="M528.79,282.26 C541.51,298.37 553.7,313.8 563.14,325.76 " fill="none" id="Manager-Component" style="stroke: #A80036; stroke-width: 1.0; stroke-dasharray: 7.0,7.0;"/><polygon fill="none" points="523.13,286.4,516.23,266.36,534.12,277.72,523.13,286.4" style="stroke: #A80036; stroke-width: 1.0;"/><!--link ComponentType to Component--><path d="M498.85,35.79 C557.74,42.78 631.54,62.6 670.5,116 C709.79,169.86 697.08,204.86 670.5,266 C659.8,290.61 637.81,311.23 618.37,325.76 " fill="none" id="ComponentType-Component" style="stroke: #A80036; stroke-width: 1.0; stroke-dasharray: 7.0,7.0;"/><polygon fill="none" points="497.95,42.73,478.72,33.81,499.31,28.8,497.95,42.73" style="stroke: #A80036; stroke-width: 1.0;"/><!--link Component to SomeComponent--><path d="M581.5,394.02 C581.5,407.58 581.5,422.04 581.5,433.68 " fill="none" id="Component-SomeComponent" style="stroke: #A80036; stroke-width: 1.0;"/><polygon fill="none" points="574.5,394,581.5,374,588.5,394,574.5,394" style="stroke: #A80036; stroke-width: 1.0;"/><!--link ComponentType to ComponentWithOwnBaseClass--><path d="M344.6,65.06 C313.87,80.08 277.1,98.5 244.5,116 C218.27,130.08 189.53,146.6 165.94,160.45 " fill="none" id="ComponentType-ComponentWithOwnBaseClass" style="stroke: #A80036; stroke-width: 1.0; stroke-dasharray: 7.0,7.0;"/><polygon fill="none" points="341.81,58.63,362.86,56.18,347.93,71.22,341.81,58.63" style="stroke: #A80036; stroke-width: 1.0;"/><!--
@startuml
interface Manager {
   T attach(T child)
   ComponentType detach()
   List children()
   ComponentType parent()
   ComponentType root()
   Channel channel()
   Event fire(Event event, Channel[] channels)
   void addHandler(Method method, HandlerScope scope, int priority)
 }
 interface ComponentType
 class ComponentWithOwnBaseClass #NavajoWhite {
   -<> manager: Manager 
 }
 class SomeComponent #NavajoWhite
 
 ComponentWithOwnBaseClass *-> "1" Manager
 Manager <|.. Component
 ComponentType <|.. Component
 Component <|- - SomeComponent
 ComponentType <|.. ComponentWithOwnBaseClass
@enduml

PlantUML version 1.2017.18(Fri Oct 06 16:56:32 UTC 2017)
(GPL source distribution)
Java Runtime: OpenJDK Runtime Environment
JVM: OpenJDK 64-Bit Server VM
Java Version: 15.0.6+5-MTS
Operating System: Linux
OS Version: 5.11.0-1028-azure
Default Encoding: UTF-8
Language: en
Country: 
--></g></svg>