<?xml version="1.0" encoding="UTF-8" standalone="no"?><svg xmlns="http://www.w3.org/2000/svg" xmlns:xlink="http://www.w3.org/1999/xlink" contentScriptType="application/ecmascript" contentStyleType="text/css" height="119px" preserveAspectRatio="none" style="width:541px;height:119px;" version="1.1" viewBox="0 0 541 119" width="541px" zoomAndPan="magnify"><defs><filter height="300%" id="f06ixa7" width="300%" x="-1" y="-1"><feGaussianBlur result="blurOut" stdDeviation="2.0"/><feColorMatrix in="blurOut" result="blurOut2" type="matrix" values="0 0 0 0 0 0 0 0 0 0 0 0 0 0 0 0 0 0 .4 0"/><feOffset dx="4.0" dy="4.0" in="blurOut2" result="blurOut3"/><feBlend in="SourceGraphic" in2="blurOut3" mode="normal"/></filter></defs><g><!--class Component--><rect fill="#FEFECE" filter="url(#f06ixa7)" height="73.6094" style="stroke: #A80036; stroke-width: 1.5;" width="154" x="6" y="30.9714"/><ellipse cx="43.5" cy="46.9714" fill="#ADD1B2" rx="11" ry="11" style="stroke: #A80036; stroke-width: 1.0;"/><path d="M46.4688,52.612 Q45.8906,52.9089 45.25,53.0573 Q44.6094,53.2058 43.9063,53.2058 Q41.4063,53.2058 40.0859,51.5573 Q38.7656,49.9089 38.7656,46.7839 Q38.7656,43.6589 40.0859,42.0027 Q41.4063,40.3464 43.9063,40.3464 Q44.6094,40.3464 45.2578,40.5027 Q45.9063,40.6589 46.4688,40.9558 L46.4688,43.6745 Q45.8438,43.0964 45.25,42.823 Q44.6563,42.5495 44.0313,42.5495 Q42.6875,42.5495 42,43.6198 Q41.3125,44.6902 41.3125,46.7839 Q41.3125,48.8777 42,49.948 Q42.6875,51.0183 44.0313,51.0183 Q44.6563,51.0183 45.25,50.7448 Q45.8438,50.4714 46.4688,49.8933 L46.4688,52.612 Z "/><text fill="#000000" font-family="sans-serif" font-size="12" lengthAdjust="spacingAndGlyphs" textLength="72" x="62.5" y="51.1257">Component</text><line style="stroke: #A80036; stroke-width: 1.5;" x1="7" x2="159" y1="62.9714" y2="62.9714"/><line style="stroke: #A80036; stroke-width: 1.5;" x1="7" x2="159" y1="70.9714" y2="70.9714"/><ellipse cx="17" cy="82.8737" fill="#84BE84" rx="3" ry="3" style="stroke: #038048; stroke-width: 1.0;"/><text fill="#000000" font-family="sans-serif" font-size="11" lengthAdjust="spacingAndGlyphs" textLength="128" x="26" y="85.1818">fire(event: Event): void</text><ellipse cx="17" cy="95.6784" fill="#84BE84" rx="3" ry="3" style="stroke: #038048; stroke-width: 1.0;"/><text fill="#000000" font-family="sans-serif" font-size="11" lengthAdjust="spacingAndGlyphs" textLength="117" x="26" y="97.9865">onSomeEvent(): void</text><!--class SomeChannel--><rect fill="#FEFECE" filter="url(#f06ixa7)" height="60.8047" style="stroke: #A80036; stroke-width: 1.5;" width="179" x="353.5" y="37.4714"/><ellipse cx="395.95" cy="53.4714" fill="#ADD1B2" rx="11" ry="11" style="stroke: #A80036; stroke-width: 1.0;"/><path d="M398.9188,59.112 Q398.3406,59.4089 397.7,59.5573 Q397.0594,59.7058 396.3563,59.7058 Q393.8563,59.7058 392.5359,58.0573 Q391.2156,56.4089 391.2156,53.2839 Q391.2156,50.1589 392.5359,48.5027 Q393.8563,46.8464 396.3563,46.8464 Q397.0594,46.8464 397.7078,47.0027 Q398.3563,47.1589 398.9188,47.4558 L398.9188,50.1745 Q398.2938,49.5964 397.7,49.323 Q397.1063,49.0495 396.4813,49.0495 Q395.1375,49.0495 394.45,50.1198 Q393.7625,51.1902 393.7625,53.2839 Q393.7625,55.3777 394.45,56.448 Q395.1375,57.5183 396.4813,57.5183 Q397.1063,57.5183 397.7,57.2448 Q398.2938,56.9714 398.9188,56.3933 L398.9188,59.112 Z "/><text fill="#000000" font-family="sans-serif" font-size="12" lengthAdjust="spacingAndGlyphs" textLength="86" x="416.05" y="57.6257">SomeChannel</text><line style="stroke: #A80036; stroke-width: 1.5;" x1="354.5" x2="531.5" y1="69.4714" y2="69.4714"/><line style="stroke: #A80036; stroke-width: 1.5;" x1="354.5" x2="531.5" y1="77.4714" y2="77.4714"/><ellipse cx="364.5" cy="89.3737" fill="#84BE84" rx="3" ry="3" style="stroke: #038048; stroke-width: 1.0;"/><text fill="#000000" font-family="sans-serif" font-size="11" lengthAdjust="spacingAndGlyphs" textLength="153" x="373.5" y="91.6818">forward(event: Event): void</text><path d="M160.119,102.1864 C169.932,105.3832 179.966,108.116 189.75,109.9714 C219.006,115.5197 294.398,114.9892 323.75,109.9714 C336.95,107.7149 350.63,104.1486 363.813,100.0249 " fill="none" style="stroke: #A80036; stroke-width: 1.0; stroke-dasharray: 7.0,7.0;"/><polygon fill="#A80036" points="368.646,98.4819,358.8559,97.4073,363.8827,100.002,361.288,105.0287,368.646,98.4819" style="stroke: #A80036; stroke-width: 1.0;"/><text fill="#000000" font-family="sans-serif" font-size="13" lengthAdjust="spacingAndGlyphs" textLength="37" x="190.75" y="95.0383">«call»</text><polygon fill="#FBFB77" filter="url(#f06ixa7)" points="233.75,75.9714,233.75,100.9714,314.75,100.9714,314.75,85.9714,304.75,75.9714,233.75,75.9714" style="stroke: #A80036; stroke-width: 1.0;"/><line style="stroke: #A80036; stroke-width: 1.0;" x1="304.75" x2="304.75" y1="75.9714" y2="85.9714"/><line style="stroke: #A80036; stroke-width: 1.0;" x1="314.75" x2="304.75" y1="85.9714" y2="85.9714"/><text fill="#000000" font-family="sans-serif" font-size="13" lengthAdjust="spacingAndGlyphs" textLength="60" x="239.75" y="93.0383">fire event</text><text fill="#000000" font-family="sans-serif" font-size="13" lengthAdjust="spacingAndGlyphs" textLength="23" x="327.9386" y="118.4223">0..*</text><path d="M165.256,67.9714 C221.335,67.9714 295.58,67.9714 353.198,67.9714 " fill="none" style="stroke: #A80036; stroke-width: 1.0; stroke-dasharray: 7.0,7.0;"/><polygon fill="#A80036" points="160.229,67.9714,169.229,71.9714,165.229,67.9714,169.229,63.9714,160.229,67.9714" style="stroke: #A80036; stroke-width: 1.0;"/><polygon fill="#FBFB77" filter="url(#f06ixa7)" points="182.25,15.971,182.25,55.971,288.25,55.971,288.25,25.971,278.25,15.971,182.25,15.971" style="stroke: #A80036; stroke-width: 1.0;"/><line style="stroke: #A80036; stroke-width: 1.0;" x1="278.25" x2="278.25" y1="15.971" y2="25.971"/><line style="stroke: #A80036; stroke-width: 1.0;" x1="288.25" x2="278.25" y1="25.971" y2="25.971"/><text fill="#000000" font-family="sans-serif" font-size="13" lengthAdjust="spacingAndGlyphs" textLength="81" x="188.25" y="33.0379">invoke event</text><text fill="#000000" font-family="sans-serif" font-size="13" lengthAdjust="spacingAndGlyphs" textLength="55" x="188.25" y="48.1707">handlers</text><text fill="#000000" font-family="sans-serif" font-size="13" lengthAdjust="spacingAndGlyphs" textLength="37" x="298.25" y="42.6043">«call»</text><text fill="#000000" font-family="sans-serif" font-size="13" lengthAdjust="spacingAndGlyphs" textLength="23" x="168.1314" y="80.7296">0..*</text></g></svg>