<?xml version="1.0" encoding="UTF-8" standalone="no"?><svg xmlns="http://www.w3.org/2000/svg" xmlns:xlink="http://www.w3.org/1999/xlink" contentScriptType="application/ecmascript" contentStyleType="text/css" height="120px" preserveAspectRatio="none" style="width:553px;height:120px;" version="1.1" viewBox="0 0 553 120" width="553px" zoomAndPan="magnify"><defs><filter height="300%" id="fs7qg2b" width="300%" x="-1" y="-1"><feGaussianBlur result="blurOut" stdDeviation="2.0"/><feColorMatrix in="blurOut" result="blurOut2" type="matrix" values="0 0 0 0 0 0 0 0 0 0 0 0 0 0 0 0 0 0 .4 0"/><feOffset dx="4.0" dy="4.0" in="blurOut2" result="blurOut3"/><feBlend in="SourceGraphic" in2="blurOut3" mode="normal"/></filter></defs><g><!--class Component--><rect fill="#FEFECE" filter="url(#fs7qg2b)" height="73.6094" style="stroke: #A80036; stroke-width: 1.5;" width="157" x="6" y="31.8884"/><ellipse cx="45.75" cy="47.8884" fill="#ADD1B2" rx="11" ry="11" style="stroke: #A80036; stroke-width: 1.0;"/><path d="M48.7188,53.529 Q48.1406,53.8259 47.5,53.9743 Q46.8594,54.1228 46.1563,54.1228 Q43.6563,54.1228 42.3359,52.4743 Q41.0156,50.8259 41.0156,47.7009 Q41.0156,44.5759 42.3359,42.9197 Q43.6563,41.2634 46.1563,41.2634 Q46.8594,41.2634 47.5078,41.4197 Q48.1563,41.5759 48.7188,41.8728 L48.7188,44.5915 Q48.0938,44.0134 47.5,43.74 Q46.9063,43.4665 46.2813,43.4665 Q44.9375,43.4665 44.25,44.5368 Q43.5625,45.6072 43.5625,47.7009 Q43.5625,49.7947 44.25,50.865 Q44.9375,51.9353 46.2813,51.9353 Q46.9063,51.9353 47.5,51.6618 Q48.0938,51.3884 48.7188,50.8103 L48.7188,53.529 Z "/><text fill="#000000" font-family="sans-serif" font-size="12" lengthAdjust="spacingAndGlyphs" textLength="70" x="65.25" y="52.0427">Component</text><line style="stroke: #A80036; stroke-width: 1.5;" x1="7" x2="162" y1="63.8884" y2="63.8884"/><line style="stroke: #A80036; stroke-width: 1.5;" x1="7" x2="162" y1="71.8884" y2="71.8884"/><ellipse cx="17" cy="83.7907" fill="#84BE84" rx="3" ry="3" style="stroke: #038048; stroke-width: 1.0;"/><text fill="#000000" font-family="sans-serif" font-size="11" lengthAdjust="spacingAndGlyphs" textLength="131" x="26" y="86.0988">fire(event: Event): void</text><ellipse cx="17" cy="96.5954" fill="#84BE84" rx="3" ry="3" style="stroke: #038048; stroke-width: 1.0;"/><text fill="#000000" font-family="sans-serif" font-size="11" lengthAdjust="spacingAndGlyphs" textLength="118" x="26" y="98.9035">onSomeEvent(): void</text><!--class SomeChannel--><rect fill="#FEFECE" filter="url(#fs7qg2b)" height="60.8047" style="stroke: #A80036; stroke-width: 1.5;" width="182" x="362.5" y="38.3884"/><ellipse cx="407.75" cy="54.3884" fill="#ADD1B2" rx="11" ry="11" style="stroke: #A80036; stroke-width: 1.0;"/><path d="M410.7188,60.029 Q410.1406,60.3259 409.5,60.4743 Q408.8594,60.6228 408.1563,60.6228 Q405.6563,60.6228 404.3359,58.9743 Q403.0156,57.3259 403.0156,54.2009 Q403.0156,51.0759 404.3359,49.4197 Q405.6563,47.7634 408.1563,47.7634 Q408.8594,47.7634 409.5078,47.9197 Q410.1563,48.0759 410.7188,48.3728 L410.7188,51.0915 Q410.0938,50.5134 409.5,50.24 Q408.9063,49.9665 408.2813,49.9665 Q406.9375,49.9665 406.25,51.0368 Q405.5625,52.1072 405.5625,54.2009 Q405.5625,56.2947 406.25,57.365 Q406.9375,58.4353 408.2813,58.4353 Q408.9063,58.4353 409.5,58.1618 Q410.0938,57.8884 410.7188,57.3103 L410.7188,60.029 Z "/><text fill="#000000" font-family="sans-serif" font-size="12" lengthAdjust="spacingAndGlyphs" textLength="83" x="428.25" y="58.5427">SomeChannel</text><line style="stroke: #A80036; stroke-width: 1.5;" x1="363.5" x2="543.5" y1="70.3884" y2="70.3884"/><line style="stroke: #A80036; stroke-width: 1.5;" x1="363.5" x2="543.5" y1="78.3884" y2="78.3884"/><ellipse cx="373.5" cy="90.2907" fill="#84BE84" rx="3" ry="3" style="stroke: #038048; stroke-width: 1.0;"/><text fill="#000000" font-family="sans-serif" font-size="11" lengthAdjust="spacingAndGlyphs" textLength="156" x="382.5" y="92.5988">forward(event: Event): void</text><path d="M163.0998,103.1056 C173.0909,106.302 183.3017,109.0341 193.25,110.8884 C223.6159,116.5485 301.7894,116.0147 332.25,110.8884 C345.6525,108.6329 359.5532,105.0671 372.9534,100.9437 " fill="none" style="stroke: #A80036; stroke-width: 1.0; stroke-dasharray: 7.0,7.0;"/><polygon fill="#A80036" points="377.8658,99.4007,368.0808,98.2814,373.0956,100.899,370.478,105.9138,377.8658,99.4007" style="stroke: #A80036; stroke-width: 1.0;"/><text fill="#000000" font-family="sans-serif" font-size="13" lengthAdjust="spacingAndGlyphs" textLength="39" x="194.25" y="95.9553">«call»</text><polygon fill="#FBFB77" filter="url(#fs7qg2b)" points="239.25,76.8884,239.25,101.8884,323.25,101.8884,323.25,86.8884,313.25,76.8884,239.25,76.8884" style="stroke: #A80036; stroke-width: 1.0;"/><line style="stroke: #A80036; stroke-width: 1.0;" x1="313.25" x2="313.25" y1="76.8884" y2="86.8884"/><line style="stroke: #A80036; stroke-width: 1.0;" x1="323.25" x2="313.25" y1="86.8884" y2="86.8884"/><text fill="#000000" font-family="sans-serif" font-size="13" lengthAdjust="spacingAndGlyphs" textLength="63" x="245.25" y="93.9553">fire event</text><text fill="#000000" font-family="sans-serif" font-size="13" lengthAdjust="spacingAndGlyphs" textLength="23" x="336.8944" y="119.3415">0..*</text><path d="M168.3862,68.8884 C226.1689,68.8884 302.9189,68.8884 362.2314,68.8884 " fill="none" style="stroke: #A80036; stroke-width: 1.0; stroke-dasharray: 7.0,7.0;"/><polygon fill="#A80036" points="163.2072,68.8884,172.2072,72.8884,168.2072,68.8884,172.2072,64.8884,163.2072,68.8884" style="stroke: #A80036; stroke-width: 1.0;"/><polygon fill="#FBFB77" filter="url(#fs7qg2b)" points="185.25,16.8884,185.25,56.8884,295.25,56.8884,295.25,26.8884,285.25,16.8884,185.25,16.8884" style="stroke: #A80036; stroke-width: 1.0;"/><line style="stroke: #A80036; stroke-width: 1.0;" x1="285.25" x2="285.25" y1="16.8884" y2="26.8884"/><line style="stroke: #A80036; stroke-width: 1.0;" x1="295.25" x2="285.25" y1="26.8884" y2="26.8884"/><text fill="#000000" font-family="sans-serif" font-size="13" lengthAdjust="spacingAndGlyphs" textLength="85" x="191.25" y="33.9553">invoke event</text><text fill="#000000" font-family="sans-serif" font-size="13" lengthAdjust="spacingAndGlyphs" textLength="56" x="191.25" y="49.0881">handlers</text><text fill="#000000" font-family="sans-serif" font-size="13" lengthAdjust="spacingAndGlyphs" textLength="39" x="305.25" y="43.5217">«call»</text><text fill="#000000" font-family="sans-serif" font-size="13" lengthAdjust="spacingAndGlyphs" textLength="23" x="170.9594" y="81.6223">0..*</text></g></svg>