<?xml version="1.0" encoding="us-ascii" standalone="no"?><svg xmlns="http://www.w3.org/2000/svg" xmlns:xlink="http://www.w3.org/1999/xlink" contentStyleType="text/css" height="516px" preserveAspectRatio="none" style="width:906px;height:516px;background:#FFFFFF;" version="1.1" viewBox="0 0 906 516" width="906px" zoomAndPan="magnify"><defs/><g><!--class Manager--><g id="elem_Manager"><rect codeLine="1" fill="#F1F1F1" height="178.375" id="Manager" rx="2.5" ry="2.5" style="stroke:#181818;stroke-width:0.5;" width="471" x="362.5" y="115"/><ellipse cx="563.75" cy="131" fill="#B4A7E5" rx="11" ry="11" style="stroke:#181818;stroke-width:1.0;"/><path d="M559.6719,126.7656 L559.6719,124.6094 L567.0625,124.6094 L567.0625,126.7656 L564.5938,126.7656 L564.5938,134.8438 L567.0625,134.8438 L567.0625,137 L559.6719,137 L559.6719,134.8438 L562.1406,134.8438 L562.1406,126.7656 L559.6719,126.7656 Z " fill="#000000"/><text fill="#000000" font-family="sans-serif" font-size="14" font-style="italic" lengthAdjust="spacing" textLength="60" x="584.25" y="135.8467">Manager</text><line style="stroke:#181818;stroke-width:0.5;" x1="363.5" x2="832.5" y1="147" y2="147"/><line style="stroke:#181818;stroke-width:0.5;" x1="363.5" x2="832.5" y1="155" y2="155"/><text fill="#000000" font-family="sans-serif" font-size="14" lengthAdjust="spacing" textLength="111" x="368.5" y="171.9951">T attach(T child)</text><text fill="#000000" font-family="sans-serif" font-size="14" lengthAdjust="spacing" textLength="178" x="368.5" y="188.292">ComponentType detach()</text><text fill="#000000" font-family="sans-serif" font-size="14" lengthAdjust="spacing" textLength="232" x="368.5" y="204.5889">List&lt;ComponentType&gt; children()</text><text fill="#000000" font-family="sans-serif" font-size="14" lengthAdjust="spacing" textLength="175" x="368.5" y="220.8857">ComponentType parent()</text><text fill="#000000" font-family="sans-serif" font-size="14" lengthAdjust="spacing" textLength="158" x="368.5" y="237.1826">ComponentType root()</text><text fill="#000000" font-family="sans-serif" font-size="14" lengthAdjust="spacing" textLength="126" x="368.5" y="253.4795">Channel channel()</text><text fill="#000000" font-family="sans-serif" font-size="14" lengthAdjust="spacing" textLength="364" x="368.5" y="269.7764">Event&lt;T&gt; fire(Event&lt;T&gt; event, Channel[] channels)</text><text fill="#000000" font-family="sans-serif" font-size="14" lengthAdjust="spacing" textLength="459" x="368.5" y="286.0732">void addHandler(Method method, HandlerScope scope, int priority)</text></g><!--class ComponentType--><g id="elem_ComponentType"><rect codeLine="11" fill="#F1F1F1" height="48" id="ComponentType" rx="2.5" ry="2.5" style="stroke:#181818;stroke-width:0.5;" width="149" x="452.5" y="7"/><ellipse cx="467.5" cy="23" fill="#B4A7E5" rx="11" ry="11" style="stroke:#181818;stroke-width:1.0;"/><path d="M463.4219,18.7656 L463.4219,16.6094 L470.8125,16.6094 L470.8125,18.7656 L468.3438,18.7656 L468.3438,26.8438 L470.8125,26.8438 L470.8125,29 L463.4219,29 L463.4219,26.8438 L465.8906,26.8438 L465.8906,18.7656 L463.4219,18.7656 Z " fill="#000000"/><text fill="#000000" font-family="sans-serif" font-size="14" font-style="italic" lengthAdjust="spacing" textLength="117" x="481.5" y="27.8467">ComponentType</text><line style="stroke:#181818;stroke-width:0.5;" x1="453.5" x2="600.5" y1="39" y2="39"/><line style="stroke:#181818;stroke-width:0.5;" x1="453.5" x2="600.5" y1="47" y2="47"/></g><!--class ComponentWithOwnBaseClass--><g id="elem_ComponentWithOwnBaseClass"><rect codeLine="12" fill="#FFDEAD" height="64.2969" id="ComponentWithOwnBaseClass" rx="2.5" ry="2.5" style="stroke:#181818;stroke-width:0.5;" width="320" x="7" y="172"/><ellipse cx="55.25" cy="188" fill="#ADD1B2" rx="11" ry="11" style="stroke:#181818;stroke-width:1.0;"/><path d="M58.2188,193.6406 Q57.6406,193.9375 57,194.0781 Q56.3594,194.2344 55.6563,194.2344 Q53.1563,194.2344 51.8281,192.5938 Q50.5156,190.9375 50.5156,187.8125 Q50.5156,184.6875 51.8281,183.0313 Q53.1563,181.375 55.6563,181.375 Q56.3594,181.375 57,181.5313 Q57.6563,181.6875 58.2188,181.9844 L58.2188,184.7031 Q57.5938,184.125 57,183.8594 Q56.4063,183.5781 55.7813,183.5781 Q54.4375,183.5781 53.75,184.6563 Q53.0625,185.7188 53.0625,187.8125 Q53.0625,189.9063 53.75,190.9844 Q54.4375,192.0469 55.7813,192.0469 Q56.4063,192.0469 57,191.7813 Q57.5938,191.5 58.2188,190.9219 L58.2188,193.6406 Z " fill="#000000"/><text fill="#000000" font-family="sans-serif" font-size="14" lengthAdjust="spacing" textLength="215" x="75.75" y="192.8467">ComponentWithOwnBaseClass</text><line style="stroke:#181818;stroke-width:0.5;" x1="8" x2="326" y1="204" y2="204"/><rect fill="none" height="6" style="stroke:#C82930;stroke-width:1.0;" width="6" x="15" y="214.6484"/><text fill="#000000" font-family="sans-serif" font-size="14" lengthAdjust="spacing" textLength="294" x="27" y="220.9951">&#171;ComponentManager&#187; manager: Manager</text><line style="stroke:#181818;stroke-width:0.5;" x1="8" x2="326" y1="228.2969" y2="228.2969"/></g><!--class SomeComponent--><g id="elem_SomeComponent"><rect codeLine="15" fill="#FFDEAD" height="48" id="SomeComponent" rx="2.5" ry="2.5" style="stroke:#181818;stroke-width:0.5;" width="154" x="665" y="461"/><ellipse cx="680" cy="477" fill="#ADD1B2" rx="11" ry="11" style="stroke:#181818;stroke-width:1.0;"/><path d="M682.9688,482.6406 Q682.3906,482.9375 681.75,483.0781 Q681.1094,483.2344 680.4063,483.2344 Q677.9063,483.2344 676.5781,481.5938 Q675.2656,479.9375 675.2656,476.8125 Q675.2656,473.6875 676.5781,472.0313 Q677.9063,470.375 680.4063,470.375 Q681.1094,470.375 681.75,470.5313 Q682.4063,470.6875 682.9688,470.9844 L682.9688,473.7031 Q682.3438,473.125 681.75,472.8594 Q681.1563,472.5781 680.5313,472.5781 Q679.1875,472.5781 678.5,473.6563 Q677.8125,474.7188 677.8125,476.8125 Q677.8125,478.9063 678.5,479.9844 Q679.1875,481.0469 680.5313,481.0469 Q681.1563,481.0469 681.75,480.7813 Q682.3438,480.5 682.9688,479.9219 L682.9688,482.6406 Z " fill="#000000"/><text fill="#000000" font-family="sans-serif" font-size="14" lengthAdjust="spacing" textLength="122" x="694" y="481.8467">SomeComponent</text><line style="stroke:#181818;stroke-width:0.5;" x1="666" x2="818" y1="493" y2="493"/><line style="stroke:#181818;stroke-width:0.5;" x1="666" x2="818" y1="501" y2="501"/></g><!--class Component--><g id="elem_Component"><rect fill="#F1F1F1" height="48" id="Component" rx="2.5" ry="2.5" style="stroke:#181818;stroke-width:0.5;" width="114" x="685" y="353"/><ellipse cx="700" cy="369" fill="#ADD1B2" rx="11" ry="11" style="stroke:#181818;stroke-width:1.0;"/><path d="M702.9688,374.6406 Q702.3906,374.9375 701.75,375.0781 Q701.1094,375.2344 700.4063,375.2344 Q697.9063,375.2344 696.5781,373.5938 Q695.2656,371.9375 695.2656,368.8125 Q695.2656,365.6875 696.5781,364.0313 Q697.9063,362.375 700.4063,362.375 Q701.1094,362.375 701.75,362.5313 Q702.4063,362.6875 702.9688,362.9844 L702.9688,365.7031 Q702.3438,365.125 701.75,364.8594 Q701.1563,364.5781 700.5313,364.5781 Q699.1875,364.5781 698.5,365.6563 Q697.8125,366.7188 697.8125,368.8125 Q697.8125,370.9063 698.5,371.9844 Q699.1875,373.0469 700.5313,373.0469 Q701.1563,373.0469 701.75,372.7813 Q702.3438,372.5 702.9688,371.9219 L702.9688,374.6406 Z " fill="#000000"/><text fill="#000000" font-family="sans-serif" font-size="14" lengthAdjust="spacing" textLength="82" x="714" y="373.8467">Component</text><line style="stroke:#181818;stroke-width:0.5;" x1="686" x2="798" y1="385" y2="385"/><line style="stroke:#181818;stroke-width:0.5;" x1="686" x2="798" y1="393" y2="393"/></g><!--link ComponentWithOwnBaseClass to Manager--><g id="link_ComponentWithOwnBaseClass_Manager"><path codeLine="17" d="M339.36,204 C350.99,204 344.62,204 356.25,204 " fill="none" id="ComponentWithOwnBaseClass-Manager" style="stroke:#181818;stroke-width:1.0;"/><polygon fill="#181818" points="327.36,204,333.36,208,339.36,204,333.36,200,327.36,204" style="stroke:#181818;stroke-width:1.0;"/><polygon fill="#181818" points="362.25,204,353.25,200,357.25,204,353.25,208,362.25,204" style="stroke:#181818;stroke-width:1.0;"/><text fill="#000000" font-family="sans-serif" font-size="13" lengthAdjust="spacing" textLength="8" x="346.3832" y="200.8168">1</text></g><!--reverse link Manager to Component--><g id="link_Manager_Component"><path codeLine="18" d="M683.7043,306.7686 C702.3143,328.8686 709.13,336.97 722.39,352.71 " fill="none" id="Manager-backto-Component" style="stroke:#181818;stroke-width:1.0;stroke-dasharray:7.0,7.0;"/><polygon fill="none" points="672.11,293,679.1147,310.6333,688.2938,302.9038,672.11,293" style="stroke:#181818;stroke-width:1.0;"/></g><!--reverse link ComponentType to Component--><g id="link_ComponentType_Component"><path codeLine="19" d="M619.3389,42.9627 C705.2389,54.5327 820.69,75.95 851,115 C899.5,177.5 886.12,222.11 851,293 C838.12,319 812.76,339.07 789.74,352.96 " fill="none" id="ComponentType-backto-Component" style="stroke:#181818;stroke-width:1.0;stroke-dasharray:7.0,7.0;"/><polygon fill="none" points="601.5,40.56,618.538,48.9091,620.1398,37.0164,601.5,40.56" style="stroke:#181818;stroke-width:1.0;"/></g><!--reverse link Component to SomeComponent--><g id="link_Component_SomeComponent"><path codeLine="20" d="M742,419 C742,436.66 742,442.94 742,460.68 " fill="none" id="Component-backto-SomeComponent" style="stroke:#181818;stroke-width:1.0;"/><polygon fill="none" points="742,401,736,419,748,419,742,401" style="stroke:#181818;stroke-width:1.0;"/></g><!--reverse link ComponentType to ComponentWithOwnBaseClass--><g id="link_ComponentType_ComponentWithOwnBaseClass"><path codeLine="21" d="M459.0008,62.3863 C422.4508,78.8063 388.76,94.21 345,115 C306.08,133.49 262.73,154.91 228.55,171.98 " fill="none" id="ComponentType-backto-ComponentWithOwnBaseClass" style="stroke:#181818;stroke-width:1.0;stroke-dasharray:7.0,7.0;"/><polygon fill="none" points="475.42,55.01,456.542,56.9132,461.4596,67.8594,475.42,55.01" style="stroke:#181818;stroke-width:1.0;"/></g><!--SRC=[VL5DQyCm3BtxLuZkaesaiEi8EQmCTbYtGmCzZ1r4hCuUYHriar6s_VSvTZv8QNknvFVqdeGabIDpm8fWYme_oS0F0u0Iq3ciH5929MJDRtjmevjMArAkFBO4d491O5waTVc2BgBEa4hEQ5lqX3l76Ar7NA1IL7kV42FurFd2l2pW80qbqu_w91qbxn-Zo0PHfoK7vFmP5Q_995joGdDeGaXXW7ULzlrj_wOWbOFMI6saEtgFFzOZmw8M0pEeQhHs1lVIYRTlzOYMDe6vUSKEl_HUI4TnkLa-xshOUb504xE7wH2XRNJVwOOcoSAH-RBBlU-o0bRtgz6IJTxvxtezwzZ94IwodicovJJNjQSJ_GC0]--></g></svg>