<?xml version="1.0" encoding="UTF-8" standalone="no"?><svg xmlns="http://www.w3.org/2000/svg" xmlns:xlink="http://www.w3.org/1999/xlink" contentScriptType="application/ecmascript" contentStyleType="text/css" height="491px" preserveAspectRatio="none" style="width:756px;height:491px;" version="1.1" viewBox="0 0 756 491" width="756px" zoomAndPan="magnify"><defs><filter height="300%" id="ft1unj1" width="300%" x="-1" y="-1"><feGaussianBlur result="blurOut" stdDeviation="2.0"/><feColorMatrix in="blurOut" result="blurOut2" type="matrix" values="0 0 0 0 0 0 0 0 0 0 0 0 0 0 0 0 0 0 .4 0"/><feOffset dx="4.0" dy="4.0" in="blurOut2" result="blurOut3"/><feBlend in="SourceGraphic" in2="blurOut3" mode="normal"/></filter></defs><g><!--class Manager--><rect fill="#FEFECE" filter="url(#ft1unj1)" height="150.4375" style="stroke: #A80036; stroke-width: 1.5;" width="391" x="307.5" y="116"/><ellipse cx="472.75" cy="132" fill="#B4A7E5" rx="11" ry="11" style="stroke: #A80036; stroke-width: 1.0;"/><path d="M469.1719,127.7656 L469.1719,125.6094 L476.5625,125.6094 L476.5625,127.7656 L474.0938,127.7656 L474.0938,135.8438 L476.5625,135.8438 L476.5625,138 L469.1719,138 L469.1719,135.8438 L471.6406,135.8438 L471.6406,127.7656 L469.1719,127.7656 Z "/><text fill="#000000" font-family="sans-serif" font-size="12" font-style="italic" lengthAdjust="spacingAndGlyphs" textLength="52" x="493.25" y="136.1543">Manager</text><line style="stroke: #A80036; stroke-width: 1.5;" x1="308.5" x2="697.5" y1="148" y2="148"/><line style="stroke: #A80036; stroke-width: 1.5;" x1="308.5" x2="697.5" y1="156" y2="156"/><text fill="#000000" font-family="sans-serif" font-size="11" lengthAdjust="spacingAndGlyphs" textLength="91" x="313.5" y="170.2104">T attach(T child)</text><text fill="#000000" font-family="sans-serif" font-size="11" lengthAdjust="spacingAndGlyphs" textLength="143" x="313.5" y="183.0151">ComponentType detach()</text><text fill="#000000" font-family="sans-serif" font-size="11" lengthAdjust="spacingAndGlyphs" textLength="187" x="313.5" y="195.8198">List&lt;ComponentType&gt; children()</text><text fill="#000000" font-family="sans-serif" font-size="11" lengthAdjust="spacingAndGlyphs" textLength="142" x="313.5" y="208.6245">ComponentType parent()</text><text fill="#000000" font-family="sans-serif" font-size="11" lengthAdjust="spacingAndGlyphs" textLength="128" x="313.5" y="221.4292">ComponentType root()</text><text fill="#000000" font-family="sans-serif" font-size="11" lengthAdjust="spacingAndGlyphs" textLength="102" x="313.5" y="234.2339">Channel channel()</text><text fill="#000000" font-family="sans-serif" font-size="11" lengthAdjust="spacingAndGlyphs" textLength="297" x="313.5" y="247.0386">Event&lt;T&gt; fire(Event&lt;T&gt; event, Channel[] channels)</text><text fill="#000000" font-family="sans-serif" font-size="11" lengthAdjust="spacingAndGlyphs" textLength="379" x="313.5" y="259.8433">void addHandler(Method method, HandlerScope scope, int priority)</text><!--class ComponentType--><rect fill="#FEFECE" filter="url(#ft1unj1)" height="48" style="stroke: #A80036; stroke-width: 1.5;" width="131" x="379.5" y="8"/><ellipse cx="394.5" cy="24" fill="#B4A7E5" rx="11" ry="11" style="stroke: #A80036; stroke-width: 1.0;"/><path d="M390.9219,19.7656 L390.9219,17.6094 L398.3125,17.6094 L398.3125,19.7656 L395.8438,19.7656 L395.8438,27.8438 L398.3125,27.8438 L398.3125,30 L390.9219,30 L390.9219,27.8438 L393.3906,27.8438 L393.3906,19.7656 L390.9219,19.7656 Z "/><text fill="#000000" font-family="sans-serif" font-size="12" font-style="italic" lengthAdjust="spacingAndGlyphs" textLength="99" x="408.5" y="28.1543">ComponentType</text><line style="stroke: #A80036; stroke-width: 1.5;" x1="380.5" x2="509.5" y1="40" y2="40"/><line style="stroke: #A80036; stroke-width: 1.5;" x1="380.5" x2="509.5" y1="48" y2="48"/><!--class ComponentWithOwnBaseClass--><rect fill="#FFDEAD" filter="url(#ft1unj1)" height="60.8047" style="stroke: #A80036; stroke-width: 1.5;" width="266" x="6" y="160.5"/><rect fill="#FFDEAD" height="32" style="stroke: #A80036; stroke-width: 1.5;" width="266" x="6" y="160.5"/><ellipse cx="43.95" cy="176.5" fill="#ADD1B2" rx="11" ry="11" style="stroke: #A80036; stroke-width: 1.0;"/><path d="M46.9188,182.1406 Q46.3406,182.4375 45.7,182.5859 Q45.0594,182.7344 44.3563,182.7344 Q41.8563,182.7344 40.5359,181.0859 Q39.2156,179.4375 39.2156,176.3125 Q39.2156,173.1875 40.5359,171.5313 Q41.8563,169.875 44.3563,169.875 Q45.0594,169.875 45.7078,170.0313 Q46.3563,170.1875 46.9188,170.4844 L46.9188,173.2031 Q46.2938,172.625 45.7,172.3516 Q45.1063,172.0781 44.4813,172.0781 Q43.1375,172.0781 42.45,173.1484 Q41.7625,174.2188 41.7625,176.3125 Q41.7625,178.4063 42.45,179.4766 Q43.1375,180.5469 44.4813,180.5469 Q45.1063,180.5469 45.7,180.2734 Q46.2938,180 46.9188,179.4219 L46.9188,182.1406 Z "/><text fill="#000000" font-family="sans-serif" font-size="12" lengthAdjust="spacingAndGlyphs" textLength="183" x="63.05" y="180.6543">ComponentWithOwnBaseClass</text><line style="stroke: #A80036; stroke-width: 1.5;" x1="7" x2="271" y1="192.5" y2="192.5"/><rect fill="none" height="6" style="stroke: #C82930; stroke-width: 1.0;" width="6" x="14" y="201.4023"/><text fill="#000000" font-family="sans-serif" font-size="11" lengthAdjust="spacingAndGlyphs" textLength="240" x="26" y="206.7104">«ComponentManager» manager: Manager</text><line style="stroke: #A80036; stroke-width: 1.5;" x1="7" x2="271" y1="213.3047" y2="213.3047"/><!--class SomeComponent--><rect fill="#FFDEAD" filter="url(#ft1unj1)" height="48" style="stroke: #A80036; stroke-width: 1.5;" width="136" x="559" y="434"/><rect fill="#FFDEAD" height="32" style="stroke: #A80036; stroke-width: 1.5;" width="136" x="559" y="434"/><ellipse cx="574" cy="450" fill="#ADD1B2" rx="11" ry="11" style="stroke: #A80036; stroke-width: 1.0;"/><path d="M576.9688,455.6406 Q576.3906,455.9375 575.75,456.0859 Q575.1094,456.2344 574.4063,456.2344 Q571.9063,456.2344 570.5859,454.5859 Q569.2656,452.9375 569.2656,449.8125 Q569.2656,446.6875 570.5859,445.0313 Q571.9063,443.375 574.4063,443.375 Q575.1094,443.375 575.7578,443.5313 Q576.4063,443.6875 576.9688,443.9844 L576.9688,446.7031 Q576.3438,446.125 575.75,445.8516 Q575.1563,445.5781 574.5313,445.5781 Q573.1875,445.5781 572.5,446.6484 Q571.8125,447.7188 571.8125,449.8125 Q571.8125,451.9063 572.5,452.9766 Q573.1875,454.0469 574.5313,454.0469 Q575.1563,454.0469 575.75,453.7734 Q576.3438,453.5 576.9688,452.9219 L576.9688,455.6406 Z "/><text fill="#000000" font-family="sans-serif" font-size="12" lengthAdjust="spacingAndGlyphs" textLength="104" x="588" y="454.1543">SomeComponent</text><line style="stroke: #A80036; stroke-width: 1.5;" x1="560" x2="694" y1="466" y2="466"/><line style="stroke: #A80036; stroke-width: 1.5;" x1="560" x2="694" y1="474" y2="474"/><!--class Component--><rect fill="#FEFECE" filter="url(#ft1unj1)" height="48" style="stroke: #A80036; stroke-width: 1.5;" width="102" x="576" y="326"/><ellipse cx="591" cy="342" fill="#ADD1B2" rx="11" ry="11" style="stroke: #A80036; stroke-width: 1.0;"/><path d="M593.9688,347.6406 Q593.3906,347.9375 592.75,348.0859 Q592.1094,348.2344 591.4063,348.2344 Q588.9063,348.2344 587.5859,346.5859 Q586.2656,344.9375 586.2656,341.8125 Q586.2656,338.6875 587.5859,337.0313 Q588.9063,335.375 591.4063,335.375 Q592.1094,335.375 592.7578,335.5313 Q593.4063,335.6875 593.9688,335.9844 L593.9688,338.7031 Q593.3438,338.125 592.75,337.8516 Q592.1563,337.5781 591.5313,337.5781 Q590.1875,337.5781 589.5,338.6484 Q588.8125,339.7188 588.8125,341.8125 Q588.8125,343.9063 589.5,344.9766 Q590.1875,346.0469 591.5313,346.0469 Q592.1563,346.0469 592.75,345.7734 Q593.3438,345.5 593.9688,344.9219 L593.9688,347.6406 Z "/><text fill="#000000" font-family="sans-serif" font-size="12" lengthAdjust="spacingAndGlyphs" textLength="70" x="605" y="346.1543">Component</text><line style="stroke: #A80036; stroke-width: 1.5;" x1="577" x2="677" y1="358" y2="358"/><line style="stroke: #A80036; stroke-width: 1.5;" x1="577" x2="677" y1="366" y2="366"/><path d="M285.4804,191 C288.4549,191 291.4295,191 294.4041,191 " fill="none" style="stroke: #A80036; stroke-width: 1.0;"/><polygon fill="#A80036" points="307.4464,191,298.4464,187,302.4464,191,298.4464,195,307.4464,191" style="stroke: #A80036; stroke-width: 1.0;"/><line style="stroke: #A80036; stroke-width: 1.0;" x1="302.4464" x2="294.4464" y1="191" y2="190.9999"/><polygon fill="#A80036" points="272.3008,191,278.3008,195,284.3008,191,278.3008,187,272.3008,191" style="stroke: #A80036; stroke-width: 1.0;"/><text fill="#000000" font-family="sans-serif" font-size="13" lengthAdjust="spacingAndGlyphs" textLength="8" x="291.6513" y="187.768">1</text><path d="M574.1021,282.1712 C586.6434,298.2524 598.6767,313.6823 608.0891,325.7513 " fill="none" style="stroke: #A80036; stroke-width: 1.0; stroke-dasharray: 7.0,7.0;"/><polygon fill="none" points="568.5114,286.3852,561.7318,266.3093,579.5511,277.7756,568.5114,286.3852" style="stroke: #A80036; stroke-width: 1.0;"/><path d="M530.4421,47.1186 C601.204,61.5845 693.6438,85.6649 716,116 C755.5512,169.667 742.3993,204.783 716,266 C705.4832,290.3873 684.0174,310.986 664.8025,325.6816 " fill="none" style="stroke: #A80036; stroke-width: 1.0; stroke-dasharray: 7.0,7.0;"/><polygon fill="none" points="528.9335,53.9559,510.6722,43.2076,531.6505,40.2221,528.9335,53.9559" style="stroke: #A80036; stroke-width: 1.0;"/><path d="M627,394.2911 C627,407.8171 627,422.1835 627,433.8436 " fill="none" style="stroke: #A80036; stroke-width: 1.0;"/><polygon fill="none" points="620.0001,394.2373,627,374.2373,634.0001,394.2373,620.0001,394.2373" style="stroke: #A80036; stroke-width: 1.0;"/><path d="M380.4317,65.5502 C326.4235,93.6133 250.0292,133.3084 197.724,160.4865 " fill="none" style="stroke: #A80036; stroke-width: 1.0; stroke-dasharray: 7.0,7.0;"/><polygon fill="none" points="377.5504,59.1588,398.5252,56.1487,384.0056,71.5818,377.5504,59.1588" style="stroke: #A80036; stroke-width: 1.0;"/></g></svg>