<?xml version="1.0" encoding="UTF-8" standalone="no"?><svg xmlns="http://www.w3.org/2000/svg" xmlns:xlink="http://www.w3.org/1999/xlink" contentScriptType="application/ecmascript" contentStyleType="text/css" height="126px" preserveAspectRatio="none" style="width:532px;height:126px;background:#FFFFFF;" version="1.1" viewBox="0 0 532 126" width="532px" zoomAndPan="magnify"><defs><filter height="300%" id="f17dwaq4k71bhw" width="300%" x="-1" y="-1"><feGaussianBlur result="blurOut" stdDeviation="2.0"/><feColorMatrix in="blurOut" result="blurOut2" type="matrix" values="0 0 0 0 0 0 0 0 0 0 0 0 0 0 0 0 0 0 .4 0"/><feOffset dx="4.0" dy="4.0" in="blurOut2" result="blurOut3"/><feBlend in="SourceGraphic" in2="blurOut3" mode="normal"/></filter></defs><g><!--MD5=[4e13963c9dc916a21a8436ef39422b32]
class Component--><rect codeLine="1" fill="#FEFECE" filter="url(#f17dwaq4k71bhw)" height="73.6094" id="Component" style="stroke:#A80036;stroke-width:1.5;" width="154" x="7" y="30.3"/><ellipse cx="44.5" cy="46.3" fill="#ADD1B2" rx="11" ry="11" style="stroke:#A80036;stroke-width:1.0;"/><path d="M47.4688,51.9406 Q46.8906,52.2375 46.25,52.3781 Q45.6094,52.5344 44.9063,52.5344 Q42.4063,52.5344 41.0781,50.8938 Q39.7656,49.2375 39.7656,46.1125 Q39.7656,42.9875 41.0781,41.3313 Q42.4063,39.675 44.9063,39.675 Q45.6094,39.675 46.25,39.8313 Q46.9063,39.9875 47.4688,40.2844 L47.4688,43.0031 Q46.8438,42.425 46.25,42.1594 Q45.6563,41.8781 45.0313,41.8781 Q43.6875,41.8781 43,42.9563 Q42.3125,44.0188 42.3125,46.1125 Q42.3125,48.2063 43,49.2844 Q43.6875,50.3469 45.0313,50.3469 Q45.6563,50.3469 46.25,50.0813 Q46.8438,49.8 47.4688,49.2219 L47.4688,51.9406 Z " fill="#000000"/><text fill="#000000" font-family="sans-serif" font-size="12" lengthAdjust="spacing" textLength="72" x="63.5" y="50.4543">Component</text><line style="stroke:#A80036;stroke-width:1.5;" x1="8" x2="160" y1="62.3" y2="62.3"/><line style="stroke:#A80036;stroke-width:1.5;" x1="8" x2="160" y1="70.3" y2="70.3"/><ellipse cx="18" cy="81.3" fill="#84BE84" rx="3" ry="3" style="stroke:#038048;stroke-width:1.0;"/><text fill="#000000" font-family="sans-serif" font-size="11" lengthAdjust="spacing" textLength="128" x="27" y="84.5104">fire(event: Event): void</text><ellipse cx="18" cy="94.1047" fill="#84BE84" rx="3" ry="3" style="stroke:#038048;stroke-width:1.0;"/><text fill="#000000" font-family="sans-serif" font-size="11" lengthAdjust="spacing" textLength="117" x="27" y="97.3151">onSomeEvent(): void</text><!--MD5=[36a2e91f7ebfa1ef56a627ca8e9a4f2d]
class SomeChannel--><rect codeLine="6" fill="#FEFECE" filter="url(#f17dwaq4k71bhw)" height="60.8047" id="SomeChannel" style="stroke:#A80036;stroke-width:1.5;" width="179" x="339.5" y="36.8"/><ellipse cx="381.95" cy="52.8" fill="#ADD1B2" rx="11" ry="11" style="stroke:#A80036;stroke-width:1.0;"/><path d="M384.9188,58.4406 Q384.3406,58.7375 383.7,58.8781 Q383.0594,59.0344 382.3563,59.0344 Q379.8563,59.0344 378.5281,57.3938 Q377.2156,55.7375 377.2156,52.6125 Q377.2156,49.4875 378.5281,47.8313 Q379.8563,46.175 382.3563,46.175 Q383.0594,46.175 383.7,46.3313 Q384.3563,46.4875 384.9188,46.7844 L384.9188,49.5031 Q384.2938,48.925 383.7,48.6594 Q383.1063,48.3781 382.4813,48.3781 Q381.1375,48.3781 380.45,49.4563 Q379.7625,50.5188 379.7625,52.6125 Q379.7625,54.7063 380.45,55.7844 Q381.1375,56.8469 382.4813,56.8469 Q383.1063,56.8469 383.7,56.5813 Q384.2938,56.3 384.9188,55.7219 L384.9188,58.4406 Z " fill="#000000"/><text fill="#000000" font-family="sans-serif" font-size="12" lengthAdjust="spacing" textLength="86" x="402.05" y="56.9543">SomeChannel</text><line style="stroke:#A80036;stroke-width:1.5;" x1="340.5" x2="517.5" y1="68.8" y2="68.8"/><line style="stroke:#A80036;stroke-width:1.5;" x1="340.5" x2="517.5" y1="76.8" y2="76.8"/><ellipse cx="350.5" cy="87.8" fill="#84BE84" rx="3" ry="3" style="stroke:#038048;stroke-width:1.0;"/><text fill="#000000" font-family="sans-serif" font-size="11" lengthAdjust="spacing" textLength="153" x="359.5" y="91.0104">forward(event: Event): void</text><!--MD5=[b4b6ae868bbaec0af03f5c97e17f7a55]
link Component to SomeChannel--><!--MD5=[b4b6ae868bbaec0af03f5c97e17f7a55]
link Component to SomeChannel--><path codeLine="12" d="M161.12,101.52 C170.93,104.71 180.97,107.45 190.75,109.3 C216.73,114.23 283.68,113.76 309.75,109.3 C322.95,107.05 336.63,103.48 349.81,99.36 " fill="none" id="Component-to-SomeChannel-1" style="stroke:#A80036;stroke-width:1.0;stroke-dasharray:7.0,7.0;"/><polygon fill="#A80036" points="354.65,97.81,344.8578,96.755,349.8897,99.3396,347.3051,104.3715,354.65,97.81" style="stroke:#A80036;stroke-width:1.0;"/><text fill="#000000" font-family="sans-serif" font-size="13" lengthAdjust="spacing" textLength="22" x="191.75" y="94.3669">&lt;&gt;</text><path d="M219.75,75.3 L219.75,100.3 L300.75,100.3 L300.75,85.3 L290.75,75.3 L219.75,75.3 " fill="#FBFB77" filter="url(#f17dwaq4k71bhw)" style="stroke:#A80036;stroke-width:1.0;"/><path d="M290.75,75.3 L290.75,85.3 L300.75,85.3 L290.75,75.3 " fill="#FBFB77" style="stroke:#A80036;stroke-width:1.0;"/><text fill="#000000" font-family="sans-serif" font-size="13" lengthAdjust="spacing" textLength="60" x="225.75" y="92.3669">fire event</text><text fill="#000000" font-family="sans-serif" font-size="13" lengthAdjust="spacing" textLength="23" x="313.9434" y="117.7503">0..*</text><!--MD5=[00c607bcd41d8e79f56d06b3497a0ccc]
reverse link Component to SomeChannel--><path codeLine="15" d="M166.73,67.3 C218.8,67.3 286,67.3 339.33,67.3 " fill="none" id="Component-backto-SomeChannel" style="stroke:#A80036;stroke-width:1.0;stroke-dasharray:7.0,7.0;"/><polygon fill="#A80036" points="161.42,67.3,170.42,71.3,166.42,67.3,170.42,63.3,161.42,67.3" style="stroke:#A80036;stroke-width:1.0;"/><path d="M183.25,15.3 L183.25,55.3 L289.25,55.3 L289.25,25.3 L279.25,15.3 L183.25,15.3 " fill="#FBFB77" filter="url(#f17dwaq4k71bhw)" style="stroke:#A80036;stroke-width:1.0;"/><path d="M279.25,15.3 L279.25,25.3 L289.25,25.3 L279.25,15.3 " fill="#FBFB77" style="stroke:#A80036;stroke-width:1.0;"/><text fill="#000000" font-family="sans-serif" font-size="13" lengthAdjust="spacing" textLength="81" x="189.25" y="32.3669">invoke event</text><text fill="#000000" font-family="sans-serif" font-size="13" lengthAdjust="spacing" textLength="55" x="189.25" y="47.4997">handlers</text><text fill="#000000" font-family="sans-serif" font-size="13" lengthAdjust="spacing" textLength="22" x="299.25" y="41.9333">&lt;&gt;</text><text fill="#000000" font-family="sans-serif" font-size="13" lengthAdjust="spacing" textLength="23" x="169.0616" y="80.0339">0..*</text><!--MD5=[b4e2199aeb5d1a0770d1ffc741864b5c]
@startuml
class Component {
  + fire(event: Event): void
  + onSomeEvent(): void
 }
 
 class SomeChannel {
  + forward(event: Event): void
 }
 
 Component -[hidden]right-> SomeChannel
 
 Component ..> "0..*" SomeChannel : <>
 note right on link: fire event
 
 Component "0..*" <.. SomeChannel : <>
 note left on link
 invoke event 
 handlers
 end note
@enduml

PlantUML version 1.2022.1(Tue Feb 01 18:19:58 UTC 2022)
(GPL source distribution)
Java Runtime: OpenJDK Runtime Environment
JVM: OpenJDK 64-Bit Server VM
Default Encoding: UTF-8
Language: en
Country: 
--></g></svg>