<?xml version="1.0" encoding="UTF-8" standalone="no"?><svg xmlns="http://www.w3.org/2000/svg" xmlns:xlink="http://www.w3.org/1999/xlink" contentScriptType="application/ecmascript" contentStyleType="text/css" height="126px" preserveAspectRatio="none" style="width:528px;height:126px;background:#FFFFFF;" version="1.1" viewBox="0 0 528 126" width="528px" zoomAndPan="magnify"><defs><filter height="300%" id="f17dwaq4k71bhw" width="300%" x="-1" y="-1"><feGaussianBlur result="blurOut" stdDeviation="2.0"/><feColorMatrix in="blurOut" result="blurOut2" type="matrix" values="0 0 0 0 0 0 0 0 0 0 0 0 0 0 0 0 0 0 .4 0"/><feOffset dx="4.0" dy="4.0" in="blurOut2" result="blurOut3"/><feBlend in="SourceGraphic" in2="blurOut3" mode="normal"/></filter></defs><g><!--MD5=[4e13963c9dc916a21a8436ef39422b32]
class Component--><rect codeLine="1" fill="#FEFECE" filter="url(#f17dwaq4k71bhw)" height="73.6094" id="Component" style="stroke:#A80036;stroke-width:1.5;" width="152" x="7" y="30.33"/><ellipse cx="43.6" cy="46.33" fill="#ADD1B2" rx="11" ry="11" style="stroke:#A80036;stroke-width:1.0;"/><path d="M46.5688,51.9706 Q45.9906,52.2675 45.35,52.4081 Q44.7094,52.5644 44.0063,52.5644 Q41.5063,52.5644 40.1781,50.9238 Q38.8656,49.2675 38.8656,46.1425 Q38.8656,43.0175 40.1781,41.3613 Q41.5063,39.705 44.0063,39.705 Q44.7094,39.705 45.35,39.8613 Q46.0063,40.0175 46.5688,40.3144 L46.5688,43.0331 Q45.9438,42.455 45.35,42.1894 Q44.7563,41.9081 44.1313,41.9081 Q42.7875,41.9081 42.1,42.9863 Q41.4125,44.0488 41.4125,46.1425 Q41.4125,48.2363 42.1,49.3144 Q42.7875,50.3769 44.1313,50.3769 Q44.7563,50.3769 45.35,50.1113 Q45.9438,49.83 46.5688,49.2519 L46.5688,51.9706 Z " fill="#000000"/><text fill="#000000" font-family="sans-serif" font-size="12" lengthAdjust="spacing" textLength="72" x="62.4" y="50.4843">Component</text><line style="stroke:#A80036;stroke-width:1.5;" x1="8" x2="158" y1="62.33" y2="62.33"/><line style="stroke:#A80036;stroke-width:1.5;" x1="8" x2="158" y1="70.33" y2="70.33"/><ellipse cx="18" cy="81.33" fill="#84BE84" rx="3" ry="3" style="stroke:#038048;stroke-width:1.0;"/><text fill="#000000" font-family="sans-serif" font-size="11" lengthAdjust="spacing" textLength="126" x="27" y="84.5404">fire(event: Event): void</text><ellipse cx="18" cy="94.1347" fill="#84BE84" rx="3" ry="3" style="stroke:#038048;stroke-width:1.0;"/><text fill="#000000" font-family="sans-serif" font-size="11" lengthAdjust="spacing" textLength="116" x="27" y="97.3451">onSomeEvent(): void</text><!--MD5=[36a2e91f7ebfa1ef56a627ca8e9a4f2d]
class SomeChannel--><rect codeLine="6" fill="#FEFECE" filter="url(#f17dwaq4k71bhw)" height="60.8047" id="SomeChannel" style="stroke:#A80036;stroke-width:1.5;" width="177" x="337.5" y="36.83"/><ellipse cx="379.05" cy="52.83" fill="#ADD1B2" rx="11" ry="11" style="stroke:#A80036;stroke-width:1.0;"/><path d="M382.0188,58.4706 Q381.4406,58.7675 380.8,58.9081 Q380.1594,59.0644 379.4563,59.0644 Q376.9563,59.0644 375.6281,57.4238 Q374.3156,55.7675 374.3156,52.6425 Q374.3156,49.5175 375.6281,47.8613 Q376.9563,46.205 379.4563,46.205 Q380.1594,46.205 380.8,46.3613 Q381.4563,46.5175 382.0188,46.8144 L382.0188,49.5331 Q381.3938,48.955 380.8,48.6894 Q380.2063,48.4081 379.5813,48.4081 Q378.2375,48.4081 377.55,49.4863 Q376.8625,50.5488 376.8625,52.6425 Q376.8625,54.7363 377.55,55.8144 Q378.2375,56.8769 379.5813,56.8769 Q380.2063,56.8769 380.8,56.6113 Q381.3938,56.33 382.0188,55.7519 L382.0188,58.4706 Z " fill="#000000"/><text fill="#000000" font-family="sans-serif" font-size="12" lengthAdjust="spacing" textLength="86" x="398.95" y="56.9843">SomeChannel</text><line style="stroke:#A80036;stroke-width:1.5;" x1="338.5" x2="513.5" y1="68.83" y2="68.83"/><line style="stroke:#A80036;stroke-width:1.5;" x1="338.5" x2="513.5" y1="76.83" y2="76.83"/><ellipse cx="348.5" cy="87.83" fill="#84BE84" rx="3" ry="3" style="stroke:#038048;stroke-width:1.0;"/><text fill="#000000" font-family="sans-serif" font-size="11" lengthAdjust="spacing" textLength="151" x="357.5" y="91.0404">forward(event: Event): void</text><!--MD5=[b4b6ae868bbaec0af03f5c97e17f7a55]
link Component to SomeChannel--><!--MD5=[b4b6ae868bbaec0af03f5c97e17f7a55]
link Component to SomeChannel--><path codeLine="12" d="M159.09,101.45 C168.9,104.69 178.95,107.46 188.75,109.33 C214.72,114.3 281.69,113.82 307.75,109.33 C320.85,107.08 334.42,103.51 347.49,99.39 " fill="none" id="Component-to-SomeChannel-1" style="stroke:#A80036;stroke-width:1.0;stroke-dasharray:7.0,7.0;"/><polygon fill="#A80036" points="352.29,97.84,342.4978,96.785,347.5297,99.3696,344.9451,104.4015,352.29,97.84" style="stroke:#A80036;stroke-width:1.0;"/><text fill="#000000" font-family="sans-serif" font-size="13" lengthAdjust="spacing" textLength="22" x="189.75" y="94.3969">&lt;&gt;</text><path d="M217.75,75.33 L217.75,100.33 L298.75,100.33 L298.75,85.33 L288.75,75.33 L217.75,75.33 " fill="#FBFB77" filter="url(#f17dwaq4k71bhw)" style="stroke:#A80036;stroke-width:1.0;"/><path d="M288.75,75.33 L288.75,85.33 L298.75,85.33 L288.75,75.33 " fill="#FBFB77" style="stroke:#A80036;stroke-width:1.0;"/><text fill="#000000" font-family="sans-serif" font-size="13" lengthAdjust="spacing" textLength="60" x="223.75" y="92.3969">fire event</text><text fill="#000000" font-family="sans-serif" font-size="13" lengthAdjust="spacing" textLength="23" x="311.7154" y="117.7803">0..*</text><!--MD5=[00c607bcd41d8e79f56d06b3497a0ccc]
reverse link Component to SomeChannel--><path codeLine="15" d="M164.43,67.33 C216.47,67.33 283.96,67.33 337.36,67.33 " fill="none" id="Component-backto-SomeChannel" style="stroke:#A80036;stroke-width:1.0;stroke-dasharray:7.0,7.0;"/><polygon fill="#A80036" points="159.12,67.33,168.12,71.33,164.12,67.33,168.12,63.33,159.12,67.33" style="stroke:#A80036;stroke-width:1.0;"/><path d="M181.25,15.33 L181.25,55.33 L287.25,55.33 L287.25,25.33 L277.25,15.33 L181.25,15.33 " fill="#FBFB77" filter="url(#f17dwaq4k71bhw)" style="stroke:#A80036;stroke-width:1.0;"/><path d="M277.25,15.33 L277.25,25.33 L287.25,25.33 L277.25,15.33 " fill="#FBFB77" style="stroke:#A80036;stroke-width:1.0;"/><text fill="#000000" font-family="sans-serif" font-size="13" lengthAdjust="spacing" textLength="81" x="187.25" y="32.3969">invoke event</text><text fill="#000000" font-family="sans-serif" font-size="13" lengthAdjust="spacing" textLength="55" x="187.25" y="47.5297">handlers</text><text fill="#000000" font-family="sans-serif" font-size="13" lengthAdjust="spacing" textLength="22" x="297.25" y="41.9633">&lt;&gt;</text><text fill="#000000" font-family="sans-serif" font-size="13" lengthAdjust="spacing" textLength="23" x="166.9237" y="80.0882">0..*</text><!--MD5=[24dcdaf0fb65a7138c3cde0fa52e07c2]
@startuml
class Component {
  + fire(event: Event): void
  + onSomeEvent(): void
 }
 
 class SomeChannel {
  + forward(event: Event): void
 }
 
 Component -[hidden]right-> SomeChannel
 
 Component ..> "0..*" SomeChannel : <>
 note right on link: fire event
 
 Component "0..*" <.. SomeChannel : <>
 note left on link
 invoke event 
 handlers
 end note
@enduml

PlantUML version 1.2022.1(Tue Feb 01 19:19:58 CET 2022)
(GPL source distribution)
Java Runtime: OpenJDK Runtime Environment
JVM: OpenJDK 64-Bit Server VM
Default Encoding: UTF-8
Language: de
Country: DE
--></g></svg>