<?xml version="1.0" encoding="us-ascii" standalone="no"?><svg xmlns="http://www.w3.org/2000/svg" xmlns:xlink="http://www.w3.org/1999/xlink" contentStyleType="text/css" height="556px" preserveAspectRatio="none" style="width:965px;height:556px;background:#FFFFFF;" version="1.1" viewBox="0 0 965 556" width="965px" zoomAndPan="magnify"><defs/><g><!--class Manager--><g id="elem_Manager"><rect codeLine="1" fill="#F1F1F1" height="178.375" id="Manager" rx="2.5" ry="2.5" style="stroke:#181818;stroke-width:0.5;" width="471" x="385.5" y="135"/><ellipse cx="585.75" cy="151" fill="#B4A7E5" rx="11" ry="11" style="stroke:#181818;stroke-width:1.0;"/><path d="M581.6719,146.7656 L581.6719,144.6094 L589.0625,144.6094 L589.0625,146.7656 L586.5938,146.7656 L586.5938,154.8438 L589.0625,154.8438 L589.0625,157 L581.6719,157 L581.6719,154.8438 L584.1406,154.8438 L584.1406,146.7656 L581.6719,146.7656 Z " fill="#000000"/><text fill="#000000" font-family="sans-serif" font-size="14" font-style="italic" lengthAdjust="spacing" textLength="62" x="606.25" y="155.8467">Manager</text><line style="stroke:#181818;stroke-width:0.5;" x1="386.5" x2="855.5" y1="167" y2="167"/><line style="stroke:#181818;stroke-width:0.5;" x1="386.5" x2="855.5" y1="175" y2="175"/><text fill="#000000" font-family="sans-serif" font-size="14" lengthAdjust="spacing" textLength="111" x="391.5" y="191.9951">T attach(T child)</text><text fill="#000000" font-family="sans-serif" font-size="14" lengthAdjust="spacing" textLength="178" x="391.5" y="208.292">ComponentType detach()</text><text fill="#000000" font-family="sans-serif" font-size="14" lengthAdjust="spacing" textLength="232" x="391.5" y="224.5889">List&lt;ComponentType&gt; children()</text><text fill="#000000" font-family="sans-serif" font-size="14" lengthAdjust="spacing" textLength="175" x="391.5" y="240.8857">ComponentType parent()</text><text fill="#000000" font-family="sans-serif" font-size="14" lengthAdjust="spacing" textLength="158" x="391.5" y="257.1826">ComponentType root()</text><text fill="#000000" font-family="sans-serif" font-size="14" lengthAdjust="spacing" textLength="126" x="391.5" y="273.4795">Channel channel()</text><text fill="#000000" font-family="sans-serif" font-size="14" lengthAdjust="spacing" textLength="364" x="391.5" y="289.7764">Event&lt;T&gt; fire(Event&lt;T&gt; event, Channel[] channels)</text><text fill="#000000" font-family="sans-serif" font-size="14" lengthAdjust="spacing" textLength="459" x="391.5" y="306.0732">void addHandler(Method method, HandlerScope scope, int priority)</text></g><!--class ComponentType--><g id="elem_ComponentType"><rect codeLine="11" fill="#F1F1F1" height="48" id="ComponentType" rx="2.5" ry="2.5" style="stroke:#181818;stroke-width:0.5;" width="150" x="475" y="7"/><ellipse cx="490" cy="23" fill="#B4A7E5" rx="11" ry="11" style="stroke:#181818;stroke-width:1.0;"/><path d="M485.9219,18.7656 L485.9219,16.6094 L493.3125,16.6094 L493.3125,18.7656 L490.8438,18.7656 L490.8438,26.8438 L493.3125,26.8438 L493.3125,29 L485.9219,29 L485.9219,26.8438 L488.3906,26.8438 L488.3906,18.7656 L485.9219,18.7656 Z " fill="#000000"/><text fill="#000000" font-family="sans-serif" font-size="14" font-style="italic" lengthAdjust="spacing" textLength="118" x="504" y="27.8467">ComponentType</text><line style="stroke:#181818;stroke-width:0.5;" x1="476" x2="624" y1="39" y2="39"/><line style="stroke:#181818;stroke-width:0.5;" x1="476" x2="624" y1="47" y2="47"/></g><!--class ComponentWithOwnBaseClass--><g id="elem_ComponentWithOwnBaseClass"><rect codeLine="12" fill="#FFDEAD" height="64.2969" id="ComponentWithOwnBaseClass" rx="2.5" ry="2.5" style="stroke:#181818;stroke-width:0.5;" width="320" x="7" y="191.85"/><ellipse cx="55.25" cy="207.85" fill="#ADD1B2" rx="11" ry="11" style="stroke:#181818;stroke-width:1.0;"/><path d="M58.2188,213.4906 Q57.6406,213.7875 57,213.9281 Q56.3594,214.0844 55.6563,214.0844 Q53.1563,214.0844 51.8281,212.4438 Q50.5156,210.7875 50.5156,207.6625 Q50.5156,204.5375 51.8281,202.8813 Q53.1563,201.225 55.6563,201.225 Q56.3594,201.225 57,201.3813 Q57.6563,201.5375 58.2188,201.8344 L58.2188,204.5531 Q57.5938,203.975 57,203.7094 Q56.4063,203.4281 55.7813,203.4281 Q54.4375,203.4281 53.75,204.5063 Q53.0625,205.5688 53.0625,207.6625 Q53.0625,209.7563 53.75,210.8344 Q54.4375,211.8969 55.7813,211.8969 Q56.4063,211.8969 57,211.6313 Q57.5938,211.35 58.2188,210.7719 L58.2188,213.4906 Z " fill="#000000"/><text fill="#000000" font-family="sans-serif" font-size="14" lengthAdjust="spacing" textLength="215" x="75.75" y="212.6967">ComponentWithOwnBaseClass</text><line style="stroke:#181818;stroke-width:0.5;" x1="8" x2="326" y1="223.85" y2="223.85"/><rect fill="none" height="6" style="stroke:#C82930;stroke-width:1.0;" width="6" x="15" y="234.4984"/><text fill="#000000" font-family="sans-serif" font-size="14" lengthAdjust="spacing" textLength="294" x="27" y="240.8451">&#171;ComponentManager&#187; manager: Manager</text><line style="stroke:#181818;stroke-width:0.5;" x1="8" x2="326" y1="248.1469" y2="248.1469"/></g><!--class SomeComponent--><g id="elem_SomeComponent"><rect codeLine="15" fill="#FFDEAD" height="48" id="SomeComponent" rx="2.5" ry="2.5" style="stroke:#181818;stroke-width:0.5;" width="154" x="700" y="501"/><ellipse cx="715" cy="517" fill="#ADD1B2" rx="11" ry="11" style="stroke:#181818;stroke-width:1.0;"/><path d="M717.9688,522.6406 Q717.3906,522.9375 716.75,523.0781 Q716.1094,523.2344 715.4063,523.2344 Q712.9063,523.2344 711.5781,521.5938 Q710.2656,519.9375 710.2656,516.8125 Q710.2656,513.6875 711.5781,512.0313 Q712.9063,510.375 715.4063,510.375 Q716.1094,510.375 716.75,510.5313 Q717.4063,510.6875 717.9688,510.9844 L717.9688,513.7031 Q717.3438,513.125 716.75,512.8594 Q716.1563,512.5781 715.5313,512.5781 Q714.1875,512.5781 713.5,513.6563 Q712.8125,514.7188 712.8125,516.8125 Q712.8125,518.9063 713.5,519.9844 Q714.1875,521.0469 715.5313,521.0469 Q716.1563,521.0469 716.75,520.7813 Q717.3438,520.5 717.9688,519.9219 L717.9688,522.6406 Z " fill="#000000"/><text fill="#000000" font-family="sans-serif" font-size="14" lengthAdjust="spacing" textLength="122" x="729" y="521.8467">SomeComponent</text><line style="stroke:#181818;stroke-width:0.5;" x1="701" x2="853" y1="533" y2="533"/><line style="stroke:#181818;stroke-width:0.5;" x1="701" x2="853" y1="541" y2="541"/></g><!--class Component--><g id="elem_Component"><rect fill="#F1F1F1" height="48" id="Component" rx="2.5" ry="2.5" style="stroke:#181818;stroke-width:0.5;" width="114" x="720" y="393"/><ellipse cx="735" cy="409" fill="#ADD1B2" rx="11" ry="11" style="stroke:#181818;stroke-width:1.0;"/><path d="M737.9688,414.6406 Q737.3906,414.9375 736.75,415.0781 Q736.1094,415.2344 735.4063,415.2344 Q732.9063,415.2344 731.5781,413.5938 Q730.2656,411.9375 730.2656,408.8125 Q730.2656,405.6875 731.5781,404.0313 Q732.9063,402.375 735.4063,402.375 Q736.1094,402.375 736.75,402.5313 Q737.4063,402.6875 737.9688,402.9844 L737.9688,405.7031 Q737.3438,405.125 736.75,404.8594 Q736.1563,404.5781 735.5313,404.5781 Q734.1875,404.5781 733.5,405.6563 Q732.8125,406.7188 732.8125,408.8125 Q732.8125,410.9063 733.5,411.9844 Q734.1875,413.0469 735.5313,413.0469 Q736.1563,413.0469 736.75,412.7813 Q737.3438,412.5 737.9688,411.9219 L737.9688,414.6406 Z " fill="#000000"/><text fill="#000000" font-family="sans-serif" font-size="14" lengthAdjust="spacing" textLength="82" x="749" y="413.8467">Component</text><line style="stroke:#181818;stroke-width:0.5;" x1="721" x2="833" y1="425" y2="425"/><line style="stroke:#181818;stroke-width:0.5;" x1="721" x2="833" y1="433" y2="433"/></g><!--link ComponentWithOwnBaseClass to Manager--><g id="link_ComponentWithOwnBaseClass_Manager"><path codeLine="17" d="M339.36,224 C358.29,224 359.91,224 379.62,224 " fill="none" id="ComponentWithOwnBaseClass-Manager" style="stroke:#181818;stroke-width:1.0;"/><polygon fill="#181818" points="327.36,224,333.36,228,339.36,224,333.36,220,327.36,224" style="stroke:#181818;stroke-width:1.0;"/><polygon fill="#181818" points="385.62,224,376.62,220,380.62,224,376.62,228,385.62,224" style="stroke:#181818;stroke-width:1.0;"/><text fill="#000000" font-family="sans-serif" font-size="13" lengthAdjust="spacing" textLength="8" x="369.7653" y="220.8168">1</text></g><!--reverse link Manager to Component--><g id="link_Manager_Component"><path codeLine="18" d="M704.2269,326.8905 C728.2169,356.2605 741.6,372.65 758,392.74 " fill="none" id="Manager-backto-Component" style="stroke:#181818;stroke-width:1.0;stroke-dasharray:7.0,7.0;"/><polygon fill="none" points="692.84,312.95,699.5801,330.6862,708.8737,323.0949,692.84,312.95" style="stroke:#181818;stroke-width:1.0;"/></g><!--reverse link ComponentType to Component--><g id="link_ComponentType_Component"><path codeLine="19" d="M643.0133,41.2165 C734.9433,51.7365 864.66,72.77 898,115 C958.04,191.04 943.15,247.27 898,333 C884.05,359.48 857.42,379.14 832.68,392.66 " fill="none" id="ComponentType-backto-Component" style="stroke:#181818;stroke-width:1.0;stroke-dasharray:7.0,7.0;"/><polygon fill="none" points="625.13,39.17,642.3311,47.1776,643.6954,35.2554,625.13,39.17" style="stroke:#181818;stroke-width:1.0;"/></g><!--reverse link Component to SomeComponent--><g id="link_Component_SomeComponent"><path codeLine="20" d="M777,459.26 C777,476.94 777,483.13 777,500.79 " fill="none" id="Component-backto-SomeComponent" style="stroke:#181818;stroke-width:1.0;"/><polygon fill="none" points="777,441.26,771,459.26,783,459.26,777,441.26" style="stroke:#181818;stroke-width:1.0;"/></g><!--reverse link ComponentType to ComponentWithOwnBaseClass--><g id="link_ComponentType_ComponentWithOwnBaseClass"><path codeLine="21" d="M466.9781,61.779 C425.9681,77.099 389.48,92.16 344,115 C298.32,137.94 248.86,168.66 213.86,191.47 " fill="none" id="ComponentType-backto-ComponentWithOwnBaseClass" style="stroke:#181818;stroke-width:1.0;stroke-dasharray:7.0,7.0;"/><polygon fill="none" points="483.84,55.48,464.8785,56.1584,469.0778,67.3997,483.84,55.48" style="stroke:#181818;stroke-width:1.0;"/></g><!--SRC=[VL5DQyCm3BtxLuZkaesaiEi8EQmCTbYtGmCzZ1r4hCuUYHriar6s_VSvTZv8QNknvFVqdeGabIDpm8fWYme_oS0F0u0Iq3ciH5929MJDRtjmevjMArAkFBO4d491O5waTVc2BgBEa4hEQ5lqX3l76Ar7NA1IL7kV42FurFd2l2pW80qbqu_w91qbxn-Zo0PHfoK7vFmP5Q_995joGdDeGaXXW7ULzlrj_wOWbOFMI6saEtgFFzOZmw8M0pEeQhHs1lVIYRTlzOYMDe6vUSKEl_HUI4TnkLa-xshOUb504xE7wH2XRNJVwOOcoSAH-RBBlU-o0bRtgz6IJTxvxtezwzZ94IwodicovJJNjQSJ_GC0]--></g></svg>