<?xml version="1.0" encoding="UTF-8" standalone="no"?><svg xmlns="http://www.w3.org/2000/svg" xmlns:xlink="http://www.w3.org/1999/xlink" contentScriptType="application/ecmascript" contentStyleType="text/css" height="495px" preserveAspectRatio="none" style="width:717px;height:495px;background:#FFFFFF;" version="1.1" viewBox="0 0 717 495" width="717px" zoomAndPan="magnify"><defs><filter height="300%" id="fooq7eku6rafo" width="300%" x="-1" y="-1"><feGaussianBlur result="blurOut" stdDeviation="2.0"/><feColorMatrix in="blurOut" result="blurOut2" type="matrix" values="0 0 0 0 0 0 0 0 0 0 0 0 0 0 0 0 0 0 .4 0"/><feOffset dx="4.0" dy="4.0" in="blurOut2" result="blurOut3"/><feBlend in="SourceGraphic" in2="blurOut3" mode="normal"/></filter></defs><g><!--MD5=[b24ed8d4ae84bae9290d9aab401637c7]
class Manager--><rect codeLine="1" fill="#FEFECE" filter="url(#fooq7eku6rafo)" height="150.4375" id="Manager" style="stroke:#A80036;stroke-width:1.5;" width="391" x="263" y="115"/><ellipse cx="426.75" cy="131" fill="#B4A7E5" rx="11" ry="11" style="stroke:#A80036;stroke-width:1.0;"/><path d="M422.6719,126.7656 L422.6719,124.6094 L430.0625,124.6094 L430.0625,126.7656 L427.5938,126.7656 L427.5938,134.8438 L430.0625,134.8438 L430.0625,137 L422.6719,137 L422.6719,134.8438 L425.1406,134.8438 L425.1406,126.7656 L422.6719,126.7656 Z " fill="#000000"/><text fill="#000000" font-family="sans-serif" font-size="12" font-style="italic" lengthAdjust="spacing" textLength="55" x="447.25" y="135.1543">Manager</text><line style="stroke:#A80036;stroke-width:1.5;" x1="264" x2="653" y1="147" y2="147"/><line style="stroke:#A80036;stroke-width:1.5;" x1="264" x2="653" y1="155" y2="155"/><text fill="#000000" font-family="sans-serif" font-size="11" lengthAdjust="spacing" textLength="91" x="269" y="169.2104">T attach(T child)</text><text fill="#000000" font-family="sans-serif" font-size="11" lengthAdjust="spacing" textLength="142" x="269" y="182.0151">ComponentType detach()</text><text fill="#000000" font-family="sans-serif" font-size="11" lengthAdjust="spacing" textLength="77" x="269" y="194.8198">List children()</text><text fill="#000000" font-family="sans-serif" font-size="11" lengthAdjust="spacing" textLength="141" x="269" y="207.6245">ComponentType parent()</text><text fill="#000000" font-family="sans-serif" font-size="11" lengthAdjust="spacing" textLength="127" x="269" y="220.4292">ComponentType root()</text><text fill="#000000" font-family="sans-serif" font-size="11" lengthAdjust="spacing" textLength="102" x="269" y="233.2339">Channel channel()</text><text fill="#000000" font-family="sans-serif" font-size="11" lengthAdjust="spacing" textLength="245" x="269" y="246.0386">Event fire(Event event, Channel[] channels)</text><text fill="#000000" font-family="sans-serif" font-size="11" lengthAdjust="spacing" textLength="379" x="269" y="258.8433">void addHandler(Method method, HandlerScope scope, int priority)</text><!--MD5=[6aab0676cf34802cefb399a4f3777211]
class ComponentType--><rect codeLine="11" fill="#FEFECE" filter="url(#fooq7eku6rafo)" height="48" id="ComponentType" style="stroke:#A80036;stroke-width:1.5;" width="134" x="345.5" y="7"/><ellipse cx="360.5" cy="23" fill="#B4A7E5" rx="11" ry="11" style="stroke:#A80036;stroke-width:1.0;"/><path d="M356.4219,18.7656 L356.4219,16.6094 L363.8125,16.6094 L363.8125,18.7656 L361.3438,18.7656 L361.3438,26.8438 L363.8125,26.8438 L363.8125,29 L356.4219,29 L356.4219,26.8438 L358.8906,26.8438 L358.8906,18.7656 L356.4219,18.7656 Z " fill="#000000"/><text fill="#000000" font-family="sans-serif" font-size="12" font-style="italic" lengthAdjust="spacing" textLength="102" x="374.5" y="27.1543">ComponentType</text><line style="stroke:#A80036;stroke-width:1.5;" x1="346.5" x2="478.5" y1="39" y2="39"/><line style="stroke:#A80036;stroke-width:1.5;" x1="346.5" x2="478.5" y1="47" y2="47"/><!--MD5=[3c2870178938703b691604ee53b17d27]
class ComponentWithOwnBaseClass--><rect codeLine="12" fill="#FFDEAD" filter="url(#fooq7eku6rafo)" height="60.8047" id="ComponentWithOwnBaseClass" style="stroke:#A80036;stroke-width:1.5;" width="221" x="7" y="159.5"/><ellipse cx="22" cy="175.5" fill="#ADD1B2" rx="11" ry="11" style="stroke:#A80036;stroke-width:1.0;"/><path d="M24.9688,181.1406 Q24.3906,181.4375 23.75,181.5781 Q23.1094,181.7344 22.4063,181.7344 Q19.9063,181.7344 18.5781,180.0938 Q17.2656,178.4375 17.2656,175.3125 Q17.2656,172.1875 18.5781,170.5313 Q19.9063,168.875 22.4063,168.875 Q23.1094,168.875 23.75,169.0313 Q24.4063,169.1875 24.9688,169.4844 L24.9688,172.2031 Q24.3438,171.625 23.75,171.3594 Q23.1563,171.0781 22.5313,171.0781 Q21.1875,171.0781 20.5,172.1563 Q19.8125,173.2188 19.8125,175.3125 Q19.8125,177.4063 20.5,178.4844 Q21.1875,179.5469 22.5313,179.5469 Q23.1563,179.5469 23.75,179.2813 Q24.3438,179 24.9688,178.4219 L24.9688,181.1406 Z " fill="#000000"/><text fill="#000000" font-family="sans-serif" font-size="12" lengthAdjust="spacing" textLength="189" x="36" y="179.6543">ComponentWithOwnBaseClass</text><line style="stroke:#A80036;stroke-width:1.5;" x1="8" x2="227" y1="191.5" y2="191.5"/><rect fill="none" height="6" style="stroke:#C82930;stroke-width:1.0;" width="6" x="15" y="199.5"/><text fill="#000000" font-family="sans-serif" font-size="11" lengthAdjust="spacing" textLength="130" x="27" y="205.7104">&lt;&gt; manager: Manager</text><line style="stroke:#A80036;stroke-width:1.5;" x1="8" x2="227" y1="212.3047" y2="212.3047"/><!--MD5=[7f8c79c77805f9e7051039117b4b9313]
class SomeComponent--><rect codeLine="15" fill="#FFDEAD" filter="url(#fooq7eku6rafo)" height="48" id="SomeComponent" style="stroke:#A80036;stroke-width:1.5;" width="139" x="513" y="433"/><ellipse cx="528" cy="449" fill="#ADD1B2" rx="11" ry="11" style="stroke:#A80036;stroke-width:1.0;"/><path d="M530.9688,454.6406 Q530.3906,454.9375 529.75,455.0781 Q529.1094,455.2344 528.4063,455.2344 Q525.9063,455.2344 524.5781,453.5938 Q523.2656,451.9375 523.2656,448.8125 Q523.2656,445.6875 524.5781,444.0313 Q525.9063,442.375 528.4063,442.375 Q529.1094,442.375 529.75,442.5313 Q530.4063,442.6875 530.9688,442.9844 L530.9688,445.7031 Q530.3438,445.125 529.75,444.8594 Q529.1563,444.5781 528.5313,444.5781 Q527.1875,444.5781 526.5,445.6563 Q525.8125,446.7188 525.8125,448.8125 Q525.8125,450.9063 526.5,451.9844 Q527.1875,453.0469 528.5313,453.0469 Q529.1563,453.0469 529.75,452.7813 Q530.3438,452.5 530.9688,451.9219 L530.9688,454.6406 Z " fill="#000000"/><text fill="#000000" font-family="sans-serif" font-size="12" lengthAdjust="spacing" textLength="107" x="542" y="453.1543">SomeComponent</text><line style="stroke:#A80036;stroke-width:1.5;" x1="514" x2="651" y1="465" y2="465"/><line style="stroke:#A80036;stroke-width:1.5;" x1="514" x2="651" y1="473" y2="473"/><!--MD5=[4e13963c9dc916a21a8436ef39422b32]
class Component--><rect fill="#FEFECE" filter="url(#fooq7eku6rafo)" height="48" id="Component" style="stroke:#A80036;stroke-width:1.5;" width="104" x="530.5" y="325"/><ellipse cx="545.5" cy="341" fill="#ADD1B2" rx="11" ry="11" style="stroke:#A80036;stroke-width:1.0;"/><path d="M548.4688,346.6406 Q547.8906,346.9375 547.25,347.0781 Q546.6094,347.2344 545.9063,347.2344 Q543.4063,347.2344 542.0781,345.5938 Q540.7656,343.9375 540.7656,340.8125 Q540.7656,337.6875 542.0781,336.0313 Q543.4063,334.375 545.9063,334.375 Q546.6094,334.375 547.25,334.5313 Q547.9063,334.6875 548.4688,334.9844 L548.4688,337.7031 Q547.8438,337.125 547.25,336.8594 Q546.6563,336.5781 546.0313,336.5781 Q544.6875,336.5781 544,337.6563 Q543.3125,338.7188 543.3125,340.8125 Q543.3125,342.9063 544,343.9844 Q544.6875,345.0469 546.0313,345.0469 Q546.6563,345.0469 547.25,344.7813 Q547.8438,344.5 548.4688,343.9219 L548.4688,346.6406 Z " fill="#000000"/><text fill="#000000" font-family="sans-serif" font-size="12" lengthAdjust="spacing" textLength="72" x="559.5" y="345.1543">Component</text><line style="stroke:#A80036;stroke-width:1.5;" x1="531.5" x2="633.5" y1="357" y2="357"/><line style="stroke:#A80036;stroke-width:1.5;" x1="531.5" x2="633.5" y1="365" y2="365"/><!--MD5=[22841b6545e64a8ba1f7c81ed7fb0617]
link ComponentWithOwnBaseClass to Manager--><path codeLine="17" d="M240.06,190 C240.06,190 246.9,190 249.68,190 " fill="none" id="ComponentWithOwnBaseClass-Manager" style="stroke:#A80036;stroke-width:1.0;"/><polygon fill="#A80036" points="262.71,190,253.71,186,257.71,190,253.71,194,262.71,190" style="stroke:#A80036;stroke-width:1.0;"/><line style="stroke:#A80036;stroke-width:1.0;" x1="257.71" x2="249.71" y1="190" y2="190"/><polygon fill="#A80036" points="228.06,190,234.06,194,240.06,190,234.06,186,228.06,190" style="stroke:#A80036;stroke-width:1.0;"/><text fill="#000000" font-family="sans-serif" font-size="13" lengthAdjust="spacing" textLength="8" x="246.9057" y="186.768">1</text><!--MD5=[cb48049fe135acf266411df6235f3113]
reverse link Manager to Component--><path codeLine="18" d="M529.79,281.26 C542.51,297.37 554.7,312.8 564.14,324.76 " fill="none" id="Manager-backto-Component" style="stroke:#A80036;stroke-width:1.0;stroke-dasharray:7.0,7.0;"/><polygon fill="none" points="524.13,285.4,517.23,265.36,535.12,276.72,524.13,285.4" style="stroke:#A80036;stroke-width:1.0;"/><!--MD5=[fcbf2857813274fb09800bdcdb35816e]
reverse link ComponentType to Component--><path codeLine="19" d="M499.85,34.79 C558.74,41.78 632.54,61.6 671.5,115 C710.79,168.86 698.08,203.86 671.5,265 C660.8,289.61 638.81,310.23 619.37,324.76 " fill="none" id="ComponentType-backto-Component" style="stroke:#A80036;stroke-width:1.0;stroke-dasharray:7.0,7.0;"/><polygon fill="none" points="498.95,41.73,479.72,32.81,500.31,27.8,498.95,41.73" style="stroke:#A80036;stroke-width:1.0;"/><!--MD5=[56a1f45bab99fe864d3bb6d3ca566a5d]
reverse link Component to SomeComponent--><path codeLine="20" d="M582.5,393.02 C582.5,406.58 582.5,421.04 582.5,432.68 " fill="none" id="Component-backto-SomeComponent" style="stroke:#A80036;stroke-width:1.0;"/><polygon fill="none" points="575.5,393,582.5,373,589.5,393,575.5,393" style="stroke:#A80036;stroke-width:1.0;"/><!--MD5=[4cea3149a496b090049c300cc3c9da33]
reverse link ComponentType to ComponentWithOwnBaseClass--><path codeLine="21" d="M345.6,64.06 C314.87,79.08 278.1,97.5 245.5,115 C219.27,129.08 190.53,145.6 166.94,159.45 " fill="none" id="ComponentType-backto-ComponentWithOwnBaseClass" style="stroke:#A80036;stroke-width:1.0;stroke-dasharray:7.0,7.0;"/><polygon fill="none" points="342.81,57.63,363.86,55.18,348.93,70.22,342.81,57.63" style="stroke:#A80036;stroke-width:1.0;"/><!--MD5=[09a9a2bbca6f75700a5f7d2ad15cbc67]
@startuml
interface Manager {
   T attach(T child)
   ComponentType detach()
   List children()
   ComponentType parent()
   ComponentType root()
   Channel channel()
   Event fire(Event event, Channel[] channels)
   void addHandler(Method method, HandlerScope scope, int priority)
 }
 interface ComponentType
 class ComponentWithOwnBaseClass #NavajoWhite {
   -<> manager: Manager 
 }
 class SomeComponent #NavajoWhite
 
 ComponentWithOwnBaseClass *-> "1" Manager
 Manager <|.. Component
 ComponentType <|.. Component
 Component <|- - SomeComponent
 ComponentType <|.. ComponentWithOwnBaseClass
@enduml

PlantUML version 1.2022.1(Tue Feb 01 18:19:58 UTC 2022)
(GPL source distribution)
Java Runtime: OpenJDK Runtime Environment
JVM: OpenJDK 64-Bit Server VM
Default Encoding: UTF-8
Language: en
Country: 
--></g></svg>