<?xml version="1.0" encoding="UTF-8" standalone="no"?><svg xmlns="http://www.w3.org/2000/svg" xmlns:xlink="http://www.w3.org/1999/xlink" contentScriptType="application/ecmascript" contentStyleType="text/css" height="252px" preserveAspectRatio="none" style="width:629px;height:252px;" version="1.1" viewBox="0 0 629 252" width="629px" zoomAndPan="magnify"><defs><filter height="300%" id="fxqyueis6jcyf" width="300%" x="-1" y="-1"><feGaussianBlur result="blurOut" stdDeviation="2.0"/><feColorMatrix in="blurOut" result="blurOut2" type="matrix" values="0 0 0 0 0 0 0 0 0 0 0 0 0 0 0 0 0 0 .4 0"/><feOffset dx="4.0" dy="4.0" in="blurOut2" result="blurOut3"/><feBlend in="SourceGraphic" in2="blurOut3" mode="normal"/></filter></defs><g><!--class Eligible--><rect fill="#FEFECE" filter="url(#fxqyueis6jcyf)" height="73.6094" id="Eligible" style="stroke: #A80036; stroke-width: 1.5;" width="223" x="395" y="8"/><ellipse cx="480.75" cy="24" fill="#B4A7E5" rx="11" ry="11" style="stroke: #A80036; stroke-width: 1.0;"/><path d="M477.1719,19.7656 L477.1719,17.6094 L484.5625,17.6094 L484.5625,19.7656 L482.0938,19.7656 L482.0938,27.8438 L484.5625,27.8438 L484.5625,30 L477.1719,30 L477.1719,27.8438 L479.6406,27.8438 L479.6406,19.7656 L477.1719,19.7656 Z "/><text fill="#000000" font-family="sans-serif" font-size="12" font-style="italic" lengthAdjust="spacingAndGlyphs" textLength="43" x="501.25" y="28.1543">Eligible</text><line style="stroke: #A80036; stroke-width: 1.5;" x1="396" x2="617" y1="40" y2="40"/><line style="stroke: #A80036; stroke-width: 1.5;" x1="396" x2="617" y1="48" y2="48"/><text fill="#000000" font-family="sans-serif" font-size="11" lengthAdjust="spacingAndGlyphs" textLength="136" x="401" y="62.2104">Object defaultCriterion()</text><text fill="#000000" font-family="sans-serif" font-size="11" lengthAdjust="spacingAndGlyphs" textLength="211" x="401" y="75.0151">boolean isEligibleFor(Object criterion)</text><!--class Event--><rect fill="#FEFECE" filter="url(#fxqyueis6jcyf)" height="73.6094" id="Event" style="stroke: #A80036; stroke-width: 1.5;" width="237" x="123" y="8"/><ellipse cx="214.25" cy="24" fill="#ADD1B2" rx="11" ry="11" style="stroke: #A80036; stroke-width: 1.0;"/><path d="M217.2188,29.6406 Q216.6406,29.9375 216,30.0859 Q215.3594,30.2344 214.6563,30.2344 Q212.1563,30.2344 210.8359,28.5859 Q209.5156,26.9375 209.5156,23.8125 Q209.5156,20.6875 210.8359,19.0313 Q212.1563,17.375 214.6563,17.375 Q215.3594,17.375 216.0078,17.5313 Q216.6563,17.6875 217.2188,17.9844 L217.2188,20.7031 Q216.5938,20.125 216,19.8516 Q215.4063,19.5781 214.7813,19.5781 Q213.4375,19.5781 212.75,20.6484 Q212.0625,21.7188 212.0625,23.8125 Q212.0625,25.9063 212.75,26.9766 Q213.4375,28.0469 214.7813,28.0469 Q215.4063,28.0469 216,27.7734 Q216.5938,27.5 217.2188,26.9219 L217.2188,29.6406 Z "/><text fill="#000000" font-family="sans-serif" font-size="12" lengthAdjust="spacingAndGlyphs" textLength="35" x="234.75" y="28.1543">Event</text><rect fill="#FFFFFF" height="15.9688" style="stroke: #000000; stroke-width: 1.0; stroke-dasharray: 2.0,2.0;" width="9" x="354" y="5"/><text fill="#000000" font-family="sans-serif" font-size="12" font-style="italic" lengthAdjust="spacingAndGlyphs" textLength="7" x="355" y="17.1387">T</text><line style="stroke: #A80036; stroke-width: 1.5;" x1="124" x2="359" y1="40" y2="40"/><line style="stroke: #A80036; stroke-width: 1.5;" x1="124" x2="359" y1="48" y2="48"/><ellipse cx="134" cy="59.9023" fill="#84BE84" rx="3" ry="3" style="stroke: #038048; stroke-width: 1.0;"/><text fill="#000000" font-family="sans-serif" font-size="11" lengthAdjust="spacingAndGlyphs" textLength="136" x="143" y="62.2104">Object defaultCriterion()</text><ellipse cx="134" cy="72.707" fill="#84BE84" rx="3" ry="3" style="stroke: #038048; stroke-width: 1.0;"/><text fill="#000000" font-family="sans-serif" font-size="11" lengthAdjust="spacingAndGlyphs" textLength="211" x="143" y="75.0151">boolean isEligibleFor(Object criterion)</text><!--class NamedEvent--><rect fill="#FEFECE" filter="url(#fxqyueis6jcyf)" height="99.2188" id="NamedEvent" style="stroke: #A80036; stroke-width: 1.5;" width="237" x="6" y="142"/><ellipse cx="81.25" cy="158" fill="#ADD1B2" rx="11" ry="11" style="stroke: #A80036; stroke-width: 1.0;"/><path d="M84.2188,163.6406 Q83.6406,163.9375 83,164.0859 Q82.3594,164.2344 81.6563,164.2344 Q79.1563,164.2344 77.8359,162.5859 Q76.5156,160.9375 76.5156,157.8125 Q76.5156,154.6875 77.8359,153.0313 Q79.1563,151.375 81.6563,151.375 Q82.3594,151.375 83.0078,151.5313 Q83.6563,151.6875 84.2188,151.9844 L84.2188,154.7031 Q83.5938,154.125 83,153.8516 Q82.4063,153.5781 81.7813,153.5781 Q80.4375,153.5781 79.75,154.6484 Q79.0625,155.7188 79.0625,157.8125 Q79.0625,159.9063 79.75,160.9766 Q80.4375,162.0469 81.7813,162.0469 Q82.4063,162.0469 83,161.7734 Q83.5938,161.5 84.2188,160.9219 L84.2188,163.6406 Z "/><text fill="#000000" font-family="sans-serif" font-size="12" lengthAdjust="spacingAndGlyphs" textLength="78" x="101.75" y="162.1543">NamedEvent</text><line style="stroke: #A80036; stroke-width: 1.5;" x1="7" x2="242" y1="174" y2="174"/><rect fill="none" height="6" style="stroke: #C82930; stroke-width: 1.0;" width="6" x="14" y="182.9023"/><text fill="#000000" font-family="sans-serif" font-size="11" lengthAdjust="spacingAndGlyphs" textLength="69" x="26" y="188.2104">String name</text><line style="stroke: #A80036; stroke-width: 1.5;" x1="7" x2="242" y1="194.8047" y2="194.8047"/><ellipse cx="17" cy="206.707" fill="#84BE84" rx="3" ry="3" style="stroke: #038048; stroke-width: 1.0;"/><text fill="#000000" font-family="sans-serif" font-size="11" lengthAdjust="spacingAndGlyphs" textLength="149" x="26" y="209.0151">NamedEvent(String name)</text><ellipse cx="17" cy="219.5117" fill="#84BE84" rx="3" ry="3" style="stroke: #038048; stroke-width: 1.0;"/><text fill="#000000" font-family="sans-serif" font-size="11" lengthAdjust="spacingAndGlyphs" textLength="136" x="26" y="221.8198">Object defaultCriterion()</text><ellipse cx="17" cy="232.3164" fill="#84BE84" rx="3" ry="3" style="stroke: #038048; stroke-width: 1.0;"/><text fill="#000000" font-family="sans-serif" font-size="11" lengthAdjust="spacingAndGlyphs" textLength="211" x="26" y="234.6245">boolean isEligibleFor(Object criterion)</text><!--class UserEventType--><rect fill="#FFDEAD" filter="url(#fxqyueis6jcyf)" height="60.8047" id="UserEventType" style="stroke: #A80036; stroke-width: 1.5;" width="162" x="278.5" y="161"/><rect fill="#FFDEAD" height="32" style="stroke: #A80036; stroke-width: 1.5;" width="162" x="278.5" y="161"/><ellipse cx="311.05" cy="177" fill="#ADD1B2" rx="11" ry="11" style="stroke: #A80036; stroke-width: 1.0;"/><path d="M314.0188,182.6406 Q313.4406,182.9375 312.8,183.0859 Q312.1594,183.2344 311.4563,183.2344 Q308.9563,183.2344 307.6359,181.5859 Q306.3156,179.9375 306.3156,176.8125 Q306.3156,173.6875 307.6359,172.0313 Q308.9563,170.375 311.4563,170.375 Q312.1594,170.375 312.8078,170.5313 Q313.4563,170.6875 314.0188,170.9844 L314.0188,173.7031 Q313.3938,173.125 312.8,172.8516 Q312.2063,172.5781 311.5813,172.5781 Q310.2375,172.5781 309.55,173.6484 Q308.8625,174.7188 308.8625,176.8125 Q308.8625,178.9063 309.55,179.9766 Q310.2375,181.0469 311.5813,181.0469 Q312.2063,181.0469 312.8,180.7734 Q313.3938,180.5 314.0188,179.9219 L314.0188,182.6406 Z "/><text fill="#000000" font-family="sans-serif" font-size="12" lengthAdjust="spacingAndGlyphs" textLength="91" x="328.95" y="181.1543">UserEventType</text><line style="stroke: #A80036; stroke-width: 1.5;" x1="279.5" x2="439.5" y1="193" y2="193"/><line style="stroke: #A80036; stroke-width: 1.5;" x1="279.5" x2="439.5" y1="201" y2="201"/><ellipse cx="289.5" cy="212.9023" fill="#84BE84" rx="3" ry="3" style="stroke: #038048; stroke-width: 1.0;"/><text fill="#000000" font-family="sans-serif" font-size="11" lengthAdjust="spacingAndGlyphs" textLength="136" x="298.5" y="215.2104">Object defaultCriterion()</text><!--link Event to Eligible--><path d="M360.0254,45 C364.9335,45 369.8416,45 374.7497,45 " fill="none" id="Event-Eligible" style="stroke: #A80036; stroke-width: 1.0; stroke-dasharray: 7.0,7.0;"/><polygon fill="none" points="374.9276,37.9999,394.9275,45,374.9275,51.9999,374.9276,37.9999" style="stroke: #A80036; stroke-width: 1.0;"/><!--link Event to NamedEvent--><path d="M198.8854,98.3592 C187.5598,112.5405 175.3747,127.7979 164.211,141.7764 " fill="none" id="Event-NamedEvent" style="stroke: #A80036; stroke-width: 1.0;"/><polygon fill="none" points="193.7226,93.6067,211.6732,82.3472,204.662,102.3433,193.7226,93.6067" style="stroke: #A80036; stroke-width: 1.0;"/><!--link Event to UserEventType--><path d="M284.3232,98.1661 C301.2323,119.1592 320.0626,142.5375 334.6476,160.6451 " fill="none" id="Event-UserEventType" style="stroke: #A80036; stroke-width: 1.0;"/><polygon fill="none" points="278.6759,102.314,271.5817,82.3472,289.579,93.532,278.6759,102.314" style="stroke: #A80036; stroke-width: 1.0;"/><!--
@startuml
interface Eligible {
 	Object defaultCriterion()
 	boolean isEligibleFor(Object criterion)
 }
 
 class Event<T> {
 	+Object defaultCriterion()
 	+boolean isEligibleFor(Object criterion)
 }
 
 Event .right.|> Eligible
 
 class NamedEvent {
 	-String name
 	+NamedEvent(String name)
 	+Object defaultCriterion()
 	+boolean isEligibleFor(Object criterion)
 }
 Event <|- - NamedEvent
 
 class UserEventType #NavajoWhite {
 	+Object defaultCriterion()
 }
 Event <|- - UserEventType
@enduml

PlantUML version 1.2017.18(Fri Oct 06 18:56:32 CEST 2017)
(GPL source distribution)
Java Runtime: OpenJDK Runtime Environment
JVM: OpenJDK 64-Bit Server VM
Java Version: 1.8.0_151-b12
Operating System: Linux
OS Version: 4.13.16-302.fc27.x86_64
Default Encoding: UTF-8
Language: de
Country: DE
--></g></svg>