<?xml version="1.0" encoding="UTF-8" standalone="no"?><svg xmlns="http://www.w3.org/2000/svg" xmlns:xlink="http://www.w3.org/1999/xlink" contentScriptType="application/ecmascript" contentStyleType="text/css" height="254px" preserveAspectRatio="none" style="width:631px;height:254px;background:#FFFFFF;" version="1.1" viewBox="0 0 631 254" width="631px" zoomAndPan="magnify"><defs><filter height="300%" id="f11paiee7xh8qr" width="300%" x="-1" y="-1"><feGaussianBlur result="blurOut" stdDeviation="2.0"/><feColorMatrix in="blurOut" result="blurOut2" type="matrix" values="0 0 0 0 0 0 0 0 0 0 0 0 0 0 0 0 0 0 .4 0"/><feOffset dx="4.0" dy="4.0" in="blurOut2" result="blurOut3"/><feBlend in="SourceGraphic" in2="blurOut3" mode="normal"/></filter></defs><g><!--MD5=[6d32c84611c1939dadff1d2d4b11af2e]
class Eligible--><rect codeLine="1" fill="#FEFECE" filter="url(#f11paiee7xh8qr)" height="73.6094" id="Eligible" style="stroke:#A80036;stroke-width:1.5;" width="222" x="395" y="7"/><ellipse cx="480.25" cy="23" fill="#B4A7E5" rx="11" ry="11" style="stroke:#A80036;stroke-width:1.0;"/><path d="M476.1719,18.7656 L476.1719,16.6094 L483.5625,16.6094 L483.5625,18.7656 L481.0938,18.7656 L481.0938,26.8438 L483.5625,26.8438 L483.5625,29 L476.1719,29 L476.1719,26.8438 L478.6406,26.8438 L478.6406,18.7656 L476.1719,18.7656 Z " fill="#000000"/><text fill="#000000" font-family="sans-serif" font-size="12" font-style="italic" lengthAdjust="spacing" textLength="43" x="500.75" y="27.1543">Eligible</text><line style="stroke:#A80036;stroke-width:1.5;" x1="396" x2="616" y1="39" y2="39"/><line style="stroke:#A80036;stroke-width:1.5;" x1="396" x2="616" y1="47" y2="47"/><text fill="#000000" font-family="sans-serif" font-size="11" lengthAdjust="spacing" textLength="135" x="401" y="61.2104">Object defaultCriterion()</text><text fill="#000000" font-family="sans-serif" font-size="11" lengthAdjust="spacing" textLength="210" x="401" y="74.0151">boolean isEligibleFor(Object criterion)</text><!--MD5=[ac13618b1a974308c1f12eb6c57723dc]
class Event--><rect codeLine="6" fill="#FEFECE" filter="url(#f11paiee7xh8qr)" height="73.6094" id="Event" style="stroke:#A80036;stroke-width:1.5;" width="236" x="124" y="7"/><ellipse cx="220.25" cy="23" fill="#ADD1B2" rx="11" ry="11" style="stroke:#A80036;stroke-width:1.0;"/><path d="M223.2188,28.6406 Q222.6406,28.9375 222,29.0781 Q221.3594,29.2344 220.6563,29.2344 Q218.1563,29.2344 216.8281,27.5938 Q215.5156,25.9375 215.5156,22.8125 Q215.5156,19.6875 216.8281,18.0313 Q218.1563,16.375 220.6563,16.375 Q221.3594,16.375 222,16.5313 Q222.6563,16.6875 223.2188,16.9844 L223.2188,19.7031 Q222.5938,19.125 222,18.8594 Q221.4063,18.5781 220.7813,18.5781 Q219.4375,18.5781 218.75,19.6563 Q218.0625,20.7188 218.0625,22.8125 Q218.0625,24.9063 218.75,25.9844 Q219.4375,27.0469 220.7813,27.0469 Q221.4063,27.0469 222,26.7813 Q222.5938,26.5 223.2188,25.9219 L223.2188,28.6406 Z " fill="#000000"/><text fill="#000000" font-family="sans-serif" font-size="12" lengthAdjust="spacing" textLength="35" x="240.75" y="27.1543">Event</text><line style="stroke:#A80036;stroke-width:1.5;" x1="125" x2="359" y1="39" y2="39"/><line style="stroke:#A80036;stroke-width:1.5;" x1="125" x2="359" y1="47" y2="47"/><ellipse cx="135" cy="58" fill="#84BE84" rx="3" ry="3" style="stroke:#038048;stroke-width:1.0;"/><text fill="#000000" font-family="sans-serif" font-size="11" lengthAdjust="spacing" textLength="135" x="144" y="61.2104">Object defaultCriterion()</text><ellipse cx="135" cy="70.8047" fill="#84BE84" rx="3" ry="3" style="stroke:#038048;stroke-width:1.0;"/><text fill="#000000" font-family="sans-serif" font-size="11" lengthAdjust="spacing" textLength="210" x="144" y="74.0151">boolean isEligibleFor(Object criterion)</text><!--MD5=[18edc12e3b80591085d622512996a365]
class NamedEvent--><rect codeLine="13" fill="#FEFECE" filter="url(#f11paiee7xh8qr)" height="99.2188" id="NamedEvent" style="stroke:#A80036;stroke-width:1.5;" width="236" x="7" y="141"/><ellipse cx="81.25" cy="157" fill="#ADD1B2" rx="11" ry="11" style="stroke:#A80036;stroke-width:1.0;"/><path d="M84.2188,162.6406 Q83.6406,162.9375 83,163.0781 Q82.3594,163.2344 81.6563,163.2344 Q79.1563,163.2344 77.8281,161.5938 Q76.5156,159.9375 76.5156,156.8125 Q76.5156,153.6875 77.8281,152.0313 Q79.1563,150.375 81.6563,150.375 Q82.3594,150.375 83,150.5313 Q83.6563,150.6875 84.2188,150.9844 L84.2188,153.7031 Q83.5938,153.125 83,152.8594 Q82.4063,152.5781 81.7813,152.5781 Q80.4375,152.5781 79.75,153.6563 Q79.0625,154.7188 79.0625,156.8125 Q79.0625,158.9063 79.75,159.9844 Q80.4375,161.0469 81.7813,161.0469 Q82.4063,161.0469 83,160.7813 Q83.5938,160.5 84.2188,159.9219 L84.2188,162.6406 Z " fill="#000000"/><text fill="#000000" font-family="sans-serif" font-size="12" lengthAdjust="spacing" textLength="79" x="101.75" y="161.1543">NamedEvent</text><line style="stroke:#A80036;stroke-width:1.5;" x1="8" x2="242" y1="173" y2="173"/><rect fill="none" height="6" style="stroke:#C82930;stroke-width:1.0;" width="6" x="15" y="181"/><text fill="#000000" font-family="sans-serif" font-size="11" lengthAdjust="spacing" textLength="69" x="27" y="187.2104">String name</text><line style="stroke:#A80036;stroke-width:1.5;" x1="8" x2="242" y1="193.8047" y2="193.8047"/><ellipse cx="18" cy="204.8047" fill="#84BE84" rx="3" ry="3" style="stroke:#038048;stroke-width:1.0;"/><text fill="#000000" font-family="sans-serif" font-size="11" lengthAdjust="spacing" textLength="148" x="27" y="208.0151">NamedEvent(String name)</text><ellipse cx="18" cy="217.6094" fill="#84BE84" rx="3" ry="3" style="stroke:#038048;stroke-width:1.0;"/><text fill="#000000" font-family="sans-serif" font-size="11" lengthAdjust="spacing" textLength="135" x="27" y="220.8198">Object defaultCriterion()</text><ellipse cx="18" cy="230.4141" fill="#84BE84" rx="3" ry="3" style="stroke:#038048;stroke-width:1.0;"/><text fill="#000000" font-family="sans-serif" font-size="11" lengthAdjust="spacing" textLength="210" x="27" y="233.6245">boolean isEligibleFor(Object criterion)</text><!--MD5=[72d804b0bfbbb8acb6a079fcff14a0ee]
class UserEventType--><rect codeLine="21" fill="#FFDEAD" filter="url(#f11paiee7xh8qr)" height="60.8047" id="UserEventType" style="stroke:#A80036;stroke-width:1.5;" width="161" x="278.5" y="160"/><ellipse cx="309.7" cy="176" fill="#ADD1B2" rx="11" ry="11" style="stroke:#A80036;stroke-width:1.0;"/><path d="M312.6688,181.6406 Q312.0906,181.9375 311.45,182.0781 Q310.8094,182.2344 310.1063,182.2344 Q307.6063,182.2344 306.2781,180.5938 Q304.9656,178.9375 304.9656,175.8125 Q304.9656,172.6875 306.2781,171.0313 Q307.6063,169.375 310.1063,169.375 Q310.8094,169.375 311.45,169.5313 Q312.1063,169.6875 312.6688,169.9844 L312.6688,172.7031 Q312.0438,172.125 311.45,171.8594 Q310.8563,171.5781 310.2313,171.5781 Q308.8875,171.5781 308.2,172.6563 Q307.5125,173.7188 307.5125,175.8125 Q307.5125,177.9063 308.2,178.9844 Q308.8875,180.0469 310.2313,180.0469 Q310.8563,180.0469 311.45,179.7813 Q312.0438,179.5 312.6688,178.9219 L312.6688,181.6406 Z " fill="#000000"/><text fill="#000000" font-family="sans-serif" font-size="12" lengthAdjust="spacing" textLength="93" x="327.3" y="180.1543">UserEventType</text><line style="stroke:#A80036;stroke-width:1.5;" x1="279.5" x2="438.5" y1="192" y2="192"/><line style="stroke:#A80036;stroke-width:1.5;" x1="279.5" x2="438.5" y1="200" y2="200"/><ellipse cx="289.5" cy="211" fill="#84BE84" rx="3" ry="3" style="stroke:#038048;stroke-width:1.0;"/><text fill="#000000" font-family="sans-serif" font-size="11" lengthAdjust="spacing" textLength="135" x="298.5" y="214.2104">Object defaultCriterion()</text><!--MD5=[23dbec55b219d683677de26a340874a5]
link Event to Eligible--><path codeLine="11" d="M360.08,44 C364.97,44 369.86,44 374.75,44 " fill="none" id="Event-to-Eligible" style="stroke:#A80036;stroke-width:1.0;stroke-dasharray:7.0,7.0;"/><polygon fill="none" points="374.85,37,394.85,44,374.85,51,374.85,37" style="stroke:#A80036;stroke-width:1.0;"/><!--MD5=[e1d64dbacbf0b9b254e7af4d5f77d4d2]
reverse link Event to NamedEvent--><path codeLine="19" d="M200.16,96.68 C188.52,111.05 175.93,126.6 164.43,140.8 " fill="none" id="Event-backto-NamedEvent" style="stroke:#A80036;stroke-width:1.0;"/><polygon fill="none" points="194.75,92.23,212.78,81.09,205.63,101.04,194.75,92.23" style="stroke:#A80036;stroke-width:1.0;"/><!--MD5=[2a4d5d9f0089c8d14bc25ab3d9f5abc1]
reverse link Event to UserEventType--><path codeLine="24" d="M283.81,96.63 C300.94,117.79 320.16,141.53 334.87,159.7 " fill="none" id="Event-backto-UserEventType" style="stroke:#A80036;stroke-width:1.0;"/><polygon fill="none" points="278.37,101.04,271.22,81.09,289.25,92.23,278.37,101.04" style="stroke:#A80036;stroke-width:1.0;"/><!--MD5=[2b3e6b80eda80ed6e46e2a22826104f4]
@startuml
interface Eligible {
 	Object defaultCriterion()
 	boolean isEligibleFor(Object criterion)
 }
 
 class Event {
 	+Object defaultCriterion()
 	+boolean isEligibleFor(Object criterion)
 }
 
 Event .right.|> Eligible
 
 class NamedEvent {
 	-String name
 	+NamedEvent(String name)
 	+Object defaultCriterion()
 	+boolean isEligibleFor(Object criterion)
 }
 Event <|- - NamedEvent
 
 class UserEventType #NavajoWhite {
 	+Object defaultCriterion()
 }
 Event <|- - UserEventType
@enduml

PlantUML version 1.2022.1(Tue Feb 01 19:19:58 CET 2022)
(GPL source distribution)
Java Runtime: OpenJDK Runtime Environment
JVM: OpenJDK 64-Bit Server VM
Default Encoding: UTF-8
Language: de
Country: DE
--></g></svg>