<?xml version="1.0" encoding="UTF-8" standalone="no"?><svg xmlns="http://www.w3.org/2000/svg" xmlns:xlink="http://www.w3.org/1999/xlink" contentScriptType="application/ecmascript" contentStyleType="text/css" height="252px" preserveAspectRatio="none" style="width:610px;height:252px;" version="1.1" viewBox="0 0 610 252" width="610px" zoomAndPan="magnify"><defs><filter height="300%" id="fxqyueis6jcyf" width="300%" x="-1" y="-1"><feGaussianBlur result="blurOut" stdDeviation="2.0"/><feColorMatrix in="blurOut" result="blurOut2" type="matrix" values="0 0 0 0 0 0 0 0 0 0 0 0 0 0 0 0 0 0 .4 0"/><feOffset dx="4.0" dy="4.0" in="blurOut2" result="blurOut3"/><feBlend in="SourceGraphic" in2="blurOut3" mode="normal"/></filter></defs><g><!--class Eligible--><rect fill="#FEFECE" filter="url(#fxqyueis6jcyf)" height="73.5986" id="Eligible" style="stroke: #A80036; stroke-width: 1.5;" width="215" x="384" y="8"/><ellipse cx="466.75" cy="24" fill="#B4A7E5" rx="11" ry="11" style="stroke: #A80036; stroke-width: 1.0;"/><path d="M465.3281,30 L465.3281,17.7188 L468.0781,17.7188 L468.0781,30 L465.3281,30 Z "/><text fill="#000000" font-family="sans-serif" font-size="12" font-style="italic" lengthAdjust="spacingAndGlyphs" textLength="41" x="487.25" y="28.4209">Eligible</text><line style="stroke: #A80036; stroke-width: 1.5;" x1="385" x2="598" y1="40" y2="40"/><line style="stroke: #A80036; stroke-width: 1.5;" x1="385" x2="598" y1="48" y2="48"/><text fill="#000000" font-family="sans-serif" font-size="11" lengthAdjust="spacingAndGlyphs" textLength="131" x="390" y="62.4521">Object defaultCriterion()</text><text fill="#000000" font-family="sans-serif" font-size="11" lengthAdjust="spacingAndGlyphs" textLength="203" x="390" y="75.2515">boolean isEligibleFor(Object criterion)</text><!--class Event--><rect fill="#FEFECE" filter="url(#fxqyueis6jcyf)" height="73.5986" id="Event" style="stroke: #A80036; stroke-width: 1.5;" width="229" x="120" y="8"/><ellipse cx="208.75" cy="24" fill="#ADD1B2" rx="11" ry="11" style="stroke: #A80036; stroke-width: 1.0;"/><path d="M208.8438,30.3125 Q205.9844,30.3125 204.4219,28.625 Q202.8594,26.9375 202.8594,23.8594 Q202.8594,20.7969 204.4531,19.1016 Q206.0469,17.4063 208.9375,17.4063 Q211.5781,17.4063 213.7188,17.9531 L213.7188,19.8906 Q210.2813,18.7031 208.9063,18.7031 Q207.9063,18.7031 206.8125,20.0625 Q205.7188,21.4219 205.7188,23.875 Q205.7188,26.2344 206.8906,27.5938 Q208.0625,28.9531 209.0781,28.9531 Q210.8281,28.9531 213.7031,27.4531 L213.7031,29.375 Q212,30.3125 208.8438,30.3125 Z "/><text fill="#000000" font-family="sans-serif" font-size="12" lengthAdjust="spacingAndGlyphs" textLength="31" x="229.25" y="28.4209">Event</text><rect fill="#FFFFFF" height="15.9629" style="stroke: #000000; stroke-width: 1.0; stroke-dasharray: 2.0,2.0;" width="10" x="342" y="5"/><text fill="#000000" font-family="sans-serif" font-size="12" font-style="italic" lengthAdjust="spacingAndGlyphs" textLength="8" x="343" y="17.4023">T</text><line style="stroke: #A80036; stroke-width: 1.5;" x1="121" x2="348" y1="40" y2="40"/><line style="stroke: #A80036; stroke-width: 1.5;" x1="121" x2="348" y1="48" y2="48"/><ellipse cx="131" cy="59.8997" fill="#84BE84" rx="3" ry="3" style="stroke: #038048; stroke-width: 1.0;"/><text fill="#000000" font-family="sans-serif" font-size="11" lengthAdjust="spacingAndGlyphs" textLength="131" x="140" y="62.4521">Object defaultCriterion()</text><ellipse cx="131" cy="72.699" fill="#84BE84" rx="3" ry="3" style="stroke: #038048; stroke-width: 1.0;"/><text fill="#000000" font-family="sans-serif" font-size="11" lengthAdjust="spacingAndGlyphs" textLength="203" x="140" y="75.2515">boolean isEligibleFor(Object criterion)</text><!--class NamedEvent--><rect fill="#FEFECE" filter="url(#fxqyueis6jcyf)" height="99.1973" id="NamedEvent" style="stroke: #A80036; stroke-width: 1.5;" width="229" x="6" y="142.5"/><ellipse cx="79.75" cy="158.5" fill="#ADD1B2" rx="11" ry="11" style="stroke: #A80036; stroke-width: 1.0;"/><path d="M79.8438,164.8125 Q76.9844,164.8125 75.4219,163.125 Q73.8594,161.4375 73.8594,158.3594 Q73.8594,155.2969 75.4531,153.6016 Q77.0469,151.9063 79.9375,151.9063 Q82.5781,151.9063 84.7188,152.4531 L84.7188,154.3906 Q81.2813,153.2031 79.9063,153.2031 Q78.9063,153.2031 77.8125,154.5625 Q76.7188,155.9219 76.7188,158.375 Q76.7188,160.7344 77.8906,162.0938 Q79.0625,163.4531 80.0781,163.4531 Q81.8281,163.4531 84.7031,161.9531 L84.7031,163.875 Q83,164.8125 79.8438,164.8125 Z "/><text fill="#000000" font-family="sans-serif" font-size="12" lengthAdjust="spacingAndGlyphs" textLength="73" x="100.25" y="162.9209">NamedEvent</text><line style="stroke: #A80036; stroke-width: 1.5;" x1="7" x2="234" y1="174.5" y2="174.5"/><rect fill="none" height="6" style="stroke: #C82930; stroke-width: 1.0;" width="6" x="14" y="183.3997"/><text fill="#000000" font-family="sans-serif" font-size="11" lengthAdjust="spacingAndGlyphs" textLength="64" x="26" y="188.9521">String name</text><line style="stroke: #A80036; stroke-width: 1.5;" x1="7" x2="234" y1="195.2993" y2="195.2993"/><ellipse cx="17" cy="207.199" fill="#84BE84" rx="3" ry="3" style="stroke: #038048; stroke-width: 1.0;"/><text fill="#000000" font-family="sans-serif" font-size="11" lengthAdjust="spacingAndGlyphs" textLength="138" x="26" y="209.7515">NamedEvent(String name)</text><ellipse cx="17" cy="219.9983" fill="#84BE84" rx="3" ry="3" style="stroke: #038048; stroke-width: 1.0;"/><text fill="#000000" font-family="sans-serif" font-size="11" lengthAdjust="spacingAndGlyphs" textLength="131" x="26" y="222.5508">Object defaultCriterion()</text><ellipse cx="17" cy="232.7976" fill="#84BE84" rx="3" ry="3" style="stroke: #038048; stroke-width: 1.0;"/><text fill="#000000" font-family="sans-serif" font-size="11" lengthAdjust="spacingAndGlyphs" textLength="203" x="26" y="235.3501">boolean isEligibleFor(Object criterion)</text><!--class UserEventType--><rect fill="#FFDEAD" filter="url(#fxqyueis6jcyf)" height="60.7993" id="UserEventType" style="stroke: #A80036; stroke-width: 1.5;" width="157" x="270" y="161.5"/><rect fill="#FFDEAD" height="32" style="stroke: #A80036; stroke-width: 1.5;" width="157" x="270" y="161.5"/><ellipse cx="302.55" cy="177.5" fill="#ADD1B2" rx="11" ry="11" style="stroke: #A80036; stroke-width: 1.0;"/><path d="M302.6438,183.8125 Q299.7844,183.8125 298.2219,182.125 Q296.6594,180.4375 296.6594,177.3594 Q296.6594,174.2969 298.2531,172.6016 Q299.8469,170.9063 302.7375,170.9063 Q305.3781,170.9063 307.5188,171.4531 L307.5188,173.3906 Q304.0813,172.2031 302.7063,172.2031 Q301.7063,172.2031 300.6125,173.5625 Q299.5188,174.9219 299.5188,177.375 Q299.5188,179.7344 300.6906,181.0938 Q301.8625,182.4531 302.8781,182.4531 Q304.6281,182.4531 307.5031,180.9531 L307.5031,182.875 Q305.8,183.8125 302.6438,183.8125 Z "/><text fill="#000000" font-family="sans-serif" font-size="12" lengthAdjust="spacingAndGlyphs" textLength="86" x="320.45" y="181.9209">UserEventType</text><line style="stroke: #A80036; stroke-width: 1.5;" x1="271" x2="426" y1="193.5" y2="193.5"/><line style="stroke: #A80036; stroke-width: 1.5;" x1="271" x2="426" y1="201.5" y2="201.5"/><ellipse cx="281" cy="213.3997" fill="#84BE84" rx="3" ry="3" style="stroke: #038048; stroke-width: 1.0;"/><text fill="#000000" font-family="sans-serif" font-size="11" lengthAdjust="spacingAndGlyphs" textLength="131" x="290" y="215.9521">Object defaultCriterion()</text><!--link Event to Eligible--><path d="M348.695,45 C353.72,45 358.745,45 363.77,45 " fill="none" id="Event-Eligible" style="stroke: #A80036; stroke-width: 1.0; stroke-dasharray: 7.0,7.0;"/><polygon fill="none" points="363.777,38,383.777,45,363.777,52,363.777,38" style="stroke: #A80036; stroke-width: 1.0;"/><!--link Event to NamedEvent--><path d="M193.053,98.399 C181.762,112.761 169.573,128.265 158.457,142.4028 " fill="none" id="Event-NamedEvent" style="stroke: #A80036; stroke-width: 1.0;"/><polygon fill="none" points="187.913,93.612,205.777,82.216,198.919,102.265,187.913,93.612" style="stroke: #A80036; stroke-width: 1.0;"/><!--link Event to UserEventType--><path d="M275.231,98.125 C291.862,119.278 310.472,142.9494 324.743,161.1002 " fill="none" id="Event-UserEventType" style="stroke: #A80036; stroke-width: 1.0;"/><polygon fill="none" points="269.581,102.265,262.723,82.216,280.587,93.612,269.581,102.265" style="stroke: #A80036; stroke-width: 1.0;"/><!--
@startuml
interface Eligible {
 	Object defaultCriterion()
 	boolean isEligibleFor(Object criterion)
 }
 
 class Event<T> {
 	+Object defaultCriterion()
 	+boolean isEligibleFor(Object criterion)
 }
 
 Event .right.|> Eligible
 
 class NamedEvent {
 	-String name
 	+NamedEvent(String name)
 	+Object defaultCriterion()
 	+boolean isEligibleFor(Object criterion)
 }
 Event <|- - NamedEvent
 
 class UserEventType #NavajoWhite {
 	+Object defaultCriterion()
 }
 Event <|- - UserEventType
@enduml

PlantUML version 1.2017.18(Fri Oct 06 16:56:32 UTC 2017)
(GPL source distribution)
Java Runtime: Java(TM) SE Runtime Environment
JVM: Java HotSpot(TM) 64-Bit Server VM
Java Version: 9.0.1+11
Operating System: Linux
OS Version: 4.14.12-041412-generic
Default Encoding: UTF-8
Language: en
Country: US
--></g></svg>