<?xml version="1.0" encoding="us-ascii" standalone="no"?><svg xmlns="http://www.w3.org/2000/svg" xmlns:xlink="http://www.w3.org/1999/xlink" contentStyleType="text/css" height="270px" preserveAspectRatio="none" style="width:734px;height:270px;background:#FFFFFF;" version="1.1" viewBox="0 0 734 270" width="734px" zoomAndPan="magnify"><defs/><g><!--class Eligible--><g id="elem_Eligible"><rect codeLine="1" fill="#F1F1F1" height="80.5938" id="Eligible" rx="2.5" ry="2.5" style="stroke:#181818;stroke-width:0.5;" width="268" x="459" y="10"/><ellipse cx="562.75" cy="26" fill="#B4A7E5" rx="11" ry="11" style="stroke:#181818;stroke-width:1.0;"/><path d="M558.6719,21.7656 L558.6719,19.6094 L566.0625,19.6094 L566.0625,21.7656 L563.5938,21.7656 L563.5938,29.8438 L566.0625,29.8438 L566.0625,32 L558.6719,32 L558.6719,29.8438 L561.1406,29.8438 L561.1406,21.7656 L558.6719,21.7656 Z " fill="#000000"/><text fill="#000000" font-family="sans-serif" font-size="14" font-style="italic" lengthAdjust="spacing" textLength="52" x="583.25" y="30.8467">Eligible</text><line style="stroke:#181818;stroke-width:0.5;" x1="460" x2="726" y1="42" y2="42"/><line style="stroke:#181818;stroke-width:0.5;" x1="460" x2="726" y1="50" y2="50"/><text fill="#000000" font-family="sans-serif" font-size="14" lengthAdjust="spacing" textLength="164" x="465" y="66.9951">Object defaultCriterion()</text><text fill="#000000" font-family="sans-serif" font-size="14" lengthAdjust="spacing" textLength="256" x="465" y="83.292">boolean isEligibleFor(Object criterion)</text></g><!--class Event--><g id="elem_Event"><rect codeLine="6" fill="#F1F1F1" height="80.5938" id="Event" rx="2.5" ry="2.5" style="stroke:#181818;stroke-width:0.5;" width="282" x="142" y="10"/><ellipse cx="253.75" cy="26" fill="#ADD1B2" rx="11" ry="11" style="stroke:#181818;stroke-width:1.0;"/><path d="M256.7188,31.6406 Q256.1406,31.9375 255.5,32.0781 Q254.8594,32.2344 254.1563,32.2344 Q251.6563,32.2344 250.3281,30.5938 Q249.0156,28.9375 249.0156,25.8125 Q249.0156,22.6875 250.3281,21.0313 Q251.6563,19.375 254.1563,19.375 Q254.8594,19.375 255.5,19.5313 Q256.1563,19.6875 256.7188,19.9844 L256.7188,22.7031 Q256.0938,22.125 255.5,21.8594 Q254.9063,21.5781 254.2813,21.5781 Q252.9375,21.5781 252.25,22.6563 Q251.5625,23.7188 251.5625,25.8125 Q251.5625,27.9063 252.25,28.9844 Q252.9375,30.0469 254.2813,30.0469 Q254.9063,30.0469 255.5,29.7813 Q256.0938,29.5 256.7188,28.9219 L256.7188,31.6406 Z " fill="#000000"/><text fill="#000000" font-family="sans-serif" font-size="14" lengthAdjust="spacing" textLength="39" x="274.25" y="30.8467">Event</text><rect fill="#FFFFFF" height="15.9688" style="stroke:#181818;stroke-width:1.0;stroke-dasharray:2.0,2.0;" width="9" x="418" y="7"/><text fill="#000000" font-family="sans-serif" font-size="12" font-style="italic" lengthAdjust="spacing" textLength="7" x="419" y="19.1387">T</text><line style="stroke:#181818;stroke-width:0.5;" x1="143" x2="423" y1="42" y2="42"/><line style="stroke:#181818;stroke-width:0.5;" x1="143" x2="423" y1="50" y2="50"/><ellipse cx="153" cy="63.6484" fill="#84BE84" rx="3" ry="3" style="stroke:#038048;stroke-width:1.0;"/><text fill="#000000" font-family="sans-serif" font-size="14" lengthAdjust="spacing" textLength="164" x="162" y="66.9951">Object defaultCriterion()</text><ellipse cx="153" cy="79.9453" fill="#84BE84" rx="3" ry="3" style="stroke:#038048;stroke-width:1.0;"/><text fill="#000000" font-family="sans-serif" font-size="14" lengthAdjust="spacing" textLength="256" x="162" y="83.292">boolean isEligibleFor(Object criterion)</text></g><!--class NamedEvent--><g id="elem_NamedEvent"><rect codeLine="13" fill="#F1F1F1" height="113.1875" id="NamedEvent" rx="2.5" ry="2.5" style="stroke:#181818;stroke-width:0.5;" width="282" x="7" y="150.59"/><ellipse cx="99.75" cy="166.59" fill="#ADD1B2" rx="11" ry="11" style="stroke:#181818;stroke-width:1.0;"/><path d="M102.7188,172.2306 Q102.1406,172.5275 101.5,172.6681 Q100.8594,172.8244 100.1563,172.8244 Q97.6563,172.8244 96.3281,171.1838 Q95.0156,169.5275 95.0156,166.4025 Q95.0156,163.2775 96.3281,161.6213 Q97.6563,159.965 100.1563,159.965 Q100.8594,159.965 101.5,160.1213 Q102.1563,160.2775 102.7188,160.5744 L102.7188,163.2931 Q102.0938,162.715 101.5,162.4494 Q100.9063,162.1681 100.2813,162.1681 Q98.9375,162.1681 98.25,163.2463 Q97.5625,164.3088 97.5625,166.4025 Q97.5625,168.4963 98.25,169.5744 Q98.9375,170.6369 100.2813,170.6369 Q100.9063,170.6369 101.5,170.3713 Q102.0938,170.09 102.7188,169.5119 L102.7188,172.2306 Z " fill="#000000"/><text fill="#000000" font-family="sans-serif" font-size="14" lengthAdjust="spacing" textLength="88" x="120.25" y="171.4367">NamedEvent</text><line style="stroke:#181818;stroke-width:0.5;" x1="8" x2="288" y1="182.59" y2="182.59"/><rect fill="none" height="6" style="stroke:#C82930;stroke-width:1.0;" width="6" x="15" y="193.2384"/><text fill="#000000" font-family="sans-serif" font-size="14" lengthAdjust="spacing" textLength="83" x="27" y="199.5851">String name</text><line style="stroke:#181818;stroke-width:0.5;" x1="8" x2="288" y1="206.8869" y2="206.8869"/><ellipse cx="18" cy="220.5353" fill="#84BE84" rx="3" ry="3" style="stroke:#038048;stroke-width:1.0;"/><text fill="#000000" font-family="sans-serif" font-size="14" lengthAdjust="spacing" textLength="181" x="27" y="223.882">NamedEvent(String name)</text><ellipse cx="18" cy="236.8322" fill="#84BE84" rx="3" ry="3" style="stroke:#038048;stroke-width:1.0;"/><text fill="#000000" font-family="sans-serif" font-size="14" lengthAdjust="spacing" textLength="164" x="27" y="240.1789">Object defaultCriterion()</text><ellipse cx="18" cy="253.1291" fill="#84BE84" rx="3" ry="3" style="stroke:#038048;stroke-width:1.0;"/><text fill="#000000" font-family="sans-serif" font-size="14" lengthAdjust="spacing" textLength="256" x="27" y="256.4757">boolean isEligibleFor(Object criterion)</text></g><!--class UserEventType--><g id="elem_UserEventType"><rect codeLine="21" fill="#FFDEAD" height="64.2969" id="UserEventType" rx="2.5" ry="2.5" style="stroke:#181818;stroke-width:0.5;" width="190" x="324" y="175.04"/><ellipse cx="362.85" cy="191.04" fill="#ADD1B2" rx="11" ry="11" style="stroke:#181818;stroke-width:1.0;"/><path d="M365.8188,196.6806 Q365.2406,196.9775 364.6,197.1181 Q363.9594,197.2744 363.2563,197.2744 Q360.7563,197.2744 359.4281,195.6338 Q358.1156,193.9775 358.1156,190.8525 Q358.1156,187.7275 359.4281,186.0713 Q360.7563,184.415 363.2563,184.415 Q363.9594,184.415 364.6,184.5713 Q365.2563,184.7275 365.8188,185.0244 L365.8188,187.7431 Q365.1938,187.165 364.6,186.8994 Q364.0063,186.6181 363.3813,186.6181 Q362.0375,186.6181 361.35,187.6963 Q360.6625,188.7588 360.6625,190.8525 Q360.6625,192.9463 361.35,194.0244 Q362.0375,195.0869 363.3813,195.0869 Q364.0063,195.0869 364.6,194.8213 Q365.1938,194.54 365.8188,193.9619 L365.8188,196.6806 Z " fill="#000000"/><text fill="#000000" font-family="sans-serif" font-size="14" lengthAdjust="spacing" textLength="105" x="382.15" y="195.8867">UserEventType</text><line style="stroke:#181818;stroke-width:0.5;" x1="325" x2="513" y1="207.04" y2="207.04"/><line style="stroke:#181818;stroke-width:0.5;" x1="325" x2="513" y1="215.04" y2="215.04"/><ellipse cx="335" cy="228.6884" fill="#84BE84" rx="3" ry="3" style="stroke:#038048;stroke-width:1.0;"/><text fill="#000000" font-family="sans-serif" font-size="14" lengthAdjust="spacing" textLength="164" x="344" y="232.0351">Object defaultCriterion()</text></g><!--link Event to Eligible--><g id="link_Event_Eligible"><path codeLine="11" d="M424.38,50.3 C435.79,50.3 429.21,50.3 440.63,50.3 " fill="none" id="Event-to-Eligible" style="stroke:#181818;stroke-width:1.0;stroke-dasharray:7.0,7.0;"/><polygon fill="none" points="458.63,50.3,440.63,44.3,440.63,56.3,458.63,50.3" style="stroke:#181818;stroke-width:1.0;"/></g><!--reverse link Event to NamedEvent--><g id="link_Event_NamedEvent"><path codeLine="19" d="M236.7557,104.3515 C221.0557,122.3715 214.01,130.45 196.87,150.12 " fill="none" id="Event-backto-NamedEvent" style="stroke:#181818;stroke-width:1.0;"/><polygon fill="none" points="248.58,90.78,232.2319,100.4101,241.2796,108.293,248.58,90.78" style="stroke:#181818;stroke-width:1.0;"/></g><!--reverse link Event to UserEventType--><g id="link_Event_UserEventType"><path codeLine="24" d="M329.5463,104.306 C352.3663,130.296 369.97,150.35 391.24,174.57 " fill="none" id="Event-backto-UserEventType" style="stroke:#181818;stroke-width:1.0;"/><polygon fill="none" points="317.67,90.78,325.0376,108.2648,334.055,100.3473,317.67,90.78" style="stroke:#181818;stroke-width:1.0;"/></g><!--SRC=[hP313e8m44JFyXMRU84G-0B2nU0H3s8ybx90IMrDMqcC-EyM586BniJhpkoRsMN2e2e9HKWugrZE4MuEh7PvWzH0WIMvSBDHpBgO5AvdjLnAZaG0q-FALYhtjK57gtNU7N20Sg8r92qA4sNn0FS_qVtVy0COGiMgseHT_BvYYax92OkdhGyFzaOnKO6mupvkajsPulsrvZCzwe9WrcPgUD2eXb5sFIEiKzAIHXvhY_ZwhYLy0Ne0]--></g></svg>