<?xml version="1.0" encoding="UTF-8" standalone="no"?><svg xmlns="http://www.w3.org/2000/svg" xmlns:xlink="http://www.w3.org/1999/xlink" contentScriptType="application/ecmascript" contentStyleType="text/css" height="252px" preserveAspectRatio="none" style="width:631px;height:252px;" version="1.1" viewBox="0 0 631 252" width="631px" zoomAndPan="magnify"><defs><filter height="300%" id="fxqyueis6jcyf" width="300%" x="-1" y="-1"><feGaussianBlur result="blurOut" stdDeviation="2.0"/><feColorMatrix in="blurOut" result="blurOut2" type="matrix" values="0 0 0 0 0 0 0 0 0 0 0 0 0 0 0 0 0 0 .4 0"/><feOffset dx="4.0" dy="4.0" in="blurOut2" result="blurOut3"/><feBlend in="SourceGraphic" in2="blurOut3" mode="normal"/></filter></defs><g><!--class Eligible--><rect fill="#FEFECE" filter="url(#fxqyueis6jcyf)" height="73.6094" id="Eligible" style="stroke: #A80036; stroke-width: 1.5;" width="224" x="396.5" y="8"/><ellipse cx="482.25" cy="24" fill="#B4A7E5" rx="11" ry="11" style="stroke: #A80036; stroke-width: 1.0;"/><path d="M478.1719,19.7656 L478.1719,17.6094 L485.5625,17.6094 L485.5625,19.7656 L483.0938,19.7656 L483.0938,27.8438 L485.5625,27.8438 L485.5625,30 L478.1719,30 L478.1719,27.8438 L480.6406,27.8438 L480.6406,19.7656 L478.1719,19.7656 Z "/><text fill="#000000" font-family="sans-serif" font-size="12" font-style="italic" lengthAdjust="spacingAndGlyphs" textLength="44" x="502.75" y="28.1543">Eligible</text><line style="stroke: #A80036; stroke-width: 1.5;" x1="397.5" x2="619.5" y1="40" y2="40"/><line style="stroke: #A80036; stroke-width: 1.5;" x1="397.5" x2="619.5" y1="48" y2="48"/><text fill="#000000" font-family="sans-serif" font-size="11" lengthAdjust="spacingAndGlyphs" textLength="136" x="402.5" y="62.2104">Object defaultCriterion()</text><text fill="#000000" font-family="sans-serif" font-size="11" lengthAdjust="spacingAndGlyphs" textLength="212" x="402.5" y="75.0151">boolean isEligibleFor(Object criterion)</text><!--class Event--><rect fill="#FEFECE" filter="url(#fxqyueis6jcyf)" height="73.6094" id="Event" style="stroke: #A80036; stroke-width: 1.5;" width="238" x="123" y="8"/><ellipse cx="214.75" cy="24" fill="#ADD1B2" rx="11" ry="11" style="stroke: #A80036; stroke-width: 1.0;"/><path d="M217.7188,29.6406 Q217.1406,29.9375 216.5,30.0859 Q215.8594,30.2344 215.1563,30.2344 Q212.6563,30.2344 211.3359,28.5859 Q210.0156,26.9375 210.0156,23.8125 Q210.0156,20.6875 211.3359,19.0313 Q212.6563,17.375 215.1563,17.375 Q215.8594,17.375 216.5078,17.5313 Q217.1563,17.6875 217.7188,17.9844 L217.7188,20.7031 Q217.0938,20.125 216.5,19.8516 Q215.9063,19.5781 215.2813,19.5781 Q213.9375,19.5781 213.25,20.6484 Q212.5625,21.7188 212.5625,23.8125 Q212.5625,25.9063 213.25,26.9766 Q213.9375,28.0469 215.2813,28.0469 Q215.9063,28.0469 216.5,27.7734 Q217.0938,27.5 217.7188,26.9219 L217.7188,29.6406 Z "/><text fill="#000000" font-family="sans-serif" font-size="12" lengthAdjust="spacingAndGlyphs" textLength="35" x="235.25" y="28.1543">Event</text><rect fill="#FFFFFF" height="15.9688" style="stroke: #000000; stroke-width: 1.0; stroke-dasharray: 2.0,2.0;" width="9" x="355" y="5"/><text fill="#000000" font-family="sans-serif" font-size="12" font-style="italic" lengthAdjust="spacingAndGlyphs" textLength="7" x="356" y="17.1387">T</text><line style="stroke: #A80036; stroke-width: 1.5;" x1="124" x2="360" y1="40" y2="40"/><line style="stroke: #A80036; stroke-width: 1.5;" x1="124" x2="360" y1="48" y2="48"/><ellipse cx="134" cy="59.9023" fill="#84BE84" rx="3" ry="3" style="stroke: #038048; stroke-width: 1.0;"/><text fill="#000000" font-family="sans-serif" font-size="11" lengthAdjust="spacingAndGlyphs" textLength="136" x="143" y="62.2104">Object defaultCriterion()</text><ellipse cx="134" cy="72.707" fill="#84BE84" rx="3" ry="3" style="stroke: #038048; stroke-width: 1.0;"/><text fill="#000000" font-family="sans-serif" font-size="11" lengthAdjust="spacingAndGlyphs" textLength="212" x="143" y="75.0151">boolean isEligibleFor(Object criterion)</text><!--class NamedEvent--><rect fill="#FEFECE" filter="url(#fxqyueis6jcyf)" height="99.2188" id="NamedEvent" style="stroke: #A80036; stroke-width: 1.5;" width="238" x="6" y="142.5"/><ellipse cx="81.25" cy="158.5" fill="#ADD1B2" rx="11" ry="11" style="stroke: #A80036; stroke-width: 1.0;"/><path d="M84.2188,164.1406 Q83.6406,164.4375 83,164.5859 Q82.3594,164.7344 81.6563,164.7344 Q79.1563,164.7344 77.8359,163.0859 Q76.5156,161.4375 76.5156,158.3125 Q76.5156,155.1875 77.8359,153.5313 Q79.1563,151.875 81.6563,151.875 Q82.3594,151.875 83.0078,152.0313 Q83.6563,152.1875 84.2188,152.4844 L84.2188,155.2031 Q83.5938,154.625 83,154.3516 Q82.4063,154.0781 81.7813,154.0781 Q80.4375,154.0781 79.75,155.1484 Q79.0625,156.2188 79.0625,158.3125 Q79.0625,160.4063 79.75,161.4766 Q80.4375,162.5469 81.7813,162.5469 Q82.4063,162.5469 83,162.2734 Q83.5938,162 84.2188,161.4219 L84.2188,164.1406 Z "/><text fill="#000000" font-family="sans-serif" font-size="12" lengthAdjust="spacingAndGlyphs" textLength="79" x="101.75" y="162.6543">NamedEvent</text><line style="stroke: #A80036; stroke-width: 1.5;" x1="7" x2="243" y1="174.5" y2="174.5"/><rect fill="none" height="6" style="stroke: #C82930; stroke-width: 1.0;" width="6" x="14" y="183.4023"/><text fill="#000000" font-family="sans-serif" font-size="11" lengthAdjust="spacingAndGlyphs" textLength="70" x="26" y="188.7104">String name</text><line style="stroke: #A80036; stroke-width: 1.5;" x1="7" x2="243" y1="195.3047" y2="195.3047"/><ellipse cx="17" cy="207.207" fill="#84BE84" rx="3" ry="3" style="stroke: #038048; stroke-width: 1.0;"/><text fill="#000000" font-family="sans-serif" font-size="11" lengthAdjust="spacingAndGlyphs" textLength="149" x="26" y="209.5151">NamedEvent(String name)</text><ellipse cx="17" cy="220.0117" fill="#84BE84" rx="3" ry="3" style="stroke: #038048; stroke-width: 1.0;"/><text fill="#000000" font-family="sans-serif" font-size="11" lengthAdjust="spacingAndGlyphs" textLength="136" x="26" y="222.3198">Object defaultCriterion()</text><ellipse cx="17" cy="232.8164" fill="#84BE84" rx="3" ry="3" style="stroke: #038048; stroke-width: 1.0;"/><text fill="#000000" font-family="sans-serif" font-size="11" lengthAdjust="spacingAndGlyphs" textLength="212" x="26" y="235.1245">boolean isEligibleFor(Object criterion)</text><!--class UserEventType--><rect fill="#FFDEAD" filter="url(#fxqyueis6jcyf)" height="60.8047" id="UserEventType" style="stroke: #A80036; stroke-width: 1.5;" width="162" x="279" y="161.5"/><rect fill="#FFDEAD" height="32" style="stroke: #A80036; stroke-width: 1.5;" width="162" x="279" y="161.5"/><ellipse cx="310.65" cy="177.5" fill="#ADD1B2" rx="11" ry="11" style="stroke: #A80036; stroke-width: 1.0;"/><path d="M313.6188,183.1406 Q313.0406,183.4375 312.4,183.5859 Q311.7594,183.7344 311.0563,183.7344 Q308.5563,183.7344 307.2359,182.0859 Q305.9156,180.4375 305.9156,177.3125 Q305.9156,174.1875 307.2359,172.5313 Q308.5563,170.875 311.0563,170.875 Q311.7594,170.875 312.4078,171.0313 Q313.0563,171.1875 313.6188,171.4844 L313.6188,174.2031 Q312.9938,173.625 312.4,173.3516 Q311.8063,173.0781 311.1813,173.0781 Q309.8375,173.0781 309.15,174.1484 Q308.4625,175.2188 308.4625,177.3125 Q308.4625,179.4063 309.15,180.4766 Q309.8375,181.5469 311.1813,181.5469 Q311.8063,181.5469 312.4,181.2734 Q312.9938,181 313.6188,180.4219 L313.6188,183.1406 Z "/><text fill="#000000" font-family="sans-serif" font-size="12" lengthAdjust="spacingAndGlyphs" textLength="93" x="328.35" y="181.6543">UserEventType</text><line style="stroke: #A80036; stroke-width: 1.5;" x1="280" x2="440" y1="193.5" y2="193.5"/><line style="stroke: #A80036; stroke-width: 1.5;" x1="280" x2="440" y1="201.5" y2="201.5"/><ellipse cx="290" cy="213.4023" fill="#84BE84" rx="3" ry="3" style="stroke: #038048; stroke-width: 1.0;"/><text fill="#000000" font-family="sans-serif" font-size="11" lengthAdjust="spacingAndGlyphs" textLength="136" x="299" y="215.7104">Object defaultCriterion()</text><!--link Event to Eligible--><path d="M361.232,45 C366.282,45 371.333,45 376.383,45 " fill="none" id="Event-Eligible" style="stroke: #A80036; stroke-width: 1.0; stroke-dasharray: 7.0,7.0;"/><polygon fill="none" points="376.491,38,396.491,45,376.491,52,376.491,38" style="stroke: #A80036; stroke-width: 1.0;"/><!--link Event to NamedEvent--><path d="M200.097,97.931 C188.403,112.423 175.745,128.111 164.213,142.4028 " fill="none" id="Event-NamedEvent" style="stroke: #A80036; stroke-width: 1.0;"/><polygon fill="none" points="194.771,93.385,212.778,82.216,205.666,102.176,194.771,93.385" style="stroke: #A80036; stroke-width: 1.0;"/><!--link Event to UserEventType--><path d="M284.165,97.813 C301.443,119.045 320.824,142.86 335.668,161.1002 " fill="none" id="Event-UserEventType" style="stroke: #A80036; stroke-width: 1.0;"/><polygon fill="none" points="278.667,102.146,271.472,82.216,289.525,93.31,278.667,102.146" style="stroke: #A80036; stroke-width: 1.0;"/><!--
@startuml
interface Eligible {
 	Object defaultCriterion()
 	boolean isEligibleFor(Object criterion)
 }
 
 class Event<T> {
 	+Object defaultCriterion()
 	+boolean isEligibleFor(Object criterion)
 }
 
 Event .right.|> Eligible
 
 class NamedEvent {
 	-String name
 	+NamedEvent(String name)
 	+Object defaultCriterion()
 	+boolean isEligibleFor(Object criterion)
 }
 Event <|- - NamedEvent
 
 class UserEventType #NavajoWhite {
 	+Object defaultCriterion()
 }
 Event <|- - UserEventType
@enduml

PlantUML version 1.2017.18(Fri Oct 06 16:56:32 UTC 2017)
(GPL source distribution)
Java Runtime: Java(TM) SE Runtime Environment
JVM: Java HotSpot(TM) 64-Bit Server VM
Java Version: 1.8.0_151-b12
Operating System: Linux
OS Version: 4.4.0-101-generic
Default Encoding: UTF-8
Language: en
Country: US
--></g></svg>