<?xml version="1.0" encoding="us-ascii" standalone="no"?><svg xmlns="http://www.w3.org/2000/svg" xmlns:xlink="http://www.w3.org/1999/xlink" contentStyleType="text/css" height="297px" preserveAspectRatio="none" style="width:315px;height:297px;background:#FFFFFF;" version="1.1" viewBox="0 0 315 297" width="315px" zoomAndPan="magnify"><defs/><g><!--cluster org--><g id="cluster_org"><path d="M8.5,6 L36.5,6 A3.75,3.75 0 0 1 39,8.5 L46,28.2969 L305.5,28.2969 A2.5,2.5 0 0 1 308,30.7969 L308,287.5 A2.5,2.5 0 0 1 305.5,290 L8.5,290 A2.5,2.5 0 0 1 6,287.5 L6,8.5 A2.5,2.5 0 0 1 8.5,6 " fill="none" style="stroke:#000000;stroke-width:1.5;"/><line style="stroke:#000000;stroke-width:1.5;" x1="6" x2="46" y1="28.2969" y2="28.2969"/><text fill="#000000" font-family="sans-serif" font-size="14" font-weight="bold" lengthAdjust="spacing" textLength="27" x="10" y="20.9951">org</text></g><!--cluster jgrapes--><g id="cluster_jgrapes"><path d="M32.5,49 L92.5,49 A3.75,3.75 0 0 1 95,51.5 L102,71.2969 L281.5,71.2969 A2.5,2.5 0 0 1 284,73.7969 L284,263.5 A2.5,2.5 0 0 1 281.5,266 L32.5,266 A2.5,2.5 0 0 1 30,263.5 L30,51.5 A2.5,2.5 0 0 1 32.5,49 " fill="none" style="stroke:#000000;stroke-width:1.5;"/><line style="stroke:#000000;stroke-width:1.5;" x1="30" x2="102" y1="71.2969" y2="71.2969"/><text fill="#000000" font-family="sans-serif" font-size="14" font-weight="bold" lengthAdjust="spacing" textLength="59" x="34" y="63.9951">jgrapes</text></g><a href="../core/package-summary.html" target="_parent" title="../core/package-summary.html" xlink:actuate="onRequest" xlink:href="../core/package-summary.html" xlink:show="new" xlink:title="../core/package-summary.html" xlink:type="simple"><path d="M135.5,84 L172.5,84 A3.75,3.75 0 0 1 175,86.5 L182,106.2969 L186.5,106.2969 A2.5,2.5 0 0 1 189,108.7969 L189,134.0938 A2.5,2.5 0 0 1 186.5,136.5938 L135.5,136.5938 A2.5,2.5 0 0 1 133,134.0938 L133,86.5 A2.5,2.5 0 0 1 135.5,84 " fill="#F1F1F1" style="stroke:#181818;stroke-width:0.5;"/><line style="stroke:#181818;stroke-width:0.5;" x1="133" x2="182" y1="106.2969" y2="106.2969"/><text fill="#000000" font-family="sans-serif" font-size="14" font-weight="bold" lengthAdjust="spacing" textLength="36" x="137" y="98.9951">core</text></a><a href="../util/package-summary.html" target="_parent" title="../util/package-summary.html" xlink:actuate="onRequest" xlink:href="../util/package-summary.html" xlink:show="new" xlink:title="../util/package-summary.html" xlink:type="simple"><path d="M226.5,84 L251.5,84 A3.75,3.75 0 0 1 254,86.5 L261,106.2969 L265.5,106.2969 A2.5,2.5 0 0 1 268,108.7969 L268,134.0938 A2.5,2.5 0 0 1 265.5,136.5938 L226.5,136.5938 A2.5,2.5 0 0 1 224,134.0938 L224,86.5 A2.5,2.5 0 0 1 226.5,84 " fill="#F1F1F1" style="stroke:#181818;stroke-width:0.5;"/><line style="stroke:#181818;stroke-width:0.5;" x1="224" x2="261" y1="106.2969" y2="106.2969"/><text fill="#000000" font-family="sans-serif" font-size="14" font-weight="bold" lengthAdjust="spacing" textLength="24" x="228" y="98.9951">util</text></a><a href="../io/package-summary.html" target="_parent" title="../io/package-summary.html" xlink:actuate="onRequest" xlink:href="../io/package-summary.html" xlink:show="new" xlink:title="../io/package-summary.html" xlink:type="simple"><path d="M146.5,197 L161.5,197 A3.75,3.75 0 0 1 164,199.5 L171,219.2969 L175.5,219.2969 A2.5,2.5 0 0 1 178,221.7969 L178,247.0938 A2.5,2.5 0 0 1 175.5,249.5938 L146.5,249.5938 A2.5,2.5 0 0 1 144,247.0938 L144,199.5 A2.5,2.5 0 0 1 146.5,197 " fill="#F1F1F1" style="stroke:#181818;stroke-width:0.5;"/><line style="stroke:#181818;stroke-width:0.5;" x1="144" x2="171" y1="219.2969" y2="219.2969"/><text fill="#000000" font-family="sans-serif" font-size="14" font-weight="bold" lengthAdjust="spacing" textLength="14" x="148" y="211.9951">io</text></a><a href="../http/package-summary.html" target="_parent" title="../http/package-summary.html" xlink:actuate="onRequest" xlink:href="../http/package-summary.html" xlink:show="new" xlink:title="../http/package-summary.html" xlink:type="simple"><path d="M215.5,197 L248.5,197 A3.75,3.75 0 0 1 251,199.5 L258,219.2969 L262.5,219.2969 A2.5,2.5 0 0 1 265,221.7969 L265,247.0938 A2.5,2.5 0 0 1 262.5,249.5938 L215.5,249.5938 A2.5,2.5 0 0 1 213,247.0938 L213,199.5 A2.5,2.5 0 0 1 215.5,197 " fill="#F1F1F1" style="stroke:#181818;stroke-width:0.5;"/><line style="stroke:#181818;stroke-width:0.5;" x1="213" x2="258" y1="219.2969" y2="219.2969"/><text fill="#000000" font-family="sans-serif" font-size="14" font-weight="bold" lengthAdjust="spacing" textLength="32" x="217" y="211.9951">http</text></a><a href="../mail/package-summary.html" target="_parent" title="../mail/package-summary.html" xlink:actuate="onRequest" xlink:href="../mail/package-summary.html" xlink:show="new" xlink:title="../mail/package-summary.html" xlink:type="simple"><path d="M49,84 L81,84 A3.75,3.75 0 0 1 83.5,86.5 L90.5,106.2969 L95,106.2969 A2.5,2.5 0 0 1 97.5,108.7969 L97.5,134.0938 A2.5,2.5 0 0 1 95,136.5938 L49,136.5938 A2.5,2.5 0 0 1 46.5,134.0938 L46.5,86.5 A2.5,2.5 0 0 1 49,84 " fill="#F1F1F1" style="stroke:#181818;stroke-width:0.5;"/><line style="stroke:#181818;stroke-width:0.5;" x1="46.5" x2="90.5" y1="106.2969" y2="106.2969"/><text fill="#000000" font-family="sans-serif" font-size="14" font-weight="bold" lengthAdjust="spacing" textLength="31" x="50.5" y="98.9951">mail</text></a><!--reverse link core to util--><g id="link_core_util"><path codeLine="20" d="M195.22,110.5 C206.76,110.5 212.29,110.5 223.82,110.5 " fill="none" id="core-backto-util" style="stroke:#181818;stroke-width:1.0;stroke-dasharray:7.0,7.0;"/><polygon fill="#181818" points="189.22,110.5,198.22,114.5,194.22,110.5,198.22,106.5,189.22,110.5" style="stroke:#181818;stroke-width:1.0;"/></g><!--reverse link core to io--><g id="link_core_io"><path codeLine="21" d="M161,143.24 C161,161.18 161,178.99 161,196.89 " fill="none" id="core-backto-io" style="stroke:#181818;stroke-width:1.0;stroke-dasharray:7.0,7.0;"/><polygon fill="#181818" points="161,137.24,157,146.24,161,142.24,165,146.24,161,137.24" style="stroke:#181818;stroke-width:1.0;"/></g><!--reverse link util to io--><g id="link_util_io"><path codeLine="22" d="M222.6419,142.0035 C208.0219,161.0935 191.95,182.08 178.02,200.27 " fill="none" id="util-backto-io" style="stroke:#181818;stroke-width:1.0;stroke-dasharray:7.0,7.0;"/><polygon fill="#181818" points="226.29,137.24,217.6421,141.9532,223.2499,141.2096,223.9935,146.8174,226.29,137.24" style="stroke:#181818;stroke-width:1.0;"/></g><!--reverse link io to http--><g id="link_io_http"><path codeLine="23" d="M184.06,223.5 C195.65,223.5 201.23,223.5 212.82,223.5 " fill="none" id="io-backto-http" style="stroke:#181818;stroke-width:1.0;stroke-dasharray:7.0,7.0;"/><polygon fill="#181818" points="178.06,223.5,187.06,227.5,183.06,223.5,187.06,219.5,178.06,223.5" style="stroke:#181818;stroke-width:1.0;"/></g><!--link mail to io--><g id="link_mail_io"><path codeLine="24" d="M92.64,137.24 C108.15,156.59 125.3978,178.088 140.0078,196.318 " fill="none" id="mail-to-io" style="stroke:#181818;stroke-width:1.0;stroke-dasharray:7.0,7.0;"/><polygon fill="#181818" points="143.76,201,141.2529,191.4756,140.6331,197.0984,135.0103,196.4786,143.76,201" style="stroke:#181818;stroke-width:1.0;"/></g><!--SRC=[fP113eCW44Ntd68kqF42FKANtHdJJ0n1gWY1iKdJzEvrQjqKZ0jP_S3F6-Qbtew18Zb83tEnOt-bQ3J3RRxK8ojG4AZjoMZmqU3TH0ewmKk1dC8JjZvgg6l4IbBrgvpIv1p59tRiXgPP0MyPi4MQs0uBIT8HalKBn_eZb8uvB1n9-oGvspH7wtQIzcdVhsMYpnYjwHWpSSKk_bbHkU-zqgooE5EK59fJm6ph3m00]--></g></svg>