<?xml version="1.0" encoding="UTF-8" standalone="no"?><svg xmlns="http://www.w3.org/2000/svg" xmlns:xlink="http://www.w3.org/1999/xlink" contentScriptType="application/ecmascript" contentStyleType="text/css" height="230px" preserveAspectRatio="none" style="width:392px;height:230px;background:#FFFFFF;" version="1.1" viewBox="0 0 392 230" width="392px" zoomAndPan="magnify"><defs><filter height="300%" id="fqdgdfyzpccxq" width="300%" x="-1" y="-1"><feGaussianBlur result="blurOut" stdDeviation="2.0"/><feColorMatrix in="blurOut" result="blurOut2" type="matrix" values="0 0 0 0 0 0 0 0 0 0 0 0 0 0 0 0 0 0 .4 0"/><feOffset dx="4.0" dy="4.0" in="blurOut2" result="blurOut3"/><feBlend in="SourceGraphic" in2="blurOut3" mode="normal"/></filter></defs><g><!--MD5=[636cf508bc3531bba9d5aac6865a8790]
cluster org.jgrapes--><polygon fill="#FFFFFF" filter="url(#fqdgdfyzpccxq)" points="16,6,113,6,120,28.2969,375,28.2969,375,223,16,223,16,6" style="stroke:#000000;stroke-width:1.5;"/><line style="stroke:#000000;stroke-width:1.5;" x1="16" x2="120" y1="28.2969" y2="28.2969"/><text fill="#000000" font-family="sans-serif" font-size="14" font-weight="bold" lengthAdjust="spacing" textLength="91" x="20" y="20.9951">org.jgrapes</text><a href="../core/package-summary.html" target="_parent" title="../core/package-summary.html" xlink:actuate="onRequest" xlink:href="../core/package-summary.html" xlink:show="new" xlink:title="../core/package-summary.html" xlink:type="simple"><polygon fill="#FFFFFF" filter="url(#fqdgdfyzpccxq)" points="32,41,170,41,177,63.2969,184,63.2969,184,93.5938,32,93.5938,32,41" style="stroke:#000000;stroke-width:1.5;"/><line style="stroke:#000000;stroke-width:1.5;" x1="32" x2="177" y1="63.2969" y2="63.2969"/><text fill="#000000" font-family="sans-serif" font-size="14" font-weight="bold" lengthAdjust="spacing" textLength="132" x="36" y="55.9951">org.jgrapes.core</text></a><a href="../util/package-summary.html" target="_parent" title="../util/package-summary.html" xlink:actuate="onRequest" xlink:href="../util/package-summary.html" xlink:show="new" xlink:title="../util/package-summary.html" xlink:type="simple"><polygon fill="#FFFFFF" filter="url(#fqdgdfyzpccxq)" points="219,41,345,41,352,63.2969,359,63.2969,359,93.5938,219,93.5938,219,41" style="stroke:#000000;stroke-width:1.5;"/><line style="stroke:#000000;stroke-width:1.5;" x1="219" x2="352" y1="63.2969" y2="63.2969"/><text fill="#000000" font-family="sans-serif" font-size="14" font-weight="bold" lengthAdjust="spacing" textLength="120" x="223" y="55.9951">org.jgrapes.util</text></a><a href="../io/package-summary.html" target="_parent" title="../io/package-summary.html" xlink:actuate="onRequest" xlink:href="../io/package-summary.html" xlink:show="new" xlink:title="../io/package-summary.html" xlink:type="simple"><polygon fill="#FFFFFF" filter="url(#fqdgdfyzpccxq)" points="44,154,160,154,167,176.2969,174,176.2969,174,206.5938,44,206.5938,44,154" style="stroke:#000000;stroke-width:1.5;"/><line style="stroke:#000000;stroke-width:1.5;" x1="44" x2="167" y1="176.2969" y2="176.2969"/><text fill="#000000" font-family="sans-serif" font-size="14" font-weight="bold" lengthAdjust="spacing" textLength="110" x="48" y="168.9951">org.jgrapes.io</text></a><a href="../http/package-summary.html" target="_parent" title="../http/package-summary.html" xlink:actuate="onRequest" xlink:href="../http/package-summary.html" xlink:show="new" xlink:title="../http/package-summary.html" xlink:type="simple"><polygon fill="#FFFFFF" filter="url(#fqdgdfyzpccxq)" points="209,154,343,154,350,176.2969,357,176.2969,357,206.5938,209,206.5938,209,154" style="stroke:#000000;stroke-width:1.5;"/><line style="stroke:#000000;stroke-width:1.5;" x1="209" x2="350" y1="176.2969" y2="176.2969"/><text fill="#000000" font-family="sans-serif" font-size="14" font-weight="bold" lengthAdjust="spacing" textLength="128" x="213" y="168.9951">org.jgrapes.http</text></a><!--MD5=[001a222705426496d0ebfb951180f9fe]
reverse link org.jgrapes.core to org.jgrapes.util--><path d="M189.18,67.5 C199.08,67.5 208.97,67.5 218.87,67.5 " fill="none" id="org.jgrapes.core-backto-org.jgrapes.util" style="stroke:#A80036;stroke-width:1.0;stroke-dasharray:7.0,7.0;"/><polygon fill="#A80036" points="184.01,67.5,193.01,71.5,189.01,67.5,193.01,63.5,184.01,67.5" style="stroke:#A80036;stroke-width:1.0;"/><!--MD5=[8a45a9060319e4c69777e3f76c3359e3]
reverse link org.jgrapes.core to org.jgrapes.io--><path d="M108.28,99.43 C108.43,116.59 108.62,137.67 108.77,153.89 " fill="none" id="org.jgrapes.core-backto-org.jgrapes.io" style="stroke:#A80036;stroke-width:1.0;stroke-dasharray:7.0,7.0;"/><polygon fill="#A80036" points="108.23,94.24,104.3073,103.274,108.2729,99.2398,112.307,103.2054,108.23,94.24" style="stroke:#A80036;stroke-width:1.0;"/><!--MD5=[0012805c3def081c247b64e3c45c7a53]
reverse link org.jgrapes.util to org.jgrapes.io--><path d="M242.75,97.02 C214.27,114.58 178.08,136.9 150.52,153.89 " fill="none" id="org.jgrapes.util-backto-org.jgrapes.io" style="stroke:#A80036;stroke-width:1.0;stroke-dasharray:7.0,7.0;"/><polygon fill="#A80036" points="247.25,94.24,237.4875,95.5411,242.9893,96.8565,241.6739,102.3583,247.25,94.24" style="stroke:#A80036;stroke-width:1.0;"/><!--MD5=[49e7a5755d7405d61ed2c5845840619a]
reverse link org.jgrapes.io to org.jgrapes.http--><path d="M179.36,180.5 C189.12,180.5 198.89,180.5 208.66,180.5 " fill="none" id="org.jgrapes.io-backto-org.jgrapes.http" style="stroke:#A80036;stroke-width:1.0;stroke-dasharray:7.0,7.0;"/><polygon fill="#A80036" points="174.25,180.5,183.25,184.5,179.25,180.5,183.25,176.5,174.25,180.5" style="stroke:#A80036;stroke-width:1.0;"/><!--MD5=[28c74d88b6803d8613ba8baeebbc02fb]
@startuml
skinparam svgLinkTarget _parent
 
 package org.jgrapes {
     package org.jgrapes.core [[../core/package-summary.html]] {
     }
 
     package org.jgrapes.util [[../util/package-summary.html]] {
     }
 
     package org.jgrapes.io [[../io/package-summary.html]] {
     }
 
     package org.jgrapes.http [[../http/package-summary.html]] {
     }
 }
 
 org.jgrapes.core <.right. org.jgrapes.util
 org.jgrapes.core <.. org.jgrapes.io
 org.jgrapes.util <.. org.jgrapes.io
 org.jgrapes.io <.right. org.jgrapes.http
@enduml

PlantUML version 1.2022.1(Tue Feb 01 19:19:58 CET 2022)
(GPL source distribution)
Java Runtime: OpenJDK Runtime Environment
JVM: OpenJDK 64-Bit Server VM
Default Encoding: UTF-8
Language: de
Country: DE
--></g></svg>