<?xml version="1.0" encoding="us-ascii" standalone="no"?><svg xmlns="http://www.w3.org/2000/svg" xmlns:xlink="http://www.w3.org/1999/xlink" contentStyleType="text/css" height="296px" preserveAspectRatio="none" style="width:313px;height:296px;background:#FFFFFF;" version="1.1" viewBox="0 0 313 296" width="313px" zoomAndPan="magnify"><defs/><g><!--cluster org--><g id="cluster_org"><path d="M8.5,6 L36.5,6 A3.75,3.75 0 0 1 39,8.5 L46,28.2969 L303.5,28.2969 A2.5,2.5 0 0 1 306,30.7969 L306,286.69 A2.5,2.5 0 0 1 303.5,289.19 L8.5,289.19 A2.5,2.5 0 0 1 6,286.69 L6,8.5 A2.5,2.5 0 0 1 8.5,6 " fill="none" style="stroke:#000000;stroke-width:1.5;"/><line style="stroke:#000000;stroke-width:1.5;" x1="6" x2="46" y1="28.2969" y2="28.2969"/><text fill="#000000" font-family="sans-serif" font-size="14" font-weight="bold" lengthAdjust="spacing" textLength="27" x="10" y="20.9951">org</text></g><!--cluster jgrapes--><g id="cluster_jgrapes"><path d="M32.5,49 L92.5,49 A3.75,3.75 0 0 1 95,51.5 L102,71.2969 L279.5,71.2969 A2.5,2.5 0 0 1 282,73.7969 L282,262.69 A2.5,2.5 0 0 1 279.5,265.19 L32.5,265.19 A2.5,2.5 0 0 1 30,262.69 L30,51.5 A2.5,2.5 0 0 1 32.5,49 " fill="none" style="stroke:#000000;stroke-width:1.5;"/><line style="stroke:#000000;stroke-width:1.5;" x1="30" x2="102" y1="71.2969" y2="71.2969"/><text fill="#000000" font-family="sans-serif" font-size="14" font-weight="bold" lengthAdjust="spacing" textLength="59" x="34" y="63.9951">jgrapes</text></g><a href="../core/package-summary.html" target="_parent" title="../core/package-summary.html" xlink:actuate="onRequest" xlink:href="../core/package-summary.html" xlink:show="new" xlink:title="../core/package-summary.html" xlink:type="simple"><path d="M48.5,84 L85.5,84 A3.75,3.75 0 0 1 88,86.5 L95,106.2969 L99.5,106.2969 A2.5,2.5 0 0 1 102,108.7969 L102,134.0938 A2.5,2.5 0 0 1 99.5,136.5938 L48.5,136.5938 A2.5,2.5 0 0 1 46,134.0938 L46,86.5 A2.5,2.5 0 0 1 48.5,84 " fill="#F1F1F1" style="stroke:#181818;stroke-width:0.5;"/><line style="stroke:#181818;stroke-width:0.5;" x1="46" x2="95" y1="106.2969" y2="106.2969"/><text fill="#000000" font-family="sans-serif" font-size="14" font-weight="bold" lengthAdjust="spacing" textLength="36" x="50" y="98.9951">core</text></a><a href="../util/package-summary.html" target="_parent" title="../util/package-summary.html" xlink:actuate="onRequest" xlink:href="../util/package-summary.html" xlink:show="new" xlink:title="../util/package-summary.html" xlink:type="simple"><path d="M139.5,84 L164.5,84 A3.75,3.75 0 0 1 167,86.5 L174,106.2969 L178.5,106.2969 A2.5,2.5 0 0 1 181,108.7969 L181,134.0938 A2.5,2.5 0 0 1 178.5,136.5938 L139.5,136.5938 A2.5,2.5 0 0 1 137,134.0938 L137,86.5 A2.5,2.5 0 0 1 139.5,84 " fill="#F1F1F1" style="stroke:#181818;stroke-width:0.5;"/><line style="stroke:#181818;stroke-width:0.5;" x1="137" x2="174" y1="106.2969" y2="106.2969"/><text fill="#000000" font-family="sans-serif" font-size="14" font-weight="bold" lengthAdjust="spacing" textLength="24" x="141" y="98.9951">util</text></a><a href="../io/package-summary.html" target="_parent" title="../io/package-summary.html" xlink:actuate="onRequest" xlink:href="../io/package-summary.html" xlink:show="new" xlink:title="../io/package-summary.html" xlink:type="simple"><path d="M144.5,196.6 L159.5,196.6 A3.75,3.75 0 0 1 162,199.1 L169,218.8969 L173.5,218.8969 A2.5,2.5 0 0 1 176,221.3969 L176,246.6938 A2.5,2.5 0 0 1 173.5,249.1938 L144.5,249.1938 A2.5,2.5 0 0 1 142,246.6938 L142,199.1 A2.5,2.5 0 0 1 144.5,196.6 " fill="#F1F1F1" style="stroke:#181818;stroke-width:0.5;"/><line style="stroke:#181818;stroke-width:0.5;" x1="142" x2="169" y1="218.8969" y2="218.8969"/><text fill="#000000" font-family="sans-serif" font-size="14" font-weight="bold" lengthAdjust="spacing" textLength="14" x="146" y="211.5951">io</text></a><a href="../http/package-summary.html" target="_parent" title="../http/package-summary.html" xlink:actuate="onRequest" xlink:href="../http/package-summary.html" xlink:show="new" xlink:title="../http/package-summary.html" xlink:type="simple"><path d="M213.5,196.6 L246.5,196.6 A3.75,3.75 0 0 1 249,199.1 L256,218.8969 L260.5,218.8969 A2.5,2.5 0 0 1 263,221.3969 L263,246.6938 A2.5,2.5 0 0 1 260.5,249.1938 L213.5,249.1938 A2.5,2.5 0 0 1 211,246.6938 L211,199.1 A2.5,2.5 0 0 1 213.5,196.6 " fill="#F1F1F1" style="stroke:#181818;stroke-width:0.5;"/><line style="stroke:#181818;stroke-width:0.5;" x1="211" x2="256" y1="218.8969" y2="218.8969"/><text fill="#000000" font-family="sans-serif" font-size="14" font-weight="bold" lengthAdjust="spacing" textLength="32" x="215" y="211.5951">http</text></a><a href="../mail/package-summary.html" target="_parent" title="../mail/package-summary.html" xlink:actuate="onRequest" xlink:href="../mail/package-summary.html" xlink:show="new" xlink:title="../mail/package-summary.html" xlink:type="simple"><path d="M218,84 L250,84 A3.75,3.75 0 0 1 252.5,86.5 L259.5,106.2969 L264,106.2969 A2.5,2.5 0 0 1 266.5,108.7969 L266.5,134.0938 A2.5,2.5 0 0 1 264,136.5938 L218,136.5938 A2.5,2.5 0 0 1 215.5,134.0938 L215.5,86.5 A2.5,2.5 0 0 1 218,84 " fill="#F1F1F1" style="stroke:#181818;stroke-width:0.5;"/><line style="stroke:#181818;stroke-width:0.5;" x1="215.5" x2="259.5" y1="106.2969" y2="106.2969"/><text fill="#000000" font-family="sans-serif" font-size="14" font-weight="bold" lengthAdjust="spacing" textLength="31" x="219.5" y="98.9951">mail</text></a><!--reverse link core to util--><g id="link_core_util"><path codeLine="20" d="M108.22,110.3 C119.76,110.3 125.29,110.3 136.82,110.3 " fill="none" id="core-backto-util" style="stroke:#181818;stroke-width:1.0;stroke-dasharray:7.0,7.0;"/><polygon fill="#181818" points="102.22,110.3,111.22,114.3,107.22,110.3,111.22,106.3,102.22,110.3" style="stroke:#181818;stroke-width:1.0;"/></g><!--reverse link core to io--><g id="link_core_io"><path codeLine="21" d="M97.3666,141.7071 C111.8866,160.5971 127.78,181.28 141.7,199.38 " fill="none" id="core-backto-io" style="stroke:#181818;stroke-width:1.0;stroke-dasharray:7.0,7.0;"/><polygon fill="#181818" points="93.71,136.95,96.0235,146.5233,96.7571,140.9142,102.3662,141.6479,93.71,136.95" style="stroke:#181818;stroke-width:1.0;"/></g><!--reverse link util to io--><g id="link_util_io"><path codeLine="22" d="M159,142.95 C159,160.82 159,178.55 159,196.38 " fill="none" id="util-backto-io" style="stroke:#181818;stroke-width:1.0;stroke-dasharray:7.0,7.0;"/><polygon fill="#181818" points="159,136.95,155,145.95,159,141.95,163,145.95,159,136.95" style="stroke:#181818;stroke-width:1.0;"/></g><!--reverse link io to http--><g id="link_io_http"><path codeLine="23" d="M182.37,222.89 C193.89,222.89 199.42,222.89 210.95,222.89 " fill="none" id="io-backto-http" style="stroke:#181818;stroke-width:1.0;stroke-dasharray:7.0,7.0;"/><polygon fill="#181818" points="176.37,222.89,185.37,226.89,181.37,222.89,185.37,218.89,176.37,222.89" style="stroke:#181818;stroke-width:1.0;"/></g><!--link mail to io--><g id="link_mail_io"><path codeLine="24" d="M221.98,136.95 C208.17,155.58 193.193,175.7699 179.813,193.8199 " fill="none" id="mail-to-io" style="stroke:#181818;stroke-width:1.0;stroke-dasharray:7.0,7.0;"/><polygon fill="#181818" points="176.24,198.64,184.8129,193.7918,179.2175,194.6232,178.3861,189.0278,176.24,198.64" style="stroke:#181818;stroke-width:1.0;"/></g><!--SRC=[fP113eCW44Ntd68kqF42FKANtHdJJ0n1gWY1iKdJzEvrQjqKZ0jP_S3F6-Qbtew18Zb83tEnOt-bQ3J3RRxK8ojG4AZjoMZmqU3TH0ewmKk1dC8JjZvgg6l4IbBrgvpIv1p59tRiXgPP0MyPi4MQs0uBIT8HalKBn_eZb8uvB1n9-oGvspH7wtQIzcdVhsMYpnYjwHWpSSKk_bbHkU-zqgooE5EK59fJm6ph3m00]--></g></svg>