<?xml version="1.0" encoding="UTF-8" standalone="no"?><svg xmlns="http://www.w3.org/2000/svg" xmlns:xlink="http://www.w3.org/1999/xlink" contentScriptType="application/ecmascript" contentStyleType="text/css" height="490px" preserveAspectRatio="none" style="width:637px;height:490px;" version="1.1" viewBox="0 0 637 490" width="637px" zoomAndPan="magnify"><defs><filter height="300%" id="fsxfkn7zwsfxo" width="300%" x="-1" y="-1"><feGaussianBlur result="blurOut" stdDeviation="2.0"/><feColorMatrix in="blurOut" result="blurOut2" type="matrix" values="0 0 0 0 0 0 0 0 0 0 0 0 0 0 0 0 0 0 .4 0"/><feOffset dx="4.0" dy="4.0" in="blurOut2" result="blurOut3"/><feBlend in="SourceGraphic" in2="blurOut3" mode="normal"/></filter></defs><g><!--cluster org.jgrapes--><polygon fill="#FFFFFF" filter="url(#fsxfkn7zwsfxo)" points="22,24,119,24,126,46.2969,615,46.2969,615,478,22,478,22,24" style="stroke: #000000; stroke-width: 2.0;"/><line style="stroke: #000000; stroke-width: 2.0;" x1="22" x2="126" y1="46.2969" y2="46.2969"/><text fill="#000000" font-family="sans-serif" font-size="14" font-weight="bold" lengthAdjust="spacingAndGlyphs" textLength="91" x="26" y="38.9951">org.jgrapes</text><!--cluster org.jgrapes.*--><polygon fill="#FFFFFF" filter="url(#fsxfkn7zwsfxo)" points="54,76,163,76,170,98.2969,331,98.2969,331,170,54,170,54,76" style="stroke: #000000; stroke-width: 2.0;"/><line style="stroke: #000000; stroke-width: 2.0;" x1="54" x2="170" y1="98.2969" y2="98.2969"/><text fill="#000000" font-family="sans-serif" font-size="14" font-weight="bold" lengthAdjust="spacingAndGlyphs" textLength="103" x="58" y="90.9951">org.jgrapes.*</text><!--cluster org.jgrapes.osgi--><polygon fill="#FFFFFF" filter="url(#fsxfkn7zwsfxo)" points="54,210,189,210,196,232.2969,583,232.2969,583,446,54,446,54,210" style="stroke: #000000; stroke-width: 2.0;"/><line style="stroke: #000000; stroke-width: 2.0;" x1="54" x2="196" y1="232.2969" y2="232.2969"/><text fill="#000000" font-family="sans-serif" font-size="14" font-weight="bold" lengthAdjust="spacingAndGlyphs" textLength="129" x="58" y="224.9951">org.jgrapes.osgi</text><polygon fill="#FBFB77" filter="url(#fsxfkn7zwsfxo)" points="97.75,120.5,97.75,145.6328,306.75,145.6328,306.75,130.5,296.75,120.5,97.75,120.5" style="stroke: #A80036; stroke-width: 1.0;"/><line style="stroke: #A80036; stroke-width: 1.0;" x1="296.75" x2="296.75" y1="120.5" y2="130.5"/><line style="stroke: #A80036; stroke-width: 1.0;" x1="306.75" x2="296.75" y1="130.5" y2="130.5"/><text fill="#000000" font-family="sans-serif" font-size="13" lengthAdjust="spacingAndGlyphs" textLength="188" x="103.75" y="137.5669">JGrapes comoponent libraries</text><a target="_parent" xlink:actuate="onRequest" xlink:href="org/jgrapes/osgi/factory/package-summary.html#package.description" xlink:show="new" xlink:title="org/jgrapes/osgi/factory/package-summary.html#package.description" xlink:type="simple"><polygon fill="#FFFFFF" filter="url(#fsxfkn7zwsfxo)" points="224,254.5,420,254.5,427,276.7969,434,276.7969,434,307.0938,224,307.0938,224,254.5" style="stroke: #000000; stroke-width: 2.0;"/><line style="stroke: #000000; stroke-width: 2.0;" x1="224" x2="427" y1="276.7969" y2="276.7969"/><text fill="#000000" font-family="sans-serif" font-size="14" font-weight="bold" lengthAdjust="spacingAndGlyphs" textLength="190" x="228" y="269.4951">org.jgrapes.osgi.factory</text></a><a target="_parent" xlink:actuate="onRequest" xlink:href="org/jgrapes/osgi/httpserver/package-summary.html#package.description" xlink:show="new" xlink:title="org/jgrapes/osgi/httpserver/package-summary.html#package.description" xlink:type="simple"><polygon fill="#FFFFFF" filter="url(#fsxfkn7zwsfxo)" points="86,368.5,310,368.5,317,390.7969,324,390.7969,324,421.0938,86,421.0938,86,368.5" style="stroke: #000000; stroke-width: 2.0;"/><line style="stroke: #000000; stroke-width: 2.0;" x1="86" x2="317" y1="390.7969" y2="390.7969"/><text fill="#000000" font-family="sans-serif" font-size="14" font-weight="bold" lengthAdjust="spacingAndGlyphs" textLength="218" x="90" y="383.4951">org.jgrapes.osgi.httpserver</text></a><a target="_parent" xlink:actuate="onRequest" xlink:href="org/jgrapes/osgi/portal/package-summary.html#package.description" xlink:show="new" xlink:title="org/jgrapes/osgi/portal/package-summary.html#package.description" xlink:type="simple"><polygon fill="#FFFFFF" filter="url(#fsxfkn7zwsfxo)" points="359,368.5,545,368.5,552,390.7969,559,390.7969,559,421.0938,359,421.0938,359,368.5" style="stroke: #000000; stroke-width: 2.0;"/><line style="stroke: #000000; stroke-width: 2.0;" x1="359" x2="552" y1="390.7969" y2="390.7969"/><text fill="#000000" font-family="sans-serif" font-size="14" font-weight="bold" lengthAdjust="spacingAndGlyphs" textLength="180" x="363" y="383.4951">org.jgrapes.osgi.portal</text></a><!--link org.jgrapes.* to org.jgrapes.osgi--><path d="M62,170.4335 C62,170.9192 62,171.4078 62,171.8992 C62,172.882 62,173.8759 62,174.88 C62,176.8882 62,178.9368 62,181.0178 C62,189.342 62,198.1846 62,207.0266 C62,207.5793 62,208.1319 62,208.6844 C62,208.9606 62,209.2368 62,209.513 C62,209.6511 62,209.7892 62,209.9272 " fill="none" id="org.jgrapes.*-org.jgrapes.osgi" style="stroke: #A80036; stroke-width: 1.0; stroke-dasharray: 7.0,7.0;"/><polygon fill="#A80036" points="62,170.4335,58,179.4335,62,175.4335,66,179.4335,62,170.4335" style="stroke: #A80036; stroke-width: 1.0;"/><!--link org.jgrapes.osgi.factory to org.jgrapes.osgi.httpserver--><path d="M296.695,311.179 C277.048,328.925 252.191,351.376 233.316,368.425 " fill="none" id="org.jgrapes.osgi.factory-org.jgrapes.osgi.httpserver" style="stroke: #A80036; stroke-width: 1.0; stroke-dasharray: 7.0,7.0;"/><polygon fill="#A80036" points="300.552,307.695,291.1921,310.7598,296.8417,311.0467,296.5548,316.6963,300.552,307.695" style="stroke: #A80036; stroke-width: 1.0;"/><!--link org.jgrapes.osgi.factory to org.jgrapes.osgi.portal--><path d="M362.868,311.179 C383.466,328.925 409.525,351.376 429.314,368.425 " fill="none" id="org.jgrapes.osgi.factory-org.jgrapes.osgi.portal" style="stroke: #A80036; stroke-width: 1.0; stroke-dasharray: 7.0,7.0;"/><polygon fill="#A80036" points="358.825,307.695,363.0306,316.6008,362.6123,310.9594,368.2537,310.5411,358.825,307.695" style="stroke: #A80036; stroke-width: 1.0;"/><!--
@startuml
skinparam svgLinkTarget _parent

package org.jgrapes {

    package "org.jgrapes.*" {
    	note "JGrapes comoponent libraries" as LibrariesNote
    }

	package org.jgrapes.osgi {
    	package org.jgrapes.osgi.factory [[org/jgrapes/osgi/factory/package-summary.html#package.description]] {
    	}
    	
    	package org.jgrapes.osgi.httpserver [[org/jgrapes/osgi/httpserver/package-summary.html#package.description]] {
    	}
    	
    	package org.jgrapes.osgi.portal [[org/jgrapes/osgi/portal/package-summary.html#package.description]] {
    	}
	}

}

"org.jgrapes.*" <.. org.jgrapes.osgi

org.jgrapes.osgi.factory <.. org.jgrapes.osgi.httpserver
org.jgrapes.osgi.factory <.. org.jgrapes.osgi.portal
@enduml

PlantUML version 1.2017.18(Fri Oct 06 16:56:32 UTC 2017)
(GPL source distribution)
Java Runtime: Java(TM) SE Runtime Environment
JVM: Java HotSpot(TM) 64-Bit Server VM
Java Version: 1.8.0_151-b12
Operating System: Linux
OS Version: 4.14.12-041412-generic
Default Encoding: UTF-8
Language: en
Country: US
--></g></svg>