<?xml version="1.0" encoding="UTF-8" standalone="no"?><svg xmlns="http://www.w3.org/2000/svg" xmlns:xlink="http://www.w3.org/1999/xlink" contentScriptType="application/ecmascript" contentStyleType="text/css" height="479px" preserveAspectRatio="none" style="width:626px;height:479px;" version="1.1" viewBox="0 0 626 479" width="626px" zoomAndPan="magnify"><defs><filter height="300%" id="fk0h0d8" width="300%" x="-1" y="-1"><feGaussianBlur result="blurOut" stdDeviation="2.0"/><feColorMatrix in="blurOut" result="blurOut2" type="matrix" values="0 0 0 0 0 0 0 0 0 0 0 0 0 0 0 0 0 0 .4 0"/><feOffset dx="4.0" dy="4.0" in="blurOut2" result="blurOut3"/><feBlend in="SourceGraphic" in2="blurOut3" mode="normal"/></filter></defs><g><!--cluster org.jgrapes--><polygon fill="#FFFFFF" filter="url(#fk0h0d8)" points="22,24,119,24,126,46.2969,619,46.2969,619,472,22,472,22,24" style="stroke: #000000; stroke-width: 2.0;"/><line style="stroke: #000000; stroke-width: 2.0;" x1="22" x2="126" y1="46.2969" y2="46.2969"/><text fill="#000000" font-family="sans-serif" font-size="14" font-weight="bold" lengthAdjust="spacingAndGlyphs" textLength="91" x="26" y="38.9951">org.jgrapes</text><!--cluster org.jgrapes.*--><polygon fill="#FFFFFF" filter="url(#fk0h0d8)" points="54,75,163,75,170,97.2969,335,97.2969,335,167,54,167,54,75" style="stroke: #000000; stroke-width: 2.0;"/><line style="stroke: #000000; stroke-width: 2.0;" x1="54" x2="170" y1="97.2969" y2="97.2969"/><text fill="#000000" font-family="sans-serif" font-size="14" font-weight="bold" lengthAdjust="spacingAndGlyphs" textLength="103" x="58" y="89.9951">org.jgrapes.*</text><!--cluster org.jgrapes.osgi--><polygon fill="#FFFFFF" filter="url(#fk0h0d8)" points="54,207,189,207,196,229.2969,587,229.2969,587,440,54,440,54,207" style="stroke: #000000; stroke-width: 2.0;"/><line style="stroke: #000000; stroke-width: 2.0;" x1="54" x2="196" y1="229.2969" y2="229.2969"/><text fill="#000000" font-family="sans-serif" font-size="14" font-weight="bold" lengthAdjust="spacingAndGlyphs" textLength="129" x="58" y="221.9951">org.jgrapes.osgi</text><polygon fill="#FBFB77" filter="url(#fk0h0d8)" points="97.5,118,97.5,143.1328,310.5,143.1328,310.5,128,300.5,118,97.5,118" style="stroke: #A80036; stroke-width: 1.0;"/><line style="stroke: #A80036; stroke-width: 1.0;" x1="300.5" x2="300.5" y1="118" y2="128"/><line style="stroke: #A80036; stroke-width: 1.0;" x1="310.5" x2="300.5" y1="128" y2="128"/><text fill="#000000" font-family="sans-serif" font-size="13" lengthAdjust="spacingAndGlyphs" textLength="192" x="103.5" y="135.0669">JGrapes comoponent libraries</text><a target="_parent" xlink:actuate="onRequest" xlink:href="org/jgrapes/osgi/factory/package-summary.html#package.description" xlink:show="new" xlink:title="org/jgrapes/osgi/factory/package-summary.html#package.description" xlink:type="simple"><polygon fill="#FFFFFF" filter="url(#fk0h0d8)" points="227,250,423,250,430,272.2969,437,272.2969,437,302.5938,227,302.5938,227,250" style="stroke: #000000; stroke-width: 2.0;"/><line style="stroke: #000000; stroke-width: 2.0;" x1="227" x2="430" y1="272.2969" y2="272.2969"/><text fill="#000000" font-family="sans-serif" font-size="14" font-weight="bold" lengthAdjust="spacingAndGlyphs" textLength="190" x="231" y="264.9951">org.jgrapes.osgi.factory</text></a><a target="_parent" xlink:actuate="onRequest" xlink:href="org/jgrapes/osgi/httpserver/package-summary.html#package.description" xlink:show="new" xlink:title="org/jgrapes/osgi/httpserver/package-summary.html#package.description" xlink:type="simple"><polygon fill="#FFFFFF" filter="url(#fk0h0d8)" points="86.5,363,311.5,363,318.5,385.2969,325.5,385.2969,325.5,415.5938,86.5,415.5938,86.5,363" style="stroke: #000000; stroke-width: 2.0;"/><line style="stroke: #000000; stroke-width: 2.0;" x1="86.5" x2="318.5" y1="385.2969" y2="385.2969"/><text fill="#000000" font-family="sans-serif" font-size="14" font-weight="bold" lengthAdjust="spacingAndGlyphs" textLength="219" x="90.5" y="377.9951">org.jgrapes.osgi.httpserver</text></a><a target="_parent" xlink:actuate="onRequest" xlink:href="org/jgrapes/osgi/portal/package-summary.html#package.description" xlink:show="new" xlink:title="org/jgrapes/osgi/portal/package-summary.html#package.description" xlink:type="simple"><polygon fill="#FFFFFF" filter="url(#fk0h0d8)" points="361,363,549,363,556,385.2969,563,385.2969,563,415.5938,361,415.5938,361,363" style="stroke: #000000; stroke-width: 2.0;"/><line style="stroke: #000000; stroke-width: 2.0;" x1="361" x2="556" y1="385.2969" y2="385.2969"/><text fill="#000000" font-family="sans-serif" font-size="14" font-weight="bold" lengthAdjust="spacingAndGlyphs" textLength="182" x="365" y="377.9951">org.jgrapes.osgi.portal</text></a><path d="M62,167.3545 C62,167.5905 62,167.8272 62,168.0645 C62,168.5392 62,169.0166 62,169.4964 C62,170.4561 62,171.4259 62,172.4049 C62,174.3629 62,176.3576 62,178.3816 C62,186.4778 62,195.0433 62,203.6069 C62,204.6774 62,205.7478 62,206.8172 " fill="none" style="stroke: #A80036; stroke-width: 1.0; stroke-dasharray: 7.0,7.0;"/><polygon fill="#A80036" points="62,167.3545,58,176.3545,62,172.3545,66,176.3545,62,167.3545" style="stroke: #A80036; stroke-width: 1.0;"/><path d="M298.3032,306.7201 C278.7831,324.2263 254.4339,346.0633 235.6459,362.9128 " fill="none" style="stroke: #A80036; stroke-width: 1.0; stroke-dasharray: 7.0,7.0;"/><polygon fill="#A80036" points="302.1398,303.2794,292.7689,306.3103,298.4174,306.6176,298.1101,312.2661,302.1398,303.2794" style="stroke: #A80036; stroke-width: 1.0;"/><path d="M366.7665,306.7201 C386.9064,324.2263 412.0285,346.0633 431.413,362.9128 " fill="none" style="stroke: #A80036; stroke-width: 1.0; stroke-dasharray: 7.0,7.0;"/><polygon fill="#A80036" points="362.8082,303.2794,366.9768,312.2026,366.5819,306.5595,372.225,306.1647,362.8082,303.2794" style="stroke: #A80036; stroke-width: 1.0;"/></g></svg>