<?xml version="1.0" encoding="UTF-8" standalone="no"?><svg xmlns="http://www.w3.org/2000/svg" xmlns:xlink="http://www.w3.org/1999/xlink" contentScriptType="application/ecmascript" contentStyleType="text/css" height="349px" preserveAspectRatio="none" style="width:541px;height:349px;" version="1.1" viewBox="0 0 541 349" width="541px" zoomAndPan="magnify"><defs><filter height="300%" id="fsxfkn7zwsfxo" width="300%" x="-1" y="-1"><feGaussianBlur result="blurOut" stdDeviation="2.0"/><feColorMatrix in="blurOut" result="blurOut2" type="matrix" values="0 0 0 0 0 0 0 0 0 0 0 0 0 0 0 0 0 0 .4 0"/><feOffset dx="4.0" dy="4.0" in="blurOut2" result="blurOut3"/><feBlend in="SourceGraphic" in2="blurOut3" mode="normal"/></filter></defs><g><!--cluster org.jgrapes--><polygon fill="#FFFFFF" filter="url(#fsxfkn7zwsfxo)" points="14,16,111,16,118,38.2969,519,38.2969,519,337,14,337,14,16" style="stroke: #000000; stroke-width: 2.0;"/><line style="stroke: #000000; stroke-width: 2.0;" x1="14" x2="118" y1="38.2969" y2="38.2969"/><text fill="#000000" font-family="sans-serif" font-size="14" font-weight="bold" lengthAdjust="spacingAndGlyphs" textLength="91" x="18" y="30.9951">org.jgrapes</text><!--cluster org.jgrapes.*--><polygon fill="#FFFFFF" filter="url(#fsxfkn7zwsfxo)" points="196,43,305,43,312,65.2969,457,65.2969,457,103,196,103,196,43" style="stroke: #000000; stroke-width: 2.0;"/><line style="stroke: #000000; stroke-width: 2.0;" x1="196" x2="312" y1="65.2969" y2="65.2969"/><text fill="#000000" font-family="sans-serif" font-size="14" font-weight="bold" lengthAdjust="spacingAndGlyphs" textLength="103" x="200" y="57.9951">org.jgrapes.*</text><!--cluster org.jgrapes.osgi--><polygon fill="#FFFFFF" filter="url(#fsxfkn7zwsfxo)" points="22,128,157,128,164,150.2969,511,150.2969,511,329,22,329,22,128" style="stroke: #000000; stroke-width: 2.0;"/><line style="stroke: #000000; stroke-width: 2.0;" x1="22" x2="164" y1="150.2969" y2="150.2969"/><text fill="#000000" font-family="sans-serif" font-size="14" font-weight="bold" lengthAdjust="spacingAndGlyphs" textLength="129" x="26" y="142.9951">org.jgrapes.osgi</text><polygon fill="#FBFB77" filter="url(#fsxfkn7zwsfxo)" points="204.5,70,204.5,95.1328,413.5,95.1328,413.5,80,403.5,70,204.5,70" style="stroke: #A80036; stroke-width: 1.0;"/><line style="stroke: #A80036; stroke-width: 1.0;" x1="403.5" x2="403.5" y1="70" y2="80"/><line style="stroke: #A80036; stroke-width: 1.0;" x1="413.5" x2="403.5" y1="80" y2="80"/><text fill="#000000" font-family="sans-serif" font-size="13" lengthAdjust="spacingAndGlyphs" textLength="188" x="210.5" y="87.0669">JGrapes comoponent libraries</text><a target="_parent" xlink:actuate="onRequest" xlink:href="org/jgrapes/osgi/factory/package-summary.html#package.description" xlink:show="new" xlink:title="org/jgrapes/osgi/factory/package-summary.html#package.description" xlink:type="simple"><polygon fill="#FFFFFF" filter="url(#fsxfkn7zwsfxo)" points="97,155,293,155,300,177.2969,307,177.2969,307,207.5938,97,207.5938,97,155" style="stroke: #000000; stroke-width: 2.0;"/><line style="stroke: #000000; stroke-width: 2.0;" x1="97" x2="300" y1="177.2969" y2="177.2969"/><text fill="#000000" font-family="sans-serif" font-size="14" font-weight="bold" lengthAdjust="spacingAndGlyphs" textLength="190" x="101" y="169.9951">org.jgrapes.osgi.factory</text></a><a target="_parent" xlink:actuate="onRequest" xlink:href="org/jgrapes/osgi/httpserver/package-summary.html#package.description" xlink:show="new" xlink:title="org/jgrapes/osgi/httpserver/package-summary.html#package.description" xlink:type="simple"><polygon fill="#FFFFFF" filter="url(#fsxfkn7zwsfxo)" points="30,268,254,268,261,290.2969,268,290.2969,268,320.5938,30,320.5938,30,268" style="stroke: #000000; stroke-width: 2.0;"/><line style="stroke: #000000; stroke-width: 2.0;" x1="30" x2="261" y1="290.2969" y2="290.2969"/><text fill="#000000" font-family="sans-serif" font-size="14" font-weight="bold" lengthAdjust="spacingAndGlyphs" textLength="218" x="34" y="282.9951">org.jgrapes.osgi.httpserver</text></a><a target="_parent" xlink:actuate="onRequest" xlink:href="org/jgrapes/osgi/portal/package-summary.html#package.description" xlink:show="new" xlink:title="org/jgrapes/osgi/portal/package-summary.html#package.description" xlink:type="simple"><polygon fill="#FFFFFF" filter="url(#fsxfkn7zwsfxo)" points="303,268,489,268,496,290.2969,503,290.2969,503,320.5938,303,320.5938,303,268" style="stroke: #000000; stroke-width: 2.0;"/><line style="stroke: #000000; stroke-width: 2.0;" x1="303" x2="496" y1="290.2969" y2="290.2969"/><text fill="#000000" font-family="sans-serif" font-size="14" font-weight="bold" lengthAdjust="spacingAndGlyphs" textLength="180" x="307" y="282.9951">org.jgrapes.osgi.portal</text></a><!--link org.jgrapes.* to org.jgrapes.osgi--><path d="M449,103.2977 C449,103.5901 449,103.8846 449,104.181 C449,105.3668 449,106.584 449,107.8283 C449,110.3168 449,112.9134 449,115.5817 C449,118.25 449,120.9902 449,123.7658 C449,125.1536 449,126.5504 449,127.9514 " fill="none" id="org.jgrapes.*-org.jgrapes.osgi" style="stroke: #A80036; stroke-width: 1.0; stroke-dasharray: 7.0,7.0;"/><polygon fill="#A80036" points="449,103.2977,445,112.2977,449,108.2977,453,112.2977,449,103.2977" style="stroke: #A80036; stroke-width: 1.0;"/><!--link org.jgrapes.osgi.factory to org.jgrapes.osgi.httpserver--><path d="M187.2064,213.0411 C179.1045,230.315 169.1754,251.4845 161.4701,267.9128 " fill="none" id="org.jgrapes.osgi.factory-org.jgrapes.osgi.httpserver" style="stroke: #A80036; stroke-width: 1.0; stroke-dasharray: 7.0,7.0;"/><polygon fill="#A80036" points="189.4397,208.2794,181.9964,214.729,187.3164,212.8062,189.2393,218.1262,189.4397,208.2794" style="stroke: #A80036; stroke-width: 1.0;"/><!--link org.jgrapes.osgi.factory to org.jgrapes.osgi.portal--><path d="M253.9489,210.7051 C285.3413,228.3536 325.0527,250.6789 355.5905,267.8469 " fill="none" id="org.jgrapes.osgi.factory-org.jgrapes.osgi.portal" style="stroke: #A80036; stroke-width: 1.0; stroke-dasharray: 7.0,7.0;"/><polygon fill="#A80036" points="249.3797,208.1363,255.2645,216.0337,253.7381,210.5867,259.1851,209.0603,249.3797,208.1363" style="stroke: #A80036; stroke-width: 1.0;"/><!--
@startuml
skinparam svgLinkTarget _parent

package org.jgrapes {

    package "org.jgrapes.*" {
    	note "JGrapes comoponent libraries" as LibrariesNote
    }

	package org.jgrapes.osgi {
    	package org.jgrapes.osgi.factory [[org/jgrapes/osgi/factory/package-summary.html#package.description]] {
    	}
    	
    	package org.jgrapes.osgi.httpserver [[org/jgrapes/osgi/httpserver/package-summary.html#package.description]] {
    	}
    	
    	package org.jgrapes.osgi.portal [[org/jgrapes/osgi/portal/package-summary.html#package.description]] {
    	}
	}

}

"org.jgrapes.*" <.. org.jgrapes.osgi

org.jgrapes.osgi.factory <.. org.jgrapes.osgi.httpserver
org.jgrapes.osgi.factory <.. org.jgrapes.osgi.portal
@enduml

PlantUML version 1.2017.18(Fri Oct 06 16:56:32 UTC 2017)
(GPL source distribution)
Java Runtime: OpenJDK Runtime Environment
JVM: OpenJDK 64-Bit Server VM
Java Version: 1.8.0_282-b08
Operating System: Linux
OS Version: 5.4.0-1039-azure
Default Encoding: UTF-8
Language: en
Country: null
--></g></svg>