<?xml version="1.0" encoding="UTF-8" standalone="no"?><svg xmlns="http://www.w3.org/2000/svg" xmlns:xlink="http://www.w3.org/1999/xlink" contentScriptType="application/ecmascript" contentStyleType="text/css" height="349px" preserveAspectRatio="none" style="width:545px;height:349px;" version="1.1" viewBox="0 0 545 349" width="545px" zoomAndPan="magnify"><defs><filter height="300%" id="fsxfkn7zwsfxo" width="300%" x="-1" y="-1"><feGaussianBlur result="blurOut" stdDeviation="2.0"/><feColorMatrix in="blurOut" result="blurOut2" type="matrix" values="0 0 0 0 0 0 0 0 0 0 0 0 0 0 0 0 0 0 .4 0"/><feOffset dx="4.0" dy="4.0" in="blurOut2" result="blurOut3"/><feBlend in="SourceGraphic" in2="blurOut3" mode="normal"/></filter></defs><g><!--cluster org.jgrapes--><polygon fill="#FFFFFF" filter="url(#fsxfkn7zwsfxo)" points="14,16,111,16,118,38.2969,523,38.2969,523,337,14,337,14,16" style="stroke: #000000; stroke-width: 2.0;"/><line style="stroke: #000000; stroke-width: 2.0;" x1="14" x2="118" y1="38.2969" y2="38.2969"/><text fill="#000000" font-family="sans-serif" font-size="14" font-weight="bold" lengthAdjust="spacingAndGlyphs" textLength="91" x="18" y="30.9951">org.jgrapes</text><!--cluster org.jgrapes.*--><polygon fill="#FFFFFF" filter="url(#fsxfkn7zwsfxo)" points="195,43,304,43,311,65.2969,460,65.2969,460,103,195,103,195,43" style="stroke: #000000; stroke-width: 2.0;"/><line style="stroke: #000000; stroke-width: 2.0;" x1="195" x2="311" y1="65.2969" y2="65.2969"/><text fill="#000000" font-family="sans-serif" font-size="14" font-weight="bold" lengthAdjust="spacingAndGlyphs" textLength="103" x="199" y="57.9951">org.jgrapes.*</text><!--cluster org.jgrapes.osgi--><polygon fill="#FFFFFF" filter="url(#fsxfkn7zwsfxo)" points="22,128,157,128,164,150.2969,515,150.2969,515,329,22,329,22,128" style="stroke: #000000; stroke-width: 2.0;"/><line style="stroke: #000000; stroke-width: 2.0;" x1="22" x2="164" y1="150.2969" y2="150.2969"/><text fill="#000000" font-family="sans-serif" font-size="14" font-weight="bold" lengthAdjust="spacingAndGlyphs" textLength="129" x="26" y="142.9951">org.jgrapes.osgi</text><polygon fill="#FBFB77" filter="url(#fsxfkn7zwsfxo)" points="203.5,70,203.5,95.1328,416.5,95.1328,416.5,80,406.5,70,203.5,70" style="stroke: #A80036; stroke-width: 1.0;"/><line style="stroke: #A80036; stroke-width: 1.0;" x1="406.5" x2="406.5" y1="70" y2="80"/><line style="stroke: #A80036; stroke-width: 1.0;" x1="416.5" x2="406.5" y1="80" y2="80"/><text fill="#000000" font-family="sans-serif" font-size="13" lengthAdjust="spacingAndGlyphs" textLength="192" x="209.5" y="87.0669">JGrapes comoponent libraries</text><a target="_parent" xlink:actuate="onRequest" xlink:href="org/jgrapes/osgi/factory/package-summary.html#package.description" xlink:show="new" xlink:title="org/jgrapes/osgi/factory/package-summary.html#package.description" xlink:type="simple"><polygon fill="#FFFFFF" filter="url(#fsxfkn7zwsfxo)" points="99,155,295,155,302,177.2969,309,177.2969,309,207.5938,99,207.5938,99,155" style="stroke: #000000; stroke-width: 2.0;"/><line style="stroke: #000000; stroke-width: 2.0;" x1="99" x2="302" y1="177.2969" y2="177.2969"/><text fill="#000000" font-family="sans-serif" font-size="14" font-weight="bold" lengthAdjust="spacingAndGlyphs" textLength="190" x="103" y="169.9951">org.jgrapes.osgi.factory</text></a><a target="_parent" xlink:actuate="onRequest" xlink:href="org/jgrapes/osgi/httpserver/package-summary.html#package.description" xlink:show="new" xlink:title="org/jgrapes/osgi/httpserver/package-summary.html#package.description" xlink:type="simple"><polygon fill="#FFFFFF" filter="url(#fsxfkn7zwsfxo)" points="30.5,268,255.5,268,262.5,290.2969,269.5,290.2969,269.5,320.5938,30.5,320.5938,30.5,268" style="stroke: #000000; stroke-width: 2.0;"/><line style="stroke: #000000; stroke-width: 2.0;" x1="30.5" x2="262.5" y1="290.2969" y2="290.2969"/><text fill="#000000" font-family="sans-serif" font-size="14" font-weight="bold" lengthAdjust="spacingAndGlyphs" textLength="219" x="34.5" y="282.9951">org.jgrapes.osgi.httpserver</text></a><a target="_parent" xlink:actuate="onRequest" xlink:href="org/jgrapes/osgi/portal/package-summary.html#package.description" xlink:show="new" xlink:title="org/jgrapes/osgi/portal/package-summary.html#package.description" xlink:type="simple"><polygon fill="#FFFFFF" filter="url(#fsxfkn7zwsfxo)" points="305,268,493,268,500,290.2969,507,290.2969,507,320.5938,305,320.5938,305,268" style="stroke: #000000; stroke-width: 2.0;"/><line style="stroke: #000000; stroke-width: 2.0;" x1="305" x2="500" y1="290.2969" y2="290.2969"/><text fill="#000000" font-family="sans-serif" font-size="14" font-weight="bold" lengthAdjust="spacingAndGlyphs" textLength="182" x="309" y="282.9951">org.jgrapes.osgi.portal</text></a><!--link org.jgrapes.* to org.jgrapes.osgi--><path d="M452,103.2977 C452,103.5901 452,103.8846 452,104.181 C452,105.3668 452,106.584 452,107.8283 C452,110.3168 452,112.9134 452,115.5817 C452,118.25 452,120.9902 452,123.7658 C452,125.1536 452,126.5504 452,127.9514 " fill="none" id="org.jgrapes.*-org.jgrapes.osgi" style="stroke: #A80036; stroke-width: 1.0; stroke-dasharray: 7.0,7.0;"/><polygon fill="#A80036" points="452,103.2977,448,112.2977,452,108.2977,456,112.2977,452,103.2977" style="stroke: #A80036; stroke-width: 1.0;"/><!--link org.jgrapes.osgi.factory to org.jgrapes.osgi.httpserver--><path d="M188.9273,213.0411 C180.6725,230.315 170.5561,251.4845 162.7054,267.9128 " fill="none" id="org.jgrapes.osgi.factory-org.jgrapes.osgi.httpserver" style="stroke: #A80036; stroke-width: 1.0; stroke-dasharray: 7.0,7.0;"/><polygon fill="#A80036" points="191.2028,208.2794,183.7131,214.6751,189.0469,212.7907,190.9313,218.1245,191.2028,208.2794" style="stroke: #A80036; stroke-width: 1.0;"/><!--link org.jgrapes.osgi.factory to org.jgrapes.osgi.portal--><path d="M256.2074,210.7051 C287.756,228.3536 327.6649,250.6789 358.3547,267.8469 " fill="none" id="org.jgrapes.osgi.factory-org.jgrapes.osgi.portal" style="stroke: #A80036; stroke-width: 1.0; stroke-dasharray: 7.0,7.0;"/><polygon fill="#A80036" points="251.6154,208.1363,257.5172,216.021,255.9791,210.5773,261.4228,209.0391,251.6154,208.1363" style="stroke: #A80036; stroke-width: 1.0;"/><!--
@startuml
skinparam svgLinkTarget _parent

package org.jgrapes {

    package "org.jgrapes.*" {
    	note "JGrapes comoponent libraries" as LibrariesNote
    }

	package org.jgrapes.osgi {
    	package org.jgrapes.osgi.factory [[org/jgrapes/osgi/factory/package-summary.html#package.description]] {
    	}
    	
    	package org.jgrapes.osgi.httpserver [[org/jgrapes/osgi/httpserver/package-summary.html#package.description]] {
    	}
    	
    	package org.jgrapes.osgi.portal [[org/jgrapes/osgi/portal/package-summary.html#package.description]] {
    	}
	}

}

"org.jgrapes.*" <.. org.jgrapes.osgi

org.jgrapes.osgi.factory <.. org.jgrapes.osgi.httpserver
org.jgrapes.osgi.factory <.. org.jgrapes.osgi.portal
@enduml

PlantUML version 1.2017.18(Fri Oct 06 18:56:32 CEST 2017)
(GPL source distribution)
Java Runtime: OpenJDK Runtime Environment
JVM: OpenJDK 64-Bit Server VM
Java Version: 1.8.0_151-b12
Operating System: Linux
OS Version: 4.14.11-300.fc27.x86_64
Default Encoding: UTF-8
Language: de
Country: DE
--></g></svg>