<?xml version="1.0" encoding="UTF-8" standalone="no"?><svg xmlns="http://www.w3.org/2000/svg" xmlns:xlink="http://www.w3.org/1999/xlink" contentScriptType="application/ecmascript" contentStyleType="text/css" height="364px" preserveAspectRatio="none" style="width:543px;height:364px;" version="1.1" viewBox="0 0 543 364" width="543px" zoomAndPan="magnify"><defs><filter height="300%" id="fpb6w5o9b2grl" width="300%" x="-1" y="-1"><feGaussianBlur result="blurOut" stdDeviation="2.0"/><feColorMatrix in="blurOut" result="blurOut2" type="matrix" values="0 0 0 0 0 0 0 0 0 0 0 0 0 0 0 0 0 0 .4 0"/><feOffset dx="4.0" dy="4.0" in="blurOut2" result="blurOut3"/><feBlend in="SourceGraphic" in2="blurOut3" mode="normal"/></filter></defs><g><rect fill="#FFFFFF" filter="url(#fpb6w5o9b2grl)" height="21" style="stroke: #A80036; stroke-width: 1.0;" width="10" x="54" y="48.2969"/><rect fill="#FFFFFF" filter="url(#fpb6w5o9b2grl)" height="155.7969" style="stroke: #A80036; stroke-width: 1.0;" width="10" x="54" y="186.6953"/><rect fill="#FFFFFF" filter="url(#fpb6w5o9b2grl)" height="59.1328" style="stroke: #A80036; stroke-width: 1.0;" width="10" x="251" y="69.2969"/><rect fill="#FFFFFF" filter="url(#fpb6w5o9b2grl)" height="87.3984" style="stroke: #A80036; stroke-width: 1.0;" width="10" x="251" y="157.5625"/><rect fill="#FFFFFF" filter="url(#fpb6w5o9b2grl)" height="29.1328" style="stroke: #A80036; stroke-width: 1.0;" width="10" x="251" y="298.2266"/><rect fill="#FFFFFF" filter="url(#fpb6w5o9b2grl)" height="244.0625" style="stroke: #A80036; stroke-width: 1.0;" width="10" x="480" y="98.4297"/><rect fill="#FFFFFF" filter="url(#fpb6w5o9b2grl)" height="75.3984" style="stroke: #000000; stroke-width: 2.0;" width="519.5" x="13" y="260.0938"/><line style="stroke: #A80036; stroke-width: 1.0; stroke-dasharray: 5.0,5.0;" x1="59" x2="59" y1="38.2969" y2="352.4922"/><line style="stroke: #A80036; stroke-width: 1.0; stroke-dasharray: 5.0,5.0;" x1="255.5" x2="255.5" y1="38.2969" y2="352.4922"/><line style="stroke: #A80036; stroke-width: 1.0; stroke-dasharray: 5.0,5.0;" x1="484.5" x2="484.5" y1="38.2969" y2="352.4922"/><rect fill="#FEFECE" filter="url(#fpb6w5o9b2grl)" height="30.2969" style="stroke: #A80036; stroke-width: 1.5;" width="68" x="23" y="3"/><text fill="#000000" font-family="sans-serif" font-size="14" lengthAdjust="spacingAndGlyphs" textLength="54" x="30" y="22.9951">PortletX</text><rect fill="#FEFECE" filter="url(#fpb6w5o9b2grl)" height="30.2969" style="stroke: #A80036; stroke-width: 1.5;" width="53" x="227.5" y="3"/><text fill="#000000" font-family="sans-serif" font-size="14" lengthAdjust="spacingAndGlyphs" textLength="39" x="234.5" y="22.9951">Portal</text><rect fill="#FEFECE" filter="url(#fpb6w5o9b2grl)" height="30.2969" style="stroke: #A80036; stroke-width: 1.5;" width="71" x="447.5" y="3"/><text fill="#000000" font-family="sans-serif" font-size="14" lengthAdjust="spacingAndGlyphs" textLength="57" x="454.5" y="22.9951">Browser</text><rect fill="#FFFFFF" filter="url(#fpb6w5o9b2grl)" height="21" style="stroke: #A80036; stroke-width: 1.0;" width="10" x="54" y="48.2969"/><rect fill="#FFFFFF" filter="url(#fpb6w5o9b2grl)" height="155.7969" style="stroke: #A80036; stroke-width: 1.0;" width="10" x="54" y="186.6953"/><rect fill="#FFFFFF" filter="url(#fpb6w5o9b2grl)" height="59.1328" style="stroke: #A80036; stroke-width: 1.0;" width="10" x="251" y="69.2969"/><rect fill="#FFFFFF" filter="url(#fpb6w5o9b2grl)" height="87.3984" style="stroke: #A80036; stroke-width: 1.0;" width="10" x="251" y="157.5625"/><rect fill="#FFFFFF" filter="url(#fpb6w5o9b2grl)" height="29.1328" style="stroke: #A80036; stroke-width: 1.0;" width="10" x="251" y="298.2266"/><rect fill="#FFFFFF" filter="url(#fpb6w5o9b2grl)" height="244.0625" style="stroke: #A80036; stroke-width: 1.0;" width="10" x="480" y="98.4297"/><polygon fill="#A80036" points="239,65.2969,249,69.2969,239,73.2969,243,69.2969" style="stroke: #A80036; stroke-width: 1.0;"/><line style="stroke: #A80036; stroke-width: 1.0;" x1="59" x2="245" y1="69.2969" y2="69.2969"/><text fill="#000000" font-family="sans-serif" font-size="13" lengthAdjust="spacingAndGlyphs" textLength="97" x="66" y="64.3638">AddPortletType</text><polygon fill="#A80036" points="468,94.4297,478,98.4297,468,102.4297,472,98.4297" style="stroke: #A80036; stroke-width: 1.0;"/><line style="stroke: #A80036; stroke-width: 1.0;" x1="261" x2="474" y1="98.4297" y2="98.4297"/><text fill="#000000" font-family="sans-serif" font-size="13" lengthAdjust="spacingAndGlyphs" textLength="106" x="268" y="93.4966">"addPortletType"</text><polygon fill="#A80036" points="272,153.5625,262,157.5625,272,161.5625,268,157.5625" style="stroke: #A80036; stroke-width: 1.0;"/><line style="stroke: #A80036; stroke-width: 1.0;" x1="266" x2="479" y1="157.5625" y2="157.5625"/><text fill="#000000" font-family="sans-serif" font-size="13" lengthAdjust="spacingAndGlyphs" textLength="200" x="278" y="152.6294">"GET &lt;portlet resource1 URL&gt;"</text><polygon fill="#A80036" points="75,182.6953,65,186.6953,75,190.6953,71,186.6953" style="stroke: #A80036; stroke-width: 1.0;"/><line style="stroke: #A80036; stroke-width: 1.0;" x1="69" x2="250" y1="186.6953" y2="186.6953"/><text fill="#000000" font-family="sans-serif" font-size="13" lengthAdjust="spacingAndGlyphs" textLength="153" x="81" y="181.7622">PortletResourceRequest</text><polygon fill="#A80036" points="239,211.8281,249,215.8281,239,219.8281,243,215.8281" style="stroke: #A80036; stroke-width: 1.0;"/><line style="stroke: #A80036; stroke-width: 1.0;" x1="64" x2="245" y1="215.8281" y2="215.8281"/><text fill="#000000" font-family="sans-serif" font-size="13" lengthAdjust="spacingAndGlyphs" textLength="163" x="71" y="210.895">PortletResourceResponse</text><polygon fill="#A80036" points="468,240.9609,478,244.9609,468,248.9609,472,244.9609" style="stroke: #A80036; stroke-width: 1.0;"/><line style="stroke: #A80036; stroke-width: 1.0;" x1="256" x2="474" y1="244.9609" y2="244.9609"/><text fill="#000000" font-family="sans-serif" font-size="13" lengthAdjust="spacingAndGlyphs" textLength="123" x="263" y="240.0278">"Response Header"</text><rect fill="none" height="75.3984" style="stroke: #000000; stroke-width: 2.0;" width="519.5" x="13" y="260.0938"/><polygon fill="#EEEEEE" points="13,260.0938,90,260.0938,90,267.0938,80,277.0938,13,277.0938,13,260.0938" style="stroke: #000000; stroke-width: 2.0;"/><text fill="#000000" font-family="sans-serif" font-size="13" font-weight="bold" lengthAdjust="spacingAndGlyphs" textLength="32" x="28" y="273.1606">loop</text><text fill="#000000" font-family="sans-serif" font-size="11" font-weight="bold" lengthAdjust="spacingAndGlyphs" textLength="117" x="105" y="272.3042">[until end of data]</text><polygon fill="#A80036" points="239,294.2266,249,298.2266,239,302.2266,243,298.2266" style="stroke: #A80036; stroke-width: 1.0;"/><line style="stroke: #A80036; stroke-width: 1.0;" x1="64" x2="245" y1="298.2266" y2="298.2266"/><text fill="#000000" font-family="sans-serif" font-size="13" lengthAdjust="spacingAndGlyphs" textLength="44" x="71" y="293.2935">Output</text><polygon fill="#A80036" points="468,323.3594,478,327.3594,468,331.3594,472,327.3594" style="stroke: #A80036; stroke-width: 1.0;"/><line style="stroke: #A80036; stroke-width: 1.0;" x1="256" x2="474" y1="327.3594" y2="327.3594"/><text fill="#000000" font-family="sans-serif" font-size="13" lengthAdjust="spacingAndGlyphs" textLength="107" x="263" y="322.4263">"Response body"</text><!--
@startuml
hide footbox
 
 activate PortletX
 PortletX -> Portal: AddPortletType 
 deactivate PortletX
 activate Portal
 Portal -> Browser: "addPortletType"
 activate Browser
 deactivate Portal
 deactivate Portal
 Browser -> Portal: "GET <portlet resource1 URL>"
 activate Portal
 Portal -> PortletX: PortletResourceRequest
 activate PortletX
 PortletX -> Portal: PortletResourceResponse
 Portal -> Browser: "Response Header"
 deactivate Portal
 loop until end of data
     PortletX -> Portal: Output
     activate Portal
     Portal -> Browser: "Response body"
     deactivate Portal
 end loop
 deactivate PortletX
 deactivate Browser
@enduml

PlantUML version 1.2017.18(Fri Oct 06 16:56:32 UTC 2017)
(GPL source distribution)
Java Runtime: Java(TM) SE Runtime Environment
JVM: Java HotSpot(TM) 64-Bit Server VM
Java Version: 1.8.0_151-b12
Operating System: Linux
OS Version: 4.4.0-101-generic
Default Encoding: UTF-8
Language: en
Country: US
--></g></svg>