<?xml version="1.0" encoding="us-ascii" standalone="no"?><svg xmlns="http://www.w3.org/2000/svg" xmlns:xlink="http://www.w3.org/1999/xlink" contentStyleType="text/css" height="563px" preserveAspectRatio="none" style="width:459px;height:563px;background:#FFFFFF;" version="1.1" viewBox="0 0 459 563" width="459px" zoomAndPan="magnify"><defs/><g><!--cluster org--><g id="cluster_org"><path d="M8.5,6 L36.5,6 A3.75,3.75 0 0 1 39,8.5 L46,28.2969 L449.5,28.2969 A2.5,2.5 0 0 1 452,30.7969 L452,553.5 A2.5,2.5 0 0 1 449.5,556 L8.5,556 A2.5,2.5 0 0 1 6,553.5 L6,8.5 A2.5,2.5 0 0 1 8.5,6 " fill="none" style="stroke:#000000;stroke-width:1.5;"/><line style="stroke:#000000;stroke-width:1.5;" x1="6" x2="46" y1="28.2969" y2="28.2969"/><text fill="#000000" font-family="sans-serif" font-size="14" font-weight="bold" lengthAdjust="spacing" textLength="27" x="10" y="20.9951">org</text></g><!--cluster jgrapes--><g id="cluster_jgrapes"><path d="M32.5,49 L92.5,49 A3.75,3.75 0 0 1 95,51.5 L102,71.2969 L425.5,71.2969 A2.5,2.5 0 0 1 428,73.7969 L428,529.5 A2.5,2.5 0 0 1 425.5,532 L32.5,532 A2.5,2.5 0 0 1 30,529.5 L30,51.5 A2.5,2.5 0 0 1 32.5,49 " fill="none" style="stroke:#000000;stroke-width:1.5;"/><line style="stroke:#000000;stroke-width:1.5;" x1="30" x2="102" y1="71.2969" y2="71.2969"/><text fill="#000000" font-family="sans-serif" font-size="14" font-weight="bold" lengthAdjust="spacing" textLength="59" x="34" y="63.9951">jgrapes</text></g><!--cluster *--><g id="cluster_*"><path d="M118.5,100 L126.5,100 A3.75,3.75 0 0 1 129,102.5 L136,122.2969 L390.5,122.2969 A2.5,2.5 0 0 1 393,124.7969 L393,189.5 A2.5,2.5 0 0 1 390.5,192 L118.5,192 A2.5,2.5 0 0 1 116,189.5 L116,102.5 A2.5,2.5 0 0 1 118.5,100 " fill="none" style="stroke:#000000;stroke-width:1.5;"/><line style="stroke:#000000;stroke-width:1.5;" x1="116" x2="136" y1="122.2969" y2="122.2969"/><text fill="#000000" font-family="sans-serif" font-size="14" font-weight="bold" lengthAdjust="spacing" textLength="7" x="120" y="114.9951">*</text></g><!--cluster osgi--><g id="cluster_osgi"><path d="M56.5,224 L90.5,224 A3.75,3.75 0 0 1 93,226.5 L100,246.2969 L401.5,246.2969 A2.5,2.5 0 0 1 404,248.7969 L404,505.5 A2.5,2.5 0 0 1 401.5,508 L56.5,508 A2.5,2.5 0 0 1 54,505.5 L54,226.5 A2.5,2.5 0 0 1 56.5,224 " fill="none" style="stroke:#000000;stroke-width:1.5;"/><line style="stroke:#000000;stroke-width:1.5;" x1="54" x2="100" y1="246.2969" y2="246.2969"/><text fill="#000000" font-family="sans-serif" font-size="14" font-weight="bold" lengthAdjust="spacing" textLength="33" x="58" y="238.9951">osgi</text></g><!--cluster webconlet--><g id="cluster_webconlet"><path d="M144.5,267 L228.5,267 A3.75,3.75 0 0 1 231,269.5 L238,289.2969 L377.5,289.2969 A2.5,2.5 0 0 1 380,291.7969 L380,481.5 A2.5,2.5 0 0 1 377.5,484 L144.5,484 A2.5,2.5 0 0 1 142,481.5 L142,269.5 A2.5,2.5 0 0 1 144.5,267 " fill="none" style="stroke:#000000;stroke-width:1.5;"/><line style="stroke:#000000;stroke-width:1.5;" x1="142" x2="238" y1="289.2969" y2="289.2969"/><text fill="#000000" font-family="sans-serif" font-size="14" font-weight="bold" lengthAdjust="spacing" textLength="83" x="146" y="281.9951">webconlet</text></g><g id="elem_LibrariesNote"><path d="M159.5,143 L159.5,168.1328 L368.5,168.1328 L368.5,153 L358.5,143 L159.5,143 " fill="#FEFFDD" style="stroke:#181818;stroke-width:0.5;"/><path d="M358.5,143 L358.5,153 L368.5,153 L358.5,143 " fill="#FEFFDD" style="stroke:#181818;stroke-width:1.0;"/><text fill="#000000" font-family="sans-serif" font-size="13" lengthAdjust="spacing" textLength="188" x="165.5" y="160.0669">JGrapes comoponent libraries</text></g><a href="./package-summary.html#package.description" target="_parent" title="./package-summary.html#package.description" xlink:actuate="onRequest" xlink:href="./package-summary.html#package.description" xlink:show="new" xlink:title="./package-summary.html#package.description" xlink:type="simple"><path d="M72.5,415 L109.5,415 A3.75,3.75 0 0 1 112,417.5 L119,437.2969 L123.5,437.2969 A2.5,2.5 0 0 1 126,439.7969 L126,465.0938 A2.5,2.5 0 0 1 123.5,467.5938 L72.5,467.5938 A2.5,2.5 0 0 1 70,465.0938 L70,417.5 A2.5,2.5 0 0 1 72.5,415 " fill="#F1F1F1" style="stroke:#181818;stroke-width:0.5;"/><line style="stroke:#181818;stroke-width:0.5;" x1="70" x2="119" y1="437.2969" y2="437.2969"/><text fill="#000000" font-family="sans-serif" font-size="14" font-weight="bold" lengthAdjust="spacing" textLength="36" x="74" y="429.9951">core</text></a><a href="../webconlet/logviewer/package-summary.html#package.description" target="_parent" title="../webconlet/logviewer/package-summary.html#package.description" xlink:actuate="onRequest" xlink:href="../webconlet/logviewer/package-summary.html#package.description" xlink:show="new" xlink:title="../webconlet/logviewer/package-summary.html#package.description" xlink:type="simple"><path d="M163.5,415 L242.5,415 A3.75,3.75 0 0 1 245,417.5 L252,437.2969 L256.5,437.2969 A2.5,2.5 0 0 1 259,439.7969 L259,465.0938 A2.5,2.5 0 0 1 256.5,467.5938 L163.5,467.5938 A2.5,2.5 0 0 1 161,465.0938 L161,417.5 A2.5,2.5 0 0 1 163.5,415 " fill="#F1F1F1" style="stroke:#181818;stroke-width:0.5;"/><line style="stroke:#181818;stroke-width:0.5;" x1="161" x2="252" y1="437.2969" y2="437.2969"/><text fill="#000000" font-family="sans-serif" font-size="14" font-weight="bold" lengthAdjust="spacing" textLength="78" x="165" y="429.9951">logviewer</text></a><a href="../webconlet/bundles/package-summary.html#package.description" target="_parent" title="../webconlet/bundles/package-summary.html#package.description" xlink:actuate="onRequest" xlink:href="../webconlet/bundles/package-summary.html#package.description" xlink:show="new" xlink:title="../webconlet/bundles/package-summary.html#package.description" xlink:type="simple"><path d="M161,302 L225,302 A3.75,3.75 0 0 1 227.5,304.5 L234.5,324.2969 L239,324.2969 A2.5,2.5 0 0 1 241.5,326.7969 L241.5,352.0938 A2.5,2.5 0 0 1 239,354.5938 L161,354.5938 A2.5,2.5 0 0 1 158.5,352.0938 L158.5,304.5 A2.5,2.5 0 0 1 161,302 " fill="#F1F1F1" style="stroke:#181818;stroke-width:0.5;"/><line style="stroke:#181818;stroke-width:0.5;" x1="158.5" x2="234.5" y1="324.2969" y2="324.2969"/><text fill="#000000" font-family="sans-serif" font-size="14" font-weight="bold" lengthAdjust="spacing" textLength="63" x="162.5" y="316.9951">bundles</text></a><a href="../webconlet/services/package-summary.html#package.description" target="_parent" title="../webconlet/services/package-summary.html#package.description" xlink:actuate="onRequest" xlink:href="../webconlet/services/package-summary.html#package.description" xlink:show="new" xlink:title="../webconlet/services/package-summary.html#package.description" xlink:type="simple"><path d="M279,302 L347,302 A3.75,3.75 0 0 1 349.5,304.5 L356.5,324.2969 L361,324.2969 A2.5,2.5 0 0 1 363.5,326.7969 L363.5,352.0938 A2.5,2.5 0 0 1 361,354.5938 L279,354.5938 A2.5,2.5 0 0 1 276.5,352.0938 L276.5,304.5 A2.5,2.5 0 0 1 279,302 " fill="#F1F1F1" style="stroke:#181818;stroke-width:0.5;"/><line style="stroke:#181818;stroke-width:0.5;" x1="276.5" x2="356.5" y1="324.2969" y2="324.2969"/><text fill="#000000" font-family="sans-serif" font-size="14" font-weight="bold" lengthAdjust="spacing" textLength="67" x="280.5" y="316.9951">services</text></a><!--reverse link * to core--><g id="link_*_core"><path codeLine="29" d="M115.6653,197.9823 C115.5921,198.3908 116.5253,193.2012 116.4526,193.6119 C116.307,194.4333 116.1625,195.2588 116.0192,196.0873 C114.8731,202.7156 113.81,209.5375 113,216 C104.01,287.7 100.18,373.01 98.75,414.82 " fill="none" id="*-backto-core" style="stroke:#181818;stroke-width:1.0;stroke-dasharray:7.0,7.0;"/><polygon fill="#181818" points="116.7265,192.0768,111.1978,200.2276,115.8422,196.998,119.0717,201.6424,116.7265,192.0768" style="stroke:#181818;stroke-width:1.0;"/></g><!--reverse link * to logviewer--><g id="link_*_logviewer"><path codeLine="30" d="M120.621,198.1002 C120.5228,200.0539 120.6722,197.5296 120.5892,199.5982 C120.2571,207.8728 120.0616,217.0319 120.1238,226.795 C120.3725,265.8475 124.745,314.565 141,355 C150.11,377.65 167.36,399.03 182.33,414.74 " fill="none" id="*-backto-logviewer" style="stroke:#181818;stroke-width:1.0;stroke-dasharray:7.0,7.0;"/><polygon fill="#181818" points="120.9367,192.1085,116.4686,200.8855,120.6736,197.1016,124.4575,201.3066,120.9367,192.1085" style="stroke:#181818;stroke-width:1.0;"/></g><!--reverse link * to bundles--><g id="link_*_bundles"><path codeLine="31" d="M138.7836,197.6977 C139.0582,198.4139 137.6068,194.5982 137.8847,195.3152 C138.4407,196.7491 139.003,198.1828 139.5693,199.6083 C140.702,202.4592 141.8513,205.2775 143,208 C156.85,240.83 174.82,277.71 186.85,301.7 " fill="none" id="*-backto-bundles" style="stroke:#181818;stroke-width:1.0;stroke-dasharray:7.0,7.0;"/><polygon fill="#181818" points="136.6452,192.0917,136.1154,201.9263,138.4272,196.7634,143.5901,199.0752,136.6452,192.0917" style="stroke:#181818;stroke-width:1.0;"/></g><!--reverse link * to services--><g id="link_*_services"><path codeLine="32" d="M133.4266,197.5087 C133.7331,198.1856 131.7186,193.6334 132.0522,194.2975 C134.7206,199.61 138.2725,204.4575 143,208 C163.68,223.5 237.24,202.07 259,216 C289.29,235.39 305.74,275.29 313.69,301.72 " fill="none" id="*-backto-services" style="stroke:#181818;stroke-width:1.0;stroke-dasharray:7.0,7.0;"/><polygon fill="#181818" points="130.978,192.031,130.9991,201.8799,133.0185,196.5957,138.3026,198.6152,130.978,192.031" style="stroke:#181818;stroke-width:1.0;"/></g><!--link core to logviewer--><!--reverse link bundles to logviewer--><!--reverse link services to logviewer--><!--SRC=[lLF1YeCm4BttAu9xMp3-mBBNXQNiQMyYIun3d5MJC8cMfVJVgwrnfTXYeJG7qRmtRzwO5rUXje94mrodjgYhRq4AFFlfDq7x3TimAsGb5313Ylyg4XOSsm_0i08OpL3-6Ws4iBJnFVxvSQwKfZ7Mw5wRrPYJ80GNCU7ODdnzzVnpzU6ooxo9SGhdRQvnk3G4B4rvCZ9YrpQDe3zU-gP-6JTv0KuIMez6PzbSz_3_kgBP3d9fT0sUrqPr23kWgMWmmPE9aKoC9plBMrtK_L5SypNYJtRbW3gKDsm5mgDydT9rUbo6zutpvHYjf2w4uExAyH3khWj_QPXh-Ih4QOb50JeZLAMFtrVwNnNrIRkrjuMdyHuh6wO_0W00]--></g></svg>