<?xml version="1.0" encoding="UTF-8" standalone="no"?><svg xmlns="http://www.w3.org/2000/svg" xmlns:xlink="http://www.w3.org/1999/xlink" contentScriptType="application/ecmascript" contentStyleType="text/css" height="452px" preserveAspectRatio="none" style="width:774px;height:452px;" version="1.1" viewBox="0 0 774 452" width="774px" zoomAndPan="magnify"><defs><filter height="300%" id="fxpcp77ay4wo6" width="300%" x="-1" y="-1"><feGaussianBlur result="blurOut" stdDeviation="2.0"/><feColorMatrix in="blurOut" result="blurOut2" type="matrix" values="0 0 0 0 0 0 0 0 0 0 0 0 0 0 0 0 0 0 .4 0"/><feOffset dx="4.0" dy="4.0" in="blurOut2" result="blurOut3"/><feBlend in="SourceGraphic" in2="blurOut3" mode="normal"/></filter></defs><g><!--cluster org.jgrapes--><polygon fill="#FFFFFF" filter="url(#fxpcp77ay4wo6)" points="22,24,119,24,126,46.2969,752,46.2969,752,440,22,440,22,24" style="stroke: #000000; stroke-width: 2.0;"/><line style="stroke: #000000; stroke-width: 2.0;" x1="22" x2="126" y1="46.2969" y2="46.2969"/><text fill="#000000" font-family="sans-serif" font-size="14" font-weight="bold" lengthAdjust="spacingAndGlyphs" textLength="91" x="26" y="38.9951">org.jgrapes</text><!--cluster org.jgrapes.*--><polygon fill="#FFFFFF" filter="url(#fxpcp77ay4wo6)" points="441,75,550,75,557,97.2969,718,97.2969,718,167,441,167,441,75" style="stroke: #000000; stroke-width: 2.0;"/><line style="stroke: #000000; stroke-width: 2.0;" x1="441" x2="557" y1="97.2969" y2="97.2969"/><text fill="#000000" font-family="sans-serif" font-size="14" font-weight="bold" lengthAdjust="spacingAndGlyphs" textLength="103" x="445" y="89.9951">org.jgrapes.*</text><!--cluster org.jgrapes.osgi--><polygon fill="#FFFFFF" filter="url(#fxpcp77ay4wo6)" points="46,199,181,199,188,221.2969,728,221.2969,728,416,46,416,46,199" style="stroke: #000000; stroke-width: 2.0;"/><line style="stroke: #000000; stroke-width: 2.0;" x1="46" x2="188" y1="221.2969" y2="221.2969"/><text fill="#000000" font-family="sans-serif" font-size="14" font-weight="bold" lengthAdjust="spacingAndGlyphs" textLength="129" x="50" y="213.9951">org.jgrapes.osgi</text><polygon fill="#FBFB77" filter="url(#fxpcp77ay4wo6)" points="484.5,118,484.5,143.1328,693.5,143.1328,693.5,128,683.5,118,484.5,118" style="stroke: #A80036; stroke-width: 1.0;"/><line style="stroke: #A80036; stroke-width: 1.0;" x1="683.5" x2="683.5" y1="118" y2="128"/><line style="stroke: #A80036; stroke-width: 1.0;" x1="693.5" x2="683.5" y1="128" y2="128"/><text fill="#000000" font-family="sans-serif" font-size="13" lengthAdjust="spacingAndGlyphs" textLength="188" x="490.5" y="135.0669">JGrapes comoponent libraries</text><a target="_parent" xlink:actuate="onRequest" xlink:href="./package-summary.html#package.description" xlink:show="new" xlink:title="./package-summary.html#package.description" xlink:type="simple"><polygon fill="#FFFFFF" filter="url(#fxpcp77ay4wo6)" points="62,234,238,234,245,256.2969,252,256.2969,252,286.5938,62,286.5938,62,234" style="stroke: #000000; stroke-width: 2.0;"/><line style="stroke: #000000; stroke-width: 2.0;" x1="62" x2="245" y1="256.2969" y2="256.2969"/><text fill="#000000" font-family="sans-serif" font-size="14" font-weight="bold" lengthAdjust="spacingAndGlyphs" textLength="170" x="66" y="248.9951">org.jgrapes.osgi.core</text></a><a target="_parent" xlink:actuate="onRequest" xlink:href="../webconlet/logviewer/package-summary.html#package.description" xlink:show="new" xlink:title="../webconlet/logviewer/package-summary.html#package.description" xlink:type="simple"><polygon fill="#FFFFFF" filter="url(#fxpcp77ay4wo6)" points="287,234,593,234,600,256.2969,607,256.2969,607,286.5938,287,286.5938,287,234" style="stroke: #000000; stroke-width: 2.0;"/><line style="stroke: #000000; stroke-width: 2.0;" x1="287" x2="600" y1="256.2969" y2="256.2969"/><text fill="#000000" font-family="sans-serif" font-size="14" font-weight="bold" lengthAdjust="spacingAndGlyphs" textLength="300" x="291" y="248.9951">org.jgrapes.osgi.webconlet.logviewer</text></a><a target="_parent" xlink:actuate="onRequest" xlink:href="../webconlet/bundles/package-summary.html#package.description" xlink:show="new" xlink:title="../webconlet/bundles/package-summary.html#package.description" xlink:type="simple"><polygon fill="#FFFFFF" filter="url(#fxpcp77ay4wo6)" points="62.5,347,353.5,347,360.5,369.2969,367.5,369.2969,367.5,399.5938,62.5,399.5938,62.5,347" style="stroke: #000000; stroke-width: 2.0;"/><line style="stroke: #000000; stroke-width: 2.0;" x1="62.5" x2="360.5" y1="369.2969" y2="369.2969"/><text fill="#000000" font-family="sans-serif" font-size="14" font-weight="bold" lengthAdjust="spacingAndGlyphs" textLength="285" x="66.5" y="361.9951">org.jgrapes.osgi.webconlet.bundles</text></a><a target="_parent" xlink:actuate="onRequest" xlink:href="../webconlet/services/package-summary.html#package.description" xlink:show="new" xlink:title="../webconlet/services/package-summary.html#package.description" xlink:type="simple"><polygon fill="#FFFFFF" filter="url(#fxpcp77ay4wo6)" points="402.5,347,697.5,347,704.5,369.2969,711.5,369.2969,711.5,399.5938,402.5,399.5938,402.5,347" style="stroke: #000000; stroke-width: 2.0;"/><line style="stroke: #000000; stroke-width: 2.0;" x1="402.5" x2="704.5" y1="369.2969" y2="369.2969"/><text fill="#000000" font-family="sans-serif" font-size="14" font-weight="bold" lengthAdjust="spacingAndGlyphs" textLength="289" x="406.5" y="361.9951">org.jgrapes.osgi.webconlet.services</text></a><!--link org.jgrapes.* to org.jgrapes.osgi.core--><path d="M440.7713,133.5301 C439.8131,133.7718 438.7783,134.0342 437.6707,134.3172 C435.4555,134.8831 432.9491,135.5309 430.1817,136.2575 C419.1122,139.1638 403.8669,143.33 386.3788,148.555 C351.4025,159.005 307.455,173.69 270,191 C243.66,203.18 215.76,220.04 194.27,233.99 " fill="none" id="org.jgrapes.*-org.jgrapes.osgi.core" style="stroke: #A80036; stroke-width: 1.0; stroke-dasharray: 7.0,7.0;"/><polygon fill="#A80036" points="440.7713,133.5301,431.0665,131.852,435.9231,134.7526,433.0225,139.6092,440.7713,133.5301" style="stroke: #A80036; stroke-width: 1.0;"/><!--link org.jgrapes.* to org.jgrapes.osgi.webconlet.logviewer--><path d="M448.4438,167.0925 C448.4389,167.408 448.4339,167.7247 448.4289,168.0426 C448.4189,168.6782 448.4089,169.3183 448.3988,169.9625 C448.075,190.5775 447.685,215.42 447.4,233.7 " fill="none" id="org.jgrapes.*-org.jgrapes.osgi.webconlet.logviewer" style="stroke: #A80036; stroke-width: 1.0; stroke-dasharray: 7.0,7.0;"/><polygon fill="#A80036" points="448.4438,167.0925,444.303,176.0286,448.3653,172.0919,452.302,176.1542,448.4438,167.0925" style="stroke: #A80036; stroke-width: 1.0;"/><!--link org.jgrapes.* to org.jgrapes.osgi.webconlet.bundles--><path d="M455.9195,167.1071 C455.9574,167.1918 455.9956,167.2764 456.034,167.361 C456.3411,168.0372 456.6615,168.7077 456.9959,169.3706 C459.6713,174.6744 463.24,179.5 468,183 C482.07,193.35 612.97,178.34 625,191 C654.39,221.93 651.91,253.89 625,287 C616.28,297.73 473.14,325.9 358.42,346.99 " fill="none" id="org.jgrapes.*-org.jgrapes.osgi.webconlet.bundles" style="stroke: #A80036; stroke-width: 1.0; stroke-dasharray: 7.0,7.0;"/><polygon fill="#A80036" points="455.9195,167.1071,455.9503,176.9559,457.9645,171.6698,463.2506,173.6839,455.9195,167.1071" style="stroke: #A80036; stroke-width: 1.0;"/><!--link org.jgrapes.* to org.jgrapes.osgi.webconlet.services--><path d="M455.8976,167.1394 C455.9356,167.2241 455.9738,167.3087 456.0122,167.3932 C456.3195,168.0691 456.6401,168.7391 456.9748,169.4016 C459.6525,174.7013 463.2275,179.5175 468,183 C484.53,195.06 637.85,176.22 652,191 C681.51,221.82 669.36,248.02 652,287 C641.08,311.53 619.26,331.97 599.28,346.71 " fill="none" id="org.jgrapes.*-org.jgrapes.osgi.webconlet.services" style="stroke: #A80036; stroke-width: 1.0; stroke-dasharray: 7.0,7.0;"/><polygon fill="#A80036" points="455.8976,167.1394,455.9322,176.9882,457.9443,171.7013,463.2312,173.7135,455.8976,167.1394" style="stroke: #A80036; stroke-width: 1.0;"/><!--link org.jgrapes.osgi.core to org.jgrapes.osgi.webconlet.logviewer--><!--link org.jgrapes.osgi.webconlet.logviewer to org.jgrapes.osgi.webconlet.bundles--><!--link org.jgrapes.osgi.webconlet.logviewer to org.jgrapes.osgi.webconlet.services--><!--
@startuml
skinparam svgLinkTarget _parent
 
 package org.jgrapes {
 
     package "org.jgrapes.*" {
         note "JGrapes comoponent libraries" as LibrariesNote
     }
 
     package org.jgrapes.osgi {
         package org.jgrapes.osgi.core [[./package-summary.html#package.description]] {
         }
         
         package org.jgrapes.osgi.webconlet.logviewer          [[../webconlet/logviewer/package-summary.html#package.description]] {
         }
         
         package org.jgrapes.osgi.webconlet.bundles          [[../webconlet/bundles/package-summary.html#package.description]] {
         }
         
         package org.jgrapes.osgi.webconlet.services          [[../webconlet/services/package-summary.html#package.description]] {
         }
         
     }
 
 }
 
 "org.jgrapes.*" <.. org.jgrapes.osgi.core
 "org.jgrapes.*" <.. org.jgrapes.osgi.webconlet.logviewer
 "org.jgrapes.*" <.. org.jgrapes.osgi.webconlet.bundles
 "org.jgrapes.*" <.. org.jgrapes.osgi.webconlet.services
 
 org.jgrapes.osgi.core -[hidden]right-> org.jgrapes.osgi.webconlet.logviewer
 org.jgrapes.osgi.webconlet.logviewer -[hidden]up-> org.jgrapes.osgi.webconlet.bundles
 org.jgrapes.osgi.webconlet.logviewer -[hidden]up-> org.jgrapes.osgi.webconlet.services
@enduml

PlantUML version 1.2017.18(Fri Oct 06 18:56:32 CEST 2017)
(GPL source distribution)
Java Runtime: OpenJDK Runtime Environment
JVM: OpenJDK 64-Bit Server VM
Java Version: 17.0.2+8
Operating System: Linux
OS Version: 5.16.12-200.fc35.x86_64
Default Encoding: UTF-8
Language: de
Country: DE
--></g></svg>