<?xml version="1.0" encoding="UTF-8" standalone="no"?><svg xmlns="http://www.w3.org/2000/svg" xmlns:xlink="http://www.w3.org/1999/xlink" contentScriptType="application/ecmascript" contentStyleType="text/css" height="339px" preserveAspectRatio="none" style="width:1353px;height:339px;" version="1.1" viewBox="0 0 1353 339" width="1353px" zoomAndPan="magnify"><defs><filter height="300%" id="fg9ihizhyj0j" width="300%" x="-1" y="-1"><feGaussianBlur result="blurOut" stdDeviation="2.0"/><feColorMatrix in="blurOut" result="blurOut2" type="matrix" values="0 0 0 0 0 0 0 0 0 0 0 0 0 0 0 0 0 0 .4 0"/><feOffset dx="4.0" dy="4.0" in="blurOut2" result="blurOut3"/><feBlend in="SourceGraphic" in2="blurOut3" mode="normal"/></filter></defs><g><!--cluster org.jgrapes--><polygon fill="#FFFFFF" filter="url(#fg9ihizhyj0j)" points="22,24,119,24,126,46.2969,1331,46.2969,1331,327,22,327,22,24" style="stroke: #000000; stroke-width: 2.0;"/><line style="stroke: #000000; stroke-width: 2.0;" x1="22" x2="126" y1="46.2969" y2="46.2969"/><text fill="#000000" font-family="sans-serif" font-size="14" font-weight="bold" lengthAdjust="spacingAndGlyphs" textLength="91" x="26" y="38.9951">org.jgrapes</text><!--cluster org.jgrapes.*--><polygon fill="#FFFFFF" filter="url(#fg9ihizhyj0j)" points="724,75,833,75,840,97.2969,1001,97.2969,1001,167,724,167,724,75" style="stroke: #000000; stroke-width: 2.0;"/><line style="stroke: #000000; stroke-width: 2.0;" x1="724" x2="840" y1="97.2969" y2="97.2969"/><text fill="#000000" font-family="sans-serif" font-size="14" font-weight="bold" lengthAdjust="spacingAndGlyphs" textLength="103" x="728" y="89.9951">org.jgrapes.*</text><!--cluster org.jgrapes.osgi--><polygon fill="#FFFFFF" filter="url(#fg9ihizhyj0j)" points="46,199,181,199,188,221.2969,1307,221.2969,1307,303,46,303,46,199" style="stroke: #000000; stroke-width: 2.0;"/><line style="stroke: #000000; stroke-width: 2.0;" x1="46" x2="188" y1="221.2969" y2="221.2969"/><text fill="#000000" font-family="sans-serif" font-size="14" font-weight="bold" lengthAdjust="spacingAndGlyphs" textLength="129" x="50" y="213.9951">org.jgrapes.osgi</text><polygon fill="#FBFB77" filter="url(#fg9ihizhyj0j)" points="767.5,118,767.5,143.1328,976.5,143.1328,976.5,128,966.5,118,767.5,118" style="stroke: #A80036; stroke-width: 1.0;"/><line style="stroke: #A80036; stroke-width: 1.0;" x1="966.5" x2="966.5" y1="118" y2="128"/><line style="stroke: #A80036; stroke-width: 1.0;" x1="976.5" x2="966.5" y1="128" y2="128"/><text fill="#000000" font-family="sans-serif" font-size="13" lengthAdjust="spacingAndGlyphs" textLength="188" x="773.5" y="135.0669">JGrapes comoponent libraries</text><a target="_parent" xlink:actuate="onRequest" xlink:href="./package-summary.html#package.description" xlink:show="new" xlink:title="./package-summary.html#package.description" xlink:type="simple"><polygon fill="#FFFFFF" filter="url(#fg9ihizhyj0j)" points="1101,234,1277,234,1284,256.2969,1291,256.2969,1291,286.5938,1101,286.5938,1101,234" style="stroke: #000000; stroke-width: 2.0;"/><line style="stroke: #000000; stroke-width: 2.0;" x1="1101" x2="1284" y1="256.2969" y2="256.2969"/><text fill="#000000" font-family="sans-serif" font-size="14" font-weight="bold" lengthAdjust="spacingAndGlyphs" textLength="170" x="1105" y="248.9951">org.jgrapes.osgi.core</text></a><a target="_parent" xlink:actuate="onRequest" xlink:href="../webconlet/logviewer/package-summary.html#package.description" xlink:show="new" xlink:title="../webconlet/logviewer/package-summary.html#package.description" xlink:type="simple"><polygon fill="#FFFFFF" filter="url(#fg9ihizhyj0j)" points="746,234,1052,234,1059,256.2969,1066,256.2969,1066,286.5938,746,286.5938,746,234" style="stroke: #000000; stroke-width: 2.0;"/><line style="stroke: #000000; stroke-width: 2.0;" x1="746" x2="1059" y1="256.2969" y2="256.2969"/><text fill="#000000" font-family="sans-serif" font-size="14" font-weight="bold" lengthAdjust="spacingAndGlyphs" textLength="300" x="750" y="248.9951">org.jgrapes.osgi.webconlet.logviewer</text></a><a target="_parent" xlink:actuate="onRequest" xlink:href="../webconlet/bundles/package-summary.html#package.description" xlink:show="new" xlink:title="../webconlet/bundles/package-summary.html#package.description" xlink:type="simple"><polygon fill="#FFFFFF" filter="url(#fg9ihizhyj0j)" points="405.5,234,696.5,234,703.5,256.2969,710.5,256.2969,710.5,286.5938,405.5,286.5938,405.5,234" style="stroke: #000000; stroke-width: 2.0;"/><line style="stroke: #000000; stroke-width: 2.0;" x1="405.5" x2="703.5" y1="256.2969" y2="256.2969"/><text fill="#000000" font-family="sans-serif" font-size="14" font-weight="bold" lengthAdjust="spacingAndGlyphs" textLength="285" x="409.5" y="248.9951">org.jgrapes.osgi.webconlet.bundles</text></a><a target="_parent" xlink:actuate="onRequest" xlink:href="../webconlet/services/package-summary.html#package.description" xlink:show="new" xlink:title="../webconlet/services/package-summary.html#package.description" xlink:type="simple"><polygon fill="#FFFFFF" filter="url(#fg9ihizhyj0j)" points="61.5,234,356.5,234,363.5,256.2969,370.5,256.2969,370.5,286.5938,61.5,286.5938,61.5,234" style="stroke: #000000; stroke-width: 2.0;"/><line style="stroke: #000000; stroke-width: 2.0;" x1="61.5" x2="363.5" y1="256.2969" y2="256.2969"/><text fill="#000000" font-family="sans-serif" font-size="14" font-weight="bold" lengthAdjust="spacingAndGlyphs" textLength="289" x="65.5" y="248.9951">org.jgrapes.osgi.webconlet.services</text></a><!--link org.jgrapes.* to org.jgrapes.osgi.core--><path d="M738.8347,167.2199 C738.8727,167.3045 738.911,167.3889 738.9495,167.4733 C739.2573,168.1485 739.5788,168.8176 739.9144,169.4789 C742.5994,174.7694 746.1925,179.5625 751,183 C766.05,193.76 1066.25,185.77 1084,191 C1113.52,199.69 1143.05,218.27 1164.37,233.88 " fill="none" id="org.jgrapes.*-org.jgrapes.osgi.core" style="stroke: #A80036; stroke-width: 1.0; stroke-dasharray: 7.0,7.0;"/><polygon fill="#A80036" points="738.8347,167.2199,738.8797,177.0686,740.8862,171.7796,746.1753,173.7861,738.8347,167.2199" style="stroke: #A80036; stroke-width: 1.0;"/><!--link org.jgrapes.* to org.jgrapes.osgi.webconlet.logviewer--><path d="M741.0384,167.0604 C741.0767,167.1464 741.1151,167.2324 741.1536,167.3183 C741.2307,167.4902 741.3085,167.6619 741.3869,167.8334 C743.895,173.3219 747.0475,178.6075 751,183 C771.18,205.42 799.4,222.02 826.24,233.92 " fill="none" id="org.jgrapes.*-org.jgrapes.osgi.webconlet.logviewer" style="stroke: #A80036; stroke-width: 1.0; stroke-dasharray: 7.0,7.0;"/><polygon fill="#A80036" points="741.0384,167.0604,741.0399,176.9092,743.0698,171.6291,748.3499,173.659,741.0384,167.0604" style="stroke: #A80036; stroke-width: 1.0;"/><!--link org.jgrapes.* to org.jgrapes.osgi.webconlet.bundles--><path d="M723.9632,137.408 C723.7495,137.5653 723.532,137.7253 723.3107,137.8881 C722.8681,138.2137 722.4105,138.5504 721.9384,138.8978 C720.0498,140.2872 717.9282,141.8481 715.6022,143.5594 C706.2981,150.4044 693.7238,159.655 679.7125,169.9625 C651.69,190.5775 617.92,215.42 593.07,233.7 " fill="none" id="org.jgrapes.*-org.jgrapes.osgi.webconlet.bundles" style="stroke: #A80036; stroke-width: 1.0; stroke-dasharray: 7.0,7.0;"/><polygon fill="#A80036" points="723.9632,137.408,714.3434,139.5197,719.9358,140.3711,719.0844,145.9635,723.9632,137.408" style="stroke: #A80036; stroke-width: 1.0;"/><!--link org.jgrapes.* to org.jgrapes.osgi.webconlet.services--><path d="M723.574,132.3037 C722.8918,132.3713 722.1705,132.4432 721.4111,132.5195 C715.3355,133.1296 706.8163,134.018 696.3006,135.1986 C675.2694,137.5597 646.2525,141.0894 612.8275,145.8988 C545.9775,155.5175 461.495,170.255 388,191 C348.1,202.26 304.73,219.57 271.53,233.97 " fill="none" id="org.jgrapes.*-org.jgrapes.osgi.webconlet.services" style="stroke: #A80036; stroke-width: 1.0; stroke-dasharray: 7.0,7.0;"/><polygon fill="#A80036" points="723.574,132.3037,714.2235,129.2107,718.5984,132.7967,715.0123,137.1717,723.574,132.3037" style="stroke: #A80036; stroke-width: 1.0;"/><!--
@startuml
skinparam svgLinkTarget _parent
 
 package org.jgrapes {
 
     package "org.jgrapes.*" {
         note "JGrapes comoponent libraries" as LibrariesNote
     }
 
     package org.jgrapes.osgi {
         package org.jgrapes.osgi.core [[./package-summary.html#package.description]] {
         }
         
         package org.jgrapes.osgi.webconlet.logviewer [[../webconlet/logviewer/package-summary.html#package.description]] {
         }
         
         package org.jgrapes.osgi.webconlet.bundles [[../webconlet/bundles/package-summary.html#package.description]] {
         }
         
         package org.jgrapes.osgi.webconlet.services [[../webconlet/services/package-summary.html#package.description]] {
         }
         
     }
 
 }
 
 "org.jgrapes.*" <.. org.jgrapes.osgi.core
 "org.jgrapes.*" <.. org.jgrapes.osgi.webconlet.logviewer
 "org.jgrapes.*" <.. org.jgrapes.osgi.webconlet.bundles
 "org.jgrapes.*" <.. org.jgrapes.osgi.webconlet.services
@enduml

PlantUML version 1.2017.18(Fri Oct 06 16:56:32 UTC 2017)
(GPL source distribution)
Java Runtime: OpenJDK Runtime Environment
JVM: OpenJDK 64-Bit Server VM
Java Version: 11.0.13+8-LTS
Operating System: Linux
OS Version: 5.11.0-1025-azure
Default Encoding: UTF-8
Language: en
Country: 
--></g></svg>