<?xml version="1.0" encoding="UTF-8" standalone="no"?><svg xmlns="http://www.w3.org/2000/svg" xmlns:xlink="http://www.w3.org/1999/xlink" contentScriptType="application/ecmascript" contentStyleType="text/css" height="339px" preserveAspectRatio="none" style="width:1354px;height:339px;" version="1.1" viewBox="0 0 1354 339" width="1354px" zoomAndPan="magnify"><defs><filter height="300%" id="fg9ihizhyj0j" width="300%" x="-1" y="-1"><feGaussianBlur result="blurOut" stdDeviation="2.0"/><feColorMatrix in="blurOut" result="blurOut2" type="matrix" values="0 0 0 0 0 0 0 0 0 0 0 0 0 0 0 0 0 0 .4 0"/><feOffset dx="4.0" dy="4.0" in="blurOut2" result="blurOut3"/><feBlend in="SourceGraphic" in2="blurOut3" mode="normal"/></filter></defs><g><!--cluster org.jgrapes--><polygon fill="#FFFFFF" filter="url(#fg9ihizhyj0j)" points="22,24,119,24,126,46.2969,1332,46.2969,1332,327,22,327,22,24" style="stroke: #000000; stroke-width: 2.0;"/><line style="stroke: #000000; stroke-width: 2.0;" x1="22" x2="126" y1="46.2969" y2="46.2969"/><text fill="#000000" font-family="sans-serif" font-size="14" font-weight="bold" lengthAdjust="spacingAndGlyphs" textLength="91" x="26" y="38.9951">org.jgrapes</text><!--cluster org.jgrapes.*--><polygon fill="#FFFFFF" filter="url(#fg9ihizhyj0j)" points="725,75,834,75,841,97.2969,1002,97.2969,1002,167,725,167,725,75" style="stroke: #000000; stroke-width: 2.0;"/><line style="stroke: #000000; stroke-width: 2.0;" x1="725" x2="841" y1="97.2969" y2="97.2969"/><text fill="#000000" font-family="sans-serif" font-size="14" font-weight="bold" lengthAdjust="spacingAndGlyphs" textLength="103" x="729" y="89.9951">org.jgrapes.*</text><!--cluster org.jgrapes.osgi--><polygon fill="#FFFFFF" filter="url(#fg9ihizhyj0j)" points="46,199,181,199,188,221.2969,1308,221.2969,1308,303,46,303,46,199" style="stroke: #000000; stroke-width: 2.0;"/><line style="stroke: #000000; stroke-width: 2.0;" x1="46" x2="188" y1="221.2969" y2="221.2969"/><text fill="#000000" font-family="sans-serif" font-size="14" font-weight="bold" lengthAdjust="spacingAndGlyphs" textLength="129" x="50" y="213.9951">org.jgrapes.osgi</text><polygon fill="#FBFB77" filter="url(#fg9ihizhyj0j)" points="768.5,118,768.5,143.1328,977.5,143.1328,977.5,128,967.5,118,768.5,118" style="stroke: #A80036; stroke-width: 1.0;"/><line style="stroke: #A80036; stroke-width: 1.0;" x1="967.5" x2="967.5" y1="118" y2="128"/><line style="stroke: #A80036; stroke-width: 1.0;" x1="977.5" x2="967.5" y1="128" y2="128"/><text fill="#000000" font-family="sans-serif" font-size="13" lengthAdjust="spacingAndGlyphs" textLength="188" x="774.5" y="135.0669">JGrapes comoponent libraries</text><a target="_parent" xlink:actuate="onRequest" xlink:href="./package-summary.html#package.description" xlink:show="new" xlink:title="./package-summary.html#package.description" xlink:type="simple"><polygon fill="#FFFFFF" filter="url(#fg9ihizhyj0j)" points="1102,234,1278,234,1285,256.2969,1292,256.2969,1292,286.5938,1102,286.5938,1102,234" style="stroke: #000000; stroke-width: 2.0;"/><line style="stroke: #000000; stroke-width: 2.0;" x1="1102" x2="1285" y1="256.2969" y2="256.2969"/><text fill="#000000" font-family="sans-serif" font-size="14" font-weight="bold" lengthAdjust="spacingAndGlyphs" textLength="170" x="1106" y="248.9951">org.jgrapes.osgi.core</text></a><a target="_parent" xlink:actuate="onRequest" xlink:href="../webconlet/logviewer/package-summary.html#package.description" xlink:show="new" xlink:title="../webconlet/logviewer/package-summary.html#package.description" xlink:type="simple"><polygon fill="#FFFFFF" filter="url(#fg9ihizhyj0j)" points="747,234,1053,234,1060,256.2969,1067,256.2969,1067,286.5938,747,286.5938,747,234" style="stroke: #000000; stroke-width: 2.0;"/><line style="stroke: #000000; stroke-width: 2.0;" x1="747" x2="1060" y1="256.2969" y2="256.2969"/><text fill="#000000" font-family="sans-serif" font-size="14" font-weight="bold" lengthAdjust="spacingAndGlyphs" textLength="300" x="751" y="248.9951">org.jgrapes.osgi.webconlet.logviewer</text></a><a target="_parent" xlink:actuate="onRequest" xlink:href="../webconlet/bundles/package-summary.html#package.description" xlink:show="new" xlink:title="../webconlet/bundles/package-summary.html#package.description" xlink:type="simple"><polygon fill="#FFFFFF" filter="url(#fg9ihizhyj0j)" points="406.5,234,697.5,234,704.5,256.2969,711.5,256.2969,711.5,286.5938,406.5,286.5938,406.5,234" style="stroke: #000000; stroke-width: 2.0;"/><line style="stroke: #000000; stroke-width: 2.0;" x1="406.5" x2="704.5" y1="256.2969" y2="256.2969"/><text fill="#000000" font-family="sans-serif" font-size="14" font-weight="bold" lengthAdjust="spacingAndGlyphs" textLength="285" x="410.5" y="248.9951">org.jgrapes.osgi.webconlet.bundles</text></a><a target="_parent" xlink:actuate="onRequest" xlink:href="../webconlet/services/package-summary.html#package.description" xlink:show="new" xlink:title="../webconlet/services/package-summary.html#package.description" xlink:type="simple"><polygon fill="#FFFFFF" filter="url(#fg9ihizhyj0j)" points="62.5,234,357.5,234,364.5,256.2969,371.5,256.2969,371.5,286.5938,62.5,286.5938,62.5,234" style="stroke: #000000; stroke-width: 2.0;"/><line style="stroke: #000000; stroke-width: 2.0;" x1="62.5" x2="364.5" y1="256.2969" y2="256.2969"/><text fill="#000000" font-family="sans-serif" font-size="14" font-weight="bold" lengthAdjust="spacingAndGlyphs" textLength="289" x="66.5" y="248.9951">org.jgrapes.osgi.webconlet.services</text></a><!--link org.jgrapes.* to org.jgrapes.osgi.core--><path d="M739.8347,167.2199 C739.8727,167.3045 739.911,167.3889 739.9495,167.4733 C740.2573,168.1485 740.5788,168.8176 740.9144,169.4789 C743.5994,174.7694 747.1925,179.5625 752,183 C767.05,193.76 1067.25,185.77 1085,191 C1114.52,199.69 1144.05,218.27 1165.37,233.88 " fill="none" id="org.jgrapes.*-org.jgrapes.osgi.core" style="stroke: #A80036; stroke-width: 1.0; stroke-dasharray: 7.0,7.0;"/><polygon fill="#A80036" points="739.8347,167.2199,739.8797,177.0686,741.8862,171.7796,747.1753,173.7861,739.8347,167.2199" style="stroke: #A80036; stroke-width: 1.0;"/><!--link org.jgrapes.* to org.jgrapes.osgi.webconlet.logviewer--><path d="M742.0384,167.0604 C742.0767,167.1464 742.1151,167.2324 742.1536,167.3183 C742.2307,167.4902 742.3085,167.6619 742.3869,167.8334 C744.895,173.3219 748.0475,178.6075 752,183 C772.18,205.42 800.4,222.02 827.24,233.92 " fill="none" id="org.jgrapes.*-org.jgrapes.osgi.webconlet.logviewer" style="stroke: #A80036; stroke-width: 1.0; stroke-dasharray: 7.0,7.0;"/><polygon fill="#A80036" points="742.0384,167.0604,742.0399,176.9092,744.0698,171.6291,749.3499,173.659,742.0384,167.0604" style="stroke: #A80036; stroke-width: 1.0;"/><!--link org.jgrapes.* to org.jgrapes.osgi.webconlet.bundles--><path d="M724.9632,137.408 C724.7495,137.5653 724.532,137.7253 724.3107,137.8881 C723.8681,138.2137 723.4105,138.5504 722.9384,138.8978 C721.0498,140.2872 718.9282,141.8481 716.6022,143.5594 C707.2981,150.4044 694.7238,159.655 680.7125,169.9625 C652.69,190.5775 618.92,215.42 594.07,233.7 " fill="none" id="org.jgrapes.*-org.jgrapes.osgi.webconlet.bundles" style="stroke: #A80036; stroke-width: 1.0; stroke-dasharray: 7.0,7.0;"/><polygon fill="#A80036" points="724.9632,137.408,715.3434,139.5197,720.9358,140.3711,720.0844,145.9635,724.9632,137.408" style="stroke: #A80036; stroke-width: 1.0;"/><!--link org.jgrapes.* to org.jgrapes.osgi.webconlet.services--><path d="M724.574,132.3037 C723.8918,132.3713 723.1705,132.4432 722.4111,132.5195 C716.3355,133.1296 707.8163,134.018 697.3006,135.1986 C676.2694,137.5597 647.2525,141.0894 613.8275,145.8988 C546.9775,155.5175 462.495,170.255 389,191 C349.1,202.26 305.73,219.57 272.53,233.97 " fill="none" id="org.jgrapes.*-org.jgrapes.osgi.webconlet.services" style="stroke: #A80036; stroke-width: 1.0; stroke-dasharray: 7.0,7.0;"/><polygon fill="#A80036" points="724.574,132.3037,715.2235,129.2107,719.5984,132.7967,716.0123,137.1717,724.574,132.3037" style="stroke: #A80036; stroke-width: 1.0;"/><!--
@startuml
skinparam svgLinkTarget _parent
 
 package org.jgrapes {
 
     package "org.jgrapes.*" {
         note "JGrapes comoponent libraries" as LibrariesNote
     }
 
     package org.jgrapes.osgi {
         package org.jgrapes.osgi.core [[./package-summary.html#package.description]] {
         }
         
         package org.jgrapes.osgi.webconlet.logviewer [[../webconlet/logviewer/package-summary.html#package.description]] {
         }
         
         package org.jgrapes.osgi.webconlet.bundles [[../webconlet/bundles/package-summary.html#package.description]] {
         }
         
         package org.jgrapes.osgi.webconlet.services [[../webconlet/services/package-summary.html#package.description]] {
         }
         
     }
 
 }
 
 "org.jgrapes.*" <.. org.jgrapes.osgi.core
 "org.jgrapes.*" <.. org.jgrapes.osgi.webconlet.logviewer
 "org.jgrapes.*" <.. org.jgrapes.osgi.webconlet.bundles
 "org.jgrapes.*" <.. org.jgrapes.osgi.webconlet.services
@enduml

PlantUML version 1.2017.18(Fri Oct 06 18:56:32 CEST 2017)
(GPL source distribution)
Java Runtime: Java(TM) SE Runtime Environment
JVM: Java HotSpot(TM) 64-Bit Server VM
Java Version: 15.0.2+7-27
Operating System: Linux
OS Version: 5.16.12-200.fc35.x86_64
Default Encoding: UTF-8
Language: de
Country: DE
--></g></svg>