<?xml version="1.0" encoding="UTF-8" standalone="no"?><svg xmlns="http://www.w3.org/2000/svg" xmlns:xlink="http://www.w3.org/1999/xlink" contentScriptType="application/ecmascript" contentStyleType="text/css" height="452px" preserveAspectRatio="none" style="width:773px;height:452px;" version="1.1" viewBox="0 0 773 452" width="773px" zoomAndPan="magnify"><defs><filter height="300%" id="fxpcp77ay4wo6" width="300%" x="-1" y="-1"><feGaussianBlur result="blurOut" stdDeviation="2.0"/><feColorMatrix in="blurOut" result="blurOut2" type="matrix" values="0 0 0 0 0 0 0 0 0 0 0 0 0 0 0 0 0 0 .4 0"/><feOffset dx="4.0" dy="4.0" in="blurOut2" result="blurOut3"/><feBlend in="SourceGraphic" in2="blurOut3" mode="normal"/></filter></defs><g><!--cluster org.jgrapes--><polygon fill="#FFFFFF" filter="url(#fxpcp77ay4wo6)" points="22,24,119,24,126,46.2969,751,46.2969,751,440,22,440,22,24" style="stroke: #000000; stroke-width: 2.0;"/><line style="stroke: #000000; stroke-width: 2.0;" x1="22" x2="126" y1="46.2969" y2="46.2969"/><text fill="#000000" font-family="sans-serif" font-size="14" font-weight="bold" lengthAdjust="spacingAndGlyphs" textLength="91" x="26" y="38.9951">org.jgrapes</text><!--cluster org.jgrapes.*--><polygon fill="#FFFFFF" filter="url(#fxpcp77ay4wo6)" points="440,75,549,75,556,97.2969,717,97.2969,717,167,440,167,440,75" style="stroke: #000000; stroke-width: 2.0;"/><line style="stroke: #000000; stroke-width: 2.0;" x1="440" x2="556" y1="97.2969" y2="97.2969"/><text fill="#000000" font-family="sans-serif" font-size="14" font-weight="bold" lengthAdjust="spacingAndGlyphs" textLength="103" x="444" y="89.9951">org.jgrapes.*</text><!--cluster org.jgrapes.osgi--><polygon fill="#FFFFFF" filter="url(#fxpcp77ay4wo6)" points="46,199,181,199,188,221.2969,727,221.2969,727,416,46,416,46,199" style="stroke: #000000; stroke-width: 2.0;"/><line style="stroke: #000000; stroke-width: 2.0;" x1="46" x2="188" y1="221.2969" y2="221.2969"/><text fill="#000000" font-family="sans-serif" font-size="14" font-weight="bold" lengthAdjust="spacingAndGlyphs" textLength="129" x="50" y="213.9951">org.jgrapes.osgi</text><polygon fill="#FBFB77" filter="url(#fxpcp77ay4wo6)" points="483.5,118,483.5,143.1328,692.5,143.1328,692.5,128,682.5,118,483.5,118" style="stroke: #A80036; stroke-width: 1.0;"/><line style="stroke: #A80036; stroke-width: 1.0;" x1="682.5" x2="682.5" y1="118" y2="128"/><line style="stroke: #A80036; stroke-width: 1.0;" x1="692.5" x2="682.5" y1="128" y2="128"/><text fill="#000000" font-family="sans-serif" font-size="13" lengthAdjust="spacingAndGlyphs" textLength="188" x="489.5" y="135.0669">JGrapes comoponent libraries</text><a target="_parent" xlink:actuate="onRequest" xlink:href="./package-summary.html#package.description" xlink:show="new" xlink:title="./package-summary.html#package.description" xlink:type="simple"><polygon fill="#FFFFFF" filter="url(#fxpcp77ay4wo6)" points="62,234,238,234,245,256.2969,252,256.2969,252,286.5938,62,286.5938,62,234" style="stroke: #000000; stroke-width: 2.0;"/><line style="stroke: #000000; stroke-width: 2.0;" x1="62" x2="245" y1="256.2969" y2="256.2969"/><text fill="#000000" font-family="sans-serif" font-size="14" font-weight="bold" lengthAdjust="spacingAndGlyphs" textLength="170" x="66" y="248.9951">org.jgrapes.osgi.core</text></a><a target="_parent" xlink:actuate="onRequest" xlink:href="../webconlet/logviewer/package-summary.html#package.description" xlink:show="new" xlink:title="../webconlet/logviewer/package-summary.html#package.description" xlink:type="simple"><polygon fill="#FFFFFF" filter="url(#fxpcp77ay4wo6)" points="287,234,593,234,600,256.2969,607,256.2969,607,286.5938,287,286.5938,287,234" style="stroke: #000000; stroke-width: 2.0;"/><line style="stroke: #000000; stroke-width: 2.0;" x1="287" x2="600" y1="256.2969" y2="256.2969"/><text fill="#000000" font-family="sans-serif" font-size="14" font-weight="bold" lengthAdjust="spacingAndGlyphs" textLength="300" x="291" y="248.9951">org.jgrapes.osgi.webconlet.logviewer</text></a><a target="_parent" xlink:actuate="onRequest" xlink:href="../webconlet/bundles/package-summary.html#package.description" xlink:show="new" xlink:title="../webconlet/bundles/package-summary.html#package.description" xlink:type="simple"><polygon fill="#FFFFFF" filter="url(#fxpcp77ay4wo6)" points="62.5,347,353.5,347,360.5,369.2969,367.5,369.2969,367.5,399.5938,62.5,399.5938,62.5,347" style="stroke: #000000; stroke-width: 2.0;"/><line style="stroke: #000000; stroke-width: 2.0;" x1="62.5" x2="360.5" y1="369.2969" y2="369.2969"/><text fill="#000000" font-family="sans-serif" font-size="14" font-weight="bold" lengthAdjust="spacingAndGlyphs" textLength="285" x="66.5" y="361.9951">org.jgrapes.osgi.webconlet.bundles</text></a><a target="_parent" xlink:actuate="onRequest" xlink:href="../webconlet/services/package-summary.html#package.description" xlink:show="new" xlink:title="../webconlet/services/package-summary.html#package.description" xlink:type="simple"><polygon fill="#FFFFFF" filter="url(#fxpcp77ay4wo6)" points="402.5,347,697.5,347,704.5,369.2969,711.5,369.2969,711.5,399.5938,402.5,399.5938,402.5,347" style="stroke: #000000; stroke-width: 2.0;"/><line style="stroke: #000000; stroke-width: 2.0;" x1="402.5" x2="704.5" y1="369.2969" y2="369.2969"/><text fill="#000000" font-family="sans-serif" font-size="14" font-weight="bold" lengthAdjust="spacingAndGlyphs" textLength="289" x="406.5" y="361.9951">org.jgrapes.osgi.webconlet.services</text></a><!--link org.jgrapes.* to org.jgrapes.osgi.core--><path d="M439.8189,133.5403 C438.8662,133.7829 437.8374,134.0464 436.7361,134.3303 C434.5337,134.8983 432.0417,135.5484 429.2902,136.2772 C418.2841,139.1925 403.1256,143.3687 385.7363,148.6 C350.9575,159.0625 307.255,173.745 270,191 C243.77,203.15 215.99,219.93 194.53,233.85 " fill="none" id="org.jgrapes.*-org.jgrapes.osgi.core" style="stroke: #A80036; stroke-width: 1.0; stroke-dasharray: 7.0,7.0;"/><polygon fill="#A80036" points="439.8189,133.5403,430.1102,131.8847,434.9735,134.774,432.0842,139.6373,439.8189,133.5403" style="stroke: #A80036; stroke-width: 1.0;"/><!--link org.jgrapes.* to org.jgrapes.osgi.webconlet.logviewer--><path d="M447.7237,167.0925 C447.7212,167.408 447.7188,167.7247 447.7163,168.0426 C447.7113,168.6782 447.7063,169.3183 447.7013,169.9625 C447.54,190.5775 447.345,215.42 447.2,233.7 " fill="none" id="org.jgrapes.*-org.jgrapes.osgi.webconlet.logviewer" style="stroke: #A80036; stroke-width: 1.0; stroke-dasharray: 7.0,7.0;"/><polygon fill="#A80036" points="447.7237,167.0925,443.6534,176.0609,447.6846,172.0923,451.6532,176.1235,447.7237,167.0925" style="stroke: #A80036; stroke-width: 1.0;"/><!--link org.jgrapes.* to org.jgrapes.osgi.webconlet.bundles--><path d="M454.9195,167.1071 C454.9574,167.1918 454.9956,167.2764 455.034,167.361 C455.3411,168.0372 455.6615,168.7077 455.9959,169.3706 C458.6713,174.6744 462.24,179.5 467,183 C481.16,193.41 612.89,178.26 625,191 C654.4,221.92 651.91,253.89 625,287 C616.28,297.73 473.14,325.9 358.42,346.99 " fill="none" id="org.jgrapes.*-org.jgrapes.osgi.webconlet.bundles" style="stroke: #A80036; stroke-width: 1.0; stroke-dasharray: 7.0,7.0;"/><polygon fill="#A80036" points="454.9195,167.1071,454.9503,176.9559,456.9645,171.6698,462.2506,173.6839,454.9195,167.1071" style="stroke: #A80036; stroke-width: 1.0;"/><!--link org.jgrapes.* to org.jgrapes.osgi.webconlet.services--><path d="M454.8976,167.1394 C454.9356,167.2241 454.9738,167.3087 455.0122,167.3932 C455.3195,168.0691 455.6401,168.7391 455.9748,169.4016 C458.6525,174.7013 462.2275,179.5175 467,183 C483.62,195.13 637.77,176.14 652,191 C681.51,221.81 669.36,248.02 652,287 C641.08,311.53 619.26,331.97 599.28,346.71 " fill="none" id="org.jgrapes.*-org.jgrapes.osgi.webconlet.services" style="stroke: #A80036; stroke-width: 1.0; stroke-dasharray: 7.0,7.0;"/><polygon fill="#A80036" points="454.8976,167.1394,454.9322,176.9882,456.9443,171.7013,462.2312,173.7135,454.8976,167.1394" style="stroke: #A80036; stroke-width: 1.0;"/><!--link org.jgrapes.osgi.core to org.jgrapes.osgi.webconlet.logviewer--><!--link org.jgrapes.osgi.webconlet.logviewer to org.jgrapes.osgi.webconlet.bundles--><!--link org.jgrapes.osgi.webconlet.logviewer to org.jgrapes.osgi.webconlet.services--><!--
@startuml
skinparam svgLinkTarget _parent
 
 package org.jgrapes {
 
     package "org.jgrapes.*" {
         note "JGrapes comoponent libraries" as LibrariesNote
     }
 
     package org.jgrapes.osgi {
         package org.jgrapes.osgi.core [[./package-summary.html#package.description]] {
         }
         
         package org.jgrapes.osgi.webconlet.logviewer          [[../webconlet/logviewer/package-summary.html#package.description]] {
         }
         
         package org.jgrapes.osgi.webconlet.bundles          [[../webconlet/bundles/package-summary.html#package.description]] {
         }
         
         package org.jgrapes.osgi.webconlet.services          [[../webconlet/services/package-summary.html#package.description]] {
         }
         
     }
 
 }
 
 "org.jgrapes.*" <.. org.jgrapes.osgi.core
 "org.jgrapes.*" <.. org.jgrapes.osgi.webconlet.logviewer
 "org.jgrapes.*" <.. org.jgrapes.osgi.webconlet.bundles
 "org.jgrapes.*" <.. org.jgrapes.osgi.webconlet.services
 
 org.jgrapes.osgi.core -[hidden]right-> org.jgrapes.osgi.webconlet.logviewer
 org.jgrapes.osgi.webconlet.logviewer -[hidden]up-> org.jgrapes.osgi.webconlet.bundles
 org.jgrapes.osgi.webconlet.logviewer -[hidden]up-> org.jgrapes.osgi.webconlet.services
@enduml

PlantUML version 1.2017.18(Fri Oct 06 16:56:32 UTC 2017)
(GPL source distribution)
Java Runtime: OpenJDK Runtime Environment
JVM: OpenJDK 64-Bit Server VM
Java Version: 17.0.3+7-LTS
Operating System: Linux
OS Version: 5.13.0-1029-azure
Default Encoding: UTF-8
Language: en
Country: 
--></g></svg>