<?xml version="1.0" encoding="UTF-8" standalone="no"?><svg xmlns="http://www.w3.org/2000/svg" xmlns:xlink="http://www.w3.org/1999/xlink" contentScriptType="application/ecmascript" contentStyleType="text/css" height="346px" preserveAspectRatio="none" style="width:350px;height:346px;" version="1.1" viewBox="0 0 350 346" width="350px" zoomAndPan="magnify"><defs><filter height="300%" id="fgf2rdxy9w0x5" width="300%" x="-1" y="-1"><feGaussianBlur result="blurOut" stdDeviation="2.0"/><feColorMatrix in="blurOut" result="blurOut2" type="matrix" values="0 0 0 0 0 0 0 0 0 0 0 0 0 0 0 0 0 0 .4 0"/><feOffset dx="4.0" dy="4.0" in="blurOut2" result="blurOut3"/><feBlend in="SourceGraphic" in2="blurOut3" mode="normal"/></filter></defs><g><rect fill="#FFFFFF" filter="url(#fgf2rdxy9w0x5)" height="21" style="stroke: #A80036; stroke-width: 1.0;" width="10" x="46.5" y="48.2969"/><rect fill="#FFFFFF" filter="url(#fgf2rdxy9w0x5)" height="255.0625" style="stroke: #A80036; stroke-width: 1.0;" width="10" x="194.5" y="69.2969"/><rect fill="#FFFFFF" filter="url(#fgf2rdxy9w0x5)" height="217.9297" style="stroke: #A80036; stroke-width: 1.0;" width="10" x="199.5" y="106.4297"/><rect fill="#FFFFFF" filter="url(#fgf2rdxy9w0x5)" height="59.2656" style="stroke: #000000; stroke-width: 2.0;" width="222.5" x="117" y="126.5625"/><rect fill="#FFFFFF" filter="url(#fgf2rdxy9w0x5)" height="46.2656" style="stroke: #000000; stroke-width: 2.0;" width="269" x="13" y="271.0938"/><line style="stroke: #A80036; stroke-width: 1.0; stroke-dasharray: 5.0,5.0;" x1="51" x2="51" y1="38.2969" y2="334.3594"/><line style="stroke: #A80036; stroke-width: 1.0; stroke-dasharray: 5.0,5.0;" x1="199" x2="199" y1="38.2969" y2="334.3594"/><rect fill="#FEFECE" filter="url(#fgf2rdxy9w0x5)" height="30.2969" style="stroke: #A80036; stroke-width: 1.5;" width="53" x="23" y="3"/><text fill="#000000" font-family="sans-serif" font-size="14" lengthAdjust="spacingAndGlyphs" textLength="39" x="30" y="22.9951">Portal</text><rect fill="#FEFECE" filter="url(#fgf2rdxy9w0x5)" height="30.2969" style="stroke: #A80036; stroke-width: 1.5;" width="141" x="127" y="3"/><text fill="#000000" font-family="sans-serif" font-size="14" lengthAdjust="spacingAndGlyphs" textLength="127" x="134" y="22.9951">PortletComponent</text><rect fill="#FFFFFF" filter="url(#fgf2rdxy9w0x5)" height="21" style="stroke: #A80036; stroke-width: 1.0;" width="10" x="46.5" y="48.2969"/><rect fill="#FFFFFF" filter="url(#fgf2rdxy9w0x5)" height="255.0625" style="stroke: #A80036; stroke-width: 1.0;" width="10" x="194.5" y="69.2969"/><rect fill="#FFFFFF" filter="url(#fgf2rdxy9w0x5)" height="217.9297" style="stroke: #A80036; stroke-width: 1.0;" width="10" x="199.5" y="106.4297"/><polygon fill="#A80036" points="182.5,65.2969,192.5,69.2969,182.5,73.2969,186.5,69.2969" style="stroke: #A80036; stroke-width: 1.0;"/><line style="stroke: #A80036; stroke-width: 1.0;" x1="51.5" x2="188.5" y1="69.2969" y2="69.2969"/><text fill="#000000" font-family="sans-serif" font-size="13" lengthAdjust="spacingAndGlyphs" textLength="119" x="58.5" y="64.3638">AddPortletRequest</text><line style="stroke: #A80036; stroke-width: 1.0;" x1="204.5" x2="251.5" y1="93.5625" y2="93.5625"/><line style="stroke: #A80036; stroke-width: 1.0;" x1="251.5" x2="251.5" y1="93.5625" y2="106.5625"/><line style="stroke: #A80036; stroke-width: 1.0;" x1="210.5" x2="251.5" y1="106.5625" y2="106.5625"/><polygon fill="#A80036" points="220.5,102.5625,210.5,106.5625,220.5,110.5625,216.5,106.5625" style="stroke: #A80036; stroke-width: 1.0;"/><text fill="#000000" font-family="sans-serif" font-size="13" lengthAdjust="spacingAndGlyphs" textLength="83" x="216.5" y="88.4966">doAddPortlet</text><rect fill="none" height="59.2656" style="stroke: #000000; stroke-width: 2.0;" width="222.5" x="117" y="126.5625"/><polygon fill="#EEEEEE" points="117,126.5625,187,126.5625,187,133.5625,177,143.5625,117,143.5625,117,126.5625" style="stroke: #000000; stroke-width: 2.0;"/><text fill="#000000" font-family="sans-serif" font-size="13" font-weight="bold" lengthAdjust="spacingAndGlyphs" textLength="25" x="132" y="139.6294">opt</text><line style="stroke: #A80036; stroke-width: 1.0;" x1="209.5" x2="251.5" y1="164.8281" y2="164.8281"/><line style="stroke: #A80036; stroke-width: 1.0;" x1="251.5" x2="251.5" y1="164.8281" y2="177.8281"/><line style="stroke: #A80036; stroke-width: 1.0;" x1="210.5" x2="251.5" y1="177.8281" y2="177.8281"/><polygon fill="#A80036" points="220.5,173.8281,210.5,177.8281,220.5,181.8281,216.5,177.8281" style="stroke: #A80036; stroke-width: 1.0;"/><text fill="#000000" font-family="sans-serif" font-size="13" lengthAdjust="spacingAndGlyphs" textLength="111" x="216.5" y="159.7622">generatePortletId</text><line style="stroke: #A80036; stroke-width: 1.0;" x1="209.5" x2="251.5" y1="213.9609" y2="213.9609"/><line style="stroke: #A80036; stroke-width: 1.0;" x1="251.5" x2="251.5" y1="213.9609" y2="226.9609"/><line style="stroke: #A80036; stroke-width: 1.0;" x1="210.5" x2="251.5" y1="226.9609" y2="226.9609"/><polygon fill="#A80036" points="220.5,222.9609,210.5,226.9609,220.5,230.9609,216.5,226.9609" style="stroke: #A80036; stroke-width: 1.0;"/><text fill="#000000" font-family="sans-serif" font-size="13" lengthAdjust="spacingAndGlyphs" textLength="82" x="216.5" y="208.895">putInSession</text><polygon fill="#A80036" points="62.5,251.9609,52.5,255.9609,62.5,259.9609,58.5,255.9609" style="stroke: #A80036; stroke-width: 1.0;"/><line style="stroke: #A80036; stroke-width: 1.0;" x1="56.5" x2="198.5" y1="255.9609" y2="255.9609"/><text fill="#000000" font-family="sans-serif" font-size="13" lengthAdjust="spacingAndGlyphs" textLength="87" x="68.5" y="251.0278">RenderPortlet</text><rect fill="none" height="46.2656" style="stroke: #000000; stroke-width: 2.0;" width="269" x="13" y="271.0938"/><polygon fill="#EEEEEE" points="13,271.0938,83,271.0938,83,278.0938,73,288.0938,13,288.0938,13,271.0938" style="stroke: #000000; stroke-width: 2.0;"/><text fill="#000000" font-family="sans-serif" font-size="13" font-weight="bold" lengthAdjust="spacingAndGlyphs" textLength="25" x="28" y="284.1606">opt</text><polygon fill="#A80036" points="62.5,305.2266,52.5,309.2266,62.5,313.2266,58.5,309.2266" style="stroke: #A80036; stroke-width: 1.0;"/><line style="stroke: #A80036; stroke-width: 1.0;" x1="56.5" x2="198.5" y1="309.2266" y2="309.2266"/><text fill="#000000" font-family="sans-serif" font-size="13" lengthAdjust="spacingAndGlyphs" textLength="108" x="68.5" y="304.2935">NotifyPortletView</text><!--
@startuml
hide footbox
 
 activate Portal
 Portal -> PortletComponent: AddPortletRequest
 deactivate Portal
 activate PortletComponent
 PortletComponent -> PortletComponent: doAddPortlet
 activate PortletComponent
 opt
 	   PortletComponent -> PortletComponent: generatePortletId
 end opt
 PortletComponent -> PortletComponent: putInSession
 PortletComponent -> Portal: RenderPortlet
 opt 
     PortletComponent -> Portal: NotifyPortletView
 end opt 
 deactivate PortletComponent
 deactivate PortletComponent
 activate Portal
 deactivate Portal
@enduml

PlantUML version 1.2017.18(Fri Oct 06 16:56:32 UTC 2017)
(GPL source distribution)
Java Runtime: Java(TM) SE Runtime Environment
JVM: Java HotSpot(TM) 64-Bit Server VM
Java Version: 1.8.0_151-b12
Operating System: Linux
OS Version: 4.4.0-101-generic
Default Encoding: UTF-8
Language: en
Country: US
--></g></svg>