<?xml version="1.0" encoding="UTF-8" standalone="no"?><svg xmlns="http://www.w3.org/2000/svg" xmlns:xlink="http://www.w3.org/1999/xlink" contentScriptType="application/ecmascript" contentStyleType="text/css" height="528px" preserveAspectRatio="none" style="width:747px;height:528px;" version="1.1" viewBox="0 0 747 528" width="747px" zoomAndPan="magnify"><defs><filter height="300%" id="f14apqq0s5nfwx" width="300%" x="-1" y="-1"><feGaussianBlur result="blurOut" stdDeviation="2.0"/><feColorMatrix in="blurOut" result="blurOut2" type="matrix" values="0 0 0 0 0 0 0 0 0 0 0 0 0 0 0 0 0 0 .4 0"/><feOffset dx="4.0" dy="4.0" in="blurOut2" result="blurOut3"/><feBlend in="SourceGraphic" in2="blurOut3" mode="normal"/></filter></defs><g><rect fill="#FFFFFF" filter="url(#f14apqq0s5nfwx)" height="29.1328" style="stroke: #A80036; stroke-width: 1.0;" width="10" x="197.5" y="117.2969"/><rect fill="#FFFFFF" filter="url(#f14apqq0s5nfwx)" height="29.1328" style="stroke: #A80036; stroke-width: 1.0;" width="10" x="197.5" y="262.9609"/><rect fill="#FFFFFF" filter="url(#f14apqq0s5nfwx)" height="29.1328" style="stroke: #A80036; stroke-width: 1.0;" width="10" x="197.5" y="374.4922"/><rect fill="#FFFFFF" filter="url(#f14apqq0s5nfwx)" height="29.1328" style="stroke: #A80036; stroke-width: 1.0;" width="10" x="197.5" y="439.7578"/><rect fill="#FFFFFF" filter="url(#f14apqq0s5nfwx)" height="58.2656" style="stroke: #A80036; stroke-width: 1.0;" width="10" x="363.5" y="146.4297"/><rect fill="#FFFFFF" filter="url(#f14apqq0s5nfwx)" height="184.9297" style="stroke: #A80036; stroke-width: 1.0;" width="10" x="363.5" y="233.8281"/><rect fill="#FFFFFF" filter="url(#f14apqq0s5nfwx)" height="29.1328" style="stroke: #A80036; stroke-width: 1.0;" width="10" x="363.5" y="468.8906"/><rect fill="#FFFFFF" filter="url(#f14apqq0s5nfwx)" height="29.1328" style="stroke: #A80036; stroke-width: 1.0;" width="10" x="533.5" y="175.5625"/><rect fill="#FFFFFF" filter="url(#f14apqq0s5nfwx)" height="29.1328" style="stroke: #A80036; stroke-width: 1.0;" width="10" x="685" y="345.3594"/><rect fill="#FFFFFF" filter="url(#f14apqq0s5nfwx)" height="104.5313" style="stroke: #000000; stroke-width: 2.0;" width="723" x="13" y="307.2266"/><line style="stroke: #A80036; stroke-width: 1.0; stroke-dasharray: 5.0,5.0;" x1="60" x2="60" y1="86.2969" y2="516.1563"/><line style="stroke: #A80036; stroke-width: 1.0; stroke-dasharray: 5.0,5.0;" x1="202" x2="202" y1="86.2969" y2="516.1563"/><line style="stroke: #A80036; stroke-width: 1.0; stroke-dasharray: 5.0,5.0;" x1="368" x2="368" y1="86.2969" y2="516.1563"/><line style="stroke: #A80036; stroke-width: 1.0; stroke-dasharray: 5.0,5.0;" x1="538" x2="538" y1="86.2969" y2="516.1563"/><line style="stroke: #A80036; stroke-width: 1.0; stroke-dasharray: 5.0,5.0;" x1="615" x2="615" y1="86.2969" y2="516.1563"/><line style="stroke: #A80036; stroke-width: 1.0; stroke-dasharray: 5.0,5.0;" x1="690" x2="690" y1="86.2969" y2="516.1563"/><rect fill="#FEFECE" filter="url(#f14apqq0s5nfwx)" height="30.2969" style="stroke: #A80036; stroke-width: 1.5;" width="71" x="23" y="51"/><text fill="#000000" font-family="sans-serif" font-size="14" lengthAdjust="spacingAndGlyphs" textLength="57" x="30" y="70.9951">Browser</text><rect fill="#FEFECE" filter="url(#f14apqq0s5nfwx)" height="30.2969" style="stroke: #A80036; stroke-width: 1.5;" width="53" x="174" y="51"/><text fill="#000000" font-family="sans-serif" font-size="14" lengthAdjust="spacingAndGlyphs" textLength="39" x="181" y="70.9951">Portal</text><rect fill="#FEFECE" filter="url(#f14apqq0s5nfwx)" height="30.2969" style="stroke: #A80036; stroke-width: 1.5;" width="191" x="271" y="51"/><text fill="#000000" font-family="sans-serif" font-size="14" lengthAdjust="spacingAndGlyphs" textLength="177" x="278" y="70.9951">KVStoreBasedPortalPolicy</text><rect fill="#FEFECE" filter="url(#f14apqq0s5nfwx)" height="30.2969" style="stroke: #A80036; stroke-width: 1.5;" width="73" x="500" y="51"/><text fill="#000000" font-family="sans-serif" font-size="14" lengthAdjust="spacingAndGlyphs" textLength="59" x="507" y="70.9951">KV Store</text><text fill="#000000" font-family="sans-serif" font-size="14" lengthAdjust="spacingAndGlyphs" textLength="51" x="587" y="82.9951">System</text><ellipse cx="615.5" cy="13" fill="#FEFECE" filter="url(#f14apqq0s5nfwx)" rx="8" ry="8" style="stroke: #A80036; stroke-width: 2.0;"/><path d="M615.5,21 L615.5,48 M602.5,29 L628.5,29 M615.5,48 L602.5,63 M615.5,48 L628.5,63 " fill="#FEFECE" filter="url(#f14apqq0s5nfwx)" style="stroke: #A80036; stroke-width: 2.0;"/><rect fill="#FEFECE" filter="url(#f14apqq0s5nfwx)" height="30.2969" style="stroke: #A80036; stroke-width: 1.5;" width="68" x="654" y="51"/><text fill="#000000" font-family="sans-serif" font-size="14" lengthAdjust="spacingAndGlyphs" textLength="54" x="661" y="70.9951">PortletX</text><rect fill="#FFFFFF" filter="url(#f14apqq0s5nfwx)" height="29.1328" style="stroke: #A80036; stroke-width: 1.0;" width="10" x="197.5" y="117.2969"/><rect fill="#FFFFFF" filter="url(#f14apqq0s5nfwx)" height="29.1328" style="stroke: #A80036; stroke-width: 1.0;" width="10" x="197.5" y="262.9609"/><rect fill="#FFFFFF" filter="url(#f14apqq0s5nfwx)" height="29.1328" style="stroke: #A80036; stroke-width: 1.0;" width="10" x="197.5" y="374.4922"/><rect fill="#FFFFFF" filter="url(#f14apqq0s5nfwx)" height="29.1328" style="stroke: #A80036; stroke-width: 1.0;" width="10" x="197.5" y="439.7578"/><rect fill="#FFFFFF" filter="url(#f14apqq0s5nfwx)" height="58.2656" style="stroke: #A80036; stroke-width: 1.0;" width="10" x="363.5" y="146.4297"/><rect fill="#FFFFFF" filter="url(#f14apqq0s5nfwx)" height="184.9297" style="stroke: #A80036; stroke-width: 1.0;" width="10" x="363.5" y="233.8281"/><rect fill="#FFFFFF" filter="url(#f14apqq0s5nfwx)" height="29.1328" style="stroke: #A80036; stroke-width: 1.0;" width="10" x="363.5" y="468.8906"/><rect fill="#FFFFFF" filter="url(#f14apqq0s5nfwx)" height="29.1328" style="stroke: #A80036; stroke-width: 1.0;" width="10" x="533.5" y="175.5625"/><rect fill="#FFFFFF" filter="url(#f14apqq0s5nfwx)" height="29.1328" style="stroke: #A80036; stroke-width: 1.0;" width="10" x="685" y="345.3594"/><polygon fill="#A80036" points="185.5,113.2969,195.5,117.2969,185.5,121.2969,189.5,117.2969" style="stroke: #A80036; stroke-width: 1.0;"/><line style="stroke: #A80036; stroke-width: 1.0;" x1="60.5" x2="191.5" y1="117.2969" y2="117.2969"/><text fill="#000000" font-family="sans-serif" font-size="13" lengthAdjust="spacingAndGlyphs" textLength="86" x="67.5" y="112.3638">"portalReady"</text><polygon fill="#A80036" points="351.5,142.4297,361.5,146.4297,351.5,150.4297,355.5,146.4297" style="stroke: #A80036; stroke-width: 1.0;"/><line style="stroke: #A80036; stroke-width: 1.0;" x1="202.5" x2="357.5" y1="146.4297" y2="146.4297"/><text fill="#000000" font-family="sans-serif" font-size="13" lengthAdjust="spacingAndGlyphs" textLength="76" x="209.5" y="141.4966">PortalReady</text><polygon fill="#A80036" points="521.5,171.5625,531.5,175.5625,521.5,179.5625,525.5,175.5625" style="stroke: #A80036; stroke-width: 1.0;"/><line style="stroke: #A80036; stroke-width: 1.0;" x1="373.5" x2="527.5" y1="175.5625" y2="175.5625"/><text fill="#000000" font-family="sans-serif" font-size="13" lengthAdjust="spacingAndGlyphs" textLength="132" x="380.5" y="170.6294">KeyValueStoreQuery</text><polygon fill="#A80036" points="379.5,200.6953,369.5,204.6953,379.5,208.6953,375.5,204.6953" style="stroke: #A80036; stroke-width: 1.0;"/><line style="stroke: #A80036; stroke-width: 1.0;" x1="373.5" x2="537.5" y1="204.6953" y2="204.6953"/><text fill="#000000" font-family="sans-serif" font-size="13" lengthAdjust="spacingAndGlyphs" textLength="125" x="385.5" y="199.7622">KeyValueStoreData</text><polygon fill="#A80036" points="384.5,229.8281,374.5,233.8281,384.5,237.8281,380.5,233.8281" style="stroke: #A80036; stroke-width: 1.0;"/><line style="stroke: #A80036; stroke-width: 1.0;" x1="378.5" x2="614.5" y1="233.8281" y2="233.8281"/><text fill="#000000" font-family="sans-serif" font-size="13" lengthAdjust="spacingAndGlyphs" textLength="95" x="390.5" y="228.895">PortalPrepared</text><polygon fill="#A80036" points="218.5,258.9609,208.5,262.9609,218.5,266.9609,214.5,262.9609" style="stroke: #A80036; stroke-width: 1.0;"/><line style="stroke: #A80036; stroke-width: 1.0;" x1="212.5" x2="362.5" y1="262.9609" y2="262.9609"/><text fill="#000000" font-family="sans-serif" font-size="13" lengthAdjust="spacingAndGlyphs" textLength="107" x="224.5" y="258.0278">LastPortalLayout</text><polygon fill="#A80036" points="71.5,288.0938,61.5,292.0938,71.5,296.0938,67.5,292.0938" style="stroke: #A80036; stroke-width: 1.0;"/><line style="stroke: #A80036; stroke-width: 1.0;" x1="65.5" x2="201.5" y1="292.0938" y2="292.0938"/><text fill="#000000" font-family="sans-serif" font-size="13" lengthAdjust="spacingAndGlyphs" textLength="113" x="77.5" y="287.1606">"lastPortalLayout"</text><rect fill="none" height="104.5313" style="stroke: #000000; stroke-width: 2.0;" width="723" x="13" y="307.2266"/><polygon fill="#EEEEEE" points="13,307.2266,90,307.2266,90,314.2266,80,324.2266,13,324.2266,13,307.2266" style="stroke: #000000; stroke-width: 2.0;"/><text fill="#000000" font-family="sans-serif" font-size="13" font-weight="bold" lengthAdjust="spacingAndGlyphs" textLength="32" x="28" y="320.2935">loop</text><text fill="#000000" font-family="sans-serif" font-size="11" font-weight="bold" lengthAdjust="spacingAndGlyphs" textLength="205" x="105" y="319.437">[for all portlets to be displayed]</text><polygon fill="#A80036" points="673,341.3594,683,345.3594,673,349.3594,677,345.3594" style="stroke: #A80036; stroke-width: 1.0;"/><line style="stroke: #A80036; stroke-width: 1.0;" x1="373.5" x2="679" y1="345.3594" y2="345.3594"/><text fill="#000000" font-family="sans-serif" font-size="13" lengthAdjust="spacingAndGlyphs" textLength="139" x="380.5" y="340.4263">RenderPortletRequest</text><polygon fill="#A80036" points="218.5,370.4922,208.5,374.4922,218.5,378.4922,214.5,374.4922" style="stroke: #A80036; stroke-width: 1.0;"/><line style="stroke: #A80036; stroke-width: 1.0;" x1="212.5" x2="689" y1="374.4922" y2="374.4922"/><text fill="#000000" font-family="sans-serif" font-size="13" lengthAdjust="spacingAndGlyphs" textLength="87" x="224.5" y="369.5591">RenderPortlet</text><polygon fill="#A80036" points="71.5,399.625,61.5,403.625,71.5,407.625,67.5,403.625" style="stroke: #A80036; stroke-width: 1.0;"/><line style="stroke: #A80036; stroke-width: 1.0;" x1="65.5" x2="201.5" y1="403.625" y2="403.625"/><text fill="#000000" font-family="sans-serif" font-size="13" lengthAdjust="spacingAndGlyphs" textLength="94" x="77.5" y="398.6919">"renderPortlet"</text><polygon fill="#A80036" points="185.5,435.7578,195.5,439.7578,185.5,443.7578,189.5,439.7578" style="stroke: #A80036; stroke-width: 1.0;"/><line style="stroke: #A80036; stroke-width: 1.0;" x1="60.5" x2="191.5" y1="439.7578" y2="439.7578"/><text fill="#000000" font-family="sans-serif" font-size="13" lengthAdjust="spacingAndGlyphs" textLength="90" x="67.5" y="434.8247">"portalLayout"</text><polygon fill="#A80036" points="351.5,464.8906,361.5,468.8906,351.5,472.8906,355.5,468.8906" style="stroke: #A80036; stroke-width: 1.0;"/><line style="stroke: #A80036; stroke-width: 1.0;" x1="202.5" x2="357.5" y1="468.8906" y2="468.8906"/><text fill="#000000" font-family="sans-serif" font-size="13" lengthAdjust="spacingAndGlyphs" textLength="137" x="209.5" y="463.9575">PortalLayoutChanged</text><polygon fill="#A80036" points="526.5,494.0234,536.5,498.0234,526.5,502.0234,530.5,498.0234" style="stroke: #A80036; stroke-width: 1.0;"/><line style="stroke: #A80036; stroke-width: 1.0;" x1="368.5" x2="532.5" y1="498.0234" y2="498.0234"/><text fill="#000000" font-family="sans-serif" font-size="13" lengthAdjust="spacingAndGlyphs" textLength="141" x="375.5" y="493.0903">KeyValueStoreUpdate</text><!--
@startuml
hide footbox
 
 Browser -> Portal: "portalReady"
 activate Portal
 Portal -> KVStoreBasedPortalPolicy: PortalReady
 deactivate Portal
 activate KVStoreBasedPortalPolicy
 KVStoreBasedPortalPolicy -> "KV Store": KeyValueStoreQuery
 activate "KV Store"
 "KV Store" -> KVStoreBasedPortalPolicy: KeyValueStoreData
 deactivate "KV Store"
 deactivate KVStoreBasedPortalPolicy
 
 actor System
 System -> KVStoreBasedPortalPolicy: PortalPrepared
 activate KVStoreBasedPortalPolicy
 KVStoreBasedPortalPolicy -> Portal: LastPortalLayout
 activate Portal
 Portal -> Browser: "lastPortalLayout"
 deactivate Portal
 loop for all portlets to be displayed
     KVStoreBasedPortalPolicy -> PortletX: RenderPortletRequest
     activate PortletX
     PortletX -> Portal: RenderPortlet
     deactivate PortletX
     activate Portal
     Portal -> Browser: "renderPortlet"
     deactivate Portal
 end
 deactivate KVStoreBasedPortalPolicy
 
 Browser -> Portal: "portalLayout"
 activate Portal
 Portal -> KVStoreBasedPortalPolicy: PortalLayoutChanged
 deactivate Portal
 activate KVStoreBasedPortalPolicy
 KVStoreBasedPortalPolicy -> "KV Store": KeyValueStoreUpdate
 deactivate KVStoreBasedPortalPolicy
@enduml

PlantUML version 1.2017.18(Fri Oct 06 16:56:32 UTC 2017)
(GPL source distribution)
Java Runtime: Java(TM) SE Runtime Environment
JVM: Java HotSpot(TM) 64-Bit Server VM
Java Version: 1.8.0_151-b12
Operating System: Linux
OS Version: 4.4.0-112-generic
Default Encoding: UTF-8
Language: en
Country: US
--></g></svg>