<?xml version="1.0" encoding="UTF-8" standalone="no"?><svg xmlns="http://www.w3.org/2000/svg" xmlns:xlink="http://www.w3.org/1999/xlink" contentScriptType="application/ecmascript" contentStyleType="text/css" height="262px" preserveAspectRatio="none" style="width:359px;height:262px;" version="1.1" viewBox="0 0 359 262" width="359px" zoomAndPan="magnify"><defs><filter height="300%" id="f1hb0wpuh1xgyd" width="300%" x="-1" y="-1"><feGaussianBlur result="blurOut" stdDeviation="2.0"/><feColorMatrix in="blurOut" result="blurOut2" type="matrix" values="0 0 0 0 0 0 0 0 0 0 0 0 0 0 0 0 0 0 .4 0"/><feOffset dx="4.0" dy="4.0" in="blurOut2" result="blurOut3"/><feBlend in="SourceGraphic" in2="blurOut3" mode="normal"/></filter></defs><g><rect fill="#FFFFFF" filter="url(#f1hb0wpuh1xgyd)" height="21" style="stroke: #A80036; stroke-width: 1.0;" width="10" x="46.5" y="48.2969"/><rect fill="#FFFFFF" filter="url(#f1hb0wpuh1xgyd)" height="170.7969" style="stroke: #A80036; stroke-width: 1.0;" width="10" x="192.5" y="69.2969"/><rect fill="#FFFFFF" filter="url(#f1hb0wpuh1xgyd)" height="133.6641" style="stroke: #A80036; stroke-width: 1.0;" width="10" x="197.5" y="106.4297"/><rect fill="#FFFFFF" filter="url(#f1hb0wpuh1xgyd)" height="46.2656" style="stroke: #000000; stroke-width: 2.0;" width="267" x="13" y="126.5625"/><rect fill="#FFFFFF" filter="url(#f1hb0wpuh1xgyd)" height="46.2656" style="stroke: #000000; stroke-width: 2.0;" width="267" x="13" y="186.8281"/><line style="stroke: #A80036; stroke-width: 1.0; stroke-dasharray: 5.0,5.0;" x1="51" x2="51" y1="38.2969" y2="250.0938"/><line style="stroke: #A80036; stroke-width: 1.0; stroke-dasharray: 5.0,5.0;" x1="197" x2="197" y1="38.2969" y2="250.0938"/><rect fill="#FEFECE" filter="url(#f1hb0wpuh1xgyd)" height="30.2969" style="stroke: #A80036; stroke-width: 1.5;" width="53" x="23" y="3"/><text fill="#000000" font-family="sans-serif" font-size="14" lengthAdjust="spacingAndGlyphs" textLength="39" x="30" y="22.9951">Portal</text><rect fill="#FEFECE" filter="url(#f1hb0wpuh1xgyd)" height="30.2969" style="stroke: #A80036; stroke-width: 1.5;" width="141" x="125" y="3"/><text fill="#000000" font-family="sans-serif" font-size="14" lengthAdjust="spacingAndGlyphs" textLength="127" x="132" y="22.9951">PortletComponent</text><rect fill="#FFFFFF" filter="url(#f1hb0wpuh1xgyd)" height="21" style="stroke: #A80036; stroke-width: 1.0;" width="10" x="46.5" y="48.2969"/><rect fill="#FFFFFF" filter="url(#f1hb0wpuh1xgyd)" height="170.7969" style="stroke: #A80036; stroke-width: 1.0;" width="10" x="192.5" y="69.2969"/><rect fill="#FFFFFF" filter="url(#f1hb0wpuh1xgyd)" height="133.6641" style="stroke: #A80036; stroke-width: 1.0;" width="10" x="197.5" y="106.4297"/><polygon fill="#A80036" points="180.5,65.2969,190.5,69.2969,180.5,73.2969,184.5,69.2969" style="stroke: #A80036; stroke-width: 1.0;"/><line style="stroke: #A80036; stroke-width: 1.0;" x1="51.5" x2="186.5" y1="69.2969" y2="69.2969"/><text fill="#000000" font-family="sans-serif" font-size="13" lengthAdjust="spacingAndGlyphs" textLength="117" x="58.5" y="64.3638">NotifyPortletModel</text><line style="stroke: #A80036; stroke-width: 1.0;" x1="202.5" x2="249.5" y1="93.5625" y2="93.5625"/><line style="stroke: #A80036; stroke-width: 1.0;" x1="249.5" x2="249.5" y1="93.5625" y2="106.5625"/><line style="stroke: #A80036; stroke-width: 1.0;" x1="208.5" x2="249.5" y1="106.5625" y2="106.5625"/><polygon fill="#A80036" points="218.5,102.5625,208.5,106.5625,218.5,110.5625,214.5,106.5625" style="stroke: #A80036; stroke-width: 1.0;"/><text fill="#000000" font-family="sans-serif" font-size="13" lengthAdjust="spacingAndGlyphs" textLength="133" x="214.5" y="88.4966">doNotifyPortletModel</text><rect fill="none" height="46.2656" style="stroke: #000000; stroke-width: 2.0;" width="267" x="13" y="126.5625"/><polygon fill="#EEEEEE" points="13,126.5625,83,126.5625,83,133.5625,73,143.5625,13,143.5625,13,126.5625" style="stroke: #000000; stroke-width: 2.0;"/><text fill="#000000" font-family="sans-serif" font-size="13" font-weight="bold" lengthAdjust="spacingAndGlyphs" textLength="25" x="28" y="139.6294">opt</text><polygon fill="#A80036" points="62.5,160.6953,52.5,164.6953,62.5,168.6953,58.5,164.6953" style="stroke: #A80036; stroke-width: 1.0;"/><line style="stroke: #A80036; stroke-width: 1.0;" x1="56.5" x2="196.5" y1="164.6953" y2="164.6953"/><text fill="#000000" font-family="sans-serif" font-size="13" lengthAdjust="spacingAndGlyphs" textLength="87" x="68.5" y="159.7622">RenderPortlet</text><rect fill="none" height="46.2656" style="stroke: #000000; stroke-width: 2.0;" width="267" x="13" y="186.8281"/><polygon fill="#EEEEEE" points="13,186.8281,83,186.8281,83,193.8281,73,203.8281,13,203.8281,13,186.8281" style="stroke: #000000; stroke-width: 2.0;"/><text fill="#000000" font-family="sans-serif" font-size="13" font-weight="bold" lengthAdjust="spacingAndGlyphs" textLength="25" x="28" y="199.895">opt</text><polygon fill="#A80036" points="62.5,220.9609,52.5,224.9609,62.5,228.9609,58.5,224.9609" style="stroke: #A80036; stroke-width: 1.0;"/><line style="stroke: #A80036; stroke-width: 1.0;" x1="56.5" x2="196.5" y1="224.9609" y2="224.9609"/><text fill="#000000" font-family="sans-serif" font-size="13" lengthAdjust="spacingAndGlyphs" textLength="108" x="68.5" y="220.0278">NotifyPortletView</text><!--
@startuml
hide footbox
 
 activate Portal
 Portal -> PortletComponent: NotifyPortletModel
 deactivate Portal
 activate PortletComponent
 PortletComponent -> PortletComponent: doNotifyPortletModel
 activate PortletComponent
 opt
     PortletComponent -> Portal: RenderPortlet
 end opt 
 opt 
     PortletComponent -> Portal: NotifyPortletView
 end opt 
 deactivate PortletComponent
 deactivate PortletComponent
 activate Portal
 deactivate Portal
@enduml

PlantUML version 1.2017.18(Fri Oct 06 16:56:32 UTC 2017)
(GPL source distribution)
Java Runtime: OpenJDK Runtime Environment
JVM: OpenJDK 64-Bit Server VM
Java Version: 1.8.0_222-8u222-b10-1ubuntu1~16.04.1-b10
Operating System: Linux
OS Version: 4.15.0-1050-gcp
Default Encoding: UTF-8
Language: en
Country: US
--></g></svg>