<?xml version="1.0" encoding="UTF-8" standalone="no"?><svg xmlns="http://www.w3.org/2000/svg" xmlns:xlink="http://www.w3.org/1999/xlink" contentScriptType="application/ecmascript" contentStyleType="text/css" height="406px" preserveAspectRatio="none" style="width:668px;height:406px;" version="1.1" viewBox="0 0 668 406" width="668px" zoomAndPan="magnify"><defs><filter height="300%" id="f1od8uv3n5yd5s" width="300%" x="-1" y="-1"><feGaussianBlur result="blurOut" stdDeviation="2.0"/><feColorMatrix in="blurOut" result="blurOut2" type="matrix" values="0 0 0 0 0 0 0 0 0 0 0 0 0 0 0 0 0 0 .4 0"/><feOffset dx="4.0" dy="4.0" in="blurOut2" result="blurOut3"/><feBlend in="SourceGraphic" in2="blurOut3" mode="normal"/></filter></defs><g><!--cluster Conceptual Portal\n(Portal Gateway)--><rect fill="#FFFFFF" filter="url(#f1od8uv3n5yd5s)" height="115" style="stroke: #000000; stroke-width: 2.0;" width="249" x="102.5" y="67"/><text fill="#000000" font-family="sans-serif" font-size="14" font-weight="bold" lengthAdjust="spacingAndGlyphs" textLength="140" x="157" y="81.9951">Conceptual Portal</text><text fill="#000000" font-family="sans-serif" font-size="14" font-weight="bold" lengthAdjust="spacingAndGlyphs" textLength="132" x="161" y="98.292">(Portal Gateway)</text><!--cluster ##18--><!--class Portal--><rect fill="#FEFECE" filter="url(#f1od8uv3n5yd5s)" height="48" id="Portal" style="stroke: #A80036; stroke-width: 1.5;" width="69" x="266" y="118"/><ellipse cx="281" cy="134" fill="#ADD1B2" rx="11" ry="11" style="stroke: #A80036; stroke-width: 1.0;"/><path d="M283.9688,139.6406 Q283.3906,139.9375 282.75,140.0859 Q282.1094,140.2344 281.4063,140.2344 Q278.9063,140.2344 277.5859,138.5859 Q276.2656,136.9375 276.2656,133.8125 Q276.2656,130.6875 277.5859,129.0313 Q278.9063,127.375 281.4063,127.375 Q282.1094,127.375 282.7578,127.5313 Q283.4063,127.6875 283.9688,127.9844 L283.9688,130.7031 Q283.3438,130.125 282.75,129.8516 Q282.1563,129.5781 281.5313,129.5781 Q280.1875,129.5781 279.5,130.6484 Q278.8125,131.7188 278.8125,133.8125 Q278.8125,135.9063 279.5,136.9766 Q280.1875,138.0469 281.5313,138.0469 Q282.1563,138.0469 282.75,137.7734 Q283.3438,137.5 283.9688,136.9219 L283.9688,139.6406 Z "/><text fill="#000000" font-family="sans-serif" font-size="12" lengthAdjust="spacingAndGlyphs" textLength="37" x="295" y="138.1543">Portal</text><line style="stroke: #A80036; stroke-width: 1.5;" x1="267" x2="334" y1="150" y2="150"/><line style="stroke: #A80036; stroke-width: 1.5;" x1="267" x2="334" y1="158" y2="158"/><!--class PortalWeblet--><rect fill="#FEFECE" filter="url(#f1od8uv3n5yd5s)" height="48" id="PortalWeblet" style="stroke: #A80036; stroke-width: 1.5;" width="112" x="118.5" y="118"/><ellipse cx="133.5" cy="134" fill="#ADD1B2" rx="11" ry="11" style="stroke: #A80036; stroke-width: 1.0;"/><path d="M136.4688,139.6406 Q135.8906,139.9375 135.25,140.0859 Q134.6094,140.2344 133.9063,140.2344 Q131.4063,140.2344 130.0859,138.5859 Q128.7656,136.9375 128.7656,133.8125 Q128.7656,130.6875 130.0859,129.0313 Q131.4063,127.375 133.9063,127.375 Q134.6094,127.375 135.2578,127.5313 Q135.9063,127.6875 136.4688,127.9844 L136.4688,130.7031 Q135.8438,130.125 135.25,129.8516 Q134.6563,129.5781 134.0313,129.5781 Q132.6875,129.5781 132,130.6484 Q131.3125,131.7188 131.3125,133.8125 Q131.3125,135.9063 132,136.9766 Q132.6875,138.0469 134.0313,138.0469 Q134.6563,138.0469 135.25,137.7734 Q135.8438,137.5 136.4688,136.9219 L136.4688,139.6406 Z "/><text fill="#000000" font-family="sans-serif" font-size="12" lengthAdjust="spacingAndGlyphs" textLength="80" x="147.5" y="138.1543">PortalWeblet</text><line style="stroke: #A80036; stroke-width: 1.5;" x1="119.5" x2="229.5" y1="150" y2="150"/><line style="stroke: #A80036; stroke-width: 1.5;" x1="119.5" x2="229.5" y1="158" y2="158"/><!--class PortletB--><rect fill="#FEFECE" filter="url(#f1od8uv3n5yd5s)" height="48" id="PortletB" style="stroke: #A80036; stroke-width: 1.5;" width="82" x="537.5" y="118"/><ellipse cx="552.5" cy="134" fill="#ADD1B2" rx="11" ry="11" style="stroke: #A80036; stroke-width: 1.0;"/><path d="M555.4688,139.6406 Q554.8906,139.9375 554.25,140.0859 Q553.6094,140.2344 552.9063,140.2344 Q550.4063,140.2344 549.0859,138.5859 Q547.7656,136.9375 547.7656,133.8125 Q547.7656,130.6875 549.0859,129.0313 Q550.4063,127.375 552.9063,127.375 Q553.6094,127.375 554.2578,127.5313 Q554.9063,127.6875 555.4688,127.9844 L555.4688,130.7031 Q554.8438,130.125 554.25,129.8516 Q553.6563,129.5781 553.0313,129.5781 Q551.6875,129.5781 551,130.6484 Q550.3125,131.7188 550.3125,133.8125 Q550.3125,135.9063 551,136.9766 Q551.6875,138.0469 553.0313,138.0469 Q553.6563,138.0469 554.25,137.7734 Q554.8438,137.5 555.4688,136.9219 L555.4688,139.6406 Z "/><text fill="#000000" font-family="sans-serif" font-size="12" lengthAdjust="spacingAndGlyphs" textLength="50" x="566.5" y="138.1543">PortletB</text><line style="stroke: #A80036; stroke-width: 1.5;" x1="538.5" x2="618.5" y1="150" y2="150"/><line style="stroke: #A80036; stroke-width: 1.5;" x1="538.5" x2="618.5" y1="158" y2="158"/><!--class PortletA--><rect fill="#FEFECE" filter="url(#f1od8uv3n5yd5s)" height="48" id="PortletA" style="stroke: #A80036; stroke-width: 1.5;" width="82" x="399.5" y="118"/><ellipse cx="414.5" cy="134" fill="#ADD1B2" rx="11" ry="11" style="stroke: #A80036; stroke-width: 1.0;"/><path d="M417.4688,139.6406 Q416.8906,139.9375 416.25,140.0859 Q415.6094,140.2344 414.9063,140.2344 Q412.4063,140.2344 411.0859,138.5859 Q409.7656,136.9375 409.7656,133.8125 Q409.7656,130.6875 411.0859,129.0313 Q412.4063,127.375 414.9063,127.375 Q415.6094,127.375 416.2578,127.5313 Q416.9063,127.6875 417.4688,127.9844 L417.4688,130.7031 Q416.8438,130.125 416.25,129.8516 Q415.6563,129.5781 415.0313,129.5781 Q413.6875,129.5781 413,130.6484 Q412.3125,131.7188 412.3125,133.8125 Q412.3125,135.9063 413,136.9766 Q413.6875,138.0469 415.0313,138.0469 Q415.6563,138.0469 416.25,137.7734 Q416.8438,137.5 417.4688,136.9219 L417.4688,139.6406 Z "/><text fill="#000000" font-family="sans-serif" font-size="12" lengthAdjust="spacingAndGlyphs" textLength="50" x="428.5" y="138.1543">PortletA</text><line style="stroke: #A80036; stroke-width: 1.5;" x1="400.5" x2="480.5" y1="150" y2="150"/><line style="stroke: #A80036; stroke-width: 1.5;" x1="400.5" x2="480.5" y1="158" y2="158"/><!--class PortletAData--><rect fill="#FEFECE" filter="url(#f1od8uv3n5yd5s)" height="60.8047" id="PortletAData" style="stroke: #A80036; stroke-width: 1.5;" width="115" x="392" y="226"/><ellipse cx="408.35" cy="242" fill="#ADD1B2" rx="11" ry="11" style="stroke: #A80036; stroke-width: 1.0;"/><path d="M411.3188,247.6406 Q410.7406,247.9375 410.1,248.0859 Q409.4594,248.2344 408.7563,248.2344 Q406.2563,248.2344 404.9359,246.5859 Q403.6156,244.9375 403.6156,241.8125 Q403.6156,238.6875 404.9359,237.0313 Q406.2563,235.375 408.7563,235.375 Q409.4594,235.375 410.1078,235.5313 Q410.7563,235.6875 411.3188,235.9844 L411.3188,238.7031 Q410.6938,238.125 410.1,237.8516 Q409.5063,237.5781 408.8813,237.5781 Q407.5375,237.5781 406.85,238.6484 Q406.1625,239.7188 406.1625,241.8125 Q406.1625,243.9063 406.85,244.9766 Q407.5375,246.0469 408.8813,246.0469 Q409.5063,246.0469 410.1,245.7734 Q410.6938,245.5 411.3188,244.9219 L411.3188,247.6406 Z "/><text fill="#000000" font-family="sans-serif" font-size="12" lengthAdjust="spacingAndGlyphs" textLength="80" x="422.65" y="246.1543">PortletAData</text><line style="stroke: #A80036; stroke-width: 1.5;" x1="393" x2="506" y1="258" y2="258"/><rect fill="none" height="6" style="stroke: #C82930; stroke-width: 1.0;" width="6" x="400" y="266.9023"/><text fill="#000000" font-family="sans-serif" font-size="11" lengthAdjust="spacingAndGlyphs" textLength="89" x="412" y="272.2104">portletId: String</text><line style="stroke: #A80036; stroke-width: 1.5;" x1="393" x2="506" y1="278.8047" y2="278.8047"/><!--class PortletBData--><rect fill="#FEFECE" filter="url(#f1od8uv3n5yd5s)" height="60.8047" id="PortletBData" style="stroke: #A80036; stroke-width: 1.5;" width="115" x="542" y="226"/><ellipse cx="558.35" cy="242" fill="#ADD1B2" rx="11" ry="11" style="stroke: #A80036; stroke-width: 1.0;"/><path d="M561.3188,247.6406 Q560.7406,247.9375 560.1,248.0859 Q559.4594,248.2344 558.7563,248.2344 Q556.2563,248.2344 554.9359,246.5859 Q553.6156,244.9375 553.6156,241.8125 Q553.6156,238.6875 554.9359,237.0313 Q556.2563,235.375 558.7563,235.375 Q559.4594,235.375 560.1078,235.5313 Q560.7563,235.6875 561.3188,235.9844 L561.3188,238.7031 Q560.6938,238.125 560.1,237.8516 Q559.5063,237.5781 558.8813,237.5781 Q557.5375,237.5781 556.85,238.6484 Q556.1625,239.7188 556.1625,241.8125 Q556.1625,243.9063 556.85,244.9766 Q557.5375,246.0469 558.8813,246.0469 Q559.5063,246.0469 560.1,245.7734 Q560.6938,245.5 561.3188,244.9219 L561.3188,247.6406 Z "/><text fill="#000000" font-family="sans-serif" font-size="12" lengthAdjust="spacingAndGlyphs" textLength="80" x="572.65" y="246.1543">PortletBData</text><line style="stroke: #A80036; stroke-width: 1.5;" x1="543" x2="656" y1="258" y2="258"/><rect fill="none" height="6" style="stroke: #C82930; stroke-width: 1.0;" width="6" x="550" y="266.9023"/><text fill="#000000" font-family="sans-serif" font-size="11" lengthAdjust="spacingAndGlyphs" textLength="89" x="562" y="272.2104">portletId: String</text><line style="stroke: #A80036; stroke-width: 1.5;" x1="543" x2="656" y1="278.8047" y2="278.8047"/><!--class Session--><rect fill="#FEFECE" filter="url(#f1od8uv3n5yd5s)" height="48" id="Session" style="stroke: #A80036; stroke-width: 1.5;" width="81" x="484" y="347"/><ellipse cx="499" cy="363" fill="#ADD1B2" rx="11" ry="11" style="stroke: #A80036; stroke-width: 1.0;"/><path d="M501.9688,368.6406 Q501.3906,368.9375 500.75,369.0859 Q500.1094,369.2344 499.4063,369.2344 Q496.9063,369.2344 495.5859,367.5859 Q494.2656,365.9375 494.2656,362.8125 Q494.2656,359.6875 495.5859,358.0313 Q496.9063,356.375 499.4063,356.375 Q500.1094,356.375 500.7578,356.5313 Q501.4063,356.6875 501.9688,356.9844 L501.9688,359.7031 Q501.3438,359.125 500.75,358.8516 Q500.1563,358.5781 499.5313,358.5781 Q498.1875,358.5781 497.5,359.6484 Q496.8125,360.7188 496.8125,362.8125 Q496.8125,364.9063 497.5,365.9766 Q498.1875,367.0469 499.5313,367.0469 Q500.1563,367.0469 500.75,366.7734 Q501.3438,366.5 501.9688,365.9219 L501.9688,368.6406 Z "/><text fill="#000000" font-family="sans-serif" font-size="12" lengthAdjust="spacingAndGlyphs" textLength="49" x="513" y="367.1543">Session</text><line style="stroke: #A80036; stroke-width: 1.5;" x1="485" x2="564" y1="379" y2="379"/><line style="stroke: #A80036; stroke-width: 1.5;" x1="485" x2="564" y1="387" y2="387"/><!--entity Browser--><rect fill="#FEFECE" filter="url(#f1od8uv3n5yd5s)" height="36.2969" style="stroke: #A80036; stroke-width: 1.5;" width="77" x="6" y="124"/><rect fill="#FEFECE" height="5" style="stroke: #A80036; stroke-width: 1.5;" width="10" x="1" y="129"/><rect fill="#FEFECE" height="5" style="stroke: #A80036; stroke-width: 1.5;" width="10" x="1" y="150.2969"/><text fill="#000000" font-family="sans-serif" font-size="14" lengthAdjust="spacingAndGlyphs" textLength="57" x="16" y="146.9951">Browser</text><!--class PageResourceProvider--><rect fill="#FEFECE" filter="url(#f1od8uv3n5yd5s)" height="48" id="PageResourceProvider" style="stroke: #A80036; stroke-width: 1.5;" width="174" x="41.5" y="232.5"/><ellipse cx="56.5" cy="248.5" fill="#ADD1B2" rx="11" ry="11" style="stroke: #A80036; stroke-width: 1.0;"/><path d="M59.4688,254.1406 Q58.8906,254.4375 58.25,254.5859 Q57.6094,254.7344 56.9063,254.7344 Q54.4063,254.7344 53.0859,253.0859 Q51.7656,251.4375 51.7656,248.3125 Q51.7656,245.1875 53.0859,243.5313 Q54.4063,241.875 56.9063,241.875 Q57.6094,241.875 58.2578,242.0313 Q58.9063,242.1875 59.4688,242.4844 L59.4688,245.2031 Q58.8438,244.625 58.25,244.3516 Q57.6563,244.0781 57.0313,244.0781 Q55.6875,244.0781 55,245.1484 Q54.3125,246.2188 54.3125,248.3125 Q54.3125,250.4063 55,251.4766 Q55.6875,252.5469 57.0313,252.5469 Q57.6563,252.5469 58.25,252.2734 Q58.8438,252 59.4688,251.4219 L59.4688,254.1406 Z "/><text fill="#000000" font-family="sans-serif" font-size="12" lengthAdjust="spacingAndGlyphs" textLength="142" x="70.5" y="252.6543">PageResourceProvider</text><line style="stroke: #A80036; stroke-width: 1.5;" x1="42.5" x2="214.5" y1="264.5" y2="264.5"/><line style="stroke: #A80036; stroke-width: 1.5;" x1="42.5" x2="214.5" y1="272.5" y2="272.5"/><!--class PortalPolicy--><rect fill="#FEFECE" filter="url(#f1od8uv3n5yd5s)" height="48" id="PortalPolicy" style="stroke: #A80036; stroke-width: 1.5;" width="104" x="250.5" y="232.5"/><ellipse cx="265.5" cy="248.5" fill="#ADD1B2" rx="11" ry="11" style="stroke: #A80036; stroke-width: 1.0;"/><path d="M268.4688,254.1406 Q267.8906,254.4375 267.25,254.5859 Q266.6094,254.7344 265.9063,254.7344 Q263.4063,254.7344 262.0859,253.0859 Q260.7656,251.4375 260.7656,248.3125 Q260.7656,245.1875 262.0859,243.5313 Q263.4063,241.875 265.9063,241.875 Q266.6094,241.875 267.2578,242.0313 Q267.9063,242.1875 268.4688,242.4844 L268.4688,245.2031 Q267.8438,244.625 267.25,244.3516 Q266.6563,244.0781 266.0313,244.0781 Q264.6875,244.0781 264,245.1484 Q263.3125,246.2188 263.3125,248.3125 Q263.3125,250.4063 264,251.4766 Q264.6875,252.5469 266.0313,252.5469 Q266.6563,252.5469 267.25,252.2734 Q267.8438,252 268.4688,251.4219 L268.4688,254.1406 Z "/><text fill="#000000" font-family="sans-serif" font-size="12" lengthAdjust="spacingAndGlyphs" textLength="72" x="279.5" y="252.6543">PortalPolicy</text><line style="stroke: #A80036; stroke-width: 1.5;" x1="251.5" x2="353.5" y1="264.5" y2="264.5"/><line style="stroke: #A80036; stroke-width: 1.5;" x1="251.5" x2="353.5" y1="272.5" y2="272.5"/><!--link PortalWeblet to Portal--><path d="M230.609,142 C242.349,142 254.088,142 265.828,142 " fill="none" id="PortalWeblet-Portal" style="stroke: #A80036; stroke-width: 1.0;"/><text fill="#000000" font-family="sans-serif" font-size="13" lengthAdjust="spacingAndGlyphs" textLength="8" x="238.6861" y="138.068">1</text><text fill="#000000" font-family="sans-serif" font-size="13" lengthAdjust="spacingAndGlyphs" textLength="8" x="249.8519" y="137.5337">1</text><!--link Browser to PortalWeblet--><path d="M83.0938,142 C94.8766,142 106.659,142 118.442,142 " fill="none" id="Browser-PortalWeblet" style="stroke: #A80036; stroke-width: 1.0;"/><text fill="#000000" font-family="sans-serif" font-size="13" lengthAdjust="spacingAndGlyphs" textLength="7" x="91.1179" y="137.6216">*</text><text fill="#000000" font-family="sans-serif" font-size="13" lengthAdjust="spacingAndGlyphs" textLength="7" x="103.4389" y="138.068">*</text><!--link Portal to PortletB--><path d="M312.571,117.92 C326.624,92.896 352.42,55.174 387.167,39 C427.325,20.307 446.419,20.866 486.833,39 C522.651,55.072 550.198,92.823 565.37,117.881 " fill="none" id="Portal-PortletB" style="stroke: #A80036; stroke-width: 1.0;"/><text fill="#000000" font-family="sans-serif" font-size="13" lengthAdjust="spacingAndGlyphs" textLength="8" x="306.6392" y="106.9115">1</text><text fill="#000000" font-family="sans-serif" font-size="13" lengthAdjust="spacingAndGlyphs" textLength="8" x="554.7356" y="107.1114">1</text><!--link Portal to PortletA--><path d="M335.227,155.429 C356.61,160.971 377.994,161.473 399.378,156.937 " fill="none" id="Portal-PortletA" style="stroke: #A80036; stroke-width: 1.0;"/><text fill="#000000" font-family="sans-serif" font-size="13" lengthAdjust="spacingAndGlyphs" textLength="8" x="343.2144" y="153.7324">1</text><text fill="#000000" font-family="sans-serif" font-size="13" lengthAdjust="spacingAndGlyphs" textLength="8" x="383.6227" y="120.2849">1</text><!--link PortletA to PortletAData--><path d="M442.343,166.038 C443.721,183.266 445.618,206.97 447.112,225.65 " fill="none" id="PortletA-PortletAData" style="stroke: #A80036; stroke-width: 1.0;"/><text fill="#000000" font-family="sans-serif" font-size="13" lengthAdjust="spacingAndGlyphs" textLength="8" x="433.7903" y="186.2035">1</text><text fill="#000000" font-family="sans-serif" font-size="13" lengthAdjust="spacingAndGlyphs" textLength="7" x="438.8976" y="214.841">*</text><!--link PortletB to PortletBData--><path d="M582.8,166.038 C586.016,183.266 590.441,206.97 593.928,225.65 " fill="none" id="PortletB-PortletBData" style="stroke: #A80036; stroke-width: 1.0;"/><text fill="#000000" font-family="sans-serif" font-size="13" lengthAdjust="spacingAndGlyphs" textLength="8" x="574.8769" y="186.2035">1</text><text fill="#000000" font-family="sans-serif" font-size="13" lengthAdjust="spacingAndGlyphs" textLength="7" x="585.0569" y="214.841">*</text><!--link PortletAData to Session--><path d="M469.205,287.058 C479.097,301.895 491.138,319.957 501.456,335.4339 " fill="none" id="PortletAData-Session" style="stroke: #A80036; stroke-width: 1.0;"/><polygon fill="#A80036" points="508.946,346.6686,508.9457,339.4575,502.2892,336.6843,502.2895,343.8954,508.946,346.6686" style="stroke: #A80036; stroke-width: 1.0;"/><text fill="#000000" font-family="sans-serif" font-size="13" lengthAdjust="spacingAndGlyphs" textLength="7" x="465.5473" y="307.0082">*</text><text fill="#000000" font-family="sans-serif" font-size="13" lengthAdjust="spacingAndGlyphs" textLength="8" x="496.1797" y="335.9928">1</text><!--link PortletBData to Session--><path d="M579.795,287.058 C569.903,301.895 557.862,319.957 547.544,335.4339 " fill="none" id="PortletBData-Session" style="stroke: #A80036; stroke-width: 1.0;"/><polygon fill="#A80036" points="540.054,346.6686,546.7105,343.8954,546.7108,336.6843,540.0543,339.4575,540.054,346.6686" style="stroke: #A80036; stroke-width: 1.0;"/><text fill="#000000" font-family="sans-serif" font-size="13" lengthAdjust="spacingAndGlyphs" textLength="7" x="568.009" y="307.0082">*</text><text fill="#000000" font-family="sans-serif" font-size="13" lengthAdjust="spacingAndGlyphs" textLength="8" x="534.8703" y="335.9928">1</text><!--link Portal to PageResourceProvider--><path d="M276.639,166.191 C267.835,174.189 257.55,182.911 247.5,190 C225.049,205.836 198.388,220.823 175.998,232.455 " fill="none" id="Portal-PageResourceProvider" style="stroke: #A80036; stroke-width: 1.0;"/><text fill="#000000" font-family="sans-serif" font-size="13" lengthAdjust="spacingAndGlyphs" textLength="8" x="261.8479" y="185.9988">1</text><text fill="#000000" font-family="sans-serif" font-size="13" lengthAdjust="spacingAndGlyphs" textLength="7" x="180.2725" y="221.4555">*</text><!--link Portal to PortalPolicy--><path d="M300.91,166.038 C301.255,185.451 301.746,213.088 302.091,232.493 " fill="none" id="Portal-PortalPolicy" style="stroke: #A80036; stroke-width: 1.0;"/><text fill="#000000" font-family="sans-serif" font-size="13" lengthAdjust="spacingAndGlyphs" textLength="8" x="291.9901" y="186.2035">1</text><text fill="#000000" font-family="sans-serif" font-size="13" lengthAdjust="spacingAndGlyphs" textLength="7" x="294.0893" y="221.5032">*</text><!--
@startuml
skinparam packageStyle rectangle
 allow_mixing
 
 component Browser
 
 package "Conceptual Portal\n(Portal Gateway)" {
    class Portal
 	  class PortalWeblet
 
    Portal "1" -left- "1" PortalWeblet
 }
 
 PortalWeblet "*" -left- "*" Browser
 
 together {
 
   Portal "1" -right- "1" PortletB
   Portal "1" -right- "1" PortletA
 
   class PortletAData {
     -portletId: String
   }
 
   PortletAData "*" -up- "1" PortletA
 
   class PortletBData {
     -portletId: String
   }
 
   PortletBData "*" -up- "1" PortletB
   
   PortletAData "*" -up-* "1" Session
   PortletBData "*" -up-* "1" Session
 }
 
 Portal "1" -down- "*" PageResourceProvider
 Portal "1" -down- "*" PortalPolicy
@enduml

PlantUML version 1.2017.18(Fri Oct 06 16:56:32 UTC 2017)
(GPL source distribution)
Java Runtime: OpenJDK Runtime Environment
JVM: OpenJDK 64-Bit Server VM
Java Version: 1.8.0_222-8u222-b10-1ubuntu1~16.04.1-b10
Operating System: Linux
OS Version: 4.15.0-1050-gcp
Default Encoding: UTF-8
Language: en
Country: US
--></g></svg>