<?xml version="1.0" encoding="UTF-8" standalone="no"?><svg xmlns="http://www.w3.org/2000/svg" xmlns:xlink="http://www.w3.org/1999/xlink" contentScriptType="application/ecmascript" contentStyleType="text/css" height="391px" preserveAspectRatio="none" style="width:641px;height:391px;" version="1.1" viewBox="0 0 641 391" width="641px" zoomAndPan="magnify"><defs><filter height="300%" id="f1od8uv3n5yd5s" width="300%" x="-1" y="-1"><feGaussianBlur result="blurOut" stdDeviation="2.0"/><feColorMatrix in="blurOut" result="blurOut2" type="matrix" values="0 0 0 0 0 0 0 0 0 0 0 0 0 0 0 0 0 0 .4 0"/><feOffset dx="4.0" dy="4.0" in="blurOut2" result="blurOut3"/><feBlend in="SourceGraphic" in2="blurOut3" mode="normal"/></filter></defs><g><!--cluster Conceptual Portal\n(Portal Gateway)--><rect fill="#FFFFFF" filter="url(#f1od8uv3n5yd5s)" height="99" style="stroke: #000000; stroke-width: 2.0;" width="233" x="110.5" y="60"/><text fill="#000000" font-family="sans-serif" font-size="14" font-weight="bold" lengthAdjust="spacingAndGlyphs" textLength="140" x="157" y="74.9951">Conceptual Portal</text><text fill="#000000" font-family="sans-serif" font-size="14" font-weight="bold" lengthAdjust="spacingAndGlyphs" textLength="132" x="161" y="91.292">(Portal Gateway)</text><!--cluster ##18--><!--class Portal--><rect fill="#FEFECE" filter="url(#f1od8uv3n5yd5s)" height="48" id="Portal" style="stroke: #A80036; stroke-width: 1.5;" width="69" x="266" y="103"/><ellipse cx="281" cy="119" fill="#ADD1B2" rx="11" ry="11" style="stroke: #A80036; stroke-width: 1.0;"/><path d="M283.9688,124.6406 Q283.3906,124.9375 282.75,125.0859 Q282.1094,125.2344 281.4063,125.2344 Q278.9063,125.2344 277.5859,123.5859 Q276.2656,121.9375 276.2656,118.8125 Q276.2656,115.6875 277.5859,114.0313 Q278.9063,112.375 281.4063,112.375 Q282.1094,112.375 282.7578,112.5313 Q283.4063,112.6875 283.9688,112.9844 L283.9688,115.7031 Q283.3438,115.125 282.75,114.8516 Q282.1563,114.5781 281.5313,114.5781 Q280.1875,114.5781 279.5,115.6484 Q278.8125,116.7188 278.8125,118.8125 Q278.8125,120.9063 279.5,121.9766 Q280.1875,123.0469 281.5313,123.0469 Q282.1563,123.0469 282.75,122.7734 Q283.3438,122.5 283.9688,121.9219 L283.9688,124.6406 Z "/><text fill="#000000" font-family="sans-serif" font-size="12" lengthAdjust="spacingAndGlyphs" textLength="37" x="295" y="123.1543">Portal</text><line style="stroke: #A80036; stroke-width: 1.5;" x1="267" x2="334" y1="135" y2="135"/><line style="stroke: #A80036; stroke-width: 1.5;" x1="267" x2="334" y1="143" y2="143"/><!--class PortalWeblet--><rect fill="#FEFECE" filter="url(#f1od8uv3n5yd5s)" height="48" id="PortalWeblet" style="stroke: #A80036; stroke-width: 1.5;" width="112" x="118.5" y="103"/><ellipse cx="133.5" cy="119" fill="#ADD1B2" rx="11" ry="11" style="stroke: #A80036; stroke-width: 1.0;"/><path d="M136.4688,124.6406 Q135.8906,124.9375 135.25,125.0859 Q134.6094,125.2344 133.9063,125.2344 Q131.4063,125.2344 130.0859,123.5859 Q128.7656,121.9375 128.7656,118.8125 Q128.7656,115.6875 130.0859,114.0313 Q131.4063,112.375 133.9063,112.375 Q134.6094,112.375 135.2578,112.5313 Q135.9063,112.6875 136.4688,112.9844 L136.4688,115.7031 Q135.8438,115.125 135.25,114.8516 Q134.6563,114.5781 134.0313,114.5781 Q132.6875,114.5781 132,115.6484 Q131.3125,116.7188 131.3125,118.8125 Q131.3125,120.9063 132,121.9766 Q132.6875,123.0469 134.0313,123.0469 Q134.6563,123.0469 135.25,122.7734 Q135.8438,122.5 136.4688,121.9219 L136.4688,124.6406 Z "/><text fill="#000000" font-family="sans-serif" font-size="12" lengthAdjust="spacingAndGlyphs" textLength="80" x="147.5" y="123.1543">PortalWeblet</text><line style="stroke: #A80036; stroke-width: 1.5;" x1="119.5" x2="229.5" y1="135" y2="135"/><line style="stroke: #A80036; stroke-width: 1.5;" x1="119.5" x2="229.5" y1="143" y2="143"/><!--class PortletB--><rect fill="#FEFECE" filter="url(#f1od8uv3n5yd5s)" height="48" id="PortletB" style="stroke: #A80036; stroke-width: 1.5;" width="82" x="511.5" y="103"/><ellipse cx="526.5" cy="119" fill="#ADD1B2" rx="11" ry="11" style="stroke: #A80036; stroke-width: 1.0;"/><path d="M529.4688,124.6406 Q528.8906,124.9375 528.25,125.0859 Q527.6094,125.2344 526.9063,125.2344 Q524.4063,125.2344 523.0859,123.5859 Q521.7656,121.9375 521.7656,118.8125 Q521.7656,115.6875 523.0859,114.0313 Q524.4063,112.375 526.9063,112.375 Q527.6094,112.375 528.2578,112.5313 Q528.9063,112.6875 529.4688,112.9844 L529.4688,115.7031 Q528.8438,115.125 528.25,114.8516 Q527.6563,114.5781 527.0313,114.5781 Q525.6875,114.5781 525,115.6484 Q524.3125,116.7188 524.3125,118.8125 Q524.3125,120.9063 525,121.9766 Q525.6875,123.0469 527.0313,123.0469 Q527.6563,123.0469 528.25,122.7734 Q528.8438,122.5 529.4688,121.9219 L529.4688,124.6406 Z "/><text fill="#000000" font-family="sans-serif" font-size="12" lengthAdjust="spacingAndGlyphs" textLength="50" x="540.5" y="123.1543">PortletB</text><line style="stroke: #A80036; stroke-width: 1.5;" x1="512.5" x2="592.5" y1="135" y2="135"/><line style="stroke: #A80036; stroke-width: 1.5;" x1="512.5" x2="592.5" y1="143" y2="143"/><!--class PortletA--><rect fill="#FEFECE" filter="url(#f1od8uv3n5yd5s)" height="48" id="PortletA" style="stroke: #A80036; stroke-width: 1.5;" width="82" x="375.5" y="103"/><ellipse cx="390.5" cy="119" fill="#ADD1B2" rx="11" ry="11" style="stroke: #A80036; stroke-width: 1.0;"/><path d="M393.4688,124.6406 Q392.8906,124.9375 392.25,125.0859 Q391.6094,125.2344 390.9063,125.2344 Q388.4063,125.2344 387.0859,123.5859 Q385.7656,121.9375 385.7656,118.8125 Q385.7656,115.6875 387.0859,114.0313 Q388.4063,112.375 390.9063,112.375 Q391.6094,112.375 392.2578,112.5313 Q392.9063,112.6875 393.4688,112.9844 L393.4688,115.7031 Q392.8438,115.125 392.25,114.8516 Q391.6563,114.5781 391.0313,114.5781 Q389.6875,114.5781 389,115.6484 Q388.3125,116.7188 388.3125,118.8125 Q388.3125,120.9063 389,121.9766 Q389.6875,123.0469 391.0313,123.0469 Q391.6563,123.0469 392.25,122.7734 Q392.8438,122.5 393.4688,121.9219 L393.4688,124.6406 Z "/><text fill="#000000" font-family="sans-serif" font-size="12" lengthAdjust="spacingAndGlyphs" textLength="50" x="404.5" y="123.1543">PortletA</text><line style="stroke: #A80036; stroke-width: 1.5;" x1="376.5" x2="456.5" y1="135" y2="135"/><line style="stroke: #A80036; stroke-width: 1.5;" x1="376.5" x2="456.5" y1="143" y2="143"/><!--class PortletAData--><rect fill="#FEFECE" filter="url(#f1od8uv3n5yd5s)" height="60.8047" id="PortletAData" style="stroke: #A80036; stroke-width: 1.5;" width="115" x="365" y="211"/><ellipse cx="381.35" cy="227" fill="#ADD1B2" rx="11" ry="11" style="stroke: #A80036; stroke-width: 1.0;"/><path d="M384.3188,232.6406 Q383.7406,232.9375 383.1,233.0859 Q382.4594,233.2344 381.7563,233.2344 Q379.2563,233.2344 377.9359,231.5859 Q376.6156,229.9375 376.6156,226.8125 Q376.6156,223.6875 377.9359,222.0313 Q379.2563,220.375 381.7563,220.375 Q382.4594,220.375 383.1078,220.5313 Q383.7563,220.6875 384.3188,220.9844 L384.3188,223.7031 Q383.6938,223.125 383.1,222.8516 Q382.5063,222.5781 381.8813,222.5781 Q380.5375,222.5781 379.85,223.6484 Q379.1625,224.7188 379.1625,226.8125 Q379.1625,228.9063 379.85,229.9766 Q380.5375,231.0469 381.8813,231.0469 Q382.5063,231.0469 383.1,230.7734 Q383.6938,230.5 384.3188,229.9219 L384.3188,232.6406 Z "/><text fill="#000000" font-family="sans-serif" font-size="12" lengthAdjust="spacingAndGlyphs" textLength="80" x="395.65" y="231.1543">PortletAData</text><line style="stroke: #A80036; stroke-width: 1.5;" x1="366" x2="479" y1="243" y2="243"/><rect fill="none" height="6" style="stroke: #C82930; stroke-width: 1.0;" width="6" x="373" y="251.9023"/><text fill="#000000" font-family="sans-serif" font-size="11" lengthAdjust="spacingAndGlyphs" textLength="89" x="385" y="257.2104">portletId: String</text><line style="stroke: #A80036; stroke-width: 1.5;" x1="366" x2="479" y1="263.8047" y2="263.8047"/><!--class PortletBData--><rect fill="#FEFECE" filter="url(#f1od8uv3n5yd5s)" height="60.8047" id="PortletBData" style="stroke: #A80036; stroke-width: 1.5;" width="115" x="515" y="211"/><ellipse cx="531.35" cy="227" fill="#ADD1B2" rx="11" ry="11" style="stroke: #A80036; stroke-width: 1.0;"/><path d="M534.3188,232.6406 Q533.7406,232.9375 533.1,233.0859 Q532.4594,233.2344 531.7563,233.2344 Q529.2563,233.2344 527.9359,231.5859 Q526.6156,229.9375 526.6156,226.8125 Q526.6156,223.6875 527.9359,222.0313 Q529.2563,220.375 531.7563,220.375 Q532.4594,220.375 533.1078,220.5313 Q533.7563,220.6875 534.3188,220.9844 L534.3188,223.7031 Q533.6938,223.125 533.1,222.8516 Q532.5063,222.5781 531.8813,222.5781 Q530.5375,222.5781 529.85,223.6484 Q529.1625,224.7188 529.1625,226.8125 Q529.1625,228.9063 529.85,229.9766 Q530.5375,231.0469 531.8813,231.0469 Q532.5063,231.0469 533.1,230.7734 Q533.6938,230.5 534.3188,229.9219 L534.3188,232.6406 Z "/><text fill="#000000" font-family="sans-serif" font-size="12" lengthAdjust="spacingAndGlyphs" textLength="80" x="545.65" y="231.1543">PortletBData</text><line style="stroke: #A80036; stroke-width: 1.5;" x1="516" x2="629" y1="243" y2="243"/><rect fill="none" height="6" style="stroke: #C82930; stroke-width: 1.0;" width="6" x="523" y="251.9023"/><text fill="#000000" font-family="sans-serif" font-size="11" lengthAdjust="spacingAndGlyphs" textLength="89" x="535" y="257.2104">portletId: String</text><line style="stroke: #A80036; stroke-width: 1.5;" x1="516" x2="629" y1="263.8047" y2="263.8047"/><!--class Session--><rect fill="#FEFECE" filter="url(#f1od8uv3n5yd5s)" height="48" id="Session" style="stroke: #A80036; stroke-width: 1.5;" width="81" x="457" y="332"/><ellipse cx="472" cy="348" fill="#ADD1B2" rx="11" ry="11" style="stroke: #A80036; stroke-width: 1.0;"/><path d="M474.9688,353.6406 Q474.3906,353.9375 473.75,354.0859 Q473.1094,354.2344 472.4063,354.2344 Q469.9063,354.2344 468.5859,352.5859 Q467.2656,350.9375 467.2656,347.8125 Q467.2656,344.6875 468.5859,343.0313 Q469.9063,341.375 472.4063,341.375 Q473.1094,341.375 473.7578,341.5313 Q474.4063,341.6875 474.9688,341.9844 L474.9688,344.7031 Q474.3438,344.125 473.75,343.8516 Q473.1563,343.5781 472.5313,343.5781 Q471.1875,343.5781 470.5,344.6484 Q469.8125,345.7188 469.8125,347.8125 Q469.8125,349.9063 470.5,350.9766 Q471.1875,352.0469 472.5313,352.0469 Q473.1563,352.0469 473.75,351.7734 Q474.3438,351.5 474.9688,350.9219 L474.9688,353.6406 Z "/><text fill="#000000" font-family="sans-serif" font-size="12" lengthAdjust="spacingAndGlyphs" textLength="49" x="486" y="352.1543">Session</text><line style="stroke: #A80036; stroke-width: 1.5;" x1="458" x2="537" y1="364" y2="364"/><line style="stroke: #A80036; stroke-width: 1.5;" x1="458" x2="537" y1="372" y2="372"/><!--entity Browser--><rect fill="#FEFECE" filter="url(#f1od8uv3n5yd5s)" height="36.2969" style="stroke: #A80036; stroke-width: 1.5;" width="77" x="6" y="109"/><rect fill="#FEFECE" height="5" style="stroke: #A80036; stroke-width: 1.5;" width="10" x="1" y="114"/><rect fill="#FEFECE" height="5" style="stroke: #A80036; stroke-width: 1.5;" width="10" x="1" y="135.2969"/><text fill="#000000" font-family="sans-serif" font-size="14" lengthAdjust="spacingAndGlyphs" textLength="57" x="16" y="131.9951">Browser</text><!--class PageResourceProvider--><rect fill="#FEFECE" filter="url(#f1od8uv3n5yd5s)" height="48" id="PageResourceProvider" style="stroke: #A80036; stroke-width: 1.5;" width="174" x="16.5" y="217.5"/><ellipse cx="31.5" cy="233.5" fill="#ADD1B2" rx="11" ry="11" style="stroke: #A80036; stroke-width: 1.0;"/><path d="M34.4688,239.1406 Q33.8906,239.4375 33.25,239.5859 Q32.6094,239.7344 31.9063,239.7344 Q29.4063,239.7344 28.0859,238.0859 Q26.7656,236.4375 26.7656,233.3125 Q26.7656,230.1875 28.0859,228.5313 Q29.4063,226.875 31.9063,226.875 Q32.6094,226.875 33.2578,227.0313 Q33.9063,227.1875 34.4688,227.4844 L34.4688,230.2031 Q33.8438,229.625 33.25,229.3516 Q32.6563,229.0781 32.0313,229.0781 Q30.6875,229.0781 30,230.1484 Q29.3125,231.2188 29.3125,233.3125 Q29.3125,235.4063 30,236.4766 Q30.6875,237.5469 32.0313,237.5469 Q32.6563,237.5469 33.25,237.2734 Q33.8438,237 34.4688,236.4219 L34.4688,239.1406 Z "/><text fill="#000000" font-family="sans-serif" font-size="12" lengthAdjust="spacingAndGlyphs" textLength="142" x="45.5" y="237.6543">PageResourceProvider</text><line style="stroke: #A80036; stroke-width: 1.5;" x1="17.5" x2="189.5" y1="249.5" y2="249.5"/><line style="stroke: #A80036; stroke-width: 1.5;" x1="17.5" x2="189.5" y1="257.5" y2="257.5"/><!--class PortalPolicy--><rect fill="#FEFECE" filter="url(#f1od8uv3n5yd5s)" height="48" id="PortalPolicy" style="stroke: #A80036; stroke-width: 1.5;" width="104" x="225.5" y="217.5"/><ellipse cx="240.5" cy="233.5" fill="#ADD1B2" rx="11" ry="11" style="stroke: #A80036; stroke-width: 1.0;"/><path d="M243.4688,239.1406 Q242.8906,239.4375 242.25,239.5859 Q241.6094,239.7344 240.9063,239.7344 Q238.4063,239.7344 237.0859,238.0859 Q235.7656,236.4375 235.7656,233.3125 Q235.7656,230.1875 237.0859,228.5313 Q238.4063,226.875 240.9063,226.875 Q241.6094,226.875 242.2578,227.0313 Q242.9063,227.1875 243.4688,227.4844 L243.4688,230.2031 Q242.8438,229.625 242.25,229.3516 Q241.6563,229.0781 241.0313,229.0781 Q239.6875,229.0781 239,230.1484 Q238.3125,231.2188 238.3125,233.3125 Q238.3125,235.4063 239,236.4766 Q239.6875,237.5469 241.0313,237.5469 Q241.6563,237.5469 242.25,237.2734 Q242.8438,237 243.4688,236.4219 L243.4688,239.1406 Z "/><text fill="#000000" font-family="sans-serif" font-size="12" lengthAdjust="spacingAndGlyphs" textLength="72" x="254.5" y="237.6543">PortalPolicy</text><line style="stroke: #A80036; stroke-width: 1.5;" x1="226.5" x2="328.5" y1="249.5" y2="249.5"/><line style="stroke: #A80036; stroke-width: 1.5;" x1="226.5" x2="328.5" y1="257.5" y2="257.5"/><!--link PortalWeblet to Portal--><path d="M230.6094,127 C242.3488,127 254.0883,127 265.8277,127 " fill="none" id="PortalWeblet-Portal" style="stroke: #A80036; stroke-width: 1.0;"/><text fill="#000000" font-family="sans-serif" font-size="13" lengthAdjust="spacingAndGlyphs" textLength="8" x="238.6866" y="123.068">1</text><text fill="#000000" font-family="sans-serif" font-size="13" lengthAdjust="spacingAndGlyphs" textLength="8" x="249.8515" y="122.5337">1</text><!--link Browser to PortalWeblet--><path d="M83.0938,127 C94.8766,127 106.6594,127 118.4423,127 " fill="none" id="Browser-PortalWeblet" style="stroke: #A80036; stroke-width: 1.0;"/><text fill="#000000" font-family="sans-serif" font-size="13" lengthAdjust="spacingAndGlyphs" textLength="7" x="91.1179" y="122.6216">*</text><text fill="#000000" font-family="sans-serif" font-size="13" lengthAdjust="spacingAndGlyphs" textLength="7" x="103.4392" y="123.068">*</text><!--link Portal to PortletB--><path d="M309.4836,102.8321 C318.6889,81.9583 335.212,53.1451 360.1667,40 C400.931,18.5271 421.1833,22.5703 463.8333,40 C494.7766,52.6455 520.754,81.8716 536.4354,102.9645 " fill="none" id="Portal-PortletB" style="stroke: #A80036; stroke-width: 1.0;"/><text fill="#000000" font-family="sans-serif" font-size="13" lengthAdjust="spacingAndGlyphs" textLength="8" x="302.7606" y="91.8011">1</text><text fill="#000000" font-family="sans-serif" font-size="13" lengthAdjust="spacingAndGlyphs" textLength="8" x="525.7616" y="91.8294">1</text><!--link Portal to PortletA--><path d="M335.3906,142.1425 C348.6976,145.4334 362.0046,145.8818 375.3116,143.4877 " fill="none" id="Portal-PortletA" style="stroke: #A80036; stroke-width: 1.0;"/><text fill="#000000" font-family="sans-serif" font-size="13" lengthAdjust="spacingAndGlyphs" textLength="8" x="343.0472" y="140.7271">1</text><text fill="#000000" font-family="sans-serif" font-size="13" lengthAdjust="spacingAndGlyphs" textLength="8" x="359.5448" y="103.4677">1</text><!--link PortletA to PortletAData--><path d="M417.7578,151.003 C418.6719,168.4463 419.9161,192.1912 420.9008,210.9818 " fill="none" id="PortletA-PortletAData" style="stroke: #A80036; stroke-width: 1.0;"/><text fill="#000000" font-family="sans-serif" font-size="13" lengthAdjust="spacingAndGlyphs" textLength="8" x="409.0551" y="171.1596">1</text><text fill="#000000" font-family="sans-serif" font-size="13" lengthAdjust="spacingAndGlyphs" textLength="7" x="412.7854" y="199.7681">*</text><!--link PortletB to PortletBData--><path d="M556.6927,151.003 C559.7395,168.4463 563.8871,192.1912 567.1693,210.9818 " fill="none" id="PortletB-PortletBData" style="stroke: #A80036; stroke-width: 1.0;"/><text fill="#000000" font-family="sans-serif" font-size="13" lengthAdjust="spacingAndGlyphs" textLength="8" x="548.7421" y="171.1596">1</text><text fill="#000000" font-family="sans-serif" font-size="13" lengthAdjust="spacingAndGlyphs" textLength="7" x="558.2376" y="199.7681">*</text><!--link PortletAData to Session--><path d="M442.5986,272.1839 C452.3493,287.0699 464.1167,305.0349 474.2523,320.5085 " fill="none" id="PortletAData-Session" style="stroke: #A80036; stroke-width: 1.0;"/><polygon fill="#A80036" points="481.6245,331.7634,481.6829,324.5525,475.0492,321.7252,474.9908,328.9361,481.6245,331.7634" style="stroke: #A80036; stroke-width: 1.0;"/><text fill="#000000" font-family="sans-serif" font-size="13" lengthAdjust="spacingAndGlyphs" textLength="7" x="438.8664" y="291.8005">*</text><text fill="#000000" font-family="sans-serif" font-size="13" lengthAdjust="spacingAndGlyphs" textLength="8" x="468.7798" y="321.1107">1</text><!--link PortletBData to Session--><path d="M552.4014,272.1839 C542.6507,287.0699 530.8833,305.0349 520.7477,320.5085 " fill="none" id="PortletBData-Session" style="stroke: #A80036; stroke-width: 1.0;"/><polygon fill="#A80036" points="513.3755,331.7634,520.0092,328.9361,519.9508,321.7252,513.3171,324.5525,513.3755,331.7634" style="stroke: #A80036; stroke-width: 1.0;"/><text fill="#000000" font-family="sans-serif" font-size="13" lengthAdjust="spacingAndGlyphs" textLength="7" x="540.7554" y="291.8005">*</text><text fill="#000000" font-family="sans-serif" font-size="13" lengthAdjust="spacingAndGlyphs" textLength="8" x="508.2702" y="321.1107">1</text><!--link Portal to PageResourceProvider--><path d="M265.7869,148.1143 C259.7064,151.7683 253.4293,155.5122 247.5,159 C213.6013,178.9406 174.9124,201.0716 146.1792,217.388 " fill="none" id="Portal-PageResourceProvider" style="stroke: #A80036; stroke-width: 1.0;"/><text fill="#000000" font-family="sans-serif" font-size="13" lengthAdjust="spacingAndGlyphs" textLength="8" x="249.8023" y="148.0028">1</text><text fill="#000000" font-family="sans-serif" font-size="13" lengthAdjust="spacingAndGlyphs" textLength="7" x="149.2189" y="206.3713">*</text><!--link Portal to PortalPolicy--><path d="M295.6784,151.003 C291.7794,170.4135 286.3129,197.6273 282.3944,217.1343 " fill="none" id="Portal-PortalPolicy" style="stroke: #A80036; stroke-width: 1.0;"/><text fill="#000000" font-family="sans-serif" font-size="13" lengthAdjust="spacingAndGlyphs" textLength="8" x="285.4179" y="171.1596">1</text><text fill="#000000" font-family="sans-serif" font-size="13" lengthAdjust="spacingAndGlyphs" textLength="7" x="275.7343" y="206.4501">*</text><!--
@startuml
skinparam packageStyle rectangle
 allow_mixing
 
 component Browser
 
 package "Conceptual Portal\n(Portal Gateway)" {
    class Portal
 	  class PortalWeblet
 
    Portal "1" -left- "1" PortalWeblet
 }
 
 PortalWeblet "*" -left- "*" Browser
 
 together {
 
   Portal "1" -right- "1" PortletB
   Portal "1" -right- "1" PortletA
 
   class PortletAData {
     -portletId: String
   }
 
   PortletAData "*" -up- "1" PortletA
 
   class PortletBData {
     -portletId: String
   }
 
   PortletBData "*" -up- "1" PortletB
   
   PortletAData "*" -up-* "1" Session
   PortletBData "*" -up-* "1" Session
 }
 
 Portal "1" -down- "*" PageResourceProvider
 Portal "1" -down- "*" PortalPolicy
@enduml

PlantUML version 1.2017.18(Fri Oct 06 18:56:32 CEST 2017)
(GPL source distribution)
Java Runtime: Java(TM) SE Runtime Environment
JVM: Java HotSpot(TM) 64-Bit Server VM
Java Version: 1.8.0_181-b13
Operating System: Linux
OS Version: 4.20.5-100.fc28.x86_64
Default Encoding: UTF-8
Language: de
Country: DE
--></g></svg>