<?xml version="1.0" encoding="UTF-8" standalone="no"?><svg xmlns="http://www.w3.org/2000/svg" xmlns:xlink="http://www.w3.org/1999/xlink" contentScriptType="application/ecmascript" contentStyleType="text/css" height="409px" preserveAspectRatio="none" style="width:668px;height:409px;" version="1.1" viewBox="0 0 668 409" width="668px" zoomAndPan="magnify"><defs><filter height="300%" id="f1od8uv3n5yd5s" width="300%" x="-1" y="-1"><feGaussianBlur result="blurOut" stdDeviation="2.0"/><feColorMatrix in="blurOut" result="blurOut2" type="matrix" values="0 0 0 0 0 0 0 0 0 0 0 0 0 0 0 0 0 0 .4 0"/><feOffset dx="4.0" dy="4.0" in="blurOut2" result="blurOut3"/><feBlend in="SourceGraphic" in2="blurOut3" mode="normal"/></filter></defs><g><!--cluster Conceptual Portal\n(Portal Gateway)--><rect fill="#FFFFFF" filter="url(#f1od8uv3n5yd5s)" height="116" style="stroke: #000000; stroke-width: 2.0;" width="249" x="102.25" y="68"/><text fill="#000000" font-family="sans-serif" font-size="14" font-weight="bold" lengthAdjust="spacingAndGlyphs" textLength="140" x="156.75" y="82.9951">Conceptual Portal</text><text fill="#000000" font-family="sans-serif" font-size="14" font-weight="bold" lengthAdjust="spacingAndGlyphs" textLength="132" x="160.75" y="99.292">(Portal Gateway)</text><!--cluster ##53--><!--class Portal--><rect fill="#FEFECE" filter="url(#f1od8uv3n5yd5s)" height="48" id="Portal" style="stroke: #A80036; stroke-width: 1.5;" width="69" x="266" y="120"/><ellipse cx="281" cy="136" fill="#ADD1B2" rx="11" ry="11" style="stroke: #A80036; stroke-width: 1.0;"/><path d="M283.9688,141.6406 Q283.3906,141.9375 282.75,142.0859 Q282.1094,142.2344 281.4063,142.2344 Q278.9063,142.2344 277.5859,140.5859 Q276.2656,138.9375 276.2656,135.8125 Q276.2656,132.6875 277.5859,131.0313 Q278.9063,129.375 281.4063,129.375 Q282.1094,129.375 282.7578,129.5313 Q283.4063,129.6875 283.9688,129.9844 L283.9688,132.7031 Q283.3438,132.125 282.75,131.8516 Q282.1563,131.5781 281.5313,131.5781 Q280.1875,131.5781 279.5,132.6484 Q278.8125,133.7188 278.8125,135.8125 Q278.8125,137.9063 279.5,138.9766 Q280.1875,140.0469 281.5313,140.0469 Q282.1563,140.0469 282.75,139.7734 Q283.3438,139.5 283.9688,138.9219 L283.9688,141.6406 Z "/><text fill="#000000" font-family="sans-serif" font-size="12" lengthAdjust="spacingAndGlyphs" textLength="37" x="295" y="140.1543">Portal</text><line style="stroke: #A80036; stroke-width: 1.5;" x1="267" x2="334" y1="152" y2="152"/><line style="stroke: #A80036; stroke-width: 1.5;" x1="267" x2="334" y1="160" y2="160"/><!--class PortalWeblet--><rect fill="#FEFECE" filter="url(#f1od8uv3n5yd5s)" height="48" id="PortalWeblet" style="stroke: #A80036; stroke-width: 1.5;" width="112" x="118.75" y="120"/><ellipse cx="133.75" cy="136" fill="#ADD1B2" rx="11" ry="11" style="stroke: #A80036; stroke-width: 1.0;"/><path d="M136.7188,141.6406 Q136.1406,141.9375 135.5,142.0859 Q134.8594,142.2344 134.1563,142.2344 Q131.6563,142.2344 130.3359,140.5859 Q129.0156,138.9375 129.0156,135.8125 Q129.0156,132.6875 130.3359,131.0313 Q131.6563,129.375 134.1563,129.375 Q134.8594,129.375 135.5078,129.5313 Q136.1563,129.6875 136.7188,129.9844 L136.7188,132.7031 Q136.0938,132.125 135.5,131.8516 Q134.9063,131.5781 134.2813,131.5781 Q132.9375,131.5781 132.25,132.6484 Q131.5625,133.7188 131.5625,135.8125 Q131.5625,137.9063 132.25,138.9766 Q132.9375,140.0469 134.2813,140.0469 Q134.9063,140.0469 135.5,139.7734 Q136.0938,139.5 136.7188,138.9219 L136.7188,141.6406 Z "/><text fill="#000000" font-family="sans-serif" font-size="12" lengthAdjust="spacingAndGlyphs" textLength="80" x="147.75" y="140.1543">PortalWeblet</text><line style="stroke: #A80036; stroke-width: 1.5;" x1="119.75" x2="229.75" y1="152" y2="152"/><line style="stroke: #A80036; stroke-width: 1.5;" x1="119.75" x2="229.75" y1="160" y2="160"/><!--class PortletB--><rect fill="#FEFECE" filter="url(#f1od8uv3n5yd5s)" height="48" id="PortletB" style="stroke: #A80036; stroke-width: 1.5;" width="82" x="541.25" y="120"/><ellipse cx="556.25" cy="136" fill="#ADD1B2" rx="11" ry="11" style="stroke: #A80036; stroke-width: 1.0;"/><path d="M559.2188,141.6406 Q558.6406,141.9375 558,142.0859 Q557.3594,142.2344 556.6563,142.2344 Q554.1563,142.2344 552.8359,140.5859 Q551.5156,138.9375 551.5156,135.8125 Q551.5156,132.6875 552.8359,131.0313 Q554.1563,129.375 556.6563,129.375 Q557.3594,129.375 558.0078,129.5313 Q558.6563,129.6875 559.2188,129.9844 L559.2188,132.7031 Q558.5938,132.125 558,131.8516 Q557.4063,131.5781 556.7813,131.5781 Q555.4375,131.5781 554.75,132.6484 Q554.0625,133.7188 554.0625,135.8125 Q554.0625,137.9063 554.75,138.9766 Q555.4375,140.0469 556.7813,140.0469 Q557.4063,140.0469 558,139.7734 Q558.5938,139.5 559.2188,138.9219 L559.2188,141.6406 Z "/><text fill="#000000" font-family="sans-serif" font-size="12" lengthAdjust="spacingAndGlyphs" textLength="50" x="570.25" y="140.1543">PortletB</text><line style="stroke: #A80036; stroke-width: 1.5;" x1="542.25" x2="622.25" y1="152" y2="152"/><line style="stroke: #A80036; stroke-width: 1.5;" x1="542.25" x2="622.25" y1="160" y2="160"/><!--class PortletA--><rect fill="#FEFECE" filter="url(#f1od8uv3n5yd5s)" height="48" id="PortletA" style="stroke: #A80036; stroke-width: 1.5;" width="82" x="408.25" y="120"/><ellipse cx="423.25" cy="136" fill="#ADD1B2" rx="11" ry="11" style="stroke: #A80036; stroke-width: 1.0;"/><path d="M426.2188,141.6406 Q425.6406,141.9375 425,142.0859 Q424.3594,142.2344 423.6563,142.2344 Q421.1563,142.2344 419.8359,140.5859 Q418.5156,138.9375 418.5156,135.8125 Q418.5156,132.6875 419.8359,131.0313 Q421.1563,129.375 423.6563,129.375 Q424.3594,129.375 425.0078,129.5313 Q425.6563,129.6875 426.2188,129.9844 L426.2188,132.7031 Q425.5938,132.125 425,131.8516 Q424.4063,131.5781 423.7813,131.5781 Q422.4375,131.5781 421.75,132.6484 Q421.0625,133.7188 421.0625,135.8125 Q421.0625,137.9063 421.75,138.9766 Q422.4375,140.0469 423.7813,140.0469 Q424.4063,140.0469 425,139.7734 Q425.5938,139.5 426.2188,138.9219 L426.2188,141.6406 Z "/><text fill="#000000" font-family="sans-serif" font-size="12" lengthAdjust="spacingAndGlyphs" textLength="50" x="437.25" y="140.1543">PortletA</text><line style="stroke: #A80036; stroke-width: 1.5;" x1="409.25" x2="489.25" y1="152" y2="152"/><line style="stroke: #A80036; stroke-width: 1.5;" x1="409.25" x2="489.25" y1="160" y2="160"/><!--class PortletAData--><rect fill="#FEFECE" filter="url(#f1od8uv3n5yd5s)" height="60.8047" id="PortletAData" style="stroke: #A80036; stroke-width: 1.5;" width="115" x="392" y="228.5"/><ellipse cx="408.35" cy="244.5" fill="#ADD1B2" rx="11" ry="11" style="stroke: #A80036; stroke-width: 1.0;"/><path d="M411.3188,250.1406 Q410.7406,250.4375 410.1,250.5859 Q409.4594,250.7344 408.7563,250.7344 Q406.2563,250.7344 404.9359,249.0859 Q403.6156,247.4375 403.6156,244.3125 Q403.6156,241.1875 404.9359,239.5313 Q406.2563,237.875 408.7563,237.875 Q409.4594,237.875 410.1078,238.0313 Q410.7563,238.1875 411.3188,238.4844 L411.3188,241.2031 Q410.6938,240.625 410.1,240.3516 Q409.5063,240.0781 408.8813,240.0781 Q407.5375,240.0781 406.85,241.1484 Q406.1625,242.2188 406.1625,244.3125 Q406.1625,246.4063 406.85,247.4766 Q407.5375,248.5469 408.8813,248.5469 Q409.5063,248.5469 410.1,248.2734 Q410.6938,248 411.3188,247.4219 L411.3188,250.1406 Z "/><text fill="#000000" font-family="sans-serif" font-size="12" lengthAdjust="spacingAndGlyphs" textLength="80" x="422.65" y="248.6543">PortletAData</text><line style="stroke: #A80036; stroke-width: 1.5;" x1="393" x2="506" y1="260.5" y2="260.5"/><rect fill="none" height="6" style="stroke: #C82930; stroke-width: 1.0;" width="6" x="400" y="269.4023"/><text fill="#000000" font-family="sans-serif" font-size="11" lengthAdjust="spacingAndGlyphs" textLength="89" x="412" y="274.7104">portletId: String</text><line style="stroke: #A80036; stroke-width: 1.5;" x1="393" x2="506" y1="281.3047" y2="281.3047"/><!--class PortletBData--><rect fill="#FEFECE" filter="url(#f1od8uv3n5yd5s)" height="60.8047" id="PortletBData" style="stroke: #A80036; stroke-width: 1.5;" width="115" x="542" y="228.5"/><ellipse cx="558.35" cy="244.5" fill="#ADD1B2" rx="11" ry="11" style="stroke: #A80036; stroke-width: 1.0;"/><path d="M561.3188,250.1406 Q560.7406,250.4375 560.1,250.5859 Q559.4594,250.7344 558.7563,250.7344 Q556.2563,250.7344 554.9359,249.0859 Q553.6156,247.4375 553.6156,244.3125 Q553.6156,241.1875 554.9359,239.5313 Q556.2563,237.875 558.7563,237.875 Q559.4594,237.875 560.1078,238.0313 Q560.7563,238.1875 561.3188,238.4844 L561.3188,241.2031 Q560.6938,240.625 560.1,240.3516 Q559.5063,240.0781 558.8813,240.0781 Q557.5375,240.0781 556.85,241.1484 Q556.1625,242.2188 556.1625,244.3125 Q556.1625,246.4063 556.85,247.4766 Q557.5375,248.5469 558.8813,248.5469 Q559.5063,248.5469 560.1,248.2734 Q560.6938,248 561.3188,247.4219 L561.3188,250.1406 Z "/><text fill="#000000" font-family="sans-serif" font-size="12" lengthAdjust="spacingAndGlyphs" textLength="80" x="572.65" y="248.6543">PortletBData</text><line style="stroke: #A80036; stroke-width: 1.5;" x1="543" x2="656" y1="260.5" y2="260.5"/><rect fill="none" height="6" style="stroke: #C82930; stroke-width: 1.0;" width="6" x="550" y="269.4023"/><text fill="#000000" font-family="sans-serif" font-size="11" lengthAdjust="spacingAndGlyphs" textLength="89" x="562" y="274.7104">portletId: String</text><line style="stroke: #A80036; stroke-width: 1.5;" x1="543" x2="656" y1="281.3047" y2="281.3047"/><!--class Session--><rect fill="#FEFECE" filter="url(#f1od8uv3n5yd5s)" height="48" id="Session" style="stroke: #A80036; stroke-width: 1.5;" width="81" x="484" y="350"/><ellipse cx="499" cy="366" fill="#ADD1B2" rx="11" ry="11" style="stroke: #A80036; stroke-width: 1.0;"/><path d="M501.9688,371.6406 Q501.3906,371.9375 500.75,372.0859 Q500.1094,372.2344 499.4063,372.2344 Q496.9063,372.2344 495.5859,370.5859 Q494.2656,368.9375 494.2656,365.8125 Q494.2656,362.6875 495.5859,361.0313 Q496.9063,359.375 499.4063,359.375 Q500.1094,359.375 500.7578,359.5313 Q501.4063,359.6875 501.9688,359.9844 L501.9688,362.7031 Q501.3438,362.125 500.75,361.8516 Q500.1563,361.5781 499.5313,361.5781 Q498.1875,361.5781 497.5,362.6484 Q496.8125,363.7188 496.8125,365.8125 Q496.8125,367.9063 497.5,368.9766 Q498.1875,370.0469 499.5313,370.0469 Q500.1563,370.0469 500.75,369.7734 Q501.3438,369.5 501.9688,368.9219 L501.9688,371.6406 Z "/><text fill="#000000" font-family="sans-serif" font-size="12" lengthAdjust="spacingAndGlyphs" textLength="49" x="513" y="370.1543">Session</text><line style="stroke: #A80036; stroke-width: 1.5;" x1="485" x2="564" y1="382" y2="382"/><line style="stroke: #A80036; stroke-width: 1.5;" x1="485" x2="564" y1="390" y2="390"/><!--entity Browser--><rect fill="#FEFECE" filter="url(#f1od8uv3n5yd5s)" height="36.2969" style="stroke: #A80036; stroke-width: 1.5;" width="77" x="6" y="126"/><rect fill="#FEFECE" height="5" style="stroke: #A80036; stroke-width: 1.5;" width="10" x="1" y="131"/><rect fill="#FEFECE" height="5" style="stroke: #A80036; stroke-width: 1.5;" width="10" x="1" y="152.2969"/><text fill="#000000" font-family="sans-serif" font-size="14" lengthAdjust="spacingAndGlyphs" textLength="57" x="16" y="148.9951">Browser</text><!--class PageResourceProvider--><rect fill="#FEFECE" filter="url(#f1od8uv3n5yd5s)" height="48" id="PageResourceProvider" style="stroke: #A80036; stroke-width: 1.5;" width="174" x="41.25" y="235"/><ellipse cx="56.25" cy="251" fill="#ADD1B2" rx="11" ry="11" style="stroke: #A80036; stroke-width: 1.0;"/><path d="M59.2188,256.6406 Q58.6406,256.9375 58,257.0859 Q57.3594,257.2344 56.6563,257.2344 Q54.1563,257.2344 52.8359,255.5859 Q51.5156,253.9375 51.5156,250.8125 Q51.5156,247.6875 52.8359,246.0313 Q54.1563,244.375 56.6563,244.375 Q57.3594,244.375 58.0078,244.5313 Q58.6563,244.6875 59.2188,244.9844 L59.2188,247.7031 Q58.5938,247.125 58,246.8516 Q57.4063,246.5781 56.7813,246.5781 Q55.4375,246.5781 54.75,247.6484 Q54.0625,248.7188 54.0625,250.8125 Q54.0625,252.9063 54.75,253.9766 Q55.4375,255.0469 56.7813,255.0469 Q57.4063,255.0469 58,254.7734 Q58.5938,254.5 59.2188,253.9219 L59.2188,256.6406 Z "/><text fill="#000000" font-family="sans-serif" font-size="12" lengthAdjust="spacingAndGlyphs" textLength="142" x="70.25" y="255.1543">PageResourceProvider</text><line style="stroke: #A80036; stroke-width: 1.5;" x1="42.25" x2="214.25" y1="267" y2="267"/><line style="stroke: #A80036; stroke-width: 1.5;" x1="42.25" x2="214.25" y1="275" y2="275"/><!--class PortalPolicy--><rect fill="#FEFECE" filter="url(#f1od8uv3n5yd5s)" height="48" id="PortalPolicy" style="stroke: #A80036; stroke-width: 1.5;" width="104" x="250.25" y="235"/><ellipse cx="265.25" cy="251" fill="#ADD1B2" rx="11" ry="11" style="stroke: #A80036; stroke-width: 1.0;"/><path d="M268.2188,256.6406 Q267.6406,256.9375 267,257.0859 Q266.3594,257.2344 265.6563,257.2344 Q263.1563,257.2344 261.8359,255.5859 Q260.5156,253.9375 260.5156,250.8125 Q260.5156,247.6875 261.8359,246.0313 Q263.1563,244.375 265.6563,244.375 Q266.3594,244.375 267.0078,244.5313 Q267.6563,244.6875 268.2188,244.9844 L268.2188,247.7031 Q267.5938,247.125 267,246.8516 Q266.4063,246.5781 265.7813,246.5781 Q264.4375,246.5781 263.75,247.6484 Q263.0625,248.7188 263.0625,250.8125 Q263.0625,252.9063 263.75,253.9766 Q264.4375,255.0469 265.7813,255.0469 Q266.4063,255.0469 267,254.7734 Q267.5938,254.5 268.2188,253.9219 L268.2188,256.6406 Z "/><text fill="#000000" font-family="sans-serif" font-size="12" lengthAdjust="spacingAndGlyphs" textLength="72" x="279.25" y="255.1543">PortalPolicy</text><line style="stroke: #A80036; stroke-width: 1.5;" x1="251.25" x2="353.25" y1="267" y2="267"/><line style="stroke: #A80036; stroke-width: 1.5;" x1="251.25" x2="353.25" y1="275" y2="275"/><!--link PortalWeblet to Portal--><path d="M229.867,144 C241.873,144 253.878,144 265.883,144 " fill="none" id="PortalWeblet-Portal" style="stroke: #A80036; stroke-width: 1.0;"/><text fill="#000000" font-family="sans-serif" font-size="13" lengthAdjust="spacingAndGlyphs" textLength="8" x="238.9193" y="138.7755">1</text><text fill="#000000" font-family="sans-serif" font-size="13" lengthAdjust="spacingAndGlyphs" textLength="8" x="250.0738" y="138.6174">1</text><!--link Browser to PortalWeblet--><path d="M82.5898,144 C94.5248,144 106.46,144 118.395,144 " fill="none" id="Browser-PortalWeblet" style="stroke: #A80036; stroke-width: 1.0;"/><text fill="#000000" font-family="sans-serif" font-size="13" lengthAdjust="spacingAndGlyphs" textLength="7" x="91.1677" y="138.2969">*</text><text fill="#000000" font-family="sans-serif" font-size="13" lengthAdjust="spacingAndGlyphs" textLength="7" x="103.739" y="139.1445">*</text><!--link Portal to PortletB--><path d="M312.26,119.694 C326.26,94.433 352.011,56.349 386.917,40 C430.653,19.515 451.847,19.515 495.583,40 C530.489,56.349 556.24,94.433 570.24,119.694 " fill="none" id="Portal-PortletB" style="stroke: #A80036; stroke-width: 1.0;"/><text fill="#000000" font-family="sans-serif" font-size="13" lengthAdjust="spacingAndGlyphs" textLength="8" x="304.6543" y="109.0084">1</text><text fill="#000000" font-family="sans-serif" font-size="13" lengthAdjust="spacingAndGlyphs" textLength="8" x="558.9803" y="108.8136">1</text><!--link Portal to PortletA--><path d="M334.59,156.769 C359.075,163.147 383.559,163.693 408.044,158.405 " fill="none" id="Portal-PortletA" style="stroke: #A80036; stroke-width: 1.0;"/><text fill="#000000" font-family="sans-serif" font-size="13" lengthAdjust="spacingAndGlyphs" textLength="8" x="342.9222" y="153.7843">1</text><text fill="#000000" font-family="sans-serif" font-size="13" lengthAdjust="spacingAndGlyphs" textLength="8" x="392.2575" y="122.3075">1</text><!--link PortletA to PortletAData--><path d="M449.25,168.14 C449.25,185.574 449.25,209.61 449.25,228.436 " fill="none" id="PortletA-PortletAData" style="stroke: #A80036; stroke-width: 1.0;"/><text fill="#000000" font-family="sans-serif" font-size="13" lengthAdjust="spacingAndGlyphs" textLength="8" x="439.0313" y="187.9353">1</text><text fill="#000000" font-family="sans-serif" font-size="13" lengthAdjust="spacingAndGlyphs" textLength="7" x="440.3742" y="217.3307">*</text><!--link PortletB to PortletBData--><path d="M585.731,168.14 C588.354,185.574 591.97,209.61 594.802,228.436 " fill="none" id="PortletB-PortletBData" style="stroke: #A80036; stroke-width: 1.0;"/><text fill="#000000" font-family="sans-serif" font-size="13" lengthAdjust="spacingAndGlyphs" textLength="8" x="576.3607" y="187.9353">1</text><text fill="#000000" font-family="sans-serif" font-size="13" lengthAdjust="spacingAndGlyphs" textLength="7" x="585.1061" y="217.3307">*</text><!--link PortletAData to Session--><path d="M468.955,289.689 C479.014,304.844 491.295,323.348 501.726,339.0646 " fill="none" id="PortletAData-Session" style="stroke: #A80036; stroke-width: 1.0;"/><polygon fill="#A80036" points="508.937,349.9284,508.9517,342.7173,502.301,339.9302,502.2863,347.1413,508.937,349.9284" style="stroke: #A80036; stroke-width: 1.0;"/><text fill="#000000" font-family="sans-serif" font-size="13" lengthAdjust="spacingAndGlyphs" textLength="7" x="463.8993" y="309.3067">*</text><text fill="#000000" font-family="sans-serif" font-size="13" lengthAdjust="spacingAndGlyphs" textLength="8" x="495.4388" y="338.8848">1</text><!--link PortletBData to Session--><path d="M579.545,289.689 C569.486,304.844 557.205,323.348 546.774,339.0646 " fill="none" id="PortletBData-Session" style="stroke: #A80036; stroke-width: 1.0;"/><polygon fill="#A80036" points="539.563,349.9284,546.2137,347.1413,546.199,339.9302,539.5483,342.7173,539.563,349.9284" style="stroke: #A80036; stroke-width: 1.0;"/><text fill="#000000" font-family="sans-serif" font-size="13" lengthAdjust="spacingAndGlyphs" textLength="7" x="566.7304" y="309.3067">*</text><text fill="#000000" font-family="sans-serif" font-size="13" lengthAdjust="spacingAndGlyphs" textLength="8" x="532.7643" y="338.8848">1</text><!--link Portal to PageResourceProvider--><path d="M275.856,168.121 C266.878,176.113 256.415,184.849 246.25,192 C223.693,207.87 196.983,223.076 174.686,234.884 " fill="none" id="Portal-PageResourceProvider" style="stroke: #A80036; stroke-width: 1.0;"/><text fill="#000000" font-family="sans-serif" font-size="13" lengthAdjust="spacingAndGlyphs" textLength="8" x="259.6303" y="187.9117">1</text><text fill="#000000" font-family="sans-serif" font-size="13" lengthAdjust="spacingAndGlyphs" textLength="7" x="175.8595" y="223.8307">*</text><!--link Portal to PortalPolicy--><path d="M300.66,168.14 C301.005,187.64 301.496,215.4 301.841,234.891 " fill="none" id="Portal-PortalPolicy" style="stroke: #A80036; stroke-width: 1.0;"/><text fill="#000000" font-family="sans-serif" font-size="13" lengthAdjust="spacingAndGlyphs" textLength="8" x="290.4803" y="187.9353">1</text><text fill="#000000" font-family="sans-serif" font-size="13" lengthAdjust="spacingAndGlyphs" textLength="7" x="292.7672" y="223.8392">*</text><!--
@startuml
skinparam packageStyle rectangle
 allow_mixing
 
 component Browser
 
 package "Conceptual Portal\n(Portal Gateway)" {
    class Portal
 	  class PortalWeblet
 
    Portal "1" -left- "1" PortalWeblet
 }
 
 PortalWeblet "*" -left- "*" Browser
 
 together {
 
   Portal "1" -right- "1" PortletB
   Portal "1" -right- "1" PortletA
 
   class PortletAData {
     -portletId: String
   }
 
   PortletAData "*" -up- "1" PortletA
 
   class PortletBData {
     -portletId: String
   }
 
   PortletBData "*" -up- "1" PortletB
   
   PortletAData "*" -up-* "1" Session
   PortletBData "*" -up-* "1" Session
 }
 
 Portal "1" -down- "*" PageResourceProvider
 Portal "1" -down- "*" PortalPolicy
@enduml

PlantUML version 1.2017.18(Fri Oct 06 16:56:32 UTC 2017)
(GPL source distribution)
Java Runtime: Java(TM) SE Runtime Environment
JVM: Java HotSpot(TM) 64-Bit Server VM
Java Version: 1.8.0_151-b12
Operating System: Linux
OS Version: 4.14.12-041412-generic
Default Encoding: UTF-8
Language: en
Country: US
--></g></svg>