<?xml version="1.0" encoding="UTF-8" standalone="no"?><svg xmlns="http://www.w3.org/2000/svg" xmlns:xlink="http://www.w3.org/1999/xlink" contentScriptType="application/ecmascript" contentStyleType="text/css" height="346px" preserveAspectRatio="none" style="width:355px;height:346px;" version="1.1" viewBox="0 0 355 346" width="355px" zoomAndPan="magnify"><defs><filter height="300%" id="fgf2rdxy9w0x5" width="300%" x="-1" y="-1"><feGaussianBlur result="blurOut" stdDeviation="2.0"/><feColorMatrix in="blurOut" result="blurOut2" type="matrix" values="0 0 0 0 0 0 0 0 0 0 0 0 0 0 0 0 0 0 .4 0"/><feOffset dx="4.0" dy="4.0" in="blurOut2" result="blurOut3"/><feBlend in="SourceGraphic" in2="blurOut3" mode="normal"/></filter></defs><g><rect fill="#FFFFFF" filter="url(#fgf2rdxy9w0x5)" height="21" style="stroke: #A80036; stroke-width: 1.0;" width="10" x="47.5" y="48.2969"/><rect fill="#FFFFFF" filter="url(#fgf2rdxy9w0x5)" height="255.0625" style="stroke: #A80036; stroke-width: 1.0;" width="10" x="197.5" y="69.2969"/><rect fill="#FFFFFF" filter="url(#fgf2rdxy9w0x5)" height="217.9297" style="stroke: #A80036; stroke-width: 1.0;" width="10" x="202.5" y="106.4297"/><rect fill="#FFFFFF" filter="url(#fgf2rdxy9w0x5)" height="59.2656" style="stroke: #000000; stroke-width: 2.0;" width="225.5" x="119" y="126.5625"/><rect fill="#FFFFFF" filter="url(#fgf2rdxy9w0x5)" height="46.2656" style="stroke: #000000; stroke-width: 2.0;" width="273" x="13" y="271.0938"/><line style="stroke: #A80036; stroke-width: 1.0; stroke-dasharray: 5.0,5.0;" x1="52" x2="52" y1="38.2969" y2="334.3594"/><line style="stroke: #A80036; stroke-width: 1.0; stroke-dasharray: 5.0,5.0;" x1="202" x2="202" y1="38.2969" y2="334.3594"/><rect fill="#FEFECE" filter="url(#fgf2rdxy9w0x5)" height="30.2969" style="stroke: #A80036; stroke-width: 1.5;" width="55" x="23" y="3"/><text fill="#000000" font-family="sans-serif" font-size="14" lengthAdjust="spacingAndGlyphs" textLength="41" x="30" y="22.9951">Portal</text><rect fill="#FEFECE" filter="url(#fgf2rdxy9w0x5)" height="30.2969" style="stroke: #A80036; stroke-width: 1.5;" width="143" x="129" y="3"/><text fill="#000000" font-family="sans-serif" font-size="14" lengthAdjust="spacingAndGlyphs" textLength="129" x="136" y="22.9951">PortletComponent</text><rect fill="#FFFFFF" filter="url(#fgf2rdxy9w0x5)" height="21" style="stroke: #A80036; stroke-width: 1.0;" width="10" x="47.5" y="48.2969"/><rect fill="#FFFFFF" filter="url(#fgf2rdxy9w0x5)" height="255.0625" style="stroke: #A80036; stroke-width: 1.0;" width="10" x="197.5" y="69.2969"/><rect fill="#FFFFFF" filter="url(#fgf2rdxy9w0x5)" height="217.9297" style="stroke: #A80036; stroke-width: 1.0;" width="10" x="202.5" y="106.4297"/><polygon fill="#A80036" points="185.5,65.2969,195.5,69.2969,185.5,73.2969,189.5,69.2969" style="stroke: #A80036; stroke-width: 1.0;"/><line style="stroke: #A80036; stroke-width: 1.0;" x1="52.5" x2="191.5" y1="69.2969" y2="69.2969"/><text fill="#000000" font-family="sans-serif" font-size="13" lengthAdjust="spacingAndGlyphs" textLength="121" x="59.5" y="64.3638">AddPortletRequest</text><line style="stroke: #A80036; stroke-width: 1.0;" x1="207.5" x2="254.5" y1="93.5625" y2="93.5625"/><line style="stroke: #A80036; stroke-width: 1.0;" x1="254.5" x2="254.5" y1="93.5625" y2="106.5625"/><line style="stroke: #A80036; stroke-width: 1.0;" x1="213.5" x2="254.5" y1="106.5625" y2="106.5625"/><polygon fill="#A80036" points="223.5,102.5625,213.5,106.5625,223.5,110.5625,219.5,106.5625" style="stroke: #A80036; stroke-width: 1.0;"/><text fill="#000000" font-family="sans-serif" font-size="13" lengthAdjust="spacingAndGlyphs" textLength="84" x="219.5" y="88.4966">doAddPortlet</text><rect fill="none" height="59.2656" style="stroke: #000000; stroke-width: 2.0;" width="225.5" x="119" y="126.5625"/><polygon fill="#EEEEEE" points="119,126.5625,188,126.5625,188,133.5625,178,143.5625,119,143.5625,119,126.5625" style="stroke: #000000; stroke-width: 2.0;"/><text fill="#000000" font-family="sans-serif" font-size="13" font-weight="bold" lengthAdjust="spacingAndGlyphs" textLength="24" x="134" y="139.6294">opt</text><line style="stroke: #A80036; stroke-width: 1.0;" x1="212.5" x2="254.5" y1="164.8281" y2="164.8281"/><line style="stroke: #A80036; stroke-width: 1.0;" x1="254.5" x2="254.5" y1="164.8281" y2="177.8281"/><line style="stroke: #A80036; stroke-width: 1.0;" x1="213.5" x2="254.5" y1="177.8281" y2="177.8281"/><polygon fill="#A80036" points="223.5,173.8281,213.5,177.8281,223.5,181.8281,219.5,177.8281" style="stroke: #A80036; stroke-width: 1.0;"/><text fill="#000000" font-family="sans-serif" font-size="13" lengthAdjust="spacingAndGlyphs" textLength="113" x="219.5" y="159.7622">generatePortletId</text><line style="stroke: #A80036; stroke-width: 1.0;" x1="212.5" x2="254.5" y1="213.9609" y2="213.9609"/><line style="stroke: #A80036; stroke-width: 1.0;" x1="254.5" x2="254.5" y1="213.9609" y2="226.9609"/><line style="stroke: #A80036; stroke-width: 1.0;" x1="213.5" x2="254.5" y1="226.9609" y2="226.9609"/><polygon fill="#A80036" points="223.5,222.9609,213.5,226.9609,223.5,230.9609,219.5,226.9609" style="stroke: #A80036; stroke-width: 1.0;"/><text fill="#000000" font-family="sans-serif" font-size="13" lengthAdjust="spacingAndGlyphs" textLength="83" x="219.5" y="208.895">putInSession</text><polygon fill="#A80036" points="63.5,251.9609,53.5,255.9609,63.5,259.9609,59.5,255.9609" style="stroke: #A80036; stroke-width: 1.0;"/><line style="stroke: #A80036; stroke-width: 1.0;" x1="57.5" x2="201.5" y1="255.9609" y2="255.9609"/><text fill="#000000" font-family="sans-serif" font-size="13" lengthAdjust="spacingAndGlyphs" textLength="89" x="69.5" y="251.0278">RenderPortlet</text><rect fill="none" height="46.2656" style="stroke: #000000; stroke-width: 2.0;" width="273" x="13" y="271.0938"/><polygon fill="#EEEEEE" points="13,271.0938,82,271.0938,82,278.0938,72,288.0938,13,288.0938,13,271.0938" style="stroke: #000000; stroke-width: 2.0;"/><text fill="#000000" font-family="sans-serif" font-size="13" font-weight="bold" lengthAdjust="spacingAndGlyphs" textLength="24" x="28" y="284.1606">opt</text><polygon fill="#A80036" points="63.5,305.2266,53.5,309.2266,63.5,313.2266,59.5,309.2266" style="stroke: #A80036; stroke-width: 1.0;"/><line style="stroke: #A80036; stroke-width: 1.0;" x1="57.5" x2="201.5" y1="309.2266" y2="309.2266"/><text fill="#000000" font-family="sans-serif" font-size="13" lengthAdjust="spacingAndGlyphs" textLength="115" x="69.5" y="304.2935">NotifyPortletView</text><!--
@startuml
hide footbox
 
 activate Portal
 Portal -> PortletComponent: AddPortletRequest
 deactivate Portal
 activate PortletComponent
 PortletComponent -> PortletComponent: doAddPortlet
 activate PortletComponent
 opt
 	   PortletComponent -> PortletComponent: generatePortletId
 end opt
 PortletComponent -> PortletComponent: putInSession
 PortletComponent -> Portal: RenderPortlet
 opt 
     PortletComponent -> Portal: NotifyPortletView
 end opt 
 deactivate PortletComponent
 deactivate PortletComponent
 activate Portal
 deactivate Portal
@enduml

PlantUML version 1.2017.18(Fri Oct 06 18:56:32 CEST 2017)
(GPL source distribution)
Java Runtime: OpenJDK Runtime Environment
JVM: OpenJDK 64-Bit Server VM
Java Version: 1.8.0_171-b10
Operating System: Linux
OS Version: 4.16.4-200.fc27.x86_64
Default Encoding: UTF-8
Language: de
Country: DE
--></g></svg>