<?xml version="1.0" encoding="UTF-8" standalone="no"?><svg xmlns="http://www.w3.org/2000/svg" xmlns:xlink="http://www.w3.org/1999/xlink" contentScriptType="application/ecmascript" contentStyleType="text/css" height="346px" preserveAspectRatio="none" style="width:344px;height:346px;" version="1.1" viewBox="0 0 344 346" width="344px" zoomAndPan="magnify"><defs><filter height="300%" id="fgf2rdxy9w0x5" width="300%" x="-1" y="-1"><feGaussianBlur result="blurOut" stdDeviation="2.0"/><feColorMatrix in="blurOut" result="blurOut2" type="matrix" values="0 0 0 0 0 0 0 0 0 0 0 0 0 0 0 0 0 0 .4 0"/><feOffset dx="4.0" dy="4.0" in="blurOut2" result="blurOut3"/><feBlend in="SourceGraphic" in2="blurOut3" mode="normal"/></filter></defs><g><rect fill="#FFFFFF" filter="url(#fgf2rdxy9w0x5)" height="21" style="stroke: #A80036; stroke-width: 1.0;" width="10" x="47" y="48.29"/><rect fill="#FFFFFF" filter="url(#fgf2rdxy9w0x5)" height="255.0117" style="stroke: #A80036; stroke-width: 1.0;" width="10" x="192" y="69.29"/><rect fill="#FFFFFF" filter="url(#fgf2rdxy9w0x5)" height="217.8853" style="stroke: #A80036; stroke-width: 1.0;" width="10" x="197" y="106.4165"/><rect fill="#FFFFFF" filter="url(#fgf2rdxy9w0x5)" height="59.2529" style="stroke: #000000; stroke-width: 2.0;" width="218" x="115" y="126.543"/><rect fill="#FFFFFF" filter="url(#fgf2rdxy9w0x5)" height="46.2529" style="stroke: #000000; stroke-width: 2.0;" width="266" x="13" y="271.0488"/><line style="stroke: #A80036; stroke-width: 1.0; stroke-dasharray: 5.0,5.0;" x1="52" x2="52" y1="38.29" y2="334.3018"/><line style="stroke: #A80036; stroke-width: 1.0; stroke-dasharray: 5.0,5.0;" x1="197" x2="197" y1="38.29" y2="334.3018"/><rect fill="#FEFECE" filter="url(#fgf2rdxy9w0x5)" height="30.29" style="stroke: #A80036; stroke-width: 1.5;" width="54" x="23" y="3"/><text fill="#000000" font-family="sans-serif" font-size="14" lengthAdjust="spacingAndGlyphs" textLength="40" x="30" y="23.3027">Portal</text><rect fill="#FEFECE" filter="url(#fgf2rdxy9w0x5)" height="30.29" style="stroke: #A80036; stroke-width: 1.5;" width="140" x="125" y="3"/><text fill="#000000" font-family="sans-serif" font-size="14" lengthAdjust="spacingAndGlyphs" textLength="126" x="132" y="23.3027">PortletComponent</text><rect fill="#FFFFFF" filter="url(#fgf2rdxy9w0x5)" height="21" style="stroke: #A80036; stroke-width: 1.0;" width="10" x="47" y="48.29"/><rect fill="#FFFFFF" filter="url(#fgf2rdxy9w0x5)" height="255.0117" style="stroke: #A80036; stroke-width: 1.0;" width="10" x="192" y="69.29"/><rect fill="#FFFFFF" filter="url(#fgf2rdxy9w0x5)" height="217.8853" style="stroke: #A80036; stroke-width: 1.0;" width="10" x="197" y="106.4165"/><polygon fill="#A80036" points="180,65.29,190,69.29,180,73.29,184,69.29" style="stroke: #A80036; stroke-width: 1.0;"/><line style="stroke: #A80036; stroke-width: 1.0;" x1="52" x2="186" y1="69.29" y2="69.29"/><text fill="#000000" font-family="sans-serif" font-size="13" lengthAdjust="spacingAndGlyphs" textLength="116" x="59" y="64.6426">AddPortletRequest</text><line style="stroke: #A80036; stroke-width: 1.0;" x1="202" x2="249" y1="93.543" y2="93.543"/><line style="stroke: #A80036; stroke-width: 1.0;" x1="249" x2="249" y1="93.543" y2="106.543"/><line style="stroke: #A80036; stroke-width: 1.0;" x1="208" x2="249" y1="106.543" y2="106.543"/><polygon fill="#A80036" points="218,102.543,208,106.543,218,110.543,214,106.543" style="stroke: #A80036; stroke-width: 1.0;"/><text fill="#000000" font-family="sans-serif" font-size="13" lengthAdjust="spacingAndGlyphs" textLength="82" x="214" y="88.769">doAddPortlet</text><rect fill="none" height="59.2529" style="stroke: #000000; stroke-width: 2.0;" width="218" x="115" y="126.543"/><polygon fill="#EEEEEE" points="115,126.543,184,126.543,184,133.543,174,143.543,115,143.543,115,126.543" style="stroke: #000000; stroke-width: 2.0;"/><text fill="#000000" font-family="sans-serif" font-size="13" font-weight="bold" lengthAdjust="spacingAndGlyphs" textLength="24" x="130" y="139.8955">opt</text><line style="stroke: #A80036; stroke-width: 1.0;" x1="207" x2="249" y1="164.7959" y2="164.7959"/><line style="stroke: #A80036; stroke-width: 1.0;" x1="249" x2="249" y1="164.7959" y2="177.7959"/><line style="stroke: #A80036; stroke-width: 1.0;" x1="208" x2="249" y1="177.7959" y2="177.7959"/><polygon fill="#A80036" points="218,173.7959,208,177.7959,218,181.7959,214,177.7959" style="stroke: #A80036; stroke-width: 1.0;"/><text fill="#000000" font-family="sans-serif" font-size="13" lengthAdjust="spacingAndGlyphs" textLength="107" x="214" y="160.022">generatePortletId</text><line style="stroke: #A80036; stroke-width: 1.0;" x1="207" x2="249" y1="213.9224" y2="213.9224"/><line style="stroke: #A80036; stroke-width: 1.0;" x1="249" x2="249" y1="213.9224" y2="226.9224"/><line style="stroke: #A80036; stroke-width: 1.0;" x1="208" x2="249" y1="226.9224" y2="226.9224"/><polygon fill="#A80036" points="218,222.9224,208,226.9224,218,230.9224,214,226.9224" style="stroke: #A80036; stroke-width: 1.0;"/><text fill="#000000" font-family="sans-serif" font-size="13" lengthAdjust="spacingAndGlyphs" textLength="81" x="214" y="209.1484">putInSession</text><polygon fill="#A80036" points="63,251.9224,53,255.9224,63,259.9224,59,255.9224" style="stroke: #A80036; stroke-width: 1.0;"/><line style="stroke: #A80036; stroke-width: 1.0;" x1="57" x2="196" y1="255.9224" y2="255.9224"/><text fill="#000000" font-family="sans-serif" font-size="13" lengthAdjust="spacingAndGlyphs" textLength="84" x="69" y="251.2749">RenderPortlet</text><rect fill="none" height="46.2529" style="stroke: #000000; stroke-width: 2.0;" width="266" x="13" y="271.0488"/><polygon fill="#EEEEEE" points="13,271.0488,82,271.0488,82,278.0488,72,288.0488,13,288.0488,13,271.0488" style="stroke: #000000; stroke-width: 2.0;"/><text fill="#000000" font-family="sans-serif" font-size="13" font-weight="bold" lengthAdjust="spacingAndGlyphs" textLength="24" x="28" y="284.4014">opt</text><polygon fill="#A80036" points="63,305.1753,53,309.1753,63,313.1753,59,309.1753" style="stroke: #A80036; stroke-width: 1.0;"/><line style="stroke: #A80036; stroke-width: 1.0;" x1="57" x2="196" y1="309.1753" y2="309.1753"/><text fill="#000000" font-family="sans-serif" font-size="13" lengthAdjust="spacingAndGlyphs" textLength="110" x="69" y="304.5278">NotifyPortletView</text><!--
@startuml
hide footbox
 
 activate Portal
 Portal -> PortletComponent: AddPortletRequest
 deactivate Portal
 activate PortletComponent
 PortletComponent -> PortletComponent: doAddPortlet
 activate PortletComponent
 opt
 	   PortletComponent -> PortletComponent: generatePortletId
 end opt
 PortletComponent -> PortletComponent: putInSession
 PortletComponent -> Portal: RenderPortlet
 opt 
     PortletComponent -> Portal: NotifyPortletView
 end opt 
 deactivate PortletComponent
 deactivate PortletComponent
 activate Portal
 deactivate Portal
@enduml

PlantUML version 1.2017.18(Fri Oct 06 16:56:32 UTC 2017)
(GPL source distribution)
Java Runtime: Java(TM) SE Runtime Environment
JVM: Java HotSpot(TM) 64-Bit Server VM
Java Version: 9.0.1+11
Operating System: Linux
OS Version: 4.14.12-041412-generic
Default Encoding: UTF-8
Language: en
Country: US
--></g></svg>