<?xml version="1.0" encoding="UTF-8" standalone="no"?><svg xmlns="http://www.w3.org/2000/svg" xmlns:xlink="http://www.w3.org/1999/xlink" contentScriptType="application/ecmascript" contentStyleType="text/css" height="262px" preserveAspectRatio="none" style="width:362px;height:262px;" version="1.1" viewBox="0 0 362 262" width="362px" zoomAndPan="magnify"><defs><filter height="300%" id="f1hb0wpuh1xgyd" width="300%" x="-1" y="-1"><feGaussianBlur result="blurOut" stdDeviation="2.0"/><feColorMatrix in="blurOut" result="blurOut2" type="matrix" values="0 0 0 0 0 0 0 0 0 0 0 0 0 0 0 0 0 0 .4 0"/><feOffset dx="4.0" dy="4.0" in="blurOut2" result="blurOut3"/><feBlend in="SourceGraphic" in2="blurOut3" mode="normal"/></filter></defs><g><rect fill="#FFFFFF" filter="url(#f1hb0wpuh1xgyd)" height="21" style="stroke: #A80036; stroke-width: 1.0;" width="10" x="47" y="48.29"/><rect fill="#FFFFFF" filter="url(#f1hb0wpuh1xgyd)" height="170.7588" style="stroke: #A80036; stroke-width: 1.0;" width="10" x="194" y="69.29"/><rect fill="#FFFFFF" filter="url(#f1hb0wpuh1xgyd)" height="133.6323" style="stroke: #A80036; stroke-width: 1.0;" width="10" x="199" y="106.4165"/><rect fill="#FFFFFF" filter="url(#f1hb0wpuh1xgyd)" height="46.2529" style="stroke: #000000; stroke-width: 2.0;" width="268" x="13" y="126.543"/><rect fill="#FFFFFF" filter="url(#f1hb0wpuh1xgyd)" height="46.2529" style="stroke: #000000; stroke-width: 2.0;" width="268" x="13" y="186.7959"/><line style="stroke: #A80036; stroke-width: 1.0; stroke-dasharray: 5.0,5.0;" x1="52" x2="52" y1="38.29" y2="250.0488"/><line style="stroke: #A80036; stroke-width: 1.0; stroke-dasharray: 5.0,5.0;" x1="199" x2="199" y1="38.29" y2="250.0488"/><rect fill="#FEFECE" filter="url(#f1hb0wpuh1xgyd)" height="30.29" style="stroke: #A80036; stroke-width: 1.5;" width="54" x="23" y="3"/><text fill="#000000" font-family="sans-serif" font-size="14" lengthAdjust="spacingAndGlyphs" textLength="40" x="30" y="23.3027">Portal</text><rect fill="#FEFECE" filter="url(#f1hb0wpuh1xgyd)" height="30.29" style="stroke: #A80036; stroke-width: 1.5;" width="140" x="127" y="3"/><text fill="#000000" font-family="sans-serif" font-size="14" lengthAdjust="spacingAndGlyphs" textLength="126" x="134" y="23.3027">PortletComponent</text><rect fill="#FFFFFF" filter="url(#f1hb0wpuh1xgyd)" height="21" style="stroke: #A80036; stroke-width: 1.0;" width="10" x="47" y="48.29"/><rect fill="#FFFFFF" filter="url(#f1hb0wpuh1xgyd)" height="170.7588" style="stroke: #A80036; stroke-width: 1.0;" width="10" x="194" y="69.29"/><rect fill="#FFFFFF" filter="url(#f1hb0wpuh1xgyd)" height="133.6323" style="stroke: #A80036; stroke-width: 1.0;" width="10" x="199" y="106.4165"/><polygon fill="#A80036" points="182,65.29,192,69.29,182,73.29,186,69.29" style="stroke: #A80036; stroke-width: 1.0;"/><line style="stroke: #A80036; stroke-width: 1.0;" x1="52" x2="188" y1="69.29" y2="69.29"/><text fill="#000000" font-family="sans-serif" font-size="13" lengthAdjust="spacingAndGlyphs" textLength="118" x="59" y="64.6426">NotifyPortletModel</text><line style="stroke: #A80036; stroke-width: 1.0;" x1="204" x2="251" y1="93.543" y2="93.543"/><line style="stroke: #A80036; stroke-width: 1.0;" x1="251" x2="251" y1="93.543" y2="106.543"/><line style="stroke: #A80036; stroke-width: 1.0;" x1="210" x2="251" y1="106.543" y2="106.543"/><polygon fill="#A80036" points="220,102.543,210,106.543,220,110.543,216,106.543" style="stroke: #A80036; stroke-width: 1.0;"/><text fill="#000000" font-family="sans-serif" font-size="13" lengthAdjust="spacingAndGlyphs" textLength="134" x="216" y="88.769">doNotifyPortletModel</text><rect fill="none" height="46.2529" style="stroke: #000000; stroke-width: 2.0;" width="268" x="13" y="126.543"/><polygon fill="#EEEEEE" points="13,126.543,82,126.543,82,133.543,72,143.543,13,143.543,13,126.543" style="stroke: #000000; stroke-width: 2.0;"/><text fill="#000000" font-family="sans-serif" font-size="13" font-weight="bold" lengthAdjust="spacingAndGlyphs" textLength="24" x="28" y="139.8955">opt</text><polygon fill="#A80036" points="63,160.6694,53,164.6694,63,168.6694,59,164.6694" style="stroke: #A80036; stroke-width: 1.0;"/><line style="stroke: #A80036; stroke-width: 1.0;" x1="57" x2="198" y1="164.6694" y2="164.6694"/><text fill="#000000" font-family="sans-serif" font-size="13" lengthAdjust="spacingAndGlyphs" textLength="84" x="69" y="160.022">RenderPortlet</text><rect fill="none" height="46.2529" style="stroke: #000000; stroke-width: 2.0;" width="268" x="13" y="186.7959"/><polygon fill="#EEEEEE" points="13,186.7959,82,186.7959,82,193.7959,72,203.7959,13,203.7959,13,186.7959" style="stroke: #000000; stroke-width: 2.0;"/><text fill="#000000" font-family="sans-serif" font-size="13" font-weight="bold" lengthAdjust="spacingAndGlyphs" textLength="24" x="28" y="200.1484">opt</text><polygon fill="#A80036" points="63,220.9224,53,224.9224,63,228.9224,59,224.9224" style="stroke: #A80036; stroke-width: 1.0;"/><line style="stroke: #A80036; stroke-width: 1.0;" x1="57" x2="198" y1="224.9224" y2="224.9224"/><text fill="#000000" font-family="sans-serif" font-size="13" lengthAdjust="spacingAndGlyphs" textLength="110" x="69" y="220.2749">NotifyPortletView</text><!--
@startuml
hide footbox
 
 activate Portal
 Portal -> PortletComponent: NotifyPortletModel
 deactivate Portal
 activate PortletComponent
 PortletComponent -> PortletComponent: doNotifyPortletModel
 activate PortletComponent
 opt
     PortletComponent -> Portal: RenderPortlet
 end opt 
 opt 
     PortletComponent -> Portal: NotifyPortletView
 end opt 
 deactivate PortletComponent
 deactivate PortletComponent
 activate Portal
 deactivate Portal
@enduml

PlantUML version 1.2017.18(Fri Oct 06 16:56:32 UTC 2017)
(GPL source distribution)
Java Runtime: Java(TM) SE Runtime Environment
JVM: Java HotSpot(TM) 64-Bit Server VM
Java Version: 9.0.1+11
Operating System: Linux
OS Version: 4.14.12-041412-generic
Default Encoding: UTF-8
Language: en
Country: US
--></g></svg>