<?xml version="1.0" encoding="UTF-8" standalone="no"?><svg xmlns="http://www.w3.org/2000/svg" xmlns:xlink="http://www.w3.org/1999/xlink" contentScriptType="application/ecmascript" contentStyleType="text/css" height="262px" preserveAspectRatio="none" style="width:370px;height:262px;" version="1.1" viewBox="0 0 370 262" width="370px" zoomAndPan="magnify"><defs><filter height="300%" id="f1hb0wpuh1xgyd" width="300%" x="-1" y="-1"><feGaussianBlur result="blurOut" stdDeviation="2.0"/><feColorMatrix in="blurOut" result="blurOut2" type="matrix" values="0 0 0 0 0 0 0 0 0 0 0 0 0 0 0 0 0 0 .4 0"/><feOffset dx="4.0" dy="4.0" in="blurOut2" result="blurOut3"/><feBlend in="SourceGraphic" in2="blurOut3" mode="normal"/></filter></defs><g><rect fill="#FFFFFF" filter="url(#f1hb0wpuh1xgyd)" height="21" style="stroke: #A80036; stroke-width: 1.0;" width="10" x="47.5" y="48.2969"/><rect fill="#FFFFFF" filter="url(#f1hb0wpuh1xgyd)" height="170.7969" style="stroke: #A80036; stroke-width: 1.0;" width="10" x="198.5" y="69.2969"/><rect fill="#FFFFFF" filter="url(#f1hb0wpuh1xgyd)" height="133.6641" style="stroke: #A80036; stroke-width: 1.0;" width="10" x="203.5" y="106.4297"/><rect fill="#FFFFFF" filter="url(#f1hb0wpuh1xgyd)" height="46.2656" style="stroke: #000000; stroke-width: 2.0;" width="274" x="13" y="126.5625"/><rect fill="#FFFFFF" filter="url(#f1hb0wpuh1xgyd)" height="46.2656" style="stroke: #000000; stroke-width: 2.0;" width="274" x="13" y="186.8281"/><line style="stroke: #A80036; stroke-width: 1.0; stroke-dasharray: 5.0,5.0;" x1="52" x2="52" y1="38.2969" y2="250.0938"/><line style="stroke: #A80036; stroke-width: 1.0; stroke-dasharray: 5.0,5.0;" x1="203" x2="203" y1="38.2969" y2="250.0938"/><rect fill="#FEFECE" filter="url(#f1hb0wpuh1xgyd)" height="30.2969" style="stroke: #A80036; stroke-width: 1.5;" width="55" x="23" y="3"/><text fill="#000000" font-family="sans-serif" font-size="14" lengthAdjust="spacingAndGlyphs" textLength="41" x="30" y="22.9951">Portal</text><rect fill="#FEFECE" filter="url(#f1hb0wpuh1xgyd)" height="30.2969" style="stroke: #A80036; stroke-width: 1.5;" width="143" x="130" y="3"/><text fill="#000000" font-family="sans-serif" font-size="14" lengthAdjust="spacingAndGlyphs" textLength="129" x="137" y="22.9951">PortletComponent</text><rect fill="#FFFFFF" filter="url(#f1hb0wpuh1xgyd)" height="21" style="stroke: #A80036; stroke-width: 1.0;" width="10" x="47.5" y="48.2969"/><rect fill="#FFFFFF" filter="url(#f1hb0wpuh1xgyd)" height="170.7969" style="stroke: #A80036; stroke-width: 1.0;" width="10" x="198.5" y="69.2969"/><rect fill="#FFFFFF" filter="url(#f1hb0wpuh1xgyd)" height="133.6641" style="stroke: #A80036; stroke-width: 1.0;" width="10" x="203.5" y="106.4297"/><polygon fill="#A80036" points="186.5,65.2969,196.5,69.2969,186.5,73.2969,190.5,69.2969" style="stroke: #A80036; stroke-width: 1.0;"/><line style="stroke: #A80036; stroke-width: 1.0;" x1="52.5" x2="192.5" y1="69.2969" y2="69.2969"/><text fill="#000000" font-family="sans-serif" font-size="13" lengthAdjust="spacingAndGlyphs" textLength="122" x="59.5" y="64.3638">NotifyPortletModel</text><line style="stroke: #A80036; stroke-width: 1.0;" x1="208.5" x2="255.5" y1="93.5625" y2="93.5625"/><line style="stroke: #A80036; stroke-width: 1.0;" x1="255.5" x2="255.5" y1="93.5625" y2="106.5625"/><line style="stroke: #A80036; stroke-width: 1.0;" x1="214.5" x2="255.5" y1="106.5625" y2="106.5625"/><polygon fill="#A80036" points="224.5,102.5625,214.5,106.5625,224.5,110.5625,220.5,106.5625" style="stroke: #A80036; stroke-width: 1.0;"/><text fill="#000000" font-family="sans-serif" font-size="13" lengthAdjust="spacingAndGlyphs" textLength="138" x="220.5" y="88.4966">doNotifyPortletModel</text><rect fill="none" height="46.2656" style="stroke: #000000; stroke-width: 2.0;" width="274" x="13" y="126.5625"/><polygon fill="#EEEEEE" points="13,126.5625,82,126.5625,82,133.5625,72,143.5625,13,143.5625,13,126.5625" style="stroke: #000000; stroke-width: 2.0;"/><text fill="#000000" font-family="sans-serif" font-size="13" font-weight="bold" lengthAdjust="spacingAndGlyphs" textLength="24" x="28" y="139.6294">opt</text><polygon fill="#A80036" points="63.5,160.6953,53.5,164.6953,63.5,168.6953,59.5,164.6953" style="stroke: #A80036; stroke-width: 1.0;"/><line style="stroke: #A80036; stroke-width: 1.0;" x1="57.5" x2="202.5" y1="164.6953" y2="164.6953"/><text fill="#000000" font-family="sans-serif" font-size="13" lengthAdjust="spacingAndGlyphs" textLength="89" x="69.5" y="159.7622">RenderPortlet</text><rect fill="none" height="46.2656" style="stroke: #000000; stroke-width: 2.0;" width="274" x="13" y="186.8281"/><polygon fill="#EEEEEE" points="13,186.8281,82,186.8281,82,193.8281,72,203.8281,13,203.8281,13,186.8281" style="stroke: #000000; stroke-width: 2.0;"/><text fill="#000000" font-family="sans-serif" font-size="13" font-weight="bold" lengthAdjust="spacingAndGlyphs" textLength="24" x="28" y="199.895">opt</text><polygon fill="#A80036" points="63.5,220.9609,53.5,224.9609,63.5,228.9609,59.5,224.9609" style="stroke: #A80036; stroke-width: 1.0;"/><line style="stroke: #A80036; stroke-width: 1.0;" x1="57.5" x2="202.5" y1="224.9609" y2="224.9609"/><text fill="#000000" font-family="sans-serif" font-size="13" lengthAdjust="spacingAndGlyphs" textLength="115" x="69.5" y="220.0278">NotifyPortletView</text><!--
@startuml
hide footbox
 
 activate Portal
 Portal -> PortletComponent: NotifyPortletModel
 deactivate Portal
 activate PortletComponent
 PortletComponent -> PortletComponent: doNotifyPortletModel
 activate PortletComponent
 opt
     PortletComponent -> Portal: RenderPortlet
 end opt 
 opt 
     PortletComponent -> Portal: NotifyPortletView
 end opt 
 deactivate PortletComponent
 deactivate PortletComponent
 activate Portal
 deactivate Portal
@enduml

PlantUML version 1.2017.18(Fri Oct 06 18:56:32 CEST 2017)
(GPL source distribution)
Java Runtime: OpenJDK Runtime Environment
JVM: OpenJDK 64-Bit Server VM
Java Version: 1.8.0_171-b10
Operating System: Linux
OS Version: 4.16.4-200.fc27.x86_64
Default Encoding: UTF-8
Language: de
Country: DE
--></g></svg>