<?xml version="1.0" encoding="UTF-8" standalone="no"?><svg xmlns="http://www.w3.org/2000/svg" xmlns:xlink="http://www.w3.org/1999/xlink" contentScriptType="application/ecmascript" contentStyleType="text/css" height="390px" preserveAspectRatio="none" style="width:631px;height:390px;" version="1.1" viewBox="0 0 631 390" width="631px" zoomAndPan="magnify"><defs><filter height="300%" id="f1od8uv3n5yd5s" width="300%" x="-1" y="-1"><feGaussianBlur result="blurOut" stdDeviation="2.0"/><feColorMatrix in="blurOut" result="blurOut2" type="matrix" values="0 0 0 0 0 0 0 0 0 0 0 0 0 0 0 0 0 0 .4 0"/><feOffset dx="4.0" dy="4.0" in="blurOut2" result="blurOut3"/><feBlend in="SourceGraphic" in2="blurOut3" mode="normal"/></filter></defs><g><!--cluster Conceptual Portal\n(Portal Gateway)--><rect fill="#FFFFFF" filter="url(#f1od8uv3n5yd5s)" height="99" style="stroke: #000000; stroke-width: 2.0;" width="225" x="111" y="59"/><text fill="#000000" font-family="sans-serif" font-size="14" font-weight="bold" lengthAdjust="spacingAndGlyphs" textLength="142" x="152.5" y="73.9951">Conceptual Portal</text><text fill="#000000" font-family="sans-serif" font-size="14" font-weight="bold" lengthAdjust="spacingAndGlyphs" textLength="133" x="157" y="90.292">(Portal Gateway)</text><!--cluster ##18--><!--class Portal--><rect fill="#FEFECE" filter="url(#f1od8uv3n5yd5s)" height="48" id="Portal" style="stroke: #A80036; stroke-width: 1.5;" width="66" x="262" y="102"/><ellipse cx="277" cy="118" fill="#ADD1B2" rx="11" ry="11" style="stroke: #A80036; stroke-width: 1.0;"/><path d="M279.9688,123.6406 Q279.3906,123.9375 278.75,124.0859 Q278.1094,124.2344 277.4063,124.2344 Q274.9063,124.2344 273.5859,122.5859 Q272.2656,120.9375 272.2656,117.8125 Q272.2656,114.6875 273.5859,113.0313 Q274.9063,111.375 277.4063,111.375 Q278.1094,111.375 278.7578,111.5313 Q279.4063,111.6875 279.9688,111.9844 L279.9688,114.7031 Q279.3438,114.125 278.75,113.8516 Q278.1563,113.5781 277.5313,113.5781 Q276.1875,113.5781 275.5,114.6484 Q274.8125,115.7188 274.8125,117.8125 Q274.8125,119.9063 275.5,120.9766 Q276.1875,122.0469 277.5313,122.0469 Q278.1563,122.0469 278.75,121.7734 Q279.3438,121.5 279.9688,120.9219 L279.9688,123.6406 Z "/><text fill="#000000" font-family="sans-serif" font-size="12" lengthAdjust="spacingAndGlyphs" textLength="34" x="291" y="122.1543">Portal</text><line style="stroke: #A80036; stroke-width: 1.5;" x1="263" x2="327" y1="134" y2="134"/><line style="stroke: #A80036; stroke-width: 1.5;" x1="263" x2="327" y1="142" y2="142"/><!--class PortalWeblet--><rect fill="#FEFECE" filter="url(#f1od8uv3n5yd5s)" height="48" id="PortalWeblet" style="stroke: #A80036; stroke-width: 1.5;" width="108" x="119" y="102"/><ellipse cx="134" cy="118" fill="#ADD1B2" rx="11" ry="11" style="stroke: #A80036; stroke-width: 1.0;"/><path d="M136.9688,123.6406 Q136.3906,123.9375 135.75,124.0859 Q135.1094,124.2344 134.4063,124.2344 Q131.9063,124.2344 130.5859,122.5859 Q129.2656,120.9375 129.2656,117.8125 Q129.2656,114.6875 130.5859,113.0313 Q131.9063,111.375 134.4063,111.375 Q135.1094,111.375 135.7578,111.5313 Q136.4063,111.6875 136.9688,111.9844 L136.9688,114.7031 Q136.3438,114.125 135.75,113.8516 Q135.1563,113.5781 134.5313,113.5781 Q133.1875,113.5781 132.5,114.6484 Q131.8125,115.7188 131.8125,117.8125 Q131.8125,119.9063 132.5,120.9766 Q133.1875,122.0469 134.5313,122.0469 Q135.1563,122.0469 135.75,121.7734 Q136.3438,121.5 136.9688,120.9219 L136.9688,123.6406 Z "/><text fill="#000000" font-family="sans-serif" font-size="12" lengthAdjust="spacingAndGlyphs" textLength="76" x="148" y="122.1543">PortalWeblet</text><line style="stroke: #A80036; stroke-width: 1.5;" x1="120" x2="226" y1="134" y2="134"/><line style="stroke: #A80036; stroke-width: 1.5;" x1="120" x2="226" y1="142" y2="142"/><!--class PortletB--><rect fill="#FEFECE" filter="url(#f1od8uv3n5yd5s)" height="48" id="PortletB" style="stroke: #A80036; stroke-width: 1.5;" width="79" x="502.5" y="102"/><ellipse cx="517.5" cy="118" fill="#ADD1B2" rx="11" ry="11" style="stroke: #A80036; stroke-width: 1.0;"/><path d="M520.4688,123.6406 Q519.8906,123.9375 519.25,124.0859 Q518.6094,124.2344 517.9063,124.2344 Q515.4063,124.2344 514.0859,122.5859 Q512.7656,120.9375 512.7656,117.8125 Q512.7656,114.6875 514.0859,113.0313 Q515.4063,111.375 517.9063,111.375 Q518.6094,111.375 519.2578,111.5313 Q519.9063,111.6875 520.4688,111.9844 L520.4688,114.7031 Q519.8438,114.125 519.25,113.8516 Q518.6563,113.5781 518.0313,113.5781 Q516.6875,113.5781 516,114.6484 Q515.3125,115.7188 515.3125,117.8125 Q515.3125,119.9063 516,120.9766 Q516.6875,122.0469 518.0313,122.0469 Q518.6563,122.0469 519.25,121.7734 Q519.8438,121.5 520.4688,120.9219 L520.4688,123.6406 Z "/><text fill="#000000" font-family="sans-serif" font-size="12" lengthAdjust="spacingAndGlyphs" textLength="47" x="531.5" y="122.1543">PortletB</text><line style="stroke: #A80036; stroke-width: 1.5;" x1="503.5" x2="580.5" y1="134" y2="134"/><line style="stroke: #A80036; stroke-width: 1.5;" x1="503.5" x2="580.5" y1="142" y2="142"/><!--class PortletA--><rect fill="#FEFECE" filter="url(#f1od8uv3n5yd5s)" height="48" id="PortletA" style="stroke: #A80036; stroke-width: 1.5;" width="79" x="368.5" y="102"/><ellipse cx="383.5" cy="118" fill="#ADD1B2" rx="11" ry="11" style="stroke: #A80036; stroke-width: 1.0;"/><path d="M386.4688,123.6406 Q385.8906,123.9375 385.25,124.0859 Q384.6094,124.2344 383.9063,124.2344 Q381.4063,124.2344 380.0859,122.5859 Q378.7656,120.9375 378.7656,117.8125 Q378.7656,114.6875 380.0859,113.0313 Q381.4063,111.375 383.9063,111.375 Q384.6094,111.375 385.2578,111.5313 Q385.9063,111.6875 386.4688,111.9844 L386.4688,114.7031 Q385.8438,114.125 385.25,113.8516 Q384.6563,113.5781 384.0313,113.5781 Q382.6875,113.5781 382,114.6484 Q381.3125,115.7188 381.3125,117.8125 Q381.3125,119.9063 382,120.9766 Q382.6875,122.0469 384.0313,122.0469 Q384.6563,122.0469 385.25,121.7734 Q385.8438,121.5 386.4688,120.9219 L386.4688,123.6406 Z "/><text fill="#000000" font-family="sans-serif" font-size="12" lengthAdjust="spacingAndGlyphs" textLength="47" x="397.5" y="122.1543">PortletA</text><line style="stroke: #A80036; stroke-width: 1.5;" x1="369.5" x2="446.5" y1="134" y2="134"/><line style="stroke: #A80036; stroke-width: 1.5;" x1="369.5" x2="446.5" y1="142" y2="142"/><!--class PortletAData--><rect fill="#FEFECE" filter="url(#f1od8uv3n5yd5s)" height="60.8047" id="PortletAData" style="stroke: #A80036; stroke-width: 1.5;" width="114" x="357" y="210"/><ellipse cx="375.15" cy="226" fill="#ADD1B2" rx="11" ry="11" style="stroke: #A80036; stroke-width: 1.0;"/><path d="M378.1188,231.6406 Q377.5406,231.9375 376.9,232.0859 Q376.2594,232.2344 375.5563,232.2344 Q373.0563,232.2344 371.7359,230.5859 Q370.4156,228.9375 370.4156,225.8125 Q370.4156,222.6875 371.7359,221.0313 Q373.0563,219.375 375.5563,219.375 Q376.2594,219.375 376.9078,219.5313 Q377.5563,219.6875 378.1188,219.9844 L378.1188,222.7031 Q377.4938,222.125 376.9,221.8516 Q376.3063,221.5781 375.6813,221.5781 Q374.3375,221.5781 373.65,222.6484 Q372.9625,223.7188 372.9625,225.8125 Q372.9625,227.9063 373.65,228.9766 Q374.3375,230.0469 375.6813,230.0469 Q376.3063,230.0469 376.9,229.7734 Q377.4938,229.5 378.1188,228.9219 L378.1188,231.6406 Z "/><text fill="#000000" font-family="sans-serif" font-size="12" lengthAdjust="spacingAndGlyphs" textLength="75" x="389.85" y="230.1543">PortletAData</text><line style="stroke: #A80036; stroke-width: 1.5;" x1="358" x2="470" y1="242" y2="242"/><rect fill="none" height="6" style="stroke: #C82930; stroke-width: 1.0;" width="6" x="365" y="250.9023"/><text fill="#000000" font-family="sans-serif" font-size="11" lengthAdjust="spacingAndGlyphs" textLength="88" x="377" y="256.2104">portletId: String</text><line style="stroke: #A80036; stroke-width: 1.5;" x1="358" x2="470" y1="262.8047" y2="262.8047"/><!--class PortletBData--><rect fill="#FEFECE" filter="url(#f1od8uv3n5yd5s)" height="60.8047" id="PortletBData" style="stroke: #A80036; stroke-width: 1.5;" width="114" x="506" y="210"/><ellipse cx="524.15" cy="226" fill="#ADD1B2" rx="11" ry="11" style="stroke: #A80036; stroke-width: 1.0;"/><path d="M527.1188,231.6406 Q526.5406,231.9375 525.9,232.0859 Q525.2594,232.2344 524.5563,232.2344 Q522.0563,232.2344 520.7359,230.5859 Q519.4156,228.9375 519.4156,225.8125 Q519.4156,222.6875 520.7359,221.0313 Q522.0563,219.375 524.5563,219.375 Q525.2594,219.375 525.9078,219.5313 Q526.5563,219.6875 527.1188,219.9844 L527.1188,222.7031 Q526.4938,222.125 525.9,221.8516 Q525.3063,221.5781 524.6813,221.5781 Q523.3375,221.5781 522.65,222.6484 Q521.9625,223.7188 521.9625,225.8125 Q521.9625,227.9063 522.65,228.9766 Q523.3375,230.0469 524.6813,230.0469 Q525.3063,230.0469 525.9,229.7734 Q526.4938,229.5 527.1188,228.9219 L527.1188,231.6406 Z "/><text fill="#000000" font-family="sans-serif" font-size="12" lengthAdjust="spacingAndGlyphs" textLength="75" x="538.85" y="230.1543">PortletBData</text><line style="stroke: #A80036; stroke-width: 1.5;" x1="507" x2="619" y1="242" y2="242"/><rect fill="none" height="6" style="stroke: #C82930; stroke-width: 1.0;" width="6" x="514" y="250.9023"/><text fill="#000000" font-family="sans-serif" font-size="11" lengthAdjust="spacingAndGlyphs" textLength="88" x="526" y="256.2104">portletId: String</text><line style="stroke: #A80036; stroke-width: 1.5;" x1="507" x2="619" y1="262.8047" y2="262.8047"/><!--class Session--><rect fill="#FEFECE" filter="url(#f1od8uv3n5yd5s)" height="48" id="Session" style="stroke: #A80036; stroke-width: 1.5;" width="77" x="449.5" y="331"/><ellipse cx="464.5" cy="347" fill="#ADD1B2" rx="11" ry="11" style="stroke: #A80036; stroke-width: 1.0;"/><path d="M467.4688,352.6406 Q466.8906,352.9375 466.25,353.0859 Q465.6094,353.2344 464.9063,353.2344 Q462.4063,353.2344 461.0859,351.5859 Q459.7656,349.9375 459.7656,346.8125 Q459.7656,343.6875 461.0859,342.0313 Q462.4063,340.375 464.9063,340.375 Q465.6094,340.375 466.2578,340.5313 Q466.9063,340.6875 467.4688,340.9844 L467.4688,343.7031 Q466.8438,343.125 466.25,342.8516 Q465.6563,342.5781 465.0313,342.5781 Q463.6875,342.5781 463,343.6484 Q462.3125,344.7188 462.3125,346.8125 Q462.3125,348.9063 463,349.9766 Q463.6875,351.0469 465.0313,351.0469 Q465.6563,351.0469 466.25,350.7734 Q466.8438,350.5 467.4688,349.9219 L467.4688,352.6406 Z "/><text fill="#000000" font-family="sans-serif" font-size="12" lengthAdjust="spacingAndGlyphs" textLength="45" x="478.5" y="351.1543">Session</text><line style="stroke: #A80036; stroke-width: 1.5;" x1="450.5" x2="525.5" y1="363" y2="363"/><line style="stroke: #A80036; stroke-width: 1.5;" x1="450.5" x2="525.5" y1="371" y2="371"/><!--entity Browser--><rect fill="#FEFECE" filter="url(#f1od8uv3n5yd5s)" height="36.2969" style="stroke: #A80036; stroke-width: 1.5;" width="78" x="6" y="108"/><rect fill="#FEFECE" height="5" style="stroke: #A80036; stroke-width: 1.5;" width="10" x="1" y="113"/><rect fill="#FEFECE" height="5" style="stroke: #A80036; stroke-width: 1.5;" width="10" x="1" y="134.2969"/><text fill="#000000" font-family="sans-serif" font-size="14" lengthAdjust="spacingAndGlyphs" textLength="58" x="16" y="130.9951">Browser</text><!--class PageResourceProvider--><rect fill="#FEFECE" filter="url(#f1od8uv3n5yd5s)" height="48" id="PageResourceProvider" style="stroke: #A80036; stroke-width: 1.5;" width="165" x="21.5" y="216.5"/><ellipse cx="36.5" cy="232.5" fill="#ADD1B2" rx="11" ry="11" style="stroke: #A80036; stroke-width: 1.0;"/><path d="M39.4688,238.1406 Q38.8906,238.4375 38.25,238.5859 Q37.6094,238.7344 36.9063,238.7344 Q34.4063,238.7344 33.0859,237.0859 Q31.7656,235.4375 31.7656,232.3125 Q31.7656,229.1875 33.0859,227.5313 Q34.4063,225.875 36.9063,225.875 Q37.6094,225.875 38.2578,226.0313 Q38.9063,226.1875 39.4688,226.4844 L39.4688,229.2031 Q38.8438,228.625 38.25,228.3516 Q37.6563,228.0781 37.0313,228.0781 Q35.6875,228.0781 35,229.1484 Q34.3125,230.2188 34.3125,232.3125 Q34.3125,234.4063 35,235.4766 Q35.6875,236.5469 37.0313,236.5469 Q37.6563,236.5469 38.25,236.2734 Q38.8438,236 39.4688,235.4219 L39.4688,238.1406 Z "/><text fill="#000000" font-family="sans-serif" font-size="12" lengthAdjust="spacingAndGlyphs" textLength="133" x="50.5" y="236.6543">PageResourceProvider</text><line style="stroke: #A80036; stroke-width: 1.5;" x1="22.5" x2="185.5" y1="248.5" y2="248.5"/><line style="stroke: #A80036; stroke-width: 1.5;" x1="22.5" x2="185.5" y1="256.5" y2="256.5"/><!--class PortalPolicy--><rect fill="#FEFECE" filter="url(#f1od8uv3n5yd5s)" height="48" id="PortalPolicy" style="stroke: #A80036; stroke-width: 1.5;" width="100" x="222" y="216.5"/><ellipse cx="237" cy="232.5" fill="#ADD1B2" rx="11" ry="11" style="stroke: #A80036; stroke-width: 1.0;"/><path d="M239.9688,238.1406 Q239.3906,238.4375 238.75,238.5859 Q238.1094,238.7344 237.4063,238.7344 Q234.9063,238.7344 233.5859,237.0859 Q232.2656,235.4375 232.2656,232.3125 Q232.2656,229.1875 233.5859,227.5313 Q234.9063,225.875 237.4063,225.875 Q238.1094,225.875 238.7578,226.0313 Q239.4063,226.1875 239.9688,226.4844 L239.9688,229.2031 Q239.3438,228.625 238.75,228.3516 Q238.1563,228.0781 237.5313,228.0781 Q236.1875,228.0781 235.5,229.1484 Q234.8125,230.2188 234.8125,232.3125 Q234.8125,234.4063 235.5,235.4766 Q236.1875,236.5469 237.5313,236.5469 Q238.1563,236.5469 238.75,236.2734 Q239.3438,236 239.9688,235.4219 L239.9688,238.1406 Z "/><text fill="#000000" font-family="sans-serif" font-size="12" lengthAdjust="spacingAndGlyphs" textLength="68" x="251" y="236.6543">PortalPolicy</text><line style="stroke: #A80036; stroke-width: 1.5;" x1="223" x2="321" y1="248.5" y2="248.5"/><line style="stroke: #A80036; stroke-width: 1.5;" x1="223" x2="321" y1="256.5" y2="256.5"/><!--link PortalWeblet to Portal--><path d="M227.3281,126 C238.8711,126 250.4141,126 261.9571,126 " fill="none" id="PortalWeblet-Portal" style="stroke: #A80036; stroke-width: 1.0;"/><text fill="#000000" font-family="sans-serif" font-size="13" lengthAdjust="spacingAndGlyphs" textLength="8" x="235.1659" y="122.068">1</text><text fill="#000000" font-family="sans-serif" font-size="13" lengthAdjust="spacingAndGlyphs" textLength="8" x="245.854" y="121.4408">1</text><!--link Browser to PortalWeblet--><path d="M84.25,126 C95.806,126 107.362,126 118.918,126 " fill="none" id="Browser-PortalWeblet" style="stroke: #A80036; stroke-width: 1.0;"/><text fill="#000000" font-family="sans-serif" font-size="13" lengthAdjust="spacingAndGlyphs" textLength="7" x="92.132" y="121.669">*</text><text fill="#000000" font-family="sans-serif" font-size="13" lengthAdjust="spacingAndGlyphs" textLength="7" x="103.8205" y="122.0215">*</text><!--link Portal to PortletB--><path d="M303.4594,101.8584 C312.2059,81.0024 328.08,52.2004 352.6667,39 C392.0854,17.8363 411.9175,22.0747 453.3333,39 C484.2766,51.6455 510.254,80.8716 525.9354,101.9645 " fill="none" id="Portal-PortletB" style="stroke: #A80036; stroke-width: 1.0;"/><text fill="#000000" font-family="sans-serif" font-size="13" lengthAdjust="spacingAndGlyphs" textLength="8" x="296.6021" y="90.8342">1</text><text fill="#000000" font-family="sans-serif" font-size="13" lengthAdjust="spacingAndGlyphs" textLength="8" x="515.2616" y="90.8294">1</text><!--link Portal to PortletA--><path d="M328.1055,140.9139 C341.5253,144.4544 354.945,144.9485 368.3648,142.3962 " fill="none" id="Portal-PortletA" style="stroke: #A80036; stroke-width: 1.0;"/><text fill="#000000" font-family="sans-serif" font-size="13" lengthAdjust="spacingAndGlyphs" textLength="8" x="336.2223" y="139.6171">1</text><text fill="#000000" font-family="sans-serif" font-size="13" lengthAdjust="spacingAndGlyphs" textLength="8" x="352.5923" y="102.426">1</text><!--link PortletA to PortletAData--><path d="M409.2578,150.003 C410.1719,167.4463 411.4161,191.1912 412.4008,209.9818 " fill="none" id="PortletA-PortletAData" style="stroke: #A80036; stroke-width: 1.0;"/><text fill="#000000" font-family="sans-serif" font-size="13" lengthAdjust="spacingAndGlyphs" textLength="8" x="400.5551" y="170.1596">1</text><text fill="#000000" font-family="sans-serif" font-size="13" lengthAdjust="spacingAndGlyphs" textLength="7" x="404.2854" y="198.7681">*</text><!--link PortletB to PortletBData--><path d="M546.4023,150.003 C549.6015,167.4463 553.9565,191.1912 557.4028,209.9818 " fill="none" id="PortletB-PortletBData" style="stroke: #A80036; stroke-width: 1.0;"/><text fill="#000000" font-family="sans-serif" font-size="13" lengthAdjust="spacingAndGlyphs" textLength="8" x="538.5054" y="170.1596">1</text><text fill="#000000" font-family="sans-serif" font-size="13" lengthAdjust="spacingAndGlyphs" textLength="7" x="548.4128" y="198.7681">*</text><!--link PortletAData to Session--><path d="M433.8306,271.1839 C443.4513,286.0699 455.0618,304.0349 465.0623,319.5085 " fill="none" id="PortletAData-Session" style="stroke: #A80036; stroke-width: 1.0;"/><polygon fill="#A80036" points="472.3362,330.7634,472.4389,323.553,465.8226,320.685,465.72,327.8954,472.3362,330.7634" style="stroke: #A80036; stroke-width: 1.0;"/><text fill="#000000" font-family="sans-serif" font-size="13" lengthAdjust="spacingAndGlyphs" textLength="7" x="430.0457" y="290.8005">*</text><text fill="#000000" font-family="sans-serif" font-size="13" lengthAdjust="spacingAndGlyphs" textLength="8" x="459.5431" y="320.1107">1</text><!--link PortletBData to Session--><path d="M542.9014,271.1839 C533.1507,286.0699 521.3833,304.0349 511.2477,319.5085 " fill="none" id="PortletBData-Session" style="stroke: #A80036; stroke-width: 1.0;"/><polygon fill="#A80036" points="503.8755,330.7634,510.5092,327.9361,510.4508,320.7252,503.8171,323.5525,503.8755,330.7634" style="stroke: #A80036; stroke-width: 1.0;"/><text fill="#000000" font-family="sans-serif" font-size="13" lengthAdjust="spacingAndGlyphs" textLength="7" x="531.2554" y="290.8005">*</text><text fill="#000000" font-family="sans-serif" font-size="13" lengthAdjust="spacingAndGlyphs" textLength="8" x="498.7702" y="320.1107">1</text><!--link Portal to PageResourceProvider--><path d="M261.8881,146.9626 C255.95,150.6687 249.8049,154.4694 244,158 C211.0984,178.011 173.4805,200.1373 145.5299,216.434 " fill="none" id="Portal-PageResourceProvider" style="stroke: #A80036; stroke-width: 1.0;"/><text fill="#000000" font-family="sans-serif" font-size="13" lengthAdjust="spacingAndGlyphs" textLength="8" x="245.7699" y="146.989">1</text><text fill="#000000" font-family="sans-serif" font-size="13" lengthAdjust="spacingAndGlyphs" textLength="7" x="148.2751" y="205.4291">*</text><!--link Portal to PortalPolicy--><path d="M290.1784,150.003 C286.2794,169.4135 280.8129,196.6273 276.8944,216.1343 " fill="none" id="Portal-PortalPolicy" style="stroke: #A80036; stroke-width: 1.0;"/><text fill="#000000" font-family="sans-serif" font-size="13" lengthAdjust="spacingAndGlyphs" textLength="8" x="279.9179" y="170.1596">1</text><text fill="#000000" font-family="sans-serif" font-size="13" lengthAdjust="spacingAndGlyphs" textLength="7" x="270.2343" y="205.4501">*</text><!--
@startuml
skinparam packageStyle rectangle
 allow_mixing
 
 component Browser
 
 package "Conceptual Portal\n(Portal Gateway)" {
    class Portal
 	  class PortalWeblet
 
    Portal "1" -left- "1" PortalWeblet
 }
 
 PortalWeblet "*" -left- "*" Browser
 
 together {
 
   Portal "1" -right- "1" PortletB
   Portal "1" -right- "1" PortletA
 
   class PortletAData {
     -portletId: String
   }
 
   PortletAData "*" -up- "1" PortletA
 
   class PortletBData {
     -portletId: String
   }
 
   PortletBData "*" -up- "1" PortletB
   
   PortletAData "*" -up-* "1" Session
   PortletBData "*" -up-* "1" Session
 }
 
 Portal "1" -down- "*" PageResourceProvider
 Portal "1" -down- "*" PortalPolicy
@enduml

PlantUML version 1.2017.18(Fri Oct 06 18:56:32 CEST 2017)
(GPL source distribution)
Java Runtime: OpenJDK Runtime Environment
JVM: OpenJDK 64-Bit Server VM
Java Version: 1.8.0_171-b10
Operating System: Linux
OS Version: 4.16.4-200.fc27.x86_64
Default Encoding: UTF-8
Language: de
Country: DE
--></g></svg>