<?xml version="1.0" encoding="UTF-8" standalone="no"?><svg xmlns="http://www.w3.org/2000/svg" xmlns:xlink="http://www.w3.org/1999/xlink" contentScriptType="application/ecmascript" contentStyleType="text/css" height="648px" preserveAspectRatio="none" style="width:805px;height:648px;" version="1.1" viewBox="0 0 805 648" width="805px" zoomAndPan="magnify"><defs><filter height="300%" id="f89wmqfa8udur" width="300%" x="-1" y="-1"><feGaussianBlur result="blurOut" stdDeviation="2.0"/><feColorMatrix in="blurOut" result="blurOut2" type="matrix" values="0 0 0 0 0 0 0 0 0 0 0 0 0 0 0 0 0 0 .4 0"/><feOffset dx="4.0" dy="4.0" in="blurOut2" result="blurOut3"/><feBlend in="SourceGraphic" in2="blurOut3" mode="normal"/></filter></defs><g><rect fill="#FFFFFF" filter="url(#f89wmqfa8udur)" height="266.1953" style="stroke: #A80036; stroke-width: 1.0;" width="10" x="220" y="117.2969"/><rect fill="#FFFFFF" filter="url(#f89wmqfa8udur)" height="29.1328" style="stroke: #A80036; stroke-width: 1.0;" width="10" x="225" y="199.6953"/><rect fill="#FFFFFF" filter="url(#f89wmqfa8udur)" height="29.1328" style="stroke: #A80036; stroke-width: 1.0;" width="10" x="225" y="318.2266"/><rect fill="#FFFFFF" filter="url(#f89wmqfa8udur)" height="29.1328" style="stroke: #A80036; stroke-width: 1.0;" width="10" x="220" y="524.1563"/><rect fill="#FFFFFF" filter="url(#f89wmqfa8udur)" height="29.1328" style="stroke: #A80036; stroke-width: 1.0;" width="10" x="220" y="589.4219"/><rect fill="#FFFFFF" filter="url(#f89wmqfa8udur)" height="29.1328" style="stroke: #A80036; stroke-width: 1.0;" width="10" x="378" y="170.5625"/><rect fill="#FFFFFF" filter="url(#f89wmqfa8udur)" height="29.1328" style="stroke: #A80036; stroke-width: 1.0;" width="10" x="519.5" y="289.0938"/><rect fill="#FFFFFF" filter="url(#f89wmqfa8udur)" height="29.1328" style="stroke: #A80036; stroke-width: 1.0;" width="10" x="519.5" y="495.0234"/><rect fill="#FFFFFF" filter="url(#f89wmqfa8udur)" height="184.9297" style="stroke: #A80036; stroke-width: 1.0;" width="10" x="729.5" y="383.4922"/><rect fill="#FFFFFF" filter="url(#f89wmqfa8udur)" height="104.5313" style="stroke: #000000; stroke-width: 2.0;" width="474.5" x="13" y="132.4297"/><rect fill="#FFFFFF" filter="url(#f89wmqfa8udur)" height="104.5313" style="stroke: #000000; stroke-width: 2.0;" width="558.5" x="13" y="250.9609"/><rect fill="#FFFFFF" filter="url(#f89wmqfa8udur)" height="104.5313" style="stroke: #000000; stroke-width: 2.0;" width="781.5" x="13" y="456.8906"/><line style="stroke: #A80036; stroke-width: 1.0; stroke-dasharray: 5.0,5.0;" x1="61" x2="61" y1="86.2969" y2="636.6875"/><line style="stroke: #A80036; stroke-width: 1.0; stroke-dasharray: 5.0,5.0;" x1="224.5" x2="224.5" y1="86.2969" y2="636.6875"/><line style="stroke: #A80036; stroke-width: 1.0; stroke-dasharray: 5.0,5.0;" x1="382.5" x2="382.5" y1="86.2969" y2="636.6875"/><line style="stroke: #A80036; stroke-width: 1.0; stroke-dasharray: 5.0,5.0;" x1="524.5" x2="524.5" y1="86.2969" y2="636.6875"/><line style="stroke: #A80036; stroke-width: 1.0; stroke-dasharray: 5.0,5.0;" x1="614.5" x2="614.5" y1="86.2969" y2="636.6875"/><line style="stroke: #A80036; stroke-width: 1.0; stroke-dasharray: 5.0,5.0;" x1="734.5" x2="734.5" y1="86.2969" y2="636.6875"/><rect fill="#FEFECE" filter="url(#f89wmqfa8udur)" height="30.2969" style="stroke: #A80036; stroke-width: 1.5;" width="72" x="23" y="51"/><text fill="#000000" font-family="sans-serif" font-size="14" lengthAdjust="spacingAndGlyphs" textLength="58" x="30" y="70.9951">Browser</text><rect fill="#FEFECE" filter="url(#f89wmqfa8udur)" height="30.2969" style="stroke: #A80036; stroke-width: 1.5;" width="55" x="195.5" y="51"/><text fill="#000000" font-family="sans-serif" font-size="14" lengthAdjust="spacingAndGlyphs" textLength="41" x="202.5" y="70.9951">Portal</text><rect fill="#FEFECE" filter="url(#f89wmqfa8udur)" height="30.2969" style="stroke: #A80036; stroke-width: 1.5;" width="185" x="288.5" y="51"/><text fill="#000000" font-family="sans-serif" font-size="14" lengthAdjust="spacingAndGlyphs" textLength="171" x="295.5" y="70.9951">PageResourceProviderX</text><rect fill="#FEFECE" filter="url(#f89wmqfa8udur)" height="30.2969" style="stroke: #A80036; stroke-width: 1.5;" width="70" x="487.5" y="51"/><text fill="#000000" font-family="sans-serif" font-size="14" lengthAdjust="spacingAndGlyphs" textLength="56" x="494.5" y="70.9951">PortletX</text><text fill="#000000" font-family="sans-serif" font-size="14" lengthAdjust="spacingAndGlyphs" textLength="80" x="571.5" y="82.9951">Framework</text><ellipse cx="614.5" cy="13" fill="#FEFECE" filter="url(#f89wmqfa8udur)" rx="8" ry="8" style="stroke: #A80036; stroke-width: 2.0;"/><path d="M614.5,21 L614.5,48 M601.5,29 L627.5,29 M614.5,48 L601.5,63 M614.5,48 L627.5,63 " fill="#FEFECE" filter="url(#f89wmqfa8udur)" style="stroke: #A80036; stroke-width: 2.0;"/><rect fill="#FEFECE" filter="url(#f89wmqfa8udur)" height="30.2969" style="stroke: #A80036; stroke-width: 1.5;" width="96" x="684.5" y="51"/><text fill="#000000" font-family="sans-serif" font-size="14" lengthAdjust="spacingAndGlyphs" textLength="82" x="691.5" y="70.9951">PortalPolicy</text><rect fill="#FFFFFF" filter="url(#f89wmqfa8udur)" height="266.1953" style="stroke: #A80036; stroke-width: 1.0;" width="10" x="220" y="117.2969"/><rect fill="#FFFFFF" filter="url(#f89wmqfa8udur)" height="29.1328" style="stroke: #A80036; stroke-width: 1.0;" width="10" x="225" y="199.6953"/><rect fill="#FFFFFF" filter="url(#f89wmqfa8udur)" height="29.1328" style="stroke: #A80036; stroke-width: 1.0;" width="10" x="225" y="318.2266"/><rect fill="#FFFFFF" filter="url(#f89wmqfa8udur)" height="29.1328" style="stroke: #A80036; stroke-width: 1.0;" width="10" x="220" y="524.1563"/><rect fill="#FFFFFF" filter="url(#f89wmqfa8udur)" height="29.1328" style="stroke: #A80036; stroke-width: 1.0;" width="10" x="220" y="589.4219"/><rect fill="#FFFFFF" filter="url(#f89wmqfa8udur)" height="29.1328" style="stroke: #A80036; stroke-width: 1.0;" width="10" x="378" y="170.5625"/><rect fill="#FFFFFF" filter="url(#f89wmqfa8udur)" height="29.1328" style="stroke: #A80036; stroke-width: 1.0;" width="10" x="519.5" y="289.0938"/><rect fill="#FFFFFF" filter="url(#f89wmqfa8udur)" height="29.1328" style="stroke: #A80036; stroke-width: 1.0;" width="10" x="519.5" y="495.0234"/><rect fill="#FFFFFF" filter="url(#f89wmqfa8udur)" height="184.9297" style="stroke: #A80036; stroke-width: 1.0;" width="10" x="729.5" y="383.4922"/><polygon fill="#A80036" points="208,113.2969,218,117.2969,208,121.2969,212,117.2969" style="stroke: #A80036; stroke-width: 1.0;"/><line style="stroke: #A80036; stroke-width: 1.0;" x1="61" x2="214" y1="117.2969" y2="117.2969"/><text fill="#000000" font-family="sans-serif" font-size="13" lengthAdjust="spacingAndGlyphs" textLength="91" x="68" y="112.3638">"portalReady"</text><rect fill="none" height="104.5313" style="stroke: #000000; stroke-width: 2.0;" width="474.5" x="13" y="132.4297"/><polygon fill="#EEEEEE" points="13,132.4297,89,132.4297,89,139.4297,79,149.4297,13,149.4297,13,132.4297" style="stroke: #000000; stroke-width: 2.0;"/><text fill="#000000" font-family="sans-serif" font-size="13" font-weight="bold" lengthAdjust="spacingAndGlyphs" textLength="31" x="28" y="145.4966">loop</text><text fill="#000000" font-family="sans-serif" font-size="11" font-weight="bold" lengthAdjust="spacingAndGlyphs" textLength="202" x="104" y="144.6401">[for all page resource providers]</text><polygon fill="#A80036" points="366,166.5625,376,170.5625,366,174.5625,370,170.5625" style="stroke: #A80036; stroke-width: 1.0;"/><line style="stroke: #A80036; stroke-width: 1.0;" x1="230" x2="372" y1="170.5625" y2="170.5625"/><text fill="#000000" font-family="sans-serif" font-size="13" lengthAdjust="spacingAndGlyphs" textLength="79" x="237" y="165.6294">PortalReady</text><polygon fill="#A80036" points="246,195.6953,236,199.6953,246,203.6953,242,199.6953" style="stroke: #A80036; stroke-width: 1.0;"/><line style="stroke: #A80036; stroke-width: 1.0;" x1="240" x2="382" y1="199.6953" y2="199.6953"/><text fill="#000000" font-family="sans-serif" font-size="13" lengthAdjust="spacingAndGlyphs" textLength="124" x="252" y="194.7622">AddPageResources</text><polygon fill="#A80036" points="72,224.8281,62,228.8281,72,232.8281,68,228.8281" style="stroke: #A80036; stroke-width: 1.0;"/><line style="stroke: #A80036; stroke-width: 1.0;" x1="66" x2="219" y1="228.8281" y2="228.8281"/><text fill="#000000" font-family="sans-serif" font-size="13" lengthAdjust="spacingAndGlyphs" textLength="135" x="78" y="223.895">"addPageResources"</text><rect fill="none" height="104.5313" style="stroke: #000000; stroke-width: 2.0;" width="558.5" x="13" y="250.9609"/><polygon fill="#EEEEEE" points="13,250.9609,89,250.9609,89,257.9609,79,267.9609,13,267.9609,13,250.9609" style="stroke: #000000; stroke-width: 2.0;"/><text fill="#000000" font-family="sans-serif" font-size="13" font-weight="bold" lengthAdjust="spacingAndGlyphs" textLength="31" x="28" y="264.0278">loop</text><text fill="#000000" font-family="sans-serif" font-size="11" font-weight="bold" lengthAdjust="spacingAndGlyphs" textLength="100" x="104" y="263.1714">[for all portlets]</text><polygon fill="#A80036" points="507.5,285.0938,517.5,289.0938,507.5,293.0938,511.5,289.0938" style="stroke: #A80036; stroke-width: 1.0;"/><line style="stroke: #A80036; stroke-width: 1.0;" x1="230" x2="513.5" y1="289.0938" y2="289.0938"/><text fill="#000000" font-family="sans-serif" font-size="13" lengthAdjust="spacingAndGlyphs" textLength="79" x="237" y="284.1606">PortalReady</text><polygon fill="#A80036" points="246,314.2266,236,318.2266,246,322.2266,242,318.2266" style="stroke: #A80036; stroke-width: 1.0;"/><line style="stroke: #A80036; stroke-width: 1.0;" x1="240" x2="523.5" y1="318.2266" y2="318.2266"/><text fill="#000000" font-family="sans-serif" font-size="13" lengthAdjust="spacingAndGlyphs" textLength="100" x="252" y="313.2935">AddPortletType</text><polygon fill="#A80036" points="72,343.3594,62,347.3594,72,351.3594,68,347.3594" style="stroke: #A80036; stroke-width: 1.0;"/><line style="stroke: #A80036; stroke-width: 1.0;" x1="66" x2="219" y1="347.3594" y2="347.3594"/><text fill="#000000" font-family="sans-serif" font-size="13" lengthAdjust="spacingAndGlyphs" textLength="111" x="78" y="342.4263">"addPortletType"</text><polygon fill="#A80036" points="717.5,379.4922,727.5,383.4922,717.5,387.4922,721.5,383.4922" style="stroke: #A80036; stroke-width: 1.0;"/><line style="stroke: #A80036; stroke-width: 1.0;" x1="614.5" x2="723.5" y1="383.4922" y2="383.4922"/><text fill="#000000" font-family="sans-serif" font-size="13" lengthAdjust="spacingAndGlyphs" textLength="96" x="621.5" y="378.5591">PortalPrepared</text><polygon fill="#A80036" points="236,408.625,226,412.625,236,416.625,232,412.625" style="stroke: #A80036; stroke-width: 1.0;"/><line style="stroke: #A80036; stroke-width: 1.0;" x1="230" x2="728.5" y1="412.625" y2="412.625"/><text fill="#000000" font-family="sans-serif" font-size="13" lengthAdjust="spacingAndGlyphs" textLength="109" x="242" y="407.6919">LastPortalLayout</text><polygon fill="#A80036" points="72,437.7578,62,441.7578,72,445.7578,68,441.7578" style="stroke: #A80036; stroke-width: 1.0;"/><line style="stroke: #A80036; stroke-width: 1.0;" x1="66" x2="224" y1="441.7578" y2="441.7578"/><text fill="#000000" font-family="sans-serif" font-size="13" lengthAdjust="spacingAndGlyphs" textLength="118" x="78" y="436.8247">"lastPortalLayout"</text><rect fill="none" height="104.5313" style="stroke: #000000; stroke-width: 2.0;" width="781.5" x="13" y="456.8906"/><polygon fill="#EEEEEE" points="13,456.8906,89,456.8906,89,463.8906,79,473.8906,13,473.8906,13,456.8906" style="stroke: #000000; stroke-width: 2.0;"/><text fill="#000000" font-family="sans-serif" font-size="13" font-weight="bold" lengthAdjust="spacingAndGlyphs" textLength="31" x="28" y="469.9575">loop</text><text fill="#000000" font-family="sans-serif" font-size="11" font-weight="bold" lengthAdjust="spacingAndGlyphs" textLength="200" x="104" y="469.1011">[for all portlets to be displayed]</text><polygon fill="#A80036" points="540.5,491.0234,530.5,495.0234,540.5,499.0234,536.5,495.0234" style="stroke: #A80036; stroke-width: 1.0;"/><line style="stroke: #A80036; stroke-width: 1.0;" x1="534.5" x2="728.5" y1="495.0234" y2="495.0234"/><text fill="#000000" font-family="sans-serif" font-size="13" lengthAdjust="spacingAndGlyphs" textLength="142" x="546.5" y="490.0903">RenderPortletRequest</text><polygon fill="#A80036" points="241,520.1563,231,524.1563,241,528.1563,237,524.1563" style="stroke: #A80036; stroke-width: 1.0;"/><line style="stroke: #A80036; stroke-width: 1.0;" x1="235" x2="523.5" y1="524.1563" y2="524.1563"/><text fill="#000000" font-family="sans-serif" font-size="13" lengthAdjust="spacingAndGlyphs" textLength="89" x="247" y="519.2231">RenderPortlet</text><polygon fill="#A80036" points="72,549.2891,62,553.2891,72,557.2891,68,553.2891" style="stroke: #A80036; stroke-width: 1.0;"/><line style="stroke: #A80036; stroke-width: 1.0;" x1="66" x2="224" y1="553.2891" y2="553.2891"/><text fill="#000000" font-family="sans-serif" font-size="13" lengthAdjust="spacingAndGlyphs" textLength="97" x="78" y="548.356">"renderPortlet"</text><polygon fill="#A80036" points="241,585.4219,231,589.4219,241,593.4219,237,589.4219" style="stroke: #A80036; stroke-width: 1.0;"/><line style="stroke: #A80036; stroke-width: 1.0;" x1="235" x2="613.5" y1="589.4219" y2="589.4219"/><text fill="#000000" font-family="sans-serif" font-size="13" lengthAdjust="spacingAndGlyphs" textLength="109" x="247" y="584.4888">PortalConfigured</text><polygon fill="#A80036" points="72,614.5547,62,618.5547,72,622.5547,68,618.5547" style="stroke: #A80036; stroke-width: 1.0;"/><line style="stroke: #A80036; stroke-width: 1.0;" x1="66" x2="224" y1="618.5547" y2="618.5547"/><text fill="#000000" font-family="sans-serif" font-size="13" lengthAdjust="spacingAndGlyphs" textLength="121" x="78" y="613.6216">"portalConfigured"</text><!--
@startuml
hide footbox
 
 Browser -> Portal: "portalReady"
 activate Portal
 
 loop for all page resource providers
     Portal -> PageResourceProviderX: PortalReady
     activate PageResourceProviderX
     PageResourceProviderX -> Portal: AddPageResources
     deactivate PageResourceProviderX
     activate Portal
     Portal -> Browser: "addPageResources"
     deactivate Portal
 end
 
 loop for all portlets
     Portal -> PortletX: PortalReady
     activate PortletX
     PortletX -> Portal: AddPortletType 
     deactivate PortletX
     activate Portal
     Portal -> Browser: "addPortletType"
     deactivate Portal
 end
 
 actor Framework
 Framework -> PortalPolicy: PortalPrepared
 deactivate Portal
 activate PortalPolicy
 PortalPolicy -> Portal: LastPortalLayout
 Portal -> Browser: "lastPortalLayout"
 loop for all portlets to be displayed
     PortalPolicy -> PortletX: RenderPortletRequest
     activate PortletX
     PortletX -> Portal: RenderPortlet
     deactivate PortletX
     activate Portal
     Portal -> Browser: "renderPortlet"
     deactivate Portal
 end
 deactivate PortalPolicy
 Framework -> Portal: PortalConfigured
 activate Portal
 Portal -> Browser: "portalConfigured"
 deactivate Portal
@enduml

PlantUML version 1.2017.18(Fri Oct 06 18:56:32 CEST 2017)
(GPL source distribution)
Java Runtime: OpenJDK Runtime Environment
JVM: OpenJDK 64-Bit Server VM
Java Version: 1.8.0_151-b12
Operating System: Linux
OS Version: 4.14.11-300.fc27.x86_64
Default Encoding: UTF-8
Language: de
Country: DE
--></g></svg>