<?xml version="1.0" encoding="UTF-8" standalone="no"?><svg xmlns="http://www.w3.org/2000/svg" xmlns:xlink="http://www.w3.org/1999/xlink" contentScriptType="application/ecmascript" contentStyleType="text/css" height="390px" preserveAspectRatio="none" style="width:617px;height:390px;" version="1.1" viewBox="0 0 617 390" width="617px" zoomAndPan="magnify"><defs><filter height="300%" id="f110aufrw9t9mm" width="300%" x="-1" y="-1"><feGaussianBlur result="blurOut" stdDeviation="2.0"/><feColorMatrix in="blurOut" result="blurOut2" type="matrix" values="0 0 0 0 0 0 0 0 0 0 0 0 0 0 0 0 0 0 .4 0"/><feOffset dx="4.0" dy="4.0" in="blurOut2" result="blurOut3"/><feBlend in="SourceGraphic" in2="blurOut3" mode="normal"/></filter></defs><g><!--cluster Conceptual Portal\n(Portal Gateway)--><rect fill="#FFFFFF" filter="url(#f110aufrw9t9mm)" height="99" style="stroke: #000000; stroke-width: 2.0;" width="211" x="111" y="59"/><text fill="#000000" font-family="sans-serif" font-size="14" font-weight="bold" lengthAdjust="spacingAndGlyphs" textLength="142" x="145.5" y="73.9951">Conceptual Portal</text><text fill="#000000" font-family="sans-serif" font-size="14" font-weight="bold" lengthAdjust="spacingAndGlyphs" textLength="133" x="150" y="90.292">(Portal Gateway)</text><!--cluster ##18--><!--class Portal--><rect fill="#FEFECE" filter="url(#f110aufrw9t9mm)" height="48" id="Portal" style="stroke: #A80036; stroke-width: 1.5;" width="66" x="248" y="102"/><ellipse cx="263" cy="118" fill="#ADD1B2" rx="11" ry="11" style="stroke: #A80036; stroke-width: 1.0;"/><path d="M265.9688,123.6406 Q265.3906,123.9375 264.75,124.0859 Q264.1094,124.2344 263.4063,124.2344 Q260.9063,124.2344 259.5859,122.5859 Q258.2656,120.9375 258.2656,117.8125 Q258.2656,114.6875 259.5859,113.0313 Q260.9063,111.375 263.4063,111.375 Q264.1094,111.375 264.7578,111.5313 Q265.4063,111.6875 265.9688,111.9844 L265.9688,114.7031 Q265.3438,114.125 264.75,113.8516 Q264.1563,113.5781 263.5313,113.5781 Q262.1875,113.5781 261.5,114.6484 Q260.8125,115.7188 260.8125,117.8125 Q260.8125,119.9063 261.5,120.9766 Q262.1875,122.0469 263.5313,122.0469 Q264.1563,122.0469 264.75,121.7734 Q265.3438,121.5 265.9688,120.9219 L265.9688,123.6406 Z "/><text fill="#000000" font-family="sans-serif" font-size="12" lengthAdjust="spacingAndGlyphs" textLength="34" x="277" y="122.1543">Portal</text><line style="stroke: #A80036; stroke-width: 1.5;" x1="249" x2="313" y1="134" y2="134"/><line style="stroke: #A80036; stroke-width: 1.5;" x1="249" x2="313" y1="142" y2="142"/><!--class PortalView--><rect fill="#FEFECE" filter="url(#f110aufrw9t9mm)" height="48" id="PortalView" style="stroke: #A80036; stroke-width: 1.5;" width="94" x="119" y="102"/><ellipse cx="134" cy="118" fill="#ADD1B2" rx="11" ry="11" style="stroke: #A80036; stroke-width: 1.0;"/><path d="M136.9688,123.6406 Q136.3906,123.9375 135.75,124.0859 Q135.1094,124.2344 134.4063,124.2344 Q131.9063,124.2344 130.5859,122.5859 Q129.2656,120.9375 129.2656,117.8125 Q129.2656,114.6875 130.5859,113.0313 Q131.9063,111.375 134.4063,111.375 Q135.1094,111.375 135.7578,111.5313 Q136.4063,111.6875 136.9688,111.9844 L136.9688,114.7031 Q136.3438,114.125 135.75,113.8516 Q135.1563,113.5781 134.5313,113.5781 Q133.1875,113.5781 132.5,114.6484 Q131.8125,115.7188 131.8125,117.8125 Q131.8125,119.9063 132.5,120.9766 Q133.1875,122.0469 134.5313,122.0469 Q135.1563,122.0469 135.75,121.7734 Q136.3438,121.5 136.9688,120.9219 L136.9688,123.6406 Z "/><text fill="#000000" font-family="sans-serif" font-size="12" lengthAdjust="spacingAndGlyphs" textLength="62" x="148" y="122.1543">PortalView</text><line style="stroke: #A80036; stroke-width: 1.5;" x1="120" x2="212" y1="134" y2="134"/><line style="stroke: #A80036; stroke-width: 1.5;" x1="120" x2="212" y1="142" y2="142"/><!--class PortletB--><rect fill="#FEFECE" filter="url(#f110aufrw9t9mm)" height="48" id="PortletB" style="stroke: #A80036; stroke-width: 1.5;" width="79" x="488.5" y="102"/><ellipse cx="503.5" cy="118" fill="#ADD1B2" rx="11" ry="11" style="stroke: #A80036; stroke-width: 1.0;"/><path d="M506.4688,123.6406 Q505.8906,123.9375 505.25,124.0859 Q504.6094,124.2344 503.9063,124.2344 Q501.4063,124.2344 500.0859,122.5859 Q498.7656,120.9375 498.7656,117.8125 Q498.7656,114.6875 500.0859,113.0313 Q501.4063,111.375 503.9063,111.375 Q504.6094,111.375 505.2578,111.5313 Q505.9063,111.6875 506.4688,111.9844 L506.4688,114.7031 Q505.8438,114.125 505.25,113.8516 Q504.6563,113.5781 504.0313,113.5781 Q502.6875,113.5781 502,114.6484 Q501.3125,115.7188 501.3125,117.8125 Q501.3125,119.9063 502,120.9766 Q502.6875,122.0469 504.0313,122.0469 Q504.6563,122.0469 505.25,121.7734 Q505.8438,121.5 506.4688,120.9219 L506.4688,123.6406 Z "/><text fill="#000000" font-family="sans-serif" font-size="12" lengthAdjust="spacingAndGlyphs" textLength="47" x="517.5" y="122.1543">PortletB</text><line style="stroke: #A80036; stroke-width: 1.5;" x1="489.5" x2="566.5" y1="134" y2="134"/><line style="stroke: #A80036; stroke-width: 1.5;" x1="489.5" x2="566.5" y1="142" y2="142"/><!--class PortletA--><rect fill="#FEFECE" filter="url(#f110aufrw9t9mm)" height="48" id="PortletA" style="stroke: #A80036; stroke-width: 1.5;" width="79" x="354.5" y="102"/><ellipse cx="369.5" cy="118" fill="#ADD1B2" rx="11" ry="11" style="stroke: #A80036; stroke-width: 1.0;"/><path d="M372.4688,123.6406 Q371.8906,123.9375 371.25,124.0859 Q370.6094,124.2344 369.9063,124.2344 Q367.4063,124.2344 366.0859,122.5859 Q364.7656,120.9375 364.7656,117.8125 Q364.7656,114.6875 366.0859,113.0313 Q367.4063,111.375 369.9063,111.375 Q370.6094,111.375 371.2578,111.5313 Q371.9063,111.6875 372.4688,111.9844 L372.4688,114.7031 Q371.8438,114.125 371.25,113.8516 Q370.6563,113.5781 370.0313,113.5781 Q368.6875,113.5781 368,114.6484 Q367.3125,115.7188 367.3125,117.8125 Q367.3125,119.9063 368,120.9766 Q368.6875,122.0469 370.0313,122.0469 Q370.6563,122.0469 371.25,121.7734 Q371.8438,121.5 372.4688,120.9219 L372.4688,123.6406 Z "/><text fill="#000000" font-family="sans-serif" font-size="12" lengthAdjust="spacingAndGlyphs" textLength="47" x="383.5" y="122.1543">PortletA</text><line style="stroke: #A80036; stroke-width: 1.5;" x1="355.5" x2="432.5" y1="134" y2="134"/><line style="stroke: #A80036; stroke-width: 1.5;" x1="355.5" x2="432.5" y1="142" y2="142"/><!--class PortletAData--><rect fill="#FEFECE" filter="url(#f110aufrw9t9mm)" height="60.8047" id="PortletAData" style="stroke: #A80036; stroke-width: 1.5;" width="114" x="343" y="210"/><ellipse cx="361.15" cy="226" fill="#ADD1B2" rx="11" ry="11" style="stroke: #A80036; stroke-width: 1.0;"/><path d="M364.1188,231.6406 Q363.5406,231.9375 362.9,232.0859 Q362.2594,232.2344 361.5563,232.2344 Q359.0563,232.2344 357.7359,230.5859 Q356.4156,228.9375 356.4156,225.8125 Q356.4156,222.6875 357.7359,221.0313 Q359.0563,219.375 361.5563,219.375 Q362.2594,219.375 362.9078,219.5313 Q363.5563,219.6875 364.1188,219.9844 L364.1188,222.7031 Q363.4938,222.125 362.9,221.8516 Q362.3063,221.5781 361.6813,221.5781 Q360.3375,221.5781 359.65,222.6484 Q358.9625,223.7188 358.9625,225.8125 Q358.9625,227.9063 359.65,228.9766 Q360.3375,230.0469 361.6813,230.0469 Q362.3063,230.0469 362.9,229.7734 Q363.4938,229.5 364.1188,228.9219 L364.1188,231.6406 Z "/><text fill="#000000" font-family="sans-serif" font-size="12" lengthAdjust="spacingAndGlyphs" textLength="75" x="375.85" y="230.1543">PortletAData</text><line style="stroke: #A80036; stroke-width: 1.5;" x1="344" x2="456" y1="242" y2="242"/><rect fill="none" height="6" style="stroke: #C82930; stroke-width: 1.0;" width="6" x="351" y="250.9023"/><text fill="#000000" font-family="sans-serif" font-size="11" lengthAdjust="spacingAndGlyphs" textLength="88" x="363" y="256.2104">portletId: String</text><line style="stroke: #A80036; stroke-width: 1.5;" x1="344" x2="456" y1="262.8047" y2="262.8047"/><!--class PortletBData--><rect fill="#FEFECE" filter="url(#f110aufrw9t9mm)" height="60.8047" id="PortletBData" style="stroke: #A80036; stroke-width: 1.5;" width="114" x="492" y="210"/><ellipse cx="510.15" cy="226" fill="#ADD1B2" rx="11" ry="11" style="stroke: #A80036; stroke-width: 1.0;"/><path d="M513.1188,231.6406 Q512.5406,231.9375 511.9,232.0859 Q511.2594,232.2344 510.5563,232.2344 Q508.0563,232.2344 506.7359,230.5859 Q505.4156,228.9375 505.4156,225.8125 Q505.4156,222.6875 506.7359,221.0313 Q508.0563,219.375 510.5563,219.375 Q511.2594,219.375 511.9078,219.5313 Q512.5563,219.6875 513.1188,219.9844 L513.1188,222.7031 Q512.4938,222.125 511.9,221.8516 Q511.3063,221.5781 510.6813,221.5781 Q509.3375,221.5781 508.65,222.6484 Q507.9625,223.7188 507.9625,225.8125 Q507.9625,227.9063 508.65,228.9766 Q509.3375,230.0469 510.6813,230.0469 Q511.3063,230.0469 511.9,229.7734 Q512.4938,229.5 513.1188,228.9219 L513.1188,231.6406 Z "/><text fill="#000000" font-family="sans-serif" font-size="12" lengthAdjust="spacingAndGlyphs" textLength="75" x="524.85" y="230.1543">PortletBData</text><line style="stroke: #A80036; stroke-width: 1.5;" x1="493" x2="605" y1="242" y2="242"/><rect fill="none" height="6" style="stroke: #C82930; stroke-width: 1.0;" width="6" x="500" y="250.9023"/><text fill="#000000" font-family="sans-serif" font-size="11" lengthAdjust="spacingAndGlyphs" textLength="88" x="512" y="256.2104">portletId: String</text><line style="stroke: #A80036; stroke-width: 1.5;" x1="493" x2="605" y1="262.8047" y2="262.8047"/><!--class Session--><rect fill="#FEFECE" filter="url(#f110aufrw9t9mm)" height="48" id="Session" style="stroke: #A80036; stroke-width: 1.5;" width="77" x="435.5" y="331"/><ellipse cx="450.5" cy="347" fill="#ADD1B2" rx="11" ry="11" style="stroke: #A80036; stroke-width: 1.0;"/><path d="M453.4688,352.6406 Q452.8906,352.9375 452.25,353.0859 Q451.6094,353.2344 450.9063,353.2344 Q448.4063,353.2344 447.0859,351.5859 Q445.7656,349.9375 445.7656,346.8125 Q445.7656,343.6875 447.0859,342.0313 Q448.4063,340.375 450.9063,340.375 Q451.6094,340.375 452.2578,340.5313 Q452.9063,340.6875 453.4688,340.9844 L453.4688,343.7031 Q452.8438,343.125 452.25,342.8516 Q451.6563,342.5781 451.0313,342.5781 Q449.6875,342.5781 449,343.6484 Q448.3125,344.7188 448.3125,346.8125 Q448.3125,348.9063 449,349.9766 Q449.6875,351.0469 451.0313,351.0469 Q451.6563,351.0469 452.25,350.7734 Q452.8438,350.5 453.4688,349.9219 L453.4688,352.6406 Z "/><text fill="#000000" font-family="sans-serif" font-size="12" lengthAdjust="spacingAndGlyphs" textLength="45" x="464.5" y="351.1543">Session</text><line style="stroke: #A80036; stroke-width: 1.5;" x1="436.5" x2="511.5" y1="363" y2="363"/><line style="stroke: #A80036; stroke-width: 1.5;" x1="436.5" x2="511.5" y1="371" y2="371"/><!--entity Browser--><rect fill="#FEFECE" filter="url(#f110aufrw9t9mm)" height="36.2969" style="stroke: #A80036; stroke-width: 1.5;" width="78" x="6" y="108"/><rect fill="#FEFECE" height="5" style="stroke: #A80036; stroke-width: 1.5;" width="10" x="1" y="113"/><rect fill="#FEFECE" height="5" style="stroke: #A80036; stroke-width: 1.5;" width="10" x="1" y="134.2969"/><text fill="#000000" font-family="sans-serif" font-size="14" lengthAdjust="spacingAndGlyphs" textLength="58" x="16" y="130.9951">Browser</text><!--class PageResourceProvider--><rect fill="#FEFECE" filter="url(#f110aufrw9t9mm)" height="48" id="PageResourceProvider" style="stroke: #A80036; stroke-width: 1.5;" width="165" x="7.5" y="216.5"/><ellipse cx="22.5" cy="232.5" fill="#ADD1B2" rx="11" ry="11" style="stroke: #A80036; stroke-width: 1.0;"/><path d="M25.4688,238.1406 Q24.8906,238.4375 24.25,238.5859 Q23.6094,238.7344 22.9063,238.7344 Q20.4063,238.7344 19.0859,237.0859 Q17.7656,235.4375 17.7656,232.3125 Q17.7656,229.1875 19.0859,227.5313 Q20.4063,225.875 22.9063,225.875 Q23.6094,225.875 24.2578,226.0313 Q24.9063,226.1875 25.4688,226.4844 L25.4688,229.2031 Q24.8438,228.625 24.25,228.3516 Q23.6563,228.0781 23.0313,228.0781 Q21.6875,228.0781 21,229.1484 Q20.3125,230.2188 20.3125,232.3125 Q20.3125,234.4063 21,235.4766 Q21.6875,236.5469 23.0313,236.5469 Q23.6563,236.5469 24.25,236.2734 Q24.8438,236 25.4688,235.4219 L25.4688,238.1406 Z "/><text fill="#000000" font-family="sans-serif" font-size="12" lengthAdjust="spacingAndGlyphs" textLength="133" x="36.5" y="236.6543">PageResourceProvider</text><line style="stroke: #A80036; stroke-width: 1.5;" x1="8.5" x2="171.5" y1="248.5" y2="248.5"/><line style="stroke: #A80036; stroke-width: 1.5;" x1="8.5" x2="171.5" y1="256.5" y2="256.5"/><!--class PortalPolicy--><rect fill="#FEFECE" filter="url(#f110aufrw9t9mm)" height="48" id="PortalPolicy" style="stroke: #A80036; stroke-width: 1.5;" width="100" x="208" y="216.5"/><ellipse cx="223" cy="232.5" fill="#ADD1B2" rx="11" ry="11" style="stroke: #A80036; stroke-width: 1.0;"/><path d="M225.9688,238.1406 Q225.3906,238.4375 224.75,238.5859 Q224.1094,238.7344 223.4063,238.7344 Q220.9063,238.7344 219.5859,237.0859 Q218.2656,235.4375 218.2656,232.3125 Q218.2656,229.1875 219.5859,227.5313 Q220.9063,225.875 223.4063,225.875 Q224.1094,225.875 224.7578,226.0313 Q225.4063,226.1875 225.9688,226.4844 L225.9688,229.2031 Q225.3438,228.625 224.75,228.3516 Q224.1563,228.0781 223.5313,228.0781 Q222.1875,228.0781 221.5,229.1484 Q220.8125,230.2188 220.8125,232.3125 Q220.8125,234.4063 221.5,235.4766 Q222.1875,236.5469 223.5313,236.5469 Q224.1563,236.5469 224.75,236.2734 Q225.3438,236 225.9688,235.4219 L225.9688,238.1406 Z "/><text fill="#000000" font-family="sans-serif" font-size="12" lengthAdjust="spacingAndGlyphs" textLength="68" x="237" y="236.6543">PortalPolicy</text><line style="stroke: #A80036; stroke-width: 1.5;" x1="209" x2="307" y1="248.5" y2="248.5"/><line style="stroke: #A80036; stroke-width: 1.5;" x1="209" x2="307" y1="256.5" y2="256.5"/><!--link PortalView to Portal--><path d="M213.168,126 C224.7383,126 236.3086,126 247.8789,126 " fill="none" id="PortalView-Portal" style="stroke: #A80036; stroke-width: 1.0;"/><text fill="#000000" font-family="sans-serif" font-size="13" lengthAdjust="spacingAndGlyphs" textLength="8" x="221.0031" y="121.9286">1</text><text fill="#000000" font-family="sans-serif" font-size="13" lengthAdjust="spacingAndGlyphs" textLength="8" x="232.2227" y="121.5337">1</text><!--link Browser to PortalView--><path d="M84.2305,126 C95.7293,126 107.2281,126 118.727,126 " fill="none" id="Browser-PortalView" style="stroke: #A80036; stroke-width: 1.0;"/><text fill="#000000" font-family="sans-serif" font-size="13" lengthAdjust="spacingAndGlyphs" textLength="7" x="92.1089" y="121.669">*</text><text fill="#000000" font-family="sans-serif" font-size="13" lengthAdjust="spacingAndGlyphs" textLength="7" x="103.9524" y="121.9286">*</text><!--link Portal to PortletB--><path d="M289.4594,101.8584 C298.2059,81.0024 314.08,52.2004 338.6667,39 C378.0854,17.8363 397.9175,22.0747 439.3333,39 C470.2766,51.6455 496.254,80.8716 511.9354,101.9645 " fill="none" id="Portal-PortletB" style="stroke: #A80036; stroke-width: 1.0;"/><text fill="#000000" font-family="sans-serif" font-size="13" lengthAdjust="spacingAndGlyphs" textLength="8" x="292.6521" y="90.8342">1</text><text fill="#000000" font-family="sans-serif" font-size="13" lengthAdjust="spacingAndGlyphs" textLength="8" x="501.2616" y="90.8294">1</text><!--link Portal to PortletA--><path d="M314.1055,140.9139 C327.5253,144.4544 340.945,144.9485 354.3648,142.3962 " fill="none" id="Portal-PortletA" style="stroke: #A80036; stroke-width: 1.0;"/><text fill="#000000" font-family="sans-serif" font-size="13" lengthAdjust="spacingAndGlyphs" textLength="8" x="322.2223" y="139.6171">1</text><text fill="#000000" font-family="sans-serif" font-size="13" lengthAdjust="spacingAndGlyphs" textLength="8" x="338.5923" y="102.426">1</text><!--link PortletA to PortletAData--><path d="M395.2578,150.003 C396.1719,167.4463 397.4161,191.1912 398.4008,209.9818 " fill="none" id="PortletA-PortletAData" style="stroke: #A80036; stroke-width: 1.0;"/><text fill="#000000" font-family="sans-serif" font-size="13" lengthAdjust="spacingAndGlyphs" textLength="8" x="386.5551" y="170.1596">1</text><text fill="#000000" font-family="sans-serif" font-size="13" lengthAdjust="spacingAndGlyphs" textLength="7" x="390.2854" y="198.7681">*</text><!--link PortletB to PortletBData--><path d="M532.4023,150.003 C535.6015,167.4463 539.9565,191.1912 543.4028,209.9818 " fill="none" id="PortletB-PortletBData" style="stroke: #A80036; stroke-width: 1.0;"/><text fill="#000000" font-family="sans-serif" font-size="13" lengthAdjust="spacingAndGlyphs" textLength="8" x="524.5054" y="170.1596">1</text><text fill="#000000" font-family="sans-serif" font-size="13" lengthAdjust="spacingAndGlyphs" textLength="7" x="534.4128" y="198.7681">*</text><!--link PortletAData to Session--><path d="M419.8306,271.1839 C429.4513,286.0699 441.0618,304.0349 451.0623,319.5085 " fill="none" id="PortletAData-Session" style="stroke: #A80036; stroke-width: 1.0;"/><polygon fill="#A80036" points="458.3362,330.7634,458.4389,323.553,451.8226,320.685,451.72,327.8954,458.3362,330.7634" style="stroke: #A80036; stroke-width: 1.0;"/><text fill="#000000" font-family="sans-serif" font-size="13" lengthAdjust="spacingAndGlyphs" textLength="7" x="416.0457" y="290.8005">*</text><text fill="#000000" font-family="sans-serif" font-size="13" lengthAdjust="spacingAndGlyphs" textLength="8" x="445.5431" y="320.1107">1</text><!--link PortletBData to Session--><path d="M528.9014,271.1839 C519.1507,286.0699 507.3833,304.0349 497.2477,319.5085 " fill="none" id="PortletBData-Session" style="stroke: #A80036; stroke-width: 1.0;"/><polygon fill="#A80036" points="489.8755,330.7634,496.5092,327.9361,496.4508,320.7252,489.8171,323.5525,489.8755,330.7634" style="stroke: #A80036; stroke-width: 1.0;"/><text fill="#000000" font-family="sans-serif" font-size="13" lengthAdjust="spacingAndGlyphs" textLength="7" x="517.2554" y="290.8005">*</text><text fill="#000000" font-family="sans-serif" font-size="13" lengthAdjust="spacingAndGlyphs" textLength="8" x="484.7702" y="320.1107">1</text><!--link Portal to PageResourceProvider--><path d="M247.7665,147.5303 C242.1923,151.0664 236.4496,154.6636 231,158 C198.1037,178.1397 160.3658,200.1647 132.2147,216.3878 " fill="none" id="Portal-PageResourceProvider" style="stroke: #A80036; stroke-width: 1.0;"/><text fill="#000000" font-family="sans-serif" font-size="13" lengthAdjust="spacingAndGlyphs" textLength="8" x="232.0871" y="147.5046">1</text><text fill="#000000" font-family="sans-serif" font-size="13" lengthAdjust="spacingAndGlyphs" textLength="7" x="135.1353" y="205.3711">*</text><!--link Portal to PortalPolicy--><path d="M276.1784,150.003 C272.2794,169.4135 266.8129,196.6273 262.8944,216.1343 " fill="none" id="Portal-PortalPolicy" style="stroke: #A80036; stroke-width: 1.0;"/><text fill="#000000" font-family="sans-serif" font-size="13" lengthAdjust="spacingAndGlyphs" textLength="8" x="265.9179" y="170.1596">1</text><text fill="#000000" font-family="sans-serif" font-size="13" lengthAdjust="spacingAndGlyphs" textLength="7" x="256.2343" y="205.4501">*</text><!--
@startuml
skinparam packageStyle rectangle
 allow_mixing
 
 component Browser
 
 package "Conceptual Portal\n(Portal Gateway)" {
    class Portal
 	  class PortalView
 
    Portal "1" -left- "1" PortalView
 }
 
 PortalView "*" -left- "*" Browser
 
 together {
 
   Portal "1" -right- "1" PortletB
   Portal "1" -right- "1" PortletA
 
   class PortletAData {
     -portletId: String
   }
 
   PortletAData "*" -up- "1" PortletA
 
   class PortletBData {
     -portletId: String
   }
 
   PortletBData "*" -up- "1" PortletB
   
   PortletAData "*" -up-* "1" Session
   PortletBData "*" -up-* "1" Session
 }
 
 Portal "1" -down- "*" PageResourceProvider
 Portal "1" -down- "*" PortalPolicy
@enduml

PlantUML version 1.2017.18(Fri Oct 06 18:56:32 CEST 2017)
(GPL source distribution)
Java Runtime: OpenJDK Runtime Environment
JVM: OpenJDK 64-Bit Server VM
Java Version: 1.8.0_151-b12
Operating System: Linux
OS Version: 4.14.11-300.fc27.x86_64
Default Encoding: UTF-8
Language: de
Country: DE
--></g></svg>