<?xml version="1.0" encoding="UTF-8" standalone="no"?><svg xmlns="http://www.w3.org/2000/svg" xmlns:xlink="http://www.w3.org/1999/xlink" contentScriptType="application/ecmascript" contentStyleType="text/css" height="511px" preserveAspectRatio="none" style="width:710px;height:511px;" version="1.1" viewBox="0 0 710 511" width="710px" zoomAndPan="magnify"><defs><filter height="300%" id="f18559th2wi8fb" width="300%" x="-1" y="-1"><feGaussianBlur result="blurOut" stdDeviation="2.0"/><feColorMatrix in="blurOut" result="blurOut2" type="matrix" values="0 0 0 0 0 0 0 0 0 0 0 0 0 0 0 0 0 0 .4 0"/><feOffset dx="4.0" dy="4.0" in="blurOut2" result="blurOut3"/><feBlend in="SourceGraphic" in2="blurOut3" mode="normal"/></filter></defs><g><rect fill="#FFFFFF" filter="url(#f18559th2wi8fb)" height="214.0625" style="stroke: #A80036; stroke-width: 1.0;" width="10" x="55.5" y="98.4297"/><rect fill="#FFFFFF" filter="url(#f18559th2wi8fb)" height="29.1328" style="stroke: #A80036; stroke-width: 1.0;" width="10" x="292.5" y="69.2969"/><rect fill="#FFFFFF" filter="url(#f18559th2wi8fb)" height="29.1328" style="stroke: #A80036; stroke-width: 1.0;" width="10" x="292.5" y="127.5625"/><rect fill="#FFFFFF" filter="url(#f18559th2wi8fb)" height="29.1328" style="stroke: #A80036; stroke-width: 1.0;" width="10" x="292.5" y="185.8281"/><rect fill="#FFFFFF" filter="url(#f18559th2wi8fb)" height="89.3984" style="stroke: #A80036; stroke-width: 1.0;" width="10" x="292.5" y="244.0938"/><rect fill="#FFFFFF" filter="url(#f18559th2wi8fb)" height="68.3984" style="stroke: #A80036; stroke-width: 1.0;" width="10" x="292.5" y="420.8906"/><rect fill="#FFFFFF" filter="url(#f18559th2wi8fb)" height="29.1328" style="stroke: #A80036; stroke-width: 1.0;" width="10" x="514.5" y="333.4922"/><rect fill="#FFFFFF" filter="url(#f18559th2wi8fb)" height="29.1328" style="stroke: #A80036; stroke-width: 1.0;" width="10" x="514.5" y="391.7578"/><rect fill="#FFFFFF" filter="url(#f18559th2wi8fb)" height="29.1328" style="stroke: #A80036; stroke-width: 1.0;" width="10" x="650.5" y="362.625"/><rect fill="#FFFFFF" filter="url(#f18559th2wi8fb)" height="46.2656" style="stroke: #000000; stroke-width: 2.0;" width="339" x="13" y="259.2266"/><rect fill="#FFFFFF" filter="url(#f18559th2wi8fb)" height="46.2656" style="stroke: #000000; stroke-width: 2.0;" width="339" x="13" y="436.0234"/><line style="stroke: #A80036; stroke-width: 1.0; stroke-dasharray: 5.0,5.0;" x1="60" x2="60" y1="38.2969" y2="499.2891"/><line style="stroke: #A80036; stroke-width: 1.0; stroke-dasharray: 5.0,5.0;" x1="297" x2="297" y1="38.2969" y2="499.2891"/><line style="stroke: #A80036; stroke-width: 1.0; stroke-dasharray: 5.0,5.0;" x1="519" x2="519" y1="38.2969" y2="499.2891"/><line style="stroke: #A80036; stroke-width: 1.0; stroke-dasharray: 5.0,5.0;" x1="655.5" x2="655.5" y1="38.2969" y2="499.2891"/><rect fill="#FEFECE" filter="url(#f18559th2wi8fb)" height="30.2969" style="stroke: #A80036; stroke-width: 1.5;" width="71" x="23" y="3"/><text fill="#000000" font-family="sans-serif" font-size="14" lengthAdjust="spacingAndGlyphs" textLength="57" x="30" y="22.9951">Browser</text><rect fill="#FEFECE" filter="url(#f18559th2wi8fb)" height="30.2969" style="stroke: #A80036; stroke-width: 1.5;" width="85" x="253" y="3"/><text fill="#000000" font-family="sans-serif" font-size="14" lengthAdjust="spacingAndGlyphs" textLength="71" x="260" y="22.9951">PortalView</text><rect fill="#FEFECE" filter="url(#f18559th2wi8fb)" height="30.2969" style="stroke: #A80036; stroke-width: 1.5;" width="53" x="491" y="3"/><text fill="#000000" font-family="sans-serif" font-size="14" lengthAdjust="spacingAndGlyphs" textLength="39" x="498" y="22.9951">Portal</text><rect fill="#FEFECE" filter="url(#f18559th2wi8fb)" height="30.2969" style="stroke: #A80036; stroke-width: 1.5;" width="92" x="607.5" y="3"/><text fill="#000000" font-family="sans-serif" font-size="14" lengthAdjust="spacingAndGlyphs" textLength="78" x="614.5" y="22.9951">PortalPolicy</text><rect fill="#FFFFFF" filter="url(#f18559th2wi8fb)" height="214.0625" style="stroke: #A80036; stroke-width: 1.0;" width="10" x="55.5" y="98.4297"/><rect fill="#FFFFFF" filter="url(#f18559th2wi8fb)" height="29.1328" style="stroke: #A80036; stroke-width: 1.0;" width="10" x="292.5" y="69.2969"/><rect fill="#FFFFFF" filter="url(#f18559th2wi8fb)" height="29.1328" style="stroke: #A80036; stroke-width: 1.0;" width="10" x="292.5" y="127.5625"/><rect fill="#FFFFFF" filter="url(#f18559th2wi8fb)" height="29.1328" style="stroke: #A80036; stroke-width: 1.0;" width="10" x="292.5" y="185.8281"/><rect fill="#FFFFFF" filter="url(#f18559th2wi8fb)" height="89.3984" style="stroke: #A80036; stroke-width: 1.0;" width="10" x="292.5" y="244.0938"/><rect fill="#FFFFFF" filter="url(#f18559th2wi8fb)" height="68.3984" style="stroke: #A80036; stroke-width: 1.0;" width="10" x="292.5" y="420.8906"/><rect fill="#FFFFFF" filter="url(#f18559th2wi8fb)" height="29.1328" style="stroke: #A80036; stroke-width: 1.0;" width="10" x="514.5" y="333.4922"/><rect fill="#FFFFFF" filter="url(#f18559th2wi8fb)" height="29.1328" style="stroke: #A80036; stroke-width: 1.0;" width="10" x="514.5" y="391.7578"/><rect fill="#FFFFFF" filter="url(#f18559th2wi8fb)" height="29.1328" style="stroke: #A80036; stroke-width: 1.0;" width="10" x="650.5" y="362.625"/><polygon fill="#A80036" points="280.5,65.2969,290.5,69.2969,280.5,73.2969,284.5,69.2969" style="stroke: #A80036; stroke-width: 1.0;"/><line style="stroke: #A80036; stroke-width: 1.0;" x1="60.5" x2="286.5" y1="69.2969" y2="69.2969"/><text fill="#000000" font-family="sans-serif" font-size="13" lengthAdjust="spacingAndGlyphs" textLength="127" x="67.5" y="64.3638">"GET &lt;portal URL&gt;"</text><polygon fill="#A80036" points="76.5,94.4297,66.5,98.4297,76.5,102.4297,72.5,98.4297" style="stroke: #A80036; stroke-width: 1.0;"/><line style="stroke: #A80036; stroke-width: 1.0;" x1="70.5" x2="296.5" y1="98.4297" y2="98.4297"/><text fill="#000000" font-family="sans-serif" font-size="13" lengthAdjust="spacingAndGlyphs" textLength="114" x="82.5" y="93.4966">"HTML document"</text><polygon fill="#A80036" points="280.5,123.5625,290.5,127.5625,280.5,131.5625,284.5,127.5625" style="stroke: #A80036; stroke-width: 1.0;"/><line style="stroke: #A80036; stroke-width: 1.0;" x1="65.5" x2="286.5" y1="127.5625" y2="127.5625"/><text fill="#000000" font-family="sans-serif" font-size="13" lengthAdjust="spacingAndGlyphs" textLength="154" x="72.5" y="122.6294">"GET &lt;resource1 URL&gt;"</text><polygon fill="#A80036" points="76.5,152.6953,66.5,156.6953,76.5,160.6953,72.5,156.6953" style="stroke: #A80036; stroke-width: 1.0;"/><line style="stroke: #A80036; stroke-width: 1.0;" x1="70.5" x2="296.5" y1="156.6953" y2="156.6953"/><text fill="#000000" font-family="sans-serif" font-size="13" lengthAdjust="spacingAndGlyphs" textLength="59" x="82.5" y="151.7622">Resource</text><polygon fill="#A80036" points="280.5,181.8281,290.5,185.8281,280.5,189.8281,284.5,185.8281" style="stroke: #A80036; stroke-width: 1.0;"/><line style="stroke: #A80036; stroke-width: 1.0;" x1="65.5" x2="286.5" y1="185.8281" y2="185.8281"/><text fill="#000000" font-family="sans-serif" font-size="13" lengthAdjust="spacingAndGlyphs" textLength="154" x="72.5" y="180.895">"GET &lt;resource2 URL&gt;"</text><polygon fill="#A80036" points="76.5,210.9609,66.5,214.9609,76.5,218.9609,72.5,214.9609" style="stroke: #A80036; stroke-width: 1.0;"/><line style="stroke: #A80036; stroke-width: 1.0;" x1="70.5" x2="296.5" y1="214.9609" y2="214.9609"/><text fill="#000000" font-family="sans-serif" font-size="13" lengthAdjust="spacingAndGlyphs" textLength="59" x="82.5" y="210.0278">Resource</text><polygon fill="#A80036" points="280.5,240.0938,290.5,244.0938,280.5,248.0938,284.5,244.0938" style="stroke: #A80036; stroke-width: 1.0;"/><line style="stroke: #A80036; stroke-width: 1.0;" x1="65.5" x2="286.5" y1="244.0938" y2="244.0938"/><text fill="#000000" font-family="sans-serif" font-size="13" lengthAdjust="spacingAndGlyphs" textLength="208" x="72.5" y="239.1606">"GET &lt;Upgrade to WebSocket&gt;"</text><rect fill="none" height="46.2656" style="stroke: #000000; stroke-width: 2.0;" width="339" x="13" y="259.2266"/><polygon fill="#EEEEEE" points="13,259.2266,90,259.2266,90,266.2266,80,276.2266,13,276.2266,13,259.2266" style="stroke: #000000; stroke-width: 2.0;"/><text fill="#000000" font-family="sans-serif" font-size="13" font-weight="bold" lengthAdjust="spacingAndGlyphs" textLength="32" x="28" y="272.2935">loop</text><text fill="#000000" font-family="sans-serif" font-size="11" font-weight="bold" lengthAdjust="spacingAndGlyphs" textLength="131" x="105" y="271.437">[while request data]</text><polygon fill="#A80036" points="280.5,293.3594,290.5,297.3594,280.5,301.3594,284.5,297.3594" style="stroke: #A80036; stroke-width: 1.0;"/><line style="stroke: #A80036; stroke-width: 1.0;" x1="65.5" x2="286.5" y1="297.3594" y2="297.3594"/><text fill="#000000" font-family="sans-serif" font-size="13" lengthAdjust="spacingAndGlyphs" textLength="107" x="72.5" y="292.4263">Input (JSON RPC)</text><polygon fill="#A80036" points="502.5,329.4922,512.5,333.4922,502.5,337.4922,506.5,333.4922" style="stroke: #A80036; stroke-width: 1.0;"/><line style="stroke: #A80036; stroke-width: 1.0;" x1="297.5" x2="508.5" y1="333.4922" y2="333.4922"/><text fill="#000000" font-family="sans-serif" font-size="13" lengthAdjust="spacingAndGlyphs" textLength="154" x="304.5" y="328.5591">JsonInput("portalReady")</text><polygon fill="#A80036" points="638.5,358.625,648.5,362.625,638.5,366.625,642.5,362.625" style="stroke: #A80036; stroke-width: 1.0;"/><line style="stroke: #A80036; stroke-width: 1.0;" x1="519.5" x2="644.5" y1="362.625" y2="362.625"/><text fill="#000000" font-family="sans-serif" font-size="13" lengthAdjust="spacingAndGlyphs" textLength="76" x="526.5" y="357.6919">PortalReady</text><polygon fill="#A80036" points="535.5,387.7578,525.5,391.7578,535.5,395.7578,531.5,391.7578" style="stroke: #A80036; stroke-width: 1.0;"/><line style="stroke: #A80036; stroke-width: 1.0;" x1="529.5" x2="654.5" y1="391.7578" y2="391.7578"/><text fill="#000000" font-family="sans-serif" font-size="13" lengthAdjust="spacingAndGlyphs" textLength="107" x="541.5" y="386.8247">LastPortalLayout</text><polygon fill="#A80036" points="313.5,416.8906,303.5,420.8906,313.5,424.8906,309.5,420.8906" style="stroke: #A80036; stroke-width: 1.0;"/><line style="stroke: #A80036; stroke-width: 1.0;" x1="307.5" x2="518.5" y1="420.8906" y2="420.8906"/><text fill="#000000" font-family="sans-serif" font-size="13" lengthAdjust="spacingAndGlyphs" textLength="193" x="319.5" y="415.9575">JsonOutput("lastPortalLayout")</text><rect fill="none" height="46.2656" style="stroke: #000000; stroke-width: 2.0;" width="339" x="13" y="436.0234"/><polygon fill="#EEEEEE" points="13,436.0234,90,436.0234,90,443.0234,80,453.0234,13,453.0234,13,436.0234" style="stroke: #000000; stroke-width: 2.0;"/><text fill="#000000" font-family="sans-serif" font-size="13" font-weight="bold" lengthAdjust="spacingAndGlyphs" textLength="32" x="28" y="449.0903">loop</text><text fill="#000000" font-family="sans-serif" font-size="11" font-weight="bold" lengthAdjust="spacingAndGlyphs" textLength="131" x="105" y="448.2339">[while request data]</text><polygon fill="#A80036" points="71.5,470.1563,61.5,474.1563,71.5,478.1563,67.5,474.1563" style="stroke: #A80036; stroke-width: 1.0;"/><line style="stroke: #A80036; stroke-width: 1.0;" x1="65.5" x2="291.5" y1="474.1563" y2="474.1563"/><text fill="#000000" font-family="sans-serif" font-size="13" lengthAdjust="spacingAndGlyphs" textLength="119" x="77.5" y="469.2231">Output (JSON RPC)</text><!--
@startuml
hide footbox
 
 Browser -> PortalView: "GET <portal URL>"
 activate PortalView
 PortalView -> Browser: "HTML document"
 deactivate PortalView
 activate Browser
 Browser -> PortalView: "GET <resource1 URL>"
 activate PortalView
 PortalView -> Browser: Resource
 deactivate PortalView
 Browser -> PortalView: "GET <resource2 URL>"
 activate PortalView
 PortalView -> Browser: Resource
 deactivate PortalView
 Browser -> PortalView: "GET <Upgrade to WebSocket>"
 activate PortalView
 loop while request data
     Browser -> PortalView: Input (JSON RPC)
 end
 deactivate Browser
 PortalView -> Portal: JsonInput("portalReady")
 deactivate PortalView
 activate Portal
 Portal -> PortalPolicy: PortalReady
 deactivate Portal
 activate PortalPolicy
 PortalPolicy -> Portal: LastPortalLayout
 deactivate PortalPolicy
 activate Portal
 Portal -> PortalView: JsonOutput("lastPortalLayout")
 deactivate Portal
 activate PortalView
 loop while request data
     PortalView -> Browser: Output (JSON RPC)
 end
 deactivate PortalView
@enduml

PlantUML version 1.2017.18(Fri Oct 06 16:56:32 UTC 2017)
(GPL source distribution)
Java Runtime: Java(TM) SE Runtime Environment
JVM: Java HotSpot(TM) 64-Bit Server VM
Java Version: 1.8.0_151-b12
Operating System: Linux
OS Version: 4.14.12-041412-generic
Default Encoding: UTF-8
Language: en
Country: US
--></g></svg>