<?xml version="1.0" encoding="UTF-8" standalone="no"?><svg xmlns="http://www.w3.org/2000/svg" xmlns:xlink="http://www.w3.org/1999/xlink" contentScriptType="application/ecmascript" contentStyleType="text/css" height="679px" preserveAspectRatio="none" style="width:783px;height:679px;" version="1.1" viewBox="0 0 783 679" width="783px" zoomAndPan="magnify"><defs><filter height="300%" id="f159ytufv06h1p" width="300%" x="-1" y="-1"><feGaussianBlur result="blurOut" stdDeviation="2.0"/><feColorMatrix in="blurOut" result="blurOut2" type="matrix" values="0 0 0 0 0 0 0 0 0 0 0 0 0 0 0 0 0 0 .4 0"/><feOffset dx="4.0" dy="4.0" in="blurOut2" result="blurOut3"/><feBlend in="SourceGraphic" in2="blurOut3" mode="normal"/></filter></defs><g><rect fill="#FFFFFF" filter="url(#f159ytufv06h1p)" height="297.2646" style="stroke: #A80036; stroke-width: 1.0;" width="10" x="219.5" y="117.29"/><rect fill="#FFFFFF" filter="url(#f159ytufv06h1p)" height="29.1265" style="stroke: #A80036; stroke-width: 1.0;" width="10" x="224.5" y="223.7959"/><rect fill="#FFFFFF" filter="url(#f159ytufv06h1p)" height="29.1265" style="stroke: #A80036; stroke-width: 1.0;" width="10" x="224.5" y="342.3018"/><rect fill="#FFFFFF" filter="url(#f159ytufv06h1p)" height="29.1265" style="stroke: #A80036; stroke-width: 1.0;" width="10" x="219.5" y="555.187"/><rect fill="#FFFFFF" filter="url(#f159ytufv06h1p)" height="29.1265" style="stroke: #A80036; stroke-width: 1.0;" width="10" x="219.5" y="620.4399"/><rect fill="#FFFFFF" filter="url(#f159ytufv06h1p)" height="29.1265" style="stroke: #A80036; stroke-width: 1.0;" width="10" x="371.5" y="194.6694"/><rect fill="#FFFFFF" filter="url(#f159ytufv06h1p)" height="29.1265" style="stroke: #A80036; stroke-width: 1.0;" width="10" x="507.5" y="313.1753"/><rect fill="#FFFFFF" filter="url(#f159ytufv06h1p)" height="29.1265" style="stroke: #A80036; stroke-width: 1.0;" width="10" x="507.5" y="526.0605"/><rect fill="#FFFFFF" filter="url(#f159ytufv06h1p)" height="184.8853" style="stroke: #A80036; stroke-width: 1.0;" width="10" x="709" y="414.5547"/><rect fill="#FFFFFF" filter="url(#f159ytufv06h1p)" height="254.1382" style="stroke: #000000; stroke-width: 2.0;" width="555.5" x="13" y="132.4165"/><rect fill="#FFFFFF" filter="url(#f159ytufv06h1p)" height="104.5059" style="stroke: #000000; stroke-width: 2.0;" width="453.5" x="23" y="156.543"/><rect fill="#FFFFFF" filter="url(#f159ytufv06h1p)" height="104.5059" style="stroke: #000000; stroke-width: 2.0;" width="535.5" x="23" y="275.0488"/><rect fill="#FFFFFF" filter="url(#f159ytufv06h1p)" height="104.5059" style="stroke: #000000; stroke-width: 2.0;" width="749.5" x="23" y="487.9341"/><line style="stroke: #A80036; stroke-width: 1.0; stroke-dasharray: 5.0,5.0;" x1="69" x2="69" y1="86.29" y2="667.6929"/><line style="stroke: #A80036; stroke-width: 1.0; stroke-dasharray: 5.0,5.0;" x1="224.5" x2="224.5" y1="86.29" y2="667.6929"/><line style="stroke: #A80036; stroke-width: 1.0; stroke-dasharray: 5.0,5.0;" x1="376.5" x2="376.5" y1="86.29" y2="667.6929"/><line style="stroke: #A80036; stroke-width: 1.0; stroke-dasharray: 5.0,5.0;" x1="512.5" x2="512.5" y1="86.29" y2="667.6929"/><line style="stroke: #A80036; stroke-width: 1.0; stroke-dasharray: 5.0,5.0;" x1="599.5" x2="599.5" y1="86.29" y2="667.6929"/><line style="stroke: #A80036; stroke-width: 1.0; stroke-dasharray: 5.0,5.0;" x1="713.5" x2="713.5" y1="86.29" y2="667.6929"/><rect fill="#FEFECE" filter="url(#f159ytufv06h1p)" height="30.29" style="stroke: #A80036; stroke-width: 1.5;" width="69" x="33" y="51"/><text fill="#000000" font-family="sans-serif" font-size="14" lengthAdjust="spacingAndGlyphs" textLength="55" x="40" y="71.3027">Browser</text><rect fill="#FEFECE" filter="url(#f159ytufv06h1p)" height="30.29" style="stroke: #A80036; stroke-width: 1.5;" width="54" x="195.5" y="51"/><text fill="#000000" font-family="sans-serif" font-size="14" lengthAdjust="spacingAndGlyphs" textLength="40" x="202.5" y="71.3027">Portal</text><rect fill="#FEFECE" filter="url(#f159ytufv06h1p)" height="30.29" style="stroke: #A80036; stroke-width: 1.5;" width="176" x="286.5" y="51"/><text fill="#000000" font-family="sans-serif" font-size="14" lengthAdjust="spacingAndGlyphs" textLength="162" x="293.5" y="71.3027">PageResourceProviderX</text><rect fill="#FEFECE" filter="url(#f159ytufv06h1p)" height="30.29" style="stroke: #A80036; stroke-width: 1.5;" width="68" x="476.5" y="51"/><text fill="#000000" font-family="sans-serif" font-size="14" lengthAdjust="spacingAndGlyphs" textLength="54" x="483.5" y="71.3027">PortletX</text><text fill="#000000" font-family="sans-serif" font-size="14" lengthAdjust="spacingAndGlyphs" textLength="77" x="558.5" y="83.3027">Framework</text><ellipse cx="600" cy="13" fill="#FEFECE" filter="url(#f159ytufv06h1p)" rx="8" ry="8" style="stroke: #A80036; stroke-width: 2.0;"/><path d="M600,21 L600,48 M587,29 L613,29 M600,48 L587,63 M600,48 L613,63 " fill="#FEFECE" filter="url(#f159ytufv06h1p)" style="stroke: #A80036; stroke-width: 2.0;"/><rect fill="#FEFECE" filter="url(#f159ytufv06h1p)" height="30.29" style="stroke: #A80036; stroke-width: 1.5;" width="93" x="665.5" y="51"/><text fill="#000000" font-family="sans-serif" font-size="14" lengthAdjust="spacingAndGlyphs" textLength="79" x="672.5" y="71.3027">PortalPolicy</text><rect fill="#FFFFFF" filter="url(#f159ytufv06h1p)" height="297.2646" style="stroke: #A80036; stroke-width: 1.0;" width="10" x="219.5" y="117.29"/><rect fill="#FFFFFF" filter="url(#f159ytufv06h1p)" height="29.1265" style="stroke: #A80036; stroke-width: 1.0;" width="10" x="224.5" y="223.7959"/><rect fill="#FFFFFF" filter="url(#f159ytufv06h1p)" height="29.1265" style="stroke: #A80036; stroke-width: 1.0;" width="10" x="224.5" y="342.3018"/><rect fill="#FFFFFF" filter="url(#f159ytufv06h1p)" height="29.1265" style="stroke: #A80036; stroke-width: 1.0;" width="10" x="219.5" y="555.187"/><rect fill="#FFFFFF" filter="url(#f159ytufv06h1p)" height="29.1265" style="stroke: #A80036; stroke-width: 1.0;" width="10" x="219.5" y="620.4399"/><rect fill="#FFFFFF" filter="url(#f159ytufv06h1p)" height="29.1265" style="stroke: #A80036; stroke-width: 1.0;" width="10" x="371.5" y="194.6694"/><rect fill="#FFFFFF" filter="url(#f159ytufv06h1p)" height="29.1265" style="stroke: #A80036; stroke-width: 1.0;" width="10" x="507.5" y="313.1753"/><rect fill="#FFFFFF" filter="url(#f159ytufv06h1p)" height="29.1265" style="stroke: #A80036; stroke-width: 1.0;" width="10" x="507.5" y="526.0605"/><rect fill="#FFFFFF" filter="url(#f159ytufv06h1p)" height="184.8853" style="stroke: #A80036; stroke-width: 1.0;" width="10" x="709" y="414.5547"/><polygon fill="#A80036" points="207.5,113.29,217.5,117.29,207.5,121.29,211.5,117.29" style="stroke: #A80036; stroke-width: 1.0;"/><line style="stroke: #A80036; stroke-width: 1.0;" x1="69.5" x2="213.5" y1="117.29" y2="117.29"/><text fill="#000000" font-family="sans-serif" font-size="13" lengthAdjust="spacingAndGlyphs" textLength="84" x="76.5" y="112.6426">"portalReady"</text><rect fill="none" height="254.1382" style="stroke: #000000; stroke-width: 2.0;" width="555.5" x="13" y="132.4165"/><polygon fill="#EEEEEE" points="13,132.4165,81,132.4165,81,139.4165,71,149.4165,13,149.4165,13,132.4165" style="stroke: #000000; stroke-width: 2.0;"/><text fill="#000000" font-family="sans-serif" font-size="13" font-weight="bold" lengthAdjust="spacingAndGlyphs" textLength="23" x="28" y="145.769">par</text><rect fill="none" height="104.5059" style="stroke: #000000; stroke-width: 2.0;" width="453.5" x="23" y="156.543"/><polygon fill="#EEEEEE" points="23,156.543,100,156.543,100,163.543,90,173.543,23,173.543,23,156.543" style="stroke: #000000; stroke-width: 2.0;"/><text fill="#000000" font-family="sans-serif" font-size="13" font-weight="bold" lengthAdjust="spacingAndGlyphs" textLength="32" x="38" y="169.8955">loop</text><text fill="#000000" font-family="sans-serif" font-size="11" font-weight="bold" lengthAdjust="spacingAndGlyphs" textLength="207" x="115" y="168.9951">[for all page resource providers]</text><polygon fill="#A80036" points="359.5,190.6694,369.5,194.6694,359.5,198.6694,363.5,194.6694" style="stroke: #A80036; stroke-width: 1.0;"/><line style="stroke: #A80036; stroke-width: 1.0;" x1="229.5" x2="365.5" y1="194.6694" y2="194.6694"/><text fill="#000000" font-family="sans-serif" font-size="13" lengthAdjust="spacingAndGlyphs" textLength="73" x="236.5" y="190.022">PortalReady</text><polygon fill="#A80036" points="245.5,219.7959,235.5,223.7959,245.5,227.7959,241.5,223.7959" style="stroke: #A80036; stroke-width: 1.0;"/><line style="stroke: #A80036; stroke-width: 1.0;" x1="239.5" x2="375.5" y1="223.7959" y2="223.7959"/><text fill="#000000" font-family="sans-serif" font-size="13" lengthAdjust="spacingAndGlyphs" textLength="118" x="251.5" y="219.1484">AddPageResources</text><polygon fill="#A80036" points="80.5,248.9224,70.5,252.9224,80.5,256.9224,76.5,252.9224" style="stroke: #A80036; stroke-width: 1.0;"/><line style="stroke: #A80036; stroke-width: 1.0;" x1="74.5" x2="218.5" y1="252.9224" y2="252.9224"/><text fill="#000000" font-family="sans-serif" font-size="13" lengthAdjust="spacingAndGlyphs" textLength="126" x="86.5" y="248.2749">"addPageResources"</text><rect fill="none" height="104.5059" style="stroke: #000000; stroke-width: 2.0;" width="535.5" x="23" y="275.0488"/><polygon fill="#EEEEEE" points="23,275.0488,100,275.0488,100,282.0488,90,292.0488,23,292.0488,23,275.0488" style="stroke: #000000; stroke-width: 2.0;"/><text fill="#000000" font-family="sans-serif" font-size="13" font-weight="bold" lengthAdjust="spacingAndGlyphs" textLength="32" x="38" y="288.4014">loop</text><text fill="#000000" font-family="sans-serif" font-size="11" font-weight="bold" lengthAdjust="spacingAndGlyphs" textLength="102" x="115" y="287.501">[for all portlets]</text><polygon fill="#A80036" points="495.5,309.1753,505.5,313.1753,495.5,317.1753,499.5,313.1753" style="stroke: #A80036; stroke-width: 1.0;"/><line style="stroke: #A80036; stroke-width: 1.0;" x1="229.5" x2="501.5" y1="313.1753" y2="313.1753"/><text fill="#000000" font-family="sans-serif" font-size="13" lengthAdjust="spacingAndGlyphs" textLength="73" x="236.5" y="308.5278">PortalReady</text><polygon fill="#A80036" points="245.5,338.3018,235.5,342.3018,245.5,346.3018,241.5,342.3018" style="stroke: #A80036; stroke-width: 1.0;"/><line style="stroke: #A80036; stroke-width: 1.0;" x1="239.5" x2="511.5" y1="342.3018" y2="342.3018"/><text fill="#000000" font-family="sans-serif" font-size="13" lengthAdjust="spacingAndGlyphs" textLength="96" x="251.5" y="337.6543">AddPortletType</text><polygon fill="#A80036" points="80.5,367.4282,70.5,371.4282,80.5,375.4282,76.5,371.4282" style="stroke: #A80036; stroke-width: 1.0;"/><line style="stroke: #A80036; stroke-width: 1.0;" x1="74.5" x2="218.5" y1="371.4282" y2="371.4282"/><text fill="#000000" font-family="sans-serif" font-size="13" lengthAdjust="spacingAndGlyphs" textLength="104" x="86.5" y="366.7808">"addPortletType"</text><polygon fill="#A80036" points="697,410.5547,707,414.5547,697,418.5547,701,414.5547" style="stroke: #A80036; stroke-width: 1.0;"/><line style="stroke: #A80036; stroke-width: 1.0;" x1="600" x2="703" y1="414.5547" y2="414.5547"/><text fill="#000000" font-family="sans-serif" font-size="13" lengthAdjust="spacingAndGlyphs" textLength="90" x="607" y="409.9072">PortalPrepared</text><polygon fill="#A80036" points="235.5,439.6812,225.5,443.6812,235.5,447.6812,231.5,443.6812" style="stroke: #A80036; stroke-width: 1.0;"/><line style="stroke: #A80036; stroke-width: 1.0;" x1="229.5" x2="708" y1="443.6812" y2="443.6812"/><text fill="#000000" font-family="sans-serif" font-size="13" lengthAdjust="spacingAndGlyphs" textLength="104" x="241.5" y="439.0337">LastPortalLayout</text><polygon fill="#A80036" points="80.5,468.8076,70.5,472.8076,80.5,476.8076,76.5,472.8076" style="stroke: #A80036; stroke-width: 1.0;"/><line style="stroke: #A80036; stroke-width: 1.0;" x1="74.5" x2="223.5" y1="472.8076" y2="472.8076"/><text fill="#000000" font-family="sans-serif" font-size="13" lengthAdjust="spacingAndGlyphs" textLength="111" x="86.5" y="468.1602">"lastPortalLayout"</text><rect fill="none" height="104.5059" style="stroke: #000000; stroke-width: 2.0;" width="749.5" x="23" y="487.9341"/><polygon fill="#EEEEEE" points="23,487.9341,100,487.9341,100,494.9341,90,504.9341,23,504.9341,23,487.9341" style="stroke: #000000; stroke-width: 2.0;"/><text fill="#000000" font-family="sans-serif" font-size="13" font-weight="bold" lengthAdjust="spacingAndGlyphs" textLength="32" x="38" y="501.2866">loop</text><text fill="#000000" font-family="sans-serif" font-size="11" font-weight="bold" lengthAdjust="spacingAndGlyphs" textLength="202" x="115" y="500.3862">[for all portlets to be displayed]</text><polygon fill="#A80036" points="528.5,522.0605,518.5,526.0605,528.5,530.0605,524.5,526.0605" style="stroke: #A80036; stroke-width: 1.0;"/><line style="stroke: #A80036; stroke-width: 1.0;" x1="522.5" x2="708" y1="526.0605" y2="526.0605"/><text fill="#000000" font-family="sans-serif" font-size="13" lengthAdjust="spacingAndGlyphs" textLength="134" x="534.5" y="521.4131">RenderPortletRequest</text><polygon fill="#A80036" points="240.5,551.187,230.5,555.187,240.5,559.187,236.5,555.187" style="stroke: #A80036; stroke-width: 1.0;"/><line style="stroke: #A80036; stroke-width: 1.0;" x1="234.5" x2="511.5" y1="555.187" y2="555.187"/><text fill="#000000" font-family="sans-serif" font-size="13" lengthAdjust="spacingAndGlyphs" textLength="84" x="246.5" y="550.5396">RenderPortlet</text><polygon fill="#A80036" points="80.5,580.3135,70.5,584.3135,80.5,588.3135,76.5,584.3135" style="stroke: #A80036; stroke-width: 1.0;"/><line style="stroke: #A80036; stroke-width: 1.0;" x1="74.5" x2="223.5" y1="584.3135" y2="584.3135"/><text fill="#000000" font-family="sans-serif" font-size="13" lengthAdjust="spacingAndGlyphs" textLength="91" x="86.5" y="579.666">"renderPortlet"</text><polygon fill="#A80036" points="240.5,616.4399,230.5,620.4399,240.5,624.4399,236.5,620.4399" style="stroke: #A80036; stroke-width: 1.0;"/><line style="stroke: #A80036; stroke-width: 1.0;" x1="234.5" x2="599" y1="620.4399" y2="620.4399"/><text fill="#000000" font-family="sans-serif" font-size="13" lengthAdjust="spacingAndGlyphs" textLength="106" x="246.5" y="615.7925">PortalConfigured</text><polygon fill="#A80036" points="80.5,645.5664,70.5,649.5664,80.5,653.5664,76.5,649.5664" style="stroke: #A80036; stroke-width: 1.0;"/><line style="stroke: #A80036; stroke-width: 1.0;" x1="74.5" x2="223.5" y1="649.5664" y2="649.5664"/><text fill="#000000" font-family="sans-serif" font-size="13" lengthAdjust="spacingAndGlyphs" textLength="117" x="86.5" y="644.9189">"portalConfigured"</text><!--
@startuml
hide footbox
 
 Browser -> Portal: "portalReady"
 activate Portal
 
 par
 
     loop for all page resource providers
         Portal -> PageResourceProviderX: PortalReady
         activate PageResourceProviderX
         PageResourceProviderX -> Portal: AddPageResources
         deactivate PageResourceProviderX
         activate Portal
         Portal -> Browser: "addPageResources"
         deactivate Portal
     end
 
     loop for all portlets
         Portal -> PortletX: PortalReady
         activate PortletX
         PortletX -> Portal: AddPortletType 
         deactivate PortletX
         activate Portal
         Portal -> Browser: "addPortletType"
         deactivate Portal
     end
 
 end
 
 actor Framework
 Framework -> PortalPolicy: PortalPrepared
 deactivate Portal
 activate PortalPolicy
 PortalPolicy -> Portal: LastPortalLayout
 Portal -> Browser: "lastPortalLayout"
 loop for all portlets to be displayed
     PortalPolicy -> PortletX: RenderPortletRequest
     activate PortletX
     PortletX -> Portal: RenderPortlet
     deactivate PortletX
     activate Portal
     Portal -> Browser: "renderPortlet"
     deactivate Portal
 end
 deactivate PortalPolicy
 Framework -> Portal: PortalConfigured
 activate Portal
 Portal -> Browser: "portalConfigured"
 deactivate Portal
@enduml

PlantUML version 1.2017.18(Fri Oct 06 16:56:32 UTC 2017)
(GPL source distribution)
Java Runtime: Java(TM) SE Runtime Environment
JVM: Java HotSpot(TM) 64-Bit Server VM
Java Version: 9.0.1+11
Operating System: Linux
OS Version: 4.14.12-041412-generic
Default Encoding: UTF-8
Language: en
Country: US
--></g></svg>