<?xml version="1.0" encoding="UTF-8" standalone="no"?><svg xmlns="http://www.w3.org/2000/svg" xmlns:xlink="http://www.w3.org/1999/xlink" contentScriptType="application/ecmascript" contentStyleType="text/css" height="409px" preserveAspectRatio="none" style="width:643px;height:409px;" version="1.1" viewBox="0 0 643 409" width="643px" zoomAndPan="magnify"><defs><filter height="300%" id="f1od8uv3n5yd5s" width="300%" x="-1" y="-1"><feGaussianBlur result="blurOut" stdDeviation="2.0"/><feColorMatrix in="blurOut" result="blurOut2" type="matrix" values="0 0 0 0 0 0 0 0 0 0 0 0 0 0 0 0 0 0 .4 0"/><feOffset dx="4.0" dy="4.0" in="blurOut2" result="blurOut3"/><feBlend in="SourceGraphic" in2="blurOut3" mode="normal"/></filter></defs><g><!--cluster Conceptual Portal\n(Portal Gateway)--><rect fill="#FFFFFF" filter="url(#f1od8uv3n5yd5s)" height="116" style="stroke: #000000; stroke-width: 2.0;" width="237" x="100.25" y="68"/><text fill="#000000" font-family="sans-serif" font-size="14" font-weight="bold" lengthAdjust="spacingAndGlyphs" textLength="139" x="149.25" y="83.3027">Conceptual Portal</text><text fill="#000000" font-family="sans-serif" font-size="14" font-weight="bold" lengthAdjust="spacingAndGlyphs" textLength="127" x="155.25" y="99.5928">(Portal Gateway)</text><!--cluster ##18--><!--class Portal--><rect fill="#FEFECE" filter="url(#f1od8uv3n5yd5s)" height="48" id="Portal" style="stroke: #A80036; stroke-width: 1.5;" width="65" x="256" y="120"/><ellipse cx="271" cy="136" fill="#ADD1B2" rx="11" ry="11" style="stroke: #A80036; stroke-width: 1.0;"/><path d="M271.0938,142.3125 Q268.2344,142.3125 266.6719,140.625 Q265.1094,138.9375 265.1094,135.8594 Q265.1094,132.7969 266.7031,131.1016 Q268.2969,129.4063 271.1875,129.4063 Q273.8281,129.4063 275.9688,129.9531 L275.9688,131.8906 Q272.5313,130.7031 271.1563,130.7031 Q270.1563,130.7031 269.0625,132.0625 Q267.9688,133.4219 267.9688,135.875 Q267.9688,138.2344 269.1406,139.5938 Q270.3125,140.9531 271.3281,140.9531 Q273.0781,140.9531 275.9531,139.4531 L275.9531,141.375 Q274.25,142.3125 271.0938,142.3125 Z "/><text fill="#000000" font-family="sans-serif" font-size="12" lengthAdjust="spacingAndGlyphs" textLength="33" x="285" y="140.4209">Portal</text><line style="stroke: #A80036; stroke-width: 1.5;" x1="257" x2="320" y1="152" y2="152"/><line style="stroke: #A80036; stroke-width: 1.5;" x1="257" x2="320" y1="160" y2="160"/><!--class PortalWeblet--><rect fill="#FEFECE" filter="url(#f1od8uv3n5yd5s)" height="48" id="PortalWeblet" style="stroke: #A80036; stroke-width: 1.5;" width="104" x="116.25" y="120"/><ellipse cx="131.25" cy="136" fill="#ADD1B2" rx="11" ry="11" style="stroke: #A80036; stroke-width: 1.0;"/><path d="M131.3438,142.3125 Q128.4844,142.3125 126.9219,140.625 Q125.3594,138.9375 125.3594,135.8594 Q125.3594,132.7969 126.9531,131.1016 Q128.5469,129.4063 131.4375,129.4063 Q134.0781,129.4063 136.2188,129.9531 L136.2188,131.8906 Q132.7813,130.7031 131.4063,130.7031 Q130.4063,130.7031 129.3125,132.0625 Q128.2188,133.4219 128.2188,135.875 Q128.2188,138.2344 129.3906,139.5938 Q130.5625,140.9531 131.5781,140.9531 Q133.3281,140.9531 136.2031,139.4531 L136.2031,141.375 Q134.5,142.3125 131.3438,142.3125 Z "/><text fill="#000000" font-family="sans-serif" font-size="12" lengthAdjust="spacingAndGlyphs" textLength="72" x="145.25" y="140.4209">PortalWeblet</text><line style="stroke: #A80036; stroke-width: 1.5;" x1="117.25" x2="219.25" y1="152" y2="152"/><line style="stroke: #A80036; stroke-width: 1.5;" x1="117.25" x2="219.25" y1="160" y2="160"/><!--class PortletB--><rect fill="#FEFECE" filter="url(#f1od8uv3n5yd5s)" height="48" id="PortletB" style="stroke: #A80036; stroke-width: 1.5;" width="76" x="522.25" y="120"/><ellipse cx="537.25" cy="136" fill="#ADD1B2" rx="11" ry="11" style="stroke: #A80036; stroke-width: 1.0;"/><path d="M537.3438,142.3125 Q534.4844,142.3125 532.9219,140.625 Q531.3594,138.9375 531.3594,135.8594 Q531.3594,132.7969 532.9531,131.1016 Q534.5469,129.4063 537.4375,129.4063 Q540.0781,129.4063 542.2188,129.9531 L542.2188,131.8906 Q538.7813,130.7031 537.4063,130.7031 Q536.4063,130.7031 535.3125,132.0625 Q534.2188,133.4219 534.2188,135.875 Q534.2188,138.2344 535.3906,139.5938 Q536.5625,140.9531 537.5781,140.9531 Q539.3281,140.9531 542.2031,139.4531 L542.2031,141.375 Q540.5,142.3125 537.3438,142.3125 Z "/><text fill="#000000" font-family="sans-serif" font-size="12" lengthAdjust="spacingAndGlyphs" textLength="44" x="551.25" y="140.4209">PortletB</text><line style="stroke: #A80036; stroke-width: 1.5;" x1="523.25" x2="597.25" y1="152" y2="152"/><line style="stroke: #A80036; stroke-width: 1.5;" x1="523.25" x2="597.25" y1="160" y2="160"/><!--class PortletA--><rect fill="#FEFECE" filter="url(#f1od8uv3n5yd5s)" height="48" id="PortletA" style="stroke: #A80036; stroke-width: 1.5;" width="77" x="394" y="120"/><ellipse cx="409" cy="136" fill="#ADD1B2" rx="11" ry="11" style="stroke: #A80036; stroke-width: 1.0;"/><path d="M409.0938,142.3125 Q406.2344,142.3125 404.6719,140.625 Q403.1094,138.9375 403.1094,135.8594 Q403.1094,132.7969 404.7031,131.1016 Q406.2969,129.4063 409.1875,129.4063 Q411.8281,129.4063 413.9688,129.9531 L413.9688,131.8906 Q410.5313,130.7031 409.1563,130.7031 Q408.1563,130.7031 407.0625,132.0625 Q405.9688,133.4219 405.9688,135.875 Q405.9688,138.2344 407.1406,139.5938 Q408.3125,140.9531 409.3281,140.9531 Q411.0781,140.9531 413.9531,139.4531 L413.9531,141.375 Q412.25,142.3125 409.0938,142.3125 Z "/><text fill="#000000" font-family="sans-serif" font-size="12" lengthAdjust="spacingAndGlyphs" textLength="45" x="423" y="140.4209">PortletA</text><line style="stroke: #A80036; stroke-width: 1.5;" x1="395" x2="470" y1="152" y2="152"/><line style="stroke: #A80036; stroke-width: 1.5;" x1="395" x2="470" y1="160" y2="160"/><!--class PortletAData--><rect fill="#FEFECE" filter="url(#f1od8uv3n5yd5s)" height="60.7993" id="PortletAData" style="stroke: #A80036; stroke-width: 1.5;" width="110" x="377.25" y="228.5"/><ellipse cx="394.95" cy="244.5" fill="#ADD1B2" rx="11" ry="11" style="stroke: #A80036; stroke-width: 1.0;"/><path d="M395.0438,250.8125 Q392.1844,250.8125 390.6219,249.125 Q389.0594,247.4375 389.0594,244.3594 Q389.0594,241.2969 390.6531,239.6016 Q392.2469,237.9063 395.1375,237.9063 Q397.7781,237.9063 399.9188,238.4531 L399.9188,240.3906 Q396.4813,239.2031 395.1063,239.2031 Q394.1063,239.2031 393.0125,240.5625 Q391.9188,241.9219 391.9188,244.375 Q391.9188,246.7344 393.0906,248.0938 Q394.2625,249.4531 395.2781,249.4531 Q397.0281,249.4531 399.9031,247.9531 L399.9031,249.875 Q398.2,250.8125 395.0438,250.8125 Z "/><text fill="#000000" font-family="sans-serif" font-size="12" lengthAdjust="spacingAndGlyphs" textLength="72" x="409.55" y="248.9209">PortletAData</text><line style="stroke: #A80036; stroke-width: 1.5;" x1="378.25" x2="486.25" y1="260.5" y2="260.5"/><rect fill="none" height="6" style="stroke: #C82930; stroke-width: 1.0;" width="6" x="385.25" y="269.3997"/><text fill="#000000" font-family="sans-serif" font-size="11" lengthAdjust="spacingAndGlyphs" textLength="84" x="397.25" y="274.9521">portletId: String</text><line style="stroke: #A80036; stroke-width: 1.5;" x1="378.25" x2="486.25" y1="281.2993" y2="281.2993"/><!--class PortletBData--><rect fill="#FEFECE" filter="url(#f1od8uv3n5yd5s)" height="60.7993" id="PortletBData" style="stroke: #A80036; stroke-width: 1.5;" width="110" x="522.25" y="228.5"/><ellipse cx="540.4" cy="244.5" fill="#ADD1B2" rx="11" ry="11" style="stroke: #A80036; stroke-width: 1.0;"/><path d="M540.4938,250.8125 Q537.6344,250.8125 536.0719,249.125 Q534.5094,247.4375 534.5094,244.3594 Q534.5094,241.2969 536.1031,239.6016 Q537.6969,237.9063 540.5875,237.9063 Q543.2281,237.9063 545.3688,238.4531 L545.3688,240.3906 Q541.9313,239.2031 540.5563,239.2031 Q539.5563,239.2031 538.4625,240.5625 Q537.3688,241.9219 537.3688,244.375 Q537.3688,246.7344 538.5406,248.0938 Q539.7125,249.4531 540.7281,249.4531 Q542.4781,249.4531 545.3531,247.9531 L545.3531,249.875 Q543.65,250.8125 540.4938,250.8125 Z "/><text fill="#000000" font-family="sans-serif" font-size="12" lengthAdjust="spacingAndGlyphs" textLength="71" x="555.1" y="248.9209">PortletBData</text><line style="stroke: #A80036; stroke-width: 1.5;" x1="523.25" x2="631.25" y1="260.5" y2="260.5"/><rect fill="none" height="6" style="stroke: #C82930; stroke-width: 1.0;" width="6" x="530.25" y="269.3997"/><text fill="#000000" font-family="sans-serif" font-size="11" lengthAdjust="spacingAndGlyphs" textLength="84" x="542.25" y="274.9521">portletId: String</text><line style="stroke: #A80036; stroke-width: 1.5;" x1="523.25" x2="631.25" y1="281.2993" y2="281.2993"/><!--class Session--><rect fill="#FEFECE" filter="url(#f1od8uv3n5yd5s)" height="48" id="Session" style="stroke: #A80036; stroke-width: 1.5;" width="74" x="467.25" y="350"/><ellipse cx="482.25" cy="366" fill="#ADD1B2" rx="11" ry="11" style="stroke: #A80036; stroke-width: 1.0;"/><path d="M482.3438,372.3125 Q479.4844,372.3125 477.9219,370.625 Q476.3594,368.9375 476.3594,365.8594 Q476.3594,362.7969 477.9531,361.1016 Q479.5469,359.4063 482.4375,359.4063 Q485.0781,359.4063 487.2188,359.9531 L487.2188,361.8906 Q483.7813,360.7031 482.4063,360.7031 Q481.4063,360.7031 480.3125,362.0625 Q479.2188,363.4219 479.2188,365.875 Q479.2188,368.2344 480.3906,369.5938 Q481.5625,370.9531 482.5781,370.9531 Q484.3281,370.9531 487.2031,369.4531 L487.2031,371.375 Q485.5,372.3125 482.3438,372.3125 Z "/><text fill="#000000" font-family="sans-serif" font-size="12" lengthAdjust="spacingAndGlyphs" textLength="42" x="496.25" y="370.4209">Session</text><line style="stroke: #A80036; stroke-width: 1.5;" x1="468.25" x2="540.25" y1="382" y2="382"/><line style="stroke: #A80036; stroke-width: 1.5;" x1="468.25" x2="540.25" y1="390" y2="390"/><!--entity Browser--><rect fill="#FEFECE" filter="url(#f1od8uv3n5yd5s)" height="36.29" style="stroke: #A80036; stroke-width: 1.5;" width="75" x="6" y="126"/><rect fill="#FEFECE" height="5" style="stroke: #A80036; stroke-width: 1.5;" width="10" x="1" y="131"/><rect fill="#FEFECE" height="5" style="stroke: #A80036; stroke-width: 1.5;" width="10" x="1" y="152.29"/><text fill="#000000" font-family="sans-serif" font-size="14" lengthAdjust="spacingAndGlyphs" textLength="55" x="16" y="149.3027">Browser</text><!--class PageResourceProvider--><rect fill="#FEFECE" filter="url(#f1od8uv3n5yd5s)" height="48" id="PageResourceProvider" style="stroke: #A80036; stroke-width: 1.5;" width="161" x="47" y="235"/><ellipse cx="62" cy="251" fill="#ADD1B2" rx="11" ry="11" style="stroke: #A80036; stroke-width: 1.0;"/><path d="M62.0938,257.3125 Q59.2344,257.3125 57.6719,255.625 Q56.1094,253.9375 56.1094,250.8594 Q56.1094,247.7969 57.7031,246.1016 Q59.2969,244.4063 62.1875,244.4063 Q64.8281,244.4063 66.9688,244.9531 L66.9688,246.8906 Q63.5313,245.7031 62.1563,245.7031 Q61.1563,245.7031 60.0625,247.0625 Q58.9688,248.4219 58.9688,250.875 Q58.9688,253.2344 60.1406,254.5938 Q61.3125,255.9531 62.3281,255.9531 Q64.0781,255.9531 66.9531,254.4531 L66.9531,256.375 Q65.25,257.3125 62.0938,257.3125 Z "/><text fill="#000000" font-family="sans-serif" font-size="12" lengthAdjust="spacingAndGlyphs" textLength="129" x="76" y="255.4209">PageResourceProvider</text><line style="stroke: #A80036; stroke-width: 1.5;" x1="48" x2="207" y1="267" y2="267"/><line style="stroke: #A80036; stroke-width: 1.5;" x1="48" x2="207" y1="275" y2="275"/><!--class PortalPolicy--><rect fill="#FEFECE" filter="url(#f1od8uv3n5yd5s)" height="48" id="PortalPolicy" style="stroke: #A80036; stroke-width: 1.5;" width="97" x="243" y="235"/><ellipse cx="258" cy="251" fill="#ADD1B2" rx="11" ry="11" style="stroke: #A80036; stroke-width: 1.0;"/><path d="M258.0938,257.3125 Q255.2344,257.3125 253.6719,255.625 Q252.1094,253.9375 252.1094,250.8594 Q252.1094,247.7969 253.7031,246.1016 Q255.2969,244.4063 258.1875,244.4063 Q260.8281,244.4063 262.9688,244.9531 L262.9688,246.8906 Q259.5313,245.7031 258.1563,245.7031 Q257.1563,245.7031 256.0625,247.0625 Q254.9688,248.4219 254.9688,250.875 Q254.9688,253.2344 256.1406,254.5938 Q257.3125,255.9531 258.3281,255.9531 Q260.0781,255.9531 262.9531,254.4531 L262.9531,256.375 Q261.25,257.3125 258.0938,257.3125 Z "/><text fill="#000000" font-family="sans-serif" font-size="12" lengthAdjust="spacingAndGlyphs" textLength="65" x="272" y="255.4209">PortalPolicy</text><line style="stroke: #A80036; stroke-width: 1.5;" x1="244" x2="339" y1="267" y2="267"/><line style="stroke: #A80036; stroke-width: 1.5;" x1="244" x2="339" y1="275" y2="275"/><!--link PortalWeblet to Portal--><path d="M220.281,144 C232.14,144 244,144 255.859,144 " fill="none" id="PortalWeblet-Portal" style="stroke: #A80036; stroke-width: 1.0;"/><text fill="#000000" font-family="sans-serif" font-size="13" lengthAdjust="spacingAndGlyphs" textLength="8" x="228.1604" y="139.1661">1</text><text fill="#000000" font-family="sans-serif" font-size="13" lengthAdjust="spacingAndGlyphs" textLength="8" x="239.9189" y="138.797">1</text><!--link Browser to PortalWeblet--><path d="M80.8477,144 C92.5696,144 104.2915,144 116.013,144 " fill="none" id="Browser-PortalWeblet" style="stroke: #A80036; stroke-width: 1.0;"/><text fill="#000000" font-family="sans-serif" font-size="13" lengthAdjust="spacingAndGlyphs" textLength="6" x="89.1694" y="138.5825">*</text><text fill="#000000" font-family="sans-serif" font-size="13" lengthAdjust="spacingAndGlyphs" textLength="6" x="102.1591" y="139.3243">*</text><!--link Portal to PortletB--><path d="M299.834,119.711 C313.384,94.464 338.432,56.393 372.917,40 C414.127,20.41 434.373,20.41 475.583,40 C510.068,56.393 535.116,94.464 548.666,119.711 " fill="none" id="Portal-PortletB" style="stroke: #A80036; stroke-width: 1.0;"/><text fill="#000000" font-family="sans-serif" font-size="13" lengthAdjust="spacingAndGlyphs" textLength="8" x="292.1404" y="109.3138">1</text><text fill="#000000" font-family="sans-serif" font-size="13" lengthAdjust="spacingAndGlyphs" textLength="8" x="537.4154" y="109.1181">1</text><!--link Portal to PortletA--><path d="M320.594,156.54 C345.019,163.266 369.443,163.778 393.868,158.076 " fill="none" id="Portal-PortletA" style="stroke: #A80036; stroke-width: 1.0;"/><text fill="#000000" font-family="sans-serif" font-size="13" lengthAdjust="spacingAndGlyphs" textLength="8" x="328.9407" y="153.8414">1</text><text fill="#000000" font-family="sans-serif" font-size="13" lengthAdjust="spacingAndGlyphs" textLength="8" x="377.9142" y="122.6886">1</text><!--link PortletA to PortletAData--><path d="M432.25,168.14 C432.25,185.574 432.25,209.61 432.25,228.436 " fill="none" id="PortletA-PortletAData" style="stroke: #A80036; stroke-width: 1.0;"/><text fill="#000000" font-family="sans-serif" font-size="13" lengthAdjust="spacingAndGlyphs" textLength="8" x="421.9703" y="188.2202">1</text><text fill="#000000" font-family="sans-serif" font-size="13" lengthAdjust="spacingAndGlyphs" textLength="6" x="424.5125" y="217.6163">*</text><!--link PortletB to PortletBData--><path d="M563.731,168.14 C566.354,185.574 569.97,209.61 572.802,228.436 " fill="none" id="PortletB-PortletBData" style="stroke: #A80036; stroke-width: 1.0;"/><text fill="#000000" font-family="sans-serif" font-size="13" lengthAdjust="spacingAndGlyphs" textLength="8" x="554.3607" y="188.2202">1</text><text fill="#000000" font-family="sans-serif" font-size="13" lengthAdjust="spacingAndGlyphs" textLength="6" x="564.2444" y="217.6163">*</text><!--link PortletAData to Session--><path d="M451.167,289.689 C460.729,304.697 472.385,322.989 482.335,338.606 " fill="none" id="PortletAData-Session" style="stroke: #A80036; stroke-width: 1.0;"/><polygon fill="#A80036" points="489.549,349.9284,489.698,342.7188,483.1004,339.8084,482.9513,347.0179,489.549,349.9284" style="stroke: #A80036; stroke-width: 1.0;"/><text fill="#000000" font-family="sans-serif" font-size="13" lengthAdjust="spacingAndGlyphs" textLength="6" x="447.1038" y="309.5922">*</text><text fill="#000000" font-family="sans-serif" font-size="13" lengthAdjust="spacingAndGlyphs" textLength="8" x="476.2394" y="339.1697">1</text><!--link PortletBData to Session--><path d="M558.07,289.689 C548.375,304.697 536.558,322.989 526.469,338.606 " fill="none" id="PortletBData-Session" style="stroke: #A80036; stroke-width: 1.0;"/><polygon fill="#A80036" points="519.155,349.9284,525.7707,347.0591,525.6666,339.8487,519.0509,342.718,519.155,349.9284" style="stroke: #A80036; stroke-width: 1.0;"/><text fill="#000000" font-family="sans-serif" font-size="13" lengthAdjust="spacingAndGlyphs" textLength="6" x="546.5064" y="309.5922">*</text><text fill="#000000" font-family="sans-serif" font-size="13" lengthAdjust="spacingAndGlyphs" textLength="8" x="512.3217" y="339.1697">1</text><!--link Portal to PageResourceProvider--><path d="M265.255,168.05 C256.78,176.035 246.89,184.785 237.25,192 C216.211,207.747 191.196,223 170.341,234.868 " fill="none" id="Portal-PageResourceProvider" style="stroke: #A80036; stroke-width: 1.0;"/><text fill="#000000" font-family="sans-serif" font-size="13" lengthAdjust="spacingAndGlyphs" textLength="8" x="249.0172" y="188.5034">1</text><text fill="#000000" font-family="sans-serif" font-size="13" lengthAdjust="spacingAndGlyphs" textLength="6" x="171.8375" y="224.0961">*</text><!--link Portal to PortalPolicy--><path d="M288.864,168.14 C289.382,187.64 290.119,215.4 290.636,234.891 " fill="none" id="Portal-PortalPolicy" style="stroke: #A80036; stroke-width: 1.0;"/><text fill="#000000" font-family="sans-serif" font-size="13" lengthAdjust="spacingAndGlyphs" textLength="8" x="278.734" y="188.2202">1</text><text fill="#000000" font-family="sans-serif" font-size="13" lengthAdjust="spacingAndGlyphs" textLength="6" x="282.572" y="224.1242">*</text><!--
@startuml
skinparam packageStyle rectangle
 allow_mixing
 
 component Browser
 
 package "Conceptual Portal\n(Portal Gateway)" {
    class Portal
 	  class PortalWeblet
 
    Portal "1" -left- "1" PortalWeblet
 }
 
 PortalWeblet "*" -left- "*" Browser
 
 together {
 
   Portal "1" -right- "1" PortletB
   Portal "1" -right- "1" PortletA
 
   class PortletAData {
     -portletId: String
   }
 
   PortletAData "*" -up- "1" PortletA
 
   class PortletBData {
     -portletId: String
   }
 
   PortletBData "*" -up- "1" PortletB
   
   PortletAData "*" -up-* "1" Session
   PortletBData "*" -up-* "1" Session
 }
 
 Portal "1" -down- "*" PageResourceProvider
 Portal "1" -down- "*" PortalPolicy
@enduml

PlantUML version 1.2017.18(Fri Oct 06 16:56:32 UTC 2017)
(GPL source distribution)
Java Runtime: Java(TM) SE Runtime Environment
JVM: Java HotSpot(TM) 64-Bit Server VM
Java Version: 9.0.1+11
Operating System: Linux
OS Version: 4.14.12-041412-generic
Default Encoding: UTF-8
Language: en
Country: US
--></g></svg>