<?xml version="1.0" encoding="UTF-8" standalone="no"?><svg xmlns="http://www.w3.org/2000/svg" xmlns:xlink="http://www.w3.org/1999/xlink" contentScriptType="application/ecmascript" contentStyleType="text/css" height="230px" preserveAspectRatio="none" style="width:320px;height:230px;" version="1.1" viewBox="0 0 320 230" width="320px" zoomAndPan="magnify"><defs><filter height="300%" id="f14vs4goqto08c" width="300%" x="-1" y="-1"><feGaussianBlur result="blurOut" stdDeviation="2.0"/><feColorMatrix in="blurOut" result="blurOut2" type="matrix" values="0 0 0 0 0 0 0 0 0 0 0 0 0 0 0 0 0 0 .4 0"/><feOffset dx="4.0" dy="4.0" in="blurOut2" result="blurOut3"/><feBlend in="SourceGraphic" in2="blurOut3" mode="normal"/></filter></defs><g><rect fill="#FFFFFF" filter="url(#f14vs4goqto08c)" height="21" style="stroke: #A80036; stroke-width: 1.0;" width="10" x="47" y="48.29"/><rect fill="#FFFFFF" filter="url(#f14vs4goqto08c)" height="139.6323" style="stroke: #A80036; stroke-width: 1.0;" width="10" x="186" y="69.29"/><rect fill="#FFFFFF" filter="url(#f14vs4goqto08c)" height="102.5059" style="stroke: #A80036; stroke-width: 1.0;" width="10" x="191" y="106.4165"/><rect fill="#FFFFFF" filter="url(#f14vs4goqto08c)" height="46.2529" style="stroke: #000000; stroke-width: 2.0;" width="260" x="13" y="155.6694"/><line style="stroke: #A80036; stroke-width: 1.0; stroke-dasharray: 5.0,5.0;" x1="52" x2="52" y1="38.29" y2="218.9224"/><line style="stroke: #A80036; stroke-width: 1.0; stroke-dasharray: 5.0,5.0;" x1="191" x2="191" y1="38.29" y2="218.9224"/><rect fill="#FEFECE" filter="url(#f14vs4goqto08c)" height="30.29" style="stroke: #A80036; stroke-width: 1.5;" width="54" x="23" y="3"/><text fill="#000000" font-family="sans-serif" font-size="14" lengthAdjust="spacingAndGlyphs" textLength="40" x="30" y="23.3027">Portal</text><rect fill="#FEFECE" filter="url(#f14vs4goqto08c)" height="30.29" style="stroke: #A80036; stroke-width: 1.5;" width="140" x="119" y="3"/><text fill="#000000" font-family="sans-serif" font-size="14" lengthAdjust="spacingAndGlyphs" textLength="126" x="126" y="23.3027">PortletComponent</text><rect fill="#FFFFFF" filter="url(#f14vs4goqto08c)" height="21" style="stroke: #A80036; stroke-width: 1.0;" width="10" x="47" y="48.29"/><rect fill="#FFFFFF" filter="url(#f14vs4goqto08c)" height="139.6323" style="stroke: #A80036; stroke-width: 1.0;" width="10" x="186" y="69.29"/><rect fill="#FFFFFF" filter="url(#f14vs4goqto08c)" height="102.5059" style="stroke: #A80036; stroke-width: 1.0;" width="10" x="191" y="106.4165"/><polygon fill="#A80036" points="174,65.29,184,69.29,174,73.29,178,69.29" style="stroke: #A80036; stroke-width: 1.0;"/><line style="stroke: #A80036; stroke-width: 1.0;" x1="52" x2="180" y1="69.29" y2="69.29"/><text fill="#000000" font-family="sans-serif" font-size="13" lengthAdjust="spacingAndGlyphs" textLength="84" x="59" y="64.6426">RenderPortlet</text><line style="stroke: #A80036; stroke-width: 1.0;" x1="196" x2="243" y1="93.543" y2="93.543"/><line style="stroke: #A80036; stroke-width: 1.0;" x1="243" x2="243" y1="93.543" y2="106.543"/><line style="stroke: #A80036; stroke-width: 1.0;" x1="202" x2="243" y1="106.543" y2="106.543"/><polygon fill="#A80036" points="212,102.543,202,106.543,212,110.543,208,106.543" style="stroke: #A80036; stroke-width: 1.0;"/><text fill="#000000" font-family="sans-serif" font-size="13" lengthAdjust="spacingAndGlyphs" textLength="100" x="208" y="88.769">doRenderPortlet</text><polygon fill="#A80036" points="63,136.543,53,140.543,63,144.543,59,140.543" style="stroke: #A80036; stroke-width: 1.0;"/><line style="stroke: #A80036; stroke-width: 1.0;" x1="57" x2="190" y1="140.543" y2="140.543"/><text fill="#000000" font-family="sans-serif" font-size="13" lengthAdjust="spacingAndGlyphs" textLength="84" x="69" y="135.8955">RenderPortlet</text><rect fill="none" height="46.2529" style="stroke: #000000; stroke-width: 2.0;" width="260" x="13" y="155.6694"/><polygon fill="#EEEEEE" points="13,155.6694,82,155.6694,82,162.6694,72,172.6694,13,172.6694,13,155.6694" style="stroke: #000000; stroke-width: 2.0;"/><text fill="#000000" font-family="sans-serif" font-size="13" font-weight="bold" lengthAdjust="spacingAndGlyphs" textLength="24" x="28" y="169.022">opt</text><polygon fill="#A80036" points="63,189.7959,53,193.7959,63,197.7959,59,193.7959" style="stroke: #A80036; stroke-width: 1.0;"/><line style="stroke: #A80036; stroke-width: 1.0;" x1="57" x2="190" y1="193.7959" y2="193.7959"/><text fill="#000000" font-family="sans-serif" font-size="13" lengthAdjust="spacingAndGlyphs" textLength="110" x="69" y="189.1484">NotifyPortletView</text><!--
@startuml
hide footbox
 
 activate Portal
 Portal -> PortletComponent: RenderPortlet
 deactivate Portal
 activate PortletComponent
 PortletComponent -> PortletComponent: doRenderPortlet
 activate PortletComponent
 PortletComponent -> Portal: RenderPortlet 
 opt 
     PortletComponent -> Portal: NotifyPortletView
 end opt 
 deactivate PortletComponent
 deactivate PortletComponent
 activate Portal
 deactivate Portal
@enduml

PlantUML version 1.2017.18(Fri Oct 06 16:56:32 UTC 2017)
(GPL source distribution)
Java Runtime: Java(TM) SE Runtime Environment
JVM: Java HotSpot(TM) 64-Bit Server VM
Java Version: 9.0.1+11
Operating System: Linux
OS Version: 4.14.12-041412-generic
Default Encoding: UTF-8
Language: en
Country: US
--></g></svg>