<?xml version="1.0" encoding="UTF-8" standalone="no"?><svg xmlns="http://www.w3.org/2000/svg" xmlns:xlink="http://www.w3.org/1999/xlink" contentScriptType="application/ecmascript" contentStyleType="text/css" height="303px" preserveAspectRatio="none" style="width:539px;height:303px;" version="1.1" viewBox="0 0 539 303" width="539px" zoomAndPan="magnify"><defs><filter height="300%" id="fytxa4cxzxlig" width="300%" x="-1" y="-1"><feGaussianBlur result="blurOut" stdDeviation="2.0"/><feColorMatrix in="blurOut" result="blurOut2" type="matrix" values="0 0 0 0 0 0 0 0 0 0 0 0 0 0 0 0 0 0 .4 0"/><feOffset dx="4.0" dy="4.0" in="blurOut2" result="blurOut3"/><feBlend in="SourceGraphic" in2="blurOut3" mode="normal"/></filter></defs><g><rect fill="#FFFFFF" filter="url(#fytxa4cxzxlig)" height="21" style="stroke: #A80036; stroke-width: 1.0;" width="10" x="41" y="48.2969"/><rect fill="#FFFFFF" filter="url(#fytxa4cxzxlig)" height="125.6641" style="stroke: #A80036; stroke-width: 1.0;" width="10" x="41" y="156.6953"/><rect fill="#FFFFFF" filter="url(#fytxa4cxzxlig)" height="87.3984" style="stroke: #A80036; stroke-width: 1.0;" width="10" x="264" y="69.2969"/><rect fill="#FFFFFF" filter="url(#fytxa4cxzxlig)" height="29.1328" style="stroke: #A80036; stroke-width: 1.0;" width="10" x="264" y="185.8281"/><rect fill="#FFFFFF" filter="url(#fytxa4cxzxlig)" height="29.1328" style="stroke: #A80036; stroke-width: 1.0;" width="10" x="438" y="98.4297"/><rect fill="#FFFFFF" filter="url(#fytxa4cxzxlig)" height="58.2656" style="stroke: #A80036; stroke-width: 1.0;" width="10" x="438" y="214.9609"/><line style="stroke: #A80036; stroke-width: 1.0; stroke-dasharray: 5.0,5.0;" x1="46" x2="46" y1="38.2969" y2="291.3594"/><line style="stroke: #A80036; stroke-width: 1.0; stroke-dasharray: 5.0,5.0;" x1="268.5" x2="268.5" y1="38.2969" y2="291.3594"/><line style="stroke: #A80036; stroke-width: 1.0; stroke-dasharray: 5.0,5.0;" x1="442.5" x2="442.5" y1="38.2969" y2="291.3594"/><rect fill="#FEFECE" filter="url(#fytxa4cxzxlig)" height="30.2969" style="stroke: #A80036; stroke-width: 1.5;" width="72" x="8" y="3"/><text fill="#000000" font-family="sans-serif" font-size="14" lengthAdjust="spacingAndGlyphs" textLength="58" x="15" y="22.9951">Browser</text><rect fill="#FEFECE" filter="url(#fytxa4cxzxlig)" height="30.2969" style="stroke: #A80036; stroke-width: 1.5;" width="55" x="239.5" y="3"/><text fill="#000000" font-family="sans-serif" font-size="14" lengthAdjust="spacingAndGlyphs" textLength="41" x="246.5" y="22.9951">Portal</text><rect fill="#FEFECE" filter="url(#fytxa4cxzxlig)" height="30.2969" style="stroke: #A80036; stroke-width: 1.5;" width="175" x="353.5" y="3"/><text fill="#000000" font-family="sans-serif" font-size="14" lengthAdjust="spacingAndGlyphs" textLength="161" x="360.5" y="22.9951">PageResourceProvider</text><rect fill="#FFFFFF" filter="url(#fytxa4cxzxlig)" height="21" style="stroke: #A80036; stroke-width: 1.0;" width="10" x="41" y="48.2969"/><rect fill="#FFFFFF" filter="url(#fytxa4cxzxlig)" height="125.6641" style="stroke: #A80036; stroke-width: 1.0;" width="10" x="41" y="156.6953"/><rect fill="#FFFFFF" filter="url(#fytxa4cxzxlig)" height="87.3984" style="stroke: #A80036; stroke-width: 1.0;" width="10" x="264" y="69.2969"/><rect fill="#FFFFFF" filter="url(#fytxa4cxzxlig)" height="29.1328" style="stroke: #A80036; stroke-width: 1.0;" width="10" x="264" y="185.8281"/><rect fill="#FFFFFF" filter="url(#fytxa4cxzxlig)" height="29.1328" style="stroke: #A80036; stroke-width: 1.0;" width="10" x="438" y="98.4297"/><rect fill="#FFFFFF" filter="url(#fytxa4cxzxlig)" height="58.2656" style="stroke: #A80036; stroke-width: 1.0;" width="10" x="438" y="214.9609"/><polygon fill="#A80036" points="252,65.2969,262,69.2969,252,73.2969,256,69.2969" style="stroke: #A80036; stroke-width: 1.0;"/><line style="stroke: #A80036; stroke-width: 1.0;" x1="46" x2="258" y1="69.2969" y2="69.2969"/><text fill="#000000" font-family="sans-serif" font-size="13" lengthAdjust="spacingAndGlyphs" textLength="91" x="53" y="64.3638">"portalReady"</text><polygon fill="#A80036" points="426,94.4297,436,98.4297,426,102.4297,430,98.4297" style="stroke: #A80036; stroke-width: 1.0;"/><line style="stroke: #A80036; stroke-width: 1.0;" x1="274" x2="432" y1="98.4297" y2="98.4297"/><text fill="#000000" font-family="sans-serif" font-size="13" lengthAdjust="spacingAndGlyphs" textLength="79" x="281" y="93.4966">PortalReady</text><polygon fill="#A80036" points="285,123.5625,275,127.5625,285,131.5625,281,127.5625" style="stroke: #A80036; stroke-width: 1.0;"/><line style="stroke: #A80036; stroke-width: 1.0;" x1="279" x2="442" y1="127.5625" y2="127.5625"/><text fill="#000000" font-family="sans-serif" font-size="13" lengthAdjust="spacingAndGlyphs" textLength="117" x="291" y="122.6294">AddPageResource</text><polygon fill="#A80036" points="62,152.6953,52,156.6953,62,160.6953,58,156.6953" style="stroke: #A80036; stroke-width: 1.0;"/><line style="stroke: #A80036; stroke-width: 1.0;" x1="56" x2="268" y1="156.6953" y2="156.6953"/><text fill="#000000" font-family="sans-serif" font-size="13" lengthAdjust="spacingAndGlyphs" textLength="128" x="68" y="151.7622">"addPageResource"</text><polygon fill="#A80036" points="252,181.8281,262,185.8281,252,189.8281,256,185.8281" style="stroke: #A80036; stroke-width: 1.0;"/><line style="stroke: #A80036; stroke-width: 1.0;" x1="51" x2="258" y1="185.8281" y2="185.8281"/><text fill="#000000" font-family="sans-serif" font-size="13" lengthAdjust="spacingAndGlyphs" textLength="194" x="58" y="180.895">"GET &lt;page resource1 URL&gt;"</text><polygon fill="#A80036" points="426,210.9609,436,214.9609,426,218.9609,430,214.9609" style="stroke: #A80036; stroke-width: 1.0;"/><line style="stroke: #A80036; stroke-width: 1.0;" x1="269" x2="432" y1="214.9609" y2="214.9609"/><text fill="#000000" font-family="sans-serif" font-size="13" lengthAdjust="spacingAndGlyphs" textLength="145" x="276" y="210.0278">PageResourceRequest</text><polygon fill="#A80036" points="62,240.0938,52,244.0938,62,248.0938,58,244.0938" style="stroke: #A80036; stroke-width: 1.0;"/><line style="stroke: #A80036; stroke-width: 1.0;" x1="56" x2="437" y1="244.0938" y2="244.0938"/><text fill="#000000" font-family="sans-serif" font-size="13" lengthAdjust="spacingAndGlyphs" textLength="126" x="68" y="239.1606">"Response Header"</text><polygon fill="#A80036" points="62,269.2266,52,273.2266,62,277.2266,58,273.2266" style="stroke: #A80036; stroke-width: 1.0;"/><line style="stroke: #A80036; stroke-width: 1.0;" x1="56" x2="442" y1="273.2266" y2="273.2266"/><text fill="#000000" font-family="sans-serif" font-size="13" lengthAdjust="spacingAndGlyphs" textLength="107" x="68" y="268.2935">"Resource Data"</text><!--
@startuml
hide footbox
 
 activate Browser
 Browser -> Portal: "portalReady"
 deactivate Browser
 activate Portal
 Portal -> PageResourceProvider: PortalReady 
 activate PageResourceProvider
 PageResourceProvider -> Portal: AddPageResource
 deactivate PageResourceProvider
 Portal -> Browser: "addPageResource"
 deactivate Portal
 activate Browser
 deactivate Portal
 Browser -> Portal: "GET <page resource1 URL>"
 activate Portal
 Portal -> PageResourceProvider: PageResourceRequest
 deactivate Portal
 activate PageResourceProvider
 PageResourceProvider -> Browser: "Response Header"
 PageResourceProvider -> Browser: "Resource Data"
 deactivate PageResourceProvider
@enduml

PlantUML version 1.2017.18(Fri Oct 06 18:56:32 CEST 2017)
(GPL source distribution)
Java Runtime: OpenJDK Runtime Environment
JVM: OpenJDK 64-Bit Server VM
Java Version: 1.8.0_151-b12
Operating System: Linux
OS Version: 4.14.11-300.fc27.x86_64
Default Encoding: UTF-8
Language: de
Country: DE
--></g></svg>