<?xml version="1.0" encoding="UTF-8" standalone="no"?><svg xmlns="http://www.w3.org/2000/svg" xmlns:xlink="http://www.w3.org/1999/xlink" contentScriptType="application/ecmascript" contentStyleType="text/css" height="295px" preserveAspectRatio="none" style="width:566px;height:295px;" version="1.1" viewBox="0 0 566 295" width="566px" zoomAndPan="magnify"><defs><filter height="300%" id="ffiv31zvsnyiz" width="300%" x="-1" y="-1"><feGaussianBlur result="blurOut" stdDeviation="2.0"/><feColorMatrix in="blurOut" result="blurOut2" type="matrix" values="0 0 0 0 0 0 0 0 0 0 0 0 0 0 0 0 0 0 .4 0"/><feOffset dx="4.0" dy="4.0" in="blurOut2" result="blurOut3"/><feBlend in="SourceGraphic" in2="blurOut3" mode="normal"/></filter></defs><g><rect fill="#FFFFFF" filter="url(#ffiv31zvsnyiz)" height="50.1265" style="stroke: #A80036; stroke-width: 1.0;" width="10" x="32" y="96.29"/><rect fill="#FFFFFF" filter="url(#ffiv31zvsnyiz)" height="155.7588" style="stroke: #A80036; stroke-width: 1.0;" width="10" x="356.5" y="117.29"/><rect fill="#FFFFFF" filter="url(#ffiv31zvsnyiz)" height="75.3794" style="stroke: #000000; stroke-width: 2.0;" width="272.5" x="282.5" y="190.6694"/><line style="stroke: #A80036; stroke-width: 1.0; stroke-dasharray: 5.0,5.0;" x1="37" x2="37" y1="86.29" y2="283.0488"/><line style="stroke: #A80036; stroke-width: 1.0; stroke-dasharray: 5.0,5.0;" x1="240.5" x2="240.5" y1="86.29" y2="283.0488"/><line style="stroke: #A80036; stroke-width: 1.0; stroke-dasharray: 5.0,5.0;" x1="361.5" x2="361.5" y1="86.29" y2="283.0488"/><line style="stroke: #A80036; stroke-width: 1.0; stroke-dasharray: 5.0,5.0;" x1="508" x2="508" y1="86.29" y2="283.0488"/><rect fill="#FEFECE" filter="url(#ffiv31zvsnyiz)" height="30.29" style="stroke: #A80036; stroke-width: 1.5;" width="54" x="8" y="51"/><text fill="#000000" font-family="sans-serif" font-size="14" lengthAdjust="spacingAndGlyphs" textLength="40" x="15" y="71.3027">Portal</text><text fill="#000000" font-family="sans-serif" font-size="14" lengthAdjust="spacingAndGlyphs" textLength="77" x="199.5" y="83.3027">Framework</text><ellipse cx="241" cy="13" fill="#FEFECE" filter="url(#ffiv31zvsnyiz)" rx="8" ry="8" style="stroke: #A80036; stroke-width: 2.0;"/><path d="M241,21 L241,48 M228,29 L254,29 M241,48 L228,63 M241,48 L254,63 " fill="#FEFECE" filter="url(#ffiv31zvsnyiz)" style="stroke: #A80036; stroke-width: 2.0;"/><rect fill="#FEFECE" filter="url(#ffiv31zvsnyiz)" height="30.29" style="stroke: #A80036; stroke-width: 1.5;" width="134" x="292.5" y="51"/><text fill="#000000" font-family="sans-serif" font-size="14" lengthAdjust="spacingAndGlyphs" textLength="120" x="299.5" y="71.3027">ResourceProvider</text><rect fill="#FEFECE" filter="url(#ffiv31zvsnyiz)" height="30.29" style="stroke: #A80036; stroke-width: 1.5;" width="69" x="472" y="51"/><text fill="#000000" font-family="sans-serif" font-size="14" lengthAdjust="spacingAndGlyphs" textLength="55" x="479" y="71.3027">Browser</text><rect fill="#FFFFFF" filter="url(#ffiv31zvsnyiz)" height="50.1265" style="stroke: #A80036; stroke-width: 1.0;" width="10" x="32" y="96.29"/><rect fill="#FFFFFF" filter="url(#ffiv31zvsnyiz)" height="155.7588" style="stroke: #A80036; stroke-width: 1.0;" width="10" x="356.5" y="117.29"/><polygon fill="#A80036" points="344.5,113.29,354.5,117.29,344.5,121.29,348.5,117.29" style="stroke: #A80036; stroke-width: 1.0;"/><line style="stroke: #A80036; stroke-width: 1.0;" x1="42" x2="350.5" y1="117.29" y2="117.29"/><text fill="#000000" font-family="sans-serif" font-size="13" lengthAdjust="spacingAndGlyphs" textLength="107" x="49" y="112.6426">ResourceRequest</text><polygon fill="#A80036" points="48,142.4165,38,146.4165,48,150.4165,44,146.4165" style="stroke: #A80036; stroke-width: 1.0;"/><line style="stroke: #A80036; stroke-width: 1.0;" x1="42" x2="240" y1="146.4165" y2="146.4165"/><text fill="#000000" font-family="sans-serif" font-size="13" lengthAdjust="spacingAndGlyphs" textLength="175" x="54" y="141.769">ResourceRequestCompleted</text><polygon fill="#A80036" points="496.5,171.543,506.5,175.543,496.5,179.543,500.5,175.543" style="stroke: #A80036; stroke-width: 1.0;"/><line style="stroke: #A80036; stroke-width: 1.0;" x1="366.5" x2="502.5" y1="175.543" y2="175.543"/><text fill="#000000" font-family="sans-serif" font-size="13" lengthAdjust="spacingAndGlyphs" textLength="118" x="373.5" y="170.8955">"Response Header"</text><rect fill="none" height="75.3794" style="stroke: #000000; stroke-width: 2.0;" width="272.5" x="282.5" y="190.6694"/><polygon fill="#EEEEEE" points="282.5,190.6694,359.5,190.6694,359.5,197.6694,349.5,207.6694,282.5,207.6694,282.5,190.6694" style="stroke: #000000; stroke-width: 2.0;"/><text fill="#000000" font-family="sans-serif" font-size="13" font-weight="bold" lengthAdjust="spacingAndGlyphs" textLength="32" x="297.5" y="204.022">loop</text><text fill="#000000" font-family="sans-serif" font-size="11" font-weight="bold" lengthAdjust="spacingAndGlyphs" textLength="114" x="374.5" y="203.1216">[until end of data]</text><polygon fill="#A80036" points="496.5,224.7959,506.5,228.7959,496.5,232.7959,500.5,228.7959" style="stroke: #A80036; stroke-width: 1.0;"/><line style="stroke: #A80036; stroke-width: 1.0;" x1="366.5" x2="502.5" y1="228.7959" y2="228.7959"/><text fill="#000000" font-family="sans-serif" font-size="13" lengthAdjust="spacingAndGlyphs" textLength="44" x="373.5" y="224.1484">Output</text><polygon fill="#A80036" points="496.5,253.9224,506.5,257.9224,496.5,261.9224,500.5,257.9224" style="stroke: #A80036; stroke-width: 1.0;"/><line style="stroke: #A80036; stroke-width: 1.0;" x1="366.5" x2="502.5" y1="257.9224" y2="257.9224"/><text fill="#000000" font-family="sans-serif" font-size="13" lengthAdjust="spacingAndGlyphs" textLength="105" x="373.5" y="253.2749">"Response body"</text><!--
@startuml
hide footbox
 
 activate Portal
 actor Framework
 Portal -> ResourceProvider: ResourceRequest
 activate ResourceProvider
 Framework -> Portal: ResourceRequestCompleted
 deactivate Portal
 ResourceProvider -> Browser: "Response Header"
 loop until end of data
     ResourceProvider -> Browser: Output
     ResourceProvider -> Browser: "Response body"
     deactivate Portal
 end loop
 deactivate ResourceProvider
 deactivate Browser
@enduml

PlantUML version 1.2017.18(Fri Oct 06 16:56:32 UTC 2017)
(GPL source distribution)
Java Runtime: Java(TM) SE Runtime Environment
JVM: Java HotSpot(TM) 64-Bit Server VM
Java Version: 9.0.1+11
Operating System: Linux
OS Version: 4.14.12-041412-generic
Default Encoding: UTF-8
Language: en
Country: US
--></g></svg>