<?xml version="1.0" encoding="UTF-8" standalone="no"?><svg xmlns="http://www.w3.org/2000/svg" xmlns:xlink="http://www.w3.org/1999/xlink" contentScriptType="application/ecmascript" contentStyleType="text/css" height="325px" preserveAspectRatio="none" style="width:554px;height:325px;" version="1.1" viewBox="0 0 554 325" width="554px" zoomAndPan="magnify"><defs><filter height="300%" id="f719g79zcwfuq" width="300%" x="-1" y="-1"><feGaussianBlur result="blurOut" stdDeviation="2.0"/><feColorMatrix in="blurOut" result="blurOut2" type="matrix" values="0 0 0 0 0 0 0 0 0 0 0 0 0 0 0 0 0 0 .4 0"/><feOffset dx="4.0" dy="4.0" in="blurOut2" result="blurOut3"/><feBlend in="SourceGraphic" in2="blurOut3" mode="normal"/></filter></defs><g><rect fill="#FFFFFF" filter="url(#f719g79zcwfuq)" height="51" style="stroke: #A80036; stroke-width: 1.0;" width="10" x="46.5" y="96.2969"/><rect fill="#FFFFFF" filter="url(#f719g79zcwfuq)" height="111.5313" style="stroke: #A80036; stroke-width: 1.0;" width="10" x="46.5" y="176.4297"/><rect fill="#FFFFFF" filter="url(#f719g79zcwfuq)" height="30" style="stroke: #A80036; stroke-width: 1.0;" width="10" x="373" y="117.2969"/><rect fill="#FFFFFF" filter="url(#f719g79zcwfuq)" height="75.3984" style="stroke: #000000; stroke-width: 2.0;" width="530.5" x="13" y="220.6953"/><line style="stroke: #A80036; stroke-width: 1.0; stroke-dasharray: 5.0,5.0;" x1="51" x2="51" y1="86.2969" y2="313.0938"/><line style="stroke: #A80036; stroke-width: 1.0; stroke-dasharray: 5.0,5.0;" x1="256.5" x2="256.5" y1="86.2969" y2="313.0938"/><line style="stroke: #A80036; stroke-width: 1.0; stroke-dasharray: 5.0,5.0;" x1="377.5" x2="377.5" y1="86.2969" y2="313.0938"/><line style="stroke: #A80036; stroke-width: 1.0; stroke-dasharray: 5.0,5.0;" x1="495.5" x2="495.5" y1="86.2969" y2="313.0938"/><rect fill="#FEFECE" filter="url(#f719g79zcwfuq)" height="30.2969" style="stroke: #A80036; stroke-width: 1.5;" width="53" x="23" y="51"/><text fill="#000000" font-family="sans-serif" font-size="14" lengthAdjust="spacingAndGlyphs" textLength="39" x="30" y="70.9951">Portal</text><text fill="#000000" font-family="sans-serif" font-size="14" lengthAdjust="spacingAndGlyphs" textLength="76" x="215.5" y="82.9951">Framework</text><ellipse cx="256.5" cy="13" fill="#FEFECE" filter="url(#f719g79zcwfuq)" rx="8" ry="8" style="stroke: #A80036; stroke-width: 2.0;"/><path d="M256.5,21 L256.5,48 M243.5,29 L269.5,29 M256.5,48 L243.5,63 M256.5,48 L269.5,63 " fill="#FEFECE" filter="url(#f719g79zcwfuq)" style="stroke: #A80036; stroke-width: 2.0;"/><rect fill="#FEFECE" filter="url(#f719g79zcwfuq)" height="30.2969" style="stroke: #A80036; stroke-width: 1.5;" width="137" x="307.5" y="51"/><text fill="#000000" font-family="sans-serif" font-size="14" lengthAdjust="spacingAndGlyphs" textLength="123" x="314.5" y="70.9951">ResourceProvider</text><rect fill="#FEFECE" filter="url(#f719g79zcwfuq)" height="30.2969" style="stroke: #A80036; stroke-width: 1.5;" width="71" x="458.5" y="51"/><text fill="#000000" font-family="sans-serif" font-size="14" lengthAdjust="spacingAndGlyphs" textLength="57" x="465.5" y="70.9951">Browser</text><rect fill="#FFFFFF" filter="url(#f719g79zcwfuq)" height="51" style="stroke: #A80036; stroke-width: 1.0;" width="10" x="46.5" y="96.2969"/><rect fill="#FFFFFF" filter="url(#f719g79zcwfuq)" height="111.5313" style="stroke: #A80036; stroke-width: 1.0;" width="10" x="46.5" y="176.4297"/><rect fill="#FFFFFF" filter="url(#f719g79zcwfuq)" height="30" style="stroke: #A80036; stroke-width: 1.0;" width="10" x="373" y="117.2969"/><polygon fill="#A80036" points="361,113.2969,371,117.2969,361,121.2969,365,117.2969" style="stroke: #A80036; stroke-width: 1.0;"/><line style="stroke: #A80036; stroke-width: 1.0;" x1="56.5" x2="367" y1="117.2969" y2="117.2969"/><text fill="#000000" font-family="sans-serif" font-size="13" lengthAdjust="spacingAndGlyphs" textLength="111" x="63.5" y="112.3638">ResourceRequest</text><polygon fill="#A80036" points="67.5,172.4297,57.5,176.4297,67.5,180.4297,63.5,176.4297" style="stroke: #A80036; stroke-width: 1.0;"/><line style="stroke: #A80036; stroke-width: 1.0;" x1="61.5" x2="255.5" y1="176.4297" y2="176.4297"/><text fill="#000000" font-family="sans-serif" font-size="13" lengthAdjust="spacingAndGlyphs" textLength="181" x="73.5" y="171.4966">ResourceRequestCompleted</text><polygon fill="#A80036" points="484,201.5625,494,205.5625,484,209.5625,488,205.5625" style="stroke: #A80036; stroke-width: 1.0;"/><line style="stroke: #A80036; stroke-width: 1.0;" x1="56.5" x2="490" y1="205.5625" y2="205.5625"/><text fill="#000000" font-family="sans-serif" font-size="13" lengthAdjust="spacingAndGlyphs" textLength="123" x="63.5" y="200.6294">"Response Header"</text><rect fill="none" height="75.3984" style="stroke: #000000; stroke-width: 2.0;" width="530.5" x="13" y="220.6953"/><polygon fill="#EEEEEE" points="13,220.6953,90,220.6953,90,227.6953,80,237.6953,13,237.6953,13,220.6953" style="stroke: #000000; stroke-width: 2.0;"/><text fill="#000000" font-family="sans-serif" font-size="13" font-weight="bold" lengthAdjust="spacingAndGlyphs" textLength="32" x="28" y="233.7622">loop</text><text fill="#000000" font-family="sans-serif" font-size="11" font-weight="bold" lengthAdjust="spacingAndGlyphs" textLength="117" x="105" y="232.9058">[until end of data]</text><polygon fill="#A80036" points="484,254.8281,494,258.8281,484,262.8281,488,258.8281" style="stroke: #A80036; stroke-width: 1.0;"/><line style="stroke: #A80036; stroke-width: 1.0;" x1="56.5" x2="490" y1="258.8281" y2="258.8281"/><text fill="#000000" font-family="sans-serif" font-size="13" lengthAdjust="spacingAndGlyphs" textLength="44" x="63.5" y="253.895">Output</text><polygon fill="#A80036" points="484,283.9609,494,287.9609,484,291.9609,488,287.9609" style="stroke: #A80036; stroke-width: 1.0;"/><line style="stroke: #A80036; stroke-width: 1.0;" x1="51.5" x2="490" y1="287.9609" y2="287.9609"/><text fill="#000000" font-family="sans-serif" font-size="13" lengthAdjust="spacingAndGlyphs" textLength="107" x="58.5" y="283.0278">"Response body"</text><!--
@startuml
hide footbox
 
 activate Portal
 actor Framework
 Portal -> ResourceProvider: ResourceRequest
 activate ResourceProvider
 deactivate ResourceProvider
 deactivate Portal
 Framework -> Portal: ResourceRequestCompleted
 activate Portal
 Portal -> Browser: "Response Header"
 loop until end of data
     Portal -> Browser: Output
     Portal -> Browser: "Response body"
     deactivate Portal
 end loop
 deactivate ResourceProvider
 deactivate Browser
@enduml

PlantUML version 1.2017.18(Fri Oct 06 16:56:32 UTC 2017)
(GPL source distribution)
Java Runtime: Java(TM) SE Runtime Environment
JVM: Java HotSpot(TM) 64-Bit Server VM
Java Version: 1.8.0_151-b12
Operating System: Linux
OS Version: 4.4.0-112-generic
Default Encoding: UTF-8
Language: en
Country: US
--></g></svg>