<?xml version="1.0" encoding="UTF-8" standalone="no"?><svg xmlns="http://www.w3.org/2000/svg" xmlns:xlink="http://www.w3.org/1999/xlink" contentScriptType="application/ecmascript" contentStyleType="text/css" height="325px" preserveAspectRatio="none" style="width:544px;height:325px;" version="1.1" viewBox="0 0 544 325" width="544px" zoomAndPan="magnify"><defs><filter height="300%" id="f719g79zcwfuq" width="300%" x="-1" y="-1"><feGaussianBlur result="blurOut" stdDeviation="2.0"/><feColorMatrix in="blurOut" result="blurOut2" type="matrix" values="0 0 0 0 0 0 0 0 0 0 0 0 0 0 0 0 0 0 .4 0"/><feOffset dx="4.0" dy="4.0" in="blurOut2" result="blurOut3"/><feBlend in="SourceGraphic" in2="blurOut3" mode="normal"/></filter></defs><g><rect fill="#FFFFFF" filter="url(#f719g79zcwfuq)" height="51" style="stroke: #A80036; stroke-width: 1.0;" width="10" x="47" y="96.29"/><rect fill="#FFFFFF" filter="url(#f719g79zcwfuq)" height="111.5059" style="stroke: #A80036; stroke-width: 1.0;" width="10" x="47" y="176.4165"/><rect fill="#FFFFFF" filter="url(#f719g79zcwfuq)" height="30" style="stroke: #A80036; stroke-width: 1.0;" width="10" x="366.5" y="117.29"/><rect fill="#FFFFFF" filter="url(#f719g79zcwfuq)" height="75.3794" style="stroke: #000000; stroke-width: 2.0;" width="520.5" x="13" y="220.6694"/><line style="stroke: #A80036; stroke-width: 1.0; stroke-dasharray: 5.0,5.0;" x1="52" x2="52" y1="86.29" y2="313.0488"/><line style="stroke: #A80036; stroke-width: 1.0; stroke-dasharray: 5.0,5.0;" x1="250.5" x2="250.5" y1="86.29" y2="313.0488"/><line style="stroke: #A80036; stroke-width: 1.0; stroke-dasharray: 5.0,5.0;" x1="371.5" x2="371.5" y1="86.29" y2="313.0488"/><line style="stroke: #A80036; stroke-width: 1.0; stroke-dasharray: 5.0,5.0;" x1="486.5" x2="486.5" y1="86.29" y2="313.0488"/><rect fill="#FEFECE" filter="url(#f719g79zcwfuq)" height="30.29" style="stroke: #A80036; stroke-width: 1.5;" width="54" x="23" y="51"/><text fill="#000000" font-family="sans-serif" font-size="14" lengthAdjust="spacingAndGlyphs" textLength="40" x="30" y="71.3027">Portal</text><text fill="#000000" font-family="sans-serif" font-size="14" lengthAdjust="spacingAndGlyphs" textLength="77" x="209.5" y="83.3027">Framework</text><ellipse cx="251" cy="13" fill="#FEFECE" filter="url(#f719g79zcwfuq)" rx="8" ry="8" style="stroke: #A80036; stroke-width: 2.0;"/><path d="M251,21 L251,48 M238,29 L264,29 M251,48 L238,63 M251,48 L264,63 " fill="#FEFECE" filter="url(#f719g79zcwfuq)" style="stroke: #A80036; stroke-width: 2.0;"/><rect fill="#FEFECE" filter="url(#f719g79zcwfuq)" height="30.29" style="stroke: #A80036; stroke-width: 1.5;" width="134" x="302.5" y="51"/><text fill="#000000" font-family="sans-serif" font-size="14" lengthAdjust="spacingAndGlyphs" textLength="120" x="309.5" y="71.3027">ResourceProvider</text><rect fill="#FEFECE" filter="url(#f719g79zcwfuq)" height="30.29" style="stroke: #A80036; stroke-width: 1.5;" width="69" x="450.5" y="51"/><text fill="#000000" font-family="sans-serif" font-size="14" lengthAdjust="spacingAndGlyphs" textLength="55" x="457.5" y="71.3027">Browser</text><rect fill="#FFFFFF" filter="url(#f719g79zcwfuq)" height="51" style="stroke: #A80036; stroke-width: 1.0;" width="10" x="47" y="96.29"/><rect fill="#FFFFFF" filter="url(#f719g79zcwfuq)" height="111.5059" style="stroke: #A80036; stroke-width: 1.0;" width="10" x="47" y="176.4165"/><rect fill="#FFFFFF" filter="url(#f719g79zcwfuq)" height="30" style="stroke: #A80036; stroke-width: 1.0;" width="10" x="366.5" y="117.29"/><polygon fill="#A80036" points="354.5,113.29,364.5,117.29,354.5,121.29,358.5,117.29" style="stroke: #A80036; stroke-width: 1.0;"/><line style="stroke: #A80036; stroke-width: 1.0;" x1="57" x2="360.5" y1="117.29" y2="117.29"/><text fill="#000000" font-family="sans-serif" font-size="13" lengthAdjust="spacingAndGlyphs" textLength="107" x="64" y="112.6426">ResourceRequest</text><polygon fill="#A80036" points="68,172.4165,58,176.4165,68,180.4165,64,176.4165" style="stroke: #A80036; stroke-width: 1.0;"/><line style="stroke: #A80036; stroke-width: 1.0;" x1="62" x2="250" y1="176.4165" y2="176.4165"/><text fill="#000000" font-family="sans-serif" font-size="13" lengthAdjust="spacingAndGlyphs" textLength="175" x="74" y="171.769">ResourceRequestCompleted</text><polygon fill="#A80036" points="475,201.543,485,205.543,475,209.543,479,205.543" style="stroke: #A80036; stroke-width: 1.0;"/><line style="stroke: #A80036; stroke-width: 1.0;" x1="57" x2="481" y1="205.543" y2="205.543"/><text fill="#000000" font-family="sans-serif" font-size="13" lengthAdjust="spacingAndGlyphs" textLength="118" x="64" y="200.8955">"Response Header"</text><rect fill="none" height="75.3794" style="stroke: #000000; stroke-width: 2.0;" width="520.5" x="13" y="220.6694"/><polygon fill="#EEEEEE" points="13,220.6694,90,220.6694,90,227.6694,80,237.6694,13,237.6694,13,220.6694" style="stroke: #000000; stroke-width: 2.0;"/><text fill="#000000" font-family="sans-serif" font-size="13" font-weight="bold" lengthAdjust="spacingAndGlyphs" textLength="32" x="28" y="234.022">loop</text><text fill="#000000" font-family="sans-serif" font-size="11" font-weight="bold" lengthAdjust="spacingAndGlyphs" textLength="114" x="105" y="233.1216">[until end of data]</text><polygon fill="#A80036" points="475,254.7959,485,258.7959,475,262.7959,479,258.7959" style="stroke: #A80036; stroke-width: 1.0;"/><line style="stroke: #A80036; stroke-width: 1.0;" x1="57" x2="481" y1="258.7959" y2="258.7959"/><text fill="#000000" font-family="sans-serif" font-size="13" lengthAdjust="spacingAndGlyphs" textLength="44" x="64" y="254.1484">Output</text><polygon fill="#A80036" points="475,283.9224,485,287.9224,475,291.9224,479,287.9224" style="stroke: #A80036; stroke-width: 1.0;"/><line style="stroke: #A80036; stroke-width: 1.0;" x1="52" x2="481" y1="287.9224" y2="287.9224"/><text fill="#000000" font-family="sans-serif" font-size="13" lengthAdjust="spacingAndGlyphs" textLength="105" x="59" y="283.2749">"Response body"</text><!--
@startuml
hide footbox
 
 activate Portal
 actor Framework
 Portal -> ResourceProvider: ResourceRequest
 activate ResourceProvider
 deactivate ResourceProvider
 deactivate Portal
 Framework -> Portal: ResourceRequestCompleted
 activate Portal
 Portal -> Browser: "Response Header"
 loop until end of data
     Portal -> Browser: Output
     Portal -> Browser: "Response body"
     deactivate Portal
 end loop
 deactivate ResourceProvider
 deactivate Browser
@enduml

PlantUML version 1.2017.18(Fri Oct 06 16:56:32 UTC 2017)
(GPL source distribution)
Java Runtime: Java(TM) SE Runtime Environment
JVM: Java HotSpot(TM) 64-Bit Server VM
Java Version: 9.0.1+11
Operating System: Linux
OS Version: 4.14.12-041412-generic
Default Encoding: UTF-8
Language: en
Country: US
--></g></svg>