<?xml version="1.0" encoding="UTF-8" standalone="no"?><svg xmlns="http://www.w3.org/2000/svg" xmlns:xlink="http://www.w3.org/1999/xlink" contentScriptType="application/ecmascript" contentStyleType="text/css" height="295px" preserveAspectRatio="none" style="width:589px;height:295px;" version="1.1" viewBox="0 0 589 295" width="589px" zoomAndPan="magnify"><defs><filter height="300%" id="ffiv31zvsnyiz" width="300%" x="-1" y="-1"><feGaussianBlur result="blurOut" stdDeviation="2.0"/><feColorMatrix in="blurOut" result="blurOut2" type="matrix" values="0 0 0 0 0 0 0 0 0 0 0 0 0 0 0 0 0 0 .4 0"/><feOffset dx="4.0" dy="4.0" in="blurOut2" result="blurOut3"/><feBlend in="SourceGraphic" in2="blurOut3" mode="normal"/></filter></defs><g><rect fill="#FFFFFF" filter="url(#ffiv31zvsnyiz)" height="50.1328" style="stroke: #A80036; stroke-width: 1.0;" width="10" x="32.5" y="96.2969"/><rect fill="#FFFFFF" filter="url(#ffiv31zvsnyiz)" height="155.7969" style="stroke: #A80036; stroke-width: 1.0;" width="10" x="370.5" y="117.2969"/><rect fill="#FFFFFF" filter="url(#ffiv31zvsnyiz)" height="75.3984" style="stroke: #000000; stroke-width: 2.0;" width="285" x="293.5" y="190.6953"/><line style="stroke: #A80036; stroke-width: 1.0; stroke-dasharray: 5.0,5.0;" x1="37" x2="37" y1="86.2969" y2="283.0938"/><line style="stroke: #A80036; stroke-width: 1.0; stroke-dasharray: 5.0,5.0;" x1="250.5" x2="250.5" y1="86.2969" y2="283.0938"/><line style="stroke: #A80036; stroke-width: 1.0; stroke-dasharray: 5.0,5.0;" x1="375.5" x2="375.5" y1="86.2969" y2="283.0938"/><line style="stroke: #A80036; stroke-width: 1.0; stroke-dasharray: 5.0,5.0;" x1="530.5" x2="530.5" y1="86.2969" y2="283.0938"/><rect fill="#FEFECE" filter="url(#ffiv31zvsnyiz)" height="30.2969" style="stroke: #A80036; stroke-width: 1.5;" width="55" x="8" y="51"/><text fill="#000000" font-family="sans-serif" font-size="14" lengthAdjust="spacingAndGlyphs" textLength="41" x="15" y="70.9951">Portal</text><text fill="#000000" font-family="sans-serif" font-size="14" lengthAdjust="spacingAndGlyphs" textLength="80" x="207.5" y="82.9951">Framework</text><ellipse cx="250.5" cy="13" fill="#FEFECE" filter="url(#ffiv31zvsnyiz)" rx="8" ry="8" style="stroke: #A80036; stroke-width: 2.0;"/><path d="M250.5,21 L250.5,48 M237.5,29 L263.5,29 M250.5,48 L237.5,63 M250.5,48 L263.5,63 " fill="#FEFECE" filter="url(#ffiv31zvsnyiz)" style="stroke: #A80036; stroke-width: 2.0;"/><rect fill="#FEFECE" filter="url(#ffiv31zvsnyiz)" height="30.2969" style="stroke: #A80036; stroke-width: 1.5;" width="140" x="303.5" y="51"/><text fill="#000000" font-family="sans-serif" font-size="14" lengthAdjust="spacingAndGlyphs" textLength="126" x="310.5" y="70.9951">ResourceProvider</text><rect fill="#FEFECE" filter="url(#ffiv31zvsnyiz)" height="30.2969" style="stroke: #A80036; stroke-width: 1.5;" width="72" x="492.5" y="51"/><text fill="#000000" font-family="sans-serif" font-size="14" lengthAdjust="spacingAndGlyphs" textLength="58" x="499.5" y="70.9951">Browser</text><rect fill="#FFFFFF" filter="url(#ffiv31zvsnyiz)" height="50.1328" style="stroke: #A80036; stroke-width: 1.0;" width="10" x="32.5" y="96.2969"/><rect fill="#FFFFFF" filter="url(#ffiv31zvsnyiz)" height="155.7969" style="stroke: #A80036; stroke-width: 1.0;" width="10" x="370.5" y="117.2969"/><polygon fill="#A80036" points="358.5,113.2969,368.5,117.2969,358.5,121.2969,362.5,117.2969" style="stroke: #A80036; stroke-width: 1.0;"/><line style="stroke: #A80036; stroke-width: 1.0;" x1="42.5" x2="364.5" y1="117.2969" y2="117.2969"/><text fill="#000000" font-family="sans-serif" font-size="13" lengthAdjust="spacingAndGlyphs" textLength="113" x="49.5" y="112.3638">ResourceRequest</text><polygon fill="#A80036" points="48.5,142.4297,38.5,146.4297,48.5,150.4297,44.5,146.4297" style="stroke: #A80036; stroke-width: 1.0;"/><line style="stroke: #A80036; stroke-width: 1.0;" x1="42.5" x2="249.5" y1="146.4297" y2="146.4297"/><text fill="#000000" font-family="sans-serif" font-size="13" lengthAdjust="spacingAndGlyphs" textLength="184" x="54.5" y="141.4966">ResourceRequestCompleted</text><polygon fill="#A80036" points="518.5,171.5625,528.5,175.5625,518.5,179.5625,522.5,175.5625" style="stroke: #A80036; stroke-width: 1.0;"/><line style="stroke: #A80036; stroke-width: 1.0;" x1="380.5" x2="524.5" y1="175.5625" y2="175.5625"/><text fill="#000000" font-family="sans-serif" font-size="13" lengthAdjust="spacingAndGlyphs" textLength="126" x="387.5" y="170.6294">"Response Header"</text><rect fill="none" height="75.3984" style="stroke: #000000; stroke-width: 2.0;" width="285" x="293.5" y="190.6953"/><polygon fill="#EEEEEE" points="293.5,190.6953,369.5,190.6953,369.5,197.6953,359.5,207.6953,293.5,207.6953,293.5,190.6953" style="stroke: #000000; stroke-width: 2.0;"/><text fill="#000000" font-family="sans-serif" font-size="13" font-weight="bold" lengthAdjust="spacingAndGlyphs" textLength="31" x="308.5" y="203.7622">loop</text><text fill="#000000" font-family="sans-serif" font-size="11" font-weight="bold" lengthAdjust="spacingAndGlyphs" textLength="114" x="384.5" y="202.9058">[until end of data]</text><polygon fill="#A80036" points="518.5,224.8281,528.5,228.8281,518.5,232.8281,522.5,228.8281" style="stroke: #A80036; stroke-width: 1.0;"/><line style="stroke: #A80036; stroke-width: 1.0;" x1="380.5" x2="524.5" y1="228.8281" y2="228.8281"/><text fill="#000000" font-family="sans-serif" font-size="13" lengthAdjust="spacingAndGlyphs" textLength="44" x="387.5" y="223.895">Output</text><polygon fill="#A80036" points="518.5,253.9609,528.5,257.9609,518.5,261.9609,522.5,257.9609" style="stroke: #A80036; stroke-width: 1.0;"/><line style="stroke: #A80036; stroke-width: 1.0;" x1="380.5" x2="524.5" y1="257.9609" y2="257.9609"/><text fill="#000000" font-family="sans-serif" font-size="13" lengthAdjust="spacingAndGlyphs" textLength="111" x="387.5" y="253.0278">"Response body"</text><!--
@startuml
hide footbox
 
 activate Portal
 actor Framework
 Portal -> ResourceProvider: ResourceRequest
 activate ResourceProvider
 Framework -> Portal: ResourceRequestCompleted
 deactivate Portal
 ResourceProvider -> Browser: "Response Header"
 loop until end of data
     ResourceProvider -> Browser: Output
     ResourceProvider -> Browser: "Response body"
     deactivate Portal
 end loop
 deactivate ResourceProvider
 deactivate Browser
@enduml

PlantUML version 1.2017.18(Fri Oct 06 18:56:32 CEST 2017)
(GPL source distribution)
Java Runtime: OpenJDK Runtime Environment
JVM: OpenJDK 64-Bit Server VM
Java Version: 1.8.0_171-b10
Operating System: Linux
OS Version: 4.16.4-200.fc27.x86_64
Default Encoding: UTF-8
Language: de
Country: DE
--></g></svg>