<?xml version="1.0" encoding="UTF-8" standalone="no"?><svg xmlns="http://www.w3.org/2000/svg" xmlns:xlink="http://www.w3.org/1999/xlink" contentScriptType="application/ecmascript" contentStyleType="text/css" height="325px" preserveAspectRatio="none" style="width:564px;height:325px;" version="1.1" viewBox="0 0 564 325" width="564px" zoomAndPan="magnify"><defs><filter height="300%" id="f719g79zcwfuq" width="300%" x="-1" y="-1"><feGaussianBlur result="blurOut" stdDeviation="2.0"/><feColorMatrix in="blurOut" result="blurOut2" type="matrix" values="0 0 0 0 0 0 0 0 0 0 0 0 0 0 0 0 0 0 .4 0"/><feOffset dx="4.0" dy="4.0" in="blurOut2" result="blurOut3"/><feBlend in="SourceGraphic" in2="blurOut3" mode="normal"/></filter></defs><g><rect fill="#FFFFFF" filter="url(#f719g79zcwfuq)" height="51" style="stroke: #A80036; stroke-width: 1.0;" width="10" x="47.5" y="96.2969"/><rect fill="#FFFFFF" filter="url(#f719g79zcwfuq)" height="111.5313" style="stroke: #A80036; stroke-width: 1.0;" width="10" x="47.5" y="176.4297"/><rect fill="#FFFFFF" filter="url(#f719g79zcwfuq)" height="30" style="stroke: #A80036; stroke-width: 1.0;" width="10" x="380.5" y="117.2969"/><rect fill="#FFFFFF" filter="url(#f719g79zcwfuq)" height="75.3984" style="stroke: #000000; stroke-width: 2.0;" width="540.5" x="13" y="220.6953"/><line style="stroke: #A80036; stroke-width: 1.0; stroke-dasharray: 5.0,5.0;" x1="52" x2="52" y1="86.2969" y2="313.0938"/><line style="stroke: #A80036; stroke-width: 1.0; stroke-dasharray: 5.0,5.0;" x1="260.5" x2="260.5" y1="86.2969" y2="313.0938"/><line style="stroke: #A80036; stroke-width: 1.0; stroke-dasharray: 5.0,5.0;" x1="385.5" x2="385.5" y1="86.2969" y2="313.0938"/><line style="stroke: #A80036; stroke-width: 1.0; stroke-dasharray: 5.0,5.0;" x1="505.5" x2="505.5" y1="86.2969" y2="313.0938"/><rect fill="#FEFECE" filter="url(#f719g79zcwfuq)" height="30.2969" style="stroke: #A80036; stroke-width: 1.5;" width="55" x="23" y="51"/><text fill="#000000" font-family="sans-serif" font-size="14" lengthAdjust="spacingAndGlyphs" textLength="41" x="30" y="70.9951">Portal</text><text fill="#000000" font-family="sans-serif" font-size="14" lengthAdjust="spacingAndGlyphs" textLength="80" x="217.5" y="82.9951">Framework</text><ellipse cx="260.5" cy="13" fill="#FEFECE" filter="url(#f719g79zcwfuq)" rx="8" ry="8" style="stroke: #A80036; stroke-width: 2.0;"/><path d="M260.5,21 L260.5,48 M247.5,29 L273.5,29 M260.5,48 L247.5,63 M260.5,48 L273.5,63 " fill="#FEFECE" filter="url(#f719g79zcwfuq)" style="stroke: #A80036; stroke-width: 2.0;"/><rect fill="#FEFECE" filter="url(#f719g79zcwfuq)" height="30.2969" style="stroke: #A80036; stroke-width: 1.5;" width="140" x="313.5" y="51"/><text fill="#000000" font-family="sans-serif" font-size="14" lengthAdjust="spacingAndGlyphs" textLength="126" x="320.5" y="70.9951">ResourceProvider</text><rect fill="#FEFECE" filter="url(#f719g79zcwfuq)" height="30.2969" style="stroke: #A80036; stroke-width: 1.5;" width="72" x="467.5" y="51"/><text fill="#000000" font-family="sans-serif" font-size="14" lengthAdjust="spacingAndGlyphs" textLength="58" x="474.5" y="70.9951">Browser</text><rect fill="#FFFFFF" filter="url(#f719g79zcwfuq)" height="51" style="stroke: #A80036; stroke-width: 1.0;" width="10" x="47.5" y="96.2969"/><rect fill="#FFFFFF" filter="url(#f719g79zcwfuq)" height="111.5313" style="stroke: #A80036; stroke-width: 1.0;" width="10" x="47.5" y="176.4297"/><rect fill="#FFFFFF" filter="url(#f719g79zcwfuq)" height="30" style="stroke: #A80036; stroke-width: 1.0;" width="10" x="380.5" y="117.2969"/><polygon fill="#A80036" points="368.5,113.2969,378.5,117.2969,368.5,121.2969,372.5,117.2969" style="stroke: #A80036; stroke-width: 1.0;"/><line style="stroke: #A80036; stroke-width: 1.0;" x1="57.5" x2="374.5" y1="117.2969" y2="117.2969"/><text fill="#000000" font-family="sans-serif" font-size="13" lengthAdjust="spacingAndGlyphs" textLength="113" x="64.5" y="112.3638">ResourceRequest</text><polygon fill="#A80036" points="68.5,172.4297,58.5,176.4297,68.5,180.4297,64.5,176.4297" style="stroke: #A80036; stroke-width: 1.0;"/><line style="stroke: #A80036; stroke-width: 1.0;" x1="62.5" x2="259.5" y1="176.4297" y2="176.4297"/><text fill="#000000" font-family="sans-serif" font-size="13" lengthAdjust="spacingAndGlyphs" textLength="184" x="74.5" y="171.4966">ResourceRequestCompleted</text><polygon fill="#A80036" points="493.5,201.5625,503.5,205.5625,493.5,209.5625,497.5,205.5625" style="stroke: #A80036; stroke-width: 1.0;"/><line style="stroke: #A80036; stroke-width: 1.0;" x1="57.5" x2="499.5" y1="205.5625" y2="205.5625"/><text fill="#000000" font-family="sans-serif" font-size="13" lengthAdjust="spacingAndGlyphs" textLength="126" x="64.5" y="200.6294">"Response Header"</text><rect fill="none" height="75.3984" style="stroke: #000000; stroke-width: 2.0;" width="540.5" x="13" y="220.6953"/><polygon fill="#EEEEEE" points="13,220.6953,89,220.6953,89,227.6953,79,237.6953,13,237.6953,13,220.6953" style="stroke: #000000; stroke-width: 2.0;"/><text fill="#000000" font-family="sans-serif" font-size="13" font-weight="bold" lengthAdjust="spacingAndGlyphs" textLength="31" x="28" y="233.7622">loop</text><text fill="#000000" font-family="sans-serif" font-size="11" font-weight="bold" lengthAdjust="spacingAndGlyphs" textLength="114" x="104" y="232.9058">[until end of data]</text><polygon fill="#A80036" points="493.5,254.8281,503.5,258.8281,493.5,262.8281,497.5,258.8281" style="stroke: #A80036; stroke-width: 1.0;"/><line style="stroke: #A80036; stroke-width: 1.0;" x1="57.5" x2="499.5" y1="258.8281" y2="258.8281"/><text fill="#000000" font-family="sans-serif" font-size="13" lengthAdjust="spacingAndGlyphs" textLength="44" x="64.5" y="253.895">Output</text><polygon fill="#A80036" points="493.5,283.9609,503.5,287.9609,493.5,291.9609,497.5,287.9609" style="stroke: #A80036; stroke-width: 1.0;"/><line style="stroke: #A80036; stroke-width: 1.0;" x1="52.5" x2="499.5" y1="287.9609" y2="287.9609"/><text fill="#000000" font-family="sans-serif" font-size="13" lengthAdjust="spacingAndGlyphs" textLength="111" x="59.5" y="283.0278">"Response body"</text><!--
@startuml
hide footbox
 
 activate Portal
 actor Framework
 Portal -> ResourceProvider: ResourceRequest
 activate ResourceProvider
 deactivate ResourceProvider
 deactivate Portal
 Framework -> Portal: ResourceRequestCompleted
 activate Portal
 Portal -> Browser: "Response Header"
 loop until end of data
     Portal -> Browser: Output
     Portal -> Browser: "Response body"
     deactivate Portal
 end loop
 deactivate ResourceProvider
 deactivate Browser
@enduml

PlantUML version 1.2017.18(Fri Oct 06 18:56:32 CEST 2017)
(GPL source distribution)
Java Runtime: OpenJDK Runtime Environment
JVM: OpenJDK 64-Bit Server VM
Java Version: 1.8.0_171-b10
Operating System: Linux
OS Version: 4.16.4-200.fc27.x86_64
Default Encoding: UTF-8
Language: de
Country: DE
--></g></svg>