<?xml version="1.0" encoding="UTF-8" standalone="no"?><svg xmlns="http://www.w3.org/2000/svg" xmlns:xlink="http://www.w3.org/1999/xlink" contentScriptType="application/ecmascript" contentStyleType="text/css" height="175px" preserveAspectRatio="none" style="width:353px;height:175px;" version="1.1" viewBox="0 0 353 175" width="353px" zoomAndPan="magnify"><defs><filter height="300%" id="flrkj4h" width="300%" x="-1" y="-1"><feGaussianBlur result="blurOut" stdDeviation="2.0"/><feColorMatrix in="blurOut" result="blurOut2" type="matrix" values="0 0 0 0 0 0 0 0 0 0 0 0 0 0 0 0 0 0 .4 0"/><feOffset dx="4.0" dy="4.0" in="blurOut2" result="blurOut3"/><feBlend in="SourceGraphic" in2="blurOut3" mode="normal"/></filter></defs><g><rect fill="#FFFFFF" filter="url(#flrkj4h)" height="29.1328" style="stroke: #A80036; stroke-width: 1.0;" width="10" x="163.5" y="69.2969"/><rect fill="#FFFFFF" filter="url(#flrkj4h)" height="29.1328" style="stroke: #A80036; stroke-width: 1.0;" width="10" x="163.5" y="127.5625"/><rect fill="#FFFFFF" filter="url(#flrkj4h)" height="29.1328" style="stroke: #A80036; stroke-width: 1.0;" width="10" x="311.5" y="98.4297"/><line style="stroke: #A80036; stroke-width: 1.0; stroke-dasharray: 5.0,5.0;" x1="45" x2="45" y1="38.2969" y2="174.8281"/><line style="stroke: #A80036; stroke-width: 1.0; stroke-dasharray: 5.0,5.0;" x1="168" x2="168" y1="38.2969" y2="174.8281"/><line style="stroke: #A80036; stroke-width: 1.0; stroke-dasharray: 5.0,5.0;" x1="316" x2="316" y1="38.2969" y2="174.8281"/><rect fill="#FEFECE" filter="url(#flrkj4h)" height="30.2969" style="stroke: #A80036; stroke-width: 1.5;" width="71" x="8" y="3"/><text fill="#000000" font-family="sans-serif" font-size="14" lengthAdjust="spacingAndGlyphs" textLength="57" x="15" y="22.9951">Browser</text><rect fill="#FEFECE" filter="url(#flrkj4h)" height="30.2969" style="stroke: #A80036; stroke-width: 1.5;" width="53" x="140" y="3"/><text fill="#000000" font-family="sans-serif" font-size="14" lengthAdjust="spacingAndGlyphs" textLength="39" x="147" y="22.9951">Portal</text><rect fill="#FEFECE" filter="url(#flrkj4h)" height="30.2969" style="stroke: #A80036; stroke-width: 1.5;" width="59" x="285" y="3"/><text fill="#000000" font-family="sans-serif" font-size="14" lengthAdjust="spacingAndGlyphs" textLength="45" x="292" y="22.9951">Portlet</text><rect fill="#FFFFFF" filter="url(#flrkj4h)" height="29.1328" style="stroke: #A80036; stroke-width: 1.0;" width="10" x="163.5" y="69.2969"/><rect fill="#FFFFFF" filter="url(#flrkj4h)" height="29.1328" style="stroke: #A80036; stroke-width: 1.0;" width="10" x="163.5" y="127.5625"/><rect fill="#FFFFFF" filter="url(#flrkj4h)" height="29.1328" style="stroke: #A80036; stroke-width: 1.0;" width="10" x="311.5" y="98.4297"/><polygon fill="#A80036" points="151.5,65.2969,161.5,69.2969,151.5,73.2969,155.5,69.2969" style="stroke: #A80036; stroke-width: 1.0;"/><line style="stroke: #A80036; stroke-width: 1.0;" x1="45.5" x2="157.5" y1="69.2969" y2="69.2969"/><text fill="#000000" font-family="sans-serif" font-size="13" lengthAdjust="spacingAndGlyphs" textLength="76" x="52.5" y="64.3638">"addPortlet"</text><polygon fill="#A80036" points="299.5,94.4297,309.5,98.4297,299.5,102.4297,303.5,98.4297" style="stroke: #A80036; stroke-width: 1.0;"/><line style="stroke: #A80036; stroke-width: 1.0;" x1="168.5" x2="305.5" y1="98.4297" y2="98.4297"/><text fill="#000000" font-family="sans-serif" font-size="13" lengthAdjust="spacingAndGlyphs" textLength="119" x="175.5" y="93.4966">AddPortletRequest</text><polygon fill="#A80036" points="184.5,123.5625,174.5,127.5625,184.5,131.5625,180.5,127.5625" style="stroke: #A80036; stroke-width: 1.0;"/><line style="stroke: #A80036; stroke-width: 1.0;" x1="178.5" x2="315.5" y1="127.5625" y2="127.5625"/><text fill="#000000" font-family="sans-serif" font-size="13" lengthAdjust="spacingAndGlyphs" textLength="87" x="190.5" y="122.6294">RenderPortlet</text><polygon fill="#A80036" points="56.5,152.6953,46.5,156.6953,56.5,160.6953,52.5,156.6953" style="stroke: #A80036; stroke-width: 1.0;"/><line style="stroke: #A80036; stroke-width: 1.0;" x1="50.5" x2="167.5" y1="156.6953" y2="156.6953"/><text fill="#000000" font-family="sans-serif" font-size="13" lengthAdjust="spacingAndGlyphs" textLength="94" x="62.5" y="151.7622">"renderPortlet"</text></g></svg>