<?xml version="1.0" encoding="UTF-8" standalone="no"?><svg xmlns="http://www.w3.org/2000/svg" xmlns:xlink="http://www.w3.org/1999/xlink" contentScriptType="application/ecmascript" contentStyleType="text/css" height="353px" preserveAspectRatio="none" style="width:551px;height:353px;" version="1.1" viewBox="0 0 551 353" width="551px" zoomAndPan="magnify"><defs><filter height="300%" id="f36v1dr" width="300%" x="-1" y="-1"><feGaussianBlur result="blurOut" stdDeviation="2.0"/><feColorMatrix in="blurOut" result="blurOut2" type="matrix" values="0 0 0 0 0 0 0 0 0 0 0 0 0 0 0 0 0 0 .4 0"/><feOffset dx="4.0" dy="4.0" in="blurOut2" result="blurOut3"/><feBlend in="SourceGraphic" in2="blurOut3" mode="normal"/></filter></defs><g><rect fill="#FFFFFF" filter="url(#f36v1dr)" height="21" style="stroke: #A80036; stroke-width: 1.0;" width="10" x="55" y="48.2969"/><rect fill="#FFFFFF" filter="url(#f36v1dr)" height="155.7969" style="stroke: #A80036; stroke-width: 1.0;" width="10" x="55" y="186.6953"/><rect fill="#FFFFFF" filter="url(#f36v1dr)" height="59.1328" style="stroke: #A80036; stroke-width: 1.0;" width="10" x="255" y="69.2969"/><rect fill="#FFFFFF" filter="url(#f36v1dr)" height="87.3984" style="stroke: #A80036; stroke-width: 1.0;" width="10" x="255" y="157.5625"/><rect fill="#FFFFFF" filter="url(#f36v1dr)" height="29.1328" style="stroke: #A80036; stroke-width: 1.0;" width="10" x="255" y="298.2266"/><rect fill="#FFFFFF" filter="url(#f36v1dr)" height="244.0625" style="stroke: #A80036; stroke-width: 1.0;" width="10" x="489" y="98.4297"/><rect fill="#FFFFFF" filter="url(#f36v1dr)" height="75.3984" style="stroke: #000000; stroke-width: 2.0;" width="529" x="13" y="260.0938"/><line style="stroke: #A80036; stroke-width: 1.0; stroke-dasharray: 5.0,5.0;" x1="60" x2="60" y1="38.2969" y2="352.4922"/><line style="stroke: #A80036; stroke-width: 1.0; stroke-dasharray: 5.0,5.0;" x1="259.5" x2="259.5" y1="38.2969" y2="352.4922"/><line style="stroke: #A80036; stroke-width: 1.0; stroke-dasharray: 5.0,5.0;" x1="494" x2="494" y1="38.2969" y2="352.4922"/><rect fill="#FEFECE" filter="url(#f36v1dr)" height="30.2969" style="stroke: #A80036; stroke-width: 1.5;" width="70" x="23" y="3"/><text fill="#000000" font-family="sans-serif" font-size="14" lengthAdjust="spacingAndGlyphs" textLength="56" x="30" y="22.9951">PortletX</text><rect fill="#FEFECE" filter="url(#f36v1dr)" height="30.2969" style="stroke: #A80036; stroke-width: 1.5;" width="55" x="230.5" y="3"/><text fill="#000000" font-family="sans-serif" font-size="14" lengthAdjust="spacingAndGlyphs" textLength="41" x="237.5" y="22.9951">Portal</text><rect fill="#FEFECE" filter="url(#f36v1dr)" height="30.2969" style="stroke: #A80036; stroke-width: 1.5;" width="72" x="456" y="3"/><text fill="#000000" font-family="sans-serif" font-size="14" lengthAdjust="spacingAndGlyphs" textLength="58" x="463" y="22.9951">Browser</text><rect fill="#FFFFFF" filter="url(#f36v1dr)" height="21" style="stroke: #A80036; stroke-width: 1.0;" width="10" x="55" y="48.2969"/><rect fill="#FFFFFF" filter="url(#f36v1dr)" height="155.7969" style="stroke: #A80036; stroke-width: 1.0;" width="10" x="55" y="186.6953"/><rect fill="#FFFFFF" filter="url(#f36v1dr)" height="59.1328" style="stroke: #A80036; stroke-width: 1.0;" width="10" x="255" y="69.2969"/><rect fill="#FFFFFF" filter="url(#f36v1dr)" height="87.3984" style="stroke: #A80036; stroke-width: 1.0;" width="10" x="255" y="157.5625"/><rect fill="#FFFFFF" filter="url(#f36v1dr)" height="29.1328" style="stroke: #A80036; stroke-width: 1.0;" width="10" x="255" y="298.2266"/><rect fill="#FFFFFF" filter="url(#f36v1dr)" height="244.0625" style="stroke: #A80036; stroke-width: 1.0;" width="10" x="489" y="98.4297"/><polygon fill="#A80036" points="243,65.2969,253,69.2969,243,73.2969,247,69.2969" style="stroke: #A80036; stroke-width: 1.0;"/><line style="stroke: #A80036; stroke-width: 1.0;" x1="60" x2="249" y1="69.2969" y2="69.2969"/><text fill="#000000" font-family="sans-serif" font-size="13" lengthAdjust="spacingAndGlyphs" textLength="100" x="67" y="64.3638">AddPortletType</text><polygon fill="#A80036" points="477,94.4297,487,98.4297,477,102.4297,481,98.4297" style="stroke: #A80036; stroke-width: 1.0;"/><line style="stroke: #A80036; stroke-width: 1.0;" x1="265" x2="483" y1="98.4297" y2="98.4297"/><text fill="#000000" font-family="sans-serif" font-size="13" lengthAdjust="spacingAndGlyphs" textLength="111" x="272" y="93.4966">"addPortletType"</text><polygon fill="#A80036" points="276,153.5625,266,157.5625,276,161.5625,272,157.5625" style="stroke: #A80036; stroke-width: 1.0;"/><line style="stroke: #A80036; stroke-width: 1.0;" x1="270" x2="488" y1="157.5625" y2="157.5625"/><text fill="#000000" font-family="sans-serif" font-size="13" lengthAdjust="spacingAndGlyphs" textLength="205" x="282" y="152.6294">"GET &lt;portlet resource1 URL&gt;"</text><polygon fill="#A80036" points="76,182.6953,66,186.6953,76,190.6953,72,186.6953" style="stroke: #A80036; stroke-width: 1.0;"/><line style="stroke: #A80036; stroke-width: 1.0;" x1="70" x2="254" y1="186.6953" y2="186.6953"/><text fill="#000000" font-family="sans-serif" font-size="13" lengthAdjust="spacingAndGlyphs" textLength="156" x="82" y="181.7622">PortletResourceRequest</text><polygon fill="#A80036" points="243,211.8281,253,215.8281,243,219.8281,247,215.8281" style="stroke: #A80036; stroke-width: 1.0;"/><line style="stroke: #A80036; stroke-width: 1.0;" x1="65" x2="249" y1="215.8281" y2="215.8281"/><text fill="#000000" font-family="sans-serif" font-size="13" lengthAdjust="spacingAndGlyphs" textLength="166" x="72" y="210.895">PortletResourceResponse</text><polygon fill="#A80036" points="477,240.9609,487,244.9609,477,248.9609,481,244.9609" style="stroke: #A80036; stroke-width: 1.0;"/><line style="stroke: #A80036; stroke-width: 1.0;" x1="260" x2="483" y1="244.9609" y2="244.9609"/><text fill="#000000" font-family="sans-serif" font-size="13" lengthAdjust="spacingAndGlyphs" textLength="126" x="267" y="240.0278">"Response Header"</text><rect fill="none" height="75.3984" style="stroke: #000000; stroke-width: 2.0;" width="529" x="13" y="260.0938"/><polygon fill="#EEEEEE" points="13,260.0938,89,260.0938,89,267.0938,79,277.0938,13,277.0938,13,260.0938" style="stroke: #000000; stroke-width: 2.0;"/><text fill="#000000" font-family="sans-serif" font-size="13" font-weight="bold" lengthAdjust="spacingAndGlyphs" textLength="31" x="28" y="273.1606">loop</text><text fill="#000000" font-family="sans-serif" font-size="11" font-weight="bold" lengthAdjust="spacingAndGlyphs" textLength="114" x="104" y="272.3042">[until end of data]</text><polygon fill="#A80036" points="243,294.2266,253,298.2266,243,302.2266,247,298.2266" style="stroke: #A80036; stroke-width: 1.0;"/><line style="stroke: #A80036; stroke-width: 1.0;" x1="65" x2="249" y1="298.2266" y2="298.2266"/><text fill="#000000" font-family="sans-serif" font-size="13" lengthAdjust="spacingAndGlyphs" textLength="44" x="72" y="293.2935">Output</text><polygon fill="#A80036" points="477,323.3594,487,327.3594,477,331.3594,481,327.3594" style="stroke: #A80036; stroke-width: 1.0;"/><line style="stroke: #A80036; stroke-width: 1.0;" x1="260" x2="483" y1="327.3594" y2="327.3594"/><text fill="#000000" font-family="sans-serif" font-size="13" lengthAdjust="spacingAndGlyphs" textLength="111" x="267" y="322.4263">"Response body"</text></g></svg>