<?xml version="1.0" encoding="UTF-8" standalone="no"?><svg xmlns="http://www.w3.org/2000/svg" xmlns:xlink="http://www.w3.org/1999/xlink" contentScriptType="application/ecmascript" contentStyleType="text/css" height="379px" preserveAspectRatio="none" style="width:435px;height:379px;" version="1.1" viewBox="0 0 435 379" width="435px" zoomAndPan="magnify"><defs><filter height="300%" id="f6grvuy" width="300%" x="-1" y="-1"><feGaussianBlur result="blurOut" stdDeviation="2.0"/><feColorMatrix in="blurOut" result="blurOut2" type="matrix" values="0 0 0 0 0 0 0 0 0 0 0 0 0 0 0 0 0 0 .4 0"/><feOffset dx="4.0" dy="4.0" in="blurOut2" result="blurOut3"/><feBlend in="SourceGraphic" in2="blurOut3" mode="normal"/></filter></defs><g><rect fill="#FFFFFF" filter="url(#f6grvuy)" height="291.3281" style="stroke: #A80036; stroke-width: 1.0;" width="10" x="175.5" y="69.2969"/><rect fill="#FFFFFF" filter="url(#f6grvuy)" height="29.1328" style="stroke: #A80036; stroke-width: 1.0;" width="10" x="180.5" y="127.5625"/><rect fill="#FFFFFF" filter="url(#f6grvuy)" height="29.1328" style="stroke: #A80036; stroke-width: 1.0;" width="10" x="180.5" y="185.8281"/><rect fill="#FFFFFF" filter="url(#f6grvuy)" height="29.1328" style="stroke: #A80036; stroke-width: 1.0;" width="10" x="180.5" y="273.2266"/><rect fill="#FFFFFF" filter="url(#f6grvuy)" height="29.1328" style="stroke: #A80036; stroke-width: 1.0;" width="10" x="180.5" y="331.4922"/><rect fill="#FFFFFF" filter="url(#f6grvuy)" height="87.3984" style="stroke: #A80036; stroke-width: 1.0;" width="10" x="306.5" y="98.4297"/><rect fill="#FFFFFF" filter="url(#f6grvuy)" height="87.3984" style="stroke: #A80036; stroke-width: 1.0;" width="10" x="389" y="244.0938"/><line style="stroke: #A80036; stroke-width: 1.0; stroke-dasharray: 5.0,5.0;" x1="45" x2="45" y1="38.2969" y2="378.7578"/><line style="stroke: #A80036; stroke-width: 1.0; stroke-dasharray: 5.0,5.0;" x1="180" x2="180" y1="38.2969" y2="378.7578"/><line style="stroke: #A80036; stroke-width: 1.0; stroke-dasharray: 5.0,5.0;" x1="311.5" x2="311.5" y1="38.2969" y2="378.7578"/><line style="stroke: #A80036; stroke-width: 1.0; stroke-dasharray: 5.0,5.0;" x1="393.5" x2="393.5" y1="38.2969" y2="378.7578"/><rect fill="#FEFECE" filter="url(#f6grvuy)" height="30.2969" style="stroke: #A80036; stroke-width: 1.5;" width="71" x="8" y="3"/><text fill="#000000" font-family="sans-serif" font-size="14" lengthAdjust="spacingAndGlyphs" textLength="57" x="15" y="22.9951">Browser</text><rect fill="#FEFECE" filter="url(#f6grvuy)" height="30.2969" style="stroke: #A80036; stroke-width: 1.5;" width="53" x="152" y="3"/><text fill="#000000" font-family="sans-serif" font-size="14" lengthAdjust="spacingAndGlyphs" textLength="39" x="159" y="22.9951">Portal</text><rect fill="#FEFECE" filter="url(#f6grvuy)" height="30.2969" style="stroke: #A80036; stroke-width: 1.5;" width="68" x="275.5" y="3"/><text fill="#000000" font-family="sans-serif" font-size="14" lengthAdjust="spacingAndGlyphs" textLength="54" x="282.5" y="22.9951">PortletA</text><rect fill="#FEFECE" filter="url(#f6grvuy)" height="30.2969" style="stroke: #A80036; stroke-width: 1.5;" width="69" x="357.5" y="3"/><text fill="#000000" font-family="sans-serif" font-size="14" lengthAdjust="spacingAndGlyphs" textLength="55" x="364.5" y="22.9951">PortletB</text><rect fill="#FFFFFF" filter="url(#f6grvuy)" height="291.3281" style="stroke: #A80036; stroke-width: 1.0;" width="10" x="175.5" y="69.2969"/><rect fill="#FFFFFF" filter="url(#f6grvuy)" height="29.1328" style="stroke: #A80036; stroke-width: 1.0;" width="10" x="180.5" y="127.5625"/><rect fill="#FFFFFF" filter="url(#f6grvuy)" height="29.1328" style="stroke: #A80036; stroke-width: 1.0;" width="10" x="180.5" y="185.8281"/><rect fill="#FFFFFF" filter="url(#f6grvuy)" height="29.1328" style="stroke: #A80036; stroke-width: 1.0;" width="10" x="180.5" y="273.2266"/><rect fill="#FFFFFF" filter="url(#f6grvuy)" height="29.1328" style="stroke: #A80036; stroke-width: 1.0;" width="10" x="180.5" y="331.4922"/><rect fill="#FFFFFF" filter="url(#f6grvuy)" height="87.3984" style="stroke: #A80036; stroke-width: 1.0;" width="10" x="306.5" y="98.4297"/><rect fill="#FFFFFF" filter="url(#f6grvuy)" height="87.3984" style="stroke: #A80036; stroke-width: 1.0;" width="10" x="389" y="244.0938"/><polygon fill="#A80036" points="163.5,65.2969,173.5,69.2969,163.5,73.2969,167.5,69.2969" style="stroke: #A80036; stroke-width: 1.0;"/><line style="stroke: #A80036; stroke-width: 1.0;" x1="45.5" x2="169.5" y1="69.2969" y2="69.2969"/><text fill="#000000" font-family="sans-serif" font-size="13" lengthAdjust="spacingAndGlyphs" textLength="86" x="52.5" y="64.3638">"portalReady"</text><polygon fill="#A80036" points="294.5,94.4297,304.5,98.4297,294.5,102.4297,298.5,98.4297" style="stroke: #A80036; stroke-width: 1.0;"/><line style="stroke: #A80036; stroke-width: 1.0;" x1="185.5" x2="300.5" y1="98.4297" y2="98.4297"/><text fill="#000000" font-family="sans-serif" font-size="13" lengthAdjust="spacingAndGlyphs" textLength="76" x="192.5" y="93.4966">PortalReady</text><polygon fill="#A80036" points="201.5,123.5625,191.5,127.5625,201.5,131.5625,197.5,127.5625" style="stroke: #A80036; stroke-width: 1.0;"/><line style="stroke: #A80036; stroke-width: 1.0;" x1="195.5" x2="305.5" y1="127.5625" y2="127.5625"/><text fill="#000000" font-family="sans-serif" font-size="13" lengthAdjust="spacingAndGlyphs" textLength="97" x="207.5" y="122.6294">AddPortletType</text><polygon fill="#A80036" points="56.5,152.6953,46.5,156.6953,56.5,160.6953,52.5,156.6953" style="stroke: #A80036; stroke-width: 1.0;"/><line style="stroke: #A80036; stroke-width: 1.0;" x1="50.5" x2="174.5" y1="156.6953" y2="156.6953"/><text fill="#000000" font-family="sans-serif" font-size="13" lengthAdjust="spacingAndGlyphs" textLength="106" x="62.5" y="151.7622">"addPortletType"</text><polygon fill="#A80036" points="201.5,181.8281,191.5,185.8281,201.5,189.8281,197.5,185.8281" style="stroke: #A80036; stroke-width: 1.0;"/><line style="stroke: #A80036; stroke-width: 1.0;" x1="195.5" x2="310.5" y1="185.8281" y2="185.8281"/><text fill="#000000" font-family="sans-serif" font-size="13" lengthAdjust="spacingAndGlyphs" textLength="87" x="207.5" y="180.895">RenderPortlet</text><polygon fill="#A80036" points="56.5,210.9609,46.5,214.9609,56.5,218.9609,52.5,214.9609" style="stroke: #A80036; stroke-width: 1.0;"/><line style="stroke: #A80036; stroke-width: 1.0;" x1="50.5" x2="174.5" y1="214.9609" y2="214.9609"/><text fill="#000000" font-family="sans-serif" font-size="13" lengthAdjust="spacingAndGlyphs" textLength="94" x="62.5" y="210.0278">"renderPortlet"</text><polygon fill="#A80036" points="377,240.0938,387,244.0938,377,248.0938,381,244.0938" style="stroke: #A80036; stroke-width: 1.0;"/><line style="stroke: #A80036; stroke-width: 1.0;" x1="185.5" x2="383" y1="244.0938" y2="244.0938"/><text fill="#000000" font-family="sans-serif" font-size="13" lengthAdjust="spacingAndGlyphs" textLength="76" x="192.5" y="239.1606">PortalReady</text><polygon fill="#A80036" points="201.5,269.2266,191.5,273.2266,201.5,277.2266,197.5,273.2266" style="stroke: #A80036; stroke-width: 1.0;"/><line style="stroke: #A80036; stroke-width: 1.0;" x1="195.5" x2="310.5" y1="273.2266" y2="273.2266"/><text fill="#000000" font-family="sans-serif" font-size="13" lengthAdjust="spacingAndGlyphs" textLength="97" x="207.5" y="268.2935">AddPortletType</text><polygon fill="#A80036" points="56.5,298.3594,46.5,302.3594,56.5,306.3594,52.5,302.3594" style="stroke: #A80036; stroke-width: 1.0;"/><line style="stroke: #A80036; stroke-width: 1.0;" x1="50.5" x2="174.5" y1="302.3594" y2="302.3594"/><text fill="#000000" font-family="sans-serif" font-size="13" lengthAdjust="spacingAndGlyphs" textLength="106" x="62.5" y="297.4263">"addPortletType"</text><polygon fill="#A80036" points="201.5,327.4922,191.5,331.4922,201.5,335.4922,197.5,331.4922" style="stroke: #A80036; stroke-width: 1.0;"/><line style="stroke: #A80036; stroke-width: 1.0;" x1="195.5" x2="393" y1="331.4922" y2="331.4922"/><text fill="#000000" font-family="sans-serif" font-size="13" lengthAdjust="spacingAndGlyphs" textLength="87" x="207.5" y="326.5591">RenderPortlet</text><polygon fill="#A80036" points="56.5,356.625,46.5,360.625,56.5,364.625,52.5,360.625" style="stroke: #A80036; stroke-width: 1.0;"/><line style="stroke: #A80036; stroke-width: 1.0;" x1="50.5" x2="179.5" y1="360.625" y2="360.625"/><text fill="#000000" font-family="sans-serif" font-size="13" lengthAdjust="spacingAndGlyphs" textLength="94" x="62.5" y="355.6919">"renderPortlet"</text></g></svg>