<?xml version="1.0" encoding="UTF-8" standalone="no"?><svg xmlns="http://www.w3.org/2000/svg" xmlns:xlink="http://www.w3.org/1999/xlink" contentScriptType="application/ecmascript" contentStyleType="text/css" height="460px" preserveAspectRatio="none" style="width:753px;height:460px;" version="1.1" viewBox="0 0 753 460" width="753px" zoomAndPan="magnify"><defs><filter height="300%" id="fms4nhg" width="300%" x="-1" y="-1"><feGaussianBlur result="blurOut" stdDeviation="2.0"/><feColorMatrix in="blurOut" result="blurOut2" type="matrix" values="0 0 0 0 0 0 0 0 0 0 0 0 0 0 0 0 0 0 .4 0"/><feOffset dx="4.0" dy="4.0" in="blurOut2" result="blurOut3"/><feBlend in="SourceGraphic" in2="blurOut3" mode="normal"/></filter></defs><g><rect fill="#FFFFFF" filter="url(#fms4nhg)" height="147.6641" style="stroke: #A80036; stroke-width: 1.0;" width="10" x="200.5" y="117.2969"/><rect fill="#FFFFFF" filter="url(#fms4nhg)" height="29.1328" style="stroke: #A80036; stroke-width: 1.0;" width="10" x="205.5" y="199.6953"/><rect fill="#FFFFFF" filter="url(#fms4nhg)" height="29.1328" style="stroke: #A80036; stroke-width: 1.0;" width="10" x="200.5" y="347.3594"/><rect fill="#FFFFFF" filter="url(#fms4nhg)" height="29.1328" style="stroke: #A80036; stroke-width: 1.0;" width="10" x="200.5" y="412.625"/><rect fill="#FFFFFF" filter="url(#fms4nhg)" height="29.1328" style="stroke: #A80036; stroke-width: 1.0;" width="10" x="331.5" y="170.5625"/><rect fill="#FFFFFF" filter="url(#fms4nhg)" height="126.6641" style="stroke: #A80036; stroke-width: 1.0;" width="10" x="525" y="264.9609"/><rect fill="#FFFFFF" filter="url(#fms4nhg)" height="29.1328" style="stroke: #A80036; stroke-width: 1.0;" width="10" x="693" y="318.2266"/><rect fill="#FFFFFF" filter="url(#fms4nhg)" height="104.5313" style="stroke: #000000; stroke-width: 2.0;" width="369.5" x="13" y="132.4297"/><rect fill="#FFFFFF" filter="url(#fms4nhg)" height="104.5313" style="stroke: #000000; stroke-width: 2.0;" width="731" x="13" y="280.0938"/><line style="stroke: #A80036; stroke-width: 1.0; stroke-dasharray: 5.0,5.0;" x1="60" x2="60" y1="86.2969" y2="459.8906"/><line style="stroke: #A80036; stroke-width: 1.0; stroke-dasharray: 5.0,5.0;" x1="205" x2="205" y1="86.2969" y2="459.8906"/><line style="stroke: #A80036; stroke-width: 1.0; stroke-dasharray: 5.0,5.0;" x1="336.5" x2="336.5" y1="86.2969" y2="459.8906"/><line style="stroke: #A80036; stroke-width: 1.0; stroke-dasharray: 5.0,5.0;" x1="410.5" x2="410.5" y1="86.2969" y2="459.8906"/><line style="stroke: #A80036; stroke-width: 1.0; stroke-dasharray: 5.0,5.0;" x1="530" x2="530" y1="86.2969" y2="459.8906"/><line style="stroke: #A80036; stroke-width: 1.0; stroke-dasharray: 5.0,5.0;" x1="698" x2="698" y1="86.2969" y2="459.8906"/><rect fill="#FEFECE" filter="url(#fms4nhg)" height="30.2969" style="stroke: #A80036; stroke-width: 1.5;" width="71" x="23" y="51"/><text fill="#000000" font-family="sans-serif" font-size="14" lengthAdjust="spacingAndGlyphs" textLength="57" x="30" y="70.9951">Browser</text><rect fill="#FEFECE" filter="url(#fms4nhg)" height="30.2969" style="stroke: #A80036; stroke-width: 1.5;" width="53" x="177" y="51"/><text fill="#000000" font-family="sans-serif" font-size="14" lengthAdjust="spacingAndGlyphs" textLength="39" x="184" y="70.9951">Portal</text><rect fill="#FEFECE" filter="url(#fms4nhg)" height="30.2969" style="stroke: #A80036; stroke-width: 1.5;" width="68" x="300.5" y="51"/><text fill="#000000" font-family="sans-serif" font-size="14" lengthAdjust="spacingAndGlyphs" textLength="54" x="307.5" y="70.9951">PortletX</text><text fill="#000000" font-family="sans-serif" font-size="14" lengthAdjust="spacingAndGlyphs" textLength="51" x="382.5" y="82.9951">System</text><ellipse cx="411" cy="13" fill="#FEFECE" filter="url(#fms4nhg)" rx="8" ry="8" style="stroke: #A80036; stroke-width: 2.0;"/><path d="M411,21 L411,48 M398,29 L424,29 M411,48 L398,63 M411,48 L424,63 " fill="#FEFECE" filter="url(#fms4nhg)" style="stroke: #A80036; stroke-width: 2.0;"/><rect fill="#FEFECE" filter="url(#fms4nhg)" height="30.2969" style="stroke: #A80036; stroke-width: 1.5;" width="92" x="482" y="51"/><text fill="#000000" font-family="sans-serif" font-size="14" lengthAdjust="spacingAndGlyphs" textLength="78" x="489" y="70.9951">PortalPolicy</text><rect fill="#FEFECE" filter="url(#fms4nhg)" height="30.2969" style="stroke: #A80036; stroke-width: 1.5;" width="68" x="662" y="51"/><text fill="#000000" font-family="sans-serif" font-size="14" lengthAdjust="spacingAndGlyphs" textLength="54" x="669" y="70.9951">PortletY</text><rect fill="#FFFFFF" filter="url(#fms4nhg)" height="147.6641" style="stroke: #A80036; stroke-width: 1.0;" width="10" x="200.5" y="117.2969"/><rect fill="#FFFFFF" filter="url(#fms4nhg)" height="29.1328" style="stroke: #A80036; stroke-width: 1.0;" width="10" x="205.5" y="199.6953"/><rect fill="#FFFFFF" filter="url(#fms4nhg)" height="29.1328" style="stroke: #A80036; stroke-width: 1.0;" width="10" x="200.5" y="347.3594"/><rect fill="#FFFFFF" filter="url(#fms4nhg)" height="29.1328" style="stroke: #A80036; stroke-width: 1.0;" width="10" x="200.5" y="412.625"/><rect fill="#FFFFFF" filter="url(#fms4nhg)" height="29.1328" style="stroke: #A80036; stroke-width: 1.0;" width="10" x="331.5" y="170.5625"/><rect fill="#FFFFFF" filter="url(#fms4nhg)" height="126.6641" style="stroke: #A80036; stroke-width: 1.0;" width="10" x="525" y="264.9609"/><rect fill="#FFFFFF" filter="url(#fms4nhg)" height="29.1328" style="stroke: #A80036; stroke-width: 1.0;" width="10" x="693" y="318.2266"/><polygon fill="#A80036" points="188.5,113.2969,198.5,117.2969,188.5,121.2969,192.5,117.2969" style="stroke: #A80036; stroke-width: 1.0;"/><line style="stroke: #A80036; stroke-width: 1.0;" x1="60.5" x2="194.5" y1="117.2969" y2="117.2969"/><text fill="#000000" font-family="sans-serif" font-size="13" lengthAdjust="spacingAndGlyphs" textLength="86" x="67.5" y="112.3638">"portalReady"</text><rect fill="none" height="104.5313" style="stroke: #000000; stroke-width: 2.0;" width="369.5" x="13" y="132.4297"/><polygon fill="#EEEEEE" points="13,132.4297,90,132.4297,90,139.4297,80,149.4297,13,149.4297,13,132.4297" style="stroke: #000000; stroke-width: 2.0;"/><text fill="#000000" font-family="sans-serif" font-size="13" font-weight="bold" lengthAdjust="spacingAndGlyphs" textLength="32" x="28" y="145.4966">loop</text><text fill="#000000" font-family="sans-serif" font-size="11" font-weight="bold" lengthAdjust="spacingAndGlyphs" textLength="102" x="105" y="144.6401">[for all portlets]</text><polygon fill="#A80036" points="319.5,166.5625,329.5,170.5625,319.5,174.5625,323.5,170.5625" style="stroke: #A80036; stroke-width: 1.0;"/><line style="stroke: #A80036; stroke-width: 1.0;" x1="210.5" x2="325.5" y1="170.5625" y2="170.5625"/><text fill="#000000" font-family="sans-serif" font-size="13" lengthAdjust="spacingAndGlyphs" textLength="76" x="217.5" y="165.6294">PortalReady</text><polygon fill="#A80036" points="226.5,195.6953,216.5,199.6953,226.5,203.6953,222.5,199.6953" style="stroke: #A80036; stroke-width: 1.0;"/><line style="stroke: #A80036; stroke-width: 1.0;" x1="220.5" x2="335.5" y1="199.6953" y2="199.6953"/><text fill="#000000" font-family="sans-serif" font-size="13" lengthAdjust="spacingAndGlyphs" textLength="97" x="232.5" y="194.7622">AddPortletType</text><polygon fill="#A80036" points="71.5,224.8281,61.5,228.8281,71.5,232.8281,67.5,228.8281" style="stroke: #A80036; stroke-width: 1.0;"/><line style="stroke: #A80036; stroke-width: 1.0;" x1="65.5" x2="199.5" y1="228.8281" y2="228.8281"/><text fill="#000000" font-family="sans-serif" font-size="13" lengthAdjust="spacingAndGlyphs" textLength="106" x="77.5" y="223.895">"addPortletType"</text><polygon fill="#A80036" points="513,260.9609,523,264.9609,513,268.9609,517,264.9609" style="stroke: #A80036; stroke-width: 1.0;"/><line style="stroke: #A80036; stroke-width: 1.0;" x1="411" x2="519" y1="264.9609" y2="264.9609"/><text fill="#000000" font-family="sans-serif" font-size="13" lengthAdjust="spacingAndGlyphs" textLength="95" x="418" y="260.0278">PortalPrepared</text><rect fill="none" height="104.5313" style="stroke: #000000; stroke-width: 2.0;" width="731" x="13" y="280.0938"/><polygon fill="#EEEEEE" points="13,280.0938,90,280.0938,90,287.0938,80,297.0938,13,297.0938,13,280.0938" style="stroke: #000000; stroke-width: 2.0;"/><text fill="#000000" font-family="sans-serif" font-size="13" font-weight="bold" lengthAdjust="spacingAndGlyphs" textLength="32" x="28" y="293.1606">loop</text><text fill="#000000" font-family="sans-serif" font-size="11" font-weight="bold" lengthAdjust="spacingAndGlyphs" textLength="205" x="105" y="292.3042">[for all portlets to be displayed]</text><polygon fill="#A80036" points="681,314.2266,691,318.2266,681,322.2266,685,318.2266" style="stroke: #A80036; stroke-width: 1.0;"/><line style="stroke: #A80036; stroke-width: 1.0;" x1="535" x2="687" y1="318.2266" y2="318.2266"/><text fill="#000000" font-family="sans-serif" font-size="13" lengthAdjust="spacingAndGlyphs" textLength="139" x="542" y="313.2935">RenderPortletRequest</text><polygon fill="#A80036" points="221.5,343.3594,211.5,347.3594,221.5,351.3594,217.5,347.3594" style="stroke: #A80036; stroke-width: 1.0;"/><line style="stroke: #A80036; stroke-width: 1.0;" x1="215.5" x2="697" y1="347.3594" y2="347.3594"/><text fill="#000000" font-family="sans-serif" font-size="13" lengthAdjust="spacingAndGlyphs" textLength="87" x="227.5" y="342.4263">RenderPortlet</text><polygon fill="#A80036" points="71.5,372.4922,61.5,376.4922,71.5,380.4922,67.5,376.4922" style="stroke: #A80036; stroke-width: 1.0;"/><line style="stroke: #A80036; stroke-width: 1.0;" x1="65.5" x2="204.5" y1="376.4922" y2="376.4922"/><text fill="#000000" font-family="sans-serif" font-size="13" lengthAdjust="spacingAndGlyphs" textLength="94" x="77.5" y="371.5591">"renderPortlet"</text><polygon fill="#A80036" points="221.5,408.625,211.5,412.625,221.5,416.625,217.5,412.625" style="stroke: #A80036; stroke-width: 1.0;"/><line style="stroke: #A80036; stroke-width: 1.0;" x1="215.5" x2="410" y1="412.625" y2="412.625"/><text fill="#000000" font-family="sans-serif" font-size="13" lengthAdjust="spacingAndGlyphs" textLength="106" x="227.5" y="407.6919">PortalConfigured</text><polygon fill="#A80036" points="71.5,437.7578,61.5,441.7578,71.5,445.7578,67.5,441.7578" style="stroke: #A80036; stroke-width: 1.0;"/><line style="stroke: #A80036; stroke-width: 1.0;" x1="65.5" x2="204.5" y1="441.7578" y2="441.7578"/><text fill="#000000" font-family="sans-serif" font-size="13" lengthAdjust="spacingAndGlyphs" textLength="116" x="77.5" y="436.8247">"portalConfigured"</text></g></svg>