<?xml version="1.0" encoding="UTF-8" standalone="no"?><svg xmlns="http://www.w3.org/2000/svg" xmlns:xlink="http://www.w3.org/1999/xlink" contentScriptType="application/ecmascript" contentStyleType="text/css" height="458px" preserveAspectRatio="none" style="width:655px;height:458px;" version="1.1" viewBox="0 0 655 458" width="655px" zoomAndPan="magnify"><defs><filter height="300%" id="fi8cjnv" width="300%" x="-1" y="-1"><feGaussianBlur result="blurOut" stdDeviation="2.0"/><feColorMatrix in="blurOut" result="blurOut2" type="matrix" values="0 0 0 0 0 0 0 0 0 0 0 0 0 0 0 0 0 0 .4 0"/><feOffset dx="4.0" dy="4.0" in="blurOut2" result="blurOut3"/><feBlend in="SourceGraphic" in2="blurOut3" mode="normal"/></filter></defs><g><rect fill="#FFFFFF" filter="url(#fi8cjnv)" height="235.0625" style="stroke: #A80036; stroke-width: 1.0;" width="10" x="190.5" y="117.2969"/><rect fill="#FFFFFF" filter="url(#fi8cjnv)" height="29.1328" style="stroke: #A80036; stroke-width: 1.0;" width="10" x="195.5" y="175.5625"/><rect fill="#FFFFFF" filter="url(#fi8cjnv)" height="29.1328" style="stroke: #A80036; stroke-width: 1.0;" width="10" x="195.5" y="287.0938"/><rect fill="#FFFFFF" filter="url(#fi8cjnv)" height="29.1328" style="stroke: #A80036; stroke-width: 1.0;" width="10" x="190.5" y="410.625"/><rect fill="#FFFFFF" filter="url(#fi8cjnv)" height="302.4609" style="stroke: #A80036; stroke-width: 1.0;" width="10" x="321.5" y="146.4297"/><rect fill="#FFFFFF" filter="url(#fi8cjnv)" height="29.1328" style="stroke: #A80036; stroke-width: 1.0;" width="10" x="326.5" y="381.4922"/><rect fill="#FFFFFF" filter="url(#fi8cjnv)" height="190.9297" style="stroke: #A80036; stroke-width: 1.0;" width="10" x="403.5" y="257.9609"/><rect fill="#FFFFFF" filter="url(#fi8cjnv)" height="29.1328" style="stroke: #A80036; stroke-width: 1.0;" width="10" x="597" y="352.3594"/><rect fill="#FFFFFF" filter="url(#fi8cjnv)" height="104.5313" style="stroke: #000000; stroke-width: 2.0;" width="441.5" x="13" y="219.8281"/><line style="stroke: #A80036; stroke-width: 1.0; stroke-dasharray: 5.0,5.0;" x1="60" x2="60" y1="86.2969" y2="457.8906"/><line style="stroke: #A80036; stroke-width: 1.0; stroke-dasharray: 5.0,5.0;" x1="195" x2="195" y1="86.2969" y2="457.8906"/><line style="stroke: #A80036; stroke-width: 1.0; stroke-dasharray: 5.0,5.0;" x1="326.5" x2="326.5" y1="86.2969" y2="457.8906"/><line style="stroke: #A80036; stroke-width: 1.0; stroke-dasharray: 5.0,5.0;" x1="408.5" x2="408.5" y1="86.2969" y2="457.8906"/><line style="stroke: #A80036; stroke-width: 1.0; stroke-dasharray: 5.0,5.0;" x1="482.5" x2="482.5" y1="86.2969" y2="457.8906"/><line style="stroke: #A80036; stroke-width: 1.0; stroke-dasharray: 5.0,5.0;" x1="602" x2="602" y1="86.2969" y2="457.8906"/><rect fill="#FEFECE" filter="url(#fi8cjnv)" height="30.2969" style="stroke: #A80036; stroke-width: 1.5;" width="71" x="23" y="51"/><text fill="#000000" font-family="sans-serif" font-size="14" lengthAdjust="spacingAndGlyphs" textLength="57" x="30" y="70.9951">Browser</text><rect fill="#FEFECE" filter="url(#fi8cjnv)" height="30.2969" style="stroke: #A80036; stroke-width: 1.5;" width="53" x="167" y="51"/><text fill="#000000" font-family="sans-serif" font-size="14" lengthAdjust="spacingAndGlyphs" textLength="39" x="174" y="70.9951">Portal</text><rect fill="#FEFECE" filter="url(#fi8cjnv)" height="30.2969" style="stroke: #A80036; stroke-width: 1.5;" width="68" x="290.5" y="51"/><text fill="#000000" font-family="sans-serif" font-size="14" lengthAdjust="spacingAndGlyphs" textLength="54" x="297.5" y="70.9951">PortletA</text><rect fill="#FEFECE" filter="url(#fi8cjnv)" height="30.2969" style="stroke: #A80036; stroke-width: 1.5;" width="68" x="372.5" y="51"/><text fill="#000000" font-family="sans-serif" font-size="14" lengthAdjust="spacingAndGlyphs" textLength="54" x="379.5" y="70.9951">PortletX</text><text fill="#000000" font-family="sans-serif" font-size="14" lengthAdjust="spacingAndGlyphs" textLength="51" x="454.5" y="82.9951">System</text><ellipse cx="483" cy="13" fill="#FEFECE" filter="url(#fi8cjnv)" rx="8" ry="8" style="stroke: #A80036; stroke-width: 2.0;"/><path d="M483,21 L483,48 M470,29 L496,29 M483,48 L470,63 M483,48 L496,63 " fill="#FEFECE" filter="url(#fi8cjnv)" style="stroke: #A80036; stroke-width: 2.0;"/><rect fill="#FEFECE" filter="url(#fi8cjnv)" height="30.2969" style="stroke: #A80036; stroke-width: 1.5;" width="92" x="554" y="51"/><text fill="#000000" font-family="sans-serif" font-size="14" lengthAdjust="spacingAndGlyphs" textLength="78" x="561" y="70.9951">PortalPolicy</text><rect fill="#FFFFFF" filter="url(#fi8cjnv)" height="235.0625" style="stroke: #A80036; stroke-width: 1.0;" width="10" x="190.5" y="117.2969"/><rect fill="#FFFFFF" filter="url(#fi8cjnv)" height="29.1328" style="stroke: #A80036; stroke-width: 1.0;" width="10" x="195.5" y="175.5625"/><rect fill="#FFFFFF" filter="url(#fi8cjnv)" height="29.1328" style="stroke: #A80036; stroke-width: 1.0;" width="10" x="195.5" y="287.0938"/><rect fill="#FFFFFF" filter="url(#fi8cjnv)" height="29.1328" style="stroke: #A80036; stroke-width: 1.0;" width="10" x="190.5" y="410.625"/><rect fill="#FFFFFF" filter="url(#fi8cjnv)" height="302.4609" style="stroke: #A80036; stroke-width: 1.0;" width="10" x="321.5" y="146.4297"/><rect fill="#FFFFFF" filter="url(#fi8cjnv)" height="29.1328" style="stroke: #A80036; stroke-width: 1.0;" width="10" x="326.5" y="381.4922"/><rect fill="#FFFFFF" filter="url(#fi8cjnv)" height="190.9297" style="stroke: #A80036; stroke-width: 1.0;" width="10" x="403.5" y="257.9609"/><rect fill="#FFFFFF" filter="url(#fi8cjnv)" height="29.1328" style="stroke: #A80036; stroke-width: 1.0;" width="10" x="597" y="352.3594"/><polygon fill="#A80036" points="178.5,113.2969,188.5,117.2969,178.5,121.2969,182.5,117.2969" style="stroke: #A80036; stroke-width: 1.0;"/><line style="stroke: #A80036; stroke-width: 1.0;" x1="60.5" x2="184.5" y1="117.2969" y2="117.2969"/><text fill="#000000" font-family="sans-serif" font-size="13" lengthAdjust="spacingAndGlyphs" textLength="86" x="67.5" y="112.3638">"portalReady"</text><polygon fill="#A80036" points="309.5,142.4297,319.5,146.4297,309.5,150.4297,313.5,146.4297" style="stroke: #A80036; stroke-width: 1.0;"/><line style="stroke: #A80036; stroke-width: 1.0;" x1="200.5" x2="315.5" y1="146.4297" y2="146.4297"/><text fill="#000000" font-family="sans-serif" font-size="13" lengthAdjust="spacingAndGlyphs" textLength="76" x="207.5" y="141.4966">PortalReady</text><polygon fill="#A80036" points="216.5,171.5625,206.5,175.5625,216.5,179.5625,212.5,175.5625" style="stroke: #A80036; stroke-width: 1.0;"/><line style="stroke: #A80036; stroke-width: 1.0;" x1="210.5" x2="320.5" y1="175.5625" y2="175.5625"/><text fill="#000000" font-family="sans-serif" font-size="13" lengthAdjust="spacingAndGlyphs" textLength="97" x="222.5" y="170.6294">AddPortletType</text><polygon fill="#A80036" points="71.5,200.6953,61.5,204.6953,71.5,208.6953,67.5,204.6953" style="stroke: #A80036; stroke-width: 1.0;"/><line style="stroke: #A80036; stroke-width: 1.0;" x1="65.5" x2="189.5" y1="204.6953" y2="204.6953"/><text fill="#000000" font-family="sans-serif" font-size="13" lengthAdjust="spacingAndGlyphs" textLength="106" x="77.5" y="199.7622">"addPortletType"</text><rect fill="none" height="104.5313" style="stroke: #000000; stroke-width: 2.0;" width="441.5" x="13" y="219.8281"/><polygon fill="#EEEEEE" points="13,219.8281,90,219.8281,90,226.8281,80,236.8281,13,236.8281,13,219.8281" style="stroke: #000000; stroke-width: 2.0;"/><text fill="#000000" font-family="sans-serif" font-size="13" font-weight="bold" lengthAdjust="spacingAndGlyphs" textLength="32" x="28" y="232.895">loop</text><text fill="#000000" font-family="sans-serif" font-size="11" font-weight="bold" lengthAdjust="spacingAndGlyphs" textLength="170" x="105" y="232.0386">[for all remaining portlets]</text><polygon fill="#A80036" points="391.5,253.9609,401.5,257.9609,391.5,261.9609,395.5,257.9609" style="stroke: #A80036; stroke-width: 1.0;"/><line style="stroke: #A80036; stroke-width: 1.0;" x1="200.5" x2="397.5" y1="257.9609" y2="257.9609"/><text fill="#000000" font-family="sans-serif" font-size="13" lengthAdjust="spacingAndGlyphs" textLength="76" x="207.5" y="253.0278">PortalReady</text><polygon fill="#A80036" points="216.5,283.0938,206.5,287.0938,216.5,291.0938,212.5,287.0938" style="stroke: #A80036; stroke-width: 1.0;"/><line style="stroke: #A80036; stroke-width: 1.0;" x1="210.5" x2="402.5" y1="287.0938" y2="287.0938"/><text fill="#000000" font-family="sans-serif" font-size="13" lengthAdjust="spacingAndGlyphs" textLength="97" x="222.5" y="282.1606">AddPortletType</text><polygon fill="#A80036" points="71.5,312.2266,61.5,316.2266,71.5,320.2266,67.5,316.2266" style="stroke: #A80036; stroke-width: 1.0;"/><line style="stroke: #A80036; stroke-width: 1.0;" x1="65.5" x2="189.5" y1="316.2266" y2="316.2266"/><text fill="#000000" font-family="sans-serif" font-size="13" lengthAdjust="spacingAndGlyphs" textLength="106" x="77.5" y="311.2935">"addPortletType"</text><polygon fill="#A80036" points="585,348.3594,595,352.3594,585,356.3594,589,352.3594" style="stroke: #A80036; stroke-width: 1.0;"/><line style="stroke: #A80036; stroke-width: 1.0;" x1="483" x2="591" y1="352.3594" y2="352.3594"/><text fill="#000000" font-family="sans-serif" font-size="13" lengthAdjust="spacingAndGlyphs" textLength="95" x="490" y="347.4263">PortalPrepared</text><polygon fill="#A80036" points="347.5,377.4922,337.5,381.4922,347.5,385.4922,343.5,381.4922" style="stroke: #A80036; stroke-width: 1.0;"/><line style="stroke: #A80036; stroke-width: 1.0;" x1="341.5" x2="601" y1="381.4922" y2="381.4922"/><text fill="#000000" font-family="sans-serif" font-size="13" lengthAdjust="spacingAndGlyphs" textLength="139" x="353.5" y="376.5591">RenderPortletRequest</text><polygon fill="#A80036" points="211.5,406.625,201.5,410.625,211.5,414.625,207.5,410.625" style="stroke: #A80036; stroke-width: 1.0;"/><line style="stroke: #A80036; stroke-width: 1.0;" x1="205.5" x2="320.5" y1="410.625" y2="410.625"/><text fill="#000000" font-family="sans-serif" font-size="13" lengthAdjust="spacingAndGlyphs" textLength="87" x="217.5" y="405.6919">RenderPortlet</text><polygon fill="#A80036" points="71.5,435.7578,61.5,439.7578,71.5,443.7578,67.5,439.7578" style="stroke: #A80036; stroke-width: 1.0;"/><line style="stroke: #A80036; stroke-width: 1.0;" x1="65.5" x2="194.5" y1="439.7578" y2="439.7578"/><text fill="#000000" font-family="sans-serif" font-size="13" lengthAdjust="spacingAndGlyphs" textLength="94" x="77.5" y="434.8247">"renderPortlet"</text></g></svg>