<?xml version="1.0" encoding="UTF-8" standalone="no"?><svg xmlns="http://www.w3.org/2000/svg" xmlns:xlink="http://www.w3.org/1999/xlink" contentScriptType="application/ecmascript" contentStyleType="text/css" height="175px" preserveAspectRatio="none" style="width:428px;height:175px;" version="1.1" viewBox="0 0 428 175" width="428px" zoomAndPan="magnify"><defs><filter height="300%" id="f3qnjrw" width="300%" x="-1" y="-1"><feGaussianBlur result="blurOut" stdDeviation="2.0"/><feColorMatrix in="blurOut" result="blurOut2" type="matrix" values="0 0 0 0 0 0 0 0 0 0 0 0 0 0 0 0 0 0 .4 0"/><feOffset dx="4.0" dy="4.0" in="blurOut2" result="blurOut3"/><feBlend in="SourceGraphic" in2="blurOut3" mode="normal"/></filter></defs><g><rect fill="#FFFFFF" filter="url(#f3qnjrw)" height="29.1328" style="stroke: #A80036; stroke-width: 1.0;" width="10" x="215" y="69.2969"/><rect fill="#FFFFFF" filter="url(#f3qnjrw)" height="29.1328" style="stroke: #A80036; stroke-width: 1.0;" width="10" x="215" y="127.5625"/><rect fill="#FFFFFF" filter="url(#f3qnjrw)" height="29.1328" style="stroke: #A80036; stroke-width: 1.0;" width="10" x="386" y="98.4297"/><line style="stroke: #A80036; stroke-width: 1.0; stroke-dasharray: 5.0,5.0;" x1="46" x2="46" y1="38.2969" y2="174.8281"/><line style="stroke: #A80036; stroke-width: 1.0; stroke-dasharray: 5.0,5.0;" x1="219.5" x2="219.5" y1="38.2969" y2="174.8281"/><line style="stroke: #A80036; stroke-width: 1.0; stroke-dasharray: 5.0,5.0;" x1="391" x2="391" y1="38.2969" y2="174.8281"/><rect fill="#FEFECE" filter="url(#f3qnjrw)" height="30.2969" style="stroke: #A80036; stroke-width: 1.5;" width="72" x="8" y="3"/><text fill="#000000" font-family="sans-serif" font-size="14" lengthAdjust="spacingAndGlyphs" textLength="58" x="15" y="22.9951">Browser</text><rect fill="#FEFECE" filter="url(#f3qnjrw)" height="30.2969" style="stroke: #A80036; stroke-width: 1.5;" width="55" x="190.5" y="3"/><text fill="#000000" font-family="sans-serif" font-size="14" lengthAdjust="spacingAndGlyphs" textLength="41" x="197.5" y="22.9951">Portal</text><rect fill="#FEFECE" filter="url(#f3qnjrw)" height="30.2969" style="stroke: #A80036; stroke-width: 1.5;" width="60" x="359" y="3"/><text fill="#000000" font-family="sans-serif" font-size="14" lengthAdjust="spacingAndGlyphs" textLength="46" x="366" y="22.9951">Portlet</text><rect fill="#FFFFFF" filter="url(#f3qnjrw)" height="29.1328" style="stroke: #A80036; stroke-width: 1.0;" width="10" x="215" y="69.2969"/><rect fill="#FFFFFF" filter="url(#f3qnjrw)" height="29.1328" style="stroke: #A80036; stroke-width: 1.0;" width="10" x="215" y="127.5625"/><rect fill="#FFFFFF" filter="url(#f3qnjrw)" height="29.1328" style="stroke: #A80036; stroke-width: 1.0;" width="10" x="386" y="98.4297"/><polygon fill="#A80036" points="203,65.2969,213,69.2969,203,73.2969,207,69.2969" style="stroke: #A80036; stroke-width: 1.0;"/><line style="stroke: #A80036; stroke-width: 1.0;" x1="46" x2="209" y1="69.2969" y2="69.2969"/><text fill="#000000" font-family="sans-serif" font-size="13" lengthAdjust="spacingAndGlyphs" textLength="150" x="53" y="64.3638">"renderPortletRequest"</text><polygon fill="#A80036" points="374,94.4297,384,98.4297,374,102.4297,378,98.4297" style="stroke: #A80036; stroke-width: 1.0;"/><line style="stroke: #A80036; stroke-width: 1.0;" x1="220" x2="380" y1="98.4297" y2="98.4297"/><text fill="#000000" font-family="sans-serif" font-size="13" lengthAdjust="spacingAndGlyphs" textLength="142" x="227" y="93.4966">RenderPortletRequest</text><polygon fill="#A80036" points="236,123.5625,226,127.5625,236,131.5625,232,127.5625" style="stroke: #A80036; stroke-width: 1.0;"/><line style="stroke: #A80036; stroke-width: 1.0;" x1="230" x2="390" y1="127.5625" y2="127.5625"/><text fill="#000000" font-family="sans-serif" font-size="13" lengthAdjust="spacingAndGlyphs" textLength="89" x="242" y="122.6294">RenderPortlet</text><polygon fill="#A80036" points="57,152.6953,47,156.6953,57,160.6953,53,156.6953" style="stroke: #A80036; stroke-width: 1.0;"/><line style="stroke: #A80036; stroke-width: 1.0;" x1="51" x2="219" y1="156.6953" y2="156.6953"/><text fill="#000000" font-family="sans-serif" font-size="13" lengthAdjust="spacingAndGlyphs" textLength="97" x="63" y="151.7622">"renderPortlet"</text></g></svg>