<?xml version="1.0" encoding="UTF-8" standalone="no"?><svg xmlns="http://www.w3.org/2000/svg" xmlns:xlink="http://www.w3.org/1999/xlink" contentScriptType="application/ecmascript" contentStyleType="text/css" height="146px" preserveAspectRatio="none" style="width:287px;height:146px;" version="1.1" viewBox="0 0 287 146" width="287px" zoomAndPan="magnify"><defs><filter height="300%" id="fcbznmy" width="300%" x="-1" y="-1"><feGaussianBlur result="blurOut" stdDeviation="2.0"/><feColorMatrix in="blurOut" result="blurOut2" type="matrix" values="0 0 0 0 0 0 0 0 0 0 0 0 0 0 0 0 0 0 .4 0"/><feOffset dx="4.0" dy="4.0" in="blurOut2" result="blurOut3"/><feBlend in="SourceGraphic" in2="blurOut3" mode="normal"/></filter></defs><g><rect fill="#FFFFFF" filter="url(#fcbznmy)" height="29.1328" style="stroke: #A80036; stroke-width: 1.0;" width="10" x="139" y="69.2969"/><rect fill="#FFFFFF" filter="url(#fcbznmy)" height="29.1328" style="stroke: #A80036; stroke-width: 1.0;" width="10" x="231" y="98.4297"/><line style="stroke: #A80036; stroke-width: 1.0; stroke-dasharray: 5.0,5.0;" x1="46" x2="46" y1="38.2969" y2="145.6953"/><line style="stroke: #A80036; stroke-width: 1.0; stroke-dasharray: 5.0,5.0;" x1="143.5" x2="143.5" y1="38.2969" y2="145.6953"/><line style="stroke: #A80036; stroke-width: 1.0; stroke-dasharray: 5.0,5.0;" x1="235.5" x2="235.5" y1="38.2969" y2="145.6953"/><rect fill="#FEFECE" filter="url(#fcbznmy)" height="30.2969" style="stroke: #A80036; stroke-width: 1.5;" width="72" x="8" y="3"/><text fill="#000000" font-family="sans-serif" font-size="14" lengthAdjust="spacingAndGlyphs" textLength="58" x="15" y="22.9951">Browser</text><rect fill="#FEFECE" filter="url(#fcbznmy)" height="30.2969" style="stroke: #A80036; stroke-width: 1.5;" width="55" x="114.5" y="3"/><text fill="#000000" font-family="sans-serif" font-size="14" lengthAdjust="spacingAndGlyphs" textLength="41" x="121.5" y="22.9951">Portal</text><rect fill="#FEFECE" filter="url(#fcbznmy)" height="30.2969" style="stroke: #A80036; stroke-width: 1.5;" width="89" x="189.5" y="3"/><text fill="#000000" font-family="sans-serif" font-size="14" lengthAdjust="spacingAndGlyphs" textLength="75" x="196.5" y="22.9951">PortalView</text><rect fill="#FFFFFF" filter="url(#fcbznmy)" height="29.1328" style="stroke: #A80036; stroke-width: 1.0;" width="10" x="139" y="69.2969"/><rect fill="#FFFFFF" filter="url(#fcbznmy)" height="29.1328" style="stroke: #A80036; stroke-width: 1.0;" width="10" x="231" y="98.4297"/><polygon fill="#A80036" points="127,65.2969,137,69.2969,127,73.2969,131,69.2969" style="stroke: #A80036; stroke-width: 1.0;"/><line style="stroke: #A80036; stroke-width: 1.0;" x1="46" x2="133" y1="69.2969" y2="69.2969"/><text fill="#000000" font-family="sans-serif" font-size="13" lengthAdjust="spacingAndGlyphs" textLength="74" x="53" y="64.3638">"setLocale"</text><polygon fill="#A80036" points="219,94.4297,229,98.4297,219,102.4297,223,98.4297" style="stroke: #A80036; stroke-width: 1.0;"/><line style="stroke: #A80036; stroke-width: 1.0;" x1="144" x2="225" y1="98.4297" y2="98.4297"/><text fill="#000000" font-family="sans-serif" font-size="13" lengthAdjust="spacingAndGlyphs" textLength="63" x="151" y="93.4966">SetLocale</text><polygon fill="#A80036" points="57,123.5625,47,127.5625,57,131.5625,53,127.5625" style="stroke: #A80036; stroke-width: 1.0;"/><line style="stroke: #A80036; stroke-width: 1.0;" x1="51" x2="235" y1="127.5625" y2="127.5625"/><text fill="#000000" font-family="sans-serif" font-size="13" lengthAdjust="spacingAndGlyphs" textLength="53" x="63" y="122.6294">"reload"</text></g></svg>