<?xml version="1.0" encoding="UTF-8" standalone="no"?><svg xmlns="http://www.w3.org/2000/svg" xmlns:xlink="http://www.w3.org/1999/xlink" contentScriptType="application/ecmascript" contentStyleType="text/css" height="146px" preserveAspectRatio="none" style="width:282px;height:146px;" version="1.1" viewBox="0 0 282 146" width="282px" zoomAndPan="magnify"><defs><filter height="300%" id="ffkbmg6" width="300%" x="-1" y="-1"><feGaussianBlur result="blurOut" stdDeviation="2.0"/><feColorMatrix in="blurOut" result="blurOut2" type="matrix" values="0 0 0 0 0 0 0 0 0 0 0 0 0 0 0 0 0 0 .4 0"/><feOffset dx="4.0" dy="4.0" in="blurOut2" result="blurOut3"/><feBlend in="SourceGraphic" in2="blurOut3" mode="normal"/></filter></defs><g><rect fill="#FFFFFF" filter="url(#ffkbmg6)" height="29.1328" style="stroke: #A80036; stroke-width: 1.0;" width="10" x="135.5" y="69.2969"/><rect fill="#FFFFFF" filter="url(#ffkbmg6)" height="29.1328" style="stroke: #A80036; stroke-width: 1.0;" width="10" x="227.5" y="98.4297"/><line style="stroke: #A80036; stroke-width: 1.0; stroke-dasharray: 5.0,5.0;" x1="45" x2="45" y1="38.2969" y2="145.6953"/><line style="stroke: #A80036; stroke-width: 1.0; stroke-dasharray: 5.0,5.0;" x1="140" x2="140" y1="38.2969" y2="145.6953"/><line style="stroke: #A80036; stroke-width: 1.0; stroke-dasharray: 5.0,5.0;" x1="232" x2="232" y1="38.2969" y2="145.6953"/><rect fill="#FEFECE" filter="url(#ffkbmg6)" height="30.2969" style="stroke: #A80036; stroke-width: 1.5;" width="71" x="8" y="3"/><text fill="#000000" font-family="sans-serif" font-size="14" lengthAdjust="spacingAndGlyphs" textLength="57" x="15" y="22.9951">Browser</text><rect fill="#FEFECE" filter="url(#ffkbmg6)" height="30.2969" style="stroke: #A80036; stroke-width: 1.5;" width="53" x="112" y="3"/><text fill="#000000" font-family="sans-serif" font-size="14" lengthAdjust="spacingAndGlyphs" textLength="39" x="119" y="22.9951">Portal</text><rect fill="#FEFECE" filter="url(#ffkbmg6)" height="30.2969" style="stroke: #A80036; stroke-width: 1.5;" width="85" x="188" y="3"/><text fill="#000000" font-family="sans-serif" font-size="14" lengthAdjust="spacingAndGlyphs" textLength="71" x="195" y="22.9951">PortalView</text><rect fill="#FFFFFF" filter="url(#ffkbmg6)" height="29.1328" style="stroke: #A80036; stroke-width: 1.0;" width="10" x="135.5" y="69.2969"/><rect fill="#FFFFFF" filter="url(#ffkbmg6)" height="29.1328" style="stroke: #A80036; stroke-width: 1.0;" width="10" x="227.5" y="98.4297"/><polygon fill="#A80036" points="123.5,65.2969,133.5,69.2969,123.5,73.2969,127.5,69.2969" style="stroke: #A80036; stroke-width: 1.0;"/><line style="stroke: #A80036; stroke-width: 1.0;" x1="45.5" x2="129.5" y1="69.2969" y2="69.2969"/><text fill="#000000" font-family="sans-serif" font-size="13" lengthAdjust="spacingAndGlyphs" textLength="71" x="52.5" y="64.3638">"setLocale"</text><polygon fill="#A80036" points="215.5,94.4297,225.5,98.4297,215.5,102.4297,219.5,98.4297" style="stroke: #A80036; stroke-width: 1.0;"/><line style="stroke: #A80036; stroke-width: 1.0;" x1="140.5" x2="221.5" y1="98.4297" y2="98.4297"/><text fill="#000000" font-family="sans-serif" font-size="13" lengthAdjust="spacingAndGlyphs" textLength="63" x="147.5" y="93.4966">SetLocale</text><polygon fill="#A80036" points="56.5,123.5625,46.5,127.5625,56.5,131.5625,52.5,127.5625" style="stroke: #A80036; stroke-width: 1.0;"/><line style="stroke: #A80036; stroke-width: 1.0;" x1="50.5" x2="231.5" y1="127.5625" y2="127.5625"/><text fill="#000000" font-family="sans-serif" font-size="13" lengthAdjust="spacingAndGlyphs" textLength="50" x="62.5" y="122.6294">"reload"</text></g></svg>