<?xml version="1.0" encoding="UTF-8" standalone="no"?><svg xmlns="http://www.w3.org/2000/svg" xmlns:xlink="http://www.w3.org/1999/xlink" contentScriptType="application/ecmascript" contentStyleType="text/css" height="256px" preserveAspectRatio="none" style="width:403px;height:256px;" version="1.1" viewBox="0 0 403 256" width="403px" zoomAndPan="magnify"><defs><filter height="300%" id="f1okij2p7ifveu" width="300%" x="-1" y="-1"><feGaussianBlur result="blurOut" stdDeviation="2.0"/><feColorMatrix in="blurOut" result="blurOut2" type="matrix" values="0 0 0 0 0 0 0 0 0 0 0 0 0 0 0 0 0 0 .4 0"/><feOffset dx="4.0" dy="4.0" in="blurOut2" result="blurOut3"/><feBlend in="SourceGraphic" in2="blurOut3" mode="normal"/></filter></defs><g><!--cluster org.jgrapes--><polygon fill="#FFFFFF" filter="url(#f1okij2p7ifveu)" points="22,24,119,24,126,46.2969,381,46.2969,381,244,22,244,22,24" style="stroke: #000000; stroke-width: 2.0;"/><line style="stroke: #000000; stroke-width: 2.0;" x1="22" x2="126" y1="46.2969" y2="46.2969"/><text fill="#000000" font-family="sans-serif" font-size="14" font-weight="bold" lengthAdjust="spacingAndGlyphs" textLength="91" x="26" y="38.9951">org.jgrapes</text><a target="_parent" xlink:actuate="onRequest" xlink:href="org/jgrapes/core/package-summary.html#package.description" xlink:show="new" xlink:title="org/jgrapes/core/package-summary.html#package.description" xlink:type="simple"><polygon fill="#FFFFFF" filter="url(#f1okij2p7ifveu)" points="38,60.5,176,60.5,183,82.7969,190,82.7969,190,113.0938,38,113.0938,38,60.5" style="stroke: #000000; stroke-width: 2.0;"/><line style="stroke: #000000; stroke-width: 2.0;" x1="38" x2="183" y1="82.7969" y2="82.7969"/><text fill="#000000" font-family="sans-serif" font-size="14" font-weight="bold" lengthAdjust="spacingAndGlyphs" textLength="132" x="42" y="75.4951">org.jgrapes.core</text></a><a target="_parent" xlink:actuate="onRequest" xlink:href="org/jgrapes/util/package-summary.html#package.description" xlink:show="new" xlink:title="org/jgrapes/util/package-summary.html#package.description" xlink:type="simple"><polygon fill="#FFFFFF" filter="url(#f1okij2p7ifveu)" points="225,60.5,351,60.5,358,82.7969,365,82.7969,365,113.0938,225,113.0938,225,60.5" style="stroke: #000000; stroke-width: 2.0;"/><line style="stroke: #000000; stroke-width: 2.0;" x1="225" x2="358" y1="82.7969" y2="82.7969"/><text fill="#000000" font-family="sans-serif" font-size="14" font-weight="bold" lengthAdjust="spacingAndGlyphs" textLength="120" x="229" y="75.4951">org.jgrapes.util</text></a><a target="_parent" xlink:actuate="onRequest" xlink:href="org/jgrapes/io/package-summary.html#package.description" xlink:show="new" xlink:title="org/jgrapes/io/package-summary.html#package.description" xlink:type="simple"><polygon fill="#FFFFFF" filter="url(#f1okij2p7ifveu)" points="50,174.5,166,174.5,173,196.7969,180,196.7969,180,227.0938,50,227.0938,50,174.5" style="stroke: #000000; stroke-width: 2.0;"/><line style="stroke: #000000; stroke-width: 2.0;" x1="50" x2="173" y1="196.7969" y2="196.7969"/><text fill="#000000" font-family="sans-serif" font-size="14" font-weight="bold" lengthAdjust="spacingAndGlyphs" textLength="110" x="54" y="189.4951">org.jgrapes.io</text></a><a target="_parent" xlink:actuate="onRequest" xlink:href="org/jgrapes/http/package-summary.html#package.description" xlink:show="new" xlink:title="org/jgrapes/http/package-summary.html#package.description" xlink:type="simple"><polygon fill="#FFFFFF" filter="url(#f1okij2p7ifveu)" points="216,174.5,350,174.5,357,196.7969,364,196.7969,364,227.0938,216,227.0938,216,174.5" style="stroke: #000000; stroke-width: 2.0;"/><line style="stroke: #000000; stroke-width: 2.0;" x1="216" x2="357" y1="196.7969" y2="196.7969"/><text fill="#000000" font-family="sans-serif" font-size="14" font-weight="bold" lengthAdjust="spacingAndGlyphs" textLength="128" x="220" y="189.4951">org.jgrapes.http</text></a><!--link org.jgrapes.core to org.jgrapes.util--><path d="M195.181,87 C205.076,87 214.972,87 224.867,87 " fill="none" id="org.jgrapes.core-org.jgrapes.util" style="stroke: #A80036; stroke-width: 1.0; stroke-dasharray: 7.0,7.0;"/><polygon fill="#A80036" points="190.006,87,199.006,91,195.006,87,199.006,83,190.006,87" style="stroke: #A80036; stroke-width: 1.0;"/><!--link org.jgrapes.core to org.jgrapes.io--><path d="M114.277,118.969 C114.432,136.416 114.624,157.944 114.772,174.4245 " fill="none" id="org.jgrapes.core-org.jgrapes.io" style="stroke: #A80036; stroke-width: 1.0; stroke-dasharray: 7.0,7.0;"/><polygon fill="#A80036" points="114.229,113.695,110.3114,122.7312,114.2747,118.6948,118.3111,122.6581,114.229,113.695" style="stroke: #A80036; stroke-width: 1.0;"/><!--link org.jgrapes.util to org.jgrapes.io--><path d="M249.172,116.515 C220.489,134.363 183.846,157.163 156.103,174.4245 " fill="none" id="org.jgrapes.util-org.jgrapes.io" style="stroke: #A80036; stroke-width: 1.0; stroke-dasharray: 7.0,7.0;"/><polygon fill="#A80036" points="253.704,113.695,243.9494,115.0544,249.459,116.3369,248.1764,121.8465,253.704,113.695" style="stroke: #A80036; stroke-width: 1.0;"/><!--link org.jgrapes.io to org.jgrapes.http--><path d="M185.286,201 C195.476,201 205.665,201 215.855,201 " fill="none" id="org.jgrapes.io-org.jgrapes.http" style="stroke: #A80036; stroke-width: 1.0; stroke-dasharray: 7.0,7.0;"/><polygon fill="#A80036" points="180.283,201,189.283,205,185.283,201,189.283,197,180.283,201" style="stroke: #A80036; stroke-width: 1.0;"/><!--
@startuml
skinparam svgLinkTarget _parent

package org.jgrapes {
    package org.jgrapes.core [[org/jgrapes/core/package-summary.html#package.description]] {
    }

    package org.jgrapes.util [[org/jgrapes/util/package-summary.html#package.description]] {
    }

    package org.jgrapes.io [[org/jgrapes/io/package-summary.html#package.description]] {
    }

    package org.jgrapes.http [[org/jgrapes/http/package-summary.html#package.description]] {
    }
}

org.jgrapes.core <.right. org.jgrapes.util
org.jgrapes.core <.. org.jgrapes.io
org.jgrapes.util <.. org.jgrapes.io
org.jgrapes.io <.right. org.jgrapes.http
@enduml

PlantUML version 1.2017.18(Fri Oct 06 16:56:32 UTC 2017)
(GPL source distribution)
Java Runtime: Java(TM) SE Runtime Environment
JVM: Java HotSpot(TM) 64-Bit Server VM
Java Version: 1.8.0_151-b12
Operating System: Linux
OS Version: 4.4.0-101-generic
Default Encoding: UTF-8
Language: en
Country: US
--></g></svg>