<?xml version="1.0" encoding="UTF-8" standalone="no"?><svg xmlns="http://www.w3.org/2000/svg" xmlns:xlink="http://www.w3.org/1999/xlink" contentScriptType="application/ecmascript" contentStyleType="text/css" height="256px" preserveAspectRatio="none" style="width:401px;height:256px;" version="1.1" viewBox="0 0 401 256" width="401px" zoomAndPan="magnify"><defs><filter height="300%" id="f1okij2p7ifveu" width="300%" x="-1" y="-1"><feGaussianBlur result="blurOut" stdDeviation="2.0"/><feColorMatrix in="blurOut" result="blurOut2" type="matrix" values="0 0 0 0 0 0 0 0 0 0 0 0 0 0 0 0 0 0 .4 0"/><feOffset dx="4.0" dy="4.0" in="blurOut2" result="blurOut3"/><feBlend in="SourceGraphic" in2="blurOut3" mode="normal"/></filter></defs><g><!--cluster org.jgrapes--><polygon fill="#FFFFFF" filter="url(#f1okij2p7ifveu)" points="22,24,118,24,125,46.29,379,46.29,379,244,22,244,22,24" style="stroke: #000000; stroke-width: 2.0;"/><line style="stroke: #000000; stroke-width: 2.0;" x1="22" x2="125" y1="46.29" y2="46.29"/><text fill="#000000" font-family="sans-serif" font-size="14" font-weight="bold" lengthAdjust="spacingAndGlyphs" textLength="90" x="26" y="39.3027">org.jgrapes</text><a target="_parent" xlink:actuate="onRequest" xlink:href="org/jgrapes/core/package-summary.html#package.description" xlink:show="new" xlink:title="org/jgrapes/core/package-summary.html#package.description" xlink:type="simple"><polygon fill="#FFFFFF" filter="url(#f1okij2p7ifveu)" points="37.75,60.5,172.75,60.5,179.75,82.79,186.75,82.79,186.75,113.0801,37.75,113.0801,37.75,60.5" style="stroke: #000000; stroke-width: 2.0;"/><line style="stroke: #000000; stroke-width: 2.0;" x1="37.75" x2="179.75" y1="82.79" y2="82.79"/><text fill="#000000" font-family="sans-serif" font-size="14" font-weight="bold" lengthAdjust="spacingAndGlyphs" textLength="129" x="41.75" y="75.8027">org.jgrapes.core</text></a><a target="_parent" xlink:actuate="onRequest" xlink:href="org/jgrapes/util/package-summary.html#package.description" xlink:show="new" xlink:title="org/jgrapes/util/package-summary.html#package.description" xlink:type="simple"><polygon fill="#FFFFFF" filter="url(#f1okij2p7ifveu)" points="221.75,60.5,348.75,60.5,355.75,82.79,362.75,82.79,362.75,113.0801,221.75,113.0801,221.75,60.5" style="stroke: #000000; stroke-width: 2.0;"/><line style="stroke: #000000; stroke-width: 2.0;" x1="221.75" x2="355.75" y1="82.79" y2="82.79"/><text fill="#000000" font-family="sans-serif" font-size="14" font-weight="bold" lengthAdjust="spacingAndGlyphs" textLength="121" x="225.75" y="75.8027">org.jgrapes.util</text></a><a target="_parent" xlink:actuate="onRequest" xlink:href="org/jgrapes/io/package-summary.html#package.description" xlink:show="new" xlink:title="org/jgrapes/io/package-summary.html#package.description" xlink:type="simple"><polygon fill="#FFFFFF" filter="url(#f1okij2p7ifveu)" points="48,174.5,164,174.5,171,196.79,178,196.79,178,227.0801,48,227.0801,48,174.5" style="stroke: #000000; stroke-width: 2.0;"/><line style="stroke: #000000; stroke-width: 2.0;" x1="48" x2="171" y1="196.79" y2="196.79"/><text fill="#000000" font-family="sans-serif" font-size="14" font-weight="bold" lengthAdjust="spacingAndGlyphs" textLength="110" x="52" y="189.8027">org.jgrapes.io</text></a><a target="_parent" xlink:actuate="onRequest" xlink:href="org/jgrapes/http/package-summary.html#package.description" xlink:show="new" xlink:title="org/jgrapes/http/package-summary.html#package.description" xlink:type="simple"><polygon fill="#FFFFFF" filter="url(#f1okij2p7ifveu)" points="214.75,174.5,347.75,174.5,354.75,196.79,361.75,196.79,361.75,227.0801,214.75,227.0801,214.75,174.5" style="stroke: #000000; stroke-width: 2.0;"/><line style="stroke: #000000; stroke-width: 2.0;" x1="214.75" x2="354.75" y1="196.79" y2="196.79"/><text fill="#000000" font-family="sans-serif" font-size="14" font-weight="bold" lengthAdjust="spacingAndGlyphs" textLength="127" x="218.75" y="189.8027">org.jgrapes.http</text></a><!--link org.jgrapes.core to org.jgrapes.util--><path d="M191.729,87 C201.67,87 211.61,87 221.55,87 " fill="none" id="org.jgrapes.core-org.jgrapes.util" style="stroke: #A80036; stroke-width: 1.0; stroke-dasharray: 7.0,7.0;"/><polygon fill="#A80036" points="186.531,87,195.531,91,191.531,87,195.531,83,186.531,87" style="stroke: #A80036; stroke-width: 1.0;"/><!--link org.jgrapes.core to org.jgrapes.io--><path d="M112.277,118.969 C112.432,136.416 112.624,157.944 112.772,174.4245 " fill="none" id="org.jgrapes.core-org.jgrapes.io" style="stroke: #A80036; stroke-width: 1.0; stroke-dasharray: 7.0,7.0;"/><polygon fill="#A80036" points="112.229,113.695,108.3114,122.7312,112.2747,118.6948,116.3111,122.6581,112.229,113.695" style="stroke: #A80036; stroke-width: 1.0;"/><!--link org.jgrapes.util to org.jgrapes.io--><path d="M246.426,116.515 C217.903,134.363 181.463,157.163 153.875,174.4245 " fill="none" id="org.jgrapes.util-org.jgrapes.io" style="stroke: #A80036; stroke-width: 1.0; stroke-dasharray: 7.0,7.0;"/><polygon fill="#A80036" points="250.934,113.695,241.1826,115.0768,246.6951,116.3467,245.4252,121.8592,250.934,113.695" style="stroke: #A80036; stroke-width: 1.0;"/><!--link org.jgrapes.io to org.jgrapes.http--><path d="M183.406,201 C193.842,201 204.277,201 214.713,201 " fill="none" id="org.jgrapes.io-org.jgrapes.http" style="stroke: #A80036; stroke-width: 1.0; stroke-dasharray: 7.0,7.0;"/><polygon fill="#A80036" points="178.283,201,187.283,205,183.283,201,187.283,197,178.283,201" style="stroke: #A80036; stroke-width: 1.0;"/><!--
@startuml
skinparam svgLinkTarget _parent

package org.jgrapes {
    package org.jgrapes.core [[org/jgrapes/core/package-summary.html#package.description]] {
    }

    package org.jgrapes.util [[org/jgrapes/util/package-summary.html#package.description]] {
    }

    package org.jgrapes.io [[org/jgrapes/io/package-summary.html#package.description]] {
    }

    package org.jgrapes.http [[org/jgrapes/http/package-summary.html#package.description]] {
    }
}

org.jgrapes.core <.right. org.jgrapes.util
org.jgrapes.core <.. org.jgrapes.io
org.jgrapes.util <.. org.jgrapes.io
org.jgrapes.io <.right. org.jgrapes.http
@enduml

PlantUML version 1.2017.18(Fri Oct 06 16:56:32 UTC 2017)
(GPL source distribution)
Java Runtime: Java(TM) SE Runtime Environment
JVM: Java HotSpot(TM) 64-Bit Server VM
Java Version: 9.0.1+11
Operating System: Linux
OS Version: 4.14.12-041412-generic
Default Encoding: UTF-8
Language: en
Country: US
--></g></svg>