<?xml version="1.0" encoding="UTF-8" standalone="no"?><svg xmlns="http://www.w3.org/2000/svg" xmlns:xlink="http://www.w3.org/1999/xlink" contentScriptType="application/ecmascript" contentStyleType="text/css" height="229px" preserveAspectRatio="none" style="width:379px;height:229px;" version="1.1" viewBox="0 0 379 229" width="379px" zoomAndPan="magnify"><defs><filter height="300%" id="f1okij2p7ifveu" width="300%" x="-1" y="-1"><feGaussianBlur result="blurOut" stdDeviation="2.0"/><feColorMatrix in="blurOut" result="blurOut2" type="matrix" values="0 0 0 0 0 0 0 0 0 0 0 0 0 0 0 0 0 0 .4 0"/><feOffset dx="4.0" dy="4.0" in="blurOut2" result="blurOut3"/><feBlend in="SourceGraphic" in2="blurOut3" mode="normal"/></filter></defs><g><!--cluster org.jgrapes--><polygon fill="#FFFFFF" filter="url(#f1okij2p7ifveu)" points="14,16,111,16,118,38.2969,357,38.2969,357,217,14,217,14,16" style="stroke: #000000; stroke-width: 2.0;"/><line style="stroke: #000000; stroke-width: 2.0;" x1="14" x2="118" y1="38.2969" y2="38.2969"/><text fill="#000000" font-family="sans-serif" font-size="14" font-weight="bold" lengthAdjust="spacingAndGlyphs" textLength="91" x="18" y="30.9951">org.jgrapes</text><a target="_parent" xlink:actuate="onRequest" xlink:href="org/jgrapes/core/package-summary.html#package.description" xlink:show="new" xlink:title="org/jgrapes/core/package-summary.html#package.description" xlink:type="simple"><polygon fill="#FFFFFF" filter="url(#f1okij2p7ifveu)" points="22,43,160,43,167,65.2969,174,65.2969,174,95.5938,22,95.5938,22,43" style="stroke: #000000; stroke-width: 2.0;"/><line style="stroke: #000000; stroke-width: 2.0;" x1="22" x2="167" y1="65.2969" y2="65.2969"/><text fill="#000000" font-family="sans-serif" font-size="14" font-weight="bold" lengthAdjust="spacingAndGlyphs" textLength="132" x="26" y="57.9951">org.jgrapes.core</text></a><a target="_parent" xlink:actuate="onRequest" xlink:href="org/jgrapes/util/package-summary.html#package.description" xlink:show="new" xlink:title="org/jgrapes/util/package-summary.html#package.description" xlink:type="simple"><polygon fill="#FFFFFF" filter="url(#f1okij2p7ifveu)" points="209,43,335,43,342,65.2969,349,65.2969,349,95.5938,209,95.5938,209,43" style="stroke: #000000; stroke-width: 2.0;"/><line style="stroke: #000000; stroke-width: 2.0;" x1="209" x2="342" y1="65.2969" y2="65.2969"/><text fill="#000000" font-family="sans-serif" font-size="14" font-weight="bold" lengthAdjust="spacingAndGlyphs" textLength="120" x="213" y="57.9951">org.jgrapes.util</text></a><a target="_parent" xlink:actuate="onRequest" xlink:href="org/jgrapes/io/package-summary.html#package.description" xlink:show="new" xlink:title="org/jgrapes/io/package-summary.html#package.description" xlink:type="simple"><polygon fill="#FFFFFF" filter="url(#f1okij2p7ifveu)" points="34,156,150,156,157,178.2969,164,178.2969,164,208.5938,34,208.5938,34,156" style="stroke: #000000; stroke-width: 2.0;"/><line style="stroke: #000000; stroke-width: 2.0;" x1="34" x2="157" y1="178.2969" y2="178.2969"/><text fill="#000000" font-family="sans-serif" font-size="14" font-weight="bold" lengthAdjust="spacingAndGlyphs" textLength="110" x="38" y="170.9951">org.jgrapes.io</text></a><a target="_parent" xlink:actuate="onRequest" xlink:href="org/jgrapes/http/package-summary.html#package.description" xlink:show="new" xlink:title="org/jgrapes/http/package-summary.html#package.description" xlink:type="simple"><polygon fill="#FFFFFF" filter="url(#f1okij2p7ifveu)" points="199,156,333,156,340,178.2969,347,178.2969,347,208.5938,199,208.5938,199,156" style="stroke: #000000; stroke-width: 2.0;"/><line style="stroke: #000000; stroke-width: 2.0;" x1="199" x2="340" y1="178.2969" y2="178.2969"/><text fill="#000000" font-family="sans-serif" font-size="14" font-weight="bold" lengthAdjust="spacingAndGlyphs" textLength="128" x="203" y="170.9951">org.jgrapes.http</text></a><!--link org.jgrapes.core to org.jgrapes.util--><path d="M179.1806,69.5 C189.0761,69.5 198.9717,69.5 208.8672,69.5 " fill="none" id="org.jgrapes.core-org.jgrapes.util" style="stroke: #A80036; stroke-width: 1.0; stroke-dasharray: 7.0,7.0;"/><polygon fill="#A80036" points="174.0059,69.5,183.0059,73.5,179.0059,69.5,183.0059,65.5,174.0059,69.5" style="stroke: #A80036; stroke-width: 1.0;"/><!--link org.jgrapes.core to org.jgrapes.io--><path d="M98.2831,101.4849 C98.4352,118.6766 98.6206,139.6249 98.7647,155.9128 " fill="none" id="org.jgrapes.core-org.jgrapes.io" style="stroke: #A80036; stroke-width: 1.0; stroke-dasharray: 7.0,7.0;"/><polygon fill="#A80036" points="98.237,96.2794,94.3169,105.3145,98.2813,101.2792,102.3166,105.2436,98.237,96.2794" style="stroke: #A80036; stroke-width: 1.0;"/><!--link org.jgrapes.util to org.jgrapes.io--><path d="M231.9042,99.0657 C203.8467,116.6796 168.5268,138.8526 141.3513,155.9128 " fill="none" id="org.jgrapes.util-org.jgrapes.io" style="stroke: #A80036; stroke-width: 1.0; stroke-dasharray: 7.0,7.0;"/><polygon fill="#A80036" points="236.3425,96.2794,226.5933,97.677,232.1079,98.9379,230.847,104.4525,236.3425,96.2794" style="stroke: #A80036; stroke-width: 1.0;"/><!--link org.jgrapes.io to org.jgrapes.http--><path d="M169.3576,182.5 C179.1248,182.5 188.892,182.5 198.6592,182.5 " fill="none" id="org.jgrapes.io-org.jgrapes.http" style="stroke: #A80036; stroke-width: 1.0; stroke-dasharray: 7.0,7.0;"/><polygon fill="#A80036" points="164.25,182.5,173.25,186.5,169.25,182.5,173.25,178.5,164.25,182.5" style="stroke: #A80036; stroke-width: 1.0;"/><!--
@startuml
skinparam svgLinkTarget _parent

package org.jgrapes {
    package org.jgrapes.core [[org/jgrapes/core/package-summary.html#package.description]] {
    }

    package org.jgrapes.util [[org/jgrapes/util/package-summary.html#package.description]] {
    }

    package org.jgrapes.io [[org/jgrapes/io/package-summary.html#package.description]] {
    }

    package org.jgrapes.http [[org/jgrapes/http/package-summary.html#package.description]] {
    }
}

org.jgrapes.core <.right. org.jgrapes.util
org.jgrapes.core <.. org.jgrapes.io
org.jgrapes.util <.. org.jgrapes.io
org.jgrapes.io <.right. org.jgrapes.http
@enduml

PlantUML version 1.2017.18(Fri Oct 06 18:56:32 CEST 2017)
(GPL source distribution)
Java Runtime: OpenJDK Runtime Environment
JVM: OpenJDK 64-Bit Server VM
Java Version: 1.8.0_212-b04
Operating System: Linux
OS Version: 5.0.3-200.fc29.x86_64
Default Encoding: UTF-8
Language: de
Country: DE
--></g></svg>