<?xml version="1.0" encoding="UTF-8" standalone="no"?><svg xmlns="http://www.w3.org/2000/svg" xmlns:xlink="http://www.w3.org/1999/xlink" contentScriptType="application/ecmascript" contentStyleType="text/css" height="517px" preserveAspectRatio="none" style="width:748px;height:517px;" version="1.1" viewBox="0 0 748 517" width="748px" zoomAndPan="magnify"><defs><filter height="300%" id="fmer4v1" width="300%" x="-1" y="-1"><feGaussianBlur result="blurOut" stdDeviation="2.0"/><feColorMatrix in="blurOut" result="blurOut2" type="matrix" values="0 0 0 0 0 0 0 0 0 0 0 0 0 0 0 0 0 0 .4 0"/><feOffset dx="4.0" dy="4.0" in="blurOut2" result="blurOut3"/><feBlend in="SourceGraphic" in2="blurOut3" mode="normal"/></filter></defs><g><rect fill="#FFFFFF" filter="url(#fmer4v1)" height="29.1328" style="stroke: #A80036; stroke-width: 1.0;" width="10" x="198" y="117.2969"/><rect fill="#FFFFFF" filter="url(#fmer4v1)" height="29.1328" style="stroke: #A80036; stroke-width: 1.0;" width="10" x="198" y="374.4922"/><rect fill="#FFFFFF" filter="url(#fmer4v1)" height="29.1328" style="stroke: #A80036; stroke-width: 1.0;" width="10" x="361" y="146.4297"/><rect fill="#FFFFFF" filter="url(#fmer4v1)" height="184.9297" style="stroke: #A80036; stroke-width: 1.0;" width="10" x="361" y="233.8281"/><rect fill="#FFFFFF" filter="url(#fmer4v1)" height="29.1328" style="stroke: #A80036; stroke-width: 1.0;" width="10" x="361" y="468.8906"/><rect fill="#FFFFFF" filter="url(#fmer4v1)" height="29.1328" style="stroke: #A80036; stroke-width: 1.0;" width="10" x="533" y="175.5625"/><rect fill="#FFFFFF" filter="url(#fmer4v1)" height="29.1328" style="stroke: #A80036; stroke-width: 1.0;" width="10" x="687.5" y="345.3594"/><rect fill="#FFFFFF" filter="url(#fmer4v1)" height="104.5313" style="stroke: #000000; stroke-width: 2.0;" width="726.5" x="13" y="307.2266"/><line style="stroke: #A80036; stroke-width: 1.0; stroke-dasharray: 5.0,5.0;" x1="61" x2="61" y1="86.2969" y2="516.1563"/><line style="stroke: #A80036; stroke-width: 1.0; stroke-dasharray: 5.0,5.0;" x1="202.5" x2="202.5" y1="86.2969" y2="516.1563"/><line style="stroke: #A80036; stroke-width: 1.0; stroke-dasharray: 5.0,5.0;" x1="365.5" x2="365.5" y1="86.2969" y2="516.1563"/><line style="stroke: #A80036; stroke-width: 1.0; stroke-dasharray: 5.0,5.0;" x1="537.5" x2="537.5" y1="86.2969" y2="516.1563"/><line style="stroke: #A80036; stroke-width: 1.0; stroke-dasharray: 5.0,5.0;" x1="616.5" x2="616.5" y1="86.2969" y2="516.1563"/><line style="stroke: #A80036; stroke-width: 1.0; stroke-dasharray: 5.0,5.0;" x1="692.5" x2="692.5" y1="86.2969" y2="516.1563"/><rect fill="#FEFECE" filter="url(#fmer4v1)" height="30.2969" style="stroke: #A80036; stroke-width: 1.5;" width="72" x="23" y="51"/><text fill="#000000" font-family="sans-serif" font-size="14" lengthAdjust="spacingAndGlyphs" textLength="58" x="30" y="70.9951">Browser</text><rect fill="#FEFECE" filter="url(#fmer4v1)" height="30.2969" style="stroke: #A80036; stroke-width: 1.5;" width="55" x="173.5" y="51"/><text fill="#000000" font-family="sans-serif" font-size="14" lengthAdjust="spacingAndGlyphs" textLength="41" x="180.5" y="70.9951">Portal</text><rect fill="#FEFECE" filter="url(#fmer4v1)" height="30.2969" style="stroke: #A80036; stroke-width: 1.5;" width="197" x="265.5" y="51"/><text fill="#000000" font-family="sans-serif" font-size="14" lengthAdjust="spacingAndGlyphs" textLength="183" x="272.5" y="70.9951">KVStoreBasedPortalPolicy</text><rect fill="#FEFECE" filter="url(#fmer4v1)" height="30.2969" style="stroke: #A80036; stroke-width: 1.5;" width="75" x="498.5" y="51"/><text fill="#000000" font-family="sans-serif" font-size="14" lengthAdjust="spacingAndGlyphs" textLength="61" x="505.5" y="70.9951">KV Store</text><text fill="#000000" font-family="sans-serif" font-size="14" lengthAdjust="spacingAndGlyphs" textLength="52" x="587.5" y="82.9951">System</text><ellipse cx="616.5" cy="13" fill="#FEFECE" filter="url(#fmer4v1)" rx="8" ry="8" style="stroke: #A80036; stroke-width: 2.0;"/><path d="M616.5,21 L616.5,48 M603.5,29 L629.5,29 M616.5,48 L603.5,63 M616.5,48 L629.5,63 " fill="#FEFECE" filter="url(#fmer4v1)" style="stroke: #A80036; stroke-width: 2.0;"/><rect fill="#FEFECE" filter="url(#fmer4v1)" height="30.2969" style="stroke: #A80036; stroke-width: 1.5;" width="70" x="655.5" y="51"/><text fill="#000000" font-family="sans-serif" font-size="14" lengthAdjust="spacingAndGlyphs" textLength="56" x="662.5" y="70.9951">PortletX</text><rect fill="#FFFFFF" filter="url(#fmer4v1)" height="29.1328" style="stroke: #A80036; stroke-width: 1.0;" width="10" x="198" y="117.2969"/><rect fill="#FFFFFF" filter="url(#fmer4v1)" height="29.1328" style="stroke: #A80036; stroke-width: 1.0;" width="10" x="198" y="374.4922"/><rect fill="#FFFFFF" filter="url(#fmer4v1)" height="29.1328" style="stroke: #A80036; stroke-width: 1.0;" width="10" x="361" y="146.4297"/><rect fill="#FFFFFF" filter="url(#fmer4v1)" height="184.9297" style="stroke: #A80036; stroke-width: 1.0;" width="10" x="361" y="233.8281"/><rect fill="#FFFFFF" filter="url(#fmer4v1)" height="29.1328" style="stroke: #A80036; stroke-width: 1.0;" width="10" x="361" y="468.8906"/><rect fill="#FFFFFF" filter="url(#fmer4v1)" height="29.1328" style="stroke: #A80036; stroke-width: 1.0;" width="10" x="533" y="175.5625"/><rect fill="#FFFFFF" filter="url(#fmer4v1)" height="29.1328" style="stroke: #A80036; stroke-width: 1.0;" width="10" x="687.5" y="345.3594"/><polygon fill="#A80036" points="186,113.2969,196,117.2969,186,121.2969,190,117.2969" style="stroke: #A80036; stroke-width: 1.0;"/><line style="stroke: #A80036; stroke-width: 1.0;" x1="61" x2="192" y1="117.2969" y2="117.2969"/><text fill="#000000" font-family="sans-serif" font-size="13" lengthAdjust="spacingAndGlyphs" textLength="91" x="68" y="112.3638">"portalReady"</text><polygon fill="#A80036" points="349,142.4297,359,146.4297,349,150.4297,353,146.4297" style="stroke: #A80036; stroke-width: 1.0;"/><line style="stroke: #A80036; stroke-width: 1.0;" x1="203" x2="355" y1="146.4297" y2="146.4297"/><text fill="#000000" font-family="sans-serif" font-size="13" lengthAdjust="spacingAndGlyphs" textLength="79" x="210" y="141.4966">PortalReady</text><polygon fill="#A80036" points="521,171.5625,531,175.5625,521,179.5625,525,175.5625" style="stroke: #A80036; stroke-width: 1.0;"/><line style="stroke: #A80036; stroke-width: 1.0;" x1="366" x2="527" y1="175.5625" y2="175.5625"/><text fill="#000000" font-family="sans-serif" font-size="13" lengthAdjust="spacingAndGlyphs" textLength="135" x="373" y="170.6294">KeyValueStoreQuery</text><polygon fill="#A80036" points="377,200.6953,367,204.6953,377,208.6953,373,204.6953" style="stroke: #A80036; stroke-width: 1.0;"/><line style="stroke: #A80036; stroke-width: 1.0;" x1="371" x2="537" y1="204.6953" y2="204.6953"/><text fill="#000000" font-family="sans-serif" font-size="13" lengthAdjust="spacingAndGlyphs" textLength="127" x="383" y="199.7622">KeyValueStoreData</text><polygon fill="#A80036" points="382,229.8281,372,233.8281,382,237.8281,378,233.8281" style="stroke: #A80036; stroke-width: 1.0;"/><line style="stroke: #A80036; stroke-width: 1.0;" x1="376" x2="615.5" y1="233.8281" y2="233.8281"/><text fill="#000000" font-family="sans-serif" font-size="13" lengthAdjust="spacingAndGlyphs" textLength="96" x="388" y="228.895">PortalPrepared</text><polygon fill="#A80036" points="214,258.9609,204,262.9609,214,266.9609,210,262.9609" style="stroke: #A80036; stroke-width: 1.0;"/><line style="stroke: #A80036; stroke-width: 1.0;" x1="208" x2="360" y1="262.9609" y2="262.9609"/><text fill="#000000" font-family="sans-serif" font-size="13" lengthAdjust="spacingAndGlyphs" textLength="109" x="220" y="258.0278">LastPortalLayout</text><polygon fill="#A80036" points="72,288.0938,62,292.0938,72,296.0938,68,292.0938" style="stroke: #A80036; stroke-width: 1.0;"/><line style="stroke: #A80036; stroke-width: 1.0;" x1="66" x2="202" y1="292.0938" y2="292.0938"/><text fill="#000000" font-family="sans-serif" font-size="13" lengthAdjust="spacingAndGlyphs" textLength="118" x="78" y="287.1606">"lastPortalLayout"</text><rect fill="none" height="104.5313" style="stroke: #000000; stroke-width: 2.0;" width="726.5" x="13" y="307.2266"/><polygon fill="#EEEEEE" points="13,307.2266,89,307.2266,89,314.2266,79,324.2266,13,324.2266,13,307.2266" style="stroke: #000000; stroke-width: 2.0;"/><text fill="#000000" font-family="sans-serif" font-size="13" font-weight="bold" lengthAdjust="spacingAndGlyphs" textLength="31" x="28" y="320.2935">loop</text><text fill="#000000" font-family="sans-serif" font-size="11" font-weight="bold" lengthAdjust="spacingAndGlyphs" textLength="200" x="104" y="319.437">[for all portlets to be displayed]</text><polygon fill="#A80036" points="675.5,341.3594,685.5,345.3594,675.5,349.3594,679.5,345.3594" style="stroke: #A80036; stroke-width: 1.0;"/><line style="stroke: #A80036; stroke-width: 1.0;" x1="371" x2="681.5" y1="345.3594" y2="345.3594"/><text fill="#000000" font-family="sans-serif" font-size="13" lengthAdjust="spacingAndGlyphs" textLength="142" x="378" y="340.4263">RenderPortletRequest</text><polygon fill="#A80036" points="219,370.4922,209,374.4922,219,378.4922,215,374.4922" style="stroke: #A80036; stroke-width: 1.0;"/><line style="stroke: #A80036; stroke-width: 1.0;" x1="213" x2="691.5" y1="374.4922" y2="374.4922"/><text fill="#000000" font-family="sans-serif" font-size="13" lengthAdjust="spacingAndGlyphs" textLength="89" x="225" y="369.5591">RenderPortlet</text><polygon fill="#A80036" points="72,399.625,62,403.625,72,407.625,68,403.625" style="stroke: #A80036; stroke-width: 1.0;"/><line style="stroke: #A80036; stroke-width: 1.0;" x1="66" x2="202" y1="403.625" y2="403.625"/><text fill="#000000" font-family="sans-serif" font-size="13" lengthAdjust="spacingAndGlyphs" textLength="97" x="78" y="398.6919">"renderPortlet"</text><polygon fill="#A80036" points="191,435.7578,201,439.7578,191,443.7578,195,439.7578" style="stroke: #A80036; stroke-width: 1.0;"/><line style="stroke: #A80036; stroke-width: 1.0;" x1="61" x2="197" y1="439.7578" y2="439.7578"/><text fill="#000000" font-family="sans-serif" font-size="13" lengthAdjust="spacingAndGlyphs" textLength="94" x="68" y="434.8247">"portalLayout"</text><polygon fill="#A80036" points="349,464.8906,359,468.8906,349,472.8906,353,468.8906" style="stroke: #A80036; stroke-width: 1.0;"/><line style="stroke: #A80036; stroke-width: 1.0;" x1="203" x2="355" y1="468.8906" y2="468.8906"/><text fill="#000000" font-family="sans-serif" font-size="13" lengthAdjust="spacingAndGlyphs" textLength="139" x="210" y="463.9575">PortalLayoutChanged</text><polygon fill="#A80036" points="526,494.0234,536,498.0234,526,502.0234,530,498.0234" style="stroke: #A80036; stroke-width: 1.0;"/><line style="stroke: #A80036; stroke-width: 1.0;" x1="366" x2="532" y1="498.0234" y2="498.0234"/><text fill="#000000" font-family="sans-serif" font-size="13" lengthAdjust="spacingAndGlyphs" textLength="143" x="373" y="493.0903">KeyValueStoreUpdate</text></g></svg>