<?xml version="1.0" encoding="UTF-8" standalone="no"?><svg xmlns="http://www.w3.org/2000/svg" xmlns:xlink="http://www.w3.org/1999/xlink" contentScriptType="application/ecmascript" contentStyleType="text/css" height="519px" preserveAspectRatio="none" style="width:610px;height:519px;" version="1.1" viewBox="0 0 610 519" width="610px" zoomAndPan="magnify"><defs><filter height="300%" id="f3hbdgn" width="300%" x="-1" y="-1"><feGaussianBlur result="blurOut" stdDeviation="2.0"/><feColorMatrix in="blurOut" result="blurOut2" type="matrix" values="0 0 0 0 0 0 0 0 0 0 0 0 0 0 0 0 0 0 .4 0"/><feOffset dx="4.0" dy="4.0" in="blurOut2" result="blurOut3"/><feBlend in="SourceGraphic" in2="blurOut3" mode="normal"/></filter></defs><g><rect fill="#FFFFFF" filter="url(#f3hbdgn)" height="147.6641" style="stroke: #A80036; stroke-width: 1.0;" width="10" x="206" y="117.2969"/><rect fill="#FFFFFF" filter="url(#f3hbdgn)" height="29.1328" style="stroke: #A80036; stroke-width: 1.0;" width="10" x="211" y="199.6953"/><rect fill="#FFFFFF" filter="url(#f3hbdgn)" height="29.1328" style="stroke: #A80036; stroke-width: 1.0;" width="10" x="206" y="405.625"/><rect fill="#FFFFFF" filter="url(#f3hbdgn)" height="29.1328" style="stroke: #A80036; stroke-width: 1.0;" width="10" x="206" y="470.8906"/><rect fill="#FFFFFF" filter="url(#f3hbdgn)" height="29.1328" style="stroke: #A80036; stroke-width: 1.0;" width="10" x="340" y="170.5625"/><rect fill="#FFFFFF" filter="url(#f3hbdgn)" height="29.1328" style="stroke: #A80036; stroke-width: 1.0;" width="10" x="340" y="376.4922"/><rect fill="#FFFFFF" filter="url(#f3hbdgn)" height="184.9297" style="stroke: #A80036; stroke-width: 1.0;" width="10" x="536" y="264.9609"/><rect fill="#FFFFFF" filter="url(#f3hbdgn)" height="104.5313" style="stroke: #000000; stroke-width: 2.0;" width="379" x="13" y="132.4297"/><rect fill="#FFFFFF" filter="url(#f3hbdgn)" height="104.5313" style="stroke: #000000; stroke-width: 2.0;" width="588" x="13" y="338.3594"/><line style="stroke: #A80036; stroke-width: 1.0; stroke-dasharray: 5.0,5.0;" x1="61" x2="61" y1="86.2969" y2="518.1563"/><line style="stroke: #A80036; stroke-width: 1.0; stroke-dasharray: 5.0,5.0;" x1="210.5" x2="210.5" y1="86.2969" y2="518.1563"/><line style="stroke: #A80036; stroke-width: 1.0; stroke-dasharray: 5.0,5.0;" x1="345" x2="345" y1="86.2969" y2="518.1563"/><line style="stroke: #A80036; stroke-width: 1.0; stroke-dasharray: 5.0,5.0;" x1="421" x2="421" y1="86.2969" y2="518.1563"/><line style="stroke: #A80036; stroke-width: 1.0; stroke-dasharray: 5.0,5.0;" x1="541" x2="541" y1="86.2969" y2="518.1563"/><rect fill="#FEFECE" filter="url(#f3hbdgn)" height="30.2969" style="stroke: #A80036; stroke-width: 1.5;" width="72" x="23" y="51"/><text fill="#000000" font-family="sans-serif" font-size="14" lengthAdjust="spacingAndGlyphs" textLength="58" x="30" y="70.9951">Browser</text><rect fill="#FEFECE" filter="url(#f3hbdgn)" height="30.2969" style="stroke: #A80036; stroke-width: 1.5;" width="55" x="181.5" y="51"/><text fill="#000000" font-family="sans-serif" font-size="14" lengthAdjust="spacingAndGlyphs" textLength="41" x="188.5" y="70.9951">Portal</text><rect fill="#FEFECE" filter="url(#f3hbdgn)" height="30.2969" style="stroke: #A80036; stroke-width: 1.5;" width="70" x="308" y="51"/><text fill="#000000" font-family="sans-serif" font-size="14" lengthAdjust="spacingAndGlyphs" textLength="56" x="315" y="70.9951">PortletX</text><text fill="#000000" font-family="sans-serif" font-size="14" lengthAdjust="spacingAndGlyphs" textLength="52" x="392" y="82.9951">System</text><ellipse cx="421" cy="13" fill="#FEFECE" filter="url(#f3hbdgn)" rx="8" ry="8" style="stroke: #A80036; stroke-width: 2.0;"/><path d="M421,21 L421,48 M408,29 L434,29 M421,48 L408,63 M421,48 L434,63 " fill="#FEFECE" filter="url(#f3hbdgn)" style="stroke: #A80036; stroke-width: 2.0;"/><rect fill="#FEFECE" filter="url(#f3hbdgn)" height="30.2969" style="stroke: #A80036; stroke-width: 1.5;" width="96" x="491" y="51"/><text fill="#000000" font-family="sans-serif" font-size="14" lengthAdjust="spacingAndGlyphs" textLength="82" x="498" y="70.9951">PortalPolicy</text><rect fill="#FFFFFF" filter="url(#f3hbdgn)" height="147.6641" style="stroke: #A80036; stroke-width: 1.0;" width="10" x="206" y="117.2969"/><rect fill="#FFFFFF" filter="url(#f3hbdgn)" height="29.1328" style="stroke: #A80036; stroke-width: 1.0;" width="10" x="211" y="199.6953"/><rect fill="#FFFFFF" filter="url(#f3hbdgn)" height="29.1328" style="stroke: #A80036; stroke-width: 1.0;" width="10" x="206" y="405.625"/><rect fill="#FFFFFF" filter="url(#f3hbdgn)" height="29.1328" style="stroke: #A80036; stroke-width: 1.0;" width="10" x="206" y="470.8906"/><rect fill="#FFFFFF" filter="url(#f3hbdgn)" height="29.1328" style="stroke: #A80036; stroke-width: 1.0;" width="10" x="340" y="170.5625"/><rect fill="#FFFFFF" filter="url(#f3hbdgn)" height="29.1328" style="stroke: #A80036; stroke-width: 1.0;" width="10" x="340" y="376.4922"/><rect fill="#FFFFFF" filter="url(#f3hbdgn)" height="184.9297" style="stroke: #A80036; stroke-width: 1.0;" width="10" x="536" y="264.9609"/><polygon fill="#A80036" points="194,113.2969,204,117.2969,194,121.2969,198,117.2969" style="stroke: #A80036; stroke-width: 1.0;"/><line style="stroke: #A80036; stroke-width: 1.0;" x1="61" x2="200" y1="117.2969" y2="117.2969"/><text fill="#000000" font-family="sans-serif" font-size="13" lengthAdjust="spacingAndGlyphs" textLength="91" x="68" y="112.3638">"portalReady"</text><rect fill="none" height="104.5313" style="stroke: #000000; stroke-width: 2.0;" width="379" x="13" y="132.4297"/><polygon fill="#EEEEEE" points="13,132.4297,89,132.4297,89,139.4297,79,149.4297,13,149.4297,13,132.4297" style="stroke: #000000; stroke-width: 2.0;"/><text fill="#000000" font-family="sans-serif" font-size="13" font-weight="bold" lengthAdjust="spacingAndGlyphs" textLength="31" x="28" y="145.4966">loop</text><text fill="#000000" font-family="sans-serif" font-size="11" font-weight="bold" lengthAdjust="spacingAndGlyphs" textLength="100" x="104" y="144.6401">[for all portlets]</text><polygon fill="#A80036" points="328,166.5625,338,170.5625,328,174.5625,332,170.5625" style="stroke: #A80036; stroke-width: 1.0;"/><line style="stroke: #A80036; stroke-width: 1.0;" x1="216" x2="334" y1="170.5625" y2="170.5625"/><text fill="#000000" font-family="sans-serif" font-size="13" lengthAdjust="spacingAndGlyphs" textLength="79" x="223" y="165.6294">PortalReady</text><polygon fill="#A80036" points="232,195.6953,222,199.6953,232,203.6953,228,199.6953" style="stroke: #A80036; stroke-width: 1.0;"/><line style="stroke: #A80036; stroke-width: 1.0;" x1="226" x2="344" y1="199.6953" y2="199.6953"/><text fill="#000000" font-family="sans-serif" font-size="13" lengthAdjust="spacingAndGlyphs" textLength="100" x="238" y="194.7622">AddPortletType</text><polygon fill="#A80036" points="72,224.8281,62,228.8281,72,232.8281,68,228.8281" style="stroke: #A80036; stroke-width: 1.0;"/><line style="stroke: #A80036; stroke-width: 1.0;" x1="66" x2="205" y1="228.8281" y2="228.8281"/><text fill="#000000" font-family="sans-serif" font-size="13" lengthAdjust="spacingAndGlyphs" textLength="111" x="78" y="223.895">"addPortletType"</text><polygon fill="#A80036" points="524,260.9609,534,264.9609,524,268.9609,528,264.9609" style="stroke: #A80036; stroke-width: 1.0;"/><line style="stroke: #A80036; stroke-width: 1.0;" x1="421" x2="530" y1="264.9609" y2="264.9609"/><text fill="#000000" font-family="sans-serif" font-size="13" lengthAdjust="spacingAndGlyphs" textLength="96" x="428" y="260.0278">PortalPrepared</text><polygon fill="#A80036" points="222,290.0938,212,294.0938,222,298.0938,218,294.0938" style="stroke: #A80036; stroke-width: 1.0;"/><line style="stroke: #A80036; stroke-width: 1.0;" x1="216" x2="535" y1="294.0938" y2="294.0938"/><text fill="#000000" font-family="sans-serif" font-size="13" lengthAdjust="spacingAndGlyphs" textLength="109" x="228" y="289.1606">LastPortalLayout</text><polygon fill="#A80036" points="72,319.2266,62,323.2266,72,327.2266,68,323.2266" style="stroke: #A80036; stroke-width: 1.0;"/><line style="stroke: #A80036; stroke-width: 1.0;" x1="66" x2="210" y1="323.2266" y2="323.2266"/><text fill="#000000" font-family="sans-serif" font-size="13" lengthAdjust="spacingAndGlyphs" textLength="118" x="78" y="318.2935">"lastPortalLayout"</text><rect fill="none" height="104.5313" style="stroke: #000000; stroke-width: 2.0;" width="588" x="13" y="338.3594"/><polygon fill="#EEEEEE" points="13,338.3594,89,338.3594,89,345.3594,79,355.3594,13,355.3594,13,338.3594" style="stroke: #000000; stroke-width: 2.0;"/><text fill="#000000" font-family="sans-serif" font-size="13" font-weight="bold" lengthAdjust="spacingAndGlyphs" textLength="31" x="28" y="351.4263">loop</text><text fill="#000000" font-family="sans-serif" font-size="11" font-weight="bold" lengthAdjust="spacingAndGlyphs" textLength="200" x="104" y="350.5698">[for all portlets to be displayed]</text><polygon fill="#A80036" points="361,372.4922,351,376.4922,361,380.4922,357,376.4922" style="stroke: #A80036; stroke-width: 1.0;"/><line style="stroke: #A80036; stroke-width: 1.0;" x1="355" x2="535" y1="376.4922" y2="376.4922"/><text fill="#000000" font-family="sans-serif" font-size="13" lengthAdjust="spacingAndGlyphs" textLength="142" x="367" y="371.5591">RenderPortletRequest</text><polygon fill="#A80036" points="227,401.625,217,405.625,227,409.625,223,405.625" style="stroke: #A80036; stroke-width: 1.0;"/><line style="stroke: #A80036; stroke-width: 1.0;" x1="221" x2="344" y1="405.625" y2="405.625"/><text fill="#000000" font-family="sans-serif" font-size="13" lengthAdjust="spacingAndGlyphs" textLength="89" x="233" y="400.6919">RenderPortlet</text><polygon fill="#A80036" points="72,430.7578,62,434.7578,72,438.7578,68,434.7578" style="stroke: #A80036; stroke-width: 1.0;"/><line style="stroke: #A80036; stroke-width: 1.0;" x1="66" x2="210" y1="434.7578" y2="434.7578"/><text fill="#000000" font-family="sans-serif" font-size="13" lengthAdjust="spacingAndGlyphs" textLength="97" x="78" y="429.8247">"renderPortlet"</text><polygon fill="#A80036" points="227,466.8906,217,470.8906,227,474.8906,223,470.8906" style="stroke: #A80036; stroke-width: 1.0;"/><line style="stroke: #A80036; stroke-width: 1.0;" x1="221" x2="420" y1="470.8906" y2="470.8906"/><text fill="#000000" font-family="sans-serif" font-size="13" lengthAdjust="spacingAndGlyphs" textLength="109" x="233" y="465.9575">PortalConfigured</text><polygon fill="#A80036" points="72,496.0234,62,500.0234,72,504.0234,68,500.0234" style="stroke: #A80036; stroke-width: 1.0;"/><line style="stroke: #A80036; stroke-width: 1.0;" x1="66" x2="210" y1="500.0234" y2="500.0234"/><text fill="#000000" font-family="sans-serif" font-size="13" lengthAdjust="spacingAndGlyphs" textLength="121" x="78" y="495.0903">"portalConfigured"</text></g></svg>