<?xml version="1.0" encoding="UTF-8" standalone="no"?><svg xmlns="http://www.w3.org/2000/svg" xmlns:xlink="http://www.w3.org/1999/xlink" contentScriptType="application/ecmascript" contentStyleType="text/css" height="391px" preserveAspectRatio="none" style="width:612px;height:391px;" version="1.1" viewBox="0 0 612 391" width="612px" zoomAndPan="magnify"><defs><filter height="300%" id="fauqkcqcz8qh4" width="300%" x="-1" y="-1"><feGaussianBlur result="blurOut" stdDeviation="2.0"/><feColorMatrix in="blurOut" result="blurOut2" type="matrix" values="0 0 0 0 0 0 0 0 0 0 0 0 0 0 0 0 0 0 .4 0"/><feOffset dx="4.0" dy="4.0" in="blurOut2" result="blurOut3"/><feBlend in="SourceGraphic" in2="blurOut3" mode="normal"/></filter></defs><g><!--cluster Conceptual Portal\n(Portal Gateway)--><rect fill="#FFFFFF" filter="url(#fauqkcqcz8qh4)" height="99" style="stroke: #000000; stroke-width: 2.0;" width="211" x="111" y="60"/><text fill="#000000" font-family="sans-serif" font-size="14" font-weight="bold" lengthAdjust="spacingAndGlyphs" textLength="142" x="145.5" y="74.9951">Conceptual Portal</text><text fill="#000000" font-family="sans-serif" font-size="14" font-weight="bold" lengthAdjust="spacingAndGlyphs" textLength="133" x="150" y="91.292">(Portal Gateway)</text><!--cluster ##45--><!--class Portal--><rect fill="#FEFECE" filter="url(#fauqkcqcz8qh4)" height="48" id="Portal" style="stroke: #A80036; stroke-width: 1.5;" width="66" x="248" y="103"/><ellipse cx="263" cy="119" fill="#ADD1B2" rx="11" ry="11" style="stroke: #A80036; stroke-width: 1.0;"/><path d="M265.9688,124.6406 Q265.3906,124.9375 264.75,125.0859 Q264.1094,125.2344 263.4063,125.2344 Q260.9063,125.2344 259.5859,123.5859 Q258.2656,121.9375 258.2656,118.8125 Q258.2656,115.6875 259.5859,114.0313 Q260.9063,112.375 263.4063,112.375 Q264.1094,112.375 264.7578,112.5313 Q265.4063,112.6875 265.9688,112.9844 L265.9688,115.7031 Q265.3438,115.125 264.75,114.8516 Q264.1563,114.5781 263.5313,114.5781 Q262.1875,114.5781 261.5,115.6484 Q260.8125,116.7188 260.8125,118.8125 Q260.8125,120.9063 261.5,121.9766 Q262.1875,123.0469 263.5313,123.0469 Q264.1563,123.0469 264.75,122.7734 Q265.3438,122.5 265.9688,121.9219 L265.9688,124.6406 Z "/><text fill="#000000" font-family="sans-serif" font-size="12" lengthAdjust="spacingAndGlyphs" textLength="34" x="277" y="123.1543">Portal</text><line style="stroke: #A80036; stroke-width: 1.5;" x1="249" x2="313" y1="135" y2="135"/><line style="stroke: #A80036; stroke-width: 1.5;" x1="249" x2="313" y1="143" y2="143"/><!--class PortalView--><rect fill="#FEFECE" filter="url(#fauqkcqcz8qh4)" height="48" id="PortalView" style="stroke: #A80036; stroke-width: 1.5;" width="94" x="119" y="103"/><ellipse cx="134" cy="119" fill="#ADD1B2" rx="11" ry="11" style="stroke: #A80036; stroke-width: 1.0;"/><path d="M136.9688,124.6406 Q136.3906,124.9375 135.75,125.0859 Q135.1094,125.2344 134.4063,125.2344 Q131.9063,125.2344 130.5859,123.5859 Q129.2656,121.9375 129.2656,118.8125 Q129.2656,115.6875 130.5859,114.0313 Q131.9063,112.375 134.4063,112.375 Q135.1094,112.375 135.7578,112.5313 Q136.4063,112.6875 136.9688,112.9844 L136.9688,115.7031 Q136.3438,115.125 135.75,114.8516 Q135.1563,114.5781 134.5313,114.5781 Q133.1875,114.5781 132.5,115.6484 Q131.8125,116.7188 131.8125,118.8125 Q131.8125,120.9063 132.5,121.9766 Q133.1875,123.0469 134.5313,123.0469 Q135.1563,123.0469 135.75,122.7734 Q136.3438,122.5 136.9688,121.9219 L136.9688,124.6406 Z "/><text fill="#000000" font-family="sans-serif" font-size="12" lengthAdjust="spacingAndGlyphs" textLength="62" x="148" y="123.1543">PortalView</text><line style="stroke: #A80036; stroke-width: 1.5;" x1="120" x2="212" y1="135" y2="135"/><line style="stroke: #A80036; stroke-width: 1.5;" x1="120" x2="212" y1="143" y2="143"/><!--class PortletB--><rect fill="#FEFECE" filter="url(#fauqkcqcz8qh4)" height="48" id="PortletB" style="stroke: #A80036; stroke-width: 1.5;" width="79" x="485.5" y="103"/><ellipse cx="500.5" cy="119" fill="#ADD1B2" rx="11" ry="11" style="stroke: #A80036; stroke-width: 1.0;"/><path d="M503.4688,124.6406 Q502.8906,124.9375 502.25,125.0859 Q501.6094,125.2344 500.9063,125.2344 Q498.4063,125.2344 497.0859,123.5859 Q495.7656,121.9375 495.7656,118.8125 Q495.7656,115.6875 497.0859,114.0313 Q498.4063,112.375 500.9063,112.375 Q501.6094,112.375 502.2578,112.5313 Q502.9063,112.6875 503.4688,112.9844 L503.4688,115.7031 Q502.8438,115.125 502.25,114.8516 Q501.6563,114.5781 501.0313,114.5781 Q499.6875,114.5781 499,115.6484 Q498.3125,116.7188 498.3125,118.8125 Q498.3125,120.9063 499,121.9766 Q499.6875,123.0469 501.0313,123.0469 Q501.6563,123.0469 502.25,122.7734 Q502.8438,122.5 503.4688,121.9219 L503.4688,124.6406 Z "/><text fill="#000000" font-family="sans-serif" font-size="12" lengthAdjust="spacingAndGlyphs" textLength="47" x="514.5" y="123.1543">PortletB</text><line style="stroke: #A80036; stroke-width: 1.5;" x1="486.5" x2="563.5" y1="135" y2="135"/><line style="stroke: #A80036; stroke-width: 1.5;" x1="486.5" x2="563.5" y1="143" y2="143"/><!--class PortletA--><rect fill="#FEFECE" filter="url(#fauqkcqcz8qh4)" height="48" id="PortletA" style="stroke: #A80036; stroke-width: 1.5;" width="79" x="352.5" y="103"/><ellipse cx="367.5" cy="119" fill="#ADD1B2" rx="11" ry="11" style="stroke: #A80036; stroke-width: 1.0;"/><path d="M370.4688,124.6406 Q369.8906,124.9375 369.25,125.0859 Q368.6094,125.2344 367.9063,125.2344 Q365.4063,125.2344 364.0859,123.5859 Q362.7656,121.9375 362.7656,118.8125 Q362.7656,115.6875 364.0859,114.0313 Q365.4063,112.375 367.9063,112.375 Q368.6094,112.375 369.2578,112.5313 Q369.9063,112.6875 370.4688,112.9844 L370.4688,115.7031 Q369.8438,115.125 369.25,114.8516 Q368.6563,114.5781 368.0313,114.5781 Q366.6875,114.5781 366,115.6484 Q365.3125,116.7188 365.3125,118.8125 Q365.3125,120.9063 366,121.9766 Q366.6875,123.0469 368.0313,123.0469 Q368.6563,123.0469 369.25,122.7734 Q369.8438,122.5 370.4688,121.9219 L370.4688,124.6406 Z "/><text fill="#000000" font-family="sans-serif" font-size="12" lengthAdjust="spacingAndGlyphs" textLength="47" x="381.5" y="123.1543">PortletA</text><line style="stroke: #A80036; stroke-width: 1.5;" x1="353.5" x2="430.5" y1="135" y2="135"/><line style="stroke: #A80036; stroke-width: 1.5;" x1="353.5" x2="430.5" y1="143" y2="143"/><!--class PortletAData--><rect fill="#FEFECE" filter="url(#fauqkcqcz8qh4)" height="60.8047" id="PortletAData" style="stroke: #A80036; stroke-width: 1.5;" width="114" x="338" y="211"/><ellipse cx="356.15" cy="227" fill="#ADD1B2" rx="11" ry="11" style="stroke: #A80036; stroke-width: 1.0;"/><path d="M359.1188,232.6406 Q358.5406,232.9375 357.9,233.0859 Q357.2594,233.2344 356.5563,233.2344 Q354.0563,233.2344 352.7359,231.5859 Q351.4156,229.9375 351.4156,226.8125 Q351.4156,223.6875 352.7359,222.0313 Q354.0563,220.375 356.5563,220.375 Q357.2594,220.375 357.9078,220.5313 Q358.5563,220.6875 359.1188,220.9844 L359.1188,223.7031 Q358.4938,223.125 357.9,222.8516 Q357.3063,222.5781 356.6813,222.5781 Q355.3375,222.5781 354.65,223.6484 Q353.9625,224.7188 353.9625,226.8125 Q353.9625,228.9063 354.65,229.9766 Q355.3375,231.0469 356.6813,231.0469 Q357.3063,231.0469 357.9,230.7734 Q358.4938,230.5 359.1188,229.9219 L359.1188,232.6406 Z "/><text fill="#000000" font-family="sans-serif" font-size="12" lengthAdjust="spacingAndGlyphs" textLength="75" x="370.85" y="231.1543">PortletAData</text><line style="stroke: #A80036; stroke-width: 1.5;" x1="339" x2="451" y1="243" y2="243"/><rect fill="none" height="6" style="stroke: #C82930; stroke-width: 1.0;" width="6" x="346" y="251.9023"/><text fill="#000000" font-family="sans-serif" font-size="11" lengthAdjust="spacingAndGlyphs" textLength="88" x="358" y="257.2104">portletId: String</text><line style="stroke: #A80036; stroke-width: 1.5;" x1="339" x2="451" y1="263.8047" y2="263.8047"/><!--class PortletBData--><rect fill="#FEFECE" filter="url(#fauqkcqcz8qh4)" height="60.8047" id="PortletBData" style="stroke: #A80036; stroke-width: 1.5;" width="114" x="487" y="211"/><ellipse cx="505.15" cy="227" fill="#ADD1B2" rx="11" ry="11" style="stroke: #A80036; stroke-width: 1.0;"/><path d="M508.1188,232.6406 Q507.5406,232.9375 506.9,233.0859 Q506.2594,233.2344 505.5563,233.2344 Q503.0563,233.2344 501.7359,231.5859 Q500.4156,229.9375 500.4156,226.8125 Q500.4156,223.6875 501.7359,222.0313 Q503.0563,220.375 505.5563,220.375 Q506.2594,220.375 506.9078,220.5313 Q507.5563,220.6875 508.1188,220.9844 L508.1188,223.7031 Q507.4938,223.125 506.9,222.8516 Q506.3063,222.5781 505.6813,222.5781 Q504.3375,222.5781 503.65,223.6484 Q502.9625,224.7188 502.9625,226.8125 Q502.9625,228.9063 503.65,229.9766 Q504.3375,231.0469 505.6813,231.0469 Q506.3063,231.0469 506.9,230.7734 Q507.4938,230.5 508.1188,229.9219 L508.1188,232.6406 Z "/><text fill="#000000" font-family="sans-serif" font-size="12" lengthAdjust="spacingAndGlyphs" textLength="75" x="519.85" y="231.1543">PortletBData</text><line style="stroke: #A80036; stroke-width: 1.5;" x1="488" x2="600" y1="243" y2="243"/><rect fill="none" height="6" style="stroke: #C82930; stroke-width: 1.0;" width="6" x="495" y="251.9023"/><text fill="#000000" font-family="sans-serif" font-size="11" lengthAdjust="spacingAndGlyphs" textLength="88" x="507" y="257.2104">portletId: String</text><line style="stroke: #A80036; stroke-width: 1.5;" x1="488" x2="600" y1="263.8047" y2="263.8047"/><!--class Session--><rect fill="#FEFECE" filter="url(#fauqkcqcz8qh4)" height="48" id="Session" style="stroke: #A80036; stroke-width: 1.5;" width="77" x="430.5" y="332"/><ellipse cx="445.5" cy="348" fill="#ADD1B2" rx="11" ry="11" style="stroke: #A80036; stroke-width: 1.0;"/><path d="M448.4688,353.6406 Q447.8906,353.9375 447.25,354.0859 Q446.6094,354.2344 445.9063,354.2344 Q443.4063,354.2344 442.0859,352.5859 Q440.7656,350.9375 440.7656,347.8125 Q440.7656,344.6875 442.0859,343.0313 Q443.4063,341.375 445.9063,341.375 Q446.6094,341.375 447.2578,341.5313 Q447.9063,341.6875 448.4688,341.9844 L448.4688,344.7031 Q447.8438,344.125 447.25,343.8516 Q446.6563,343.5781 446.0313,343.5781 Q444.6875,343.5781 444,344.6484 Q443.3125,345.7188 443.3125,347.8125 Q443.3125,349.9063 444,350.9766 Q444.6875,352.0469 446.0313,352.0469 Q446.6563,352.0469 447.25,351.7734 Q447.8438,351.5 448.4688,350.9219 L448.4688,353.6406 Z "/><text fill="#000000" font-family="sans-serif" font-size="12" lengthAdjust="spacingAndGlyphs" textLength="45" x="459.5" y="352.1543">Session</text><line style="stroke: #A80036; stroke-width: 1.5;" x1="431.5" x2="506.5" y1="364" y2="364"/><line style="stroke: #A80036; stroke-width: 1.5;" x1="431.5" x2="506.5" y1="372" y2="372"/><!--entity Browser--><rect fill="#FEFECE" filter="url(#fauqkcqcz8qh4)" height="36.2969" style="stroke: #A80036; stroke-width: 1.5;" width="78" x="6" y="109"/><rect fill="#FEFECE" height="5" style="stroke: #A80036; stroke-width: 1.5;" width="10" x="1" y="114"/><rect fill="#FEFECE" height="5" style="stroke: #A80036; stroke-width: 1.5;" width="10" x="1" y="135.2969"/><text fill="#000000" font-family="sans-serif" font-size="14" lengthAdjust="spacingAndGlyphs" textLength="58" x="16" y="131.9951">Browser</text><!--class PortalPolicy--><rect fill="#FEFECE" filter="url(#fauqkcqcz8qh4)" height="48" id="PortalPolicy" style="stroke: #A80036; stroke-width: 1.5;" width="100" x="203" y="217.5"/><ellipse cx="218" cy="233.5" fill="#ADD1B2" rx="11" ry="11" style="stroke: #A80036; stroke-width: 1.0;"/><path d="M220.9688,239.1406 Q220.3906,239.4375 219.75,239.5859 Q219.1094,239.7344 218.4063,239.7344 Q215.9063,239.7344 214.5859,238.0859 Q213.2656,236.4375 213.2656,233.3125 Q213.2656,230.1875 214.5859,228.5313 Q215.9063,226.875 218.4063,226.875 Q219.1094,226.875 219.7578,227.0313 Q220.4063,227.1875 220.9688,227.4844 L220.9688,230.2031 Q220.3438,229.625 219.75,229.3516 Q219.1563,229.0781 218.5313,229.0781 Q217.1875,229.0781 216.5,230.1484 Q215.8125,231.2188 215.8125,233.3125 Q215.8125,235.4063 216.5,236.4766 Q217.1875,237.5469 218.5313,237.5469 Q219.1563,237.5469 219.75,237.2734 Q220.3438,237 220.9688,236.4219 L220.9688,239.1406 Z "/><text fill="#000000" font-family="sans-serif" font-size="12" lengthAdjust="spacingAndGlyphs" textLength="68" x="232" y="237.6543">PortalPolicy</text><line style="stroke: #A80036; stroke-width: 1.5;" x1="204" x2="302" y1="249.5" y2="249.5"/><line style="stroke: #A80036; stroke-width: 1.5;" x1="204" x2="302" y1="257.5" y2="257.5"/><!--link PortalView to Portal--><path d="M213.168,127 C224.7383,127 236.3086,127 247.8789,127 " fill="none" id="PortalView-Portal" style="stroke: #A80036; stroke-width: 1.0;"/><text fill="#000000" font-family="sans-serif" font-size="13" lengthAdjust="spacingAndGlyphs" textLength="8" x="221.0031" y="122.9286">1</text><text fill="#000000" font-family="sans-serif" font-size="13" lengthAdjust="spacingAndGlyphs" textLength="8" x="232.2227" y="122.5337">1</text><!--link Browser to PortalView--><path d="M84.2305,127 C95.7293,127 107.2281,127 118.727,127 " fill="none" id="Browser-PortalView" style="stroke: #A80036; stroke-width: 1.0;"/><text fill="#000000" font-family="sans-serif" font-size="13" lengthAdjust="spacingAndGlyphs" textLength="7" x="92.1089" y="122.669">*</text><text fill="#000000" font-family="sans-serif" font-size="13" lengthAdjust="spacingAndGlyphs" textLength="7" x="103.9524" y="122.9286">*</text><!--link Portal to PortletB--><path d="M288.1389,102.9297 C295.7318,82.1217 309.9792,53.3501 333.6667,40 C373.8049,17.3783 394.7329,22.4495 437.3333,40 C468.0635,52.6602 493.7193,81.8832 509.18,102.9714 " fill="none" id="Portal-PortletB" style="stroke: #A80036; stroke-width: 1.0;"/><text fill="#000000" font-family="sans-serif" font-size="13" lengthAdjust="spacingAndGlyphs" textLength="8" x="290.9932" y="91.9237">1</text><text fill="#000000" font-family="sans-serif" font-size="13" lengthAdjust="spacingAndGlyphs" textLength="8" x="498.5148" y="91.8379">1</text><!--link Portal to PortletA--><path d="M314.3867,142.1425 C327.0191,145.4072 339.6515,145.8745 352.2838,143.5442 " fill="none" id="Portal-PortletA" style="stroke: #A80036; stroke-width: 1.0;"/><text fill="#000000" font-family="sans-serif" font-size="13" lengthAdjust="spacingAndGlyphs" textLength="8" x="322.0977" y="140.7994">1</text><text fill="#000000" font-family="sans-serif" font-size="13" lengthAdjust="spacingAndGlyphs" textLength="8" x="336.4969" y="103.2517">1</text><!--link PortletA to PortletAData--><path d="M392.6289,151.003 C393.0859,168.4463 393.7081,192.1912 394.2004,210.9818 " fill="none" id="PortletA-PortletAData" style="stroke: #A80036; stroke-width: 1.0;"/><text fill="#000000" font-family="sans-serif" font-size="13" lengthAdjust="spacingAndGlyphs" textLength="8" x="383.7651" y="171.1596">1</text><text fill="#000000" font-family="sans-serif" font-size="13" lengthAdjust="spacingAndGlyphs" textLength="7" x="386.2599" y="199.7681">*</text><!--link PortletB to PortletBData--><path d="M528.983,151.003 C531.8775,168.4463 535.8177,192.1912 538.9358,210.9818 " fill="none" id="PortletB-PortletBData" style="stroke: #A80036; stroke-width: 1.0;"/><text fill="#000000" font-family="sans-serif" font-size="13" lengthAdjust="spacingAndGlyphs" textLength="8" x="520.9786" y="171.1596">1</text><text fill="#000000" font-family="sans-serif" font-size="13" lengthAdjust="spacingAndGlyphs" textLength="7" x="530.0624" y="199.7681">*</text><!--link PortletAData to Session--><path d="M414.8306,272.1839 C424.4513,287.0699 436.0618,305.0349 446.0623,320.5085 " fill="none" id="PortletAData-Session" style="stroke: #A80036; stroke-width: 1.0;"/><polygon fill="#A80036" points="453.3362,331.7634,453.4389,324.553,446.8226,321.685,446.72,328.8954,453.3362,331.7634" style="stroke: #A80036; stroke-width: 1.0;"/><text fill="#000000" font-family="sans-serif" font-size="13" lengthAdjust="spacingAndGlyphs" textLength="7" x="411.0457" y="291.8005">*</text><text fill="#000000" font-family="sans-serif" font-size="13" lengthAdjust="spacingAndGlyphs" textLength="8" x="440.5431" y="321.1107">1</text><!--link PortletBData to Session--><path d="M523.9014,272.1839 C514.1507,287.0699 502.3833,305.0349 492.2477,320.5085 " fill="none" id="PortletBData-Session" style="stroke: #A80036; stroke-width: 1.0;"/><polygon fill="#A80036" points="484.8755,331.7634,491.5092,328.9361,491.4508,321.7252,484.8171,324.5525,484.8755,331.7634" style="stroke: #A80036; stroke-width: 1.0;"/><text fill="#000000" font-family="sans-serif" font-size="13" lengthAdjust="spacingAndGlyphs" textLength="7" x="512.2554" y="291.8005">*</text><text fill="#000000" font-family="sans-serif" font-size="13" lengthAdjust="spacingAndGlyphs" textLength="8" x="479.7702" y="321.1107">1</text><!--link Portal to PortalPolicy--><path d="M275.1303,151.003 C270.3836,170.4135 263.7287,197.6273 258.9584,217.1343 " fill="none" id="Portal-PortalPolicy" style="stroke: #A80036; stroke-width: 1.0;"/><text fill="#000000" font-family="sans-serif" font-size="13" lengthAdjust="spacingAndGlyphs" textLength="8" x="264.6012" y="171.1596">1</text><text fill="#000000" font-family="sans-serif" font-size="13" lengthAdjust="spacingAndGlyphs" textLength="7" x="252.5576" y="206.4501">*</text><!--
@startuml
skinparam packageStyle rectangle
 allow_mixing
 
 component Browser
 
 package "Conceptual Portal\n(Portal Gateway)" {
    class Portal
 	  class PortalView
 
    Portal "1" -left- "1" PortalView
 }
 
 PortalView "*" -left- "*" Browser
 
 together {
 
   Portal "1" -right- "1" PortletB
   Portal "1" -right- "1" PortletA
 
   class PortletAData {
     -portletId: String
   }
 
   PortletAData "*" -up- "1" PortletA
 
   class PortletBData {
     -portletId: String
   }
 
   PortletBData "*" -up- "1" PortletB
   
   PortletAData "*" -up-* "1" Session
   PortletBData "*" -up-* "1" Session
 }
 
 Portal "1" -down- "*" PortalPolicy
@enduml

PlantUML version 1.2017.18(Fri Oct 06 18:56:32 CEST 2017)
(GPL source distribution)
Java Runtime: OpenJDK Runtime Environment
JVM: OpenJDK 64-Bit Server VM
Java Version: 1.8.0_151-b12
Operating System: Linux
OS Version: 4.13.10-200.fc26.x86_64
Default Encoding: UTF-8
Language: de
Country: DE
--></g></svg>