<?xml version="1.0" encoding="UTF-8" standalone="no"?><svg xmlns="http://www.w3.org/2000/svg" xmlns:xlink="http://www.w3.org/1999/xlink" contentScriptType="application/ecmascript" contentStyleType="text/css" height="500px" preserveAspectRatio="none" style="width:724px;height:500px;" version="1.1" viewBox="0 0 724 500" width="724px" zoomAndPan="magnify"><defs><filter height="300%" id="fqba8xx" width="300%" x="-1" y="-1"><feGaussianBlur result="blurOut" stdDeviation="2.0"/><feColorMatrix in="blurOut" result="blurOut2" type="matrix" values="0 0 0 0 0 0 0 0 0 0 0 0 0 0 0 0 0 0 .4 0"/><feOffset dx="4.0" dy="4.0" in="blurOut2" result="blurOut3"/><feBlend in="SourceGraphic" in2="blurOut3" mode="normal"/></filter></defs><g><rect fill="#FFFFFF" filter="url(#fqba8xx)" height="214.0625" style="stroke: #A80036; stroke-width: 1.0;" width="10" x="56" y="98.4297"/><rect fill="#FFFFFF" filter="url(#fqba8xx)" height="29.1328" style="stroke: #A80036; stroke-width: 1.0;" width="10" x="298" y="69.2969"/><rect fill="#FFFFFF" filter="url(#fqba8xx)" height="29.1328" style="stroke: #A80036; stroke-width: 1.0;" width="10" x="298" y="127.5625"/><rect fill="#FFFFFF" filter="url(#fqba8xx)" height="29.1328" style="stroke: #A80036; stroke-width: 1.0;" width="10" x="298" y="185.8281"/><rect fill="#FFFFFF" filter="url(#fqba8xx)" height="89.3984" style="stroke: #A80036; stroke-width: 1.0;" width="10" x="298" y="244.0938"/><rect fill="#FFFFFF" filter="url(#fqba8xx)" height="68.3984" style="stroke: #A80036; stroke-width: 1.0;" width="10" x="298" y="420.8906"/><rect fill="#FFFFFF" filter="url(#fqba8xx)" height="29.1328" style="stroke: #A80036; stroke-width: 1.0;" width="10" x="526" y="333.4922"/><rect fill="#FFFFFF" filter="url(#fqba8xx)" height="29.1328" style="stroke: #A80036; stroke-width: 1.0;" width="10" x="526" y="391.7578"/><rect fill="#FFFFFF" filter="url(#fqba8xx)" height="29.1328" style="stroke: #A80036; stroke-width: 1.0;" width="10" x="664" y="362.625"/><rect fill="#FFFFFF" filter="url(#fqba8xx)" height="46.2656" style="stroke: #000000; stroke-width: 2.0;" width="346.5" x="13" y="259.2266"/><rect fill="#FFFFFF" filter="url(#fqba8xx)" height="46.2656" style="stroke: #000000; stroke-width: 2.0;" width="346.5" x="13" y="436.0234"/><line style="stroke: #A80036; stroke-width: 1.0; stroke-dasharray: 5.0,5.0;" x1="61" x2="61" y1="38.2969" y2="499.2891"/><line style="stroke: #A80036; stroke-width: 1.0; stroke-dasharray: 5.0,5.0;" x1="302.5" x2="302.5" y1="38.2969" y2="499.2891"/><line style="stroke: #A80036; stroke-width: 1.0; stroke-dasharray: 5.0,5.0;" x1="530.5" x2="530.5" y1="38.2969" y2="499.2891"/><line style="stroke: #A80036; stroke-width: 1.0; stroke-dasharray: 5.0,5.0;" x1="669" x2="669" y1="38.2969" y2="499.2891"/><rect fill="#FEFECE" filter="url(#fqba8xx)" height="30.2969" style="stroke: #A80036; stroke-width: 1.5;" width="72" x="23" y="3"/><text fill="#000000" font-family="sans-serif" font-size="14" lengthAdjust="spacingAndGlyphs" textLength="58" x="30" y="22.9951">Browser</text><rect fill="#FEFECE" filter="url(#fqba8xx)" height="30.2969" style="stroke: #A80036; stroke-width: 1.5;" width="89" x="256.5" y="3"/><text fill="#000000" font-family="sans-serif" font-size="14" lengthAdjust="spacingAndGlyphs" textLength="75" x="263.5" y="22.9951">PortalView</text><rect fill="#FEFECE" filter="url(#fqba8xx)" height="30.2969" style="stroke: #A80036; stroke-width: 1.5;" width="55" x="501.5" y="3"/><text fill="#000000" font-family="sans-serif" font-size="14" lengthAdjust="spacingAndGlyphs" textLength="41" x="508.5" y="22.9951">Portal</text><rect fill="#FEFECE" filter="url(#fqba8xx)" height="30.2969" style="stroke: #A80036; stroke-width: 1.5;" width="96" x="619" y="3"/><text fill="#000000" font-family="sans-serif" font-size="14" lengthAdjust="spacingAndGlyphs" textLength="82" x="626" y="22.9951">PortalPolicy</text><rect fill="#FFFFFF" filter="url(#fqba8xx)" height="214.0625" style="stroke: #A80036; stroke-width: 1.0;" width="10" x="56" y="98.4297"/><rect fill="#FFFFFF" filter="url(#fqba8xx)" height="29.1328" style="stroke: #A80036; stroke-width: 1.0;" width="10" x="298" y="69.2969"/><rect fill="#FFFFFF" filter="url(#fqba8xx)" height="29.1328" style="stroke: #A80036; stroke-width: 1.0;" width="10" x="298" y="127.5625"/><rect fill="#FFFFFF" filter="url(#fqba8xx)" height="29.1328" style="stroke: #A80036; stroke-width: 1.0;" width="10" x="298" y="185.8281"/><rect fill="#FFFFFF" filter="url(#fqba8xx)" height="89.3984" style="stroke: #A80036; stroke-width: 1.0;" width="10" x="298" y="244.0938"/><rect fill="#FFFFFF" filter="url(#fqba8xx)" height="68.3984" style="stroke: #A80036; stroke-width: 1.0;" width="10" x="298" y="420.8906"/><rect fill="#FFFFFF" filter="url(#fqba8xx)" height="29.1328" style="stroke: #A80036; stroke-width: 1.0;" width="10" x="526" y="333.4922"/><rect fill="#FFFFFF" filter="url(#fqba8xx)" height="29.1328" style="stroke: #A80036; stroke-width: 1.0;" width="10" x="526" y="391.7578"/><rect fill="#FFFFFF" filter="url(#fqba8xx)" height="29.1328" style="stroke: #A80036; stroke-width: 1.0;" width="10" x="664" y="362.625"/><polygon fill="#A80036" points="286,65.2969,296,69.2969,286,73.2969,290,69.2969" style="stroke: #A80036; stroke-width: 1.0;"/><line style="stroke: #A80036; stroke-width: 1.0;" x1="61" x2="292" y1="69.2969" y2="69.2969"/><text fill="#000000" font-family="sans-serif" font-size="13" lengthAdjust="spacingAndGlyphs" textLength="132" x="68" y="64.3638">"GET &lt;portal URL&gt;"</text><polygon fill="#A80036" points="77,94.4297,67,98.4297,77,102.4297,73,98.4297" style="stroke: #A80036; stroke-width: 1.0;"/><line style="stroke: #A80036; stroke-width: 1.0;" x1="71" x2="302" y1="98.4297" y2="98.4297"/><text fill="#000000" font-family="sans-serif" font-size="13" lengthAdjust="spacingAndGlyphs" textLength="117" x="83" y="93.4966">"HTML document"</text><polygon fill="#A80036" points="286,123.5625,296,127.5625,286,131.5625,290,127.5625" style="stroke: #A80036; stroke-width: 1.0;"/><line style="stroke: #A80036; stroke-width: 1.0;" x1="66" x2="292" y1="127.5625" y2="127.5625"/><text fill="#000000" font-family="sans-serif" font-size="13" lengthAdjust="spacingAndGlyphs" textLength="158" x="73" y="122.6294">"GET &lt;resource1 URL&gt;"</text><polygon fill="#A80036" points="77,152.6953,67,156.6953,77,160.6953,73,156.6953" style="stroke: #A80036; stroke-width: 1.0;"/><line style="stroke: #A80036; stroke-width: 1.0;" x1="71" x2="302" y1="156.6953" y2="156.6953"/><text fill="#000000" font-family="sans-serif" font-size="13" lengthAdjust="spacingAndGlyphs" textLength="60" x="83" y="151.7622">Resource</text><polygon fill="#A80036" points="286,181.8281,296,185.8281,286,189.8281,290,185.8281" style="stroke: #A80036; stroke-width: 1.0;"/><line style="stroke: #A80036; stroke-width: 1.0;" x1="66" x2="292" y1="185.8281" y2="185.8281"/><text fill="#000000" font-family="sans-serif" font-size="13" lengthAdjust="spacingAndGlyphs" textLength="158" x="73" y="180.895">"GET &lt;resource2 URL&gt;"</text><polygon fill="#A80036" points="77,210.9609,67,214.9609,77,218.9609,73,214.9609" style="stroke: #A80036; stroke-width: 1.0;"/><line style="stroke: #A80036; stroke-width: 1.0;" x1="71" x2="302" y1="214.9609" y2="214.9609"/><text fill="#000000" font-family="sans-serif" font-size="13" lengthAdjust="spacingAndGlyphs" textLength="60" x="83" y="210.0278">Resource</text><polygon fill="#A80036" points="286,240.0938,296,244.0938,286,248.0938,290,244.0938" style="stroke: #A80036; stroke-width: 1.0;"/><line style="stroke: #A80036; stroke-width: 1.0;" x1="66" x2="292" y1="244.0938" y2="244.0938"/><text fill="#000000" font-family="sans-serif" font-size="13" lengthAdjust="spacingAndGlyphs" textLength="213" x="73" y="239.1606">"GET &lt;Upgrade to WebSocket&gt;"</text><rect fill="none" height="46.2656" style="stroke: #000000; stroke-width: 2.0;" width="346.5" x="13" y="259.2266"/><polygon fill="#EEEEEE" points="13,259.2266,89,259.2266,89,266.2266,79,276.2266,13,276.2266,13,259.2266" style="stroke: #000000; stroke-width: 2.0;"/><text fill="#000000" font-family="sans-serif" font-size="13" font-weight="bold" lengthAdjust="spacingAndGlyphs" textLength="31" x="28" y="272.2935">loop</text><text fill="#000000" font-family="sans-serif" font-size="11" font-weight="bold" lengthAdjust="spacingAndGlyphs" textLength="125" x="104" y="271.437">[while request data]</text><polygon fill="#A80036" points="286,293.3594,296,297.3594,286,301.3594,290,297.3594" style="stroke: #A80036; stroke-width: 1.0;"/><line style="stroke: #A80036; stroke-width: 1.0;" x1="66" x2="292" y1="297.3594" y2="297.3594"/><text fill="#000000" font-family="sans-serif" font-size="13" lengthAdjust="spacingAndGlyphs" textLength="109" x="73" y="292.4263">Input (JSON RPC)</text><polygon fill="#A80036" points="514,329.4922,524,333.4922,514,337.4922,518,333.4922" style="stroke: #A80036; stroke-width: 1.0;"/><line style="stroke: #A80036; stroke-width: 1.0;" x1="303" x2="520" y1="333.4922" y2="333.4922"/><text fill="#000000" font-family="sans-serif" font-size="13" lengthAdjust="spacingAndGlyphs" textLength="161" x="310" y="328.5591">JsonInput("portalReady")</text><polygon fill="#A80036" points="652,358.625,662,362.625,652,366.625,656,362.625" style="stroke: #A80036; stroke-width: 1.0;"/><line style="stroke: #A80036; stroke-width: 1.0;" x1="531" x2="658" y1="362.625" y2="362.625"/><text fill="#000000" font-family="sans-serif" font-size="13" lengthAdjust="spacingAndGlyphs" textLength="79" x="538" y="357.6919">PortalReady</text><polygon fill="#A80036" points="547,387.7578,537,391.7578,547,395.7578,543,391.7578" style="stroke: #A80036; stroke-width: 1.0;"/><line style="stroke: #A80036; stroke-width: 1.0;" x1="541" x2="668" y1="391.7578" y2="391.7578"/><text fill="#000000" font-family="sans-serif" font-size="13" lengthAdjust="spacingAndGlyphs" textLength="109" x="553" y="386.8247">LastPortalLayout</text><polygon fill="#A80036" points="319,416.8906,309,420.8906,319,424.8906,315,420.8906" style="stroke: #A80036; stroke-width: 1.0;"/><line style="stroke: #A80036; stroke-width: 1.0;" x1="313" x2="530" y1="420.8906" y2="420.8906"/><text fill="#000000" font-family="sans-serif" font-size="13" lengthAdjust="spacingAndGlyphs" textLength="199" x="325" y="415.9575">JsonOutput("lastPortalLayout")</text><rect fill="none" height="46.2656" style="stroke: #000000; stroke-width: 2.0;" width="346.5" x="13" y="436.0234"/><polygon fill="#EEEEEE" points="13,436.0234,89,436.0234,89,443.0234,79,453.0234,13,453.0234,13,436.0234" style="stroke: #000000; stroke-width: 2.0;"/><text fill="#000000" font-family="sans-serif" font-size="13" font-weight="bold" lengthAdjust="spacingAndGlyphs" textLength="31" x="28" y="449.0903">loop</text><text fill="#000000" font-family="sans-serif" font-size="11" font-weight="bold" lengthAdjust="spacingAndGlyphs" textLength="125" x="104" y="448.2339">[while request data]</text><polygon fill="#A80036" points="72,470.1563,62,474.1563,72,478.1563,68,474.1563" style="stroke: #A80036; stroke-width: 1.0;"/><line style="stroke: #A80036; stroke-width: 1.0;" x1="66" x2="297" y1="474.1563" y2="474.1563"/><text fill="#000000" font-family="sans-serif" font-size="13" lengthAdjust="spacingAndGlyphs" textLength="120" x="78" y="469.2231">Output (JSON RPC)</text></g></svg>