<?xml version="1.0" encoding="UTF-8" standalone="no"?><svg xmlns="http://www.w3.org/2000/svg" xmlns:xlink="http://www.w3.org/1999/xlink" contentScriptType="application/ecmascript" contentStyleType="text/css" height="467px" preserveAspectRatio="none" style="width:653px;height:467px;" version="1.1" viewBox="0 0 653 467" width="653px" zoomAndPan="magnify"><defs><filter height="300%" id="fomxofi" width="300%" x="-1" y="-1"><feGaussianBlur result="blurOut" stdDeviation="2.0"/><feColorMatrix in="blurOut" result="blurOut2" type="matrix" values="0 0 0 0 0 0 0 0 0 0 0 0 0 0 0 0 0 0 .4 0"/><feOffset dx="4.0" dy="4.0" in="blurOut2" result="blurOut3"/><feBlend in="SourceGraphic" in2="blurOut3" mode="normal"/></filter></defs><g><rect fill="#FFFFFF" filter="url(#fomxofi)" height="203.9297" style="stroke: #A80036; stroke-width: 1.0;" width="10" x="40.5" y="98.4297"/><rect fill="#FFFFFF" filter="url(#fomxofi)" height="9.1328" style="stroke: #A80036; stroke-width: 1.0;" width="10" x="40.5" y="448.0234"/><rect fill="#FFFFFF" filter="url(#fomxofi)" height="29.1328" style="stroke: #A80036; stroke-width: 1.0;" width="10" x="277.5" y="69.2969"/><rect fill="#FFFFFF" filter="url(#fomxofi)" height="29.1328" style="stroke: #A80036; stroke-width: 1.0;" width="10" x="277.5" y="127.5625"/><rect fill="#FFFFFF" filter="url(#fomxofi)" height="29.1328" style="stroke: #A80036; stroke-width: 1.0;" width="10" x="277.5" y="185.8281"/><rect fill="#FFFFFF" filter="url(#fomxofi)" height="213.0625" style="stroke: #A80036; stroke-width: 1.0;" width="10" x="277.5" y="244.0938"/><rect fill="#FFFFFF" filter="url(#fomxofi)" height="58.2656" style="stroke: #A80036; stroke-width: 1.0;" width="10" x="282.5" y="273.2266"/><rect fill="#FFFFFF" filter="url(#fomxofi)" height="29.1328" style="stroke: #A80036; stroke-width: 1.0;" width="10" x="282.5" y="418.8906"/><rect fill="#FFFFFF" filter="url(#fomxofi)" height="29.1328" style="stroke: #A80036; stroke-width: 1.0;" width="10" x="485.5" y="331.4922"/><rect fill="#FFFFFF" filter="url(#fomxofi)" height="29.1328" style="stroke: #A80036; stroke-width: 1.0;" width="10" x="485.5" y="389.7578"/><rect fill="#FFFFFF" filter="url(#fomxofi)" height="29.1328" style="stroke: #A80036; stroke-width: 1.0;" width="10" x="611.5" y="360.625"/><line style="stroke: #A80036; stroke-width: 1.0; stroke-dasharray: 5.0,5.0;" x1="45" x2="45" y1="38.2969" y2="466.1563"/><line style="stroke: #A80036; stroke-width: 1.0; stroke-dasharray: 5.0,5.0;" x1="282" x2="282" y1="38.2969" y2="466.1563"/><line style="stroke: #A80036; stroke-width: 1.0; stroke-dasharray: 5.0,5.0;" x1="490" x2="490" y1="38.2969" y2="466.1563"/><line style="stroke: #A80036; stroke-width: 1.0; stroke-dasharray: 5.0,5.0;" x1="616" x2="616" y1="38.2969" y2="466.1563"/><rect fill="#FEFECE" filter="url(#fomxofi)" height="30.2969" style="stroke: #A80036; stroke-width: 1.5;" width="71" x="8" y="3"/><text fill="#000000" font-family="sans-serif" font-size="14" lengthAdjust="spacingAndGlyphs" textLength="57" x="15" y="22.9951">Browser</text><rect fill="#FEFECE" filter="url(#fomxofi)" height="30.2969" style="stroke: #A80036; stroke-width: 1.5;" width="85" x="238" y="3"/><text fill="#000000" font-family="sans-serif" font-size="14" lengthAdjust="spacingAndGlyphs" textLength="71" x="245" y="22.9951">PortalView</text><rect fill="#FEFECE" filter="url(#fomxofi)" height="30.2969" style="stroke: #A80036; stroke-width: 1.5;" width="53" x="462" y="3"/><text fill="#000000" font-family="sans-serif" font-size="14" lengthAdjust="spacingAndGlyphs" textLength="39" x="469" y="22.9951">Portal</text><rect fill="#FEFECE" filter="url(#fomxofi)" height="30.2969" style="stroke: #A80036; stroke-width: 1.5;" width="59" x="585" y="3"/><text fill="#000000" font-family="sans-serif" font-size="14" lengthAdjust="spacingAndGlyphs" textLength="45" x="592" y="22.9951">Portlet</text><rect fill="#FFFFFF" filter="url(#fomxofi)" height="203.9297" style="stroke: #A80036; stroke-width: 1.0;" width="10" x="40.5" y="98.4297"/><rect fill="#FFFFFF" filter="url(#fomxofi)" height="9.1328" style="stroke: #A80036; stroke-width: 1.0;" width="10" x="40.5" y="448.0234"/><rect fill="#FFFFFF" filter="url(#fomxofi)" height="29.1328" style="stroke: #A80036; stroke-width: 1.0;" width="10" x="277.5" y="69.2969"/><rect fill="#FFFFFF" filter="url(#fomxofi)" height="29.1328" style="stroke: #A80036; stroke-width: 1.0;" width="10" x="277.5" y="127.5625"/><rect fill="#FFFFFF" filter="url(#fomxofi)" height="29.1328" style="stroke: #A80036; stroke-width: 1.0;" width="10" x="277.5" y="185.8281"/><rect fill="#FFFFFF" filter="url(#fomxofi)" height="213.0625" style="stroke: #A80036; stroke-width: 1.0;" width="10" x="277.5" y="244.0938"/><rect fill="#FFFFFF" filter="url(#fomxofi)" height="58.2656" style="stroke: #A80036; stroke-width: 1.0;" width="10" x="282.5" y="273.2266"/><rect fill="#FFFFFF" filter="url(#fomxofi)" height="29.1328" style="stroke: #A80036; stroke-width: 1.0;" width="10" x="282.5" y="418.8906"/><rect fill="#FFFFFF" filter="url(#fomxofi)" height="29.1328" style="stroke: #A80036; stroke-width: 1.0;" width="10" x="485.5" y="331.4922"/><rect fill="#FFFFFF" filter="url(#fomxofi)" height="29.1328" style="stroke: #A80036; stroke-width: 1.0;" width="10" x="485.5" y="389.7578"/><rect fill="#FFFFFF" filter="url(#fomxofi)" height="29.1328" style="stroke: #A80036; stroke-width: 1.0;" width="10" x="611.5" y="360.625"/><polygon fill="#A80036" points="265.5,65.2969,275.5,69.2969,265.5,73.2969,269.5,69.2969" style="stroke: #A80036; stroke-width: 1.0;"/><line style="stroke: #A80036; stroke-width: 1.0;" x1="45.5" x2="271.5" y1="69.2969" y2="69.2969"/><text fill="#000000" font-family="sans-serif" font-size="13" lengthAdjust="spacingAndGlyphs" textLength="127" x="52.5" y="64.3638">"GET &lt;portal URL&gt;"</text><polygon fill="#A80036" points="61.5,94.4297,51.5,98.4297,61.5,102.4297,57.5,98.4297" style="stroke: #A80036; stroke-width: 1.0;"/><line style="stroke: #A80036; stroke-width: 1.0;" x1="55.5" x2="281.5" y1="98.4297" y2="98.4297"/><text fill="#000000" font-family="sans-serif" font-size="13" lengthAdjust="spacingAndGlyphs" textLength="114" x="67.5" y="93.4966">"HTML document"</text><polygon fill="#A80036" points="265.5,123.5625,275.5,127.5625,265.5,131.5625,269.5,127.5625" style="stroke: #A80036; stroke-width: 1.0;"/><line style="stroke: #A80036; stroke-width: 1.0;" x1="50.5" x2="271.5" y1="127.5625" y2="127.5625"/><text fill="#000000" font-family="sans-serif" font-size="13" lengthAdjust="spacingAndGlyphs" textLength="154" x="57.5" y="122.6294">"GET &lt;resource1 URL&gt;"</text><polygon fill="#A80036" points="61.5,152.6953,51.5,156.6953,61.5,160.6953,57.5,156.6953" style="stroke: #A80036; stroke-width: 1.0;"/><line style="stroke: #A80036; stroke-width: 1.0;" x1="55.5" x2="281.5" y1="156.6953" y2="156.6953"/><text fill="#000000" font-family="sans-serif" font-size="13" lengthAdjust="spacingAndGlyphs" textLength="59" x="67.5" y="151.7622">Resource</text><polygon fill="#A80036" points="265.5,181.8281,275.5,185.8281,265.5,189.8281,269.5,185.8281" style="stroke: #A80036; stroke-width: 1.0;"/><line style="stroke: #A80036; stroke-width: 1.0;" x1="50.5" x2="271.5" y1="185.8281" y2="185.8281"/><text fill="#000000" font-family="sans-serif" font-size="13" lengthAdjust="spacingAndGlyphs" textLength="154" x="57.5" y="180.895">"GET &lt;resource2 URL&gt;"</text><polygon fill="#A80036" points="61.5,210.9609,51.5,214.9609,61.5,218.9609,57.5,214.9609" style="stroke: #A80036; stroke-width: 1.0;"/><line style="stroke: #A80036; stroke-width: 1.0;" x1="55.5" x2="281.5" y1="214.9609" y2="214.9609"/><text fill="#000000" font-family="sans-serif" font-size="13" lengthAdjust="spacingAndGlyphs" textLength="59" x="67.5" y="210.0278">Resource</text><polygon fill="#A80036" points="265.5,240.0938,275.5,244.0938,265.5,248.0938,269.5,244.0938" style="stroke: #A80036; stroke-width: 1.0;"/><line style="stroke: #A80036; stroke-width: 1.0;" x1="50.5" x2="271.5" y1="244.0938" y2="244.0938"/><text fill="#000000" font-family="sans-serif" font-size="13" lengthAdjust="spacingAndGlyphs" textLength="208" x="57.5" y="239.1606">"GET &lt;Upgrade to WebSocket&gt;"</text><polygon fill="#A80036" points="270.5,269.2266,280.5,273.2266,270.5,277.2266,274.5,273.2266" style="stroke: #A80036; stroke-width: 1.0;"/><line style="stroke: #A80036; stroke-width: 1.0;" x1="50.5" x2="276.5" y1="273.2266" y2="273.2266"/><text fill="#000000" font-family="sans-serif" font-size="13" lengthAdjust="spacingAndGlyphs" textLength="107" x="57.5" y="268.2935">JSON RPC (Input)</text><polygon fill="#A80036" points="270.5,298.3594,280.5,302.3594,270.5,306.3594,274.5,302.3594" style="stroke: #A80036; stroke-width: 1.0;"/><line style="stroke: #A80036; stroke-width: 1.0;" x1="45.5" x2="276.5" y1="302.3594" y2="302.3594"/><text fill="#000000" font-family="sans-serif" font-size="13" lengthAdjust="spacingAndGlyphs" textLength="107" x="52.5" y="297.4263">JSON RPC (Input)</text><polygon fill="#A80036" points="473.5,327.4922,483.5,331.4922,473.5,335.4922,477.5,331.4922" style="stroke: #A80036; stroke-width: 1.0;"/><line style="stroke: #A80036; stroke-width: 1.0;" x1="287.5" x2="479.5" y1="331.4922" y2="331.4922"/><text fill="#000000" font-family="sans-serif" font-size="13" lengthAdjust="spacingAndGlyphs" textLength="174" x="294.5" y="326.5591">JsonRequest("portalReady")</text><polygon fill="#A80036" points="599.5,356.625,609.5,360.625,599.5,364.625,603.5,360.625" style="stroke: #A80036; stroke-width: 1.0;"/><line style="stroke: #A80036; stroke-width: 1.0;" x1="490.5" x2="605.5" y1="360.625" y2="360.625"/><text fill="#000000" font-family="sans-serif" font-size="13" lengthAdjust="spacingAndGlyphs" textLength="76" x="497.5" y="355.6919">PortalReady</text><polygon fill="#A80036" points="506.5,385.7578,496.5,389.7578,506.5,393.7578,502.5,389.7578" style="stroke: #A80036; stroke-width: 1.0;"/><line style="stroke: #A80036; stroke-width: 1.0;" x1="500.5" x2="615.5" y1="389.7578" y2="389.7578"/><text fill="#000000" font-family="sans-serif" font-size="13" lengthAdjust="spacingAndGlyphs" textLength="97" x="512.5" y="384.8247">AddPortletType</text><polygon fill="#A80036" points="303.5,414.8906,293.5,418.8906,303.5,422.8906,299.5,418.8906" style="stroke: #A80036; stroke-width: 1.0;"/><line style="stroke: #A80036; stroke-width: 1.0;" x1="297.5" x2="489.5" y1="418.8906" y2="418.8906"/><text fill="#000000" font-family="sans-serif" font-size="13" lengthAdjust="spacingAndGlyphs" textLength="169" x="309.5" y="413.9575">toJsonRpc(AddPortletType)</text><polygon fill="#A80036" points="61.5,444.0234,51.5,448.0234,61.5,452.0234,57.5,448.0234" style="stroke: #A80036; stroke-width: 1.0;"/><line style="stroke: #A80036; stroke-width: 1.0;" x1="55.5" x2="276.5" y1="448.0234" y2="448.0234"/><text fill="#000000" font-family="sans-serif" font-size="13" lengthAdjust="spacingAndGlyphs" textLength="119" x="67.5" y="443.0903">JSON RPC (Output)</text></g></svg>