<?xml version="1.0" encoding="UTF-8" standalone="no"?><svg xmlns="http://www.w3.org/2000/svg" xmlns:xlink="http://www.w3.org/1999/xlink" contentScriptType="application/ecmascript" contentStyleType="text/css" height="409px" preserveAspectRatio="none" style="width:652px;height:409px;" version="1.1" viewBox="0 0 652 409" width="652px" zoomAndPan="magnify"><defs><filter height="300%" id="f110aufrw9t9mm" width="300%" x="-1" y="-1"><feGaussianBlur result="blurOut" stdDeviation="2.0"/><feColorMatrix in="blurOut" result="blurOut2" type="matrix" values="0 0 0 0 0 0 0 0 0 0 0 0 0 0 0 0 0 0 .4 0"/><feOffset dx="4.0" dy="4.0" in="blurOut2" result="blurOut3"/><feBlend in="SourceGraphic" in2="blurOut3" mode="normal"/></filter></defs><g><!--cluster Conceptual Portal\n(Portal Gateway)--><rect fill="#FFFFFF" filter="url(#f110aufrw9t9mm)" height="116" style="stroke: #000000; stroke-width: 2.0;" width="233" x="102.25" y="68"/><text fill="#000000" font-family="sans-serif" font-size="14" font-weight="bold" lengthAdjust="spacingAndGlyphs" textLength="140" x="148.75" y="82.9951">Conceptual Portal</text><text fill="#000000" font-family="sans-serif" font-size="14" font-weight="bold" lengthAdjust="spacingAndGlyphs" textLength="132" x="152.75" y="99.292">(Portal Gateway)</text><!--cluster ##18--><!--class Portal--><rect fill="#FEFECE" filter="url(#f110aufrw9t9mm)" height="48" id="Portal" style="stroke: #A80036; stroke-width: 1.5;" width="69" x="250" y="120"/><ellipse cx="265" cy="136" fill="#ADD1B2" rx="11" ry="11" style="stroke: #A80036; stroke-width: 1.0;"/><path d="M267.9688,141.6406 Q267.3906,141.9375 266.75,142.0859 Q266.1094,142.2344 265.4063,142.2344 Q262.9063,142.2344 261.5859,140.5859 Q260.2656,138.9375 260.2656,135.8125 Q260.2656,132.6875 261.5859,131.0313 Q262.9063,129.375 265.4063,129.375 Q266.1094,129.375 266.7578,129.5313 Q267.4063,129.6875 267.9688,129.9844 L267.9688,132.7031 Q267.3438,132.125 266.75,131.8516 Q266.1563,131.5781 265.5313,131.5781 Q264.1875,131.5781 263.5,132.6484 Q262.8125,133.7188 262.8125,135.8125 Q262.8125,137.9063 263.5,138.9766 Q264.1875,140.0469 265.5313,140.0469 Q266.1563,140.0469 266.75,139.7734 Q267.3438,139.5 267.9688,138.9219 L267.9688,141.6406 Z "/><text fill="#000000" font-family="sans-serif" font-size="12" lengthAdjust="spacingAndGlyphs" textLength="37" x="279" y="140.1543">Portal</text><line style="stroke: #A80036; stroke-width: 1.5;" x1="251" x2="318" y1="152" y2="152"/><line style="stroke: #A80036; stroke-width: 1.5;" x1="251" x2="318" y1="160" y2="160"/><!--class PortalView--><rect fill="#FEFECE" filter="url(#f110aufrw9t9mm)" height="48" id="PortalView" style="stroke: #A80036; stroke-width: 1.5;" width="97" x="118" y="120"/><ellipse cx="133" cy="136" fill="#ADD1B2" rx="11" ry="11" style="stroke: #A80036; stroke-width: 1.0;"/><path d="M135.9688,141.6406 Q135.3906,141.9375 134.75,142.0859 Q134.1094,142.2344 133.4063,142.2344 Q130.9063,142.2344 129.5859,140.5859 Q128.2656,138.9375 128.2656,135.8125 Q128.2656,132.6875 129.5859,131.0313 Q130.9063,129.375 133.4063,129.375 Q134.1094,129.375 134.7578,129.5313 Q135.4063,129.6875 135.9688,129.9844 L135.9688,132.7031 Q135.3438,132.125 134.75,131.8516 Q134.1563,131.5781 133.5313,131.5781 Q132.1875,131.5781 131.5,132.6484 Q130.8125,133.7188 130.8125,135.8125 Q130.8125,137.9063 131.5,138.9766 Q132.1875,140.0469 133.5313,140.0469 Q134.1563,140.0469 134.75,139.7734 Q135.3438,139.5 135.9688,138.9219 L135.9688,141.6406 Z "/><text fill="#000000" font-family="sans-serif" font-size="12" lengthAdjust="spacingAndGlyphs" textLength="65" x="147" y="140.1543">PortalView</text><line style="stroke: #A80036; stroke-width: 1.5;" x1="119" x2="214" y1="152" y2="152"/><line style="stroke: #A80036; stroke-width: 1.5;" x1="119" x2="214" y1="160" y2="160"/><!--class PortletB--><rect fill="#FEFECE" filter="url(#f110aufrw9t9mm)" height="48" id="PortletB" style="stroke: #A80036; stroke-width: 1.5;" width="82" x="525.25" y="120"/><ellipse cx="540.25" cy="136" fill="#ADD1B2" rx="11" ry="11" style="stroke: #A80036; stroke-width: 1.0;"/><path d="M543.2188,141.6406 Q542.6406,141.9375 542,142.0859 Q541.3594,142.2344 540.6563,142.2344 Q538.1563,142.2344 536.8359,140.5859 Q535.5156,138.9375 535.5156,135.8125 Q535.5156,132.6875 536.8359,131.0313 Q538.1563,129.375 540.6563,129.375 Q541.3594,129.375 542.0078,129.5313 Q542.6563,129.6875 543.2188,129.9844 L543.2188,132.7031 Q542.5938,132.125 542,131.8516 Q541.4063,131.5781 540.7813,131.5781 Q539.4375,131.5781 538.75,132.6484 Q538.0625,133.7188 538.0625,135.8125 Q538.0625,137.9063 538.75,138.9766 Q539.4375,140.0469 540.7813,140.0469 Q541.4063,140.0469 542,139.7734 Q542.5938,139.5 543.2188,138.9219 L543.2188,141.6406 Z "/><text fill="#000000" font-family="sans-serif" font-size="12" lengthAdjust="spacingAndGlyphs" textLength="50" x="554.25" y="140.1543">PortletB</text><line style="stroke: #A80036; stroke-width: 1.5;" x1="526.25" x2="606.25" y1="152" y2="152"/><line style="stroke: #A80036; stroke-width: 1.5;" x1="526.25" x2="606.25" y1="160" y2="160"/><!--class PortletA--><rect fill="#FEFECE" filter="url(#f110aufrw9t9mm)" height="48" id="PortletA" style="stroke: #A80036; stroke-width: 1.5;" width="82" x="392.25" y="120"/><ellipse cx="407.25" cy="136" fill="#ADD1B2" rx="11" ry="11" style="stroke: #A80036; stroke-width: 1.0;"/><path d="M410.2188,141.6406 Q409.6406,141.9375 409,142.0859 Q408.3594,142.2344 407.6563,142.2344 Q405.1563,142.2344 403.8359,140.5859 Q402.5156,138.9375 402.5156,135.8125 Q402.5156,132.6875 403.8359,131.0313 Q405.1563,129.375 407.6563,129.375 Q408.3594,129.375 409.0078,129.5313 Q409.6563,129.6875 410.2188,129.9844 L410.2188,132.7031 Q409.5938,132.125 409,131.8516 Q408.4063,131.5781 407.7813,131.5781 Q406.4375,131.5781 405.75,132.6484 Q405.0625,133.7188 405.0625,135.8125 Q405.0625,137.9063 405.75,138.9766 Q406.4375,140.0469 407.7813,140.0469 Q408.4063,140.0469 409,139.7734 Q409.5938,139.5 410.2188,138.9219 L410.2188,141.6406 Z "/><text fill="#000000" font-family="sans-serif" font-size="12" lengthAdjust="spacingAndGlyphs" textLength="50" x="421.25" y="140.1543">PortletA</text><line style="stroke: #A80036; stroke-width: 1.5;" x1="393.25" x2="473.25" y1="152" y2="152"/><line style="stroke: #A80036; stroke-width: 1.5;" x1="393.25" x2="473.25" y1="160" y2="160"/><!--class PortletAData--><rect fill="#FEFECE" filter="url(#f110aufrw9t9mm)" height="60.8047" id="PortletAData" style="stroke: #A80036; stroke-width: 1.5;" width="115" x="376" y="228.5"/><ellipse cx="392.35" cy="244.5" fill="#ADD1B2" rx="11" ry="11" style="stroke: #A80036; stroke-width: 1.0;"/><path d="M395.3188,250.1406 Q394.7406,250.4375 394.1,250.5859 Q393.4594,250.7344 392.7563,250.7344 Q390.2563,250.7344 388.9359,249.0859 Q387.6156,247.4375 387.6156,244.3125 Q387.6156,241.1875 388.9359,239.5313 Q390.2563,237.875 392.7563,237.875 Q393.4594,237.875 394.1078,238.0313 Q394.7563,238.1875 395.3188,238.4844 L395.3188,241.2031 Q394.6938,240.625 394.1,240.3516 Q393.5063,240.0781 392.8813,240.0781 Q391.5375,240.0781 390.85,241.1484 Q390.1625,242.2188 390.1625,244.3125 Q390.1625,246.4063 390.85,247.4766 Q391.5375,248.5469 392.8813,248.5469 Q393.5063,248.5469 394.1,248.2734 Q394.6938,248 395.3188,247.4219 L395.3188,250.1406 Z "/><text fill="#000000" font-family="sans-serif" font-size="12" lengthAdjust="spacingAndGlyphs" textLength="80" x="406.65" y="248.6543">PortletAData</text><line style="stroke: #A80036; stroke-width: 1.5;" x1="377" x2="490" y1="260.5" y2="260.5"/><rect fill="none" height="6" style="stroke: #C82930; stroke-width: 1.0;" width="6" x="384" y="269.4023"/><text fill="#000000" font-family="sans-serif" font-size="11" lengthAdjust="spacingAndGlyphs" textLength="89" x="396" y="274.7104">portletId: String</text><line style="stroke: #A80036; stroke-width: 1.5;" x1="377" x2="490" y1="281.3047" y2="281.3047"/><!--class PortletBData--><rect fill="#FEFECE" filter="url(#f110aufrw9t9mm)" height="60.8047" id="PortletBData" style="stroke: #A80036; stroke-width: 1.5;" width="115" x="526" y="228.5"/><ellipse cx="542.35" cy="244.5" fill="#ADD1B2" rx="11" ry="11" style="stroke: #A80036; stroke-width: 1.0;"/><path d="M545.3188,250.1406 Q544.7406,250.4375 544.1,250.5859 Q543.4594,250.7344 542.7563,250.7344 Q540.2563,250.7344 538.9359,249.0859 Q537.6156,247.4375 537.6156,244.3125 Q537.6156,241.1875 538.9359,239.5313 Q540.2563,237.875 542.7563,237.875 Q543.4594,237.875 544.1078,238.0313 Q544.7563,238.1875 545.3188,238.4844 L545.3188,241.2031 Q544.6938,240.625 544.1,240.3516 Q543.5063,240.0781 542.8813,240.0781 Q541.5375,240.0781 540.85,241.1484 Q540.1625,242.2188 540.1625,244.3125 Q540.1625,246.4063 540.85,247.4766 Q541.5375,248.5469 542.8813,248.5469 Q543.5063,248.5469 544.1,248.2734 Q544.6938,248 545.3188,247.4219 L545.3188,250.1406 Z "/><text fill="#000000" font-family="sans-serif" font-size="12" lengthAdjust="spacingAndGlyphs" textLength="80" x="556.65" y="248.6543">PortletBData</text><line style="stroke: #A80036; stroke-width: 1.5;" x1="527" x2="640" y1="260.5" y2="260.5"/><rect fill="none" height="6" style="stroke: #C82930; stroke-width: 1.0;" width="6" x="534" y="269.4023"/><text fill="#000000" font-family="sans-serif" font-size="11" lengthAdjust="spacingAndGlyphs" textLength="89" x="546" y="274.7104">portletId: String</text><line style="stroke: #A80036; stroke-width: 1.5;" x1="527" x2="640" y1="281.3047" y2="281.3047"/><!--class Session--><rect fill="#FEFECE" filter="url(#f110aufrw9t9mm)" height="48" id="Session" style="stroke: #A80036; stroke-width: 1.5;" width="81" x="468" y="350"/><ellipse cx="483" cy="366" fill="#ADD1B2" rx="11" ry="11" style="stroke: #A80036; stroke-width: 1.0;"/><path d="M485.9688,371.6406 Q485.3906,371.9375 484.75,372.0859 Q484.1094,372.2344 483.4063,372.2344 Q480.9063,372.2344 479.5859,370.5859 Q478.2656,368.9375 478.2656,365.8125 Q478.2656,362.6875 479.5859,361.0313 Q480.9063,359.375 483.4063,359.375 Q484.1094,359.375 484.7578,359.5313 Q485.4063,359.6875 485.9688,359.9844 L485.9688,362.7031 Q485.3438,362.125 484.75,361.8516 Q484.1563,361.5781 483.5313,361.5781 Q482.1875,361.5781 481.5,362.6484 Q480.8125,363.7188 480.8125,365.8125 Q480.8125,367.9063 481.5,368.9766 Q482.1875,370.0469 483.5313,370.0469 Q484.1563,370.0469 484.75,369.7734 Q485.3438,369.5 485.9688,368.9219 L485.9688,371.6406 Z "/><text fill="#000000" font-family="sans-serif" font-size="12" lengthAdjust="spacingAndGlyphs" textLength="49" x="497" y="370.1543">Session</text><line style="stroke: #A80036; stroke-width: 1.5;" x1="469" x2="548" y1="382" y2="382"/><line style="stroke: #A80036; stroke-width: 1.5;" x1="469" x2="548" y1="390" y2="390"/><!--entity Browser--><rect fill="#FEFECE" filter="url(#f110aufrw9t9mm)" height="36.2969" style="stroke: #A80036; stroke-width: 1.5;" width="77" x="6" y="126"/><rect fill="#FEFECE" height="5" style="stroke: #A80036; stroke-width: 1.5;" width="10" x="1" y="131"/><rect fill="#FEFECE" height="5" style="stroke: #A80036; stroke-width: 1.5;" width="10" x="1" y="152.2969"/><text fill="#000000" font-family="sans-serif" font-size="14" lengthAdjust="spacingAndGlyphs" textLength="57" x="16" y="148.9951">Browser</text><!--class PageResourceProvider--><rect fill="#FEFECE" filter="url(#f110aufrw9t9mm)" height="48" id="PageResourceProvider" style="stroke: #A80036; stroke-width: 1.5;" width="174" x="25.25" y="235"/><ellipse cx="40.25" cy="251" fill="#ADD1B2" rx="11" ry="11" style="stroke: #A80036; stroke-width: 1.0;"/><path d="M43.2188,256.6406 Q42.6406,256.9375 42,257.0859 Q41.3594,257.2344 40.6563,257.2344 Q38.1563,257.2344 36.8359,255.5859 Q35.5156,253.9375 35.5156,250.8125 Q35.5156,247.6875 36.8359,246.0313 Q38.1563,244.375 40.6563,244.375 Q41.3594,244.375 42.0078,244.5313 Q42.6563,244.6875 43.2188,244.9844 L43.2188,247.7031 Q42.5938,247.125 42,246.8516 Q41.4063,246.5781 40.7813,246.5781 Q39.4375,246.5781 38.75,247.6484 Q38.0625,248.7188 38.0625,250.8125 Q38.0625,252.9063 38.75,253.9766 Q39.4375,255.0469 40.7813,255.0469 Q41.4063,255.0469 42,254.7734 Q42.5938,254.5 43.2188,253.9219 L43.2188,256.6406 Z "/><text fill="#000000" font-family="sans-serif" font-size="12" lengthAdjust="spacingAndGlyphs" textLength="142" x="54.25" y="255.1543">PageResourceProvider</text><line style="stroke: #A80036; stroke-width: 1.5;" x1="26.25" x2="198.25" y1="267" y2="267"/><line style="stroke: #A80036; stroke-width: 1.5;" x1="26.25" x2="198.25" y1="275" y2="275"/><!--class PortalPolicy--><rect fill="#FEFECE" filter="url(#f110aufrw9t9mm)" height="48" id="PortalPolicy" style="stroke: #A80036; stroke-width: 1.5;" width="104" x="234.25" y="235"/><ellipse cx="249.25" cy="251" fill="#ADD1B2" rx="11" ry="11" style="stroke: #A80036; stroke-width: 1.0;"/><path d="M252.2188,256.6406 Q251.6406,256.9375 251,257.0859 Q250.3594,257.2344 249.6563,257.2344 Q247.1563,257.2344 245.8359,255.5859 Q244.5156,253.9375 244.5156,250.8125 Q244.5156,247.6875 245.8359,246.0313 Q247.1563,244.375 249.6563,244.375 Q250.3594,244.375 251.0078,244.5313 Q251.6563,244.6875 252.2188,244.9844 L252.2188,247.7031 Q251.5938,247.125 251,246.8516 Q250.4063,246.5781 249.7813,246.5781 Q248.4375,246.5781 247.75,247.6484 Q247.0625,248.7188 247.0625,250.8125 Q247.0625,252.9063 247.75,253.9766 Q248.4375,255.0469 249.7813,255.0469 Q250.4063,255.0469 251,254.7734 Q251.5938,254.5 252.2188,253.9219 L252.2188,256.6406 Z "/><text fill="#000000" font-family="sans-serif" font-size="12" lengthAdjust="spacingAndGlyphs" textLength="72" x="263.25" y="255.1543">PortalPolicy</text><line style="stroke: #A80036; stroke-width: 1.5;" x1="235.25" x2="337.25" y1="267" y2="267"/><line style="stroke: #A80036; stroke-width: 1.5;" x1="235.25" x2="337.25" y1="275" y2="275"/><!--link PortalView to Portal--><path d="M214.648,144 C226.43,144 238.211,144 249.993,144 " fill="none" id="PortalView-Portal" style="stroke: #A80036; stroke-width: 1.0;"/><text fill="#000000" font-family="sans-serif" font-size="13" lengthAdjust="spacingAndGlyphs" textLength="8" x="222.9591" y="138.7228">1</text><text fill="#000000" font-family="sans-serif" font-size="13" lengthAdjust="spacingAndGlyphs" textLength="8" x="233.9558" y="138.5647">1</text><!--link Browser to PortalView--><path d="M82.8516,144 C94.4709,144 106.0902,144 117.71,144 " fill="none" id="Browser-PortalView" style="stroke: #A80036; stroke-width: 1.0;"/><text fill="#000000" font-family="sans-serif" font-size="13" lengthAdjust="spacingAndGlyphs" textLength="7" x="91.0911" y="138.3773">*</text><text fill="#000000" font-family="sans-serif" font-size="13" lengthAdjust="spacingAndGlyphs" textLength="7" x="102.8822" y="138.9863">*</text><!--link Portal to PortletB--><path d="M296.26,119.694 C310.26,94.433 336.011,56.349 370.917,40 C414.653,19.515 435.847,19.515 479.583,40 C514.489,56.349 540.24,94.433 554.24,119.694 " fill="none" id="Portal-PortletB" style="stroke: #A80036; stroke-width: 1.0;"/><text fill="#000000" font-family="sans-serif" font-size="13" lengthAdjust="spacingAndGlyphs" textLength="8" x="288.6543" y="109.0084">1</text><text fill="#000000" font-family="sans-serif" font-size="13" lengthAdjust="spacingAndGlyphs" textLength="8" x="542.9803" y="108.8136">1</text><!--link Portal to PortletA--><path d="M318.59,156.769 C343.075,163.147 367.559,163.693 392.044,158.405 " fill="none" id="Portal-PortletA" style="stroke: #A80036; stroke-width: 1.0;"/><text fill="#000000" font-family="sans-serif" font-size="13" lengthAdjust="spacingAndGlyphs" textLength="8" x="326.9222" y="153.7843">1</text><text fill="#000000" font-family="sans-serif" font-size="13" lengthAdjust="spacingAndGlyphs" textLength="8" x="376.2575" y="122.3075">1</text><!--link PortletA to PortletAData--><path d="M433.25,168.14 C433.25,185.574 433.25,209.61 433.25,228.436 " fill="none" id="PortletA-PortletAData" style="stroke: #A80036; stroke-width: 1.0;"/><text fill="#000000" font-family="sans-serif" font-size="13" lengthAdjust="spacingAndGlyphs" textLength="8" x="423.0313" y="187.9353">1</text><text fill="#000000" font-family="sans-serif" font-size="13" lengthAdjust="spacingAndGlyphs" textLength="7" x="424.3742" y="217.3307">*</text><!--link PortletB to PortletBData--><path d="M569.731,168.14 C572.354,185.574 575.97,209.61 578.802,228.436 " fill="none" id="PortletB-PortletBData" style="stroke: #A80036; stroke-width: 1.0;"/><text fill="#000000" font-family="sans-serif" font-size="13" lengthAdjust="spacingAndGlyphs" textLength="8" x="560.3607" y="187.9353">1</text><text fill="#000000" font-family="sans-serif" font-size="13" lengthAdjust="spacingAndGlyphs" textLength="7" x="569.1061" y="217.3307">*</text><!--link PortletAData to Session--><path d="M452.955,289.689 C463.014,304.844 475.295,323.348 485.726,339.0646 " fill="none" id="PortletAData-Session" style="stroke: #A80036; stroke-width: 1.0;"/><polygon fill="#A80036" points="492.937,349.9284,492.9517,342.7173,486.301,339.9302,486.2863,347.1413,492.937,349.9284" style="stroke: #A80036; stroke-width: 1.0;"/><text fill="#000000" font-family="sans-serif" font-size="13" lengthAdjust="spacingAndGlyphs" textLength="7" x="447.8993" y="309.3067">*</text><text fill="#000000" font-family="sans-serif" font-size="13" lengthAdjust="spacingAndGlyphs" textLength="8" x="479.4388" y="338.8848">1</text><!--link PortletBData to Session--><path d="M563.545,289.689 C553.486,304.844 541.205,323.348 530.774,339.0646 " fill="none" id="PortletBData-Session" style="stroke: #A80036; stroke-width: 1.0;"/><polygon fill="#A80036" points="523.563,349.9284,530.2137,347.1413,530.199,339.9302,523.5483,342.7173,523.563,349.9284" style="stroke: #A80036; stroke-width: 1.0;"/><text fill="#000000" font-family="sans-serif" font-size="13" lengthAdjust="spacingAndGlyphs" textLength="7" x="550.7304" y="309.3067">*</text><text fill="#000000" font-family="sans-serif" font-size="13" lengthAdjust="spacingAndGlyphs" textLength="8" x="516.7643" y="338.8848">1</text><!--link Portal to PageResourceProvider--><path d="M260.376,168.173 C251.571,176.169 241.288,184.895 231.25,192 C208.689,207.968 181.893,223.127 159.447,234.88 " fill="none" id="Portal-PageResourceProvider" style="stroke: #A80036; stroke-width: 1.0;"/><text fill="#000000" font-family="sans-serif" font-size="13" lengthAdjust="spacingAndGlyphs" textLength="8" x="244.277" y="187.9764">1</text><text fill="#000000" font-family="sans-serif" font-size="13" lengthAdjust="spacingAndGlyphs" textLength="7" x="160.787" y="223.8258">*</text><!--link Portal to PortalPolicy--><path d="M284.66,168.14 C285.005,187.64 285.496,215.4 285.841,234.891 " fill="none" id="Portal-PortalPolicy" style="stroke: #A80036; stroke-width: 1.0;"/><text fill="#000000" font-family="sans-serif" font-size="13" lengthAdjust="spacingAndGlyphs" textLength="8" x="274.4803" y="187.9353">1</text><text fill="#000000" font-family="sans-serif" font-size="13" lengthAdjust="spacingAndGlyphs" textLength="7" x="276.7672" y="223.8392">*</text><!--
@startuml
skinparam packageStyle rectangle
 allow_mixing
 
 component Browser
 
 package "Conceptual Portal\n(Portal Gateway)" {
    class Portal
 	  class PortalView
 
    Portal "1" -left- "1" PortalView
 }
 
 PortalView "*" -left- "*" Browser
 
 together {
 
   Portal "1" -right- "1" PortletB
   Portal "1" -right- "1" PortletA
 
   class PortletAData {
     -portletId: String
   }
 
   PortletAData "*" -up- "1" PortletA
 
   class PortletBData {
     -portletId: String
   }
 
   PortletBData "*" -up- "1" PortletB
   
   PortletAData "*" -up-* "1" Session
   PortletBData "*" -up-* "1" Session
 }
 
 Portal "1" -down- "*" PageResourceProvider
 Portal "1" -down- "*" PortalPolicy
@enduml

PlantUML version 1.2017.18(Fri Oct 06 16:56:32 UTC 2017)
(GPL source distribution)
Java Runtime: Java(TM) SE Runtime Environment
JVM: Java HotSpot(TM) 64-Bit Server VM
Java Version: 1.8.0_151-b12
Operating System: Linux
OS Version: 4.14.12-041412-generic
Default Encoding: UTF-8
Language: en
Country: US
--></g></svg>