<?xml version="1.0" encoding="UTF-8" standalone="no"?><svg xmlns="http://www.w3.org/2000/svg" xmlns:xlink="http://www.w3.org/1999/xlink" contentScriptType="application/ecmascript" contentStyleType="text/css" height="314px" preserveAspectRatio="none" style="width:551px;height:314px;" version="1.1" viewBox="0 0 551 314" width="551px" zoomAndPan="magnify"><defs><filter height="300%" id="frwdeqb" width="300%" x="-1" y="-1"><feGaussianBlur result="blurOut" stdDeviation="2.0"/><feColorMatrix in="blurOut" result="blurOut2" type="matrix" values="0 0 0 0 0 0 0 0 0 0 0 0 0 0 0 0 0 0 .4 0"/><feOffset dx="4.0" dy="4.0" in="blurOut2" result="blurOut3"/><feBlend in="SourceGraphic" in2="blurOut3" mode="normal"/></filter></defs><g><!--class PortalSession--><rect fill="#FEFECE" filter="url(#frwdeqb)" height="188.8516" style="stroke: #A80036; stroke-width: 1.5;" width="438" x="6" y="117"/><ellipse cx="181.25" cy="133" fill="#ADD1B2" rx="11" ry="11" style="stroke: #A80036; stroke-width: 1.0;"/><path d="M184.2188,138.6406 Q183.6406,138.9375 183,139.0859 Q182.3594,139.2344 181.6563,139.2344 Q179.1563,139.2344 177.8359,137.5859 Q176.5156,135.9375 176.5156,132.8125 Q176.5156,129.6875 177.8359,128.0313 Q179.1563,126.375 181.6563,126.375 Q182.3594,126.375 183.0078,126.5313 Q183.6563,126.6875 184.2188,126.9844 L184.2188,129.7031 Q183.5938,129.125 183,128.8516 Q182.4063,128.5781 181.7813,128.5781 Q180.4375,128.5781 179.75,129.6484 Q179.0625,130.7188 179.0625,132.8125 Q179.0625,134.9063 179.75,135.9766 Q180.4375,137.0469 181.7813,137.0469 Q182.4063,137.0469 183,136.7734 Q183.5938,136.5 184.2188,135.9219 L184.2188,138.6406 Z "/><text fill="#000000" font-family="sans-serif" font-size="12" lengthAdjust="spacingAndGlyphs" textLength="79" x="201.75" y="137.1543">PortalSession</text><line style="stroke: #A80036; stroke-width: 1.5;" x1="7" x2="443" y1="149" y2="149"/><rect fill="none" height="6" style="stroke: #C82930; stroke-width: 1.0;" width="6" x="14" y="157.9023"/><text fill="#000000" font-family="sans-serif" font-size="11" lengthAdjust="spacingAndGlyphs" text-decoration="underline" textLength="240" x="26" y="163.2104">Map&lt;String,PortalSession&gt; portalSessions</text><line style="stroke: #000000; stroke-width: 1.0;" x1="26" x2="266" y1="165.2104" y2="165.2104"/><line style="stroke: #A80036; stroke-width: 1.5;" x1="7" x2="443" y1="169.8047" y2="169.8047"/><ellipse cx="17" cy="181.707" fill="#84BE84" rx="3" ry="3" style="stroke: #038048; stroke-width: 1.0;"/><text fill="#000000" font-family="sans-serif" font-size="11" lengthAdjust="spacingAndGlyphs" text-decoration="underline" textLength="412" x="26" y="184.0151">findOrCreate(String portalSessionId, Manager component): PortalSession</text><line style="stroke: #000000; stroke-width: 1.0;" x1="26" x2="438" y1="186.0151" y2="186.0151"/><ellipse cx="17" cy="194.5117" fill="#84BE84" rx="3" ry="3" style="stroke: #038048; stroke-width: 1.0;"/><text fill="#000000" font-family="sans-serif" font-size="11" lengthAdjust="spacingAndGlyphs" textLength="230" x="26" y="196.8198">setTimeout(timeout: long): PortalSession</text><ellipse cx="17" cy="207.3164" fill="#84BE84" rx="3" ry="3" style="stroke: #038048; stroke-width: 1.0;"/><text fill="#000000" font-family="sans-serif" font-size="11" lengthAdjust="spacingAndGlyphs" textLength="81" x="26" y="209.6245">refresh(): void</text><ellipse cx="17" cy="220.1211" fill="#84BE84" rx="3" ry="3" style="stroke: #038048; stroke-width: 1.0;"/><text fill="#000000" font-family="sans-serif" font-size="11" lengthAdjust="spacingAndGlyphs" textLength="391" x="26" y="222.4292">setUpstreamChannel(IOSubchannel upstreamChannel): PortalSession</text><ellipse cx="17" cy="232.9258" fill="#84BE84" rx="3" ry="3" style="stroke: #038048; stroke-width: 1.0;"/><text fill="#000000" font-family="sans-serif" font-size="11" lengthAdjust="spacingAndGlyphs" textLength="288" x="26" y="235.2339">setSession(Session browserSession): PortalSession</text><ellipse cx="17" cy="245.7305" fill="#84BE84" rx="3" ry="3" style="stroke: #038048; stroke-width: 1.0;"/><text fill="#000000" font-family="sans-serif" font-size="11" lengthAdjust="spacingAndGlyphs" textLength="258" x="26" y="248.0386">upstreamChannel(): Optional&lt;IOSubchannel&gt;</text><ellipse cx="17" cy="258.5352" fill="#84BE84" rx="3" ry="3" style="stroke: #038048; stroke-width: 1.0;"/><text fill="#000000" font-family="sans-serif" font-size="11" lengthAdjust="spacingAndGlyphs" textLength="135" x="26" y="260.8433">portalSessionId(): String</text><ellipse cx="17" cy="271.3398" fill="#84BE84" rx="3" ry="3" style="stroke: #038048; stroke-width: 1.0;"/><text fill="#000000" font-family="sans-serif" font-size="11" lengthAdjust="spacingAndGlyphs" textLength="148" x="26" y="273.6479">browserSession(): Session</text><ellipse cx="17" cy="284.1445" fill="#84BE84" rx="3" ry="3" style="stroke: #038048; stroke-width: 1.0;"/><text fill="#000000" font-family="sans-serif" font-size="11" lengthAdjust="spacingAndGlyphs" textLength="85" x="26" y="286.4526">locale(): Locale</text><ellipse cx="17" cy="296.9492" fill="#84BE84" rx="3" ry="3" style="stroke: #038048; stroke-width: 1.0;"/><text fill="#000000" font-family="sans-serif" font-size="11" lengthAdjust="spacingAndGlyphs" textLength="166" x="26" y="299.2573">setLocale(Locale locale): void</text><!--class IOSubchannel--><rect fill="#FEFECE" filter="url(#frwdeqb)" height="48" style="stroke: #A80036; stroke-width: 1.5;" width="117" x="166.5" y="8"/><ellipse cx="181.5" cy="24" fill="#B4A7E5" rx="11" ry="11" style="stroke: #A80036; stroke-width: 1.0;"/><path d="M177.9219,19.7656 L177.9219,17.6094 L185.3125,17.6094 L185.3125,19.7656 L182.8438,19.7656 L182.8438,27.8438 L185.3125,27.8438 L185.3125,30 L177.9219,30 L177.9219,27.8438 L180.3906,27.8438 L180.3906,19.7656 L177.9219,19.7656 Z "/><text fill="#000000" font-family="sans-serif" font-size="12" font-style="italic" lengthAdjust="spacingAndGlyphs" textLength="85" x="195.5" y="28.1543">IOSubchannel</text><line style="stroke: #A80036; stroke-width: 1.5;" x1="167.5" x2="282.5" y1="40" y2="40"/><line style="stroke: #A80036; stroke-width: 1.5;" x1="167.5" x2="282.5" y1="48" y2="48"/><path d="M225,76.4593 C225,88.806 225,102.7024 225,116.7626 " fill="none" style="stroke: #A80036; stroke-width: 1.0; stroke-dasharray: 7.0,7.0;"/><polygon fill="none" points="218.0001,76.2082,225,56.2082,232.0001,76.2081,218.0001,76.2082" style="stroke: #A80036; stroke-width: 1.0;"/><path d="M456.8831,195.4761 C470.7107,199.2999 479,204.6412 479,211.5 C479,220.2793 465.4188,226.5723 444.0257,230.3789 " fill="none" style="stroke: #A80036; stroke-width: 1.0;"/><polygon fill="#A80036" points="444.0257,192.6211,449.0159,197.8267,455.7403,195.2225,450.7501,190.0169,444.0257,192.6211" style="stroke: #A80036; stroke-width: 1.0;"/><text fill="#000000" font-family="sans-serif" font-size="13" lengthAdjust="spacingAndGlyphs" textLength="65" x="485" y="216.0669">maintains</text><text fill="#000000" font-family="sans-serif" font-size="13" lengthAdjust="spacingAndGlyphs" textLength="8" x="452.0407" y="188.7451">1</text><text fill="#000000" font-family="sans-serif" font-size="13" lengthAdjust="spacingAndGlyphs" textLength="7" x="452.0227" y="227.8598">*</text></g></svg>