<?xml version="1.0" encoding="us-ascii" standalone="no"?><svg xmlns="http://www.w3.org/2000/svg" xmlns:xlink="http://www.w3.org/1999/xlink" contentStyleType="text/css" height="622px" preserveAspectRatio="none" style="width:845px;height:622px;background:#FFFFFF;" version="1.1" viewBox="0 0 845 622" width="845px" zoomAndPan="magnify"><defs/><g><!--cluster Conceptual WebConsole--><g id="cluster_Conceptual WebConsole"><rect fill="none" height="203" rx="2.5" ry="2.5" style="stroke:#181818;stroke-width:1.0;" width="216" x="368.5" y="184"/><text fill="#000000" font-family="sans-serif" font-size="14" font-weight="bold" lengthAdjust="spacing" textLength="193" x="380" y="198.9951">Conceptual WebConsole</text></g><!--cluster Providers and Conlets--><g id="cluster_Providers and Conlets"><rect fill="none" height="97" rx="2.5" ry="2.5" style="stroke:#181818;stroke-width:1.0;" width="196" x="385.5" y="519"/><text fill="#000000" font-family="sans-serif" font-size="14" font-weight="bold" lengthAdjust="spacing" textLength="175" x="396" y="533.9951">Providers and Conlets</text></g><!--entity VueJsConsoleWeblet--><g id="elem_VueJsConsoleWeblet"><rect fill="#F1F1F1" height="46.2969" rx="2.5" ry="2.5" style="stroke:#181818;stroke-width:0.5;" width="183" x="385" y="219"/><rect fill="#F1F1F1" height="10" style="stroke:#181818;stroke-width:0.5;" width="15" x="548" y="224"/><rect fill="#F1F1F1" height="2" style="stroke:#181818;stroke-width:0.5;" width="4" x="546" y="226"/><rect fill="#F1F1F1" height="2" style="stroke:#181818;stroke-width:0.5;" width="4" x="546" y="230"/><text fill="#000000" font-family="sans-serif" font-size="14" lengthAdjust="spacing" textLength="143" x="400" y="251.9951">VueJsConsoleWeblet</text></g><!--entity WebConsole--><g id="elem_WebConsole"><rect fill="#F1F1F1" height="46.2969" rx="2.5" ry="2.5" style="stroke:#181818;stroke-width:0.5;" width="128" x="417.5" y="325"/><rect fill="#F1F1F1" height="10" style="stroke:#181818;stroke-width:0.5;" width="15" x="525.5" y="330"/><rect fill="#F1F1F1" height="2" style="stroke:#181818;stroke-width:0.5;" width="4" x="523.5" y="332"/><rect fill="#F1F1F1" height="2" style="stroke:#181818;stroke-width:0.5;" width="4" x="523.5" y="336"/><text fill="#000000" font-family="sans-serif" font-size="14" lengthAdjust="spacing" textLength="88" x="432.5" y="357.9951">WebConsole</text></g><!--entity Some component--><g id="elem_Some component"><rect fill="#F1F1F1" height="46.2969" rx="2.5" ry="2.5" style="stroke:#181818;stroke-width:0.5;" width="164" x="401.5" y="554"/><rect fill="#F1F1F1" height="10" style="stroke:#181818;stroke-width:0.5;" width="15" x="545.5" y="559"/><rect fill="#F1F1F1" height="2" style="stroke:#181818;stroke-width:0.5;" width="4" x="543.5" y="561"/><rect fill="#F1F1F1" height="2" style="stroke:#181818;stroke-width:0.5;" width="4" x="543.5" y="565"/><text fill="#000000" font-family="sans-serif" font-size="14" lengthAdjust="spacing" textLength="124" x="416.5" y="586.9951">Some component</text></g><!--entity ConsoleApp--><g id="elem_ConsoleApp"><rect fill="#F1F1F1" height="46.2969" rx="2.5" ry="2.5" style="stroke:#181818;stroke-width:0.5;" width="124" x="187.5" y="7"/><rect fill="#F1F1F1" height="10" style="stroke:#181818;stroke-width:0.5;" width="15" x="291.5" y="12"/><rect fill="#F1F1F1" height="2" style="stroke:#181818;stroke-width:0.5;" width="4" x="289.5" y="14"/><rect fill="#F1F1F1" height="2" style="stroke:#181818;stroke-width:0.5;" width="4" x="289.5" y="18"/><text fill="#000000" font-family="sans-serif" font-size="14" lengthAdjust="spacing" textLength="84" x="202.5" y="39.9951">ConsoleApp</text></g><!--entity SocketServer:8888--><g id="elem_SocketServer:8888"><rect fill="#F1F1F1" height="46.2969" rx="2.5" ry="2.5" style="stroke:#181818;stroke-width:0.5;" width="173" x="7" y="113"/><rect fill="#F1F1F1" height="10" style="stroke:#181818;stroke-width:0.5;" width="15" x="160" y="118"/><rect fill="#F1F1F1" height="2" style="stroke:#181818;stroke-width:0.5;" width="4" x="158" y="120"/><rect fill="#F1F1F1" height="2" style="stroke:#181818;stroke-width:0.5;" width="4" x="158" y="124"/><text fill="#000000" font-family="sans-serif" font-size="14" lengthAdjust="spacing" textLength="133" x="22" y="145.9951">SocketServer:8888</text></g><g id="elem_GMN5"><path d="M48.5,222 L48.5,262.2656 A0,0 0 0 0 48.5,262.2656 L138.5,262.2656 A0,0 0 0 0 138.5,262.2656 L138.5,232 L128.5,222 L97.5,222 L93.5,159.06 L89.5,222 L48.5,222 A0,0 0 0 0 48.5,222 " fill="#FEFFDD" style="stroke:#181818;stroke-width:0.5;"/><path d="M128.5,222 L128.5,232 L138.5,232 L128.5,222 " fill="#FEFFDD" style="stroke:#181818;stroke-width:0.5;"/><text fill="#000000" font-family="sans-serif" font-size="13" lengthAdjust="spacing" textLength="60" x="54.5" y="239.0669">Connects</text><text fill="#000000" font-family="sans-serif" font-size="13" lengthAdjust="spacing" textLength="69" x="54.5" y="254.1997">to Network</text></g><!--entity SslCodec--><g id="elem_SslCodec"><rect fill="#F1F1F1" height="46.2969" rx="2.5" ry="2.5" style="stroke:#181818;stroke-width:0.5;" width="105" x="215" y="113"/><rect fill="#F1F1F1" height="10" style="stroke:#181818;stroke-width:0.5;" width="15" x="300" y="118"/><rect fill="#F1F1F1" height="2" style="stroke:#181818;stroke-width:0.5;" width="4" x="298" y="120"/><rect fill="#F1F1F1" height="2" style="stroke:#181818;stroke-width:0.5;" width="4" x="298" y="124"/><text fill="#000000" font-family="sans-serif" font-size="14" lengthAdjust="spacing" textLength="65" x="230" y="145.9951">SslCodec</text></g><!--entity SocketServer:8443--><g id="elem_SocketServer:8443"><rect fill="#F1F1F1" height="46.2969" rx="2.5" ry="2.5" style="stroke:#181818;stroke-width:0.5;" width="173" x="177" y="219"/><rect fill="#F1F1F1" height="10" style="stroke:#181818;stroke-width:0.5;" width="15" x="330" y="224"/><rect fill="#F1F1F1" height="2" style="stroke:#181818;stroke-width:0.5;" width="4" x="328" y="226"/><rect fill="#F1F1F1" height="2" style="stroke:#181818;stroke-width:0.5;" width="4" x="328" y="230"/><text fill="#000000" font-family="sans-serif" font-size="14" lengthAdjust="spacing" textLength="133" x="192" y="251.9951">SocketServer:8443</text></g><g id="elem_GMN13"><path d="M218.5,328 L218.5,368.2656 A0,0 0 0 0 218.5,368.2656 L308.5,368.2656 A0,0 0 0 0 308.5,368.2656 L308.5,338 L298.5,328 L267.5,328 L263.5,265.06 L259.5,328 L218.5,328 A0,0 0 0 0 218.5,328 " fill="#FEFFDD" style="stroke:#181818;stroke-width:0.5;"/><path d="M298.5,328 L298.5,338 L308.5,338 L298.5,328 " fill="#FEFFDD" style="stroke:#181818;stroke-width:0.5;"/><text fill="#000000" font-family="sans-serif" font-size="13" lengthAdjust="spacing" textLength="60" x="224.5" y="345.0669">Connects</text><text fill="#000000" font-family="sans-serif" font-size="13" lengthAdjust="spacing" textLength="69" x="224.5" y="360.1997">to Network</text></g><!--entity HttpServer--><g id="elem_HttpServer"><rect fill="#F1F1F1" height="46.2969" rx="2.5" ry="2.5" style="stroke:#181818;stroke-width:0.5;" width="113" x="373" y="113"/><rect fill="#F1F1F1" height="10" style="stroke:#181818;stroke-width:0.5;" width="15" x="466" y="118"/><rect fill="#F1F1F1" height="2" style="stroke:#181818;stroke-width:0.5;" width="4" x="464" y="120"/><rect fill="#F1F1F1" height="2" style="stroke:#181818;stroke-width:0.5;" width="4" x="464" y="124"/><text fill="#000000" font-family="sans-serif" font-size="14" lengthAdjust="spacing" textLength="73" x="388" y="145.9951">HttpServer</text></g><!--entity PreferencesStore--><g id="elem_PreferencesStore"><rect fill="#F1F1F1" height="46.2969" rx="2.5" ry="2.5" style="stroke:#181818;stroke-width:0.5;" width="161" x="547" y="7"/><rect fill="#F1F1F1" height="10" style="stroke:#181818;stroke-width:0.5;" width="15" x="688" y="12"/><rect fill="#F1F1F1" height="2" style="stroke:#181818;stroke-width:0.5;" width="4" x="686" y="14"/><rect fill="#F1F1F1" height="2" style="stroke:#181818;stroke-width:0.5;" width="4" x="686" y="18"/><text fill="#000000" font-family="sans-serif" font-size="14" lengthAdjust="spacing" textLength="121" x="562" y="39.9951">PreferencesStore</text></g><!--entity InMemorySessionManager--><g id="elem_InMemorySessionManager"><rect fill="#F1F1F1" height="46.2969" rx="2.5" ry="2.5" style="stroke:#181818;stroke-width:0.5;" width="222" x="521.5" y="113"/><rect fill="#F1F1F1" height="10" style="stroke:#181818;stroke-width:0.5;" width="15" x="723.5" y="118"/><rect fill="#F1F1F1" height="2" style="stroke:#181818;stroke-width:0.5;" width="4" x="721.5" y="120"/><rect fill="#F1F1F1" height="2" style="stroke:#181818;stroke-width:0.5;" width="4" x="721.5" y="124"/><text fill="#000000" font-family="sans-serif" font-size="14" lengthAdjust="spacing" textLength="182" x="536.5" y="145.9951">InMemorySessionManager</text></g><!--entity LanguageSelector--><g id="elem_LanguageSelector"><rect fill="#F1F1F1" height="46.2969" rx="2.5" ry="2.5" style="stroke:#181818;stroke-width:0.5;" width="165" x="347" y="7"/><rect fill="#F1F1F1" height="10" style="stroke:#181818;stroke-width:0.5;" width="15" x="492" y="12"/><rect fill="#F1F1F1" height="2" style="stroke:#181818;stroke-width:0.5;" width="4" x="490" y="14"/><rect fill="#F1F1F1" height="2" style="stroke:#181818;stroke-width:0.5;" width="4" x="490" y="18"/><text fill="#000000" font-family="sans-serif" font-size="14" lengthAdjust="spacing" textLength="125" x="362" y="39.9951">LanguageSelector</text></g><!--entity BrowserLocalBackedKVStore--><g id="elem_BrowserLocalBackedKVStore"><rect fill="#F1F1F1" height="46.2969" rx="2.5" ry="2.5" style="stroke:#181818;stroke-width:0.5;" width="239" x="600" y="325"/><rect fill="#F1F1F1" height="10" style="stroke:#181818;stroke-width:0.5;" width="15" x="819" y="330"/><rect fill="#F1F1F1" height="2" style="stroke:#181818;stroke-width:0.5;" width="4" x="817" y="332"/><rect fill="#F1F1F1" height="2" style="stroke:#181818;stroke-width:0.5;" width="4" x="817" y="336"/><text fill="#000000" font-family="sans-serif" font-size="14" lengthAdjust="spacing" textLength="199" x="615" y="357.9951">BrowserLocalBackedKVStore</text></g><!--entity KVStoreBasedConsolePolicy--><g id="elem_KVStoreBasedConsolePolicy"><rect fill="#F1F1F1" height="46.2969" rx="2.5" ry="2.5" style="stroke:#181818;stroke-width:0.5;" width="235" x="120" y="439.5"/><rect fill="#F1F1F1" height="10" style="stroke:#181818;stroke-width:0.5;" width="15" x="335" y="444.5"/><rect fill="#F1F1F1" height="2" style="stroke:#181818;stroke-width:0.5;" width="4" x="333" y="446.5"/><rect fill="#F1F1F1" height="2" style="stroke:#181818;stroke-width:0.5;" width="4" x="333" y="450.5"/><text fill="#000000" font-family="sans-serif" font-size="14" lengthAdjust="spacing" textLength="195" x="135" y="472.4951">KVStoreBasedConsolePolicy</text></g><!--entity ComponentCollector\nfor page resources--><g id="elem_ComponentCollector\nfor page resources"><rect fill="#F1F1F1" height="62.5938" rx="2.5" ry="2.5" style="stroke:#181818;stroke-width:0.5;" width="183" x="390" y="431"/><rect fill="#F1F1F1" height="10" style="stroke:#181818;stroke-width:0.5;" width="15" x="553" y="436"/><rect fill="#F1F1F1" height="2" style="stroke:#181818;stroke-width:0.5;" width="4" x="551" y="438"/><rect fill="#F1F1F1" height="2" style="stroke:#181818;stroke-width:0.5;" width="4" x="551" y="442"/><text fill="#000000" font-family="sans-serif" font-size="14" lengthAdjust="spacing" textLength="143" x="405" y="463.9951">ComponentCollector</text><text fill="#000000" font-family="sans-serif" font-size="14" lengthAdjust="spacing" textLength="131" x="405" y="480.292">for page resources</text></g><!--entity ComponentCollector\nfor conlets--><g id="elem_ComponentCollector\nfor conlets"><rect fill="#F1F1F1" height="62.5938" rx="2.5" ry="2.5" style="stroke:#181818;stroke-width:0.5;" width="183" x="608" y="431"/><rect fill="#F1F1F1" height="10" style="stroke:#181818;stroke-width:0.5;" width="15" x="771" y="436"/><rect fill="#F1F1F1" height="2" style="stroke:#181818;stroke-width:0.5;" width="4" x="769" y="438"/><rect fill="#F1F1F1" height="2" style="stroke:#181818;stroke-width:0.5;" width="4" x="769" y="442"/><text fill="#000000" font-family="sans-serif" font-size="14" lengthAdjust="spacing" textLength="143" x="623" y="463.9951">ComponentCollector</text><text fill="#000000" font-family="sans-serif" font-size="14" lengthAdjust="spacing" textLength="73" x="623" y="480.292">for conlets</text></g><!--reverse link ConsoleApp to SocketServer:8888--><g id="link_ConsoleApp_SocketServer:8888"><path d="M206.4331,59.7129 C179.9531,77.3529 153,95.34 126.54,112.98 " fill="none" id="ConsoleApp-backto-SocketServer:8888" style="stroke:#181818;stroke-width:1.0;"/><polygon fill="#181818" points="216.42,53.06,209.2089,53.0575,206.4331,59.7129,213.6442,59.7154,216.42,53.06" style="stroke:#181818;stroke-width:1.0;"/></g><!--reverse link ConsoleApp to SslCodec--><g id="link_ConsoleApp_SslCodec"><path d="M255.3645,64.8846 C258.4145,82.5246 260.63,95.34 263.69,112.98 " fill="none" id="ConsoleApp-backto-SslCodec" style="stroke:#181818;stroke-width:1.0;"/><polygon fill="#181818" points="253.32,53.06,250.4007,59.6538,255.3645,64.8846,258.2838,58.2908,253.32,53.06" style="stroke:#181818;stroke-width:1.0;"/></g><!--link SocketServer:8888 to SslCodec--><!--reverse link SslCodec to SocketServer:8443--><g id="link_SslCodec_SocketServer:8443"><path d="M266.1878,171.0511 C265.5078,188.6911 265.03,201.34 264.35,218.98 " fill="none" id="SslCodec-backto-SocketServer:8443" style="stroke:#181818;stroke-width:1.0;"/><polygon fill="#181818" points="266.65,159.06,262.4218,164.9015,266.1878,171.0511,270.4159,165.2096,266.65,159.06" style="stroke:#181818;stroke-width:1.0;"/></g><!--reverse link ConsoleApp to HttpServer--><g id="link_ConsoleApp_HttpServer"><path d="M298.062,59.0605 C328.612,76.7005 360.85,95.34 391.38,112.98 " fill="none" id="ConsoleApp-backto-HttpServer" style="stroke:#181818;stroke-width:1.0;"/><polygon fill="#181818" points="287.67,53.06,290.8658,59.5243,298.062,59.0605,294.8662,52.5962,287.67,53.06" style="stroke:#181818;stroke-width:1.0;"/></g><!--link SslCodec to HttpServer--><!--link PreferencesStore to HttpServer--><g id="link_PreferencesStore_HttpServer"><path d="M585.51,53.06 C551.91,70.7 515.6441,89.7607 482.0541,107.4007 " fill="none" id="PreferencesStore-to-HttpServer" style="stroke:#181818;stroke-width:1.0;"/><polygon fill="#181818" points="471.43,112.98,478.6018,113.7317,482.0541,107.4007,474.8823,106.649,471.43,112.98" style="stroke:#181818;stroke-width:1.0;"/></g><!--reverse link HttpServer to InMemorySessionManager--><g id="link_HttpServer_InMemorySessionManager"><path d="M498.2,136 C509.91,136 509.63,136 521.34,136 " fill="none" id="HttpServer-backto-InMemorySessionManager" style="stroke:#181818;stroke-width:1.0;"/><polygon fill="#181818" points="486.2,136,492.2,140,498.2,136,492.2,132,486.2,136" style="stroke:#181818;stroke-width:1.0;"/></g><!--link LanguageSelector to HttpServer--><g id="link_LanguageSelector_HttpServer"><path d="M429.5,53.06 C429.5,70.7 429.5,83.34 429.5,100.98 " fill="none" id="LanguageSelector-to-HttpServer" style="stroke:#181818;stroke-width:1.0;"/><polygon fill="#181818" points="429.5,112.98,433.5,106.98,429.5,100.98,425.5,106.98,429.5,112.98" style="stroke:#181818;stroke-width:1.0;"/></g><!--reverse link VueJsConsoleWeblet to WebConsole--><g id="link_VueJsConsoleWeblet_WebConsole"><path d="M478.1376,277.0461 C478.9876,294.6861 479.59,307.34 480.44,324.98 " fill="none" id="VueJsConsoleWeblet-backto-WebConsole" style="stroke:#181818;stroke-width:1.0;"/><polygon fill="#181818" points="477.56,265.06,473.8534,271.2456,478.1376,277.0461,481.8441,270.8605,477.56,265.06" style="stroke:#181818;stroke-width:1.0;"/></g><!--reverse link HttpServer to VueJsConsoleWeblet--><g id="link_HttpServer_VueJsConsoleWeblet"><path d="M444.4109,169.9956 C452.3809,187.6356 458.57,201.34 466.55,218.98 " fill="none" id="HttpServer-backto-VueJsConsoleWeblet" style="stroke:#181818;stroke-width:1.0;"/><polygon fill="#181818" points="439.47,159.06,438.2952,166.1748,444.4109,169.9956,445.5856,162.8809,439.47,159.06" style="stroke:#181818;stroke-width:1.0;"/></g><!--reverse link WebConsole to BrowserLocalBackedKVStore--><g id="link_WebConsole_BrowserLocalBackedKVStore"><path d="M557.65,348 C575.76,348 581.87,348 599.98,348 " fill="none" id="WebConsole-backto-BrowserLocalBackedKVStore" style="stroke:#181818;stroke-width:1.0;"/><polygon fill="#181818" points="545.65,348,551.65,352,557.65,348,551.65,344,545.65,348" style="stroke:#181818;stroke-width:1.0;"/></g><!--reverse link WebConsole to KVStoreBasedConsolePolicy--><g id="link_WebConsole_KVStoreBasedConsolePolicy"><path d="M422.6834,376.1164 C379.8034,395.8964 328.16,419.7 285.31,439.46 " fill="none" id="WebConsole-backto-KVStoreBasedConsolePolicy" style="stroke:#181818;stroke-width:1.0;"/><polygon fill="#181818" points="433.58,371.09,426.4562,369.971,422.6834,376.1164,429.8072,377.2354,433.58,371.09" style="stroke:#181818;stroke-width:1.0;"/></g><!--reverse link WebConsole to ComponentCollector\nfor page resources--><g id="link_WebConsole_ComponentCollector\nfor page resources"><path d="M481.5,383.23 C481.5,400.26 481.5,411.96 481.5,430.8 " fill="none" id="WebConsole-backto-ComponentCollector\nfor page resources" style="stroke:#181818;stroke-width:1.0;"/><polygon fill="#181818" points="481.5,371.23,477.5,377.23,481.5,383.23,485.5,377.23,481.5,371.23" style="stroke:#181818;stroke-width:1.0;"/></g><!--reverse link WebConsole to ComponentCollector\nfor conlets--><g id="link_WebConsole_ComponentCollector\nfor conlets"><path d="M534.9733,376.594 C568.0833,393.684 603.64,412.03 640.29,430.94 " fill="none" id="WebConsole-backto-ComponentCollector\nfor conlets" style="stroke:#181818;stroke-width:1.0;"/><polygon fill="#181818" points="524.31,371.09,527.807,377.3964,534.9733,376.594,531.4763,370.2875,524.31,371.09" style="stroke:#181818;stroke-width:1.0;"/></g><!--reverse link ComponentCollector\nfor page resources to Some component--><g id="link_ComponentCollector\nfor page resources_Some component"><path d="M482.2598,506.2382 C482.5898,525.1082 482.8,536.83 483.11,553.86 " fill="none" id="ComponentCollector\nfor page resources-backto-Some component" style="stroke:#181818;stroke-width:1.0;"/><polygon fill="#181818" points="482.05,494.24,478.1555,500.309,482.2598,506.2382,486.1543,500.1691,482.05,494.24" style="stroke:#181818;stroke-width:1.0;"/></g><!--reverse link ComponentCollector\nfor conlets to Some component--><g id="link_ComponentCollector\nfor conlets_Some component"><path d="M630.118,499.635 C593.768,518.575 558.58,536.9 525.79,553.98 " fill="none" id="ComponentCollector\nfor conlets-backto-Some component" style="stroke:#181818;stroke-width:1.0;"/><polygon fill="#181818" points="640.76,494.09,633.5906,493.3151,630.118,499.635,637.2873,500.4098,640.76,494.09" style="stroke:#181818;stroke-width:1.0;"/></g><!--SRC=[dLDDRu904BtpAoOUct2gXwQtogKVsfYGs0Fri2uZ4fQTpUwYCKt_UmU1LXHZMquiyzxRDsy6L-JQ22jAC48M8iFOxnM2HUc5pXG6440IaNQayC6O9To48IGnoG9zZ7QBzlwEdsK0cZp2Yhod4cWzZ05WAStQ3kg39tX5loDR180wFKXSkD2fY5AKh34W366ooTCKzTBcsSQVuhlt8U_ZyUrLxmtctzuVlJUDLD_DcUa-yEZ4EfLXmDpY6YrgYIxsPF4SraazwHcMPFSnEfUJdWdDexqaE-L9L_NeKN5xLCE2RXrWnFr8DBuI2jvmrNOtWeywX6HHuRDhlt5LeM-R_e6oskVPlIdjT3X8FsHun3vgQc9fvz1EIGerONkOlYo-S-XJ6DtM9i9XsbRcf7Av7qH7L1hIg7r4gadXNQ_9SWnP_JSugYod_YUg9CqDkNwQSqlRF4NhGF3IH0saIpEc4fdMoZN11R_srgttYSPLVuEyBm00]--></g></svg>