<?xml version="1.0" encoding="UTF-8" standalone="no"?><svg xmlns="http://www.w3.org/2000/svg" xmlns:xlink="http://www.w3.org/1999/xlink" contentScriptType="application/ecmascript" contentStyleType="text/css" height="623px" preserveAspectRatio="none" style="width:851px;height:623px;background:#FFFFFF;" version="1.1" viewBox="0 0 851 623" width="851px" zoomAndPan="magnify"><defs><filter height="300%" id="f1udnofb9jk2c" width="300%" x="-1" y="-1"><feGaussianBlur result="blurOut" stdDeviation="2.0"/><feColorMatrix in="blurOut" result="blurOut2" type="matrix" values="0 0 0 0 0 0 0 0 0 0 0 0 0 0 0 0 0 0 .4 0"/><feOffset dx="4.0" dy="4.0" in="blurOut2" result="blurOut3"/><feBlend in="SourceGraphic" in2="blurOut3" mode="normal"/></filter></defs><g><!--MD5=[364163326c8f855cbda5f70a308d1fe4]
cluster Conceptual WebConsole--><polygon fill="#FFFFFF" filter="url(#f1udnofb9jk2c)" points="368.5,184,567.5,184,574.5,206.2969,584.5,206.2969,584.5,387,368.5,387,368.5,184" style="stroke:#000000;stroke-width:1.5;"/><line style="stroke:#000000;stroke-width:1.5;" x1="368.5" x2="574.5" y1="206.2969" y2="206.2969"/><text fill="#000000" font-family="sans-serif" font-size="14" font-weight="bold" lengthAdjust="spacing" textLength="193" x="372.5" y="198.9951">Conceptual WebConsole</text><!--MD5=[d55425e33cf64d350045484e29baf1f9]
cluster Providers and Conlets--><polygon fill="#FFFFFF" filter="url(#f1udnofb9jk2c)" points="385.5,519,566.5,519,573.5,541.2969,581.5,541.2969,581.5,616,385.5,616,385.5,519" style="stroke:#000000;stroke-width:1.5;"/><line style="stroke:#000000;stroke-width:1.5;" x1="385.5" x2="573.5" y1="541.2969" y2="541.2969"/><text fill="#000000" font-family="sans-serif" font-size="14" font-weight="bold" lengthAdjust="spacing" textLength="175" x="389.5" y="533.9951">Providers and Conlets</text><!--MD5=[3ecf32833c8150df8285e382460dbad2]
entity VueJsConsoleWeblet--><rect fill="#FEFECE" filter="url(#f1udnofb9jk2c)" height="46.2969" style="stroke:#A80036;stroke-width:1.5;" width="183" x="385" y="219"/><rect fill="#FEFECE" height="10" style="stroke:#A80036;stroke-width:1.5;" width="15" x="548" y="224"/><rect fill="#FEFECE" height="2" style="stroke:#A80036;stroke-width:1.5;" width="4" x="546" y="226"/><rect fill="#FEFECE" height="2" style="stroke:#A80036;stroke-width:1.5;" width="4" x="546" y="230"/><text fill="#000000" font-family="sans-serif" font-size="14" lengthAdjust="spacing" textLength="143" x="400" y="251.9951">VueJsConsoleWeblet</text><!--MD5=[c1b400c57cd0712989508586cb99b6c6]
entity WebConsole--><rect fill="#FEFECE" filter="url(#f1udnofb9jk2c)" height="46.2969" style="stroke:#A80036;stroke-width:1.5;" width="128" x="417.5" y="325"/><rect fill="#FEFECE" height="10" style="stroke:#A80036;stroke-width:1.5;" width="15" x="525.5" y="330"/><rect fill="#FEFECE" height="2" style="stroke:#A80036;stroke-width:1.5;" width="4" x="523.5" y="332"/><rect fill="#FEFECE" height="2" style="stroke:#A80036;stroke-width:1.5;" width="4" x="523.5" y="336"/><text fill="#000000" font-family="sans-serif" font-size="14" lengthAdjust="spacing" textLength="88" x="432.5" y="357.9951">WebConsole</text><!--MD5=[a305d5e0a6fd2c8641dc01b5104fa416]
entity Some component--><rect fill="#FEFECE" filter="url(#f1udnofb9jk2c)" height="46.2969" style="stroke:#A80036;stroke-width:1.5;" width="164" x="401.5" y="554"/><rect fill="#FEFECE" height="10" style="stroke:#A80036;stroke-width:1.5;" width="15" x="545.5" y="559"/><rect fill="#FEFECE" height="2" style="stroke:#A80036;stroke-width:1.5;" width="4" x="543.5" y="561"/><rect fill="#FEFECE" height="2" style="stroke:#A80036;stroke-width:1.5;" width="4" x="543.5" y="565"/><text fill="#000000" font-family="sans-serif" font-size="14" lengthAdjust="spacing" textLength="124" x="416.5" y="586.9951">Some component</text><!--MD5=[be14b843366d59eaa6e00cba2e43864a]
entity ConsoleApp--><rect fill="#FEFECE" filter="url(#f1udnofb9jk2c)" height="46.2969" style="stroke:#A80036;stroke-width:1.5;" width="124" x="187.5" y="7"/><rect fill="#FEFECE" height="10" style="stroke:#A80036;stroke-width:1.5;" width="15" x="291.5" y="12"/><rect fill="#FEFECE" height="2" style="stroke:#A80036;stroke-width:1.5;" width="4" x="289.5" y="14"/><rect fill="#FEFECE" height="2" style="stroke:#A80036;stroke-width:1.5;" width="4" x="289.5" y="18"/><text fill="#000000" font-family="sans-serif" font-size="14" lengthAdjust="spacing" textLength="84" x="202.5" y="39.9951">ConsoleApp</text><!--MD5=[8e4d2ed3309e7c77f4b90b254bbfb14c]
entity SocketServer:8888--><rect fill="#FEFECE" filter="url(#f1udnofb9jk2c)" height="46.2969" style="stroke:#A80036;stroke-width:1.5;" width="173" x="7" y="113"/><rect fill="#FEFECE" height="10" style="stroke:#A80036;stroke-width:1.5;" width="15" x="160" y="118"/><rect fill="#FEFECE" height="2" style="stroke:#A80036;stroke-width:1.5;" width="4" x="158" y="120"/><rect fill="#FEFECE" height="2" style="stroke:#A80036;stroke-width:1.5;" width="4" x="158" y="124"/><text fill="#000000" font-family="sans-serif" font-size="14" lengthAdjust="spacing" textLength="133" x="22" y="145.9951">SocketServer:8888</text><path d="M48.5,222 L48.5,262.2656 A0,0 0 0 0 48.5,262.2656 L138.5,262.2656 A0,0 0 0 0 138.5,262.2656 L138.5,232 L128.5,222 L97.5,222 L93.5,159.06 L89.5,222 L48.5,222 A0,0 0 0 0 48.5,222 " fill="#FBFB77" filter="url(#f1udnofb9jk2c)" style="stroke:#A80036;stroke-width:1.0;"/><path d="M128.5,222 L128.5,232 L138.5,232 L128.5,222 " fill="#FBFB77" style="stroke:#A80036;stroke-width:1.0;"/><text fill="#000000" font-family="sans-serif" font-size="13" lengthAdjust="spacing" textLength="60" x="54.5" y="239.0669">Connects</text><text fill="#000000" font-family="sans-serif" font-size="13" lengthAdjust="spacing" textLength="69" x="54.5" y="254.1997">to Network</text><!--MD5=[d106313768c2bc1674cee756c1132cfe]
entity SslCodec--><rect fill="#FEFECE" filter="url(#f1udnofb9jk2c)" height="46.2969" style="stroke:#A80036;stroke-width:1.5;" width="105" x="215" y="113"/><rect fill="#FEFECE" height="10" style="stroke:#A80036;stroke-width:1.5;" width="15" x="300" y="118"/><rect fill="#FEFECE" height="2" style="stroke:#A80036;stroke-width:1.5;" width="4" x="298" y="120"/><rect fill="#FEFECE" height="2" style="stroke:#A80036;stroke-width:1.5;" width="4" x="298" y="124"/><text fill="#000000" font-family="sans-serif" font-size="14" lengthAdjust="spacing" textLength="65" x="230" y="145.9951">SslCodec</text><!--MD5=[026e8bd30aac33de62d1a1e49b25042f]
entity SocketServer:8443--><rect fill="#FEFECE" filter="url(#f1udnofb9jk2c)" height="46.2969" style="stroke:#A80036;stroke-width:1.5;" width="173" x="177" y="219"/><rect fill="#FEFECE" height="10" style="stroke:#A80036;stroke-width:1.5;" width="15" x="330" y="224"/><rect fill="#FEFECE" height="2" style="stroke:#A80036;stroke-width:1.5;" width="4" x="328" y="226"/><rect fill="#FEFECE" height="2" style="stroke:#A80036;stroke-width:1.5;" width="4" x="328" y="230"/><text fill="#000000" font-family="sans-serif" font-size="14" lengthAdjust="spacing" textLength="133" x="192" y="251.9951">SocketServer:8443</text><path d="M218.5,328 L218.5,368.2656 A0,0 0 0 0 218.5,368.2656 L308.5,368.2656 A0,0 0 0 0 308.5,368.2656 L308.5,338 L298.5,328 L267.5,328 L263.5,265.06 L259.5,328 L218.5,328 A0,0 0 0 0 218.5,328 " fill="#FBFB77" filter="url(#f1udnofb9jk2c)" style="stroke:#A80036;stroke-width:1.0;"/><path d="M298.5,328 L298.5,338 L308.5,338 L298.5,328 " fill="#FBFB77" style="stroke:#A80036;stroke-width:1.0;"/><text fill="#000000" font-family="sans-serif" font-size="13" lengthAdjust="spacing" textLength="60" x="224.5" y="345.0669">Connects</text><text fill="#000000" font-family="sans-serif" font-size="13" lengthAdjust="spacing" textLength="69" x="224.5" y="360.1997">to Network</text><!--MD5=[8069bb0b0b740f5dad9f68e6440d8cc6]
entity HttpServer--><rect fill="#FEFECE" filter="url(#f1udnofb9jk2c)" height="46.2969" style="stroke:#A80036;stroke-width:1.5;" width="113" x="373" y="113"/><rect fill="#FEFECE" height="10" style="stroke:#A80036;stroke-width:1.5;" width="15" x="466" y="118"/><rect fill="#FEFECE" height="2" style="stroke:#A80036;stroke-width:1.5;" width="4" x="464" y="120"/><rect fill="#FEFECE" height="2" style="stroke:#A80036;stroke-width:1.5;" width="4" x="464" y="124"/><text fill="#000000" font-family="sans-serif" font-size="14" lengthAdjust="spacing" textLength="73" x="388" y="145.9951">HttpServer</text><!--MD5=[f087d2955060935a8953b0cebff0185c]
entity PreferencesStore--><rect fill="#FEFECE" filter="url(#f1udnofb9jk2c)" height="46.2969" style="stroke:#A80036;stroke-width:1.5;" width="161" x="547" y="7"/><rect fill="#FEFECE" height="10" style="stroke:#A80036;stroke-width:1.5;" width="15" x="688" y="12"/><rect fill="#FEFECE" height="2" style="stroke:#A80036;stroke-width:1.5;" width="4" x="686" y="14"/><rect fill="#FEFECE" height="2" style="stroke:#A80036;stroke-width:1.5;" width="4" x="686" y="18"/><text fill="#000000" font-family="sans-serif" font-size="14" lengthAdjust="spacing" textLength="121" x="562" y="39.9951">PreferencesStore</text><!--MD5=[9dee2ce9a30916c3df7132dc272951e1]
entity InMemorySessionManager--><rect fill="#FEFECE" filter="url(#f1udnofb9jk2c)" height="46.2969" style="stroke:#A80036;stroke-width:1.5;" width="222" x="521.5" y="113"/><rect fill="#FEFECE" height="10" style="stroke:#A80036;stroke-width:1.5;" width="15" x="723.5" y="118"/><rect fill="#FEFECE" height="2" style="stroke:#A80036;stroke-width:1.5;" width="4" x="721.5" y="120"/><rect fill="#FEFECE" height="2" style="stroke:#A80036;stroke-width:1.5;" width="4" x="721.5" y="124"/><text fill="#000000" font-family="sans-serif" font-size="14" lengthAdjust="spacing" textLength="182" x="536.5" y="145.9951">InMemorySessionManager</text><!--MD5=[a2e25e94ef8b5cfbb1ef47082faf6052]
entity LanguageSelector--><rect fill="#FEFECE" filter="url(#f1udnofb9jk2c)" height="46.2969" style="stroke:#A80036;stroke-width:1.5;" width="165" x="347" y="7"/><rect fill="#FEFECE" height="10" style="stroke:#A80036;stroke-width:1.5;" width="15" x="492" y="12"/><rect fill="#FEFECE" height="2" style="stroke:#A80036;stroke-width:1.5;" width="4" x="490" y="14"/><rect fill="#FEFECE" height="2" style="stroke:#A80036;stroke-width:1.5;" width="4" x="490" y="18"/><text fill="#000000" font-family="sans-serif" font-size="14" lengthAdjust="spacing" textLength="125" x="362" y="39.9951">LanguageSelector</text><!--MD5=[59f32b681f103c4c862db0a580635b60]
entity BrowserLocalBackedKVStore--><rect fill="#FEFECE" filter="url(#f1udnofb9jk2c)" height="46.2969" style="stroke:#A80036;stroke-width:1.5;" width="239" x="600" y="325"/><rect fill="#FEFECE" height="10" style="stroke:#A80036;stroke-width:1.5;" width="15" x="819" y="330"/><rect fill="#FEFECE" height="2" style="stroke:#A80036;stroke-width:1.5;" width="4" x="817" y="332"/><rect fill="#FEFECE" height="2" style="stroke:#A80036;stroke-width:1.5;" width="4" x="817" y="336"/><text fill="#000000" font-family="sans-serif" font-size="14" lengthAdjust="spacing" textLength="199" x="615" y="357.9951">BrowserLocalBackedKVStore</text><!--MD5=[f6475cc587f3fdc4a24d66caf86ba1d9]
entity KVStoreBasedConsolePolicy--><rect fill="#FEFECE" filter="url(#f1udnofb9jk2c)" height="46.2969" style="stroke:#A80036;stroke-width:1.5;" width="235" x="120" y="439.5"/><rect fill="#FEFECE" height="10" style="stroke:#A80036;stroke-width:1.5;" width="15" x="335" y="444.5"/><rect fill="#FEFECE" height="2" style="stroke:#A80036;stroke-width:1.5;" width="4" x="333" y="446.5"/><rect fill="#FEFECE" height="2" style="stroke:#A80036;stroke-width:1.5;" width="4" x="333" y="450.5"/><text fill="#000000" font-family="sans-serif" font-size="14" lengthAdjust="spacing" textLength="195" x="135" y="472.4951">KVStoreBasedConsolePolicy</text><!--MD5=[42be2249372ac2184192f5706416384f]
entity ComponentCollector\nfor page resources--><rect fill="#FEFECE" filter="url(#f1udnofb9jk2c)" height="62.5938" style="stroke:#A80036;stroke-width:1.5;" width="183" x="390" y="431"/><rect fill="#FEFECE" height="10" style="stroke:#A80036;stroke-width:1.5;" width="15" x="553" y="436"/><rect fill="#FEFECE" height="2" style="stroke:#A80036;stroke-width:1.5;" width="4" x="551" y="438"/><rect fill="#FEFECE" height="2" style="stroke:#A80036;stroke-width:1.5;" width="4" x="551" y="442"/><text fill="#000000" font-family="sans-serif" font-size="14" lengthAdjust="spacing" textLength="143" x="405" y="463.9951">ComponentCollector</text><text fill="#000000" font-family="sans-serif" font-size="14" lengthAdjust="spacing" textLength="131" x="405" y="480.292">for page resources</text><!--MD5=[1abcc0df8a21cf1aa6f8dd61c4c03f1a]
entity ComponentCollector\nfor conlets--><rect fill="#FEFECE" filter="url(#f1udnofb9jk2c)" height="62.5938" style="stroke:#A80036;stroke-width:1.5;" width="183" x="608" y="431"/><rect fill="#FEFECE" height="10" style="stroke:#A80036;stroke-width:1.5;" width="15" x="771" y="436"/><rect fill="#FEFECE" height="2" style="stroke:#A80036;stroke-width:1.5;" width="4" x="769" y="438"/><rect fill="#FEFECE" height="2" style="stroke:#A80036;stroke-width:1.5;" width="4" x="769" y="442"/><text fill="#000000" font-family="sans-serif" font-size="14" lengthAdjust="spacing" textLength="143" x="623" y="463.9951">ComponentCollector</text><text fill="#000000" font-family="sans-serif" font-size="14" lengthAdjust="spacing" textLength="73" x="623" y="480.292">for conlets</text><!--MD5=[b906ee2b4920fe179aba44c641140ad3]
reverse link ConsoleApp to SocketServer:8888--><path d="M205.36,60.42 C180.31,77.12 149.48,97.68 126.54,112.98 " fill="none" id="ConsoleApp-backto-SocketServer:8888" style="stroke:#A80036;stroke-width:1.0;"/><polygon fill="#A80036" points="216.42,53.06,209.2089,53.0556,206.4313,59.7103,213.6424,59.7147,216.42,53.06" style="stroke:#A80036;stroke-width:1.0;"/><!--MD5=[1c6f980a43c32104e502e5cb5b031dbb]
reverse link ConsoleApp to SslCodec--><path d="M255.55,65.96 C258.24,81.51 261.33,99.33 263.69,112.98 " fill="none" id="ConsoleApp-backto-SslCodec" style="stroke:#A80036;stroke-width:1.0;"/><polygon fill="#A80036" points="253.32,53.06,250.4001,59.6535,255.3633,64.8848,258.2832,58.2913,253.32,53.06" style="stroke:#A80036;stroke-width:1.0;"/><!--MD5=[1f53b283876b5a3fe26f0ce4465dc0d8]
link SocketServer:8888 to SslCodec--><!--MD5=[e7e72e2b947bcc3f00a5bfb3a2e702d8]
reverse link SslCodec to SocketServer:8443--><path d="M266.14,172.44 C265.54,187.87 264.87,205.47 264.35,218.98 " fill="none" id="SslCodec-backto-SocketServer:8443" style="stroke:#A80036;stroke-width:1.0;"/><polygon fill="#A80036" points="266.65,159.06,262.4221,164.9017,266.1883,171.0511,270.4162,165.2095,266.65,159.06" style="stroke:#A80036;stroke-width:1.0;"/><!--MD5=[d9d30a74ce0efc7c118c4d74437d41d6]
reverse link ConsoleApp to HttpServer--><path d="M299.26,59.75 C328.37,76.57 364.55,97.47 391.38,112.98 " fill="none" id="ConsoleApp-backto-HttpServer" style="stroke:#A80036;stroke-width:1.0;"/><polygon fill="#A80036" points="287.67,53.06,290.8597,59.5273,298.0563,59.0704,294.8666,52.6031,287.67,53.06" style="stroke:#A80036;stroke-width:1.0;"/><!--MD5=[b04b66adb5a6e87501d71bf6425919a6]
link SslCodec to HttpServer--><!--MD5=[08f36f855f64ac7b86bc3eff8c27ee43]
link PreferencesStore to HttpServer--><path d="M585.51,53.06 C555.71,68.71 515.47,89.84 483.32,106.73 " fill="none" id="PreferencesStore-to-HttpServer" style="stroke:#A80036;stroke-width:1.0;"/><polygon fill="#A80036" points="471.43,112.98,478.6016,113.7336,482.0556,107.4035,474.884,106.6499,471.43,112.98" style="stroke:#A80036;stroke-width:1.0;"/><!--MD5=[6132d148a491c307c33fad60216edbd9]
reverse link HttpServer to InMemorySessionManager--><path d="M499.38,136 C506.7,136 514.02,136 521.34,136 " fill="none" id="HttpServer-backto-InMemorySessionManager" style="stroke:#A80036;stroke-width:1.0;"/><polygon fill="#A80036" points="486.2,136,492.2,140,498.2,136,492.2,132,486.2,136" style="stroke:#A80036;stroke-width:1.0;"/><!--MD5=[d725e07c95b710679f2b1a7089c79a36]
link LanguageSelector to HttpServer--><path d="M429.5,53.06 C429.5,66.57 429.5,84.17 429.5,99.6 " fill="none" id="LanguageSelector-to-HttpServer" style="stroke:#A80036;stroke-width:1.0;"/><polygon fill="#A80036" points="429.5,112.98,433.5,106.98,429.5,100.98,425.5,106.98,429.5,112.98" style="stroke:#A80036;stroke-width:1.0;"/><!--MD5=[efd2165cc700fa694b69b4bef19b0671]
reverse link VueJsConsoleWeblet to WebConsole--><path d="M478.2,278.44 C478.95,293.87 479.79,311.47 480.44,324.98 " fill="none" id="VueJsConsoleWeblet-backto-WebConsole" style="stroke:#A80036;stroke-width:1.0;"/><polygon fill="#A80036" points="477.56,265.06,473.8548,271.2464,478.1402,277.046,481.8454,270.8596,477.56,265.06" style="stroke:#A80036;stroke-width:1.0;"/><!--MD5=[225406a4163ed7e2f7e4eea3b43e8269]
reverse link HttpServer to VueJsConsoleWeblet--><path d="M444.88,171.03 C452,186.78 460.26,205.06 466.55,218.98 " fill="none" id="HttpServer-backto-VueJsConsoleWeblet" style="stroke:#A80036;stroke-width:1.0;"/><polygon fill="#A80036" points="439.47,159.06,438.2952,166.1748,444.4108,169.9956,445.5856,162.8809,439.47,159.06" style="stroke:#A80036;stroke-width:1.0;"/><!--MD5=[c676fa081ce810ba1c2d60cd469f5368]
reverse link WebConsole to BrowserLocalBackedKVStore--><path d="M558.81,348 C572.53,348 586.25,348 599.98,348 " fill="none" id="WebConsole-backto-BrowserLocalBackedKVStore" style="stroke:#A80036;stroke-width:1.0;"/><polygon fill="#A80036" points="545.65,348,551.65,352,557.65,348,551.65,344,545.65,348" style="stroke:#A80036;stroke-width:1.0;"/><!--MD5=[1c33891044def35f58a7d6c666931489]
reverse link WebConsole to KVStoreBasedConsolePolicy--><path d="M421.58,376.63 C379.62,395.97 324.31,421.48 285.31,439.46 " fill="none" id="WebConsole-backto-KVStoreBasedConsolePolicy" style="stroke:#A80036;stroke-width:1.0;"/><polygon fill="#A80036" points="433.58,371.09,426.4568,369.9676,422.681,376.1112,429.8042,377.2336,433.58,371.09" style="stroke:#A80036;stroke-width:1.0;"/><!--MD5=[f4ec03cb7f3bc0b3554f8af3aede9acc]
reverse link WebConsole to ComponentCollector\nfor page resources--><path d="M481.5,384.61 C481.5,399.45 481.5,416.52 481.5,430.8 " fill="none" id="WebConsole-backto-ComponentCollector\nfor page resources" style="stroke:#A80036;stroke-width:1.0;"/><polygon fill="#A80036" points="481.5,371.23,477.5,377.23,481.5,383.23,485.5,377.23,481.5,371.23" style="stroke:#A80036;stroke-width:1.0;"/><!--MD5=[9713adbaedfea71ef9b61ad7381ee6de]
reverse link WebConsole to ComponentCollector\nfor conlets--><path d="M536.03,377.14 C567.77,393.52 607.79,414.17 640.29,430.94 " fill="none" id="WebConsole-backto-ComponentCollector\nfor conlets" style="stroke:#A80036;stroke-width:1.0;"/><polygon fill="#A80036" points="524.31,371.09,527.8105,377.3945,534.9764,376.588,531.4759,370.2835,524.31,371.09" style="stroke:#A80036;stroke-width:1.0;"/><!--MD5=[f176c012da5b101e4a3671c620b06e55]
reverse link ComponentCollector\nfor page resources to Some component--><path d="M482.29,507.68 C482.57,523.51 482.87,540.69 483.11,553.86 " fill="none" id="ComponentCollector\nfor page resources-backto-Some component" style="stroke:#A80036;stroke-width:1.0;"/><polygon fill="#A80036" points="482.05,494.24,478.1561,500.3094,482.261,506.2381,486.1549,500.1688,482.05,494.24" style="stroke:#A80036;stroke-width:1.0;"/><!--MD5=[05614f9cacf5a48bb00a193a4cef016b]
reverse link ComponentCollector\nfor conlets to Some component--><path d="M628.97,500.23 C594.89,517.99 555.12,538.7 525.79,553.98 " fill="none" id="ComponentCollector\nfor conlets-backto-Some component" style="stroke:#A80036;stroke-width:1.0;"/><polygon fill="#A80036" points="640.76,494.09,633.591,493.3118,630.1153,499.63,637.2843,500.4082,640.76,494.09" style="stroke:#A80036;stroke-width:1.0;"/><!--MD5=[6ac0c492bcc3af974eb2ce8582031937]
@startuml
[ConsoleApp] *- - [SocketServer:8888]
 note bottom of [SocketServer:8888]
   Connects 
   to Network
 end note
 
 [ConsoleApp] *- - [SslCodec]
 [SocketServer:8888] -[hidden]right- [SslCodec]
 [SslCodec] *- - [SocketServer:8443]
 note bottom of [SocketServer:8443]
   Connects 
   to Network
 end note
 
 [ConsoleApp] *- - [HttpServer]
 [SslCodec] -[hidden]right- [HttpServer]
 [HttpServer] *-up- [PreferencesStore]
 [HttpServer] *-right- [InMemorySessionManager]
 [HttpServer] *-up- [LanguageSelector]
 
 package "Conceptual WebConsole" {
   [VueJsConsoleWeblet] *- - [WebConsole]
 }
 [HttpServer] *-down- [VueJsConsoleWeblet]
 
 [WebConsole] *-right- [BrowserLocalBackedKVStore]
 [WebConsole] *- - [KVStoreBasedConsolePolicy]
 [WebConsole] *- - [ComponentCollector\nfor page resources]
 [WebConsole] *- - [ComponentCollector\nfor conlets]
 
 package "Providers and Conlets" {
   [Some component]
 }
 
 [ComponentCollector\nfor page resources] *- - [Some component]
 [ComponentCollector\nfor conlets] *- - [Some component]
@enduml

PlantUML version 1.2022.1(Tue Feb 01 18:19:58 UTC 2022)
(GPL source distribution)
Java Runtime: OpenJDK Runtime Environment
JVM: OpenJDK 64-Bit Server VM
Default Encoding: UTF-8
Language: en
Country: 
--></g></svg>