<?xml version="1.0" encoding="us-ascii" standalone="no"?><svg xmlns="http://www.w3.org/2000/svg" xmlns:xlink="http://www.w3.org/1999/xlink" contentStyleType="text/css" height="589px" preserveAspectRatio="none" style="width:994px;height:589px;background:#FFFFFF;" version="1.1" viewBox="0 0 994 589" width="994px" zoomAndPan="magnify"><defs/><g><!--cluster Conceptual WebConsole--><g id="cluster_Conceptual WebConsole"><path d="M448.5,290 L642.5,290 A3.75,3.75 0 0 1 645,292.5 L652,312.2969 L659.5,312.2969 A2.5,2.5 0 0 1 662,314.7969 L662,490.5 A2.5,2.5 0 0 1 659.5,493 L448.5,493 A2.5,2.5 0 0 1 446,490.5 L446,292.5 A2.5,2.5 0 0 1 448.5,290 " fill="none" style="stroke:#000000;stroke-width:1.5;"/><line style="stroke:#000000;stroke-width:1.5;" x1="446" x2="652" y1="312.2969" y2="312.2969"/><text fill="#000000" font-family="sans-serif" font-size="14" font-weight="bold" lengthAdjust="spacing" textLength="193" x="450" y="304.9951">Conceptual WebConsole</text></g><!--cluster Providers and Conlets--><g id="cluster_Providers and Conlets"><path d="M688.5,290 L864.5,290 A3.75,3.75 0 0 1 867,292.5 L874,312.2969 L879.5,312.2969 A2.5,2.5 0 0 1 882,314.7969 L882,384.5 A2.5,2.5 0 0 1 879.5,387 L688.5,387 A2.5,2.5 0 0 1 686,384.5 L686,292.5 A2.5,2.5 0 0 1 688.5,290 " fill="none" style="stroke:#000000;stroke-width:1.5;"/><line style="stroke:#000000;stroke-width:1.5;" x1="686" x2="874" y1="312.2969" y2="312.2969"/><text fill="#000000" font-family="sans-serif" font-size="14" font-weight="bold" lengthAdjust="spacing" textLength="175" x="690" y="304.9951">Providers and Conlets</text></g><!--entity VueJsConsoleWeblet--><g id="elem_VueJsConsoleWeblet"><rect fill="#F1F1F1" height="46.2969" rx="2.5" ry="2.5" style="stroke:#181818;stroke-width:0.5;" width="183" x="462.5" y="325"/><rect fill="#F1F1F1" height="10" style="stroke:#181818;stroke-width:0.5;" width="15" x="625.5" y="330"/><rect fill="#F1F1F1" height="2" style="stroke:#181818;stroke-width:0.5;" width="4" x="623.5" y="332"/><rect fill="#F1F1F1" height="2" style="stroke:#181818;stroke-width:0.5;" width="4" x="623.5" y="336"/><text fill="#000000" font-family="sans-serif" font-size="14" lengthAdjust="spacing" textLength="143" x="477.5" y="357.9951">VueJsConsoleWeblet</text></g><!--entity WebConsole--><g id="elem_WebConsole"><rect fill="#F1F1F1" height="46.2969" rx="2.5" ry="2.5" style="stroke:#181818;stroke-width:0.5;" width="128" x="504" y="431"/><rect fill="#F1F1F1" height="10" style="stroke:#181818;stroke-width:0.5;" width="15" x="612" y="436"/><rect fill="#F1F1F1" height="2" style="stroke:#181818;stroke-width:0.5;" width="4" x="610" y="438"/><rect fill="#F1F1F1" height="2" style="stroke:#181818;stroke-width:0.5;" width="4" x="610" y="442"/><text fill="#000000" font-family="sans-serif" font-size="14" lengthAdjust="spacing" textLength="88" x="519" y="463.9951">WebConsole</text></g><!--entity Some component--><g id="elem_Some component"><rect fill="#F1F1F1" height="46.2969" rx="2.5" ry="2.5" style="stroke:#181818;stroke-width:0.5;" width="164" x="702" y="325"/><rect fill="#F1F1F1" height="10" style="stroke:#181818;stroke-width:0.5;" width="15" x="846" y="330"/><rect fill="#F1F1F1" height="2" style="stroke:#181818;stroke-width:0.5;" width="4" x="844" y="332"/><rect fill="#F1F1F1" height="2" style="stroke:#181818;stroke-width:0.5;" width="4" x="844" y="336"/><text fill="#000000" font-family="sans-serif" font-size="14" lengthAdjust="spacing" textLength="124" x="717" y="357.9951">Some component</text></g><!--entity hT--><g id="elem_hT"><ellipse cx="347" cy="136" fill="#F1F1F1" rx="8" ry="8" style="stroke:#181818;stroke-width:0.5;"/><text fill="#000000" font-family="sans-serif" font-size="14" lengthAdjust="spacing" textLength="95" x="299.5" y="165.9951">httpTransport</text></g><!--entity SocketServer:8888--><g id="elem_SocketServer:8888"><rect fill="#F1F1F1" height="46.2969" rx="2.5" ry="2.5" style="stroke:#181818;stroke-width:0.5;" width="173" x="260.5" y="7"/><rect fill="#F1F1F1" height="10" style="stroke:#181818;stroke-width:0.5;" width="15" x="413.5" y="12"/><rect fill="#F1F1F1" height="2" style="stroke:#181818;stroke-width:0.5;" width="4" x="411.5" y="14"/><rect fill="#F1F1F1" height="2" style="stroke:#181818;stroke-width:0.5;" width="4" x="411.5" y="18"/><text fill="#000000" font-family="sans-serif" font-size="14" lengthAdjust="spacing" textLength="133" x="275.5" y="39.9951">SocketServer:8888</text></g><g id="elem_GMN6"><path d="M469,10 L469,26 L433.76,30 L469,34 L469,50.2656 A0,0 0 0 0 469,50.2656 L559,50.2656 A0,0 0 0 0 559,50.2656 L559,20 L549,10 L469,10 A0,0 0 0 0 469,10 " fill="#FEFFDD" style="stroke:#181818;stroke-width:0.5;"/><path d="M549,10 L549,20 L559,20 L549,10 " fill="#FEFFDD" style="stroke:#181818;stroke-width:0.5;"/><text fill="#000000" font-family="sans-serif" font-size="13" lengthAdjust="spacing" textLength="60" x="475" y="27.0669">Connects</text><text fill="#000000" font-family="sans-serif" font-size="13" lengthAdjust="spacing" textLength="69" x="475" y="42.1997">to Network</text></g><!--entity SslCodec--><g id="elem_SslCodec"><rect fill="#F1F1F1" height="46.2969" rx="2.5" ry="2.5" style="stroke:#181818;stroke-width:0.5;" width="105" x="391.5" y="113"/><rect fill="#F1F1F1" height="10" style="stroke:#181818;stroke-width:0.5;" width="15" x="476.5" y="118"/><rect fill="#F1F1F1" height="2" style="stroke:#181818;stroke-width:0.5;" width="4" x="474.5" y="120"/><rect fill="#F1F1F1" height="2" style="stroke:#181818;stroke-width:0.5;" width="4" x="474.5" y="124"/><text fill="#000000" font-family="sans-serif" font-size="14" lengthAdjust="spacing" textLength="65" x="406.5" y="145.9951">SslCodec</text></g><!--entity sC--><g id="elem_sC"><ellipse cx="541" cy="136" fill="#F1F1F1" rx="8" ry="8" style="stroke:#181818;stroke-width:0.5;"/><text fill="#000000" font-family="sans-serif" font-size="14" lengthAdjust="spacing" textLength="114" x="484" y="165.9951">securedChannel</text></g><!--entity SocketServer:8443--><g id="elem_SocketServer:8443"><rect fill="#F1F1F1" height="46.2969" rx="2.5" ry="2.5" style="stroke:#181818;stroke-width:0.5;" width="173" x="585.5" y="113"/><rect fill="#F1F1F1" height="10" style="stroke:#181818;stroke-width:0.5;" width="15" x="738.5" y="118"/><rect fill="#F1F1F1" height="2" style="stroke:#181818;stroke-width:0.5;" width="4" x="736.5" y="120"/><rect fill="#F1F1F1" height="2" style="stroke:#181818;stroke-width:0.5;" width="4" x="736.5" y="124"/><text fill="#000000" font-family="sans-serif" font-size="14" lengthAdjust="spacing" textLength="133" x="600.5" y="145.9951">SocketServer:8443</text></g><g id="elem_GMN16"><path d="M794,116 L794,132 L758.76,136 L794,140 L794,156.2656 A0,0 0 0 0 794,156.2656 L884,156.2656 A0,0 0 0 0 884,156.2656 L884,126 L874,116 L794,116 A0,0 0 0 0 794,116 " fill="#FEFFDD" style="stroke:#181818;stroke-width:0.5;"/><path d="M874,116 L874,126 L884,126 L874,116 " fill="#FEFFDD" style="stroke:#181818;stroke-width:0.5;"/><text fill="#000000" font-family="sans-serif" font-size="13" lengthAdjust="spacing" textLength="60" x="800" y="133.0669">Connects</text><text fill="#000000" font-family="sans-serif" font-size="13" lengthAdjust="spacing" textLength="69" x="800" y="148.1997">to Network</text></g><!--entity HttpServer--><g id="elem_HttpServer"><rect fill="#F1F1F1" height="46.2969" rx="2.5" ry="2.5" style="stroke:#181818;stroke-width:0.5;" width="113" x="290.5" y="219"/><rect fill="#F1F1F1" height="10" style="stroke:#181818;stroke-width:0.5;" width="15" x="383.5" y="224"/><rect fill="#F1F1F1" height="2" style="stroke:#181818;stroke-width:0.5;" width="4" x="381.5" y="226"/><rect fill="#F1F1F1" height="2" style="stroke:#181818;stroke-width:0.5;" width="4" x="381.5" y="230"/><text fill="#000000" font-family="sans-serif" font-size="14" lengthAdjust="spacing" textLength="73" x="305.5" y="251.9951">HttpServer</text></g><!--entity http--><g id="elem_http"><ellipse cx="347" cy="348" fill="#F1F1F1" rx="8" ry="8" style="stroke:#181818;stroke-width:0.5;"/><text fill="#000000" font-family="sans-serif" font-size="14" lengthAdjust="spacing" textLength="103" x="295.5" y="377.9951">httpApplication</text></g><!--entity PreferencesStore--><g id="elem_PreferencesStore"><rect fill="#F1F1F1" height="46.2969" rx="2.5" ry="2.5" style="stroke:#181818;stroke-width:0.5;" width="161" x="141.5" y="325"/><rect fill="#F1F1F1" height="10" style="stroke:#181818;stroke-width:0.5;" width="15" x="282.5" y="330"/><rect fill="#F1F1F1" height="2" style="stroke:#181818;stroke-width:0.5;" width="4" x="280.5" y="332"/><rect fill="#F1F1F1" height="2" style="stroke:#181818;stroke-width:0.5;" width="4" x="280.5" y="336"/><text fill="#000000" font-family="sans-serif" font-size="14" lengthAdjust="spacing" textLength="121" x="156.5" y="357.9951">PreferencesStore</text></g><!--entity InMemorySessionManager--><g id="elem_InMemorySessionManager"><rect fill="#F1F1F1" height="46.2969" rx="2.5" ry="2.5" style="stroke:#181818;stroke-width:0.5;" width="222" x="7" y="431"/><rect fill="#F1F1F1" height="10" style="stroke:#181818;stroke-width:0.5;" width="15" x="209" y="436"/><rect fill="#F1F1F1" height="2" style="stroke:#181818;stroke-width:0.5;" width="4" x="207" y="438"/><rect fill="#F1F1F1" height="2" style="stroke:#181818;stroke-width:0.5;" width="4" x="207" y="442"/><text fill="#000000" font-family="sans-serif" font-size="14" lengthAdjust="spacing" textLength="182" x="22" y="463.9951">InMemorySessionManager</text></g><!--entity LanguageSelector--><g id="elem_LanguageSelector"><rect fill="#F1F1F1" height="46.2969" rx="2.5" ry="2.5" style="stroke:#181818;stroke-width:0.5;" width="165" x="264.5" y="431"/><rect fill="#F1F1F1" height="10" style="stroke:#181818;stroke-width:0.5;" width="15" x="409.5" y="436"/><rect fill="#F1F1F1" height="2" style="stroke:#181818;stroke-width:0.5;" width="4" x="407.5" y="438"/><rect fill="#F1F1F1" height="2" style="stroke:#181818;stroke-width:0.5;" width="4" x="407.5" y="442"/><text fill="#000000" font-family="sans-serif" font-size="14" lengthAdjust="spacing" textLength="125" x="279.5" y="463.9951">LanguageSelector</text></g><!--entity con--><g id="elem_con"><ellipse cx="735" cy="454" fill="#F1F1F1" rx="8" ry="8" style="stroke:#181818;stroke-width:0.5;"/><text fill="#000000" font-family="sans-serif" font-size="14" lengthAdjust="spacing" textLength="55" x="707.5" y="483.9951">console</text></g><!--entity BrowserLocalBackedKVStore--><g id="elem_BrowserLocalBackedKVStore"><rect fill="#F1F1F1" height="46.2969" rx="2.5" ry="2.5" style="stroke:#181818;stroke-width:0.5;" width="239" x="479.5" y="537"/><rect fill="#F1F1F1" height="10" style="stroke:#181818;stroke-width:0.5;" width="15" x="698.5" y="542"/><rect fill="#F1F1F1" height="2" style="stroke:#181818;stroke-width:0.5;" width="4" x="696.5" y="544"/><rect fill="#F1F1F1" height="2" style="stroke:#181818;stroke-width:0.5;" width="4" x="696.5" y="548"/><text fill="#000000" font-family="sans-serif" font-size="14" lengthAdjust="spacing" textLength="199" x="494.5" y="569.9951">BrowserLocalBackedKVStore</text></g><!--entity KVStoreBasedConsolePolicy--><g id="elem_KVStoreBasedConsolePolicy"><rect fill="#F1F1F1" height="46.2969" rx="2.5" ry="2.5" style="stroke:#181818;stroke-width:0.5;" width="235" x="753.5" y="537"/><rect fill="#F1F1F1" height="10" style="stroke:#181818;stroke-width:0.5;" width="15" x="968.5" y="542"/><rect fill="#F1F1F1" height="2" style="stroke:#181818;stroke-width:0.5;" width="4" x="966.5" y="544"/><rect fill="#F1F1F1" height="2" style="stroke:#181818;stroke-width:0.5;" width="4" x="966.5" y="548"/><text fill="#000000" font-family="sans-serif" font-size="14" lengthAdjust="spacing" textLength="195" x="768.5" y="569.9951">KVStoreBasedConsolePolicy</text></g><!--link SocketServer:8888 to hT--><g id="link_SocketServer:8888_hT"><path d="M347,53.06 C347,76.19 347,111.32 347,126.98 " fill="none" id="SocketServer:8888-hT" style="stroke:#181818;stroke-width:1.0;stroke-dasharray:7.0,7.0;"/></g><!--link hT to SslCodec--><g id="link_hT_SslCodec"><path d="M356.09,136 C367.88,136 379.67,136 391.46,136 " fill="none" id="hT-SslCodec" style="stroke:#181818;stroke-width:1.0;stroke-dasharray:7.0,7.0;"/></g><!--link SslCodec to sC--><g id="link_SslCodec_sC"><path d="M496.67,136 C508.44,136 520.22,136 532,136 " fill="none" id="SslCodec-sC" style="stroke:#181818;stroke-width:1.0;stroke-dasharray:7.0,7.0;"/></g><!--link sC to SocketServer:8443--><g id="link_sC_SocketServer:8443"><path d="M550.21,136 C561.95,136 573.68,136 585.42,136 " fill="none" id="sC-SocketServer:8443" style="stroke:#181818;stroke-width:1.0;"/></g><!--link hT to HttpServer--><g id="link_hT_HttpServer"><path d="M347,145.16 C347,160.87 347,195.78 347,218.85 " fill="none" id="hT-HttpServer" style="stroke:#181818;stroke-width:1.0;stroke-dasharray:7.0,7.0;"/></g><!--link HttpServer to http--><g id="link_HttpServer_http"><path d="M347,265.06 C347,288.19 347,323.32 347,338.98 " fill="none" id="HttpServer-http" style="stroke:#181818;stroke-width:1.0;stroke-dasharray:7.0,7.0;"/></g><!--link PreferencesStore to http--><g id="link_PreferencesStore_http"><path d="M302.57,348 C314.37,348 326.17,348 337.97,348 " fill="none" id="PreferencesStore-http" style="stroke:#181818;stroke-width:1.0;stroke-dasharray:7.0,7.0;"/></g><!--link http to InMemorySessionManager--><g id="link_http_InMemorySessionManager"><path d="M344.38,357.1 C340.63,367.42 332.73,385.12 320,395 C303.6,407.72 261.9,420.59 220.61,430.96 " fill="none" id="http-InMemorySessionManager" style="stroke:#181818;stroke-width:1.0;stroke-dasharray:7.0,7.0;"/></g><!--link http to LanguageSelector--><g id="link_http_LanguageSelector"><path d="M347,357.16 C347,372.87 347,407.78 347,430.85 " fill="none" id="http-LanguageSelector" style="stroke:#181818;stroke-width:1.0;stroke-dasharray:7.0,7.0;"/></g><!--link http to VueJsConsoleWeblet--><g id="link_http_VueJsConsoleWeblet"><path d="M356.3,348 C391.69,348 427.09,348 462.49,348 " fill="none" id="http-VueJsConsoleWeblet" style="stroke:#181818;stroke-width:1.0;stroke-dasharray:7.0,7.0;"/></g><!--reverse link VueJsConsoleWeblet to WebConsole--><g id="link_VueJsConsoleWeblet_WebConsole"><path d="M558.5679,382.9531 C560.9379,400.5931 562.66,413.34 565.04,430.98 " fill="none" id="VueJsConsoleWeblet-backto-WebConsole" style="stroke:#181818;stroke-width:1.0;"/><polygon fill="#181818" points="556.97,371.06,553.8046,377.5392,558.5679,382.9531,561.7333,376.4739,556.97,371.06" style="stroke:#181818;stroke-width:1.0;"/></g><!--link WebConsole to con--><g id="link_WebConsole_con"><path d="M632.26,454 C663.43,454 694.6,454 725.77,454 " fill="none" id="WebConsole-con" style="stroke:#181818;stroke-width:1.0;"/></g><!--link con to BrowserLocalBackedKVStore--><g id="link_con_BrowserLocalBackedKVStore"><path d="M725.65,462.15 C705.79,477.34 658.67,513.37 627.85,536.94 " fill="none" id="con-BrowserLocalBackedKVStore" style="stroke:#181818;stroke-width:1.0;stroke-dasharray:7.0,7.0;"/></g><!--link con to KVStoreBasedConsolePolicy--><g id="link_con_KVStoreBasedConsolePolicy"><path d="M744.35,462.15 C764.21,477.34 811.33,513.37 842.15,536.94 " fill="none" id="con-KVStoreBasedConsolePolicy" style="stroke:#181818;stroke-width:1.0;stroke-dasharray:7.0,7.0;"/></g><!--link Some component to con--><g id="link_Some component_con"><path d="M773.61,371.06 C762.71,394.19 746.16,429.32 738.78,444.98 " fill="none" id="Some component-con" style="stroke:#181818;stroke-width:1.0;stroke-dasharray:7.0,7.0;"/></g><!--SRC=[bL9DRy8m3BtdLrWziKdqCWxJRgENVS24LCGEg8SiDRGYn56IWj2q_pwtAI3GfccL4ZNsy_FpImOta5GXsBcJnbjo8G7fePeBNf0sDeLbJcg38KUtG_TmpryXm510SFMw2a2hdo406Hc3AdXe3u7W3SEUt4O0ch9Z413RT4Hj9wypAb5nzO1rULIDmpAh9FFeJfZF12z8DQwk2ZWwx7Y6rt96exk_54V8FnINj3VS_ucTYnn5cndqPZvQgsibGqqcsianqUszfLTrovd35Jeq2dqUo65nyYIMBf_D5BVa3ZbwpwnJQUIQYoDTZvb8isuudAFc6UWoAy1AjU4i93oaGXiQgU4TF_ZaIMC2d-tCoqM3BxwFSLPZA8vkHw9VCBV3rXBs_ap9etqTNL77Bkm6_uiBtEdYkWnlaB97OqTxZsv2IkenQyVoTH7DEMFwo5XwVYQHRKPi_Q6uc7ZcQ5UNw3n8laS6icJVJznHzUzyYtpSMZ9eGgl-6m00]--></g></svg>