<?xml version="1.0" encoding="UTF-8" standalone="no"?><svg xmlns="http://www.w3.org/2000/svg" xmlns:xlink="http://www.w3.org/1999/xlink" contentScriptType="application/ecmascript" contentStyleType="text/css" height="595px" preserveAspectRatio="none" style="width:1000px;height:595px;background:#FFFFFF;" version="1.1" viewBox="0 0 1000 595" width="1000px" zoomAndPan="magnify"><defs><filter height="300%" id="fvi1k1wuqkn4g" width="300%" x="-1" y="-1"><feGaussianBlur result="blurOut" stdDeviation="2.0"/><feColorMatrix in="blurOut" result="blurOut2" type="matrix" values="0 0 0 0 0 0 0 0 0 0 0 0 0 0 0 0 0 0 .4 0"/><feOffset dx="4.0" dy="4.0" in="blurOut2" result="blurOut3"/><feBlend in="SourceGraphic" in2="blurOut3" mode="normal"/></filter></defs><g><!--MD5=[364163326c8f855cbda5f70a308d1fe4]
cluster Conceptual WebConsole--><polygon fill="#FFFFFF" filter="url(#fvi1k1wuqkn4g)" points="446,290,645,290,652,312.2969,662,312.2969,662,493,446,493,446,290" style="stroke:#000000;stroke-width:1.5;"/><line style="stroke:#000000;stroke-width:1.5;" x1="446" x2="652" y1="312.2969" y2="312.2969"/><text fill="#000000" font-family="sans-serif" font-size="14" font-weight="bold" lengthAdjust="spacing" textLength="193" x="450" y="304.9951">Conceptual WebConsole</text><!--MD5=[d55425e33cf64d350045484e29baf1f9]
cluster Providers and Conlets--><polygon fill="#FFFFFF" filter="url(#fvi1k1wuqkn4g)" points="686,290,867,290,874,312.2969,882,312.2969,882,387,686,387,686,290" style="stroke:#000000;stroke-width:1.5;"/><line style="stroke:#000000;stroke-width:1.5;" x1="686" x2="874" y1="312.2969" y2="312.2969"/><text fill="#000000" font-family="sans-serif" font-size="14" font-weight="bold" lengthAdjust="spacing" textLength="175" x="690" y="304.9951">Providers and Conlets</text><!--MD5=[3ecf32833c8150df8285e382460dbad2]
entity VueJsConsoleWeblet--><rect fill="#FEFECE" filter="url(#fvi1k1wuqkn4g)" height="46.2969" style="stroke:#A80036;stroke-width:1.5;" width="183" x="462.5" y="325"/><rect fill="#FEFECE" height="10" style="stroke:#A80036;stroke-width:1.5;" width="15" x="625.5" y="330"/><rect fill="#FEFECE" height="2" style="stroke:#A80036;stroke-width:1.5;" width="4" x="623.5" y="332"/><rect fill="#FEFECE" height="2" style="stroke:#A80036;stroke-width:1.5;" width="4" x="623.5" y="336"/><text fill="#000000" font-family="sans-serif" font-size="14" lengthAdjust="spacing" textLength="143" x="477.5" y="357.9951">VueJsConsoleWeblet</text><!--MD5=[c1b400c57cd0712989508586cb99b6c6]
entity WebConsole--><rect fill="#FEFECE" filter="url(#fvi1k1wuqkn4g)" height="46.2969" style="stroke:#A80036;stroke-width:1.5;" width="128" x="504" y="431"/><rect fill="#FEFECE" height="10" style="stroke:#A80036;stroke-width:1.5;" width="15" x="612" y="436"/><rect fill="#FEFECE" height="2" style="stroke:#A80036;stroke-width:1.5;" width="4" x="610" y="438"/><rect fill="#FEFECE" height="2" style="stroke:#A80036;stroke-width:1.5;" width="4" x="610" y="442"/><text fill="#000000" font-family="sans-serif" font-size="14" lengthAdjust="spacing" textLength="88" x="519" y="463.9951">WebConsole</text><!--MD5=[a305d5e0a6fd2c8641dc01b5104fa416]
entity Some component--><rect fill="#FEFECE" filter="url(#fvi1k1wuqkn4g)" height="46.2969" style="stroke:#A80036;stroke-width:1.5;" width="164" x="702" y="325"/><rect fill="#FEFECE" height="10" style="stroke:#A80036;stroke-width:1.5;" width="15" x="846" y="330"/><rect fill="#FEFECE" height="2" style="stroke:#A80036;stroke-width:1.5;" width="4" x="844" y="332"/><rect fill="#FEFECE" height="2" style="stroke:#A80036;stroke-width:1.5;" width="4" x="844" y="336"/><text fill="#000000" font-family="sans-serif" font-size="14" lengthAdjust="spacing" textLength="124" x="717" y="357.9951">Some component</text><!--MD5=[b1ded61739b039d6edb9bbb31f72f006]
entity hT--><ellipse cx="347" cy="136" fill="#FEFECE" filter="url(#fvi1k1wuqkn4g)" rx="8" ry="8" style="stroke:#A80036;stroke-width:1.5;"/><text fill="#000000" font-family="sans-serif" font-size="14" lengthAdjust="spacing" textLength="95" x="299.5" y="165.9951">httpTransport</text><!--MD5=[8e4d2ed3309e7c77f4b90b254bbfb14c]
entity SocketServer:8888--><rect fill="#FEFECE" filter="url(#fvi1k1wuqkn4g)" height="46.2969" style="stroke:#A80036;stroke-width:1.5;" width="173" x="260.5" y="7"/><rect fill="#FEFECE" height="10" style="stroke:#A80036;stroke-width:1.5;" width="15" x="413.5" y="12"/><rect fill="#FEFECE" height="2" style="stroke:#A80036;stroke-width:1.5;" width="4" x="411.5" y="14"/><rect fill="#FEFECE" height="2" style="stroke:#A80036;stroke-width:1.5;" width="4" x="411.5" y="18"/><text fill="#000000" font-family="sans-serif" font-size="14" lengthAdjust="spacing" textLength="133" x="275.5" y="39.9951">SocketServer:8888</text><path d="M469,10 L469,26 L433.76,30 L469,34 L469,50.2656 A0,0 0 0 0 469,50.2656 L559,50.2656 A0,0 0 0 0 559,50.2656 L559,20 L549,10 L469,10 A0,0 0 0 0 469,10 " fill="#FBFB77" filter="url(#fvi1k1wuqkn4g)" style="stroke:#A80036;stroke-width:1.0;"/><path d="M549,10 L549,20 L559,20 L549,10 " fill="#FBFB77" style="stroke:#A80036;stroke-width:1.0;"/><text fill="#000000" font-family="sans-serif" font-size="13" lengthAdjust="spacing" textLength="60" x="475" y="27.0669">Connects</text><text fill="#000000" font-family="sans-serif" font-size="13" lengthAdjust="spacing" textLength="69" x="475" y="42.1997">to Network</text><!--MD5=[d106313768c2bc1674cee756c1132cfe]
entity SslCodec--><rect fill="#FEFECE" filter="url(#fvi1k1wuqkn4g)" height="46.2969" style="stroke:#A80036;stroke-width:1.5;" width="105" x="391.5" y="113"/><rect fill="#FEFECE" height="10" style="stroke:#A80036;stroke-width:1.5;" width="15" x="476.5" y="118"/><rect fill="#FEFECE" height="2" style="stroke:#A80036;stroke-width:1.5;" width="4" x="474.5" y="120"/><rect fill="#FEFECE" height="2" style="stroke:#A80036;stroke-width:1.5;" width="4" x="474.5" y="124"/><text fill="#000000" font-family="sans-serif" font-size="14" lengthAdjust="spacing" textLength="65" x="406.5" y="145.9951">SslCodec</text><!--MD5=[c1d7f1b2b914bed71cab18a096776346]
entity sC--><ellipse cx="541" cy="136" fill="#FEFECE" filter="url(#fvi1k1wuqkn4g)" rx="8" ry="8" style="stroke:#A80036;stroke-width:1.5;"/><text fill="#000000" font-family="sans-serif" font-size="14" lengthAdjust="spacing" textLength="114" x="484" y="165.9951">securedChannel</text><!--MD5=[026e8bd30aac33de62d1a1e49b25042f]
entity SocketServer:8443--><rect fill="#FEFECE" filter="url(#fvi1k1wuqkn4g)" height="46.2969" style="stroke:#A80036;stroke-width:1.5;" width="173" x="585.5" y="113"/><rect fill="#FEFECE" height="10" style="stroke:#A80036;stroke-width:1.5;" width="15" x="738.5" y="118"/><rect fill="#FEFECE" height="2" style="stroke:#A80036;stroke-width:1.5;" width="4" x="736.5" y="120"/><rect fill="#FEFECE" height="2" style="stroke:#A80036;stroke-width:1.5;" width="4" x="736.5" y="124"/><text fill="#000000" font-family="sans-serif" font-size="14" lengthAdjust="spacing" textLength="133" x="600.5" y="145.9951">SocketServer:8443</text><path d="M794,116 L794,132 L758.76,136 L794,140 L794,156.2656 A0,0 0 0 0 794,156.2656 L884,156.2656 A0,0 0 0 0 884,156.2656 L884,126 L874,116 L794,116 A0,0 0 0 0 794,116 " fill="#FBFB77" filter="url(#fvi1k1wuqkn4g)" style="stroke:#A80036;stroke-width:1.0;"/><path d="M874,116 L874,126 L884,126 L874,116 " fill="#FBFB77" style="stroke:#A80036;stroke-width:1.0;"/><text fill="#000000" font-family="sans-serif" font-size="13" lengthAdjust="spacing" textLength="60" x="800" y="133.0669">Connects</text><text fill="#000000" font-family="sans-serif" font-size="13" lengthAdjust="spacing" textLength="69" x="800" y="148.1997">to Network</text><!--MD5=[8069bb0b0b740f5dad9f68e6440d8cc6]
entity HttpServer--><rect fill="#FEFECE" filter="url(#fvi1k1wuqkn4g)" height="46.2969" style="stroke:#A80036;stroke-width:1.5;" width="113" x="290.5" y="219"/><rect fill="#FEFECE" height="10" style="stroke:#A80036;stroke-width:1.5;" width="15" x="383.5" y="224"/><rect fill="#FEFECE" height="2" style="stroke:#A80036;stroke-width:1.5;" width="4" x="381.5" y="226"/><rect fill="#FEFECE" height="2" style="stroke:#A80036;stroke-width:1.5;" width="4" x="381.5" y="230"/><text fill="#000000" font-family="sans-serif" font-size="14" lengthAdjust="spacing" textLength="73" x="305.5" y="251.9951">HttpServer</text><!--MD5=[fcd7b9b58b982891a4c065296d4ac5c8]
entity http--><ellipse cx="347" cy="348" fill="#FEFECE" filter="url(#fvi1k1wuqkn4g)" rx="8" ry="8" style="stroke:#A80036;stroke-width:1.5;"/><text fill="#000000" font-family="sans-serif" font-size="14" lengthAdjust="spacing" textLength="103" x="295.5" y="377.9951">httpApplication</text><!--MD5=[f087d2955060935a8953b0cebff0185c]
entity PreferencesStore--><rect fill="#FEFECE" filter="url(#fvi1k1wuqkn4g)" height="46.2969" style="stroke:#A80036;stroke-width:1.5;" width="161" x="141.5" y="325"/><rect fill="#FEFECE" height="10" style="stroke:#A80036;stroke-width:1.5;" width="15" x="282.5" y="330"/><rect fill="#FEFECE" height="2" style="stroke:#A80036;stroke-width:1.5;" width="4" x="280.5" y="332"/><rect fill="#FEFECE" height="2" style="stroke:#A80036;stroke-width:1.5;" width="4" x="280.5" y="336"/><text fill="#000000" font-family="sans-serif" font-size="14" lengthAdjust="spacing" textLength="121" x="156.5" y="357.9951">PreferencesStore</text><!--MD5=[9dee2ce9a30916c3df7132dc272951e1]
entity InMemorySessionManager--><rect fill="#FEFECE" filter="url(#fvi1k1wuqkn4g)" height="46.2969" style="stroke:#A80036;stroke-width:1.5;" width="222" x="7" y="431"/><rect fill="#FEFECE" height="10" style="stroke:#A80036;stroke-width:1.5;" width="15" x="209" y="436"/><rect fill="#FEFECE" height="2" style="stroke:#A80036;stroke-width:1.5;" width="4" x="207" y="438"/><rect fill="#FEFECE" height="2" style="stroke:#A80036;stroke-width:1.5;" width="4" x="207" y="442"/><text fill="#000000" font-family="sans-serif" font-size="14" lengthAdjust="spacing" textLength="182" x="22" y="463.9951">InMemorySessionManager</text><!--MD5=[a2e25e94ef8b5cfbb1ef47082faf6052]
entity LanguageSelector--><rect fill="#FEFECE" filter="url(#fvi1k1wuqkn4g)" height="46.2969" style="stroke:#A80036;stroke-width:1.5;" width="165" x="264.5" y="431"/><rect fill="#FEFECE" height="10" style="stroke:#A80036;stroke-width:1.5;" width="15" x="409.5" y="436"/><rect fill="#FEFECE" height="2" style="stroke:#A80036;stroke-width:1.5;" width="4" x="407.5" y="438"/><rect fill="#FEFECE" height="2" style="stroke:#A80036;stroke-width:1.5;" width="4" x="407.5" y="442"/><text fill="#000000" font-family="sans-serif" font-size="14" lengthAdjust="spacing" textLength="125" x="279.5" y="463.9951">LanguageSelector</text><!--MD5=[4d14b4c0ea7251d856fa2d4d8f267f17]
entity con--><ellipse cx="735" cy="454" fill="#FEFECE" filter="url(#fvi1k1wuqkn4g)" rx="8" ry="8" style="stroke:#A80036;stroke-width:1.5;"/><text fill="#000000" font-family="sans-serif" font-size="14" lengthAdjust="spacing" textLength="55" x="707.5" y="483.9951">console</text><!--MD5=[59f32b681f103c4c862db0a580635b60]
entity BrowserLocalBackedKVStore--><rect fill="#FEFECE" filter="url(#fvi1k1wuqkn4g)" height="46.2969" style="stroke:#A80036;stroke-width:1.5;" width="239" x="479.5" y="537"/><rect fill="#FEFECE" height="10" style="stroke:#A80036;stroke-width:1.5;" width="15" x="698.5" y="542"/><rect fill="#FEFECE" height="2" style="stroke:#A80036;stroke-width:1.5;" width="4" x="696.5" y="544"/><rect fill="#FEFECE" height="2" style="stroke:#A80036;stroke-width:1.5;" width="4" x="696.5" y="548"/><text fill="#000000" font-family="sans-serif" font-size="14" lengthAdjust="spacing" textLength="199" x="494.5" y="569.9951">BrowserLocalBackedKVStore</text><!--MD5=[f6475cc587f3fdc4a24d66caf86ba1d9]
entity KVStoreBasedConsolePolicy--><rect fill="#FEFECE" filter="url(#fvi1k1wuqkn4g)" height="46.2969" style="stroke:#A80036;stroke-width:1.5;" width="235" x="753.5" y="537"/><rect fill="#FEFECE" height="10" style="stroke:#A80036;stroke-width:1.5;" width="15" x="968.5" y="542"/><rect fill="#FEFECE" height="2" style="stroke:#A80036;stroke-width:1.5;" width="4" x="966.5" y="544"/><rect fill="#FEFECE" height="2" style="stroke:#A80036;stroke-width:1.5;" width="4" x="966.5" y="548"/><text fill="#000000" font-family="sans-serif" font-size="14" lengthAdjust="spacing" textLength="195" x="768.5" y="569.9951">KVStoreBasedConsolePolicy</text><!--MD5=[7803668ee54f6b73e2eebe7b08d8cd01]
link SocketServer:8888 to hT--><path d="M347,53.06 C347,76.19 347,111.32 347,126.98 " fill="none" id="SocketServer:8888-hT" style="stroke:#A80036;stroke-width:1.0;stroke-dasharray:7.0,7.0;"/><!--MD5=[622ce6dc7c9d782b100f9df9ae900b0d]
link hT to SslCodec--><path d="M356.09,136 C367.88,136 379.67,136 391.46,136 " fill="none" id="hT-SslCodec" style="stroke:#A80036;stroke-width:1.0;stroke-dasharray:7.0,7.0;"/><!--MD5=[709c0cd3a8ee73718c794273a31e17da]
link SslCodec to sC--><path d="M496.67,136 C508.44,136 520.22,136 532,136 " fill="none" id="SslCodec-sC" style="stroke:#A80036;stroke-width:1.0;stroke-dasharray:7.0,7.0;"/><!--MD5=[557c72363e4330bc55d522bc3f408780]
link sC to SocketServer:8443--><path d="M550.21,136 C561.95,136 573.68,136 585.42,136 " fill="none" id="sC-SocketServer:8443" style="stroke:#A80036;stroke-width:1.0;"/><!--MD5=[2155a3f729b045bd00eb1fbecbd7b91f]
link hT to HttpServer--><path d="M347,145.16 C347,160.87 347,195.78 347,218.85 " fill="none" id="hT-HttpServer" style="stroke:#A80036;stroke-width:1.0;stroke-dasharray:7.0,7.0;"/><!--MD5=[27b661b8f4e5543e8a3454034880f063]
link HttpServer to http--><path d="M347,265.06 C347,288.19 347,323.32 347,338.98 " fill="none" id="HttpServer-http" style="stroke:#A80036;stroke-width:1.0;stroke-dasharray:7.0,7.0;"/><!--MD5=[df3efd65ca8c60730e255ffe7cc0ee88]
link PreferencesStore to http--><path d="M302.57,348 C314.37,348 326.17,348 337.97,348 " fill="none" id="PreferencesStore-http" style="stroke:#A80036;stroke-width:1.0;stroke-dasharray:7.0,7.0;"/><!--MD5=[4d75eda655059266a9997b1310d2350b]
link http to InMemorySessionManager--><path d="M344.38,357.1 C340.63,367.42 332.73,385.12 320,395 C303.6,407.72 261.9,420.59 220.61,430.96 " fill="none" id="http-InMemorySessionManager" style="stroke:#A80036;stroke-width:1.0;stroke-dasharray:7.0,7.0;"/><!--MD5=[a80a9d41a8d438e67ea0580a41463583]
link http to LanguageSelector--><path d="M347,357.16 C347,372.87 347,407.78 347,430.85 " fill="none" id="http-LanguageSelector" style="stroke:#A80036;stroke-width:1.0;stroke-dasharray:7.0,7.0;"/><!--MD5=[a9f57784f7cf6ac95b029b0b5fe973ff]
link http to VueJsConsoleWeblet--><path d="M356.3,348 C391.69,348 427.09,348 462.49,348 " fill="none" id="http-VueJsConsoleWeblet" style="stroke:#A80036;stroke-width:1.0;stroke-dasharray:7.0,7.0;"/><!--MD5=[efd2165cc700fa694b69b4bef19b0671]
reverse link VueJsConsoleWeblet to WebConsole--><path d="M558.71,383.96 C560.8,399.51 563.2,417.33 565.04,430.98 " fill="none" id="VueJsConsoleWeblet-backto-WebConsole" style="stroke:#A80036;stroke-width:1.0;"/><polygon fill="#A80036" points="556.97,371.06,553.8103,377.542,558.5784,382.9517,561.7381,376.4697,556.97,371.06" style="stroke:#A80036;stroke-width:1.0;"/><!--MD5=[5b8a695d0a47937a86672106c2d30a67]
link WebConsole to con--><path d="M632.26,454 C663.43,454 694.6,454 725.77,454 " fill="none" id="WebConsole-con" style="stroke:#A80036;stroke-width:1.0;"/><!--MD5=[1d4a910a735b2f4b0896b9779418047a]
link con to BrowserLocalBackedKVStore--><path d="M725.65,462.15 C705.79,477.34 658.67,513.37 627.85,536.94 " fill="none" id="con-BrowserLocalBackedKVStore" style="stroke:#A80036;stroke-width:1.0;stroke-dasharray:7.0,7.0;"/><!--MD5=[3a39fe64953680a183c04c360ca36d12]
link con to KVStoreBasedConsolePolicy--><path d="M744.35,462.15 C764.21,477.34 811.33,513.37 842.15,536.94 " fill="none" id="con-KVStoreBasedConsolePolicy" style="stroke:#A80036;stroke-width:1.0;stroke-dasharray:7.0,7.0;"/><!--MD5=[dc6e821aeb537225f0f449a664c7b1fd]
link Some component to con--><path d="M773.61,371.06 C762.71,394.19 746.16,429.32 738.78,444.98 " fill="none" id="Some component-con" style="stroke:#A80036;stroke-width:1.0;stroke-dasharray:7.0,7.0;"/><!--MD5=[a5fdc7dfc1d5c655a42c680f0f32a755]
@startuml
() "httpTransport" as hT
 hT .up. [SocketServer:8888]
 note right of [SocketServer:8888]
   Connects 
   to Network
 end note
 
 hT .right. [SslCodec]
 () "securedChannel" as sC
 sC .left. [SslCodec]
 sC -right- [SocketServer:8443]
 note right of [SocketServer:8443]
   Connects 
   to Network
 end note
 
 hT .down. [HttpServer]
 
 () "httpApplication" as http
 http .up. [HttpServer]
 
 [PreferencesStore] .right. http
 [InMemorySessionManager] .up. http
 [LanguageSelector] .up. http
 
 package "Conceptual WebConsole" {
   [VueJsConsoleWeblet] .left. http
   [VueJsConsoleWeblet] *-down- [WebConsole]
 }
 
 () "console" as con
 [WebConsole] -right- con
 con .. [BrowserLocalBackedKVStore]
 con .. [KVStoreBasedConsolePolicy]
 
 package "Providers and Conlets" {
   con .up. [Some component]
 }
@enduml

PlantUML version 1.2022.1(Tue Feb 01 18:19:58 UTC 2022)
(GPL source distribution)
Java Runtime: OpenJDK Runtime Environment
JVM: OpenJDK 64-Bit Server VM
Default Encoding: UTF-8
Language: en
Country: 
--></g></svg>