<?xml version="1.0" encoding="UTF-8" standalone="no"?><svg xmlns="http://www.w3.org/2000/svg" xmlns:xlink="http://www.w3.org/1999/xlink" contentScriptType="application/ecmascript" contentStyleType="text/css" height="580px" preserveAspectRatio="none" style="width:375px;height:580px;" version="1.1" viewBox="0 0 375 580" width="375px" zoomAndPan="magnify"><defs><filter height="300%" id="f1w2ct6hxpkbha" width="300%" x="-1" y="-1"><feGaussianBlur result="blurOut" stdDeviation="2.0"/><feColorMatrix in="blurOut" result="blurOut2" type="matrix" values="0 0 0 0 0 0 0 0 0 0 0 0 0 0 0 0 0 0 .4 0"/><feOffset dx="4.0" dy="4.0" in="blurOut2" result="blurOut3"/><feBlend in="SourceGraphic" in2="blurOut3" mode="normal"/></filter></defs><g><rect fill="#FFFFFF" filter="url(#f1w2ct6hxpkbha)" height="21" style="stroke: #A80036; stroke-width: 1.0;" width="10" x="71" y="48.2969"/><rect fill="#FFFFFF" filter="url(#f1w2ct6hxpkbha)" height="30" style="stroke: #A80036; stroke-width: 1.0;" width="10" x="71" y="388.0938"/><rect fill="#FFFFFF" filter="url(#f1w2ct6hxpkbha)" height="30" style="stroke: #A80036; stroke-width: 1.0;" width="10" x="71" y="471.3594"/><rect fill="#FFFFFF" filter="url(#f1w2ct6hxpkbha)" height="490.3281" style="stroke: #A80036; stroke-width: 1.0;" width="10" x="218" y="69.2969"/><rect fill="#FFFFFF" filter="url(#f1w2ct6hxpkbha)" height="28" style="stroke: #A80036; stroke-width: 1.0;" width="10" x="223" y="106.4297"/><rect fill="#FFFFFF" filter="url(#f1w2ct6hxpkbha)" height="28" style="stroke: #A80036; stroke-width: 1.0;" width="10" x="223" y="178.5625"/><rect fill="#FFFFFF" filter="url(#f1w2ct6hxpkbha)" height="28" style="stroke: #A80036; stroke-width: 1.0;" width="10" x="223" y="274.8281"/><rect fill="#FFFFFF" filter="url(#f1w2ct6hxpkbha)" height="162.5313" style="stroke: #A80036; stroke-width: 1.0;" width="10" x="223" y="353.9609"/><rect fill="#FFFFFF" filter="url(#f1w2ct6hxpkbha)" height="89.2656" style="stroke: #000000; stroke-width: 2.0;" width="152.5" x="181.5" y="228.6953"/><rect fill="#FFFFFF" filter="url(#f1w2ct6hxpkbha)" height="76.2656" style="stroke: #000000; stroke-width: 2.0;" width="251.5" x="13" y="433.2266"/><line style="stroke: #A80036; stroke-width: 1.0; stroke-dasharray: 5.0,5.0;" x1="76" x2="76" y1="38.2969" y2="568.625"/><line style="stroke: #A80036; stroke-width: 1.0; stroke-dasharray: 5.0,5.0;" x1="222.5" x2="222.5" y1="38.2969" y2="568.625"/><rect fill="#FEFECE" filter="url(#f1w2ct6hxpkbha)" height="30.2969" style="stroke: #A80036; stroke-width: 1.5;" width="102" x="23" y="3"/><text fill="#000000" font-family="sans-serif" font-size="14" lengthAdjust="spacingAndGlyphs" textLength="88" x="30" y="22.9951">WebConsole</text><rect fill="#FEFECE" filter="url(#f1w2ct6hxpkbha)" height="30.2969" style="stroke: #A80036; stroke-width: 1.5;" width="59" x="191.5" y="3"/><text fill="#000000" font-family="sans-serif" font-size="14" lengthAdjust="spacingAndGlyphs" textLength="45" x="198.5" y="22.9951">Conlet</text><rect fill="#FFFFFF" filter="url(#f1w2ct6hxpkbha)" height="21" style="stroke: #A80036; stroke-width: 1.0;" width="10" x="71" y="48.2969"/><rect fill="#FFFFFF" filter="url(#f1w2ct6hxpkbha)" height="30" style="stroke: #A80036; stroke-width: 1.0;" width="10" x="71" y="388.0938"/><rect fill="#FFFFFF" filter="url(#f1w2ct6hxpkbha)" height="30" style="stroke: #A80036; stroke-width: 1.0;" width="10" x="71" y="471.3594"/><rect fill="#FFFFFF" filter="url(#f1w2ct6hxpkbha)" height="490.3281" style="stroke: #A80036; stroke-width: 1.0;" width="10" x="218" y="69.2969"/><rect fill="#FFFFFF" filter="url(#f1w2ct6hxpkbha)" height="28" style="stroke: #A80036; stroke-width: 1.0;" width="10" x="223" y="106.4297"/><rect fill="#FFFFFF" filter="url(#f1w2ct6hxpkbha)" height="28" style="stroke: #A80036; stroke-width: 1.0;" width="10" x="223" y="178.5625"/><rect fill="#FFFFFF" filter="url(#f1w2ct6hxpkbha)" height="28" style="stroke: #A80036; stroke-width: 1.0;" width="10" x="223" y="274.8281"/><rect fill="#FFFFFF" filter="url(#f1w2ct6hxpkbha)" height="162.5313" style="stroke: #A80036; stroke-width: 1.0;" width="10" x="223" y="353.9609"/><polygon fill="#A80036" points="206,65.2969,216,69.2969,206,73.2969,210,69.2969" style="stroke: #A80036; stroke-width: 1.0;"/><line style="stroke: #A80036; stroke-width: 1.0;" x1="76" x2="212" y1="69.2969" y2="69.2969"/><text fill="#000000" font-family="sans-serif" font-size="13" lengthAdjust="spacingAndGlyphs" textLength="118" x="83" y="64.3638">AddConletRequest</text><line style="stroke: #A80036; stroke-width: 1.0;" x1="233" x2="275" y1="98.5625" y2="98.5625"/><line style="stroke: #A80036; stroke-width: 1.0;" x1="275" x2="275" y1="98.5625" y2="111.5625"/><line style="stroke: #A80036; stroke-width: 1.0;" x1="234" x2="275" y1="111.5625" y2="111.5625"/><polygon fill="#A80036" points="244,107.5625,234,111.5625,244,115.5625,240,111.5625" style="stroke: #A80036; stroke-width: 1.0;"/><text fill="#000000" font-family="sans-serif" font-size="13" lengthAdjust="spacingAndGlyphs" textLength="123" x="240" y="93.4966">generateInstanceId</text><line style="stroke: #A80036; stroke-width: 1.0;" x1="233" x2="275" y1="170.6953" y2="170.6953"/><line style="stroke: #A80036; stroke-width: 1.0;" x1="275" x2="275" y1="170.6953" y2="183.6953"/><line style="stroke: #A80036; stroke-width: 1.0;" x1="234" x2="275" y1="183.6953" y2="183.6953"/><polygon fill="#A80036" points="244,179.6953,234,183.6953,244,187.6953,240,183.6953" style="stroke: #A80036; stroke-width: 1.0;"/><text fill="#000000" font-family="sans-serif" font-size="13" lengthAdjust="spacingAndGlyphs" textLength="103" x="240" y="165.6294">createNewState</text><rect fill="none" height="89.2656" style="stroke: #000000; stroke-width: 2.0;" width="152.5" x="181.5" y="228.6953"/><polygon fill="#EEEEEE" points="181.5,228.6953,251.5,228.6953,251.5,235.6953,241.5,245.6953,181.5,245.6953,181.5,228.6953" style="stroke: #000000; stroke-width: 2.0;"/><text fill="#000000" font-family="sans-serif" font-size="13" font-weight="bold" lengthAdjust="spacingAndGlyphs" textLength="25" x="196.5" y="241.7622">opt</text><text fill="#000000" font-family="sans-serif" font-size="11" font-weight="bold" lengthAdjust="spacingAndGlyphs" textLength="56" x="266.5" y="240.9058">[if state]</text><line style="stroke: #A80036; stroke-width: 1.0;" x1="233" x2="275" y1="266.9609" y2="266.9609"/><line style="stroke: #A80036; stroke-width: 1.0;" x1="275" x2="275" y1="266.9609" y2="279.9609"/><line style="stroke: #A80036; stroke-width: 1.0;" x1="234" x2="275" y1="279.9609" y2="279.9609"/><polygon fill="#A80036" points="244,275.9609,234,279.9609,244,283.9609,240,279.9609" style="stroke: #A80036; stroke-width: 1.0;"/><text fill="#000000" font-family="sans-serif" font-size="13" lengthAdjust="spacingAndGlyphs" textLength="82" x="240" y="261.895">putInSession</text><line style="stroke: #A80036; stroke-width: 1.0;" x1="228" x2="275" y1="341.0938" y2="341.0938"/><line style="stroke: #A80036; stroke-width: 1.0;" x1="275" x2="275" y1="341.0938" y2="354.0938"/><line style="stroke: #A80036; stroke-width: 1.0;" x1="234" x2="275" y1="354.0938" y2="354.0938"/><polygon fill="#A80036" points="244,350.0938,234,354.0938,244,358.0938,240,354.0938" style="stroke: #A80036; stroke-width: 1.0;"/><text fill="#000000" font-family="sans-serif" font-size="13" lengthAdjust="spacingAndGlyphs" textLength="102" x="240" y="336.0278">doRenderConlet</text><polygon fill="#A80036" points="92,384.0938,82,388.0938,92,392.0938,88,388.0938" style="stroke: #A80036; stroke-width: 1.0;"/><line style="stroke: #A80036; stroke-width: 1.0;" x1="86" x2="222" y1="388.0938" y2="388.0938"/><text fill="#000000" font-family="sans-serif" font-size="13" lengthAdjust="spacingAndGlyphs" textLength="86" x="98" y="383.1606">RenderConlet</text><rect fill="none" height="76.2656" style="stroke: #000000; stroke-width: 2.0;" width="251.5" x="13" y="433.2266"/><polygon fill="#EEEEEE" points="13,433.2266,83,433.2266,83,440.2266,73,450.2266,13,450.2266,13,433.2266" style="stroke: #000000; stroke-width: 2.0;"/><text fill="#000000" font-family="sans-serif" font-size="13" font-weight="bold" lengthAdjust="spacingAndGlyphs" textLength="25" x="28" y="446.2935">opt</text><polygon fill="#A80036" points="92,467.3594,82,471.3594,92,475.3594,88,471.3594" style="stroke: #A80036; stroke-width: 1.0;"/><line style="stroke: #A80036; stroke-width: 1.0;" x1="86" x2="222" y1="471.3594" y2="471.3594"/><text fill="#000000" font-family="sans-serif" font-size="13" lengthAdjust="spacingAndGlyphs" textLength="107" x="98" y="466.4263">NotifyConletView</text><line style="stroke: #A80036; stroke-width: 1.0;" x1="228" x2="270" y1="537.625" y2="537.625"/><line style="stroke: #A80036; stroke-width: 1.0;" x1="270" x2="270" y1="537.625" y2="550.625"/><line style="stroke: #A80036; stroke-width: 1.0;" x1="229" x2="270" y1="550.625" y2="550.625"/><polygon fill="#A80036" points="239,546.625,229,550.625,239,554.625,235,550.625" style="stroke: #A80036; stroke-width: 1.0;"/><text fill="#000000" font-family="sans-serif" font-size="13" lengthAdjust="spacingAndGlyphs" textLength="128" x="235" y="532.5591">start conlet tracking</text><!--
@startuml
hide footbox
 
 activate WebConsole
 WebConsole -> Conlet: AddConletRequest
 deactivate WebConsole
 activate Conlet
 Conlet -> Conlet: generateInstanceId
 activate Conlet
 deactivate Conlet
 Conlet -> Conlet: createNewState
 activate Conlet
 deactivate Conlet
 opt if state
     Conlet -> Conlet: putInSession
     activate Conlet
     deactivate Conlet
 end opt
 Conlet -> Conlet: doRenderConlet
 activate Conlet
 Conlet -> WebConsole: RenderConlet
 activate WebConsole
 deactivate WebConsole
 opt
     Conlet -> WebConsole: NotifyConletView
     activate WebConsole
     deactivate WebConsole
 end opt
 deactivate Conlet
 Conlet -> Conlet: start conlet tracking
@enduml

PlantUML version 1.2017.18(Fri Oct 06 16:56:32 UTC 2017)
(GPL source distribution)
Java Runtime: OpenJDK Runtime Environment
JVM: OpenJDK 64-Bit Server VM
Java Version: 15.0.6+5-MTS
Operating System: Linux
OS Version: 5.11.0-1028-azure
Default Encoding: UTF-8
Language: en
Country: 
--></g></svg>