<?xml version="1.0" encoding="us-ascii" standalone="no"?><svg xmlns="http://www.w3.org/2000/svg" xmlns:xlink="http://www.w3.org/1999/xlink" contentStyleType="text/css" height="573px" preserveAspectRatio="none" style="width:365px;height:573px;background:#FFFFFF;" version="1.1" viewBox="0 0 365 573" width="365px" zoomAndPan="magnify"><defs/><g><rect fill="#FFFFFF" height="21.1328" style="stroke:#181818;stroke-width:1.0;" width="10" x="66" y="46.2969"/><rect fill="#FFFFFF" height="30" style="stroke:#181818;stroke-width:1.0;" width="10" x="66" y="386.2266"/><rect fill="#FFFFFF" height="30" style="stroke:#181818;stroke-width:1.0;" width="10" x="66" y="469.4922"/><rect fill="#FFFFFF" height="490.1953" style="stroke:#181818;stroke-width:1.0;" width="10" x="213" y="67.4297"/><rect fill="#FFFFFF" height="28" style="stroke:#181818;stroke-width:1.0;" width="10" x="218" y="104.5625"/><rect fill="#FFFFFF" height="28" style="stroke:#181818;stroke-width:1.0;" width="10" x="218" y="176.6953"/><rect fill="#FFFFFF" height="28" style="stroke:#181818;stroke-width:1.0;" width="10" x="218" y="272.9609"/><rect fill="#FFFFFF" height="162.3984" style="stroke:#181818;stroke-width:1.0;" width="10" x="218" y="352.0938"/><rect fill="none" height="89.2656" style="stroke:#000000;stroke-width:1.5;" width="150.5" x="178.5" y="226.6953"/><rect fill="none" height="76.2656" style="stroke:#000000;stroke-width:1.5;" width="247.5" x="10" y="431.2266"/><line style="stroke:#181818;stroke-width:0.5;stroke-dasharray:5.0,5.0;" x1="71" x2="71" y1="36.2969" y2="566.625"/><line style="stroke:#181818;stroke-width:0.5;stroke-dasharray:5.0,5.0;" x1="217.5" x2="217.5" y1="36.2969" y2="566.625"/><rect fill="#E2E2F0" height="30.2969" rx="2.5" ry="2.5" style="stroke:#181818;stroke-width:0.5;" width="102" x="20" y="5"/><text fill="#000000" font-family="sans-serif" font-size="14" lengthAdjust="spacing" textLength="88" x="27" y="24.9951">WebConsole</text><rect fill="#E2E2F0" height="30.2969" rx="2.5" ry="2.5" style="stroke:#181818;stroke-width:0.5;" width="59" x="188.5" y="5"/><text fill="#000000" font-family="sans-serif" font-size="14" lengthAdjust="spacing" textLength="45" x="195.5" y="24.9951">Conlet</text><rect fill="#FFFFFF" height="21.1328" style="stroke:#181818;stroke-width:1.0;" width="10" x="66" y="46.2969"/><rect fill="#FFFFFF" height="30" style="stroke:#181818;stroke-width:1.0;" width="10" x="66" y="386.2266"/><rect fill="#FFFFFF" height="30" style="stroke:#181818;stroke-width:1.0;" width="10" x="66" y="469.4922"/><rect fill="#FFFFFF" height="490.1953" style="stroke:#181818;stroke-width:1.0;" width="10" x="213" y="67.4297"/><rect fill="#FFFFFF" height="28" style="stroke:#181818;stroke-width:1.0;" width="10" x="218" y="104.5625"/><rect fill="#FFFFFF" height="28" style="stroke:#181818;stroke-width:1.0;" width="10" x="218" y="176.6953"/><rect fill="#FFFFFF" height="28" style="stroke:#181818;stroke-width:1.0;" width="10" x="218" y="272.9609"/><rect fill="#FFFFFF" height="162.3984" style="stroke:#181818;stroke-width:1.0;" width="10" x="218" y="352.0938"/><polygon fill="#181818" points="201,63.4297,211,67.4297,201,71.4297,205,67.4297" style="stroke:#181818;stroke-width:1.0;"/><line style="stroke:#181818;stroke-width:1.0;" x1="71" x2="207" y1="67.4297" y2="67.4297"/><text fill="#000000" font-family="sans-serif" font-size="13" lengthAdjust="spacing" textLength="118" x="78" y="62.3638">AddConletRequest</text><line style="stroke:#181818;stroke-width:1.0;" x1="228" x2="270" y1="96.5625" y2="96.5625"/><line style="stroke:#181818;stroke-width:1.0;" x1="270" x2="270" y1="96.5625" y2="109.5625"/><line style="stroke:#181818;stroke-width:1.0;" x1="229" x2="270" y1="109.5625" y2="109.5625"/><polygon fill="#181818" points="239,105.5625,229,109.5625,239,113.5625,235,109.5625" style="stroke:#181818;stroke-width:1.0;"/><text fill="#000000" font-family="sans-serif" font-size="13" lengthAdjust="spacing" textLength="123" x="235" y="91.4966">generateInstanceId</text><line style="stroke:#181818;stroke-width:1.0;" x1="228" x2="270" y1="168.6953" y2="168.6953"/><line style="stroke:#181818;stroke-width:1.0;" x1="270" x2="270" y1="168.6953" y2="181.6953"/><line style="stroke:#181818;stroke-width:1.0;" x1="229" x2="270" y1="181.6953" y2="181.6953"/><polygon fill="#181818" points="239,177.6953,229,181.6953,239,185.6953,235,181.6953" style="stroke:#181818;stroke-width:1.0;"/><text fill="#000000" font-family="sans-serif" font-size="13" lengthAdjust="spacing" textLength="103" x="235" y="163.6294">createNewState</text><path d="M178.5,226.6953 L248.5,226.6953 L248.5,233.8281 L238.5,243.8281 L178.5,243.8281 L178.5,226.6953 " fill="#EEEEEE" style="stroke:#000000;stroke-width:1.5;"/><rect fill="none" height="89.2656" style="stroke:#000000;stroke-width:1.5;" width="150.5" x="178.5" y="226.6953"/><text fill="#000000" font-family="sans-serif" font-size="13" font-weight="bold" lengthAdjust="spacing" textLength="25" x="193.5" y="239.7622">opt</text><text fill="#000000" font-family="sans-serif" font-size="11" font-weight="bold" lengthAdjust="spacing" textLength="56" x="263.5" y="238.9058">[if state]</text><line style="stroke:#181818;stroke-width:1.0;" x1="228" x2="270" y1="264.9609" y2="264.9609"/><line style="stroke:#181818;stroke-width:1.0;" x1="270" x2="270" y1="264.9609" y2="277.9609"/><line style="stroke:#181818;stroke-width:1.0;" x1="229" x2="270" y1="277.9609" y2="277.9609"/><polygon fill="#181818" points="239,273.9609,229,277.9609,239,281.9609,235,277.9609" style="stroke:#181818;stroke-width:1.0;"/><text fill="#000000" font-family="sans-serif" font-size="13" lengthAdjust="spacing" textLength="82" x="235" y="259.895">putInSession</text><line style="stroke:#181818;stroke-width:1.0;" x1="223" x2="270" y1="339.0938" y2="339.0938"/><line style="stroke:#181818;stroke-width:1.0;" x1="270" x2="270" y1="339.0938" y2="352.0938"/><line style="stroke:#181818;stroke-width:1.0;" x1="229" x2="270" y1="352.0938" y2="352.0938"/><polygon fill="#181818" points="239,348.0938,229,352.0938,239,356.0938,235,352.0938" style="stroke:#181818;stroke-width:1.0;"/><text fill="#000000" font-family="sans-serif" font-size="13" lengthAdjust="spacing" textLength="102" x="235" y="334.0278">doRenderConlet</text><polygon fill="#181818" points="87,382.2266,77,386.2266,87,390.2266,83,386.2266" style="stroke:#181818;stroke-width:1.0;"/><line style="stroke:#181818;stroke-width:1.0;" x1="81" x2="217" y1="386.2266" y2="386.2266"/><text fill="#000000" font-family="sans-serif" font-size="13" lengthAdjust="spacing" textLength="86" x="93" y="381.1606">RenderConlet</text><path d="M10,431.2266 L80,431.2266 L80,438.3594 L70,448.3594 L10,448.3594 L10,431.2266 " fill="#EEEEEE" style="stroke:#000000;stroke-width:1.5;"/><rect fill="none" height="76.2656" style="stroke:#000000;stroke-width:1.5;" width="247.5" x="10" y="431.2266"/><text fill="#000000" font-family="sans-serif" font-size="13" font-weight="bold" lengthAdjust="spacing" textLength="25" x="25" y="444.2935">opt</text><polygon fill="#181818" points="87,465.4922,77,469.4922,87,473.4922,83,469.4922" style="stroke:#181818;stroke-width:1.0;"/><line style="stroke:#181818;stroke-width:1.0;" x1="81" x2="217" y1="469.4922" y2="469.4922"/><text fill="#000000" font-family="sans-serif" font-size="13" lengthAdjust="spacing" textLength="107" x="93" y="464.4263">NotifyConletView</text><line style="stroke:#181818;stroke-width:1.0;" x1="223" x2="265" y1="535.625" y2="535.625"/><line style="stroke:#181818;stroke-width:1.0;" x1="265" x2="265" y1="535.625" y2="548.625"/><line style="stroke:#181818;stroke-width:1.0;" x1="224" x2="265" y1="548.625" y2="548.625"/><polygon fill="#181818" points="234,544.625,224,548.625,234,552.625,230,548.625" style="stroke:#181818;stroke-width:1.0;"/><text fill="#000000" font-family="sans-serif" font-size="13" lengthAdjust="spacing" textLength="128" x="230" y="530.5591">start conlet tracking</text><!--SRC=[ZP4z3i8m38NtdC8Nu08Ta11J5mQGO2x9Qub0CIGkFxSd9Vm4Q15UOiNFN_oSZJMWcbdMV5QagD9YZvM0LbXFsGNUGMKvZSOKqnsae8anAPtZq2A88eFUzkTbaglxcRCQEFWeALsGoccKfgSjmm-Jj4SKp71QI3p_e_1UoDOKKaSNtznzAwLR80JBBcc-C5tqqE5CzqBVi8RdiGh_aFxmzrfeGGDD-Su7lk8snxl173nZiVKbrPOMfm-ZEUd3R5vw6lxhm-BMlP1Ez-8hlRMkkG80]--></g></svg>