<?xml version="1.0" encoding="us-ascii" standalone="no"?><svg xmlns="http://www.w3.org/2000/svg" xmlns:xlink="http://www.w3.org/1999/xlink" contentStyleType="text/css" height="121px" preserveAspectRatio="none" style="width:216px;height:121px;background:#FFFFFF;" version="1.1" viewBox="0 0 216 121" width="216px" zoomAndPan="magnify"><defs/><g><rect fill="#FFFFFF" height="21.1328" style="stroke:#181818;stroke-width:1.0;" width="10" x="51" y="46.2969"/><rect fill="#FFFFFF" height="9" style="stroke:#181818;stroke-width:1.0;" width="10" x="51" y="96.5625"/><rect fill="#FFFFFF" height="29.1328" style="stroke:#181818;stroke-width:1.0;" width="10" x="176" y="67.4297"/><line style="stroke:#181818;stroke-width:0.5;stroke-dasharray:5.0,5.0;" x1="56" x2="56" y1="36.2969" y2="114.5625"/><line style="stroke:#181818;stroke-width:0.5;stroke-dasharray:5.0,5.0;" x1="180.5" x2="180.5" y1="36.2969" y2="114.5625"/><rect fill="#E2E2F0" height="30.2969" rx="2.5" ry="2.5" style="stroke:#181818;stroke-width:0.5;" width="102" x="5" y="5"/><text fill="#000000" font-family="sans-serif" font-size="14" lengthAdjust="spacing" textLength="88" x="12" y="24.9951">WebConsole</text><rect fill="#E2E2F0" height="30.2969" rx="2.5" ry="2.5" style="stroke:#181818;stroke-width:0.5;" width="59" x="151.5" y="5"/><text fill="#000000" font-family="sans-serif" font-size="14" lengthAdjust="spacing" textLength="45" x="158.5" y="24.9951">Conlet</text><rect fill="#FFFFFF" height="21.1328" style="stroke:#181818;stroke-width:1.0;" width="10" x="51" y="46.2969"/><rect fill="#FFFFFF" height="9" style="stroke:#181818;stroke-width:1.0;" width="10" x="51" y="96.5625"/><rect fill="#FFFFFF" height="29.1328" style="stroke:#181818;stroke-width:1.0;" width="10" x="176" y="67.4297"/><polygon fill="#181818" points="164,63.4297,174,67.4297,164,71.4297,168,67.4297" style="stroke:#181818;stroke-width:1.0;"/><line style="stroke:#181818;stroke-width:1.0;" x1="56" x2="170" y1="67.4297" y2="67.4297"/><text fill="#000000" font-family="sans-serif" font-size="13" lengthAdjust="spacing" textLength="90" x="63" y="62.3638">ConsoleReady</text><polygon fill="#181818" points="72,92.5625,62,96.5625,72,100.5625,68,96.5625" style="stroke:#181818;stroke-width:1.0;"/><line style="stroke:#181818;stroke-width:1.0;" x1="66" x2="180" y1="96.5625" y2="96.5625"/><text fill="#000000" font-family="sans-serif" font-size="13" lengthAdjust="spacing" textLength="96" x="78" y="91.4966">AddConletType</text><!--SRC=[oyXCILL8oyylISglu5BWKaXCBiaiIon9LGXFJNBEpolEpqdbGc8hwDef09avgILM2b2XeDJ4b4ekXPHKh5hXWX1TN50QP0v2cPM2OqeAH2AaiY1L0SKqc4QincEr5G00]--></g></svg>