<?xml version="1.0" encoding="UTF-8" standalone="no"?><svg xmlns="http://www.w3.org/2000/svg" xmlns:xlink="http://www.w3.org/1999/xlink" contentScriptType="application/ecmascript" contentStyleType="text/css" height="577px" preserveAspectRatio="none" style="width:367px;height:577px;background:#FFFFFF;" version="1.1" viewBox="0 0 367 577" width="367px" zoomAndPan="magnify"><defs><filter height="300%" id="f1w2ct6hxpkbha" width="300%" x="-1" y="-1"><feGaussianBlur result="blurOut" stdDeviation="2.0"/><feColorMatrix in="blurOut" result="blurOut2" type="matrix" values="0 0 0 0 0 0 0 0 0 0 0 0 0 0 0 0 0 0 .4 0"/><feOffset dx="4.0" dy="4.0" in="blurOut2" result="blurOut3"/><feBlend in="SourceGraphic" in2="blurOut3" mode="normal"/></filter></defs><g><rect fill="#FFFFFF" filter="url(#f1w2ct6hxpkbha)" height="21.1328" style="stroke:#A80036;stroke-width:1.0;" width="10" x="68" y="50.2969"/><rect fill="#FFFFFF" filter="url(#f1w2ct6hxpkbha)" height="30" style="stroke:#A80036;stroke-width:1.0;" width="10" x="68" y="390.2266"/><rect fill="#FFFFFF" filter="url(#f1w2ct6hxpkbha)" height="30" style="stroke:#A80036;stroke-width:1.0;" width="10" x="68" y="473.4922"/><rect fill="#FFFFFF" filter="url(#f1w2ct6hxpkbha)" height="490.1953" style="stroke:#A80036;stroke-width:1.0;" width="10" x="215" y="71.4297"/><rect fill="#FFFFFF" filter="url(#f1w2ct6hxpkbha)" height="28" style="stroke:#A80036;stroke-width:1.0;" width="10" x="220" y="108.5625"/><rect fill="#FFFFFF" filter="url(#f1w2ct6hxpkbha)" height="28" style="stroke:#A80036;stroke-width:1.0;" width="10" x="220" y="180.6953"/><rect fill="#FFFFFF" filter="url(#f1w2ct6hxpkbha)" height="28" style="stroke:#A80036;stroke-width:1.0;" width="10" x="220" y="276.9609"/><rect fill="#FFFFFF" filter="url(#f1w2ct6hxpkbha)" height="162.3984" style="stroke:#A80036;stroke-width:1.0;" width="10" x="220" y="356.0938"/><rect fill="#FFFFFF" filter="url(#f1w2ct6hxpkbha)" height="89.2656" style="stroke:#000000;stroke-width:2.0;" width="152.5" x="178.5" y="230.6953"/><rect fill="#FFFFFF" filter="url(#f1w2ct6hxpkbha)" height="76.2656" style="stroke:#000000;stroke-width:2.0;" width="251.5" x="10" y="435.2266"/><line style="stroke:#A80036;stroke-width:1.0;stroke-dasharray:5.0,5.0;" x1="73" x2="73" y1="40.2969" y2="570.625"/><line style="stroke:#A80036;stroke-width:1.0;stroke-dasharray:5.0,5.0;" x1="219.5" x2="219.5" y1="40.2969" y2="570.625"/><rect fill="#FEFECE" filter="url(#f1w2ct6hxpkbha)" height="30.2969" style="stroke:#A80036;stroke-width:1.5;" width="102" x="20" y="5"/><text fill="#000000" font-family="sans-serif" font-size="14" lengthAdjust="spacing" textLength="88" x="27" y="24.9951">WebConsole</text><rect fill="#FEFECE" filter="url(#f1w2ct6hxpkbha)" height="30.2969" style="stroke:#A80036;stroke-width:1.5;" width="59" x="188.5" y="5"/><text fill="#000000" font-family="sans-serif" font-size="14" lengthAdjust="spacing" textLength="45" x="195.5" y="24.9951">Conlet</text><rect fill="#FFFFFF" filter="url(#f1w2ct6hxpkbha)" height="21.1328" style="stroke:#A80036;stroke-width:1.0;" width="10" x="68" y="50.2969"/><rect fill="#FFFFFF" filter="url(#f1w2ct6hxpkbha)" height="30" style="stroke:#A80036;stroke-width:1.0;" width="10" x="68" y="390.2266"/><rect fill="#FFFFFF" filter="url(#f1w2ct6hxpkbha)" height="30" style="stroke:#A80036;stroke-width:1.0;" width="10" x="68" y="473.4922"/><rect fill="#FFFFFF" filter="url(#f1w2ct6hxpkbha)" height="490.1953" style="stroke:#A80036;stroke-width:1.0;" width="10" x="215" y="71.4297"/><rect fill="#FFFFFF" filter="url(#f1w2ct6hxpkbha)" height="28" style="stroke:#A80036;stroke-width:1.0;" width="10" x="220" y="108.5625"/><rect fill="#FFFFFF" filter="url(#f1w2ct6hxpkbha)" height="28" style="stroke:#A80036;stroke-width:1.0;" width="10" x="220" y="180.6953"/><rect fill="#FFFFFF" filter="url(#f1w2ct6hxpkbha)" height="28" style="stroke:#A80036;stroke-width:1.0;" width="10" x="220" y="276.9609"/><rect fill="#FFFFFF" filter="url(#f1w2ct6hxpkbha)" height="162.3984" style="stroke:#A80036;stroke-width:1.0;" width="10" x="220" y="356.0938"/><polygon fill="#A80036" points="203,67.4297,213,71.4297,203,75.4297,207,71.4297" style="stroke:#A80036;stroke-width:1.0;"/><line style="stroke:#A80036;stroke-width:1.0;" x1="73" x2="209" y1="71.4297" y2="71.4297"/><text fill="#000000" font-family="sans-serif" font-size="13" lengthAdjust="spacing" textLength="118" x="80" y="66.3638">AddConletRequest</text><line style="stroke:#A80036;stroke-width:1.0;" x1="230" x2="272" y1="100.5625" y2="100.5625"/><line style="stroke:#A80036;stroke-width:1.0;" x1="272" x2="272" y1="100.5625" y2="113.5625"/><line style="stroke:#A80036;stroke-width:1.0;" x1="231" x2="272" y1="113.5625" y2="113.5625"/><polygon fill="#A80036" points="241,109.5625,231,113.5625,241,117.5625,237,113.5625" style="stroke:#A80036;stroke-width:1.0;"/><text fill="#000000" font-family="sans-serif" font-size="13" lengthAdjust="spacing" textLength="123" x="237" y="95.4966">generateInstanceId</text><line style="stroke:#A80036;stroke-width:1.0;" x1="230" x2="272" y1="172.6953" y2="172.6953"/><line style="stroke:#A80036;stroke-width:1.0;" x1="272" x2="272" y1="172.6953" y2="185.6953"/><line style="stroke:#A80036;stroke-width:1.0;" x1="231" x2="272" y1="185.6953" y2="185.6953"/><polygon fill="#A80036" points="241,181.6953,231,185.6953,241,189.6953,237,185.6953" style="stroke:#A80036;stroke-width:1.0;"/><text fill="#000000" font-family="sans-serif" font-size="13" lengthAdjust="spacing" textLength="103" x="237" y="167.6294">createNewState</text><path d="M178.5,230.6953 L248.5,230.6953 L248.5,237.6953 L238.5,247.6953 L178.5,247.6953 L178.5,230.6953 " fill="#EEEEEE" style="stroke:#000000;stroke-width:1.0;"/><rect fill="none" height="89.2656" style="stroke:#000000;stroke-width:2.0;" width="152.5" x="178.5" y="230.6953"/><text fill="#000000" font-family="sans-serif" font-size="13" font-weight="bold" lengthAdjust="spacing" textLength="25" x="193.5" y="243.7622">opt</text><text fill="#000000" font-family="sans-serif" font-size="11" font-weight="bold" lengthAdjust="spacing" textLength="56" x="263.5" y="242.9058">[if state]</text><line style="stroke:#A80036;stroke-width:1.0;" x1="230" x2="272" y1="268.9609" y2="268.9609"/><line style="stroke:#A80036;stroke-width:1.0;" x1="272" x2="272" y1="268.9609" y2="281.9609"/><line style="stroke:#A80036;stroke-width:1.0;" x1="231" x2="272" y1="281.9609" y2="281.9609"/><polygon fill="#A80036" points="241,277.9609,231,281.9609,241,285.9609,237,281.9609" style="stroke:#A80036;stroke-width:1.0;"/><text fill="#000000" font-family="sans-serif" font-size="13" lengthAdjust="spacing" textLength="82" x="237" y="263.895">putInSession</text><line style="stroke:#A80036;stroke-width:1.0;" x1="225" x2="272" y1="343.0938" y2="343.0938"/><line style="stroke:#A80036;stroke-width:1.0;" x1="272" x2="272" y1="343.0938" y2="356.0938"/><line style="stroke:#A80036;stroke-width:1.0;" x1="231" x2="272" y1="356.0938" y2="356.0938"/><polygon fill="#A80036" points="241,352.0938,231,356.0938,241,360.0938,237,356.0938" style="stroke:#A80036;stroke-width:1.0;"/><text fill="#000000" font-family="sans-serif" font-size="13" lengthAdjust="spacing" textLength="102" x="237" y="338.0278">doRenderConlet</text><polygon fill="#A80036" points="89,386.2266,79,390.2266,89,394.2266,85,390.2266" style="stroke:#A80036;stroke-width:1.0;"/><line style="stroke:#A80036;stroke-width:1.0;" x1="83" x2="219" y1="390.2266" y2="390.2266"/><text fill="#000000" font-family="sans-serif" font-size="13" lengthAdjust="spacing" textLength="86" x="95" y="385.1606">RenderConlet</text><path d="M10,435.2266 L80,435.2266 L80,442.2266 L70,452.2266 L10,452.2266 L10,435.2266 " fill="#EEEEEE" style="stroke:#000000;stroke-width:1.0;"/><rect fill="none" height="76.2656" style="stroke:#000000;stroke-width:2.0;" width="251.5" x="10" y="435.2266"/><text fill="#000000" font-family="sans-serif" font-size="13" font-weight="bold" lengthAdjust="spacing" textLength="25" x="25" y="448.2935">opt</text><polygon fill="#A80036" points="89,469.4922,79,473.4922,89,477.4922,85,473.4922" style="stroke:#A80036;stroke-width:1.0;"/><line style="stroke:#A80036;stroke-width:1.0;" x1="83" x2="219" y1="473.4922" y2="473.4922"/><text fill="#000000" font-family="sans-serif" font-size="13" lengthAdjust="spacing" textLength="107" x="95" y="468.4263">NotifyConletView</text><line style="stroke:#A80036;stroke-width:1.0;" x1="225" x2="267" y1="539.625" y2="539.625"/><line style="stroke:#A80036;stroke-width:1.0;" x1="267" x2="267" y1="539.625" y2="552.625"/><line style="stroke:#A80036;stroke-width:1.0;" x1="226" x2="267" y1="552.625" y2="552.625"/><polygon fill="#A80036" points="236,548.625,226,552.625,236,556.625,232,552.625" style="stroke:#A80036;stroke-width:1.0;"/><text fill="#000000" font-family="sans-serif" font-size="13" lengthAdjust="spacing" textLength="128" x="232" y="534.5591">start conlet tracking</text><!--MD5=[ea435abac4eef50ac548f5cd6c413bde]
@startuml
hide footbox
 
 activate WebConsole
 WebConsole -> Conlet: AddConletRequest
 deactivate WebConsole
 activate Conlet
 Conlet -> Conlet: generateInstanceId
 activate Conlet
 deactivate Conlet
 Conlet -> Conlet: createNewState
 activate Conlet
 deactivate Conlet
 opt if state
     Conlet -> Conlet: putInSession
     activate Conlet
     deactivate Conlet
 end opt
 Conlet -> Conlet: doRenderConlet
 activate Conlet
 Conlet -> WebConsole: RenderConlet
 activate WebConsole
 deactivate WebConsole
 opt
     Conlet -> WebConsole: NotifyConletView
     activate WebConsole
     deactivate WebConsole
 end opt
 deactivate Conlet
 Conlet -> Conlet: start conlet tracking
@enduml

PlantUML version 1.2022.1(Tue Feb 01 18:19:58 UTC 2022)
(GPL source distribution)
Java Runtime: OpenJDK Runtime Environment
JVM: OpenJDK 64-Bit Server VM
Default Encoding: UTF-8
Language: en
Country: 
--></g></svg>