<?xml version="1.0" encoding="UTF-8" standalone="no"?><svg xmlns="http://www.w3.org/2000/svg" xmlns:xlink="http://www.w3.org/1999/xlink" contentScriptType="application/ecmascript" contentStyleType="text/css" height="538px" preserveAspectRatio="none" style="width:378px;height:538px;" version="1.1" viewBox="0 0 378 538" width="378px" zoomAndPan="magnify"><defs><filter height="300%" id="f1ozprjz1vv5of" width="300%" x="-1" y="-1"><feGaussianBlur result="blurOut" stdDeviation="2.0"/><feColorMatrix in="blurOut" result="blurOut2" type="matrix" values="0 0 0 0 0 0 0 0 0 0 0 0 0 0 0 0 0 0 .4 0"/><feOffset dx="4.0" dy="4.0" in="blurOut2" result="blurOut3"/><feBlend in="SourceGraphic" in2="blurOut3" mode="normal"/></filter></defs><g><rect fill="#FFFFFF" filter="url(#f1ozprjz1vv5of)" height="21" style="stroke: #A80036; stroke-width: 1.0;" width="10" x="71" y="48.2969"/><rect fill="#FFFFFF" filter="url(#f1ozprjz1vv5of)" height="30" style="stroke: #A80036; stroke-width: 1.0;" width="10" x="71" y="315.9609"/><rect fill="#FFFFFF" filter="url(#f1ozprjz1vv5of)" height="30" style="stroke: #A80036; stroke-width: 1.0;" width="10" x="71" y="399.2266"/><rect fill="#FFFFFF" filter="url(#f1ozprjz1vv5of)" height="432.0625" style="stroke: #A80036; stroke-width: 1.0;" width="10" x="218" y="69.2969"/><rect fill="#FFFFFF" filter="url(#f1ozprjz1vv5of)" height="337.9297" style="stroke: #A80036; stroke-width: 1.0;" width="10" x="223" y="106.4297"/><rect fill="#FFFFFF" filter="url(#f1ozprjz1vv5of)" height="28" style="stroke: #A80036; stroke-width: 1.0;" width="10" x="228" y="172.6953"/><rect fill="#FFFFFF" filter="url(#f1ozprjz1vv5of)" height="28" style="stroke: #A80036; stroke-width: 1.0;" width="10" x="228" y="251.8281"/><rect fill="#FFFFFF" filter="url(#f1ozprjz1vv5of)" height="28" style="stroke: #A80036; stroke-width: 1.0;" width="10" x="223" y="473.3594"/><rect fill="#FFFFFF" filter="url(#f1ozprjz1vv5of)" height="89.2656" style="stroke: #000000; stroke-width: 2.0;" width="185.5" x="181.5" y="126.5625"/><rect fill="#FFFFFF" filter="url(#f1ozprjz1vv5of)" height="76.2656" style="stroke: #000000; stroke-width: 2.0;" width="251.5" x="13" y="361.0938"/><line style="stroke: #A80036; stroke-width: 1.0; stroke-dasharray: 5.0,5.0;" x1="76" x2="76" y1="38.2969" y2="526.4922"/><line style="stroke: #A80036; stroke-width: 1.0; stroke-dasharray: 5.0,5.0;" x1="222.5" x2="222.5" y1="38.2969" y2="526.4922"/><rect fill="#FEFECE" filter="url(#f1ozprjz1vv5of)" height="30.2969" style="stroke: #A80036; stroke-width: 1.5;" width="102" x="23" y="3"/><text fill="#000000" font-family="sans-serif" font-size="14" lengthAdjust="spacingAndGlyphs" textLength="88" x="30" y="22.9951">WebConsole</text><rect fill="#FEFECE" filter="url(#f1ozprjz1vv5of)" height="30.2969" style="stroke: #A80036; stroke-width: 1.5;" width="59" x="191.5" y="3"/><text fill="#000000" font-family="sans-serif" font-size="14" lengthAdjust="spacingAndGlyphs" textLength="45" x="198.5" y="22.9951">Conlet</text><rect fill="#FFFFFF" filter="url(#f1ozprjz1vv5of)" height="21" style="stroke: #A80036; stroke-width: 1.0;" width="10" x="71" y="48.2969"/><rect fill="#FFFFFF" filter="url(#f1ozprjz1vv5of)" height="30" style="stroke: #A80036; stroke-width: 1.0;" width="10" x="71" y="315.9609"/><rect fill="#FFFFFF" filter="url(#f1ozprjz1vv5of)" height="30" style="stroke: #A80036; stroke-width: 1.0;" width="10" x="71" y="399.2266"/><rect fill="#FFFFFF" filter="url(#f1ozprjz1vv5of)" height="432.0625" style="stroke: #A80036; stroke-width: 1.0;" width="10" x="218" y="69.2969"/><rect fill="#FFFFFF" filter="url(#f1ozprjz1vv5of)" height="337.9297" style="stroke: #A80036; stroke-width: 1.0;" width="10" x="223" y="106.4297"/><rect fill="#FFFFFF" filter="url(#f1ozprjz1vv5of)" height="28" style="stroke: #A80036; stroke-width: 1.0;" width="10" x="228" y="172.6953"/><rect fill="#FFFFFF" filter="url(#f1ozprjz1vv5of)" height="28" style="stroke: #A80036; stroke-width: 1.0;" width="10" x="228" y="251.8281"/><rect fill="#FFFFFF" filter="url(#f1ozprjz1vv5of)" height="28" style="stroke: #A80036; stroke-width: 1.0;" width="10" x="223" y="473.3594"/><polygon fill="#A80036" points="206,65.2969,216,69.2969,206,73.2969,210,69.2969" style="stroke: #A80036; stroke-width: 1.0;"/><line style="stroke: #A80036; stroke-width: 1.0;" x1="76" x2="212" y1="69.2969" y2="69.2969"/><text fill="#000000" font-family="sans-serif" font-size="13" lengthAdjust="spacingAndGlyphs" textLength="118" x="83" y="64.3638">AddConletRequest</text><line style="stroke: #A80036; stroke-width: 1.0;" x1="228" x2="275" y1="93.5625" y2="93.5625"/><line style="stroke: #A80036; stroke-width: 1.0;" x1="275" x2="275" y1="93.5625" y2="106.5625"/><line style="stroke: #A80036; stroke-width: 1.0;" x1="234" x2="275" y1="106.5625" y2="106.5625"/><polygon fill="#A80036" points="244,102.5625,234,106.5625,244,110.5625,240,106.5625" style="stroke: #A80036; stroke-width: 1.0;"/><text fill="#000000" font-family="sans-serif" font-size="13" lengthAdjust="spacingAndGlyphs" textLength="82" x="240" y="88.4966">doAddConlet</text><rect fill="none" height="89.2656" style="stroke: #000000; stroke-width: 2.0;" width="185.5" x="181.5" y="126.5625"/><polygon fill="#EEEEEE" points="181.5,126.5625,251.5,126.5625,251.5,133.5625,241.5,143.5625,181.5,143.5625,181.5,126.5625" style="stroke: #000000; stroke-width: 2.0;"/><text fill="#000000" font-family="sans-serif" font-size="13" font-weight="bold" lengthAdjust="spacingAndGlyphs" textLength="25" x="196.5" y="139.6294">opt</text><line style="stroke: #A80036; stroke-width: 1.0;" x1="238" x2="280" y1="164.8281" y2="164.8281"/><line style="stroke: #A80036; stroke-width: 1.0;" x1="280" x2="280" y1="164.8281" y2="177.8281"/><line style="stroke: #A80036; stroke-width: 1.0;" x1="239" x2="280" y1="177.8281" y2="177.8281"/><polygon fill="#A80036" points="249,173.8281,239,177.8281,249,181.8281,245,177.8281" style="stroke: #A80036; stroke-width: 1.0;"/><text fill="#000000" font-family="sans-serif" font-size="13" lengthAdjust="spacingAndGlyphs" textLength="110" x="245" y="159.7622">generateConletId</text><line style="stroke: #A80036; stroke-width: 1.0;" x1="238" x2="280" y1="243.9609" y2="243.9609"/><line style="stroke: #A80036; stroke-width: 1.0;" x1="280" x2="280" y1="243.9609" y2="256.9609"/><line style="stroke: #A80036; stroke-width: 1.0;" x1="239" x2="280" y1="256.9609" y2="256.9609"/><polygon fill="#A80036" points="249,252.9609,239,256.9609,249,260.9609,245,256.9609" style="stroke: #A80036; stroke-width: 1.0;"/><text fill="#000000" font-family="sans-serif" font-size="13" lengthAdjust="spacingAndGlyphs" textLength="82" x="245" y="238.895">putInSession</text><polygon fill="#A80036" points="92,311.9609,82,315.9609,92,319.9609,88,315.9609" style="stroke: #A80036; stroke-width: 1.0;"/><line style="stroke: #A80036; stroke-width: 1.0;" x1="86" x2="222" y1="315.9609" y2="315.9609"/><text fill="#000000" font-family="sans-serif" font-size="13" lengthAdjust="spacingAndGlyphs" textLength="86" x="98" y="311.0278">RenderConlet</text><rect fill="none" height="76.2656" style="stroke: #000000; stroke-width: 2.0;" width="251.5" x="13" y="361.0938"/><polygon fill="#EEEEEE" points="13,361.0938,83,361.0938,83,368.0938,73,378.0938,13,378.0938,13,361.0938" style="stroke: #000000; stroke-width: 2.0;"/><text fill="#000000" font-family="sans-serif" font-size="13" font-weight="bold" lengthAdjust="spacingAndGlyphs" textLength="25" x="28" y="374.1606">opt</text><polygon fill="#A80036" points="92,395.2266,82,399.2266,92,403.2266,88,399.2266" style="stroke: #A80036; stroke-width: 1.0;"/><line style="stroke: #A80036; stroke-width: 1.0;" x1="86" x2="222" y1="399.2266" y2="399.2266"/><text fill="#000000" font-family="sans-serif" font-size="13" lengthAdjust="spacingAndGlyphs" textLength="107" x="98" y="394.2935">NotifyConletView</text><line style="stroke: #A80036; stroke-width: 1.0;" x1="233" x2="275" y1="465.4922" y2="465.4922"/><line style="stroke: #A80036; stroke-width: 1.0;" x1="275" x2="275" y1="465.4922" y2="478.4922"/><line style="stroke: #A80036; stroke-width: 1.0;" x1="234" x2="275" y1="478.4922" y2="478.4922"/><polygon fill="#A80036" points="244,474.4922,234,478.4922,244,482.4922,240,478.4922" style="stroke: #A80036; stroke-width: 1.0;"/><text fill="#000000" font-family="sans-serif" font-size="13" lengthAdjust="spacingAndGlyphs" textLength="73" x="240" y="460.4263">trackConlet</text><!--
@startuml
hide footbox
 
 activate WebConsole
 WebConsole -> Conlet: AddConletRequest
 deactivate WebConsole
 activate Conlet
 Conlet -> Conlet: doAddConlet
 activate Conlet
 opt
 	   Conlet -> Conlet: generateConletId
 activate Conlet
 deactivate Conlet
 end opt
 Conlet -> Conlet: putInSession
 activate Conlet
 deactivate Conlet
 Conlet -> WebConsole: RenderConlet
 activate WebConsole
 deactivate WebConsole
 opt 
     Conlet -> WebConsole: NotifyConletView
 activate WebConsole
 deactivate WebConsole
 end opt 
 deactivate Conlet
 Conlet -> Conlet: trackConlet
 activate Conlet
 deactivate Conlet
 deactivate Conlet
@enduml

PlantUML version 1.2017.18(Fri Oct 06 16:56:32 UTC 2017)
(GPL source distribution)
Java Runtime: OpenJDK Runtime Environment
JVM: OpenJDK 64-Bit Server VM
Java Version: 1.8.0_282-b08
Operating System: Linux
OS Version: 5.4.0-1040-azure
Default Encoding: UTF-8
Language: en
Country: null
--></g></svg>