<?xml version="1.0" encoding="UTF-8" standalone="no"?><svg xmlns="http://www.w3.org/2000/svg" xmlns:xlink="http://www.w3.org/1999/xlink" contentScriptType="application/ecmascript" contentStyleType="text/css" height="346px" preserveAspectRatio="none" style="width:374px;height:346px;" version="1.1" viewBox="0 0 374 346" width="374px" zoomAndPan="magnify"><defs><filter height="300%" id="f8giww87efg2r" width="300%" x="-1" y="-1"><feGaussianBlur result="blurOut" stdDeviation="2.0"/><feColorMatrix in="blurOut" result="blurOut2" type="matrix" values="0 0 0 0 0 0 0 0 0 0 0 0 0 0 0 0 0 0 .4 0"/><feOffset dx="4.0" dy="4.0" in="blurOut2" result="blurOut3"/><feBlend in="SourceGraphic" in2="blurOut3" mode="normal"/></filter></defs><g><rect fill="#FFFFFF" filter="url(#f8giww87efg2r)" height="21" style="stroke: #A80036; stroke-width: 1.0;" width="10" x="71" y="48.2969"/><rect fill="#FFFFFF" filter="url(#f8giww87efg2r)" height="255.0625" style="stroke: #A80036; stroke-width: 1.0;" width="10" x="218" y="69.2969"/><rect fill="#FFFFFF" filter="url(#f8giww87efg2r)" height="217.9297" style="stroke: #A80036; stroke-width: 1.0;" width="10" x="223" y="106.4297"/><rect fill="#FFFFFF" filter="url(#f8giww87efg2r)" height="59.2656" style="stroke: #000000; stroke-width: 2.0;" width="181.5" x="181.5" y="126.5625"/><rect fill="#FFFFFF" filter="url(#f8giww87efg2r)" height="46.2656" style="stroke: #000000; stroke-width: 2.0;" width="251.5" x="13" y="271.0938"/><line style="stroke: #A80036; stroke-width: 1.0; stroke-dasharray: 5.0,5.0;" x1="76" x2="76" y1="38.2969" y2="334.3594"/><line style="stroke: #A80036; stroke-width: 1.0; stroke-dasharray: 5.0,5.0;" x1="222.5" x2="222.5" y1="38.2969" y2="334.3594"/><rect fill="#FEFECE" filter="url(#f8giww87efg2r)" height="30.2969" style="stroke: #A80036; stroke-width: 1.5;" width="102" x="23" y="3"/><text fill="#000000" font-family="sans-serif" font-size="14" lengthAdjust="spacingAndGlyphs" textLength="88" x="30" y="22.9951">WebConsole</text><rect fill="#FEFECE" filter="url(#f8giww87efg2r)" height="30.2969" style="stroke: #A80036; stroke-width: 1.5;" width="59" x="191.5" y="3"/><text fill="#000000" font-family="sans-serif" font-size="14" lengthAdjust="spacingAndGlyphs" textLength="45" x="198.5" y="22.9951">Conlet</text><rect fill="#FFFFFF" filter="url(#f8giww87efg2r)" height="21" style="stroke: #A80036; stroke-width: 1.0;" width="10" x="71" y="48.2969"/><rect fill="#FFFFFF" filter="url(#f8giww87efg2r)" height="255.0625" style="stroke: #A80036; stroke-width: 1.0;" width="10" x="218" y="69.2969"/><rect fill="#FFFFFF" filter="url(#f8giww87efg2r)" height="217.9297" style="stroke: #A80036; stroke-width: 1.0;" width="10" x="223" y="106.4297"/><polygon fill="#A80036" points="206,65.2969,216,69.2969,206,73.2969,210,69.2969" style="stroke: #A80036; stroke-width: 1.0;"/><line style="stroke: #A80036; stroke-width: 1.0;" x1="76" x2="212" y1="69.2969" y2="69.2969"/><text fill="#000000" font-family="sans-serif" font-size="13" lengthAdjust="spacingAndGlyphs" textLength="118" x="83" y="64.3638">AddConletRequest</text><line style="stroke: #A80036; stroke-width: 1.0;" x1="228" x2="275" y1="93.5625" y2="93.5625"/><line style="stroke: #A80036; stroke-width: 1.0;" x1="275" x2="275" y1="93.5625" y2="106.5625"/><line style="stroke: #A80036; stroke-width: 1.0;" x1="234" x2="275" y1="106.5625" y2="106.5625"/><polygon fill="#A80036" points="244,102.5625,234,106.5625,244,110.5625,240,106.5625" style="stroke: #A80036; stroke-width: 1.0;"/><text fill="#000000" font-family="sans-serif" font-size="13" lengthAdjust="spacingAndGlyphs" textLength="83" x="240" y="88.4966">doAddPortlet</text><rect fill="none" height="59.2656" style="stroke: #000000; stroke-width: 2.0;" width="181.5" x="181.5" y="126.5625"/><polygon fill="#EEEEEE" points="181.5,126.5625,251.5,126.5625,251.5,133.5625,241.5,143.5625,181.5,143.5625,181.5,126.5625" style="stroke: #000000; stroke-width: 2.0;"/><text fill="#000000" font-family="sans-serif" font-size="13" font-weight="bold" lengthAdjust="spacingAndGlyphs" textLength="25" x="196.5" y="139.6294">opt</text><line style="stroke: #A80036; stroke-width: 1.0;" x1="233" x2="275" y1="164.8281" y2="164.8281"/><line style="stroke: #A80036; stroke-width: 1.0;" x1="275" x2="275" y1="164.8281" y2="177.8281"/><line style="stroke: #A80036; stroke-width: 1.0;" x1="234" x2="275" y1="177.8281" y2="177.8281"/><polygon fill="#A80036" points="244,173.8281,234,177.8281,244,181.8281,240,177.8281" style="stroke: #A80036; stroke-width: 1.0;"/><text fill="#000000" font-family="sans-serif" font-size="13" lengthAdjust="spacingAndGlyphs" textLength="111" x="240" y="159.7622">generatePortletId</text><line style="stroke: #A80036; stroke-width: 1.0;" x1="233" x2="275" y1="213.9609" y2="213.9609"/><line style="stroke: #A80036; stroke-width: 1.0;" x1="275" x2="275" y1="213.9609" y2="226.9609"/><line style="stroke: #A80036; stroke-width: 1.0;" x1="234" x2="275" y1="226.9609" y2="226.9609"/><polygon fill="#A80036" points="244,222.9609,234,226.9609,244,230.9609,240,226.9609" style="stroke: #A80036; stroke-width: 1.0;"/><text fill="#000000" font-family="sans-serif" font-size="13" lengthAdjust="spacingAndGlyphs" textLength="82" x="240" y="208.895">putInSession</text><polygon fill="#A80036" points="87,251.9609,77,255.9609,87,259.9609,83,255.9609" style="stroke: #A80036; stroke-width: 1.0;"/><line style="stroke: #A80036; stroke-width: 1.0;" x1="81" x2="222" y1="255.9609" y2="255.9609"/><text fill="#000000" font-family="sans-serif" font-size="13" lengthAdjust="spacingAndGlyphs" textLength="86" x="93" y="251.0278">RenderConlet</text><rect fill="none" height="46.2656" style="stroke: #000000; stroke-width: 2.0;" width="251.5" x="13" y="271.0938"/><polygon fill="#EEEEEE" points="13,271.0938,83,271.0938,83,278.0938,73,288.0938,13,288.0938,13,271.0938" style="stroke: #000000; stroke-width: 2.0;"/><text fill="#000000" font-family="sans-serif" font-size="13" font-weight="bold" lengthAdjust="spacingAndGlyphs" textLength="25" x="28" y="284.1606">opt</text><polygon fill="#A80036" points="87,305.2266,77,309.2266,87,313.2266,83,309.2266" style="stroke: #A80036; stroke-width: 1.0;"/><line style="stroke: #A80036; stroke-width: 1.0;" x1="81" x2="222" y1="309.2266" y2="309.2266"/><text fill="#000000" font-family="sans-serif" font-size="13" lengthAdjust="spacingAndGlyphs" textLength="107" x="93" y="304.2935">NotifyConletView</text><!--
@startuml
hide footbox
 
 activate WebConsole
 WebConsole -> Conlet: AddConletRequest
 deactivate WebConsole
 activate Conlet
 Conlet -> Conlet: doAddPortlet
 activate Conlet
 opt
 	   Conlet -> Conlet: generatePortletId
 end opt
 Conlet -> Conlet: putInSession
 Conlet -> WebConsole: RenderConlet
 opt 
     Conlet -> WebConsole: NotifyConletView
 end opt 
 deactivate Conlet
 deactivate Conlet
 activate WebConsole
 deactivate WebConsole
@enduml

PlantUML version 1.2017.18(Fri Oct 06 16:56:32 UTC 2017)
(GPL source distribution)
Java Runtime: OpenJDK Runtime Environment
JVM: OpenJDK 64-Bit Server VM
Java Version: 1.8.0_222-8u222-b10-1ubuntu1~16.04.1-b10
Operating System: Linux
OS Version: 4.15.0-1050-gcp
Default Encoding: UTF-8
Language: en
Country: US
--></g></svg>