<?xml version="1.0" encoding="UTF-8" standalone="no"?><svg xmlns="http://www.w3.org/2000/svg" xmlns:xlink="http://www.w3.org/1999/xlink" contentScriptType="application/ecmascript" contentStyleType="text/css" height="346px" preserveAspectRatio="none" style="width:408px;height:346px;" version="1.1" viewBox="0 0 408 346" width="408px" zoomAndPan="magnify"><defs><filter height="300%" id="fpx0ry5la9695" width="300%" x="-1" y="-1"><feGaussianBlur result="blurOut" stdDeviation="2.0"/><feColorMatrix in="blurOut" result="blurOut2" type="matrix" values="0 0 0 0 0 0 0 0 0 0 0 0 0 0 0 0 0 0 .4 0"/><feOffset dx="4.0" dy="4.0" in="blurOut2" result="blurOut3"/><feBlend in="SourceGraphic" in2="blurOut3" mode="normal"/></filter></defs><g><rect fill="#FFFFFF" filter="url(#fpx0ry5la9695)" height="21" style="stroke: #A80036; stroke-width: 1.0;" width="10" x="71" y="48.2969"/><rect fill="#FFFFFF" filter="url(#fpx0ry5la9695)" height="255.0625" style="stroke: #A80036; stroke-width: 1.0;" width="10" x="252" y="69.2969"/><rect fill="#FFFFFF" filter="url(#fpx0ry5la9695)" height="217.9297" style="stroke: #A80036; stroke-width: 1.0;" width="10" x="257" y="106.4297"/><rect fill="#FFFFFF" filter="url(#fpx0ry5la9695)" height="59.2656" style="stroke: #000000; stroke-width: 2.0;" width="228.5" x="168.5" y="126.5625"/><rect fill="#FFFFFF" filter="url(#fpx0ry5la9695)" height="46.2656" style="stroke: #000000; stroke-width: 2.0;" width="332.5" x="13" y="271.0938"/><line style="stroke: #A80036; stroke-width: 1.0; stroke-dasharray: 5.0,5.0;" x1="76" x2="76" y1="38.2969" y2="334.3594"/><line style="stroke: #A80036; stroke-width: 1.0; stroke-dasharray: 5.0,5.0;" x1="256.5" x2="256.5" y1="38.2969" y2="334.3594"/><rect fill="#FEFECE" filter="url(#fpx0ry5la9695)" height="30.2969" style="stroke: #A80036; stroke-width: 1.5;" width="102" x="23" y="3"/><text fill="#000000" font-family="sans-serif" font-size="14" lengthAdjust="spacingAndGlyphs" textLength="88" x="30" y="22.9951">WebConsole</text><rect fill="#FEFECE" filter="url(#fpx0ry5la9695)" height="30.2969" style="stroke: #A80036; stroke-width: 1.5;" width="153" x="178.5" y="3"/><text fill="#000000" font-family="sans-serif" font-size="14" lengthAdjust="spacingAndGlyphs" textLength="139" x="185.5" y="22.9951">ConsoleComponent</text><rect fill="#FFFFFF" filter="url(#fpx0ry5la9695)" height="21" style="stroke: #A80036; stroke-width: 1.0;" width="10" x="71" y="48.2969"/><rect fill="#FFFFFF" filter="url(#fpx0ry5la9695)" height="255.0625" style="stroke: #A80036; stroke-width: 1.0;" width="10" x="252" y="69.2969"/><rect fill="#FFFFFF" filter="url(#fpx0ry5la9695)" height="217.9297" style="stroke: #A80036; stroke-width: 1.0;" width="10" x="257" y="106.4297"/><polygon fill="#A80036" points="240,65.2969,250,69.2969,240,73.2969,244,69.2969" style="stroke: #A80036; stroke-width: 1.0;"/><line style="stroke: #A80036; stroke-width: 1.0;" x1="76" x2="246" y1="69.2969" y2="69.2969"/><text fill="#000000" font-family="sans-serif" font-size="13" lengthAdjust="spacingAndGlyphs" textLength="152" x="83" y="64.3638">AddComponentRequest</text><line style="stroke: #A80036; stroke-width: 1.0;" x1="262" x2="309" y1="93.5625" y2="93.5625"/><line style="stroke: #A80036; stroke-width: 1.0;" x1="309" x2="309" y1="93.5625" y2="106.5625"/><line style="stroke: #A80036; stroke-width: 1.0;" x1="268" x2="309" y1="106.5625" y2="106.5625"/><polygon fill="#A80036" points="278,102.5625,268,106.5625,278,110.5625,274,106.5625" style="stroke: #A80036; stroke-width: 1.0;"/><text fill="#000000" font-family="sans-serif" font-size="13" lengthAdjust="spacingAndGlyphs" textLength="83" x="274" y="88.4966">doAddPortlet</text><rect fill="none" height="59.2656" style="stroke: #000000; stroke-width: 2.0;" width="228.5" x="168.5" y="126.5625"/><polygon fill="#EEEEEE" points="168.5,126.5625,238.5,126.5625,238.5,133.5625,228.5,143.5625,168.5,143.5625,168.5,126.5625" style="stroke: #000000; stroke-width: 2.0;"/><text fill="#000000" font-family="sans-serif" font-size="13" font-weight="bold" lengthAdjust="spacingAndGlyphs" textLength="25" x="183.5" y="139.6294">opt</text><line style="stroke: #A80036; stroke-width: 1.0;" x1="267" x2="309" y1="164.8281" y2="164.8281"/><line style="stroke: #A80036; stroke-width: 1.0;" x1="309" x2="309" y1="164.8281" y2="177.8281"/><line style="stroke: #A80036; stroke-width: 1.0;" x1="268" x2="309" y1="177.8281" y2="177.8281"/><polygon fill="#A80036" points="278,173.8281,268,177.8281,278,181.8281,274,177.8281" style="stroke: #A80036; stroke-width: 1.0;"/><text fill="#000000" font-family="sans-serif" font-size="13" lengthAdjust="spacingAndGlyphs" textLength="111" x="274" y="159.7622">generatePortletId</text><line style="stroke: #A80036; stroke-width: 1.0;" x1="267" x2="309" y1="213.9609" y2="213.9609"/><line style="stroke: #A80036; stroke-width: 1.0;" x1="309" x2="309" y1="213.9609" y2="226.9609"/><line style="stroke: #A80036; stroke-width: 1.0;" x1="268" x2="309" y1="226.9609" y2="226.9609"/><polygon fill="#A80036" points="278,222.9609,268,226.9609,278,230.9609,274,226.9609" style="stroke: #A80036; stroke-width: 1.0;"/><text fill="#000000" font-family="sans-serif" font-size="13" lengthAdjust="spacingAndGlyphs" textLength="82" x="274" y="208.895">putInSession</text><polygon fill="#A80036" points="87,251.9609,77,255.9609,87,259.9609,83,255.9609" style="stroke: #A80036; stroke-width: 1.0;"/><line style="stroke: #A80036; stroke-width: 1.0;" x1="81" x2="256" y1="255.9609" y2="255.9609"/><text fill="#000000" font-family="sans-serif" font-size="13" lengthAdjust="spacingAndGlyphs" textLength="120" x="93" y="251.0278">RenderComponent</text><rect fill="none" height="46.2656" style="stroke: #000000; stroke-width: 2.0;" width="332.5" x="13" y="271.0938"/><polygon fill="#EEEEEE" points="13,271.0938,83,271.0938,83,278.0938,73,288.0938,13,288.0938,13,271.0938" style="stroke: #000000; stroke-width: 2.0;"/><text fill="#000000" font-family="sans-serif" font-size="13" font-weight="bold" lengthAdjust="spacingAndGlyphs" textLength="25" x="28" y="284.1606">opt</text><polygon fill="#A80036" points="87,305.2266,77,309.2266,87,313.2266,83,309.2266" style="stroke: #A80036; stroke-width: 1.0;"/><line style="stroke: #A80036; stroke-width: 1.0;" x1="81" x2="256" y1="309.2266" y2="309.2266"/><text fill="#000000" font-family="sans-serif" font-size="13" lengthAdjust="spacingAndGlyphs" textLength="108" x="93" y="304.2935">NotifyPortletView</text><!--
@startuml
hide footbox
 
 activate WebConsole
 WebConsole -> ConsoleComponent: AddComponentRequest
 deactivate WebConsole
 activate ConsoleComponent
 ConsoleComponent -> ConsoleComponent: doAddPortlet
 activate ConsoleComponent
 opt
 	   ConsoleComponent -> ConsoleComponent: generatePortletId
 end opt
 ConsoleComponent -> ConsoleComponent: putInSession
 ConsoleComponent -> WebConsole: RenderComponent
 opt 
     ConsoleComponent -> WebConsole: NotifyPortletView
 end opt 
 deactivate ConsoleComponent
 deactivate ConsoleComponent
 activate WebConsole
 deactivate WebConsole
@enduml

PlantUML version 1.2017.18(Fri Oct 06 16:56:32 UTC 2017)
(GPL source distribution)
Java Runtime: OpenJDK Runtime Environment
JVM: OpenJDK 64-Bit Server VM
Java Version: 1.8.0_222-8u222-b10-1ubuntu1~16.04.1-b10
Operating System: Linux
OS Version: 4.15.0-1050-gcp
Default Encoding: UTF-8
Language: en
Country: US
--></g></svg>