<?xml version="1.0" encoding="UTF-8" standalone="no"?><svg xmlns="http://www.w3.org/2000/svg" xmlns:xlink="http://www.w3.org/1999/xlink" contentScriptType="application/ecmascript" contentStyleType="text/css" height="430px" preserveAspectRatio="none" style="width:359px;height:430px;background:#FFFFFF;" version="1.1" viewBox="0 0 359 430" width="359px" zoomAndPan="magnify"><defs><filter height="300%" id="f1r1ihe18b2wn9" width="300%" x="-1" y="-1"><feGaussianBlur result="blurOut" stdDeviation="2.0"/><feColorMatrix in="blurOut" result="blurOut2" type="matrix" values="0 0 0 0 0 0 0 0 0 0 0 0 0 0 0 0 0 0 .4 0"/><feOffset dx="4.0" dy="4.0" in="blurOut2" result="blurOut3"/><feBlend in="SourceGraphic" in2="blurOut3" mode="normal"/></filter></defs><g><rect fill="#FFFFFF" filter="url(#f1r1ihe18b2wn9)" height="21.1328" style="stroke:#A80036;stroke-width:1.0;" width="10" x="53" y="50.2969"/><rect fill="#FFFFFF" filter="url(#f1r1ihe18b2wn9)" height="326.7969" style="stroke:#A80036;stroke-width:1.0;" width="10" x="173" y="71.4297"/><rect fill="#FFFFFF" filter="url(#f1r1ihe18b2wn9)" height="28" style="stroke:#A80036;stroke-width:1.0;" width="10" x="178" y="108.5625"/><rect fill="#FFFFFF" filter="url(#f1r1ihe18b2wn9)" height="28" style="stroke:#A80036;stroke-width:1.0;" width="10" x="178" y="204.8281"/><rect fill="#FFFFFF" filter="url(#f1r1ihe18b2wn9)" height="28" style="stroke:#A80036;stroke-width:1.0;" width="10" x="178" y="370.2266"/><rect fill="#FFFFFF" filter="url(#f1r1ihe18b2wn9)" height="175.5313" style="stroke:#000000;stroke-width:2.0;" width="208.5" x="136.5" y="158.5625"/><rect fill="#FFFFFF" height="44.1328" style="stroke:none;stroke-width:1.0;" width="208.5" x="136.5" y="289.9609"/><line style="stroke:#A80036;stroke-width:1.0;stroke-dasharray:5.0,5.0;" x1="58" x2="58" y1="40.2969" y2="423.2266"/><line style="stroke:#A80036;stroke-width:1.0;stroke-dasharray:5.0,5.0;" x1="177.5" x2="177.5" y1="40.2969" y2="423.2266"/><rect fill="#FEFECE" filter="url(#f1r1ihe18b2wn9)" height="30.2969" style="stroke:#A80036;stroke-width:1.5;" width="102" x="5" y="5"/><text fill="#000000" font-family="sans-serif" font-size="14" lengthAdjust="spacing" textLength="88" x="12" y="24.9951">WebConsole</text><rect fill="#FEFECE" filter="url(#f1r1ihe18b2wn9)" height="30.2969" style="stroke:#A80036;stroke-width:1.5;" width="59" x="146.5" y="5"/><text fill="#000000" font-family="sans-serif" font-size="14" lengthAdjust="spacing" textLength="45" x="153.5" y="24.9951">Conlet</text><rect fill="#FFFFFF" filter="url(#f1r1ihe18b2wn9)" height="21.1328" style="stroke:#A80036;stroke-width:1.0;" width="10" x="53" y="50.2969"/><rect fill="#FFFFFF" filter="url(#f1r1ihe18b2wn9)" height="326.7969" style="stroke:#A80036;stroke-width:1.0;" width="10" x="173" y="71.4297"/><rect fill="#FFFFFF" filter="url(#f1r1ihe18b2wn9)" height="28" style="stroke:#A80036;stroke-width:1.0;" width="10" x="178" y="108.5625"/><rect fill="#FFFFFF" filter="url(#f1r1ihe18b2wn9)" height="28" style="stroke:#A80036;stroke-width:1.0;" width="10" x="178" y="204.8281"/><rect fill="#FFFFFF" filter="url(#f1r1ihe18b2wn9)" height="28" style="stroke:#A80036;stroke-width:1.0;" width="10" x="178" y="370.2266"/><polygon fill="#A80036" points="161,67.4297,171,71.4297,161,75.4297,165,71.4297" style="stroke:#A80036;stroke-width:1.0;"/><line style="stroke:#A80036;stroke-width:1.0;" x1="58" x2="167" y1="71.4297" y2="71.4297"/><text fill="#000000" font-family="sans-serif" font-size="13" lengthAdjust="spacing" textLength="91" x="65" y="66.3638">ConletDeleted</text><line style="stroke:#A80036;stroke-width:1.0;" x1="188" x2="230" y1="100.5625" y2="100.5625"/><line style="stroke:#A80036;stroke-width:1.0;" x1="230" x2="230" y1="100.5625" y2="113.5625"/><line style="stroke:#A80036;stroke-width:1.0;" x1="189" x2="230" y1="113.5625" y2="113.5625"/><polygon fill="#A80036" points="199,109.5625,189,113.5625,199,117.5625,195,113.5625" style="stroke:#A80036;stroke-width:1.0;"/><text fill="#000000" font-family="sans-serif" font-size="13" lengthAdjust="spacing" textLength="116" x="195" y="95.4966">stateFromSession</text><path d="M136.5,158.5625 L200.5,158.5625 L200.5,165.5625 L190.5,175.5625 L136.5,175.5625 L136.5,158.5625 " fill="#EEEEEE" style="stroke:#000000;stroke-width:1.0;"/><rect fill="none" height="175.5313" style="stroke:#000000;stroke-width:2.0;" width="208.5" x="136.5" y="158.5625"/><text fill="#000000" font-family="sans-serif" font-size="13" font-weight="bold" lengthAdjust="spacing" textLength="19" x="151.5" y="171.6294">alt</text><text fill="#000000" font-family="sans-serif" font-size="11" font-weight="bold" lengthAdjust="spacing" textLength="120" x="215.5" y="170.7729">[all views deleted]</text><line style="stroke:#A80036;stroke-width:1.0;" x1="188" x2="230" y1="196.8281" y2="196.8281"/><line style="stroke:#A80036;stroke-width:1.0;" x1="230" x2="230" y1="196.8281" y2="209.8281"/><line style="stroke:#A80036;stroke-width:1.0;" x1="189" x2="230" y1="209.8281" y2="209.8281"/><polygon fill="#A80036" points="199,205.8281,189,209.8281,199,213.8281,195,209.8281" style="stroke:#A80036;stroke-width:1.0;"/><text fill="#000000" font-family="sans-serif" font-size="13" lengthAdjust="spacing" textLength="84" x="195" y="191.7622">removeState</text><line style="stroke:#A80036;stroke-width:1.0;" x1="183" x2="225" y1="268.9609" y2="268.9609"/><line style="stroke:#A80036;stroke-width:1.0;" x1="225" x2="225" y1="268.9609" y2="281.9609"/><line style="stroke:#A80036;stroke-width:1.0;" x1="184" x2="225" y1="281.9609" y2="281.9609"/><polygon fill="#A80036" points="194,277.9609,184,281.9609,194,285.9609,190,281.9609" style="stroke:#A80036;stroke-width:1.0;"/><text fill="#000000" font-family="sans-serif" font-size="13" lengthAdjust="spacing" textLength="126" x="190" y="263.895">stop conlet tracking</text><line style="stroke:#000000;stroke-width:1.0;stroke-dasharray:2.0,2.0;" x1="136.5" x2="345" y1="290.9609" y2="290.9609"/><line style="stroke:#A80036;stroke-width:1.0;" x1="183" x2="225" y1="313.0938" y2="313.0938"/><line style="stroke:#A80036;stroke-width:1.0;" x1="225" x2="225" y1="313.0938" y2="326.0938"/><line style="stroke:#A80036;stroke-width:1.0;" x1="184" x2="225" y1="326.0938" y2="326.0938"/><polygon fill="#A80036" points="194,322.0938,184,326.0938,194,330.0938,190,326.0938" style="stroke:#A80036;stroke-width:1.0;"/><text fill="#000000" font-family="sans-serif" font-size="13" lengthAdjust="spacing" textLength="143" x="190" y="308.0278">update conlet tracking</text><line style="stroke:#A80036;stroke-width:1.0;" x1="188" x2="230" y1="362.2266" y2="362.2266"/><line style="stroke:#A80036;stroke-width:1.0;" x1="230" x2="230" y1="362.2266" y2="375.2266"/><line style="stroke:#A80036;stroke-width:1.0;" x1="189" x2="230" y1="375.2266" y2="375.2266"/><polygon fill="#A80036" points="199,371.2266,189,375.2266,199,379.2266,195,375.2266" style="stroke:#A80036;stroke-width:1.0;"/><text fill="#000000" font-family="sans-serif" font-size="13" lengthAdjust="spacing" textLength="107" x="195" y="357.1606">doConletDeleted</text><!--MD5=[126a8431ca6784796541986c25460c3c]
@startuml
hide footbox
 
 activate WebConsole
 WebConsole -> Conlet: ConletDeleted
 deactivate WebConsole
 activate Conlet
 Conlet -> Conlet: stateFromSession
 activate Conlet
 deactivate Conlet
 alt all views deleted
     Conlet -> Conlet: removeState
     activate Conlet
     deactivate Conlet
     Conlet -> Conlet: stop conlet tracking
 else
     Conlet -> Conlet: update conlet tracking
 end alt
 Conlet -> Conlet: doConletDeleted
 activate Conlet
 deactivate Conlet
 deactivate Conlet
@enduml

PlantUML version 1.2022.1(Tue Feb 01 19:19:58 CET 2022)
(GPL source distribution)
Java Runtime: OpenJDK Runtime Environment
JVM: OpenJDK 64-Bit Server VM
Default Encoding: UTF-8
Language: de
Country: DE
--></g></svg>