<?xml version="1.0" encoding="us-ascii" standalone="no"?><svg xmlns="http://www.w3.org/2000/svg" xmlns:xlink="http://www.w3.org/1999/xlink" contentStyleType="text/css" height="426px" preserveAspectRatio="none" style="width:350px;height:426px;background:#FFFFFF;" version="1.1" viewBox="0 0 350 426" width="350px" zoomAndPan="magnify"><defs/><g><rect fill="#FFFFFF" height="21.1328" style="stroke:#181818;stroke-width:1.0;" width="10" x="51" y="46.2969"/><rect fill="#FFFFFF" height="326.7969" style="stroke:#181818;stroke-width:1.0;" width="10" x="171" y="67.4297"/><rect fill="#FFFFFF" height="28" style="stroke:#181818;stroke-width:1.0;" width="10" x="176" y="104.5625"/><rect fill="#FFFFFF" height="28" style="stroke:#181818;stroke-width:1.0;" width="10" x="176" y="200.8281"/><rect fill="#FFFFFF" height="28" style="stroke:#181818;stroke-width:1.0;" width="10" x="176" y="366.2266"/><rect fill="none" height="175.5313" style="stroke:#000000;stroke-width:1.5;" width="206.5" x="136.5" y="154.5625"/><line style="stroke:#181818;stroke-width:0.5;stroke-dasharray:5.0,5.0;" x1="56" x2="56" y1="36.2969" y2="419.2266"/><line style="stroke:#181818;stroke-width:0.5;stroke-dasharray:5.0,5.0;" x1="175.5" x2="175.5" y1="36.2969" y2="419.2266"/><rect fill="#E2E2F0" height="30.2969" rx="2.5" ry="2.5" style="stroke:#181818;stroke-width:0.5;" width="102" x="5" y="5"/><text fill="#000000" font-family="sans-serif" font-size="14" lengthAdjust="spacing" textLength="88" x="12" y="24.9951">WebConsole</text><rect fill="#E2E2F0" height="30.2969" rx="2.5" ry="2.5" style="stroke:#181818;stroke-width:0.5;" width="59" x="146.5" y="5"/><text fill="#000000" font-family="sans-serif" font-size="14" lengthAdjust="spacing" textLength="45" x="153.5" y="24.9951">Conlet</text><rect fill="#FFFFFF" height="21.1328" style="stroke:#181818;stroke-width:1.0;" width="10" x="51" y="46.2969"/><rect fill="#FFFFFF" height="326.7969" style="stroke:#181818;stroke-width:1.0;" width="10" x="171" y="67.4297"/><rect fill="#FFFFFF" height="28" style="stroke:#181818;stroke-width:1.0;" width="10" x="176" y="104.5625"/><rect fill="#FFFFFF" height="28" style="stroke:#181818;stroke-width:1.0;" width="10" x="176" y="200.8281"/><rect fill="#FFFFFF" height="28" style="stroke:#181818;stroke-width:1.0;" width="10" x="176" y="366.2266"/><polygon fill="#181818" points="159,63.4297,169,67.4297,159,71.4297,163,67.4297" style="stroke:#181818;stroke-width:1.0;"/><line style="stroke:#181818;stroke-width:1.0;" x1="56" x2="165" y1="67.4297" y2="67.4297"/><text fill="#000000" font-family="sans-serif" font-size="13" lengthAdjust="spacing" textLength="91" x="63" y="62.3638">ConletDeleted</text><line style="stroke:#181818;stroke-width:1.0;" x1="186" x2="228" y1="96.5625" y2="96.5625"/><line style="stroke:#181818;stroke-width:1.0;" x1="228" x2="228" y1="96.5625" y2="109.5625"/><line style="stroke:#181818;stroke-width:1.0;" x1="187" x2="228" y1="109.5625" y2="109.5625"/><polygon fill="#181818" points="197,105.5625,187,109.5625,197,113.5625,193,109.5625" style="stroke:#181818;stroke-width:1.0;"/><text fill="#000000" font-family="sans-serif" font-size="13" lengthAdjust="spacing" textLength="116" x="193" y="91.4966">stateFromSession</text><path d="M136.5,154.5625 L200.5,154.5625 L200.5,161.6953 L190.5,171.6953 L136.5,171.6953 L136.5,154.5625 " fill="#EEEEEE" style="stroke:#000000;stroke-width:1.5;"/><rect fill="none" height="175.5313" style="stroke:#000000;stroke-width:1.5;" width="206.5" x="136.5" y="154.5625"/><text fill="#000000" font-family="sans-serif" font-size="13" font-weight="bold" lengthAdjust="spacing" textLength="19" x="151.5" y="167.6294">alt</text><text fill="#000000" font-family="sans-serif" font-size="11" font-weight="bold" lengthAdjust="spacing" textLength="120" x="215.5" y="166.7729">[all views deleted]</text><line style="stroke:#181818;stroke-width:1.0;" x1="186" x2="228" y1="192.8281" y2="192.8281"/><line style="stroke:#181818;stroke-width:1.0;" x1="228" x2="228" y1="192.8281" y2="205.8281"/><line style="stroke:#181818;stroke-width:1.0;" x1="187" x2="228" y1="205.8281" y2="205.8281"/><polygon fill="#181818" points="197,201.8281,187,205.8281,197,209.8281,193,205.8281" style="stroke:#181818;stroke-width:1.0;"/><text fill="#000000" font-family="sans-serif" font-size="13" lengthAdjust="spacing" textLength="84" x="193" y="187.7622">removeState</text><line style="stroke:#181818;stroke-width:1.0;" x1="181" x2="223" y1="264.9609" y2="264.9609"/><line style="stroke:#181818;stroke-width:1.0;" x1="223" x2="223" y1="264.9609" y2="277.9609"/><line style="stroke:#181818;stroke-width:1.0;" x1="182" x2="223" y1="277.9609" y2="277.9609"/><polygon fill="#181818" points="192,273.9609,182,277.9609,192,281.9609,188,277.9609" style="stroke:#181818;stroke-width:1.0;"/><text fill="#000000" font-family="sans-serif" font-size="13" lengthAdjust="spacing" textLength="126" x="188" y="259.895">stop conlet tracking</text><line style="stroke:#000000;stroke-width:1.0;stroke-dasharray:2.0,2.0;" x1="136.5" x2="343" y1="286.9609" y2="286.9609"/><line style="stroke:#181818;stroke-width:1.0;" x1="181" x2="223" y1="309.0938" y2="309.0938"/><line style="stroke:#181818;stroke-width:1.0;" x1="223" x2="223" y1="309.0938" y2="322.0938"/><line style="stroke:#181818;stroke-width:1.0;" x1="182" x2="223" y1="322.0938" y2="322.0938"/><polygon fill="#181818" points="192,318.0938,182,322.0938,192,326.0938,188,322.0938" style="stroke:#181818;stroke-width:1.0;"/><text fill="#000000" font-family="sans-serif" font-size="13" lengthAdjust="spacing" textLength="143" x="188" y="304.0278">update conlet tracking</text><line style="stroke:#181818;stroke-width:1.0;" x1="186" x2="228" y1="358.2266" y2="358.2266"/><line style="stroke:#181818;stroke-width:1.0;" x1="228" x2="228" y1="358.2266" y2="371.2266"/><line style="stroke:#181818;stroke-width:1.0;" x1="187" x2="228" y1="371.2266" y2="371.2266"/><polygon fill="#181818" points="197,367.2266,187,371.2266,197,375.2266,193,371.2266" style="stroke:#181818;stroke-width:1.0;"/><text fill="#000000" font-family="sans-serif" font-size="13" lengthAdjust="spacing" textLength="107" x="193" y="353.1606">doConletDeleted</text><!--SRC=[ZL313S8m3Fnd2Y_00ZpuW5YW3zvfSq146bUrAOnFeXPKaI1XoR5rkJidlde7EZDhoqz3XcodVh8AEg7TSnGECAkUDZjARO1kbtf0Ek0CELIr7t2ccwMkZKJJ_N7ale68vrWHhSpVa0sQCj3ayP14M9wHenmnekS9JHuqKmgx79KfTJjH7gYROHrjT_FnOWX1y4jn7rosBJNHvP_KrkBuQyF_RAM0NW00]--></g></svg>