<?xml version="1.0" encoding="UTF-8" standalone="no"?><svg xmlns="http://www.w3.org/2000/svg" xmlns:xlink="http://www.w3.org/1999/xlink" contentScriptType="application/ecmascript" contentStyleType="text/css" height="433px" preserveAspectRatio="none" style="width:360px;height:433px;" version="1.1" viewBox="0 0 360 433" width="360px" zoomAndPan="magnify"><defs><filter height="300%" id="f1r1ihe18b2wn9" width="300%" x="-1" y="-1"><feGaussianBlur result="blurOut" stdDeviation="2.0"/><feColorMatrix in="blurOut" result="blurOut2" type="matrix" values="0 0 0 0 0 0 0 0 0 0 0 0 0 0 0 0 0 0 .4 0"/><feOffset dx="4.0" dy="4.0" in="blurOut2" result="blurOut3"/><feBlend in="SourceGraphic" in2="blurOut3" mode="normal"/></filter></defs><g><rect fill="#FFFFFF" filter="url(#f1r1ihe18b2wn9)" height="21" style="stroke: #A80036; stroke-width: 1.0;" width="10" x="56" y="48.2969"/><rect fill="#FFFFFF" filter="url(#f1r1ihe18b2wn9)" height="326.7969" style="stroke: #A80036; stroke-width: 1.0;" width="10" x="176" y="69.2969"/><rect fill="#FFFFFF" filter="url(#f1r1ihe18b2wn9)" height="28" style="stroke: #A80036; stroke-width: 1.0;" width="10" x="181" y="106.4297"/><rect fill="#FFFFFF" filter="url(#f1r1ihe18b2wn9)" height="28" style="stroke: #A80036; stroke-width: 1.0;" width="10" x="181" y="202.6953"/><rect fill="#FFFFFF" filter="url(#f1r1ihe18b2wn9)" height="28" style="stroke: #A80036; stroke-width: 1.0;" width="10" x="181" y="368.0938"/><rect fill="#FFFFFF" filter="url(#f1r1ihe18b2wn9)" height="175.5313" style="stroke: #000000; stroke-width: 2.0;" width="208.5" x="139.5" y="156.5625"/><rect fill="#FFFFFF" height="44.1328" style="stroke: none; stroke-width: 1.0;" width="208.5" x="139.5" y="287.9609"/><line style="stroke: #A80036; stroke-width: 1.0; stroke-dasharray: 5.0,5.0;" x1="61" x2="61" y1="38.2969" y2="421.2266"/><line style="stroke: #A80036; stroke-width: 1.0; stroke-dasharray: 5.0,5.0;" x1="180.5" x2="180.5" y1="38.2969" y2="421.2266"/><rect fill="#FEFECE" filter="url(#f1r1ihe18b2wn9)" height="30.2969" style="stroke: #A80036; stroke-width: 1.5;" width="102" x="8" y="3"/><text fill="#000000" font-family="sans-serif" font-size="14" lengthAdjust="spacingAndGlyphs" textLength="88" x="15" y="22.9951">WebConsole</text><rect fill="#FEFECE" filter="url(#f1r1ihe18b2wn9)" height="30.2969" style="stroke: #A80036; stroke-width: 1.5;" width="59" x="149.5" y="3"/><text fill="#000000" font-family="sans-serif" font-size="14" lengthAdjust="spacingAndGlyphs" textLength="45" x="156.5" y="22.9951">Conlet</text><rect fill="#FFFFFF" filter="url(#f1r1ihe18b2wn9)" height="21" style="stroke: #A80036; stroke-width: 1.0;" width="10" x="56" y="48.2969"/><rect fill="#FFFFFF" filter="url(#f1r1ihe18b2wn9)" height="326.7969" style="stroke: #A80036; stroke-width: 1.0;" width="10" x="176" y="69.2969"/><rect fill="#FFFFFF" filter="url(#f1r1ihe18b2wn9)" height="28" style="stroke: #A80036; stroke-width: 1.0;" width="10" x="181" y="106.4297"/><rect fill="#FFFFFF" filter="url(#f1r1ihe18b2wn9)" height="28" style="stroke: #A80036; stroke-width: 1.0;" width="10" x="181" y="202.6953"/><rect fill="#FFFFFF" filter="url(#f1r1ihe18b2wn9)" height="28" style="stroke: #A80036; stroke-width: 1.0;" width="10" x="181" y="368.0938"/><polygon fill="#A80036" points="164,65.2969,174,69.2969,164,73.2969,168,69.2969" style="stroke: #A80036; stroke-width: 1.0;"/><line style="stroke: #A80036; stroke-width: 1.0;" x1="61" x2="170" y1="69.2969" y2="69.2969"/><text fill="#000000" font-family="sans-serif" font-size="13" lengthAdjust="spacingAndGlyphs" textLength="91" x="68" y="64.3638">ConletDeleted</text><line style="stroke: #A80036; stroke-width: 1.0;" x1="191" x2="233" y1="98.5625" y2="98.5625"/><line style="stroke: #A80036; stroke-width: 1.0;" x1="233" x2="233" y1="98.5625" y2="111.5625"/><line style="stroke: #A80036; stroke-width: 1.0;" x1="192" x2="233" y1="111.5625" y2="111.5625"/><polygon fill="#A80036" points="202,107.5625,192,111.5625,202,115.5625,198,111.5625" style="stroke: #A80036; stroke-width: 1.0;"/><text fill="#000000" font-family="sans-serif" font-size="13" lengthAdjust="spacingAndGlyphs" textLength="116" x="198" y="93.4966">stateFromSession</text><rect fill="none" height="175.5313" style="stroke: #000000; stroke-width: 2.0;" width="208.5" x="139.5" y="156.5625"/><polygon fill="#EEEEEE" points="139.5,156.5625,203.5,156.5625,203.5,163.5625,193.5,173.5625,139.5,173.5625,139.5,156.5625" style="stroke: #000000; stroke-width: 2.0;"/><text fill="#000000" font-family="sans-serif" font-size="13" font-weight="bold" lengthAdjust="spacingAndGlyphs" textLength="19" x="154.5" y="169.6294">alt</text><text fill="#000000" font-family="sans-serif" font-size="11" font-weight="bold" lengthAdjust="spacingAndGlyphs" textLength="120" x="218.5" y="168.7729">[all views deleted]</text><line style="stroke: #A80036; stroke-width: 1.0;" x1="191" x2="233" y1="194.8281" y2="194.8281"/><line style="stroke: #A80036; stroke-width: 1.0;" x1="233" x2="233" y1="194.8281" y2="207.8281"/><line style="stroke: #A80036; stroke-width: 1.0;" x1="192" x2="233" y1="207.8281" y2="207.8281"/><polygon fill="#A80036" points="202,203.8281,192,207.8281,202,211.8281,198,207.8281" style="stroke: #A80036; stroke-width: 1.0;"/><text fill="#000000" font-family="sans-serif" font-size="13" lengthAdjust="spacingAndGlyphs" textLength="84" x="198" y="189.7622">removeState</text><line style="stroke: #A80036; stroke-width: 1.0;" x1="186" x2="228" y1="266.9609" y2="266.9609"/><line style="stroke: #A80036; stroke-width: 1.0;" x1="228" x2="228" y1="266.9609" y2="279.9609"/><line style="stroke: #A80036; stroke-width: 1.0;" x1="187" x2="228" y1="279.9609" y2="279.9609"/><polygon fill="#A80036" points="197,275.9609,187,279.9609,197,283.9609,193,279.9609" style="stroke: #A80036; stroke-width: 1.0;"/><text fill="#000000" font-family="sans-serif" font-size="13" lengthAdjust="spacingAndGlyphs" textLength="126" x="193" y="261.895">stop conlet tracking</text><line style="stroke: #000000; stroke-width: 1.0; stroke-dasharray: 2.0,2.0;" x1="139.5" x2="348" y1="288.9609" y2="288.9609"/><line style="stroke: #A80036; stroke-width: 1.0;" x1="186" x2="228" y1="311.0938" y2="311.0938"/><line style="stroke: #A80036; stroke-width: 1.0;" x1="228" x2="228" y1="311.0938" y2="324.0938"/><line style="stroke: #A80036; stroke-width: 1.0;" x1="187" x2="228" y1="324.0938" y2="324.0938"/><polygon fill="#A80036" points="197,320.0938,187,324.0938,197,328.0938,193,324.0938" style="stroke: #A80036; stroke-width: 1.0;"/><text fill="#000000" font-family="sans-serif" font-size="13" lengthAdjust="spacingAndGlyphs" textLength="143" x="193" y="306.0278">update conlet tracking</text><line style="stroke: #A80036; stroke-width: 1.0;" x1="191" x2="233" y1="360.2266" y2="360.2266"/><line style="stroke: #A80036; stroke-width: 1.0;" x1="233" x2="233" y1="360.2266" y2="373.2266"/><line style="stroke: #A80036; stroke-width: 1.0;" x1="192" x2="233" y1="373.2266" y2="373.2266"/><polygon fill="#A80036" points="202,369.2266,192,373.2266,202,377.2266,198,373.2266" style="stroke: #A80036; stroke-width: 1.0;"/><text fill="#000000" font-family="sans-serif" font-size="13" lengthAdjust="spacingAndGlyphs" textLength="107" x="198" y="355.1606">doConletDeleted</text><!--
@startuml
hide footbox
 
 activate WebConsole
 WebConsole -> Conlet: ConletDeleted
 deactivate WebConsole
 activate Conlet
 Conlet -> Conlet: stateFromSession
 activate Conlet
 deactivate Conlet
 alt all views deleted
     Conlet -> Conlet: removeState
     activate Conlet
     deactivate Conlet
     Conlet -> Conlet: stop conlet tracking
 else
     Conlet -> Conlet: update conlet tracking
 end alt
 Conlet -> Conlet: doConletDeleted
 activate Conlet
 deactivate Conlet
 deactivate Conlet
@enduml

PlantUML version 1.2017.18(Fri Oct 06 16:56:32 UTC 2017)
(GPL source distribution)
Java Runtime: OpenJDK Runtime Environment
JVM: OpenJDK 64-Bit Server VM
Java Version: 15.0.6+5-MTS
Operating System: Linux
OS Version: 5.11.0-1028-azure
Default Encoding: UTF-8
Language: en
Country: 
--></g></svg>