<?xml version="1.0" encoding="UTF-8" standalone="no"?><svg xmlns="http://www.w3.org/2000/svg" xmlns:xlink="http://www.w3.org/1999/xlink" contentScriptType="application/ecmascript" contentStyleType="text/css" height="370px" preserveAspectRatio="none" style="width:589px;height:370px;background:#FFFFFF;" version="1.1" viewBox="0 0 589 370" width="589px" zoomAndPan="magnify"><defs><filter height="300%" id="fd2v2mty7nnyk" width="300%" x="-1" y="-1"><feGaussianBlur result="blurOut" stdDeviation="2.0"/><feColorMatrix in="blurOut" result="blurOut2" type="matrix" values="0 0 0 0 0 0 0 0 0 0 0 0 0 0 0 0 0 0 .4 0"/><feOffset dx="4.0" dy="4.0" in="blurOut2" result="blurOut3"/><feBlend in="SourceGraphic" in2="blurOut3" mode="normal"/></filter></defs><g><!--MD5=[09585d0490525c26364ccfbc1c8786e4]
cluster org.jgrapes.http--><polygon fill="#FFFFFF" filter="url(#fd2v2mty7nnyk)" points="284.5,6,418.5,6,425.5,28.2969,428.5,28.2969,428.5,105,284.5,105,284.5,6" style="stroke:#000000;stroke-width:1.5;"/><line style="stroke:#000000;stroke-width:1.5;" x1="284.5" x2="425.5" y1="28.2969" y2="28.2969"/><text fill="#000000" font-family="sans-serif" font-size="14" font-weight="bold" lengthAdjust="spacing" textLength="128" x="288.5" y="20.9951">org.jgrapes.http</text><!--MD5=[2ca1536628238a7dc78c5d90808014f9]
class Session--><rect codeLine="21" fill="#FEFECE" filter="url(#fd2v2mty7nnyk)" height="48" id="Session" style="stroke:#A80036;stroke-width:1.5;" width="81" x="302" y="41"/><ellipse cx="317" cy="57" fill="#ADD1B2" rx="11" ry="11" style="stroke:#A80036;stroke-width:1.0;"/><path d="M319.9688,62.6406 Q319.3906,62.9375 318.75,63.0781 Q318.1094,63.2344 317.4063,63.2344 Q314.9063,63.2344 313.5781,61.5938 Q312.2656,59.9375 312.2656,56.8125 Q312.2656,53.6875 313.5781,52.0313 Q314.9063,50.375 317.4063,50.375 Q318.1094,50.375 318.75,50.5313 Q319.4063,50.6875 319.9688,50.9844 L319.9688,53.7031 Q319.3438,53.125 318.75,52.8594 Q318.1563,52.5781 317.5313,52.5781 Q316.1875,52.5781 315.5,53.6563 Q314.8125,54.7188 314.8125,56.8125 Q314.8125,58.9063 315.5,59.9844 Q316.1875,61.0469 317.5313,61.0469 Q318.1563,61.0469 318.75,60.7813 Q319.3438,60.5 319.9688,59.9219 L319.9688,62.6406 Z " fill="#000000"/><text fill="#000000" font-family="sans-serif" font-size="12" lengthAdjust="spacing" textLength="49" x="331" y="61.1543">Session</text><line style="stroke:#A80036;stroke-width:1.5;" x1="303" x2="382" y1="73" y2="73"/><line style="stroke:#A80036;stroke-width:1.5;" x1="303" x2="382" y1="81" y2="81"/><!--MD5=[613fdc74d15d5c12510d87f2ee39360f]
class ConsoleSession--><rect codeLine="1" fill="#FEFECE" filter="url(#fd2v2mty7nnyk)" height="188.8516" id="ConsoleSession" style="stroke:#A80036;stroke-width:1.5;" width="465" x="7" y="168"/><ellipse cx="185.75" cy="184" fill="#ADD1B2" rx="11" ry="11" style="stroke:#A80036;stroke-width:1.0;"/><path d="M188.7188,189.6406 Q188.1406,189.9375 187.5,190.0781 Q186.8594,190.2344 186.1563,190.2344 Q183.6563,190.2344 182.3281,188.5938 Q181.0156,186.9375 181.0156,183.8125 Q181.0156,180.6875 182.3281,179.0313 Q183.6563,177.375 186.1563,177.375 Q186.8594,177.375 187.5,177.5313 Q188.1563,177.6875 188.7188,177.9844 L188.7188,180.7031 Q188.0938,180.125 187.5,179.8594 Q186.9063,179.5781 186.2813,179.5781 Q184.9375,179.5781 184.25,180.6563 Q183.5625,181.7188 183.5625,183.8125 Q183.5625,185.9063 184.25,186.9844 Q184.9375,188.0469 186.2813,188.0469 Q186.9063,188.0469 187.5,187.7813 Q188.0938,187.5 188.7188,186.9219 L188.7188,189.6406 Z " fill="#000000"/><text fill="#000000" font-family="sans-serif" font-size="12" lengthAdjust="spacing" textLength="99" x="206.25" y="188.1543">ConsoleSession</text><line style="stroke:#A80036;stroke-width:1.5;" x1="8" x2="471" y1="200" y2="200"/><rect fill="none" height="6" style="stroke:#C82930;stroke-width:1.0;" width="6" x="15" y="208"/><text fill="#000000" font-family="sans-serif" font-size="11" lengthAdjust="spacing" text-decoration="underline" textLength="271" x="27" y="214.2104">Map&lt;String,ConsoleSession&gt; consoleSessions</text><line style="stroke:#A80036;stroke-width:1.5;" x1="8" x2="471" y1="220.8047" y2="220.8047"/><ellipse cx="18" cy="231.8047" fill="#84BE84" rx="3" ry="3" style="stroke:#038048;stroke-width:1.0;"/><text fill="#000000" font-family="sans-serif" font-size="11" lengthAdjust="spacing" text-decoration="underline" textLength="439" x="27" y="235.0151">findOrCreate(String consoleSessionId, Manager component): ConsoleSession</text><ellipse cx="18" cy="244.6094" fill="#84BE84" rx="3" ry="3" style="stroke:#038048;stroke-width:1.0;"/><text fill="#000000" font-family="sans-serif" font-size="11" lengthAdjust="spacing" textLength="245" x="27" y="247.8198">setTimeout(timeout: long): ConsoleSession</text><ellipse cx="18" cy="257.4141" fill="#84BE84" rx="3" ry="3" style="stroke:#038048;stroke-width:1.0;"/><text fill="#000000" font-family="sans-serif" font-size="11" lengthAdjust="spacing" textLength="80" x="27" y="260.6245">refresh(): void</text><ellipse cx="18" cy="270.2188" fill="#84BE84" rx="3" ry="3" style="stroke:#038048;stroke-width:1.0;"/><text fill="#000000" font-family="sans-serif" font-size="11" lengthAdjust="spacing" textLength="409" x="27" y="273.4292">setUpstreamChannel(IOSubchannel upstreamChannel): ConsoleSession</text><ellipse cx="18" cy="283.0234" fill="#84BE84" rx="3" ry="3" style="stroke:#038048;stroke-width:1.0;"/><text fill="#000000" font-family="sans-serif" font-size="11" lengthAdjust="spacing" textLength="313" x="27" y="286.2339">setSession(Session browserSession): ConsoleSession</text><ellipse cx="18" cy="295.8281" fill="#84BE84" rx="3" ry="3" style="stroke:#038048;stroke-width:1.0;"/><text fill="#000000" font-family="sans-serif" font-size="11" lengthAdjust="spacing" textLength="163" x="27" y="299.0386">upstreamChannel(): Optional</text><ellipse cx="18" cy="308.6328" fill="#84BE84" rx="3" ry="3" style="stroke:#038048;stroke-width:1.0;"/><text fill="#000000" font-family="sans-serif" font-size="11" lengthAdjust="spacing" textLength="149" x="27" y="311.8433">consoleSessionId(): String</text><ellipse cx="18" cy="321.4375" fill="#84BE84" rx="3" ry="3" style="stroke:#038048;stroke-width:1.0;"/><text fill="#000000" font-family="sans-serif" font-size="11" lengthAdjust="spacing" textLength="154" x="27" y="324.6479">browserSession(): Session</text><ellipse cx="18" cy="334.2422" fill="#84BE84" rx="3" ry="3" style="stroke:#038048;stroke-width:1.0;"/><text fill="#000000" font-family="sans-serif" font-size="11" lengthAdjust="spacing" textLength="84" x="27" y="337.4526">locale(): Locale</text><ellipse cx="18" cy="347.0469" fill="#84BE84" rx="3" ry="3" style="stroke:#038048;stroke-width:1.0;"/><text fill="#000000" font-family="sans-serif" font-size="11" lengthAdjust="spacing" textLength="164" x="27" y="350.2573">setLocale(Locale locale): void</text><!--MD5=[9caeff6bec59bb4e25ab212aaff96b64]
class IOSubchannel--><rect codeLine="14" fill="#FEFECE" filter="url(#fd2v2mty7nnyk)" height="48" id="IOSubchannel" style="stroke:#A80036;stroke-width:1.5;" width="113" x="154" y="41"/><ellipse cx="169" cy="57" fill="#B4A7E5" rx="11" ry="11" style="stroke:#A80036;stroke-width:1.0;"/><path d="M164.9219,52.7656 L164.9219,50.6094 L172.3125,50.6094 L172.3125,52.7656 L169.8438,52.7656 L169.8438,60.8438 L172.3125,60.8438 L172.3125,63 L164.9219,63 L164.9219,60.8438 L167.3906,60.8438 L167.3906,52.7656 L164.9219,52.7656 Z " fill="#000000"/><text fill="#000000" font-family="sans-serif" font-size="12" font-style="italic" lengthAdjust="spacing" textLength="81" x="183" y="61.1543">IOSubchannel</text><line style="stroke:#A80036;stroke-width:1.5;" x1="155" x2="266" y1="73" y2="73"/><line style="stroke:#A80036;stroke-width:1.5;" x1="155" x2="266" y1="81" y2="81"/><!--MD5=[6b440b227fe6dadc2751521f55b23a08]
reverse link IOSubchannel to ConsoleSession--><path codeLine="16" d="M216.9,109.12 C219.48,126.5 222.56,147.28 225.6,167.82 " fill="none" id="IOSubchannel-backto-ConsoleSession" style="stroke:#A80036;stroke-width:1.0;stroke-dasharray:7.0,7.0;"/><polygon fill="none" points="209.95,110,213.94,89.19,223.8,107.95,209.95,110" style="stroke:#A80036;stroke-width:1.0;"/><!--MD5=[5af3b385e207b716a093b6716aa1f2d4]
reverse link ConsoleSession to ConsoleSession--><path codeLine="18" d="M484.9,245.78 C498.75,249.83 507,255.4 507,262.5 C507,271.59 493.48,278.17 472.01,282.26 " fill="none" id="ConsoleSession-backto-ConsoleSession" style="stroke:#A80036;stroke-width:1.0;"/><polygon fill="#A80036" points="472.01,242.74,476.9314,248.0107,483.6894,245.4951,478.7681,240.2244,472.01,242.74" style="stroke:#A80036;stroke-width:1.0;"/><text fill="#000000" font-family="sans-serif" font-size="13" lengthAdjust="spacing" textLength="63" x="513" y="267.0669">maintains</text><text fill="#000000" font-family="sans-serif" font-size="13" lengthAdjust="spacing" textLength="8" x="479.7705" y="238.917">1</text><text fill="#000000" font-family="sans-serif" font-size="13" lengthAdjust="spacing" textLength="7" x="479.7541" y="279.7338">*</text><!--MD5=[a04c2b5a1722b2826aa8e2aea0db2def]
reverse link Session to ConsoleSession--><path codeLine="24" d="M327.75,93.99 C317.45,113.55 303.04,140.89 288.86,167.82 " fill="none" id="Session-backto-ConsoleSession" style="stroke:#A80036;stroke-width:1.0;"/><polygon fill="#A80036" points="330.28,89.19,322.551,95.2944,327.953,93.6155,329.6319,99.0175,330.28,89.19" style="stroke:#A80036;stroke-width:1.0;"/><text fill="#000000" font-family="sans-serif" font-size="13" lengthAdjust="spacing" textLength="102" x="312.5" y="134.0669">browser session</text><text fill="#000000" font-family="sans-serif" font-size="13" lengthAdjust="spacing" textLength="8" x="318.3264" y="108.9975">1</text><text fill="#000000" font-family="sans-serif" font-size="13" lengthAdjust="spacing" textLength="7" x="285.3712" y="157.0745">*</text><!--MD5=[54d021cfbeabf48b1a172531f4e8815d]
@startuml
class ConsoleSession {
  -{static}Map<String,ConsoleSession> consoleSessions
  +{static}findOrCreate(String consoleSessionId, Manager component): ConsoleSession
  +setTimeout(timeout: long): ConsoleSession
  +refresh(): void
  +setUpstreamChannel(IOSubchannel upstreamChannel): ConsoleSession
  +setSession(Session browserSession): ConsoleSession
  +upstreamChannel(): Optional
  +consoleSessionId(): String
  +browserSession(): Session
  +locale(): Locale
  +setLocale(Locale locale): void
 }
 Interface IOSubchannel {
 }
 IOSubchannel <|.. ConsoleSession

 ConsoleSession "1" *- - "*" ConsoleSession : maintains
 
 package org.jgrapes.http {
     class Session
 }
 
 ConsoleSession "*" -up-> "1" Session: browser session
@enduml

PlantUML version 1.2022.1(Tue Feb 01 19:19:58 CET 2022)
(GPL source distribution)
Java Runtime: OpenJDK Runtime Environment
JVM: OpenJDK 64-Bit Server VM
Default Encoding: UTF-8
Language: de
Country: DE
--></g></svg>