<?xml version="1.0" encoding="UTF-8" standalone="no"?><svg xmlns="http://www.w3.org/2000/svg" xmlns:xlink="http://www.w3.org/1999/xlink" contentScriptType="application/ecmascript" contentStyleType="text/css" height="385px" preserveAspectRatio="none" style="width:591px;height:385px;" version="1.1" viewBox="0 0 591 385" width="591px" zoomAndPan="magnify"><defs><filter height="300%" id="fd2v2mty7nnyk" width="300%" x="-1" y="-1"><feGaussianBlur result="blurOut" stdDeviation="2.0"/><feColorMatrix in="blurOut" result="blurOut2" type="matrix" values="0 0 0 0 0 0 0 0 0 0 0 0 0 0 0 0 0 0 .4 0"/><feOffset dx="4.0" dy="4.0" in="blurOut2" result="blurOut3"/><feBlend in="SourceGraphic" in2="blurOut3" mode="normal"/></filter></defs><g><!--cluster org.jgrapes.http--><polygon fill="#FFFFFF" filter="url(#fd2v2mty7nnyk)" points="288.5,24,422.5,24,429.5,46.2969,432.5,46.2969,432.5,123,288.5,123,288.5,24" style="stroke: #000000; stroke-width: 2.0;"/><line style="stroke: #000000; stroke-width: 2.0;" x1="288.5" x2="429.5" y1="46.2969" y2="46.2969"/><text fill="#000000" font-family="sans-serif" font-size="14" font-weight="bold" lengthAdjust="spacingAndGlyphs" textLength="128" x="292.5" y="38.9951">org.jgrapes.http</text><!--class Session--><rect fill="#FEFECE" filter="url(#fd2v2mty7nnyk)" height="48" id="Session" style="stroke: #A80036; stroke-width: 1.5;" width="81" x="306" y="59"/><ellipse cx="321" cy="75" fill="#ADD1B2" rx="11" ry="11" style="stroke: #A80036; stroke-width: 1.0;"/><path d="M323.9688,80.6406 Q323.3906,80.9375 322.75,81.0781 Q322.1094,81.2344 321.4063,81.2344 Q318.9063,81.2344 317.5781,79.5938 Q316.2656,77.9375 316.2656,74.8125 Q316.2656,71.6875 317.5781,70.0313 Q318.9063,68.375 321.4063,68.375 Q322.1094,68.375 322.75,68.5313 Q323.4063,68.6875 323.9688,68.9844 L323.9688,71.7031 Q323.3438,71.125 322.75,70.8594 Q322.1563,70.5781 321.5313,70.5781 Q320.1875,70.5781 319.5,71.6563 Q318.8125,72.7188 318.8125,74.8125 Q318.8125,76.9063 319.5,77.9844 Q320.1875,79.0469 321.5313,79.0469 Q322.1563,79.0469 322.75,78.7813 Q323.3438,78.5 323.9688,77.9219 L323.9688,80.6406 Z "/><text fill="#000000" font-family="sans-serif" font-size="12" lengthAdjust="spacingAndGlyphs" textLength="49" x="335" y="79.1543">Session</text><line style="stroke: #A80036; stroke-width: 1.5;" x1="307" x2="386" y1="91" y2="91"/><line style="stroke: #A80036; stroke-width: 1.5;" x1="307" x2="386" y1="99" y2="99"/><!--class ConsoleSession--><rect fill="#FEFECE" filter="url(#fd2v2mty7nnyk)" height="188.8516" id="ConsoleSession" style="stroke: #A80036; stroke-width: 1.5;" width="469" x="6" y="186"/><ellipse cx="186.75" cy="202" fill="#ADD1B2" rx="11" ry="11" style="stroke: #A80036; stroke-width: 1.0;"/><path d="M189.7188,207.6406 Q189.1406,207.9375 188.5,208.0781 Q187.8594,208.2344 187.1563,208.2344 Q184.6563,208.2344 183.3281,206.5938 Q182.0156,204.9375 182.0156,201.8125 Q182.0156,198.6875 183.3281,197.0313 Q184.6563,195.375 187.1563,195.375 Q187.8594,195.375 188.5,195.5313 Q189.1563,195.6875 189.7188,195.9844 L189.7188,198.7031 Q189.0938,198.125 188.5,197.8594 Q187.9063,197.5781 187.2813,197.5781 Q185.9375,197.5781 185.25,198.6563 Q184.5625,199.7188 184.5625,201.8125 Q184.5625,203.9063 185.25,204.9844 Q185.9375,206.0469 187.2813,206.0469 Q187.9063,206.0469 188.5,205.7813 Q189.0938,205.5 189.7188,204.9219 L189.7188,207.6406 Z "/><text fill="#000000" font-family="sans-serif" font-size="12" lengthAdjust="spacingAndGlyphs" textLength="99" x="207.25" y="206.1543">ConsoleSession</text><line style="stroke: #A80036; stroke-width: 1.5;" x1="7" x2="474" y1="218" y2="218"/><rect fill="none" height="6" style="stroke: #C82930; stroke-width: 1.0;" width="6" x="14" y="226.9023"/><text fill="#000000" font-family="sans-serif" font-size="11" lengthAdjust="spacingAndGlyphs" text-decoration="underline" textLength="272" x="26" y="232.2104">Map&lt;String,ConsoleSession&gt; consoleSessions</text><line style="stroke: #000000; stroke-width: 1.0;" x1="26" x2="298" y1="234.2104" y2="234.2104"/><line style="stroke: #A80036; stroke-width: 1.5;" x1="7" x2="474" y1="238.8047" y2="238.8047"/><ellipse cx="17" cy="250.707" fill="#84BE84" rx="3" ry="3" style="stroke: #038048; stroke-width: 1.0;"/><text fill="#000000" font-family="sans-serif" font-size="11" lengthAdjust="spacingAndGlyphs" text-decoration="underline" textLength="443" x="26" y="253.0151">findOrCreate(String consoleSessionId, Manager component): ConsoleSession</text><line style="stroke: #000000; stroke-width: 1.0;" x1="26" x2="469" y1="255.0151" y2="255.0151"/><ellipse cx="17" cy="263.5117" fill="#84BE84" rx="3" ry="3" style="stroke: #038048; stroke-width: 1.0;"/><text fill="#000000" font-family="sans-serif" font-size="11" lengthAdjust="spacingAndGlyphs" textLength="247" x="26" y="265.8198">setTimeout(timeout: long): ConsoleSession</text><ellipse cx="17" cy="276.3164" fill="#84BE84" rx="3" ry="3" style="stroke: #038048; stroke-width: 1.0;"/><text fill="#000000" font-family="sans-serif" font-size="11" lengthAdjust="spacingAndGlyphs" textLength="81" x="26" y="278.6245">refresh(): void</text><ellipse cx="17" cy="289.1211" fill="#84BE84" rx="3" ry="3" style="stroke: #038048; stroke-width: 1.0;"/><text fill="#000000" font-family="sans-serif" font-size="11" lengthAdjust="spacingAndGlyphs" textLength="411" x="26" y="291.4292">setUpstreamChannel(IOSubchannel upstreamChannel): ConsoleSession</text><ellipse cx="17" cy="301.9258" fill="#84BE84" rx="3" ry="3" style="stroke: #038048; stroke-width: 1.0;"/><text fill="#000000" font-family="sans-serif" font-size="11" lengthAdjust="spacingAndGlyphs" textLength="315" x="26" y="304.2339">setSession(Session browserSession): ConsoleSession</text><ellipse cx="17" cy="314.7305" fill="#84BE84" rx="3" ry="3" style="stroke: #038048; stroke-width: 1.0;"/><text fill="#000000" font-family="sans-serif" font-size="11" lengthAdjust="spacingAndGlyphs" textLength="164" x="26" y="317.0386">upstreamChannel(): Optional</text><ellipse cx="17" cy="327.5352" fill="#84BE84" rx="3" ry="3" style="stroke: #038048; stroke-width: 1.0;"/><text fill="#000000" font-family="sans-serif" font-size="11" lengthAdjust="spacingAndGlyphs" textLength="150" x="26" y="329.8433">consoleSessionId(): String</text><ellipse cx="17" cy="340.3398" fill="#84BE84" rx="3" ry="3" style="stroke: #038048; stroke-width: 1.0;"/><text fill="#000000" font-family="sans-serif" font-size="11" lengthAdjust="spacingAndGlyphs" textLength="155" x="26" y="342.6479">browserSession(): Session</text><ellipse cx="17" cy="353.1445" fill="#84BE84" rx="3" ry="3" style="stroke: #038048; stroke-width: 1.0;"/><text fill="#000000" font-family="sans-serif" font-size="11" lengthAdjust="spacingAndGlyphs" textLength="85" x="26" y="355.4526">locale(): Locale</text><ellipse cx="17" cy="365.9492" fill="#84BE84" rx="3" ry="3" style="stroke: #038048; stroke-width: 1.0;"/><text fill="#000000" font-family="sans-serif" font-size="11" lengthAdjust="spacingAndGlyphs" textLength="166" x="26" y="368.2573">setLocale(Locale locale): void</text><!--class IOSubchannel--><rect fill="#FEFECE" filter="url(#fd2v2mty7nnyk)" height="48" id="IOSubchannel" style="stroke: #A80036; stroke-width: 1.5;" width="118" x="152.5" y="59"/><ellipse cx="167.5" cy="75" fill="#B4A7E5" rx="11" ry="11" style="stroke: #A80036; stroke-width: 1.0;"/><path d="M163.4219,70.7656 L163.4219,68.6094 L170.8125,68.6094 L170.8125,70.7656 L168.3438,70.7656 L168.3438,78.8438 L170.8125,78.8438 L170.8125,81 L163.4219,81 L163.4219,78.8438 L165.8906,78.8438 L165.8906,70.7656 L163.4219,70.7656 Z "/><text fill="#000000" font-family="sans-serif" font-size="12" font-style="italic" lengthAdjust="spacingAndGlyphs" textLength="86" x="181.5" y="79.1543">IOSubchannel</text><line style="stroke: #A80036; stroke-width: 1.5;" x1="153.5" x2="269.5" y1="91" y2="91"/><line style="stroke: #A80036; stroke-width: 1.5;" x1="153.5" x2="269.5" y1="99" y2="99"/><!--link IOSubchannel to ConsoleSession--><path d="M217.9,127.12 C220.48,144.5 223.56,165.28 226.6,185.82 " fill="none" id="IOSubchannel-ConsoleSession" style="stroke: #A80036; stroke-width: 1.0; stroke-dasharray: 7.0,7.0;"/><polygon fill="none" points="210.95,128,214.94,107.19,224.8,125.95,210.95,128" style="stroke: #A80036; stroke-width: 1.0;"/><!--link ConsoleSession to ConsoleSession--><path d="M488.03,263.87 C501.8,267.91 510,273.45 510,280.5 C510,289.52 496.57,296.08 475.21,300.17 " fill="none" id="ConsoleSession-ConsoleSession" style="stroke: #A80036; stroke-width: 1.0;"/><polygon fill="#A80036" points="475.21,260.83,480.1257,266.1059,486.8865,263.5976,481.9708,258.3216,475.21,260.83" style="stroke: #A80036; stroke-width: 1.0;"/><text fill="#000000" font-family="sans-serif" font-size="13" lengthAdjust="spacingAndGlyphs" textLength="63" x="516" y="285.0669">maintains</text><text fill="#000000" font-family="sans-serif" font-size="13" lengthAdjust="spacingAndGlyphs" textLength="8" x="483.0427" y="257.01">1</text><text fill="#000000" font-family="sans-serif" font-size="13" lengthAdjust="spacingAndGlyphs" textLength="7" x="483.0263" y="297.6408">*</text><!--link Session to ConsoleSession--><path d="M331.32,111.99 C320.72,131.55 305.89,158.89 291.29,185.82 " fill="none" id="Session-ConsoleSession" style="stroke: #A80036; stroke-width: 1.0;"/><polygon fill="#A80036" points="333.92,107.19,326.1289,113.2148,331.5478,111.5914,333.1712,117.0104,333.92,107.19" style="stroke: #A80036; stroke-width: 1.0;"/><text fill="#000000" font-family="sans-serif" font-size="13" lengthAdjust="spacingAndGlyphs" textLength="102" x="315.5" y="152.0669">browser session</text><text fill="#000000" font-family="sans-serif" font-size="13" lengthAdjust="spacingAndGlyphs" textLength="8" x="321.8786" y="126.9975">1</text><text fill="#000000" font-family="sans-serif" font-size="13" lengthAdjust="spacingAndGlyphs" textLength="7" x="287.9106" y="175.0745">*</text><!--
@startuml
class ConsoleSession {
  -{static}Map<String,ConsoleSession> consoleSessions
  +{static}findOrCreate(String consoleSessionId, Manager component): ConsoleSession
  +setTimeout(timeout: long): ConsoleSession
  +refresh(): void
  +setUpstreamChannel(IOSubchannel upstreamChannel): ConsoleSession
  +setSession(Session browserSession): ConsoleSession
  +upstreamChannel(): Optional
  +consoleSessionId(): String
  +browserSession(): Session
  +locale(): Locale
  +setLocale(Locale locale): void
 }
 Interface IOSubchannel {
 }
 IOSubchannel <|.. ConsoleSession

 ConsoleSession "1" *- - "*" ConsoleSession : maintains
 
 package org.jgrapes.http {
     class Session
 }
 
 ConsoleSession "*" -up-> "1" Session: browser session
@enduml

PlantUML version 1.2017.18(Fri Oct 06 16:56:32 UTC 2017)
(GPL source distribution)
Java Runtime: OpenJDK Runtime Environment
JVM: OpenJDK 64-Bit Server VM
Java Version: 11.0.14+9-LTS
Operating System: Linux
OS Version: 5.11.0-1025-azure
Default Encoding: UTF-8
Language: en
Country: 
--></g></svg>