<?xml version="1.0" encoding="us-ascii" standalone="no"?><svg xmlns="http://www.w3.org/2000/svg" xmlns:xlink="http://www.w3.org/1999/xlink" contentStyleType="text/css" height="536px" preserveAspectRatio="none" style="width:736px;height:536px;background:#FFFFFF;" version="1.1" viewBox="0 0 736 536" width="736px" zoomAndPan="magnify"><defs/><g><!--cluster org--><g id="cluster_org"><path d="M367.5,6 L395.5,6 A3.75,3.75 0 0 1 398,8.5 L405,28.2969 L578.5,28.2969 A2.5,2.5 0 0 1 581,30.7969 L581,236.5 A2.5,2.5 0 0 1 578.5,239 L367.5,239 A2.5,2.5 0 0 1 365,236.5 L365,8.5 A2.5,2.5 0 0 1 367.5,6 " fill="none" style="stroke:#000000;stroke-width:1.5;"/><line style="stroke:#000000;stroke-width:1.5;" x1="365" x2="405" y1="28.2969" y2="28.2969"/><text fill="#000000" font-family="sans-serif" font-size="14" font-weight="bold" lengthAdjust="spacing" textLength="27" x="369" y="20.9951">org</text></g><!--cluster jgrapes--><g id="cluster_jgrapes"><path d="M391.5,49 L451.5,49 A3.75,3.75 0 0 1 454,51.5 L461,71.2969 L554.5,71.2969 A2.5,2.5 0 0 1 557,73.7969 L557,212.5 A2.5,2.5 0 0 1 554.5,215 L391.5,215 A2.5,2.5 0 0 1 389,212.5 L389,51.5 A2.5,2.5 0 0 1 391.5,49 " fill="none" style="stroke:#000000;stroke-width:1.5;"/><line style="stroke:#000000;stroke-width:1.5;" x1="389" x2="461" y1="71.2969" y2="71.2969"/><text fill="#000000" font-family="sans-serif" font-size="14" font-weight="bold" lengthAdjust="spacing" textLength="59" x="393" y="63.9951">jgrapes</text></g><!--cluster http--><g id="cluster_http"><path d="M415.5,92 L448.5,92 A3.75,3.75 0 0 1 451,94.5 L458,114.2969 L530.5,114.2969 A2.5,2.5 0 0 1 533,116.7969 L533,188.5 A2.5,2.5 0 0 1 530.5,191 L415.5,191 A2.5,2.5 0 0 1 413,188.5 L413,94.5 A2.5,2.5 0 0 1 415.5,92 " fill="none" style="stroke:#000000;stroke-width:1.5;"/><line style="stroke:#000000;stroke-width:1.5;" x1="413" x2="458" y1="114.2969" y2="114.2969"/><text fill="#000000" font-family="sans-serif" font-size="14" font-weight="bold" lengthAdjust="spacing" textLength="32" x="417" y="106.9951">http</text></g><!--class Session--><g id="elem_Session"><rect codeLine="23" fill="#F1F1F1" height="48" id="Session" rx="2.5" ry="2.5" style="stroke:#181818;stroke-width:0.5;" width="87" x="429.5" y="127"/><ellipse cx="444.5" cy="143" fill="#ADD1B2" rx="11" ry="11" style="stroke:#181818;stroke-width:1.0;"/><path d="M447.4688,148.6406 Q446.8906,148.9375 446.25,149.0781 Q445.6094,149.2344 444.9063,149.2344 Q442.4063,149.2344 441.0781,147.5938 Q439.7656,145.9375 439.7656,142.8125 Q439.7656,139.6875 441.0781,138.0313 Q442.4063,136.375 444.9063,136.375 Q445.6094,136.375 446.25,136.5313 Q446.9063,136.6875 447.4688,136.9844 L447.4688,139.7031 Q446.8438,139.125 446.25,138.8594 Q445.6563,138.5781 445.0313,138.5781 Q443.6875,138.5781 443,139.6563 Q442.3125,140.7188 442.3125,142.8125 Q442.3125,144.9063 443,145.9844 Q443.6875,147.0469 445.0313,147.0469 Q445.6563,147.0469 446.25,146.7813 Q446.8438,146.5 447.4688,145.9219 L447.4688,148.6406 Z " fill="#000000"/><text fill="#000000" font-family="sans-serif" font-size="14" lengthAdjust="spacing" textLength="55" x="458.5" y="147.8467">Session</text><line style="stroke:#181818;stroke-width:0.5;" x1="430.5" x2="515.5" y1="159" y2="159"/><line style="stroke:#181818;stroke-width:0.5;" x1="430.5" x2="515.5" y1="167" y2="167"/></g><!--class ConsoleConnection--><g id="elem_ConsoleConnection"><rect codeLine="1" fill="#F1F1F1" height="227.2656" id="ConsoleConnection" rx="2.5" ry="2.5" style="stroke:#181818;stroke-width:0.5;" width="612" x="7" y="302"/><ellipse cx="240.25" cy="318" fill="#ADD1B2" rx="11" ry="11" style="stroke:#181818;stroke-width:1.0;"/><path d="M243.2188,323.6406 Q242.6406,323.9375 242,324.0781 Q241.3594,324.2344 240.6563,324.2344 Q238.1563,324.2344 236.8281,322.5938 Q235.5156,320.9375 235.5156,317.8125 Q235.5156,314.6875 236.8281,313.0313 Q238.1563,311.375 240.6563,311.375 Q241.3594,311.375 242,311.5313 Q242.6563,311.6875 243.2188,311.9844 L243.2188,314.7031 Q242.5938,314.125 242,313.8594 Q241.4063,313.5781 240.7813,313.5781 Q239.4375,313.5781 238.75,314.6563 Q238.0625,315.7188 238.0625,317.8125 Q238.0625,319.9063 238.75,320.9844 Q239.4375,322.0469 240.7813,322.0469 Q241.4063,322.0469 242,321.7813 Q242.5938,321.5 243.2188,320.9219 L243.2188,323.6406 Z " fill="#000000"/><text fill="#000000" font-family="sans-serif" font-size="14" lengthAdjust="spacing" textLength="137" x="260.75" y="322.8467">ConsoleConnection</text><line style="stroke:#181818;stroke-width:0.5;" x1="8" x2="618" y1="334" y2="334"/><rect fill="none" height="6" style="stroke:#C82930;stroke-width:1.0;" width="6" x="15" y="344.6484"/><text fill="#000000" font-family="sans-serif" font-size="14" lengthAdjust="spacing" text-decoration="underline" textLength="381" x="27" y="350.9951">Map&lt;String,ConsoleConnection&gt; consoleConnections</text><line style="stroke:#181818;stroke-width:0.5;" x1="8" x2="618" y1="358.2969" y2="358.2969"/><ellipse cx="18" cy="371.9453" fill="#84BE84" rx="3" ry="3" style="stroke:#038048;stroke-width:1.0;"/><text fill="#000000" font-family="sans-serif" font-size="14" lengthAdjust="spacing" text-decoration="underline" textLength="586" x="27" y="375.292">findOrCreate(String consoleConnectionId, Manager component): ConsoleConnection</text><ellipse cx="18" cy="388.2422" fill="#84BE84" rx="3" ry="3" style="stroke:#038048;stroke-width:1.0;"/><text fill="#000000" font-family="sans-serif" font-size="14" lengthAdjust="spacing" textLength="327" x="27" y="391.5889">setTimeout(timeout: long): ConsoleConnection</text><ellipse cx="18" cy="404.5391" fill="#84BE84" rx="3" ry="3" style="stroke:#038048;stroke-width:1.0;"/><text fill="#000000" font-family="sans-serif" font-size="14" lengthAdjust="spacing" textLength="96" x="27" y="407.8857">refresh(): void</text><ellipse cx="18" cy="420.8359" fill="#84BE84" rx="3" ry="3" style="stroke:#038048;stroke-width:1.0;"/><text fill="#000000" font-family="sans-serif" font-size="14" lengthAdjust="spacing" textLength="525" x="27" y="424.1826">setUpstreamChannel(IOSubchannel upstreamChannel): ConsoleConnection</text><ellipse cx="18" cy="437.1328" fill="#84BE84" rx="3" ry="3" style="stroke:#038048;stroke-width:1.0;"/><text fill="#000000" font-family="sans-serif" font-size="14" lengthAdjust="spacing" textLength="458" x="27" y="440.4795">setSessionSupplier(Session sessionSupplier): ConsoleConnection</text><ellipse cx="18" cy="453.4297" fill="#84BE84" rx="3" ry="3" style="stroke:#038048;stroke-width:1.0;"/><text fill="#000000" font-family="sans-serif" font-size="14" lengthAdjust="spacing" textLength="319" x="27" y="456.7764">upstreamChannel(): Optional&lt;IOSubchannel&gt;</text><ellipse cx="18" cy="469.7266" fill="#84BE84" rx="3" ry="3" style="stroke:#038048;stroke-width:1.0;"/><text fill="#000000" font-family="sans-serif" font-size="14" lengthAdjust="spacing" textLength="206" x="27" y="473.0732">consoleConnectionId(): String</text><ellipse cx="18" cy="486.0234" fill="#84BE84" rx="3" ry="3" style="stroke:#038048;stroke-width:1.0;"/><text fill="#000000" font-family="sans-serif" font-size="14" lengthAdjust="spacing" textLength="209" x="27" y="489.3701">session(): Optional&lt;Session&gt;</text><ellipse cx="18" cy="502.3203" fill="#84BE84" rx="3" ry="3" style="stroke:#038048;stroke-width:1.0;"/><text fill="#000000" font-family="sans-serif" font-size="14" lengthAdjust="spacing" textLength="103" x="27" y="505.667">locale(): Locale</text><ellipse cx="18" cy="518.6172" fill="#84BE84" rx="3" ry="3" style="stroke:#038048;stroke-width:1.0;"/><text fill="#000000" font-family="sans-serif" font-size="14" lengthAdjust="spacing" textLength="201" x="27" y="521.9639">setLocale(Locale locale): void</text></g><!--class IOSubchannel--><g id="elem_IOSubchannel"><rect codeLine="15" fill="#F1F1F1" height="48" id="IOSubchannel" rx="2.5" ry="2.5" style="stroke:#181818;stroke-width:0.5;" width="129" x="219.5" y="127"/><ellipse cx="234.5" cy="143" fill="#B4A7E5" rx="11" ry="11" style="stroke:#181818;stroke-width:1.0;"/><path d="M230.4219,138.7656 L230.4219,136.6094 L237.8125,136.6094 L237.8125,138.7656 L235.3438,138.7656 L235.3438,146.8438 L237.8125,146.8438 L237.8125,149 L230.4219,149 L230.4219,146.8438 L232.8906,146.8438 L232.8906,138.7656 L230.4219,138.7656 Z " fill="#000000"/><text fill="#000000" font-family="sans-serif" font-size="14" font-style="italic" lengthAdjust="spacing" textLength="97" x="248.5" y="147.8467">IOSubchannel</text><line style="stroke:#181818;stroke-width:0.5;" x1="220.5" x2="347.5" y1="159" y2="159"/><line style="stroke:#181818;stroke-width:0.5;" x1="220.5" x2="347.5" y1="167" y2="167"/></g><!--reverse link IOSubchannel to ConsoleConnection--><g id="link_IOSubchannel_ConsoleConnection"><path codeLine="18" d="M288.5468,193.1911 C291.7068,221.7911 295.32,254.47 300.54,301.76 " fill="none" id="IOSubchannel-backto-ConsoleConnection" style="stroke:#181818;stroke-width:1.0;stroke-dasharray:7.0,7.0;"/><polygon fill="none" points="286.57,175.3,282.5831,193.8501,294.5105,192.5322,286.57,175.3" style="stroke:#181818;stroke-width:1.0;"/></g><!--reverse link ConsoleConnection to ConsoleConnection--><g id="link_ConsoleConnection_ConsoleConnection"><path codeLine="20" d="M630.8315,397.2005 C652.4915,401.9505 654,406.33 654,415.5 C654,424.67 640.77,431.62 619.11,436.37 " fill="none" id="ConsoleConnection-backto-ConsoleConnection" style="stroke:#181818;stroke-width:1.0;"/><polygon fill="#181818" points="619.11,394.63,624.1139,399.8224,630.8315,397.2005,625.8276,392.0081,619.11,394.63" style="stroke:#181818;stroke-width:1.0;"/><text fill="#000000" font-family="sans-serif" font-size="13" lengthAdjust="spacing" textLength="63" x="660" y="420.0669">maintains</text><text fill="#000000" font-family="sans-serif" font-size="13" lengthAdjust="spacing" textLength="8" x="627.3473" y="390.9416">1</text><text fill="#000000" font-family="sans-serif" font-size="13" lengthAdjust="spacing" textLength="7" x="627.334" y="433.7903">*</text></g><!--reverse link Session to ConsoleConnection--><g id="link_Session_ConsoleConnection"><path codeLine="26" d="M455.6762,180.4227 C438.2362,209.0227 410.54,254.47 381.72,301.76 " fill="none" id="Session-backto-ConsoleConnection" style="stroke:#181818;stroke-width:1.0;"/><polygon fill="#181818" points="458.8,175.3,450.6992,180.9015,456.1969,179.5689,457.5295,185.0666,458.8,175.3" style="stroke:#181818;stroke-width:1.0;"/><text fill="#000000" font-family="sans-serif" font-size="13" lengthAdjust="spacing" textLength="102" x="408" y="268.0669">browser session</text><text fill="#000000" font-family="sans-serif" font-size="13" lengthAdjust="spacing" textLength="8" x="446.3638" y="195.1343">1</text><text fill="#000000" font-family="sans-serif" font-size="13" lengthAdjust="spacing" textLength="7" x="378.8982" y="291.0557">*</text></g><!--SRC=[VLB1Ri8m3BttAwoUEaOhxLeXBfoGXZXq-u0Gt98jJQ8utGwCVr_IPDCAPPKgntxFzhDbBXaHRBGYBT4RXTm9hU2S0PHdSim9VjanisgS5QfRtZ3NmAz3v7CVVt9ReOvxkx7871Qno6t6zhY47LEiG-l1tcY5oZtKjxf2PKBt8dhKWojSj3L8hRfxV8kjHJeL7l_GufXAl1foNbI_EJ5FbiLstmm77XqOfk0_IXeaybup62C5sYBvGDFulGfNZOB6lGaWawk_YjQ1FBEsa12N6lMCJITLag2nWDISIGpmy_XACqIdY0OYwNTPbmmo4CgXRHb7cApfdE19SFLLLNF3PZDNbZ_bi2XBo1Vv35f3ptnd_rD8Duo_-mi1RRlghRFC85Kdvynug_xZuocdUPEocPQ-LJcOSZqsJ-mQ3bP_ah- -jC9l]--></g></svg>