<?xml version="1.0" encoding="UTF-8" standalone="no"?><svg xmlns="http://www.w3.org/2000/svg" xmlns:xlink="http://www.w3.org/1999/xlink" contentScriptType="application/ecmascript" contentStyleType="text/css" height="405px" preserveAspectRatio="none" style="width:712px;height:405px;" version="1.1" viewBox="0 0 712 405" width="712px" zoomAndPan="magnify"><defs><filter height="300%" id="f1uu5sp7bbq4fy" width="300%" x="-1" y="-1"><feGaussianBlur result="blurOut" stdDeviation="2.0"/><feColorMatrix in="blurOut" result="blurOut2" type="matrix" values="0 0 0 0 0 0 0 0 0 0 0 0 0 0 0 0 0 0 .4 0"/><feOffset dx="4.0" dy="4.0" in="blurOut2" result="blurOut3"/><feBlend in="SourceGraphic" in2="blurOut3" mode="normal"/></filter></defs><g><!--cluster Conceptual WebConsole\n(WebConsole Gateway)--><rect fill="#FFFFFF" filter="url(#f1uu5sp7bbq4fy)" height="115" style="stroke: #000000; stroke-width: 2.0;" width="302" x="101.5" y="66"/><text fill="#000000" font-family="sans-serif" font-size="14" font-weight="bold" lengthAdjust="spacingAndGlyphs" textLength="193" x="156" y="80.9951">Conceptual WebConsole</text><text fill="#000000" font-family="sans-serif" font-size="14" font-weight="bold" lengthAdjust="spacingAndGlyphs" textLength="185" x="160" y="97.292">(WebConsole Gateway)</text><!--cluster ##18--><!--class WebConsole--><rect fill="#FEFECE" filter="url(#f1uu5sp7bbq4fy)" height="48" id="WebConsole" style="stroke: #A80036; stroke-width: 1.5;" width="109" x="278" y="117"/><ellipse cx="293" cy="133" fill="#ADD1B2" rx="11" ry="11" style="stroke: #A80036; stroke-width: 1.0;"/><path d="M295.9688,138.6406 Q295.3906,138.9375 294.75,139.0781 Q294.1094,139.2344 293.4063,139.2344 Q290.9063,139.2344 289.5781,137.5938 Q288.2656,135.9375 288.2656,132.8125 Q288.2656,129.6875 289.5781,128.0313 Q290.9063,126.375 293.4063,126.375 Q294.1094,126.375 294.75,126.5313 Q295.4063,126.6875 295.9688,126.9844 L295.9688,129.7031 Q295.3438,129.125 294.75,128.8594 Q294.1563,128.5781 293.5313,128.5781 Q292.1875,128.5781 291.5,129.6563 Q290.8125,130.7188 290.8125,132.8125 Q290.8125,134.9063 291.5,135.9844 Q292.1875,137.0469 293.5313,137.0469 Q294.1563,137.0469 294.75,136.7813 Q295.3438,136.5 295.9688,135.9219 L295.9688,138.6406 Z "/><text fill="#000000" font-family="sans-serif" font-size="12" lengthAdjust="spacingAndGlyphs" textLength="77" x="307" y="137.1543">WebConsole</text><line style="stroke: #A80036; stroke-width: 1.5;" x1="279" x2="386" y1="149" y2="149"/><line style="stroke: #A80036; stroke-width: 1.5;" x1="279" x2="386" y1="157" y2="157"/><!--class ConsoleWeblet--><rect fill="#FEFECE" filter="url(#f1uu5sp7bbq4fy)" height="48" id="ConsoleWeblet" style="stroke: #A80036; stroke-width: 1.5;" width="125" x="118" y="117"/><ellipse cx="133" cy="133" fill="#ADD1B2" rx="11" ry="11" style="stroke: #A80036; stroke-width: 1.0;"/><path d="M135.9688,138.6406 Q135.3906,138.9375 134.75,139.0781 Q134.1094,139.2344 133.4063,139.2344 Q130.9063,139.2344 129.5781,137.5938 Q128.2656,135.9375 128.2656,132.8125 Q128.2656,129.6875 129.5781,128.0313 Q130.9063,126.375 133.4063,126.375 Q134.1094,126.375 134.75,126.5313 Q135.4063,126.6875 135.9688,126.9844 L135.9688,129.7031 Q135.3438,129.125 134.75,128.8594 Q134.1563,128.5781 133.5313,128.5781 Q132.1875,128.5781 131.5,129.6563 Q130.8125,130.7188 130.8125,132.8125 Q130.8125,134.9063 131.5,135.9844 Q132.1875,137.0469 133.5313,137.0469 Q134.1563,137.0469 134.75,136.7813 Q135.3438,136.5 135.9688,135.9219 L135.9688,138.6406 Z "/><text fill="#000000" font-family="sans-serif" font-size="12" lengthAdjust="spacingAndGlyphs" textLength="93" x="147" y="137.1543">ConsoleWeblet</text><line style="stroke: #A80036; stroke-width: 1.5;" x1="119" x2="242" y1="149" y2="149"/><line style="stroke: #A80036; stroke-width: 1.5;" x1="119" x2="242" y1="157" y2="157"/><!--class ConletB--><rect fill="#FEFECE" filter="url(#f1uu5sp7bbq4fy)" height="48" id="ConletB" style="stroke: #A80036; stroke-width: 1.5;" width="80" x="585.5" y="117"/><ellipse cx="600.5" cy="133" fill="#ADD1B2" rx="11" ry="11" style="stroke: #A80036; stroke-width: 1.0;"/><path d="M603.4688,138.6406 Q602.8906,138.9375 602.25,139.0781 Q601.6094,139.2344 600.9063,139.2344 Q598.4063,139.2344 597.0781,137.5938 Q595.7656,135.9375 595.7656,132.8125 Q595.7656,129.6875 597.0781,128.0313 Q598.4063,126.375 600.9063,126.375 Q601.6094,126.375 602.25,126.5313 Q602.9063,126.6875 603.4688,126.9844 L603.4688,129.7031 Q602.8438,129.125 602.25,128.8594 Q601.6563,128.5781 601.0313,128.5781 Q599.6875,128.5781 599,129.6563 Q598.3125,130.7188 598.3125,132.8125 Q598.3125,134.9063 599,135.9844 Q599.6875,137.0469 601.0313,137.0469 Q601.6563,137.0469 602.25,136.7813 Q602.8438,136.5 603.4688,135.9219 L603.4688,138.6406 Z "/><text fill="#000000" font-family="sans-serif" font-size="12" lengthAdjust="spacingAndGlyphs" textLength="48" x="614.5" y="137.1543">ConletB</text><line style="stroke: #A80036; stroke-width: 1.5;" x1="586.5" x2="664.5" y1="149" y2="149"/><line style="stroke: #A80036; stroke-width: 1.5;" x1="586.5" x2="664.5" y1="157" y2="157"/><!--class ConletA--><rect fill="#FEFECE" filter="url(#f1uu5sp7bbq4fy)" height="48" id="ConletA" style="stroke: #A80036; stroke-width: 1.5;" width="80" x="451.5" y="117"/><ellipse cx="466.5" cy="133" fill="#ADD1B2" rx="11" ry="11" style="stroke: #A80036; stroke-width: 1.0;"/><path d="M469.4688,138.6406 Q468.8906,138.9375 468.25,139.0781 Q467.6094,139.2344 466.9063,139.2344 Q464.4063,139.2344 463.0781,137.5938 Q461.7656,135.9375 461.7656,132.8125 Q461.7656,129.6875 463.0781,128.0313 Q464.4063,126.375 466.9063,126.375 Q467.6094,126.375 468.25,126.5313 Q468.9063,126.6875 469.4688,126.9844 L469.4688,129.7031 Q468.8438,129.125 468.25,128.8594 Q467.6563,128.5781 467.0313,128.5781 Q465.6875,128.5781 465,129.6563 Q464.3125,130.7188 464.3125,132.8125 Q464.3125,134.9063 465,135.9844 Q465.6875,137.0469 467.0313,137.0469 Q467.6563,137.0469 468.25,136.7813 Q468.8438,136.5 469.4688,135.9219 L469.4688,138.6406 Z "/><text fill="#000000" font-family="sans-serif" font-size="12" lengthAdjust="spacingAndGlyphs" textLength="48" x="480.5" y="137.1543">ConletA</text><line style="stroke: #A80036; stroke-width: 1.5;" x1="452.5" x2="530.5" y1="149" y2="149"/><line style="stroke: #A80036; stroke-width: 1.5;" x1="452.5" x2="530.5" y1="157" y2="157"/><!--class ConletAData--><rect fill="#FEFECE" filter="url(#f1uu5sp7bbq4fy)" height="60.8047" id="ConletAData" style="stroke: #A80036; stroke-width: 1.5;" width="111" x="444" y="225"/><ellipse cx="459.45" cy="241" fill="#ADD1B2" rx="11" ry="11" style="stroke: #A80036; stroke-width: 1.0;"/><path d="M462.4188,246.6406 Q461.8406,246.9375 461.2,247.0781 Q460.5594,247.2344 459.8563,247.2344 Q457.3563,247.2344 456.0281,245.5938 Q454.7156,243.9375 454.7156,240.8125 Q454.7156,237.6875 456.0281,236.0313 Q457.3563,234.375 459.8563,234.375 Q460.5594,234.375 461.2,234.5313 Q461.8563,234.6875 462.4188,234.9844 L462.4188,237.7031 Q461.7938,237.125 461.2,236.8594 Q460.6063,236.5781 459.9813,236.5781 Q458.6375,236.5781 457.95,237.6563 Q457.2625,238.7188 457.2625,240.8125 Q457.2625,242.9063 457.95,243.9844 Q458.6375,245.0469 459.9813,245.0469 Q460.6063,245.0469 461.2,244.7813 Q461.7938,244.5 462.4188,243.9219 L462.4188,246.6406 Z "/><text fill="#000000" font-family="sans-serif" font-size="12" lengthAdjust="spacingAndGlyphs" textLength="78" x="473.55" y="245.1543">ConletAData</text><line style="stroke: #A80036; stroke-width: 1.5;" x1="445" x2="554" y1="257" y2="257"/><rect fill="none" height="6" style="stroke: #C82930; stroke-width: 1.0;" width="6" x="452" y="265.9023"/><text fill="#000000" font-family="sans-serif" font-size="11" lengthAdjust="spacingAndGlyphs" textLength="85" x="464" y="271.2104">conletId: String</text><line style="stroke: #A80036; stroke-width: 1.5;" x1="445" x2="554" y1="277.8047" y2="277.8047"/><!--class ConletBData--><rect fill="#FEFECE" filter="url(#f1uu5sp7bbq4fy)" height="60.8047" id="ConletBData" style="stroke: #A80036; stroke-width: 1.5;" width="111" x="590" y="225"/><ellipse cx="605.45" cy="241" fill="#ADD1B2" rx="11" ry="11" style="stroke: #A80036; stroke-width: 1.0;"/><path d="M608.4188,246.6406 Q607.8406,246.9375 607.2,247.0781 Q606.5594,247.2344 605.8563,247.2344 Q603.3563,247.2344 602.0281,245.5938 Q600.7156,243.9375 600.7156,240.8125 Q600.7156,237.6875 602.0281,236.0313 Q603.3563,234.375 605.8563,234.375 Q606.5594,234.375 607.2,234.5313 Q607.8563,234.6875 608.4188,234.9844 L608.4188,237.7031 Q607.7938,237.125 607.2,236.8594 Q606.6063,236.5781 605.9813,236.5781 Q604.6375,236.5781 603.95,237.6563 Q603.2625,238.7188 603.2625,240.8125 Q603.2625,242.9063 603.95,243.9844 Q604.6375,245.0469 605.9813,245.0469 Q606.6063,245.0469 607.2,244.7813 Q607.7938,244.5 608.4188,243.9219 L608.4188,246.6406 Z "/><text fill="#000000" font-family="sans-serif" font-size="12" lengthAdjust="spacingAndGlyphs" textLength="78" x="619.55" y="245.1543">ConletBData</text><line style="stroke: #A80036; stroke-width: 1.5;" x1="591" x2="700" y1="257" y2="257"/><rect fill="none" height="6" style="stroke: #C82930; stroke-width: 1.0;" width="6" x="598" y="265.9023"/><text fill="#000000" font-family="sans-serif" font-size="11" lengthAdjust="spacingAndGlyphs" textLength="85" x="610" y="271.2104">conletId: String</text><line style="stroke: #A80036; stroke-width: 1.5;" x1="591" x2="700" y1="277.8047" y2="277.8047"/><!--class Session--><rect fill="#FEFECE" filter="url(#f1uu5sp7bbq4fy)" height="48" id="Session" style="stroke: #A80036; stroke-width: 1.5;" width="81" x="532" y="346"/><ellipse cx="547" cy="362" fill="#ADD1B2" rx="11" ry="11" style="stroke: #A80036; stroke-width: 1.0;"/><path d="M549.9688,367.6406 Q549.3906,367.9375 548.75,368.0781 Q548.1094,368.2344 547.4063,368.2344 Q544.9063,368.2344 543.5781,366.5938 Q542.2656,364.9375 542.2656,361.8125 Q542.2656,358.6875 543.5781,357.0313 Q544.9063,355.375 547.4063,355.375 Q548.1094,355.375 548.75,355.5313 Q549.4063,355.6875 549.9688,355.9844 L549.9688,358.7031 Q549.3438,358.125 548.75,357.8594 Q548.1563,357.5781 547.5313,357.5781 Q546.1875,357.5781 545.5,358.6563 Q544.8125,359.7188 544.8125,361.8125 Q544.8125,363.9063 545.5,364.9844 Q546.1875,366.0469 547.5313,366.0469 Q548.1563,366.0469 548.75,365.7813 Q549.3438,365.5 549.9688,364.9219 L549.9688,367.6406 Z "/><text fill="#000000" font-family="sans-serif" font-size="12" lengthAdjust="spacingAndGlyphs" textLength="49" x="561" y="366.1543">Session</text><line style="stroke: #A80036; stroke-width: 1.5;" x1="533" x2="612" y1="378" y2="378"/><line style="stroke: #A80036; stroke-width: 1.5;" x1="533" x2="612" y1="386" y2="386"/><!--entity Browser--><rect fill="#FEFECE" filter="url(#f1uu5sp7bbq4fy)" height="36.2969" style="stroke: #A80036; stroke-width: 1.5;" width="77" x="6" y="123"/><rect fill="#FEFECE" height="5" style="stroke: #A80036; stroke-width: 1.5;" width="10" x="1" y="128"/><rect fill="#FEFECE" height="5" style="stroke: #A80036; stroke-width: 1.5;" width="10" x="1" y="149.2969"/><text fill="#000000" font-family="sans-serif" font-size="14" lengthAdjust="spacingAndGlyphs" textLength="57" x="16" y="145.9951">Browser</text><!--class PageResourceProvider--><rect fill="#FEFECE" filter="url(#f1uu5sp7bbq4fy)" height="48" id="PageResourceProvider" style="stroke: #A80036; stroke-width: 1.5;" width="174" x="73.5" y="231.5"/><ellipse cx="88.5" cy="247.5" fill="#ADD1B2" rx="11" ry="11" style="stroke: #A80036; stroke-width: 1.0;"/><path d="M91.4688,253.1406 Q90.8906,253.4375 90.25,253.5781 Q89.6094,253.7344 88.9063,253.7344 Q86.4063,253.7344 85.0781,252.0938 Q83.7656,250.4375 83.7656,247.3125 Q83.7656,244.1875 85.0781,242.5313 Q86.4063,240.875 88.9063,240.875 Q89.6094,240.875 90.25,241.0313 Q90.9063,241.1875 91.4688,241.4844 L91.4688,244.2031 Q90.8438,243.625 90.25,243.3594 Q89.6563,243.0781 89.0313,243.0781 Q87.6875,243.0781 87,244.1563 Q86.3125,245.2188 86.3125,247.3125 Q86.3125,249.4063 87,250.4844 Q87.6875,251.5469 89.0313,251.5469 Q89.6563,251.5469 90.25,251.2813 Q90.8438,251 91.4688,250.4219 L91.4688,253.1406 Z "/><text fill="#000000" font-family="sans-serif" font-size="12" lengthAdjust="spacingAndGlyphs" textLength="142" x="102.5" y="251.6543">PageResourceProvider</text><line style="stroke: #A80036; stroke-width: 1.5;" x1="74.5" x2="246.5" y1="263.5" y2="263.5"/><line style="stroke: #A80036; stroke-width: 1.5;" x1="74.5" x2="246.5" y1="271.5" y2="271.5"/><!--class ConsolePolicy--><rect fill="#FEFECE" filter="url(#f1uu5sp7bbq4fy)" height="48" id="ConsolePolicy" style="stroke: #A80036; stroke-width: 1.5;" width="117" x="283" y="231.5"/><ellipse cx="298" cy="247.5" fill="#ADD1B2" rx="11" ry="11" style="stroke: #A80036; stroke-width: 1.0;"/><path d="M300.9688,253.1406 Q300.3906,253.4375 299.75,253.5781 Q299.1094,253.7344 298.4063,253.7344 Q295.9063,253.7344 294.5781,252.0938 Q293.2656,250.4375 293.2656,247.3125 Q293.2656,244.1875 294.5781,242.5313 Q295.9063,240.875 298.4063,240.875 Q299.1094,240.875 299.75,241.0313 Q300.4063,241.1875 300.9688,241.4844 L300.9688,244.2031 Q300.3438,243.625 299.75,243.3594 Q299.1563,243.0781 298.5313,243.0781 Q297.1875,243.0781 296.5,244.1563 Q295.8125,245.2188 295.8125,247.3125 Q295.8125,249.4063 296.5,250.4844 Q297.1875,251.5469 298.5313,251.5469 Q299.1563,251.5469 299.75,251.2813 Q300.3438,251 300.9688,250.4219 L300.9688,253.1406 Z "/><text fill="#000000" font-family="sans-serif" font-size="12" lengthAdjust="spacingAndGlyphs" textLength="85" x="312" y="251.6543">ConsolePolicy</text><line style="stroke: #A80036; stroke-width: 1.5;" x1="284" x2="399" y1="263.5" y2="263.5"/><line style="stroke: #A80036; stroke-width: 1.5;" x1="284" x2="399" y1="271.5" y2="271.5"/><!--link ConsoleWeblet to WebConsole--><path d="M243.14,141 C254.66,141 266.18,141 277.7,141 " fill="none" id="ConsoleWeblet-WebConsole" style="stroke: #A80036; stroke-width: 1.0;"/><text fill="#000000" font-family="sans-serif" font-size="13" lengthAdjust="spacingAndGlyphs" textLength="8" x="250.8453" y="137.2074">1</text><text fill="#000000" font-family="sans-serif" font-size="13" lengthAdjust="spacingAndGlyphs" textLength="8" x="262.1663" y="137.1145">1</text><!--link Browser to ConsoleWeblet--><path d="M83.02,141 C94.57,141 106.12,141 117.67,141 " fill="none" id="Browser-ConsoleWeblet" style="stroke: #A80036; stroke-width: 1.0;"/><text fill="#000000" font-family="sans-serif" font-size="13" lengthAdjust="spacingAndGlyphs" textLength="7" x="91.0301" y="136.6216">*</text><text fill="#000000" font-family="sans-serif" font-size="13" lengthAdjust="spacingAndGlyphs" textLength="7" x="103.0006" y="137.2074">*</text><!--link WebConsole to ConletB--><path d="M348.76,116.78 C367.26,91.64 400.02,53.81 439.17,38 C479.83,21.57 498.03,19.61 537.83,38 C572.79,54.15 598.94,91.88 613.22,116.91 " fill="none" id="WebConsole-ConletB" style="stroke: #A80036; stroke-width: 1.0;"/><text fill="#000000" font-family="sans-serif" font-size="13" lengthAdjust="spacingAndGlyphs" textLength="8" x="343.7484" y="106.1313">1</text><text fill="#000000" font-family="sans-serif" font-size="13" lengthAdjust="spacingAndGlyphs" textLength="8" x="602.4427" y="105.7482">1</text><!--link WebConsole to ConletA--><path d="M387.16,157.24 C408.49,160.26 429.82,159.39 451.15,154.64 " fill="none" id="WebConsole-ConletA" style="stroke: #A80036; stroke-width: 1.0;"/><text fill="#000000" font-family="sans-serif" font-size="13" lengthAdjust="spacingAndGlyphs" textLength="8" x="395.0424" y="155.4903">1</text><text fill="#000000" font-family="sans-serif" font-size="13" lengthAdjust="spacingAndGlyphs" textLength="8" x="435.5273" y="120.8049">1</text><!--link ConletA to ConletAData--><path d="M493.14,165.04 C494.36,182.27 496.05,205.97 497.38,224.65 " fill="none" id="ConletA-ConletAData" style="stroke: #A80036; stroke-width: 1.0;"/><text fill="#000000" font-family="sans-serif" font-size="13" lengthAdjust="spacingAndGlyphs" textLength="8" x="484.5352" y="185.206">1</text><text fill="#000000" font-family="sans-serif" font-size="13" lengthAdjust="spacingAndGlyphs" textLength="7" x="489.2209" y="213.841">*</text><!--link ConletB to ConletBData--><path d="M629.6,165.04 C632.66,182.27 636.87,205.97 640.19,224.65 " fill="none" id="ConletB-ConletBData" style="stroke: #A80036; stroke-width: 1.0;"/><text fill="#000000" font-family="sans-serif" font-size="13" lengthAdjust="spacingAndGlyphs" textLength="8" x="621.6256" y="185.206">1</text><text fill="#000000" font-family="sans-serif" font-size="13" lengthAdjust="spacingAndGlyphs" textLength="7" x="631.3729" y="213.841">*</text><!--link ConletAData to Session--><path d="M518.68,286.06 C528.31,300.9 540.03,318.96 550.07,334.43 " fill="none" id="ConletAData-Session" style="stroke: #A80036; stroke-width: 1.0;"/><polygon fill="#A80036" points="557.36,345.67,557.4502,338.4595,550.829,335.603,550.7388,342.8135,557.36,345.67" style="stroke: #A80036; stroke-width: 1.0;"/><text fill="#000000" font-family="sans-serif" font-size="13" lengthAdjust="spacingAndGlyphs" textLength="7" x="514.914" y="306.0106">*</text><text fill="#000000" font-family="sans-serif" font-size="13" lengthAdjust="spacingAndGlyphs" textLength="8" x="544.6946" y="334.9945">1</text><!--link ConletBData to Session--><path d="M626.32,286.06 C616.69,300.9 604.97,318.96 594.93,334.43 " fill="none" id="ConletBData-Session" style="stroke: #A80036; stroke-width: 1.0;"/><polygon fill="#A80036" points="587.64,345.67,594.2612,342.8135,594.171,335.603,587.5498,338.4595,587.64,345.67" style="stroke: #A80036; stroke-width: 1.0;"/><text fill="#000000" font-family="sans-serif" font-size="13" lengthAdjust="spacingAndGlyphs" textLength="7" x="614.6423" y="306.0106">*</text><text fill="#000000" font-family="sans-serif" font-size="13" lengthAdjust="spacingAndGlyphs" textLength="8" x="582.3554" y="334.9945">1</text><!--link WebConsole to PageResourceProvider--><path d="M297.28,165.04 C267.6,184.45 225.34,212.09 195.67,231.49 " fill="none" id="WebConsole-PageResourceProvider" style="stroke: #A80036; stroke-width: 1.0;"/><text fill="#000000" font-family="sans-serif" font-size="13" lengthAdjust="spacingAndGlyphs" textLength="8" x="279.2299" y="185.206">1</text><text fill="#000000" font-family="sans-serif" font-size="13" lengthAdjust="spacingAndGlyphs" textLength="7" x="196.7854" y="220.4995">*</text><!--link WebConsole to ConsolePolicy--><path d="M334.34,165.04 C335.9,184.45 338.11,212.09 339.66,231.49 " fill="none" id="WebConsole-ConsolePolicy" style="stroke: #A80036; stroke-width: 1.0;"/><text fill="#000000" font-family="sans-serif" font-size="13" lengthAdjust="spacingAndGlyphs" textLength="8" x="325.7865" y="185.206">1</text><text fill="#000000" font-family="sans-serif" font-size="13" lengthAdjust="spacingAndGlyphs" textLength="7" x="331.2916" y="220.4995">*</text><!--
@startuml
skinparam packageStyle rectangle
 allow_mixing
 
 component Browser
 
 package "Conceptual WebConsole\n(WebConsole Gateway)" {
    class WebConsole
 	  class ConsoleWeblet
 
    WebConsole "1" -left- "1" ConsoleWeblet
 }
 
 ConsoleWeblet "*" -left- "*" Browser
 
 together {
 
   WebConsole "1" -right- "1" ConletB
   WebConsole "1" -right- "1" ConletA
 
   class ConletAData {
     -conletId: String
   }
 
   ConletAData "*" -up- "1" ConletA
 
   class ConletBData {
     -conletId: String
   }
 
   ConletBData "*" -up- "1" ConletB
   
   ConletAData "*" -up-* "1" Session
   ConletBData "*" -up-* "1" Session
 }
 
 WebConsole "1" -down- "*" PageResourceProvider
 WebConsole "1" -down- "*" ConsolePolicy
@enduml

PlantUML version 1.2017.18(Fri Oct 06 18:56:32 CEST 2017)
(GPL source distribution)
Java Runtime: OpenJDK Runtime Environment
JVM: OpenJDK 64-Bit Server VM
Java Version: 11.0.12+7
Operating System: Linux
OS Version: 5.13.13-200.fc34.x86_64
Default Encoding: UTF-8
Language: de
Country: DE
--></g></svg>