<?xml version="1.0" encoding="us-ascii" standalone="no"?><svg xmlns="http://www.w3.org/2000/svg" xmlns:xlink="http://www.w3.org/1999/xlink" contentStyleType="text/css" height="301px" preserveAspectRatio="none" style="width:872px;height:301px;background:#FFFFFF;" version="1.1" viewBox="0 0 872 301" width="872px" zoomAndPan="magnify"><defs/><g><!--cluster Conceptual WebConsole\n(WebConsole Gateway)--><g id="cluster_Conceptual WebConsole\n(WebConsole Gateway)"><rect fill="none" height="113" rx="2.5" ry="2.5" style="stroke:#000000;stroke-width:1.5;" width="341" x="122.5" y="57.61"/><text fill="#000000" font-family="sans-serif" font-size="14" font-weight="bold" lengthAdjust="spacing" textLength="193" x="196.5" y="72.6051">Conceptual WebConsole</text><text fill="#000000" font-family="sans-serif" font-size="14" font-weight="bold" lengthAdjust="spacing" textLength="185" x="200.5" y="88.902">(WebConsole Gateway)</text></g><!--cluster together--><g id="cluster_together"><rect fill="none" height="239" rx="2.5" ry="2.5" style="stroke:none;stroke-width:1.5;" width="379" x="487.5" y="56.61"/></g><!--entity WebConsole--><g id="elem_WebConsole"><rect fill="#F1F1F1" height="46.2969" rx="2.5" ry="2.5" style="stroke:#181818;stroke-width:0.5;" width="128" x="319.5" y="108.61"/><rect fill="#F1F1F1" height="10" style="stroke:#181818;stroke-width:0.5;" width="15" x="427.5" y="113.61"/><rect fill="#F1F1F1" height="2" style="stroke:#181818;stroke-width:0.5;" width="4" x="425.5" y="115.61"/><rect fill="#F1F1F1" height="2" style="stroke:#181818;stroke-width:0.5;" width="4" x="425.5" y="119.61"/><text fill="#000000" font-family="sans-serif" font-size="14" lengthAdjust="spacing" textLength="88" x="334.5" y="141.6051">WebConsole</text></g><!--entity ConsoleWeblet--><g id="elem_ConsoleWeblet"><rect fill="#F1F1F1" height="46.2969" rx="2.5" ry="2.5" style="stroke:#181818;stroke-width:0.5;" width="145" x="139" y="108.61"/><rect fill="#F1F1F1" height="10" style="stroke:#181818;stroke-width:0.5;" width="15" x="264" y="113.61"/><rect fill="#F1F1F1" height="2" style="stroke:#181818;stroke-width:0.5;" width="4" x="262" y="115.61"/><rect fill="#F1F1F1" height="2" style="stroke:#181818;stroke-width:0.5;" width="4" x="262" y="119.61"/><text fill="#000000" font-family="sans-serif" font-size="14" lengthAdjust="spacing" textLength="105" x="154" y="141.6051">ConsoleWeblet</text></g><!--entity ConletB--><g id="elem_ConletB"><rect fill="#F1F1F1" height="46.2969" rx="2.5" ry="2.5" style="stroke:#181818;stroke-width:0.5;" width="95" x="755" y="108.61"/><rect fill="#F1F1F1" height="10" style="stroke:#181818;stroke-width:0.5;" width="15" x="830" y="113.61"/><rect fill="#F1F1F1" height="2" style="stroke:#181818;stroke-width:0.5;" width="4" x="828" y="115.61"/><rect fill="#F1F1F1" height="2" style="stroke:#181818;stroke-width:0.5;" width="4" x="828" y="119.61"/><text fill="#000000" font-family="sans-serif" font-size="14" lengthAdjust="spacing" textLength="55" x="770" y="141.6051">ConletB</text></g><!--entity ConletA--><g id="elem_ConletA"><rect fill="#F1F1F1" height="46.2969" rx="2.5" ry="2.5" style="stroke:#181818;stroke-width:0.5;" width="94" x="503.5" y="108.61"/><rect fill="#F1F1F1" height="10" style="stroke:#181818;stroke-width:0.5;" width="15" x="577.5" y="113.61"/><rect fill="#F1F1F1" height="2" style="stroke:#181818;stroke-width:0.5;" width="4" x="575.5" y="115.61"/><rect fill="#F1F1F1" height="2" style="stroke:#181818;stroke-width:0.5;" width="4" x="575.5" y="119.61"/><text fill="#000000" font-family="sans-serif" font-size="14" lengthAdjust="spacing" textLength="54" x="518.5" y="141.6051">ConletA</text></g><!--class ConletAData--><g id="elem_ConletAData"><rect codeLine="28" fill="#F1F1F1" height="64.2969" id="ConletAData" rx="2.5" ry="2.5" style="stroke:#181818;stroke-width:0.5;" width="130" x="504.5" y="215.61"/><ellipse cx="524.9" cy="231.61" fill="#ADD1B2" rx="11" ry="11" style="stroke:#181818;stroke-width:1.0;"/><path d="M527.8688,237.2506 Q527.2906,237.5475 526.65,237.6881 Q526.0094,237.8444 525.3063,237.8444 Q522.8063,237.8444 521.4781,236.2038 Q520.1656,234.5475 520.1656,231.4225 Q520.1656,228.2975 521.4781,226.6413 Q522.8063,224.985 525.3063,224.985 Q526.0094,224.985 526.65,225.1413 Q527.3063,225.2975 527.8688,225.5944 L527.8688,228.3131 Q527.2438,227.735 526.65,227.4694 Q526.0563,227.1881 525.4313,227.1881 Q524.0875,227.1881 523.4,228.2663 Q522.7125,229.3288 522.7125,231.4225 Q522.7125,233.5163 523.4,234.5944 Q524.0875,235.6569 525.4313,235.6569 Q526.0563,235.6569 526.65,235.3913 Q527.2438,235.11 527.8688,234.5319 L527.8688,237.2506 Z " fill="#000000"/><text fill="#000000" font-family="sans-serif" font-size="14" lengthAdjust="spacing" textLength="86" x="540.1" y="236.4567">ConletAData</text><line style="stroke:#181818;stroke-width:0.5;" x1="505.5" x2="633.5" y1="247.61" y2="247.61"/><rect fill="none" height="6" style="stroke:#C82930;stroke-width:1.0;" width="6" x="512.5" y="258.2584"/><text fill="#000000" font-family="sans-serif" font-size="14" lengthAdjust="spacing" textLength="104" x="524.5" y="264.6051">conletId: String</text><line style="stroke:#181818;stroke-width:0.5;" x1="505.5" x2="633.5" y1="271.9069" y2="271.9069"/></g><!--class ConletBData--><g id="elem_ConletBData"><rect codeLine="33" fill="#F1F1F1" height="64.2969" id="ConletBData" rx="2.5" ry="2.5" style="stroke:#181818;stroke-width:0.5;" width="130" x="694.5" y="215.61"/><ellipse cx="714.45" cy="231.61" fill="#ADD1B2" rx="11" ry="11" style="stroke:#181818;stroke-width:1.0;"/><path d="M717.4188,237.2506 Q716.8406,237.5475 716.2,237.6881 Q715.5594,237.8444 714.8563,237.8444 Q712.3563,237.8444 711.0281,236.2038 Q709.7156,234.5475 709.7156,231.4225 Q709.7156,228.2975 711.0281,226.6413 Q712.3563,224.985 714.8563,224.985 Q715.5594,224.985 716.2,225.1413 Q716.8563,225.2975 717.4188,225.5944 L717.4188,228.3131 Q716.7938,227.735 716.2,227.4694 Q715.6063,227.1881 714.9813,227.1881 Q713.6375,227.1881 712.95,228.2663 Q712.2625,229.3288 712.2625,231.4225 Q712.2625,233.5163 712.95,234.5944 Q713.6375,235.6569 714.9813,235.6569 Q715.6063,235.6569 716.2,235.3913 Q716.7938,235.11 717.4188,234.5319 L717.4188,237.2506 Z " fill="#000000"/><text fill="#000000" font-family="sans-serif" font-size="14" lengthAdjust="spacing" textLength="87" x="729.55" y="236.4567">ConletBData</text><line style="stroke:#181818;stroke-width:0.5;" x1="695.5" x2="823.5" y1="247.61" y2="247.61"/><rect fill="none" height="6" style="stroke:#C82930;stroke-width:1.0;" width="6" x="702.5" y="258.2584"/><text fill="#000000" font-family="sans-serif" font-size="14" lengthAdjust="spacing" textLength="104" x="714.5" y="264.6051">conletId: String</text><line style="stroke:#181818;stroke-width:0.5;" x1="695.5" x2="823.5" y1="271.9069" y2="271.9069"/></g><!--class Session--><g id="elem_Session"><rect fill="#F1F1F1" height="48" id="Session" rx="2.5" ry="2.5" style="stroke:#181818;stroke-width:0.5;" width="87" x="633" y="107.61"/><ellipse cx="648" cy="123.61" fill="#ADD1B2" rx="11" ry="11" style="stroke:#181818;stroke-width:1.0;"/><path d="M650.9688,129.2506 Q650.3906,129.5475 649.75,129.6881 Q649.1094,129.8444 648.4063,129.8444 Q645.9063,129.8444 644.5781,128.2038 Q643.2656,126.5475 643.2656,123.4225 Q643.2656,120.2975 644.5781,118.6413 Q645.9063,116.985 648.4063,116.985 Q649.1094,116.985 649.75,117.1413 Q650.4063,117.2975 650.9688,117.5944 L650.9688,120.3131 Q650.3438,119.735 649.75,119.4694 Q649.1563,119.1881 648.5313,119.1881 Q647.1875,119.1881 646.5,120.2663 Q645.8125,121.3288 645.8125,123.4225 Q645.8125,125.5163 646.5,126.5944 Q647.1875,127.6569 648.5313,127.6569 Q649.1563,127.6569 649.75,127.3913 Q650.3438,127.11 650.9688,126.5319 L650.9688,129.2506 Z " fill="#000000"/><text fill="#000000" font-family="sans-serif" font-size="14" lengthAdjust="spacing" textLength="55" x="662" y="128.4567">Session</text><line style="stroke:#181818;stroke-width:0.5;" x1="634" x2="719" y1="139.61" y2="139.61"/><line style="stroke:#181818;stroke-width:0.5;" x1="634" x2="719" y1="147.61" y2="147.61"/></g><!--entity Browser--><g id="elem_Browser"><rect fill="#F1F1F1" height="46.2969" rx="2.5" ry="2.5" style="stroke:#181818;stroke-width:0.5;" width="97" x="7" y="108.61"/><rect fill="#F1F1F1" height="10" style="stroke:#181818;stroke-width:0.5;" width="15" x="84" y="113.61"/><rect fill="#F1F1F1" height="2" style="stroke:#181818;stroke-width:0.5;" width="4" x="82" y="115.61"/><rect fill="#F1F1F1" height="2" style="stroke:#181818;stroke-width:0.5;" width="4" x="82" y="119.61"/><text fill="#000000" font-family="sans-serif" font-size="14" lengthAdjust="spacing" textLength="57" x="22" y="141.6051">Browser</text></g><!--entity PageResourceProvider--><g id="elem_PageResourceProvider"><rect fill="#F1F1F1" height="46.2969" rx="2.5" ry="2.5" style="stroke:#181818;stroke-width:0.5;" width="198" x="91.5" y="224.61"/><rect fill="#F1F1F1" height="10" style="stroke:#181818;stroke-width:0.5;" width="15" x="269.5" y="229.61"/><rect fill="#F1F1F1" height="2" style="stroke:#181818;stroke-width:0.5;" width="4" x="267.5" y="231.61"/><rect fill="#F1F1F1" height="2" style="stroke:#181818;stroke-width:0.5;" width="4" x="267.5" y="235.61"/><text fill="#000000" font-family="sans-serif" font-size="14" lengthAdjust="spacing" textLength="158" x="106.5" y="257.6051">PageResourceProvider</text></g><!--entity ConsolePolicy--><g id="elem_ConsolePolicy"><rect fill="#F1F1F1" height="46.2969" rx="2.5" ry="2.5" style="stroke:#181818;stroke-width:0.5;" width="136" x="324.5" y="224.61"/><rect fill="#F1F1F1" height="10" style="stroke:#181818;stroke-width:0.5;" width="15" x="440.5" y="229.61"/><rect fill="#F1F1F1" height="2" style="stroke:#181818;stroke-width:0.5;" width="4" x="438.5" y="231.61"/><rect fill="#F1F1F1" height="2" style="stroke:#181818;stroke-width:0.5;" width="4" x="438.5" y="235.61"/><text fill="#000000" font-family="sans-serif" font-size="14" lengthAdjust="spacing" textLength="96" x="339.5" y="257.6051">ConsolePolicy</text></g><!--reverse link ConsoleWeblet to WebConsole--><g id="link_ConsoleWeblet_WebConsole"><path codeLine="16" d="M296.06,131.61 C307.84,131.61 307.63,131.61 319.41,131.61 " fill="none" id="ConsoleWeblet-backto-WebConsole" style="stroke:#181818;stroke-width:1.0;"/><polygon fill="#181818" points="284.06,131.61,290.06,135.61,296.06,131.61,290.06,127.61,284.06,131.61" style="stroke:#181818;stroke-width:1.0;"/><text fill="#000000" font-family="sans-serif" font-size="13" lengthAdjust="spacing" textLength="8" x="291.9553" y="127.895">1</text><text fill="#000000" font-family="sans-serif" font-size="13" lengthAdjust="spacing" textLength="8" x="303.5371" y="127.8002">1</text></g><!--link Browser to ConsoleWeblet--><g id="link_Browser_ConsoleWeblet"><path codeLine="19" d="M104.25,131.61 C115.7,131.61 127.15,131.61 138.6,131.61 " fill="none" id="Browser-ConsoleWeblet" style="stroke:#181818;stroke-width:1.0;"/><text fill="#000000" font-family="sans-serif" font-size="13" lengthAdjust="spacing" textLength="7" x="111.9242" y="127.5633">*</text><text fill="#000000" font-family="sans-serif" font-size="13" lengthAdjust="spacing" textLength="7" x="124.0794" y="127.9305">*</text></g><!--link WebConsole to ConletB--><g id="link_WebConsole_ConletB"><path codeLine="24" d="M400.87,108.26 C421.2,83.09 457.45,44.49 499.17,28.61 C546.24,10.69 680.82,6 725.83,28.61 C758.9,45.22 781.32,83.6 793,108.53 " fill="none" id="WebConsole-ConletB" style="stroke:#181818;stroke-width:1.0;"/><text fill="#000000" font-family="sans-serif" font-size="13" lengthAdjust="spacing" textLength="8" x="396.2961" y="97.4006">1</text><text fill="#000000" font-family="sans-serif" font-size="13" lengthAdjust="spacing" textLength="8" x="782.4828" y="97.7272">1</text></g><!--link WebConsole to ConletA--><g id="link_WebConsole_ConletA"><path codeLine="26" d="M447.76,147.94 C466.22,149.7 484.68,148.93 503.14,145.63 " fill="none" id="WebConsole-ConletA" style="stroke:#181818;stroke-width:1.0;"/><text fill="#000000" font-family="sans-serif" font-size="13" lengthAdjust="spacing" textLength="8" x="455.6526" y="146.0184">1</text><text fill="#000000" font-family="sans-serif" font-size="13" lengthAdjust="spacing" textLength="8" x="487.5965" y="111.4841">1</text></g><!--link ConletA to ConletAData--><g id="link_ConletA_ConletAData"><path codeLine="31" d="M554.21,154.86 C557.08,172.1 561.1,196.19 564.29,215.36 " fill="none" id="ConletA-ConletAData" style="stroke:#181818;stroke-width:1.0;"/><text fill="#000000" font-family="sans-serif" font-size="13" lengthAdjust="spacing" textLength="8" x="546.1357" y="174.7856">1</text><text fill="#000000" font-family="sans-serif" font-size="13" lengthAdjust="spacing" textLength="7" x="555.5752" y="204.585">*</text></g><!--link ConletB to ConletBData--><g id="link_ConletB_ConletBData"><path codeLine="36" d="M794.11,154.86 C787.61,172.1 778.52,196.19 771.29,215.36 " fill="none" id="ConletB-ConletBData" style="stroke:#181818;stroke-width:1.0;"/><text fill="#000000" font-family="sans-serif" font-size="13" lengthAdjust="spacing" textLength="8" x="782.9351" y="174.7856">1</text><text fill="#000000" font-family="sans-serif" font-size="13" lengthAdjust="spacing" textLength="7" x="765.9221" y="204.585">*</text></g><!--reverse link Session to ConletAData--><g id="link_Session_ConletAData"><path codeLine="38" d="M646.639,164.431 C630.519,181.611 616.54,196.49 598.83,215.36 " fill="none" id="Session-backto-ConletAData" style="stroke:#181818;stroke-width:1.0;"/><polygon fill="#181818" points="654.85,155.68,647.8275,157.3185,646.639,164.431,653.6615,162.7925,654.85,155.68" style="stroke:#181818;stroke-width:1.0;"/><text fill="#000000" font-family="sans-serif" font-size="13" lengthAdjust="spacing" textLength="8" x="640.2772" y="175.8537">1</text><text fill="#000000" font-family="sans-serif" font-size="13" lengthAdjust="spacing" textLength="7" x="596.9153" y="204.585">*</text></g><!--reverse link Session to ConletBData--><g id="link_Session_ConletBData"><path codeLine="39" d="M700.3601,165.3834 C712.8601,182.5634 723.01,196.49 736.75,215.36 " fill="none" id="Session-backto-ConletBData" style="stroke:#181818;stroke-width:1.0;"/><polygon fill="#181818" points="693.3,155.68,693.5956,162.885,700.3601,165.3834,700.0645,158.1783,693.3,155.68" style="stroke:#181818;stroke-width:1.0;"/><text fill="#000000" font-family="sans-serif" font-size="13" lengthAdjust="spacing" textLength="8" x="688.58" y="175.8537">1</text><text fill="#000000" font-family="sans-serif" font-size="13" lengthAdjust="spacing" textLength="7" x="724.582" y="204.585">*</text></g><!--link WebConsole to PageResourceProvider--><g id="link_WebConsole_PageResourceProvider"><path codeLine="43" d="M345.83,154.86 C311.71,175.01 261.73,204.54 227.75,224.61 " fill="none" id="WebConsole-PageResourceProvider" style="stroke:#181818;stroke-width:1.0;"/><text fill="#000000" font-family="sans-serif" font-size="13" lengthAdjust="spacing" textLength="8" x="327.1521" y="174.7856">1</text><text fill="#000000" font-family="sans-serif" font-size="13" lengthAdjust="spacing" textLength="7" x="229.8203" y="213.458">*</text></g><!--link WebConsole to ConsolePolicy--><g id="link_WebConsole_ConsolePolicy"><path codeLine="45" d="M385.26,154.86 C386.84,174.95 389.16,204.35 390.75,224.42 " fill="none" id="WebConsole-ConsolePolicy" style="stroke:#181818;stroke-width:1.0;"/><text fill="#000000" font-family="sans-serif" font-size="13" lengthAdjust="spacing" textLength="8" x="376.686" y="174.7856">1</text><text fill="#000000" font-family="sans-serif" font-size="13" lengthAdjust="spacing" textLength="7" x="382.4047" y="213.6016">*</text></g><!--SRC=[bLB1IiD04BtlLmmvQQ47hr8AJKKHF1GhU15akvcceTkTCBin1kc_kzaqrAIfrSF2xfitZpVprcupaqkMEyYbsieKbwxI28pAIPDg563xZCdaILPKkEaKlWG0h8WJv3bfOdXXQQndet6Xv3jIfi8aW-Kr6JTOi0uPoLKvtWzJzWAarbI-xxBFpAG212ZQvMHy5MAcqYBNuC4oH7Co2dDNI0slkF8lInhVpDNn0G_IOIchwwWPwwXtv7Jn0-ZB6eFj-lmGZ6uY66jSk_4et7lylH1T2A9Hsn2k0tCuIj5jaA4JmeajBnOFcU4itTJYZPcMrM-T_Qbr9iAyIajhM-XEEjbi3s2i0lQOtCBISGW9wjoWGmuZ5_a5uVW_ml4vuRZDQCX04z4IhSt8d1FhaVRTVxVm2JsZfO8LBfW-igGEhx_8X4hJv3lCF_bV2zAPgduJwX2_0G00]--></g></svg>