<?xml version="1.0" encoding="UTF-8" standalone="no"?><svg xmlns="http://www.w3.org/2000/svg" xmlns:xlink="http://www.w3.org/1999/xlink" contentScriptType="application/ecmascript" contentStyleType="text/css" height="405px" preserveAspectRatio="none" style="width:713px;height:405px;" version="1.1" viewBox="0 0 713 405" width="713px" zoomAndPan="magnify"><defs><filter height="300%" id="f1uu5sp7bbq4fy" width="300%" x="-1" y="-1"><feGaussianBlur result="blurOut" stdDeviation="2.0"/><feColorMatrix in="blurOut" result="blurOut2" type="matrix" values="0 0 0 0 0 0 0 0 0 0 0 0 0 0 0 0 0 0 .4 0"/><feOffset dx="4.0" dy="4.0" in="blurOut2" result="blurOut3"/><feBlend in="SourceGraphic" in2="blurOut3" mode="normal"/></filter></defs><g><!--cluster Conceptual WebConsole\n(WebConsole Gateway)--><rect fill="#FFFFFF" filter="url(#f1uu5sp7bbq4fy)" height="115" style="stroke: #000000; stroke-width: 2.0;" width="302" x="101.5" y="66"/><text fill="#000000" font-family="sans-serif" font-size="14" font-weight="bold" lengthAdjust="spacingAndGlyphs" textLength="193" x="156" y="80.9951">Conceptual WebConsole</text><text fill="#000000" font-family="sans-serif" font-size="14" font-weight="bold" lengthAdjust="spacingAndGlyphs" textLength="185" x="160" y="97.292">(WebConsole Gateway)</text><!--cluster ##18--><!--class WebConsole--><rect fill="#FEFECE" filter="url(#f1uu5sp7bbq4fy)" height="48" id="WebConsole" style="stroke: #A80036; stroke-width: 1.5;" width="109" x="278" y="117"/><ellipse cx="293" cy="133" fill="#ADD1B2" rx="11" ry="11" style="stroke: #A80036; stroke-width: 1.0;"/><path d="M295.9688,138.6406 Q295.3906,138.9375 294.75,139.0781 Q294.1094,139.2344 293.4063,139.2344 Q290.9063,139.2344 289.5781,137.5938 Q288.2656,135.9375 288.2656,132.8125 Q288.2656,129.6875 289.5781,128.0313 Q290.9063,126.375 293.4063,126.375 Q294.1094,126.375 294.75,126.5313 Q295.4063,126.6875 295.9688,126.9844 L295.9688,129.7031 Q295.3438,129.125 294.75,128.8594 Q294.1563,128.5781 293.5313,128.5781 Q292.1875,128.5781 291.5,129.6563 Q290.8125,130.7188 290.8125,132.8125 Q290.8125,134.9063 291.5,135.9844 Q292.1875,137.0469 293.5313,137.0469 Q294.1563,137.0469 294.75,136.7813 Q295.3438,136.5 295.9688,135.9219 L295.9688,138.6406 Z "/><text fill="#000000" font-family="sans-serif" font-size="12" lengthAdjust="spacingAndGlyphs" textLength="77" x="307" y="137.1543">WebConsole</text><line style="stroke: #A80036; stroke-width: 1.5;" x1="279" x2="386" y1="149" y2="149"/><line style="stroke: #A80036; stroke-width: 1.5;" x1="279" x2="386" y1="157" y2="157"/><!--class ConsoleWeblet--><rect fill="#FEFECE" filter="url(#f1uu5sp7bbq4fy)" height="48" id="ConsoleWeblet" style="stroke: #A80036; stroke-width: 1.5;" width="125" x="118" y="117"/><ellipse cx="133" cy="133" fill="#ADD1B2" rx="11" ry="11" style="stroke: #A80036; stroke-width: 1.0;"/><path d="M135.9688,138.6406 Q135.3906,138.9375 134.75,139.0781 Q134.1094,139.2344 133.4063,139.2344 Q130.9063,139.2344 129.5781,137.5938 Q128.2656,135.9375 128.2656,132.8125 Q128.2656,129.6875 129.5781,128.0313 Q130.9063,126.375 133.4063,126.375 Q134.1094,126.375 134.75,126.5313 Q135.4063,126.6875 135.9688,126.9844 L135.9688,129.7031 Q135.3438,129.125 134.75,128.8594 Q134.1563,128.5781 133.5313,128.5781 Q132.1875,128.5781 131.5,129.6563 Q130.8125,130.7188 130.8125,132.8125 Q130.8125,134.9063 131.5,135.9844 Q132.1875,137.0469 133.5313,137.0469 Q134.1563,137.0469 134.75,136.7813 Q135.3438,136.5 135.9688,135.9219 L135.9688,138.6406 Z "/><text fill="#000000" font-family="sans-serif" font-size="12" lengthAdjust="spacingAndGlyphs" textLength="93" x="147" y="137.1543">ConsoleWeblet</text><line style="stroke: #A80036; stroke-width: 1.5;" x1="119" x2="242" y1="149" y2="149"/><line style="stroke: #A80036; stroke-width: 1.5;" x1="119" x2="242" y1="157" y2="157"/><!--class ConletB--><rect fill="#FEFECE" filter="url(#f1uu5sp7bbq4fy)" height="48" id="ConletB" style="stroke: #A80036; stroke-width: 1.5;" width="80" x="586.5" y="117"/><ellipse cx="601.5" cy="133" fill="#ADD1B2" rx="11" ry="11" style="stroke: #A80036; stroke-width: 1.0;"/><path d="M604.4688,138.6406 Q603.8906,138.9375 603.25,139.0781 Q602.6094,139.2344 601.9063,139.2344 Q599.4063,139.2344 598.0781,137.5938 Q596.7656,135.9375 596.7656,132.8125 Q596.7656,129.6875 598.0781,128.0313 Q599.4063,126.375 601.9063,126.375 Q602.6094,126.375 603.25,126.5313 Q603.9063,126.6875 604.4688,126.9844 L604.4688,129.7031 Q603.8438,129.125 603.25,128.8594 Q602.6563,128.5781 602.0313,128.5781 Q600.6875,128.5781 600,129.6563 Q599.3125,130.7188 599.3125,132.8125 Q599.3125,134.9063 600,135.9844 Q600.6875,137.0469 602.0313,137.0469 Q602.6563,137.0469 603.25,136.7813 Q603.8438,136.5 604.4688,135.9219 L604.4688,138.6406 Z "/><text fill="#000000" font-family="sans-serif" font-size="12" lengthAdjust="spacingAndGlyphs" textLength="48" x="615.5" y="137.1543">ConletB</text><line style="stroke: #A80036; stroke-width: 1.5;" x1="587.5" x2="665.5" y1="149" y2="149"/><line style="stroke: #A80036; stroke-width: 1.5;" x1="587.5" x2="665.5" y1="157" y2="157"/><!--class ConletA--><rect fill="#FEFECE" filter="url(#f1uu5sp7bbq4fy)" height="48" id="ConletA" style="stroke: #A80036; stroke-width: 1.5;" width="80" x="451.5" y="117"/><ellipse cx="466.5" cy="133" fill="#ADD1B2" rx="11" ry="11" style="stroke: #A80036; stroke-width: 1.0;"/><path d="M469.4688,138.6406 Q468.8906,138.9375 468.25,139.0781 Q467.6094,139.2344 466.9063,139.2344 Q464.4063,139.2344 463.0781,137.5938 Q461.7656,135.9375 461.7656,132.8125 Q461.7656,129.6875 463.0781,128.0313 Q464.4063,126.375 466.9063,126.375 Q467.6094,126.375 468.25,126.5313 Q468.9063,126.6875 469.4688,126.9844 L469.4688,129.7031 Q468.8438,129.125 468.25,128.8594 Q467.6563,128.5781 467.0313,128.5781 Q465.6875,128.5781 465,129.6563 Q464.3125,130.7188 464.3125,132.8125 Q464.3125,134.9063 465,135.9844 Q465.6875,137.0469 467.0313,137.0469 Q467.6563,137.0469 468.25,136.7813 Q468.8438,136.5 469.4688,135.9219 L469.4688,138.6406 Z "/><text fill="#000000" font-family="sans-serif" font-size="12" lengthAdjust="spacingAndGlyphs" textLength="48" x="480.5" y="137.1543">ConletA</text><line style="stroke: #A80036; stroke-width: 1.5;" x1="452.5" x2="530.5" y1="149" y2="149"/><line style="stroke: #A80036; stroke-width: 1.5;" x1="452.5" x2="530.5" y1="157" y2="157"/><!--class ConletAData--><rect fill="#FEFECE" filter="url(#f1uu5sp7bbq4fy)" height="60.8047" id="ConletAData" style="stroke: #A80036; stroke-width: 1.5;" width="112" x="443.5" y="225"/><ellipse cx="459.4" cy="241" fill="#ADD1B2" rx="11" ry="11" style="stroke: #A80036; stroke-width: 1.0;"/><path d="M462.3688,246.6406 Q461.7906,246.9375 461.15,247.0781 Q460.5094,247.2344 459.8063,247.2344 Q457.3063,247.2344 455.9781,245.5938 Q454.6656,243.9375 454.6656,240.8125 Q454.6656,237.6875 455.9781,236.0313 Q457.3063,234.375 459.8063,234.375 Q460.5094,234.375 461.15,234.5313 Q461.8063,234.6875 462.3688,234.9844 L462.3688,237.7031 Q461.7438,237.125 461.15,236.8594 Q460.5563,236.5781 459.9313,236.5781 Q458.5875,236.5781 457.9,237.6563 Q457.2125,238.7188 457.2125,240.8125 Q457.2125,242.9063 457.9,243.9844 Q458.5875,245.0469 459.9313,245.0469 Q460.5563,245.0469 461.15,244.7813 Q461.7438,244.5 462.3688,243.9219 L462.3688,246.6406 Z "/><text fill="#000000" font-family="sans-serif" font-size="12" lengthAdjust="spacingAndGlyphs" textLength="78" x="473.6" y="245.1543">ConletAData</text><line style="stroke: #A80036; stroke-width: 1.5;" x1="444.5" x2="554.5" y1="257" y2="257"/><rect fill="none" height="6" style="stroke: #C82930; stroke-width: 1.0;" width="6" x="451.5" y="265.9023"/><text fill="#000000" font-family="sans-serif" font-size="11" lengthAdjust="spacingAndGlyphs" textLength="86" x="463.5" y="271.2104">conletId: String</text><line style="stroke: #A80036; stroke-width: 1.5;" x1="444.5" x2="554.5" y1="277.8047" y2="277.8047"/><!--class ConletBData--><rect fill="#FEFECE" filter="url(#f1uu5sp7bbq4fy)" height="60.8047" id="ConletBData" style="stroke: #A80036; stroke-width: 1.5;" width="112" x="590.5" y="225"/><ellipse cx="606.4" cy="241" fill="#ADD1B2" rx="11" ry="11" style="stroke: #A80036; stroke-width: 1.0;"/><path d="M609.3688,246.6406 Q608.7906,246.9375 608.15,247.0781 Q607.5094,247.2344 606.8063,247.2344 Q604.3063,247.2344 602.9781,245.5938 Q601.6656,243.9375 601.6656,240.8125 Q601.6656,237.6875 602.9781,236.0313 Q604.3063,234.375 606.8063,234.375 Q607.5094,234.375 608.15,234.5313 Q608.8063,234.6875 609.3688,234.9844 L609.3688,237.7031 Q608.7438,237.125 608.15,236.8594 Q607.5563,236.5781 606.9313,236.5781 Q605.5875,236.5781 604.9,237.6563 Q604.2125,238.7188 604.2125,240.8125 Q604.2125,242.9063 604.9,243.9844 Q605.5875,245.0469 606.9313,245.0469 Q607.5563,245.0469 608.15,244.7813 Q608.7438,244.5 609.3688,243.9219 L609.3688,246.6406 Z "/><text fill="#000000" font-family="sans-serif" font-size="12" lengthAdjust="spacingAndGlyphs" textLength="78" x="620.6" y="245.1543">ConletBData</text><line style="stroke: #A80036; stroke-width: 1.5;" x1="591.5" x2="701.5" y1="257" y2="257"/><rect fill="none" height="6" style="stroke: #C82930; stroke-width: 1.0;" width="6" x="598.5" y="265.9023"/><text fill="#000000" font-family="sans-serif" font-size="11" lengthAdjust="spacingAndGlyphs" textLength="86" x="610.5" y="271.2104">conletId: String</text><line style="stroke: #A80036; stroke-width: 1.5;" x1="591.5" x2="701.5" y1="277.8047" y2="277.8047"/><!--class Session--><rect fill="#FEFECE" filter="url(#f1uu5sp7bbq4fy)" height="48" id="Session" style="stroke: #A80036; stroke-width: 1.5;" width="81" x="532" y="346"/><ellipse cx="547" cy="362" fill="#ADD1B2" rx="11" ry="11" style="stroke: #A80036; stroke-width: 1.0;"/><path d="M549.9688,367.6406 Q549.3906,367.9375 548.75,368.0781 Q548.1094,368.2344 547.4063,368.2344 Q544.9063,368.2344 543.5781,366.5938 Q542.2656,364.9375 542.2656,361.8125 Q542.2656,358.6875 543.5781,357.0313 Q544.9063,355.375 547.4063,355.375 Q548.1094,355.375 548.75,355.5313 Q549.4063,355.6875 549.9688,355.9844 L549.9688,358.7031 Q549.3438,358.125 548.75,357.8594 Q548.1563,357.5781 547.5313,357.5781 Q546.1875,357.5781 545.5,358.6563 Q544.8125,359.7188 544.8125,361.8125 Q544.8125,363.9063 545.5,364.9844 Q546.1875,366.0469 547.5313,366.0469 Q548.1563,366.0469 548.75,365.7813 Q549.3438,365.5 549.9688,364.9219 L549.9688,367.6406 Z "/><text fill="#000000" font-family="sans-serif" font-size="12" lengthAdjust="spacingAndGlyphs" textLength="49" x="561" y="366.1543">Session</text><line style="stroke: #A80036; stroke-width: 1.5;" x1="533" x2="612" y1="378" y2="378"/><line style="stroke: #A80036; stroke-width: 1.5;" x1="533" x2="612" y1="386" y2="386"/><!--entity Browser--><rect fill="#FEFECE" filter="url(#f1uu5sp7bbq4fy)" height="36.2969" style="stroke: #A80036; stroke-width: 1.5;" width="77" x="6" y="123"/><rect fill="#FEFECE" height="5" style="stroke: #A80036; stroke-width: 1.5;" width="10" x="1" y="128"/><rect fill="#FEFECE" height="5" style="stroke: #A80036; stroke-width: 1.5;" width="10" x="1" y="149.2969"/><text fill="#000000" font-family="sans-serif" font-size="14" lengthAdjust="spacingAndGlyphs" textLength="57" x="16" y="145.9951">Browser</text><!--class PageResourceProvider--><rect fill="#FEFECE" filter="url(#f1uu5sp7bbq4fy)" height="48" id="PageResourceProvider" style="stroke: #A80036; stroke-width: 1.5;" width="174" x="73.5" y="231.5"/><ellipse cx="88.5" cy="247.5" fill="#ADD1B2" rx="11" ry="11" style="stroke: #A80036; stroke-width: 1.0;"/><path d="M91.4688,253.1406 Q90.8906,253.4375 90.25,253.5781 Q89.6094,253.7344 88.9063,253.7344 Q86.4063,253.7344 85.0781,252.0938 Q83.7656,250.4375 83.7656,247.3125 Q83.7656,244.1875 85.0781,242.5313 Q86.4063,240.875 88.9063,240.875 Q89.6094,240.875 90.25,241.0313 Q90.9063,241.1875 91.4688,241.4844 L91.4688,244.2031 Q90.8438,243.625 90.25,243.3594 Q89.6563,243.0781 89.0313,243.0781 Q87.6875,243.0781 87,244.1563 Q86.3125,245.2188 86.3125,247.3125 Q86.3125,249.4063 87,250.4844 Q87.6875,251.5469 89.0313,251.5469 Q89.6563,251.5469 90.25,251.2813 Q90.8438,251 91.4688,250.4219 L91.4688,253.1406 Z "/><text fill="#000000" font-family="sans-serif" font-size="12" lengthAdjust="spacingAndGlyphs" textLength="142" x="102.5" y="251.6543">PageResourceProvider</text><line style="stroke: #A80036; stroke-width: 1.5;" x1="74.5" x2="246.5" y1="263.5" y2="263.5"/><line style="stroke: #A80036; stroke-width: 1.5;" x1="74.5" x2="246.5" y1="271.5" y2="271.5"/><!--class ConsolePolicy--><rect fill="#FEFECE" filter="url(#f1uu5sp7bbq4fy)" height="48" id="ConsolePolicy" style="stroke: #A80036; stroke-width: 1.5;" width="117" x="283" y="231.5"/><ellipse cx="298" cy="247.5" fill="#ADD1B2" rx="11" ry="11" style="stroke: #A80036; stroke-width: 1.0;"/><path d="M300.9688,253.1406 Q300.3906,253.4375 299.75,253.5781 Q299.1094,253.7344 298.4063,253.7344 Q295.9063,253.7344 294.5781,252.0938 Q293.2656,250.4375 293.2656,247.3125 Q293.2656,244.1875 294.5781,242.5313 Q295.9063,240.875 298.4063,240.875 Q299.1094,240.875 299.75,241.0313 Q300.4063,241.1875 300.9688,241.4844 L300.9688,244.2031 Q300.3438,243.625 299.75,243.3594 Q299.1563,243.0781 298.5313,243.0781 Q297.1875,243.0781 296.5,244.1563 Q295.8125,245.2188 295.8125,247.3125 Q295.8125,249.4063 296.5,250.4844 Q297.1875,251.5469 298.5313,251.5469 Q299.1563,251.5469 299.75,251.2813 Q300.3438,251 300.9688,250.4219 L300.9688,253.1406 Z "/><text fill="#000000" font-family="sans-serif" font-size="12" lengthAdjust="spacingAndGlyphs" textLength="85" x="312" y="251.6543">ConsolePolicy</text><line style="stroke: #A80036; stroke-width: 1.5;" x1="284" x2="399" y1="263.5" y2="263.5"/><line style="stroke: #A80036; stroke-width: 1.5;" x1="284" x2="399" y1="271.5" y2="271.5"/><!--link ConsoleWeblet to WebConsole--><path d="M243.141,141 C254.66,141 266.179,141 277.698,141 " fill="none" id="ConsoleWeblet-WebConsole" style="stroke: #A80036; stroke-width: 1.0;"/><text fill="#000000" font-family="sans-serif" font-size="13" lengthAdjust="spacingAndGlyphs" textLength="8" x="250.8464" y="137.2074">1</text><text fill="#000000" font-family="sans-serif" font-size="13" lengthAdjust="spacingAndGlyphs" textLength="8" x="262.164" y="137.1145">1</text><!--link Browser to ConsoleWeblet--><path d="M83.0156,141 C94.5665,141 106.117,141 117.668,141 " fill="none" id="Browser-ConsoleWeblet" style="stroke: #A80036; stroke-width: 1.0;"/><text fill="#000000" font-family="sans-serif" font-size="13" lengthAdjust="spacingAndGlyphs" textLength="7" x="91.0248" y="136.6216">*</text><text fill="#000000" font-family="sans-serif" font-size="13" lengthAdjust="spacingAndGlyphs" textLength="7" x="102.9984" y="137.2074">*</text><!--link WebConsole to ConletB--><path d="M348.76,116.781 C367.256,91.638 400.022,53.815 439.167,38 C479.414,21.74 497.328,20.013 536.833,38 C572.22,54.111 599.067,91.851 613.793,116.896 " fill="none" id="WebConsole-ConletB" style="stroke: #A80036; stroke-width: 1.0;"/><text fill="#000000" font-family="sans-serif" font-size="13" lengthAdjust="spacingAndGlyphs" textLength="8" x="343.9016" y="105.7369">1</text><text fill="#000000" font-family="sans-serif" font-size="13" lengthAdjust="spacingAndGlyphs" textLength="8" x="603.1808" y="106.1301">1</text><!--link WebConsole to ConletA--><path d="M387.156,157.242 C408.487,160.261 429.818,159.392 451.148,154.635 " fill="none" id="WebConsole-ConletA" style="stroke: #A80036; stroke-width: 1.0;"/><text fill="#000000" font-family="sans-serif" font-size="13" lengthAdjust="spacingAndGlyphs" textLength="8" x="395.0379" y="155.4925">1</text><text fill="#000000" font-family="sans-serif" font-size="13" lengthAdjust="spacingAndGlyphs" textLength="8" x="435.525" y="120.8107">1</text><!--link ConletA to ConletAData--><path d="M493.138,165.038 C494.363,182.266 496.049,205.97 497.377,224.65 " fill="none" id="ConletA-ConletAData" style="stroke: #A80036; stroke-width: 1.0;"/><text fill="#000000" font-family="sans-serif" font-size="13" lengthAdjust="spacingAndGlyphs" textLength="8" x="484.5327" y="185.2035">1</text><text fill="#000000" font-family="sans-serif" font-size="13" lengthAdjust="spacingAndGlyphs" textLength="7" x="489.2173" y="213.841">*</text><!--link ConletB to ConletBData--><path d="M630.596,165.038 C633.658,182.266 637.872,205.97 641.193,224.65 " fill="none" id="ConletB-ConletBData" style="stroke: #A80036; stroke-width: 1.0;"/><text fill="#000000" font-family="sans-serif" font-size="13" lengthAdjust="spacingAndGlyphs" textLength="8" x="622.6206" y="185.2035">1</text><text fill="#000000" font-family="sans-serif" font-size="13" lengthAdjust="spacingAndGlyphs" textLength="7" x="632.3766" y="213.841">*</text><!--link ConletAData to Session--><path d="M518.68,286.058 C528.307,300.895 540.028,318.957 550.07,334.4339 " fill="none" id="ConletAData-Session" style="stroke: #A80036; stroke-width: 1.0;"/><polygon fill="#A80036" points="557.361,345.6686,557.4506,338.4581,550.8291,335.6021,550.7396,342.8126,557.361,345.6686" style="stroke: #A80036; stroke-width: 1.0;"/><text fill="#000000" font-family="sans-serif" font-size="13" lengthAdjust="spacingAndGlyphs" textLength="7" x="514.914" y="306.0082">*</text><text fill="#000000" font-family="sans-serif" font-size="13" lengthAdjust="spacingAndGlyphs" textLength="8" x="544.6959" y="334.9928">1</text><!--link ConletBData to Session--><path d="M627.057,286.058 C617.298,300.895 605.417,318.957 595.237,334.4339 " fill="none" id="ConletBData-Session" style="stroke: #A80036; stroke-width: 1.0;"/><polygon fill="#A80036" points="587.847,345.6686,594.4863,342.8543,594.442,335.6433,587.8028,338.4576,587.847,345.6686" style="stroke: #A80036; stroke-width: 1.0;"/><text fill="#000000" font-family="sans-serif" font-size="13" lengthAdjust="spacingAndGlyphs" textLength="7" x="615.325" y="306.0082">*</text><text fill="#000000" font-family="sans-serif" font-size="13" lengthAdjust="spacingAndGlyphs" textLength="8" x="582.6128" y="334.9928">1</text><!--link WebConsole to PageResourceProvider--><path d="M297.278,165.038 C267.597,184.451 225.343,212.088 195.675,231.493 " fill="none" id="WebConsole-PageResourceProvider" style="stroke: #A80036; stroke-width: 1.0;"/><text fill="#000000" font-family="sans-serif" font-size="13" lengthAdjust="spacingAndGlyphs" textLength="8" x="279.2274" y="185.2035">1</text><text fill="#000000" font-family="sans-serif" font-size="13" lengthAdjust="spacingAndGlyphs" textLength="7" x="196.7917" y="220.5032">*</text><!--link WebConsole to ConsolePolicy--><path d="M334.343,165.038 C335.896,184.451 338.107,212.088 339.659,231.493 " fill="none" id="WebConsole-ConsolePolicy" style="stroke: #A80036; stroke-width: 1.0;"/><text fill="#000000" font-family="sans-serif" font-size="13" lengthAdjust="spacingAndGlyphs" textLength="8" x="325.7903" y="185.2035">1</text><text fill="#000000" font-family="sans-serif" font-size="13" lengthAdjust="spacingAndGlyphs" textLength="7" x="331.2904" y="220.5032">*</text><!--
@startuml
skinparam packageStyle rectangle
 allow_mixing
 
 component Browser
 
 package "Conceptual WebConsole\n(WebConsole Gateway)" {
    class WebConsole
 	  class ConsoleWeblet
 
    WebConsole "1" -left- "1" ConsoleWeblet
 }
 
 ConsoleWeblet "*" -left- "*" Browser
 
 together {
 
   WebConsole "1" -right- "1" ConletB
   WebConsole "1" -right- "1" ConletA
 
   class ConletAData {
     -conletId: String
   }
 
   ConletAData "*" -up- "1" ConletA
 
   class ConletBData {
     -conletId: String
   }
 
   ConletBData "*" -up- "1" ConletB
   
   ConletAData "*" -up-* "1" Session
   ConletBData "*" -up-* "1" Session
 }
 
 WebConsole "1" -down- "*" PageResourceProvider
 WebConsole "1" -down- "*" ConsolePolicy
@enduml

PlantUML version 1.2017.18(Fri Oct 06 16:56:32 UTC 2017)
(GPL source distribution)
Java Runtime: OpenJDK Runtime Environment
JVM: OpenJDK 64-Bit Server VM
Java Version: 1.8.0_252-8u252-b09-1~16.04-b09
Operating System: Linux
OS Version: 4.15.0-1077-gcp
Default Encoding: UTF-8
Language: en
Country: US
--></g></svg>