<?xml version="1.0" encoding="UTF-8" standalone="no"?><svg xmlns="http://www.w3.org/2000/svg" xmlns:xlink="http://www.w3.org/1999/xlink" contentScriptType="application/ecmascript" contentStyleType="text/css" height="370px" preserveAspectRatio="none" style="width:623px;height:370px;background:#FFFFFF;" version="1.1" viewBox="0 0 623 370" width="623px" zoomAndPan="magnify"><defs><filter height="300%" id="f8mld8dawlcxy" width="300%" x="-1" y="-1"><feGaussianBlur result="blurOut" stdDeviation="2.0"/><feColorMatrix in="blurOut" result="blurOut2" type="matrix" values="0 0 0 0 0 0 0 0 0 0 0 0 0 0 0 0 0 0 .4 0"/><feOffset dx="4.0" dy="4.0" in="blurOut2" result="blurOut3"/><feBlend in="SourceGraphic" in2="blurOut3" mode="normal"/></filter></defs><g><!--MD5=[09585d0490525c26364ccfbc1c8786e4]
cluster org.jgrapes.http--><polygon fill="#FFFFFF" filter="url(#f8mld8dawlcxy)" points="301.5,6,435.5,6,442.5,28.2969,445.5,28.2969,445.5,105,301.5,105,301.5,6" style="stroke:#000000;stroke-width:1.5;"/><line style="stroke:#000000;stroke-width:1.5;" x1="301.5" x2="442.5" y1="28.2969" y2="28.2969"/><text fill="#000000" font-family="sans-serif" font-size="14" font-weight="bold" lengthAdjust="spacing" textLength="128" x="305.5" y="20.9951">org.jgrapes.http</text><!--MD5=[2ca1536628238a7dc78c5d90808014f9]
class Session--><rect codeLine="23" fill="#FEFECE" filter="url(#f8mld8dawlcxy)" height="48" id="Session" style="stroke:#A80036;stroke-width:1.5;" width="81" x="319" y="41"/><ellipse cx="334" cy="57" fill="#ADD1B2" rx="11" ry="11" style="stroke:#A80036;stroke-width:1.0;"/><path d="M336.9688,62.6406 Q336.3906,62.9375 335.75,63.0781 Q335.1094,63.2344 334.4063,63.2344 Q331.9063,63.2344 330.5781,61.5938 Q329.2656,59.9375 329.2656,56.8125 Q329.2656,53.6875 330.5781,52.0313 Q331.9063,50.375 334.4063,50.375 Q335.1094,50.375 335.75,50.5313 Q336.4063,50.6875 336.9688,50.9844 L336.9688,53.7031 Q336.3438,53.125 335.75,52.8594 Q335.1563,52.5781 334.5313,52.5781 Q333.1875,52.5781 332.5,53.6563 Q331.8125,54.7188 331.8125,56.8125 Q331.8125,58.9063 332.5,59.9844 Q333.1875,61.0469 334.5313,61.0469 Q335.1563,61.0469 335.75,60.7813 Q336.3438,60.5 336.9688,59.9219 L336.9688,62.6406 Z " fill="#000000"/><text fill="#000000" font-family="sans-serif" font-size="12" lengthAdjust="spacing" textLength="49" x="348" y="61.1543">Session</text><line style="stroke:#A80036;stroke-width:1.5;" x1="320" x2="399" y1="73" y2="73"/><line style="stroke:#A80036;stroke-width:1.5;" x1="320" x2="399" y1="81" y2="81"/><!--MD5=[76582a984326da94844ffa89e116bd6b]
class ConsoleConnection--><rect codeLine="1" fill="#FEFECE" filter="url(#f8mld8dawlcxy)" height="188.8516" id="ConsoleConnection" style="stroke:#A80036;stroke-width:1.5;" width="499" x="7" y="168"/><ellipse cx="191.75" cy="184" fill="#ADD1B2" rx="11" ry="11" style="stroke:#A80036;stroke-width:1.0;"/><path d="M194.7188,189.6406 Q194.1406,189.9375 193.5,190.0781 Q192.8594,190.2344 192.1563,190.2344 Q189.6563,190.2344 188.3281,188.5938 Q187.0156,186.9375 187.0156,183.8125 Q187.0156,180.6875 188.3281,179.0313 Q189.6563,177.375 192.1563,177.375 Q192.8594,177.375 193.5,177.5313 Q194.1563,177.6875 194.7188,177.9844 L194.7188,180.7031 Q194.0938,180.125 193.5,179.8594 Q192.9063,179.5781 192.2813,179.5781 Q190.9375,179.5781 190.25,180.6563 Q189.5625,181.7188 189.5625,183.8125 Q189.5625,185.9063 190.25,186.9844 Q190.9375,188.0469 192.2813,188.0469 Q192.9063,188.0469 193.5,187.7813 Q194.0938,187.5 194.7188,186.9219 L194.7188,189.6406 Z " fill="#000000"/><text fill="#000000" font-family="sans-serif" font-size="12" lengthAdjust="spacing" textLength="121" x="212.25" y="188.1543">ConsoleConnection</text><line style="stroke:#A80036;stroke-width:1.5;" x1="8" x2="505" y1="200" y2="200"/><rect fill="none" height="6" style="stroke:#C82930;stroke-width:1.0;" width="6" x="15" y="208"/><text fill="#000000" font-family="sans-serif" font-size="11" lengthAdjust="spacing" text-decoration="underline" textLength="305" x="27" y="214.2104">Map&lt;String,ConsoleConnection&gt; consoleConnections</text><line style="stroke:#A80036;stroke-width:1.5;" x1="8" x2="505" y1="220.8047" y2="220.8047"/><ellipse cx="18" cy="231.8047" fill="#84BE84" rx="3" ry="3" style="stroke:#038048;stroke-width:1.0;"/><text fill="#000000" font-family="sans-serif" font-size="11" lengthAdjust="spacing" text-decoration="underline" textLength="473" x="27" y="235.0151">findOrCreate(String consoleConnectionId, Manager component): ConsoleConnection</text><ellipse cx="18" cy="244.6094" fill="#84BE84" rx="3" ry="3" style="stroke:#038048;stroke-width:1.0;"/><text fill="#000000" font-family="sans-serif" font-size="11" lengthAdjust="spacing" textLength="262" x="27" y="247.8198">setTimeout(timeout: long): ConsoleConnection</text><ellipse cx="18" cy="257.4141" fill="#84BE84" rx="3" ry="3" style="stroke:#038048;stroke-width:1.0;"/><text fill="#000000" font-family="sans-serif" font-size="11" lengthAdjust="spacing" textLength="80" x="27" y="260.6245">refresh(): void</text><ellipse cx="18" cy="270.2188" fill="#84BE84" rx="3" ry="3" style="stroke:#038048;stroke-width:1.0;"/><text fill="#000000" font-family="sans-serif" font-size="11" lengthAdjust="spacing" textLength="426" x="27" y="273.4292">setUpstreamChannel(IOSubchannel upstreamChannel): ConsoleConnection</text><ellipse cx="18" cy="283.0234" fill="#84BE84" rx="3" ry="3" style="stroke:#038048;stroke-width:1.0;"/><text fill="#000000" font-family="sans-serif" font-size="11" lengthAdjust="spacing" textLength="376" x="27" y="286.2339">setSessionSupplier(Session sessionSupplier): ConsoleConnection</text><ellipse cx="18" cy="295.8281" fill="#84BE84" rx="3" ry="3" style="stroke:#038048;stroke-width:1.0;"/><text fill="#000000" font-family="sans-serif" font-size="11" lengthAdjust="spacing" textLength="163" x="27" y="299.0386">upstreamChannel(): Optional</text><ellipse cx="18" cy="308.6328" fill="#84BE84" rx="3" ry="3" style="stroke:#038048;stroke-width:1.0;"/><text fill="#000000" font-family="sans-serif" font-size="11" lengthAdjust="spacing" textLength="166" x="27" y="311.8433">consoleConnectionId(): String</text><ellipse cx="18" cy="321.4375" fill="#84BE84" rx="3" ry="3" style="stroke:#038048;stroke-width:1.0;"/><text fill="#000000" font-family="sans-serif" font-size="11" lengthAdjust="spacing" textLength="107" x="27" y="324.6479">session(): Optional</text><ellipse cx="18" cy="334.2422" fill="#84BE84" rx="3" ry="3" style="stroke:#038048;stroke-width:1.0;"/><text fill="#000000" font-family="sans-serif" font-size="11" lengthAdjust="spacing" textLength="84" x="27" y="337.4526">locale(): Locale</text><ellipse cx="18" cy="347.0469" fill="#84BE84" rx="3" ry="3" style="stroke:#038048;stroke-width:1.0;"/><text fill="#000000" font-family="sans-serif" font-size="11" lengthAdjust="spacing" textLength="164" x="27" y="350.2573">setLocale(Locale locale): void</text><!--MD5=[9caeff6bec59bb4e25ab212aaff96b64]
class IOSubchannel--><rect codeLine="15" fill="#FEFECE" filter="url(#f8mld8dawlcxy)" height="48" id="IOSubchannel" style="stroke:#A80036;stroke-width:1.5;" width="113" x="171" y="41"/><ellipse cx="186" cy="57" fill="#B4A7E5" rx="11" ry="11" style="stroke:#A80036;stroke-width:1.0;"/><path d="M181.9219,52.7656 L181.9219,50.6094 L189.3125,50.6094 L189.3125,52.7656 L186.8438,52.7656 L186.8438,60.8438 L189.3125,60.8438 L189.3125,63 L181.9219,63 L181.9219,60.8438 L184.3906,60.8438 L184.3906,52.7656 L181.9219,52.7656 Z " fill="#000000"/><text fill="#000000" font-family="sans-serif" font-size="12" font-style="italic" lengthAdjust="spacing" textLength="81" x="200" y="61.1543">IOSubchannel</text><line style="stroke:#A80036;stroke-width:1.5;" x1="172" x2="283" y1="73" y2="73"/><line style="stroke:#A80036;stroke-width:1.5;" x1="172" x2="283" y1="81" y2="81"/><!--MD5=[c850e8d460ffb5cbe72924fa0ab7d2e3]
reverse link IOSubchannel to ConsoleConnection--><path codeLine="18" d="M233.9,109.12 C236.48,126.5 239.56,147.28 242.6,167.82 " fill="none" id="IOSubchannel-backto-ConsoleConnection" style="stroke:#A80036;stroke-width:1.0;stroke-dasharray:7.0,7.0;"/><polygon fill="none" points="226.95,110,230.94,89.19,240.8,107.95,226.95,110" style="stroke:#A80036;stroke-width:1.0;"/><!--MD5=[4be6b6fa76df3386079f38cd2dd87bbb]
reverse link ConsoleConnection to ConsoleConnection--><path codeLine="20" d="M519.04,246.22 C532.83,250.22 541,255.65 541,262.5 C541,271.27 527.62,277.7 506.19,281.81 " fill="none" id="ConsoleConnection-backto-ConsoleConnection" style="stroke:#A80036;stroke-width:1.0;"/><polygon fill="#A80036" points="506.19,243.19,511.1114,248.4607,517.8694,245.9451,512.9481,240.6744,506.19,243.19" style="stroke:#A80036;stroke-width:1.0;"/><text fill="#000000" font-family="sans-serif" font-size="13" lengthAdjust="spacing" textLength="63" x="547" y="267.0669">maintains</text><text fill="#000000" font-family="sans-serif" font-size="13" lengthAdjust="spacing" textLength="8" x="513.7214" y="239.4651">1</text><text fill="#000000" font-family="sans-serif" font-size="13" lengthAdjust="spacing" textLength="7" x="513.7066" y="279.2317">*</text><!--MD5=[96f4ad7b55dad1e3e1a17f5811c981a9]
reverse link Session to ConsoleConnection--><path codeLine="26" d="M344.75,93.99 C334.45,113.55 320.04,140.89 305.86,167.82 " fill="none" id="Session-backto-ConsoleConnection" style="stroke:#A80036;stroke-width:1.0;"/><polygon fill="#A80036" points="347.28,89.19,339.551,95.2944,344.953,93.6155,346.6319,99.0175,347.28,89.19" style="stroke:#A80036;stroke-width:1.0;"/><text fill="#000000" font-family="sans-serif" font-size="13" lengthAdjust="spacing" textLength="102" x="329.5" y="134.0669">browser session</text><text fill="#000000" font-family="sans-serif" font-size="13" lengthAdjust="spacing" textLength="8" x="335.3264" y="108.9975">1</text><text fill="#000000" font-family="sans-serif" font-size="13" lengthAdjust="spacing" textLength="7" x="302.3712" y="157.0745">*</text><!--MD5=[84bb61c51c2c009b3125679958b6fef9]
@startuml
class ConsoleConnection {
  -{static}Map<String,ConsoleConnection> consoleConnections
  +{static}findOrCreate(String consoleConnectionId, Manager component): ConsoleConnection
  +setTimeout(timeout: long): ConsoleConnection
  +refresh(): void
  +setUpstreamChannel(IOSubchannel upstreamChannel): ConsoleConnection
  +setSessionSupplier(Session sessionSupplier): ConsoleConnection
  +upstreamChannel(): Optional
  +consoleConnectionId(): String
  +session(): Optional
  +locale(): Locale
  +setLocale(Locale locale): void
 }
 
 interface IOSubchannel {
 }
 
 IOSubchannel <|.. ConsoleConnection
 
 ConsoleConnection "1" *- - "*" ConsoleConnection : maintains
 
 package org.jgrapes.http {
     class Session
 }
 
 ConsoleConnection "*" -up-> "1" Session: browser session
@enduml

PlantUML version 1.2022.1(Tue Feb 01 19:19:58 CET 2022)
(GPL source distribution)
Java Runtime: OpenJDK Runtime Environment
JVM: OpenJDK 64-Bit Server VM
Default Encoding: UTF-8
Language: de
Country: DE
--></g></svg>