<?xml version="1.0" encoding="UTF-8" standalone="no"?><svg xmlns="http://www.w3.org/2000/svg" xmlns:xlink="http://www.w3.org/1999/xlink" contentScriptType="application/ecmascript" contentStyleType="text/css" height="482px" preserveAspectRatio="none" style="width:587px;height:482px;" version="1.1" viewBox="0 0 587 482" width="587px" zoomAndPan="magnify"><defs><filter height="300%" id="f1v0no66sbvric" width="300%" x="-1" y="-1"><feGaussianBlur result="blurOut" stdDeviation="2.0"/><feColorMatrix in="blurOut" result="blurOut2" type="matrix" values="0 0 0 0 0 0 0 0 0 0 0 0 0 0 0 0 0 0 .4 0"/><feOffset dx="4.0" dy="4.0" in="blurOut2" result="blurOut3"/><feBlend in="SourceGraphic" in2="blurOut3" mode="normal"/></filter></defs><g><rect fill="#FFFFFF" filter="url(#f1v0no66sbvric)" height="214.0625" style="stroke: #A80036; stroke-width: 1.0;" width="10" x="55.5" y="98.4297"/><rect fill="#FFFFFF" filter="url(#f1v0no66sbvric)" height="29.1328" style="stroke: #A80036; stroke-width: 1.0;" width="10" x="203.5" y="69.2969"/><rect fill="#FFFFFF" filter="url(#f1v0no66sbvric)" height="29.1328" style="stroke: #A80036; stroke-width: 1.0;" width="10" x="203.5" y="127.5625"/><rect fill="#FFFFFF" filter="url(#f1v0no66sbvric)" height="29.1328" style="stroke: #A80036; stroke-width: 1.0;" width="10" x="203.5" y="185.8281"/><rect fill="#FFFFFF" filter="url(#f1v0no66sbvric)" height="89.3984" style="stroke: #A80036; stroke-width: 1.0;" width="10" x="203.5" y="244.0938"/><rect fill="#FFFFFF" filter="url(#f1v0no66sbvric)" height="68.3984" style="stroke: #A80036; stroke-width: 1.0;" width="10" x="203.5" y="391.7578"/><rect fill="#FFFFFF" filter="url(#f1v0no66sbvric)" height="29.1328" style="stroke: #A80036; stroke-width: 1.0;" width="10" x="398.5" y="333.4922"/><rect fill="#FFFFFF" filter="url(#f1v0no66sbvric)" height="29.1328" style="stroke: #A80036; stroke-width: 1.0;" width="10" x="518.5" y="362.625"/><rect fill="#FFFFFF" filter="url(#f1v0no66sbvric)" height="46.2656" style="stroke: #000000; stroke-width: 2.0;" width="267" x="13" y="259.2266"/><rect fill="#FFFFFF" filter="url(#f1v0no66sbvric)" height="46.2656" style="stroke: #000000; stroke-width: 2.0;" width="267" x="13" y="406.8906"/><line style="stroke: #A80036; stroke-width: 1.0; stroke-dasharray: 5.0,5.0;" x1="60" x2="60" y1="38.2969" y2="470.1563"/><line style="stroke: #A80036; stroke-width: 1.0; stroke-dasharray: 5.0,5.0;" x1="208" x2="208" y1="38.2969" y2="470.1563"/><line style="stroke: #A80036; stroke-width: 1.0; stroke-dasharray: 5.0,5.0;" x1="403.5" x2="403.5" y1="38.2969" y2="470.1563"/><line style="stroke: #A80036; stroke-width: 1.0; stroke-dasharray: 5.0,5.0;" x1="523.5" x2="523.5" y1="38.2969" y2="470.1563"/><rect fill="#FEFECE" filter="url(#f1v0no66sbvric)" height="30.2969" style="stroke: #A80036; stroke-width: 1.5;" width="71" x="23" y="3"/><text fill="#000000" font-family="sans-serif" font-size="14" lengthAdjust="spacingAndGlyphs" textLength="57" x="30" y="22.9951">Browser</text><rect fill="#FEFECE" filter="url(#f1v0no66sbvric)" height="30.2969" style="stroke: #A80036; stroke-width: 1.5;" width="119" x="147" y="3"/><text fill="#000000" font-family="sans-serif" font-size="14" lengthAdjust="spacingAndGlyphs" textLength="105" x="154" y="22.9951">ConsoleWeblet</text><rect fill="#FEFECE" filter="url(#f1v0no66sbvric)" height="30.2969" style="stroke: #A80036; stroke-width: 1.5;" width="102" x="350.5" y="3"/><text fill="#000000" font-family="sans-serif" font-size="14" lengthAdjust="spacingAndGlyphs" textLength="88" x="357.5" y="22.9951">WebConsole</text><rect fill="#FEFECE" filter="url(#f1v0no66sbvric)" height="30.2969" style="stroke: #A80036; stroke-width: 1.5;" width="110" x="466.5" y="3"/><text fill="#000000" font-family="sans-serif" font-size="14" lengthAdjust="spacingAndGlyphs" textLength="96" x="473.5" y="22.9951">ConsolePolicy</text><rect fill="#FFFFFF" filter="url(#f1v0no66sbvric)" height="214.0625" style="stroke: #A80036; stroke-width: 1.0;" width="10" x="55.5" y="98.4297"/><rect fill="#FFFFFF" filter="url(#f1v0no66sbvric)" height="29.1328" style="stroke: #A80036; stroke-width: 1.0;" width="10" x="203.5" y="69.2969"/><rect fill="#FFFFFF" filter="url(#f1v0no66sbvric)" height="29.1328" style="stroke: #A80036; stroke-width: 1.0;" width="10" x="203.5" y="127.5625"/><rect fill="#FFFFFF" filter="url(#f1v0no66sbvric)" height="29.1328" style="stroke: #A80036; stroke-width: 1.0;" width="10" x="203.5" y="185.8281"/><rect fill="#FFFFFF" filter="url(#f1v0no66sbvric)" height="89.3984" style="stroke: #A80036; stroke-width: 1.0;" width="10" x="203.5" y="244.0938"/><rect fill="#FFFFFF" filter="url(#f1v0no66sbvric)" height="68.3984" style="stroke: #A80036; stroke-width: 1.0;" width="10" x="203.5" y="391.7578"/><rect fill="#FFFFFF" filter="url(#f1v0no66sbvric)" height="29.1328" style="stroke: #A80036; stroke-width: 1.0;" width="10" x="398.5" y="333.4922"/><rect fill="#FFFFFF" filter="url(#f1v0no66sbvric)" height="29.1328" style="stroke: #A80036; stroke-width: 1.0;" width="10" x="518.5" y="362.625"/><polygon fill="#A80036" points="191.5,65.2969,201.5,69.2969,191.5,73.2969,195.5,69.2969" style="stroke: #A80036; stroke-width: 1.0;"/><line style="stroke: #A80036; stroke-width: 1.0;" x1="60.5" x2="197.5" y1="69.2969" y2="69.2969"/><text fill="#000000" font-family="sans-serif" font-size="13" lengthAdjust="spacingAndGlyphs" textLength="39" x="67.5" y="64.3638">"GET "</text><polygon fill="#A80036" points="76.5,94.4297,66.5,98.4297,76.5,102.4297,72.5,98.4297" style="stroke: #A80036; stroke-width: 1.0;"/><line style="stroke: #A80036; stroke-width: 1.0;" x1="70.5" x2="207.5" y1="98.4297" y2="98.4297"/><text fill="#000000" font-family="sans-serif" font-size="13" lengthAdjust="spacingAndGlyphs" textLength="114" x="82.5" y="93.4966">"HTML document"</text><polygon fill="#A80036" points="191.5,123.5625,201.5,127.5625,191.5,131.5625,195.5,127.5625" style="stroke: #A80036; stroke-width: 1.0;"/><line style="stroke: #A80036; stroke-width: 1.0;" x1="65.5" x2="197.5" y1="127.5625" y2="127.5625"/><text fill="#000000" font-family="sans-serif" font-size="13" lengthAdjust="spacingAndGlyphs" textLength="39" x="72.5" y="122.6294">"GET "</text><polygon fill="#A80036" points="76.5,152.6953,66.5,156.6953,76.5,160.6953,72.5,156.6953" style="stroke: #A80036; stroke-width: 1.0;"/><line style="stroke: #A80036; stroke-width: 1.0;" x1="70.5" x2="207.5" y1="156.6953" y2="156.6953"/><text fill="#000000" font-family="sans-serif" font-size="13" lengthAdjust="spacingAndGlyphs" textLength="59" x="82.5" y="151.7622">Resource</text><polygon fill="#A80036" points="191.5,181.8281,201.5,185.8281,191.5,189.8281,195.5,185.8281" style="stroke: #A80036; stroke-width: 1.0;"/><line style="stroke: #A80036; stroke-width: 1.0;" x1="65.5" x2="197.5" y1="185.8281" y2="185.8281"/><text fill="#000000" font-family="sans-serif" font-size="13" lengthAdjust="spacingAndGlyphs" textLength="39" x="72.5" y="180.895">"GET "</text><polygon fill="#A80036" points="76.5,210.9609,66.5,214.9609,76.5,218.9609,72.5,214.9609" style="stroke: #A80036; stroke-width: 1.0;"/><line style="stroke: #A80036; stroke-width: 1.0;" x1="70.5" x2="207.5" y1="214.9609" y2="214.9609"/><text fill="#000000" font-family="sans-serif" font-size="13" lengthAdjust="spacingAndGlyphs" textLength="59" x="82.5" y="210.0278">Resource</text><polygon fill="#A80036" points="191.5,240.0938,201.5,244.0938,191.5,248.0938,195.5,244.0938" style="stroke: #A80036; stroke-width: 1.0;"/><line style="stroke: #A80036; stroke-width: 1.0;" x1="65.5" x2="197.5" y1="244.0938" y2="244.0938"/><text fill="#000000" font-family="sans-serif" font-size="13" lengthAdjust="spacingAndGlyphs" textLength="39" x="72.5" y="239.1606">"GET "</text><rect fill="none" height="46.2656" style="stroke: #000000; stroke-width: 2.0;" width="267" x="13" y="259.2266"/><polygon fill="#EEEEEE" points="13,259.2266,90,259.2266,90,266.2266,80,276.2266,13,276.2266,13,259.2266" style="stroke: #000000; stroke-width: 2.0;"/><text fill="#000000" font-family="sans-serif" font-size="13" font-weight="bold" lengthAdjust="spacingAndGlyphs" textLength="32" x="28" y="272.2935">loop</text><text fill="#000000" font-family="sans-serif" font-size="11" font-weight="bold" lengthAdjust="spacingAndGlyphs" textLength="131" x="105" y="271.437">[while request data]</text><polygon fill="#A80036" points="191.5,293.3594,201.5,297.3594,191.5,301.3594,195.5,297.3594" style="stroke: #A80036; stroke-width: 1.0;"/><line style="stroke: #A80036; stroke-width: 1.0;" x1="65.5" x2="197.5" y1="297.3594" y2="297.3594"/><text fill="#000000" font-family="sans-serif" font-size="13" lengthAdjust="spacingAndGlyphs" textLength="107" x="72.5" y="292.4263">Input (JSON RPC)</text><polygon fill="#A80036" points="386.5,329.4922,396.5,333.4922,386.5,337.4922,390.5,333.4922" style="stroke: #A80036; stroke-width: 1.0;"/><line style="stroke: #A80036; stroke-width: 1.0;" x1="208.5" x2="392.5" y1="333.4922" y2="333.4922"/><text fill="#000000" font-family="sans-serif" font-size="13" lengthAdjust="spacingAndGlyphs" textLength="166" x="215.5" y="328.5591">JsonInput("consoleReady")</text><polygon fill="#A80036" points="506.5,358.625,516.5,362.625,506.5,366.625,510.5,362.625" style="stroke: #A80036; stroke-width: 1.0;"/><line style="stroke: #A80036; stroke-width: 1.0;" x1="403.5" x2="512.5" y1="362.625" y2="362.625"/><text fill="#000000" font-family="sans-serif" font-size="13" lengthAdjust="spacingAndGlyphs" textLength="90" x="410.5" y="357.6919">ConsoleReady</text><polygon fill="#A80036" points="224.5,387.7578,214.5,391.7578,224.5,395.7578,220.5,391.7578" style="stroke: #A80036; stroke-width: 1.0;"/><line style="stroke: #A80036; stroke-width: 1.0;" x1="218.5" x2="522.5" y1="391.7578" y2="391.7578"/><text fill="#000000" font-family="sans-serif" font-size="13" lengthAdjust="spacingAndGlyphs" textLength="121" x="230.5" y="386.8247">LastConsoleLayout</text><rect fill="none" height="46.2656" style="stroke: #000000; stroke-width: 2.0;" width="267" x="13" y="406.8906"/><polygon fill="#EEEEEE" points="13,406.8906,90,406.8906,90,413.8906,80,423.8906,13,423.8906,13,406.8906" style="stroke: #000000; stroke-width: 2.0;"/><text fill="#000000" font-family="sans-serif" font-size="13" font-weight="bold" lengthAdjust="spacingAndGlyphs" textLength="32" x="28" y="419.9575">loop</text><text fill="#000000" font-family="sans-serif" font-size="11" font-weight="bold" lengthAdjust="spacingAndGlyphs" textLength="131" x="105" y="419.1011">[while request data]</text><polygon fill="#A80036" points="71.5,441.0234,61.5,445.0234,71.5,449.0234,67.5,445.0234" style="stroke: #A80036; stroke-width: 1.0;"/><line style="stroke: #A80036; stroke-width: 1.0;" x1="65.5" x2="202.5" y1="445.0234" y2="445.0234"/><text fill="#000000" font-family="sans-serif" font-size="13" lengthAdjust="spacingAndGlyphs" textLength="119" x="77.5" y="440.0903">Output (JSON RPC)</text><!--
@startuml
hide footbox
 
 Browser -> ConsoleWeblet: "GET "
 activate ConsoleWeblet
 ConsoleWeblet -> Browser: "HTML document"
 deactivate ConsoleWeblet
 activate Browser
 Browser -> ConsoleWeblet: "GET "
 activate ConsoleWeblet
 ConsoleWeblet -> Browser: Resource
 deactivate ConsoleWeblet
 Browser -> ConsoleWeblet: "GET "
 activate ConsoleWeblet
 ConsoleWeblet -> Browser: Resource
 deactivate ConsoleWeblet
 Browser -> ConsoleWeblet: "GET "
 activate ConsoleWeblet
 loop while request data
     Browser -> ConsoleWeblet: Input (JSON RPC)
 end
 deactivate Browser
 ConsoleWeblet -> WebConsole: JsonInput("consoleReady")
 deactivate ConsoleWeblet
 activate WebConsole
 WebConsole -> ConsolePolicy: ConsoleReady
 deactivate WebConsole
 activate ConsolePolicy
 ConsolePolicy -> ConsoleWeblet: LastConsoleLayout
 deactivate ConsolePolicy
 activate ConsoleWeblet
 loop while request data
     ConsoleWeblet -> Browser: Output (JSON RPC)
 end
 deactivate ConsoleWeblet
@enduml

PlantUML version 1.2017.18(Fri Oct 06 16:56:32 UTC 2017)
(GPL source distribution)
Java Runtime: OpenJDK Runtime Environment
JVM: OpenJDK 64-Bit Server VM
Java Version: 11.0.14+9-LTS
Operating System: Linux
OS Version: 5.11.0-1025-azure
Default Encoding: UTF-8
Language: en
Country: 
--></g></svg>