<?xml version="1.0" encoding="UTF-8" standalone="no"?><svg xmlns="http://www.w3.org/2000/svg" xmlns:xlink="http://www.w3.org/1999/xlink" contentScriptType="application/ecmascript" contentStyleType="text/css" height="263px" preserveAspectRatio="none" style="width:796px;height:263px;background:#FFFFFF;" version="1.1" viewBox="0 0 796 263" width="796px" zoomAndPan="magnify"><defs><filter height="300%" id="fv1cd5gnulvn2" width="300%" x="-1" y="-1"><feGaussianBlur result="blurOut" stdDeviation="2.0"/><feColorMatrix in="blurOut" result="blurOut2" type="matrix" values="0 0 0 0 0 0 0 0 0 0 0 0 0 0 0 0 0 0 .4 0"/><feOffset dx="4.0" dy="4.0" in="blurOut2" result="blurOut3"/><feBlend in="SourceGraphic" in2="blurOut3" mode="normal"/></filter></defs><g><!--MD5=[5623905afaf9879e491d1bb4a5ab29df]
cluster Conceptual WebConsole\n(WebConsole Gateway)--><rect fill="#FFFFFF" filter="url(#fv1cd5gnulvn2)" height="101" style="stroke:#000000;stroke-width:1.5;" width="262" x="344" y="7"/><text fill="#000000" font-family="sans-serif" font-size="14" font-weight="bold" lengthAdjust="spacing" textLength="193" x="378.5" y="21.9951">Conceptual WebConsole</text><text fill="#000000" font-family="sans-serif" font-size="14" font-weight="bold" lengthAdjust="spacing" textLength="185" x="382.5" y="38.292">(WebConsole Gateway)</text><rect fill="#FEFECE" filter="url(#fv1cd5gnulvn2)" height="33.9688" style="stroke:#A80036;stroke-width:1.5;" width="89" x="501.5" y="58"/><text fill="#000000" font-family="sans-serif" font-size="12" lengthAdjust="spacing" textLength="75" x="508.5" y="71.1387">webConsole</text><line style="stroke:#A80036;stroke-width:1.5;" x1="502.5" x2="589.5" y1="75.9688" y2="75.9688"/><rect fill="#FEFECE" filter="url(#fv1cd5gnulvn2)" height="33.9688" style="stroke:#A80036;stroke-width:1.5;" width="106" x="360" y="58"/><text fill="#000000" font-family="sans-serif" font-size="12" lengthAdjust="spacing" textLength="92" x="367" y="71.1387">consoleWeblet</text><line style="stroke:#A80036;stroke-width:1.5;" x1="361" x2="465" y1="75.9688" y2="75.9688"/><rect fill="#FEFECE" filter="url(#fv1cd5gnulvn2)" height="33.9688" style="stroke:#A80036;stroke-width:1.5;" width="106" x="118" y="216"/><text fill="#000000" font-family="sans-serif" font-size="12" lengthAdjust="spacing" textLength="92" x="125" y="229.1387">webletChannel</text><line style="stroke:#A80036;stroke-width:1.5;" x1="119" x2="223" y1="233.9688" y2="233.9688"/><rect fill="#FEFECE" filter="url(#fv1cd5gnulvn2)" height="33.9688" style="stroke:#A80036;stroke-width:1.5;" width="114" x="623" y="216"/><text fill="#000000" font-family="sans-serif" font-size="12" lengthAdjust="spacing" textLength="100" x="630" y="229.1387">consoleChannel</text><line style="stroke:#A80036;stroke-width:1.5;" x1="624" x2="736" y1="233.9688" y2="233.9688"/><rect fill="#FEFECE" filter="url(#fv1cd5gnulvn2)" height="33.9688" style="stroke:#A80036;stroke-width:1.5;" width="80" x="7" y="58"/><text fill="#000000" font-family="sans-serif" font-size="12" lengthAdjust="spacing" textLength="66" x="14" y="71.1387">httpServer</text><line style="stroke:#A80036;stroke-width:1.5;" x1="8" x2="86" y1="75.9688" y2="75.9688"/><rect fill="#FEFECE" filter="url(#fv1cd5gnulvn2)" height="33.9688" style="stroke:#A80036;stroke-width:1.5;" width="117" x="122.5" y="58"/><text fill="#000000" font-family="sans-serif" font-size="12" lengthAdjust="spacing" textLength="103" x="129.5" y="71.1387">sessionManager</text><line style="stroke:#A80036;stroke-width:1.5;" x1="123.5" x2="238.5" y1="75.9688" y2="75.9688"/><rect fill="#FEFECE" filter="url(#fv1cd5gnulvn2)" height="33.9688" style="stroke:#A80036;stroke-width:1.5;" width="61" x="625.5" y="58"/><text fill="#000000" font-family="sans-serif" font-size="12" lengthAdjust="spacing" textLength="47" x="632.5" y="71.1387">conletA</text><line style="stroke:#A80036;stroke-width:1.5;" x1="626.5" x2="685.5" y1="75.9688" y2="75.9688"/><rect fill="#FEFECE" filter="url(#fv1cd5gnulvn2)" height="33.9688" style="stroke:#A80036;stroke-width:1.5;" width="61" x="721.5" y="58"/><text fill="#000000" font-family="sans-serif" font-size="12" lengthAdjust="spacing" textLength="47" x="728.5" y="71.1387">conletB</text><line style="stroke:#A80036;stroke-width:1.5;" x1="722.5" x2="781.5" y1="75.9688" y2="75.9688"/><rect fill="#FEFECE" filter="url(#fv1cd5gnulvn2)" height="33.9688" style="stroke:#A80036;stroke-width:1.5;" width="241" x="259.5" y="216"/><text fill="#000000" font-family="sans-serif" font-size="12" lengthAdjust="spacing" textLength="227" x="266.5" y="229.1387">consoleSession: ConsoleConnection</text><line style="stroke:#A80036;stroke-width:1.5;" x1="260.5" x2="499.5" y1="233.9688" y2="233.9688"/><!--MD5=[27cc0fb298c1191921ef481ff9826301]
link httpServer to webletChannel--><path codeLine="8" d="M59.8,92.11 C83.56,122 134.23,185.74 158.08,215.75 " fill="none" id="httpServer-webletChannel" style="stroke:#A80036;stroke-width:1.0;"/><!--MD5=[f538df26445b58e9d5d2793421dc3941]
link sessionManager to webletChannel--><path codeLine="11" d="M179.97,92.11 C178.05,122 173.97,185.74 172.04,215.75 " fill="none" id="sessionManager-webletChannel" style="stroke:#A80036;stroke-width:1.0;"/><!--MD5=[24122f48852eb65b29779b84fc954f81]
reverse link consoleWeblet to webConsole--><path codeLine="17" d="M479.45,75 C486.79,75 494.12,75 501.45,75 " fill="none" id="consoleWeblet-backto-webConsole" style="stroke:#A80036;stroke-width:1.0;"/><polygon fill="#A80036" points="466.25,75,472.25,79,478.25,75,472.25,71,466.25,75" style="stroke:#A80036;stroke-width:1.0;"/><text fill="#000000" font-family="sans-serif" font-size="13" lengthAdjust="spacing" textLength="8" x="473.943" y="71.0701">1</text><text fill="#000000" font-family="sans-serif" font-size="13" lengthAdjust="spacing" textLength="8" x="485.4089" y="70.8383">1</text><!--MD5=[4eb8804213847fbed8fdbcdf159c6cae]
link consoleWeblet to webletChannel--><path codeLine="20" d="M366.23,92.01 C344.98,100.2 319.97,111.15 299,124 C254.62,151.19 209.72,193.16 186.73,215.95 " fill="none" id="consoleWeblet-webletChannel" style="stroke:#A80036;stroke-width:1.0;"/><text fill="#000000" font-family="sans-serif" font-size="13" lengthAdjust="spacing" textLength="43" x="310" y="137.0669">onGet,</text><text fill="#000000" font-family="sans-serif" font-size="13" lengthAdjust="spacing" textLength="52" x="305.5" y="152.1997">onInput,</text><text fill="#000000" font-family="sans-serif" font-size="13" lengthAdjust="spacing" textLength="63" x="300" y="167.3325">onClosed,</text><text fill="#000000" font-family="sans-serif" font-size="13" lengthAdjust="spacing" textLength="12" x="325.5" y="182.4653">...</text><!--MD5=[d2ff2645bbd67045dedf0a64725949ce]
link consoleWeblet to consoleChannel--><path codeLine="21" d="M407.14,92.38 C399.85,116.01 390.85,159.71 413,186 C426.39,201.9 548.57,217.77 622.93,226.07 " fill="none" id="consoleWeblet-consoleChannel" style="stroke:#A80036;stroke-width:1.0;"/><text fill="#000000" font-family="sans-serif" font-size="13" lengthAdjust="spacing" textLength="110" x="428" y="144.5669">onConsoleReady,</text><text fill="#000000" font-family="sans-serif" font-size="13" lengthAdjust="spacing" textLength="138" x="414" y="159.6997">onConsoleCommand,</text><text fill="#000000" font-family="sans-serif" font-size="13" lengthAdjust="spacing" textLength="12" x="477" y="174.8325">...</text><!--MD5=[f2b4cb01752d81d9302166b0d14af00a]
link webConsole to consoleChannel--><path codeLine="23" d="M550.59,92.15 C558.5,119.11 575.1,171.76 588,186 C599.75,198.97 615.98,208.75 631.55,215.89 " fill="none" id="webConsole-consoleChannel" style="stroke:#A80036;stroke-width:1.0;"/><text fill="#000000" font-family="sans-serif" font-size="13" lengthAdjust="spacing" textLength="83" x="589" y="159.5669">(all handlers)</text><!--MD5=[35189976455060016fd633e951a06364]
link conletA to consoleChannel--><path codeLine="26" d="M666.88,92.1 C672.28,101.07 678.23,112.68 681,124 C688.8,155.87 685.47,194.64 682.58,215.98 " fill="none" id="conletA-consoleChannel" style="stroke:#A80036;stroke-width:1.0;"/><!--MD5=[486503d52be297b5a82f57e92683bfea]
link conletB to consoleChannel--><path codeLine="29" d="M746.79,92.07 C739.49,113.87 725.27,153.79 709,186 C703.81,196.28 696.98,207.21 691.25,215.83 " fill="none" id="conletB-consoleChannel" style="stroke:#A80036;stroke-width:1.0;"/><!--MD5=[748dd980c87d00a8a39dd11b3d3c8ec5]
link consoleSession to consoleChannel--><path codeLine="32" d="M500.72,233 C540.75,233 583.67,233 617.48,233 " fill="none" id="consoleSession-to-consoleChannel" style="stroke:#A80036;stroke-width:1.0;"/><polygon fill="#A80036" points="622.83,233,613.83,229,617.83,233,613.83,237,622.83,233" style="stroke:#A80036;stroke-width:1.0;"/><text fill="#000000" font-family="sans-serif" font-size="13" lengthAdjust="spacing" textLength="86" x="518.75" y="226.0669">main channel</text><!--MD5=[75c40312b05f950a615dd72920ac625b]
reverse link consoleWeblet to consoleSession--><path codeLine="33" d="M389.53,103.11 C385.2,109.56 381.32,116.7 379,124 C369.05,155.27 373.17,194.26 376.77,215.8 " fill="none" id="consoleWeblet-backto-consoleSession" style="stroke:#A80036;stroke-width:1.0;"/><polygon fill="#A80036" points="397.56,92.36,390.7637,94.7705,390.3748,101.9711,397.1711,99.5606,397.56,92.36" style="stroke:#A80036;stroke-width:1.0;"/><!--MD5=[7b8f2aadbd4b5d39e0bde8e079baa9cf]
link webConsole to conletA--><!--MD5=[2f197bda0e701ce3e16c0518cc56b580]
link conletA to conletB--><!--MD5=[8171a5ab3eba16ba19f08950fcc63506]
link webletChannel to consoleSession--><!--MD5=[27062db2eb833362b9a4d5581c93a6ad]
@startuml
skinparam packageStyle rectangle
 allow_mixing
 
 object webletChannel
 object consoleChannel
 
 object httpServer
 httpServer - - webletChannel
 
 object sessionManager
 sessionManager - - webletChannel
 
 package "Conceptual WebConsole\n(WebConsole Gateway)" {
    object webConsole
    object consoleWeblet
 
    webConsole "1" -left-* "1" consoleWeblet
 }
  
 consoleWeblet - - webletChannel : "onGet,\nonInput,\nonClosed,\n..."
 consoleWeblet - - consoleChannel : "onConsoleReady,\nonConsoleCommand,\n..."
 
 webConsole - - consoleChannel : "(all handlers)"
 
 object conletA
 conletA - - consoleChannel
 
 object conletB
 conletB - - consoleChannel
 
 object "consoleSession: ConsoleConnection" as consoleSession
 consoleChannel <-left- consoleSession : "main channel"
 consoleWeblet *- - consoleSession 
 
 webConsole -right[hidden]- conletA
 conletA -right[hidden]- conletB
 webletChannel -right[hidden]- consoleSession
@enduml

PlantUML version 1.2022.1(Tue Feb 01 18:19:58 UTC 2022)
(GPL source distribution)
Java Runtime: OpenJDK Runtime Environment
JVM: OpenJDK 64-Bit Server VM
Default Encoding: UTF-8
Language: en
Country: 
--></g></svg>