<?xml version="1.0" encoding="us-ascii" standalone="no"?><svg xmlns="http://www.w3.org/2000/svg" xmlns:xlink="http://www.w3.org/1999/xlink" contentStyleType="text/css" height="475px" preserveAspectRatio="none" style="width:667px;height:475px;background:#FFFFFF;" version="1.1" viewBox="0 0 667 475" width="667px" zoomAndPan="magnify"><defs/><g><rect fill="#FFFFFF" height="213.9297" style="stroke:#181818;stroke-width:1.0;" width="10" x="50.5" y="96.5625"/><rect fill="#FFFFFF" height="29.1328" style="stroke:#181818;stroke-width:1.0;" width="10" x="287.5" y="67.4297"/><rect fill="#FFFFFF" height="29.1328" style="stroke:#181818;stroke-width:1.0;" width="10" x="287.5" y="125.6953"/><rect fill="#FFFFFF" height="29.1328" style="stroke:#181818;stroke-width:1.0;" width="10" x="287.5" y="183.9609"/><rect fill="#FFFFFF" height="89.3984" style="stroke:#181818;stroke-width:1.0;" width="10" x="287.5" y="242.2266"/><rect fill="#FFFFFF" height="68.2656" style="stroke:#181818;stroke-width:1.0;" width="10" x="287.5" y="389.8906"/><rect fill="#FFFFFF" height="29.1328" style="stroke:#181818;stroke-width:1.0;" width="10" x="482.5" y="331.625"/><rect fill="#FFFFFF" height="29.1328" style="stroke:#181818;stroke-width:1.0;" width="10" x="601.5" y="360.7578"/><rect fill="none" height="46.2656" style="stroke:#000000;stroke-width:1.5;" width="352" x="10" y="257.2266"/><rect fill="none" height="46.2656" style="stroke:#000000;stroke-width:1.5;" width="352" x="10" y="404.8906"/><line style="stroke:#181818;stroke-width:0.5;stroke-dasharray:5.0,5.0;" x1="55" x2="55" y1="36.2969" y2="468.1563"/><line style="stroke:#181818;stroke-width:0.5;stroke-dasharray:5.0,5.0;" x1="292" x2="292" y1="36.2969" y2="468.1563"/><line style="stroke:#181818;stroke-width:0.5;stroke-dasharray:5.0,5.0;" x1="487.5" x2="487.5" y1="36.2969" y2="468.1563"/><line style="stroke:#181818;stroke-width:0.5;stroke-dasharray:5.0,5.0;" x1="606.5" x2="606.5" y1="36.2969" y2="468.1563"/><rect fill="#E2E2F0" height="30.2969" rx="2.5" ry="2.5" style="stroke:#181818;stroke-width:0.5;" width="71" x="20" y="5"/><text fill="#000000" font-family="sans-serif" font-size="14" lengthAdjust="spacing" textLength="57" x="27" y="24.9951">Browser</text><rect fill="#E2E2F0" height="30.2969" rx="2.5" ry="2.5" style="stroke:#181818;stroke-width:0.5;" width="119" x="233" y="5"/><text fill="#000000" font-family="sans-serif" font-size="14" lengthAdjust="spacing" textLength="105" x="240" y="24.9951">ConsoleWeblet</text><rect fill="#E2E2F0" height="30.2969" rx="2.5" ry="2.5" style="stroke:#181818;stroke-width:0.5;" width="102" x="436.5" y="5"/><text fill="#000000" font-family="sans-serif" font-size="14" lengthAdjust="spacing" textLength="88" x="443.5" y="24.9951">WebConsole</text><rect fill="#E2E2F0" height="30.2969" rx="2.5" ry="2.5" style="stroke:#181818;stroke-width:0.5;" width="110" x="551.5" y="5"/><text fill="#000000" font-family="sans-serif" font-size="14" lengthAdjust="spacing" textLength="96" x="558.5" y="24.9951">ConsolePolicy</text><rect fill="#FFFFFF" height="213.9297" style="stroke:#181818;stroke-width:1.0;" width="10" x="50.5" y="96.5625"/><rect fill="#FFFFFF" height="29.1328" style="stroke:#181818;stroke-width:1.0;" width="10" x="287.5" y="67.4297"/><rect fill="#FFFFFF" height="29.1328" style="stroke:#181818;stroke-width:1.0;" width="10" x="287.5" y="125.6953"/><rect fill="#FFFFFF" height="29.1328" style="stroke:#181818;stroke-width:1.0;" width="10" x="287.5" y="183.9609"/><rect fill="#FFFFFF" height="89.3984" style="stroke:#181818;stroke-width:1.0;" width="10" x="287.5" y="242.2266"/><rect fill="#FFFFFF" height="68.2656" style="stroke:#181818;stroke-width:1.0;" width="10" x="287.5" y="389.8906"/><rect fill="#FFFFFF" height="29.1328" style="stroke:#181818;stroke-width:1.0;" width="10" x="482.5" y="331.625"/><rect fill="#FFFFFF" height="29.1328" style="stroke:#181818;stroke-width:1.0;" width="10" x="601.5" y="360.7578"/><polygon fill="#181818" points="275.5,63.4297,285.5,67.4297,275.5,71.4297,279.5,67.4297" style="stroke:#181818;stroke-width:1.0;"/><line style="stroke:#181818;stroke-width:1.0;" x1="55.5" x2="281.5" y1="67.4297" y2="67.4297"/><text fill="#000000" font-family="sans-serif" font-size="13" lengthAdjust="spacing" textLength="139" x="62.5" y="62.3638">"GET &lt;console URL&gt;"</text><polygon fill="#181818" points="71.5,92.5625,61.5,96.5625,71.5,100.5625,67.5,96.5625" style="stroke:#181818;stroke-width:1.0;"/><line style="stroke:#181818;stroke-width:1.0;" x1="65.5" x2="291.5" y1="96.5625" y2="96.5625"/><text fill="#000000" font-family="sans-serif" font-size="13" lengthAdjust="spacing" textLength="114" x="77.5" y="91.4966">"HTML document"</text><polygon fill="#181818" points="275.5,121.6953,285.5,125.6953,275.5,129.6953,279.5,125.6953" style="stroke:#181818;stroke-width:1.0;"/><line style="stroke:#181818;stroke-width:1.0;" x1="60.5" x2="281.5" y1="125.6953" y2="125.6953"/><text fill="#000000" font-family="sans-serif" font-size="13" lengthAdjust="spacing" textLength="154" x="67.5" y="120.6294">"GET &lt;resource1 URL&gt;"</text><polygon fill="#181818" points="71.5,150.8281,61.5,154.8281,71.5,158.8281,67.5,154.8281" style="stroke:#181818;stroke-width:1.0;"/><line style="stroke:#181818;stroke-width:1.0;" x1="65.5" x2="291.5" y1="154.8281" y2="154.8281"/><text fill="#000000" font-family="sans-serif" font-size="13" lengthAdjust="spacing" textLength="59" x="77.5" y="149.7622">Resource</text><polygon fill="#181818" points="275.5,179.9609,285.5,183.9609,275.5,187.9609,279.5,183.9609" style="stroke:#181818;stroke-width:1.0;"/><line style="stroke:#181818;stroke-width:1.0;" x1="60.5" x2="281.5" y1="183.9609" y2="183.9609"/><text fill="#000000" font-family="sans-serif" font-size="13" lengthAdjust="spacing" textLength="154" x="67.5" y="178.895">"GET &lt;resource2 URL&gt;"</text><polygon fill="#181818" points="71.5,209.0938,61.5,213.0938,71.5,217.0938,67.5,213.0938" style="stroke:#181818;stroke-width:1.0;"/><line style="stroke:#181818;stroke-width:1.0;" x1="65.5" x2="291.5" y1="213.0938" y2="213.0938"/><text fill="#000000" font-family="sans-serif" font-size="13" lengthAdjust="spacing" textLength="59" x="77.5" y="208.0278">Resource</text><polygon fill="#181818" points="275.5,238.2266,285.5,242.2266,275.5,246.2266,279.5,242.2266" style="stroke:#181818;stroke-width:1.0;"/><line style="stroke:#181818;stroke-width:1.0;" x1="60.5" x2="281.5" y1="242.2266" y2="242.2266"/><text fill="#000000" font-family="sans-serif" font-size="13" lengthAdjust="spacing" textLength="208" x="67.5" y="237.1606">"GET &lt;Upgrade to WebSocket&gt;"</text><path d="M10,257.2266 L87,257.2266 L87,264.3594 L77,274.3594 L10,274.3594 L10,257.2266 " fill="#EEEEEE" style="stroke:#000000;stroke-width:1.5;"/><rect fill="none" height="46.2656" style="stroke:#000000;stroke-width:1.5;" width="352" x="10" y="257.2266"/><text fill="#000000" font-family="sans-serif" font-size="13" font-weight="bold" lengthAdjust="spacing" textLength="32" x="25" y="270.2935">loop</text><text fill="#000000" font-family="sans-serif" font-size="11" font-weight="bold" lengthAdjust="spacing" textLength="131" x="102" y="269.437">[while request data]</text><polygon fill="#181818" points="275.5,291.4922,285.5,295.4922,275.5,299.4922,279.5,295.4922" style="stroke:#181818;stroke-width:1.0;"/><line style="stroke:#181818;stroke-width:1.0;" x1="60.5" x2="281.5" y1="295.4922" y2="295.4922"/><text fill="#000000" font-family="sans-serif" font-size="13" lengthAdjust="spacing" textLength="107" x="67.5" y="290.4263">Input (JSON RPC)</text><polygon fill="#181818" points="470.5,327.625,480.5,331.625,470.5,335.625,474.5,331.625" style="stroke:#181818;stroke-width:1.0;"/><line style="stroke:#181818;stroke-width:1.0;" x1="292.5" x2="476.5" y1="331.625" y2="331.625"/><text fill="#000000" font-family="sans-serif" font-size="13" lengthAdjust="spacing" textLength="166" x="299.5" y="326.5591">JsonInput("consoleReady")</text><polygon fill="#181818" points="589.5,356.7578,599.5,360.7578,589.5,364.7578,593.5,360.7578" style="stroke:#181818;stroke-width:1.0;"/><line style="stroke:#181818;stroke-width:1.0;" x1="487.5" x2="595.5" y1="360.7578" y2="360.7578"/><text fill="#000000" font-family="sans-serif" font-size="13" lengthAdjust="spacing" textLength="90" x="494.5" y="355.6919">ConsoleReady</text><polygon fill="#181818" points="308.5,385.8906,298.5,389.8906,308.5,393.8906,304.5,389.8906" style="stroke:#181818;stroke-width:1.0;"/><line style="stroke:#181818;stroke-width:1.0;" x1="302.5" x2="605.5" y1="389.8906" y2="389.8906"/><text fill="#000000" font-family="sans-serif" font-size="13" lengthAdjust="spacing" textLength="121" x="314.5" y="384.8247">LastConsoleLayout</text><path d="M10,404.8906 L87,404.8906 L87,412.0234 L77,422.0234 L10,422.0234 L10,404.8906 " fill="#EEEEEE" style="stroke:#000000;stroke-width:1.5;"/><rect fill="none" height="46.2656" style="stroke:#000000;stroke-width:1.5;" width="352" x="10" y="404.8906"/><text fill="#000000" font-family="sans-serif" font-size="13" font-weight="bold" lengthAdjust="spacing" textLength="32" x="25" y="417.9575">loop</text><text fill="#000000" font-family="sans-serif" font-size="11" font-weight="bold" lengthAdjust="spacing" textLength="131" x="102" y="417.1011">[while request data]</text><polygon fill="#181818" points="66.5,439.1563,56.5,443.1563,66.5,447.1563,62.5,443.1563" style="stroke:#181818;stroke-width:1.0;"/><line style="stroke:#181818;stroke-width:1.0;" x1="60.5" x2="286.5" y1="443.1563" y2="443.1563"/><text fill="#000000" font-family="sans-serif" font-size="13" lengthAdjust="spacing" textLength="119" x="72.5" y="438.0903">Output (JSON RPC)</text><!--SRC=[nPB1JW8n48RlVOh9dk3WGOyRmq5YLB8AMI2UIplAndLdRQVYlhq52b9bWN2nfywqyytV_ZClDC8B4S_eIu206qCBYmOkUj2dobA9ppWhaLD8xcudSAtMIPZcMIyH81KNdv8nlYpYS0aBN8-vdpnce4cvTwpO8pIsGRRvK7nSdK5BpYYyF5zV7X27X9qgu-f_PKphLoEzlKpW3yQatf0FgIc9QbZC2s-lmG-7ba5BbWAMgxtPGrKxXivWF7o2VDJl2i1AHxgt_lrvhz-5N0e3IzMArKd2bEKeTPDqJvgH7vBOsU_87L5Pg2RTX2jsHDub_6wtBXPnkESlCcavf3BPaEDzsZUmitne7vcXusD6HCNV]--></g></svg>