<?xml version="1.0" encoding="UTF-8" standalone="no"?><svg xmlns="http://www.w3.org/2000/svg" xmlns:xlink="http://www.w3.org/1999/xlink" contentScriptType="application/ecmascript" contentStyleType="text/css" height="263px" preserveAspectRatio="none" style="width:808px;height:263px;background:#FFFFFF;" version="1.1" viewBox="0 0 808 263" width="808px" zoomAndPan="magnify"><defs><filter height="300%" id="f15ydepfkjjaj4" width="300%" x="-1" y="-1"><feGaussianBlur result="blurOut" stdDeviation="2.0"/><feColorMatrix in="blurOut" result="blurOut2" type="matrix" values="0 0 0 0 0 0 0 0 0 0 0 0 0 0 0 0 0 0 .4 0"/><feOffset dx="4.0" dy="4.0" in="blurOut2" result="blurOut3"/><feBlend in="SourceGraphic" in2="blurOut3" mode="normal"/></filter></defs><g><!--MD5=[5623905afaf9879e491d1bb4a5ab29df]
cluster Conceptual WebConsole\n(WebConsole Gateway)--><rect fill="#FFFFFF" filter="url(#f15ydepfkjjaj4)" height="101" style="stroke:#000000;stroke-width:1.5;" width="263" x="356" y="7"/><text fill="#000000" font-family="sans-serif" font-size="14" font-weight="bold" lengthAdjust="spacing" textLength="193" x="391" y="21.9951">Conceptual WebConsole</text><text fill="#000000" font-family="sans-serif" font-size="14" font-weight="bold" lengthAdjust="spacing" textLength="185" x="395" y="38.292">(WebConsole Gateway)</text><rect fill="#FEFECE" filter="url(#f15ydepfkjjaj4)" height="33.9688" style="stroke:#A80036;stroke-width:1.5;" width="89" x="513.5" y="58"/><text fill="#000000" font-family="sans-serif" font-size="12" lengthAdjust="spacing" textLength="75" x="520.5" y="71.1387">webConsole</text><line style="stroke:#A80036;stroke-width:1.5;" x1="514.5" x2="601.5" y1="75.9688" y2="75.9688"/><rect fill="#FEFECE" filter="url(#f15ydepfkjjaj4)" height="33.9688" style="stroke:#A80036;stroke-width:1.5;" width="106" x="372" y="58"/><text fill="#000000" font-family="sans-serif" font-size="12" lengthAdjust="spacing" textLength="92" x="379" y="71.1387">consoleWeblet</text><line style="stroke:#A80036;stroke-width:1.5;" x1="373" x2="477" y1="75.9688" y2="75.9688"/><rect fill="#FEFECE" filter="url(#f15ydepfkjjaj4)" height="33.9688" style="stroke:#A80036;stroke-width:1.5;" width="106" x="113" y="216"/><text fill="#000000" font-family="sans-serif" font-size="12" lengthAdjust="spacing" textLength="92" x="120" y="229.1387">webletChannel</text><line style="stroke:#A80036;stroke-width:1.5;" x1="114" x2="218" y1="233.9688" y2="233.9688"/><rect fill="#FEFECE" filter="url(#f15ydepfkjjaj4)" height="33.9688" style="stroke:#A80036;stroke-width:1.5;" width="114" x="640" y="216"/><text fill="#000000" font-family="sans-serif" font-size="12" lengthAdjust="spacing" textLength="100" x="647" y="229.1387">consoleChannel</text><line style="stroke:#A80036;stroke-width:1.5;" x1="641" x2="753" y1="233.9688" y2="233.9688"/><rect fill="#FEFECE" filter="url(#f15ydepfkjjaj4)" height="33.9688" style="stroke:#A80036;stroke-width:1.5;" width="80" x="7" y="58"/><text fill="#000000" font-family="sans-serif" font-size="12" lengthAdjust="spacing" textLength="66" x="14" y="71.1387">httpServer</text><line style="stroke:#A80036;stroke-width:1.5;" x1="8" x2="86" y1="75.9688" y2="75.9688"/><rect fill="#FEFECE" filter="url(#f15ydepfkjjaj4)" height="33.9688" style="stroke:#A80036;stroke-width:1.5;" width="117" x="122.5" y="58"/><text fill="#000000" font-family="sans-serif" font-size="12" lengthAdjust="spacing" textLength="103" x="129.5" y="71.1387">sessionManager</text><line style="stroke:#A80036;stroke-width:1.5;" x1="123.5" x2="238.5" y1="75.9688" y2="75.9688"/><rect fill="#FEFECE" filter="url(#f15ydepfkjjaj4)" height="33.9688" style="stroke:#A80036;stroke-width:1.5;" width="61" x="637.5" y="58"/><text fill="#000000" font-family="sans-serif" font-size="12" lengthAdjust="spacing" textLength="47" x="644.5" y="71.1387">conletA</text><line style="stroke:#A80036;stroke-width:1.5;" x1="638.5" x2="697.5" y1="75.9688" y2="75.9688"/><rect fill="#FEFECE" filter="url(#f15ydepfkjjaj4)" height="33.9688" style="stroke:#A80036;stroke-width:1.5;" width="61" x="733.5" y="58"/><text fill="#000000" font-family="sans-serif" font-size="12" lengthAdjust="spacing" textLength="47" x="740.5" y="71.1387">conletB</text><line style="stroke:#A80036;stroke-width:1.5;" x1="734.5" x2="793.5" y1="75.9688" y2="75.9688"/><rect fill="#FEFECE" filter="url(#f15ydepfkjjaj4)" height="33.9688" style="stroke:#A80036;stroke-width:1.5;" width="263" x="254.5" y="216"/><text fill="#000000" font-family="sans-serif" font-size="12" lengthAdjust="spacing" textLength="249" x="261.5" y="229.1387">consoleConnection: ConsoleConnection</text><line style="stroke:#A80036;stroke-width:1.5;" x1="255.5" x2="516.5" y1="233.9688" y2="233.9688"/><!--MD5=[27cc0fb298c1191921ef481ff9826301]
link httpServer to webletChannel--><path codeLine="8" d="M59.29,92.11 C82.09,122 130.71,185.74 153.6,215.75 " fill="none" id="httpServer-webletChannel" style="stroke:#A80036;stroke-width:1.0;"/><!--MD5=[f538df26445b58e9d5d2793421dc3941]
link sessionManager to webletChannel--><path codeLine="11" d="M179.45,92.11 C176.58,122 170.45,185.74 167.56,215.75 " fill="none" id="sessionManager-webletChannel" style="stroke:#A80036;stroke-width:1.0;"/><!--MD5=[24122f48852eb65b29779b84fc954f81]
reverse link consoleWeblet to webConsole--><path codeLine="17" d="M491.45,75 C498.79,75 506.12,75 513.45,75 " fill="none" id="consoleWeblet-backto-webConsole" style="stroke:#A80036;stroke-width:1.0;"/><polygon fill="#A80036" points="478.25,75,484.25,79,490.25,75,484.25,71,478.25,75" style="stroke:#A80036;stroke-width:1.0;"/><text fill="#000000" font-family="sans-serif" font-size="13" lengthAdjust="spacing" textLength="8" x="485.943" y="71.0701">1</text><text fill="#000000" font-family="sans-serif" font-size="13" lengthAdjust="spacing" textLength="8" x="497.4089" y="70.8383">1</text><!--MD5=[4eb8804213847fbed8fdbcdf159c6cae]
link consoleWeblet to webletChannel--><path codeLine="20" d="M378.56,92.1 C356.82,100.41 330.95,111.45 309,124 C260.93,151.5 210.57,192.97 184.35,215.69 " fill="none" id="consoleWeblet-webletChannel" style="stroke:#A80036;stroke-width:1.0;"/><text fill="#000000" font-family="sans-serif" font-size="13" lengthAdjust="spacing" textLength="43" x="320" y="137.0669">onGet,</text><text fill="#000000" font-family="sans-serif" font-size="13" lengthAdjust="spacing" textLength="52" x="315.5" y="152.1997">onInput,</text><text fill="#000000" font-family="sans-serif" font-size="13" lengthAdjust="spacing" textLength="63" x="310" y="167.3325">onClosed,</text><text fill="#000000" font-family="sans-serif" font-size="13" lengthAdjust="spacing" textLength="12" x="335.5" y="182.4653">...</text><!--MD5=[d2ff2645bbd67045dedf0a64725949ce]
link consoleWeblet to consoleChannel--><path codeLine="21" d="M419.13,92.39 C411.83,116.03 402.81,159.74 425,186 C438.72,202.23 564.18,218.07 639.83,226.26 " fill="none" id="consoleWeblet-consoleChannel" style="stroke:#A80036;stroke-width:1.0;"/><text fill="#000000" font-family="sans-serif" font-size="13" lengthAdjust="spacing" textLength="110" x="440" y="144.5669">onConsoleReady,</text><text fill="#000000" font-family="sans-serif" font-size="13" lengthAdjust="spacing" textLength="138" x="426" y="159.6997">onConsoleCommand,</text><text fill="#000000" font-family="sans-serif" font-size="13" lengthAdjust="spacing" textLength="12" x="489" y="174.8325">...</text><!--MD5=[f2b4cb01752d81d9302166b0d14af00a]
link webConsole to consoleChannel--><path codeLine="23" d="M562.55,92.17 C570.42,119.18 586.95,171.89 600,186 C612.15,199.14 628.83,208.89 644.93,215.95 " fill="none" id="webConsole-consoleChannel" style="stroke:#A80036;stroke-width:1.0;"/><text fill="#000000" font-family="sans-serif" font-size="13" lengthAdjust="spacing" textLength="83" x="601" y="159.5669">(all handlers)</text><!--MD5=[35189976455060016fd633e951a06364]
link conletA to consoleChannel--><path codeLine="26" d="M678.71,92.14 C684.06,101.12 690.02,112.74 693,124 C701.4,155.74 700.18,194.56 698.57,215.94 " fill="none" id="conletA-consoleChannel" style="stroke:#A80036;stroke-width:1.0;"/><!--MD5=[486503d52be297b5a82f57e92683bfea]
link conletB to consoleChannel--><path codeLine="29" d="M758.54,92.31 C751.09,114.03 736.95,153.5 722,186 C717.36,196.07 711.47,206.99 706.57,215.66 " fill="none" id="conletB-consoleChannel" style="stroke:#A80036;stroke-width:1.0;"/><!--MD5=[b8907ca54ac0cc790995835d3a39fdab]
link consoleConnection to consoleChannel--><path codeLine="32" d="M517.89,233 C558.28,233 600.84,233 634.34,233 " fill="none" id="consoleConnection-to-consoleChannel" style="stroke:#A80036;stroke-width:1.0;"/><polygon fill="#A80036" points="639.63,233,630.63,229,634.63,233,630.63,237,639.63,233" style="stroke:#A80036;stroke-width:1.0;"/><text fill="#000000" font-family="sans-serif" font-size="13" lengthAdjust="spacing" textLength="86" x="535.75" y="226.0669">main channel</text><!--MD5=[97298b3d22267a5aadbb917dc9acea11]
reverse link consoleWeblet to consoleConnection--><path codeLine="33" d="M402,102.87 C397.57,109.4 393.53,116.64 391,124 C380.32,155.06 381.9,194.12 383.98,215.73 " fill="none" id="consoleWeblet-backto-consoleConnection" style="stroke:#A80036;stroke-width:1.0;"/><polygon fill="#A80036" points="410.14,92,403.3416,94.4045,402.9463,101.6047,409.7447,99.2003,410.14,92" style="stroke:#A80036;stroke-width:1.0;"/><!--MD5=[7b8f2aadbd4b5d39e0bde8e079baa9cf]
link webConsole to conletA--><!--MD5=[2f197bda0e701ce3e16c0518cc56b580]
link conletA to conletB--><!--MD5=[dabb2a5d16ca8753885d19d1c67b2f06]
link webletChannel to consoleConnection--><!--MD5=[1c6a2962b0dc2c950babc23d84389292]
@startuml
skinparam packageStyle rectangle
 allow_mixing
 
 object webletChannel
 object consoleChannel
 
 object httpServer
 httpServer - - webletChannel
 
 object sessionManager
 sessionManager - - webletChannel
 
 package "Conceptual WebConsole\n(WebConsole Gateway)" {
    object webConsole
    object consoleWeblet
 
    webConsole "1" -left-* "1" consoleWeblet
 }
  
 consoleWeblet - - webletChannel : "onGet,\nonInput,\nonClosed,\n..."
 consoleWeblet - - consoleChannel : "onConsoleReady,\nonConsoleCommand,\n..."
 
 webConsole - - consoleChannel : "(all handlers)"
 
 object conletA
 conletA - - consoleChannel
 
 object conletB
 conletB - - consoleChannel
 
 object "consoleConnection: ConsoleConnection" as consoleConnection
 consoleChannel <-left- consoleConnection : "main channel"
 consoleWeblet *- - consoleConnection 
 
 webConsole -right[hidden]- conletA
 conletA -right[hidden]- conletB
 webletChannel -right[hidden]- consoleConnection
@enduml

PlantUML version 1.2022.1(Tue Feb 01 19:19:58 CET 2022)
(GPL source distribution)
Java Runtime: OpenJDK Runtime Environment
JVM: OpenJDK 64-Bit Server VM
Default Encoding: UTF-8
Language: de
Country: DE
--></g></svg>