<?xml version="1.0" encoding="us-ascii" standalone="no"?><svg xmlns="http://www.w3.org/2000/svg" xmlns:xlink="http://www.w3.org/1999/xlink" contentStyleType="text/css" height="669px" preserveAspectRatio="none" style="width:807px;height:669px;background:#FFFFFF;" version="1.1" viewBox="0 0 807 669" width="807px" zoomAndPan="magnify"><defs/><g><rect fill="#FFFFFF" height="297.3281" style="stroke:#181818;stroke-width:1.0;" width="10" x="221.5" y="112.4297"/><rect fill="#FFFFFF" height="29.1328" style="stroke:#181818;stroke-width:1.0;" width="10" x="226.5" y="218.9609"/><rect fill="#FFFFFF" height="29.1328" style="stroke:#181818;stroke-width:1.0;" width="10" x="226.5" y="337.4922"/><rect fill="#FFFFFF" height="29.1328" style="stroke:#181818;stroke-width:1.0;" width="10" x="221.5" y="550.4219"/><rect fill="#FFFFFF" height="29.1328" style="stroke:#181818;stroke-width:1.0;" width="10" x="221.5" y="615.6875"/><rect fill="#FFFFFF" height="29.1328" style="stroke:#181818;stroke-width:1.0;" width="10" x="378.5" y="189.8281"/><rect fill="#FFFFFF" height="29.1328" style="stroke:#181818;stroke-width:1.0;" width="10" x="513" y="308.3594"/><rect fill="#FFFFFF" height="29.1328" style="stroke:#181818;stroke-width:1.0;" width="10" x="513" y="521.2891"/><rect fill="#FFFFFF" height="184.7969" style="stroke:#181818;stroke-width:1.0;" width="10" x="731" y="409.7578"/><rect fill="none" height="254.1953" style="stroke:#000000;stroke-width:1.5;" width="562" x="10" y="127.4297"/><rect fill="none" height="104.5313" style="stroke:#000000;stroke-width:1.5;" width="464" x="20" y="151.5625"/><rect fill="none" height="104.5313" style="stroke:#000000;stroke-width:1.5;" width="542" x="20" y="270.0938"/><rect fill="none" height="104.5313" style="stroke:#000000;stroke-width:1.5;" width="781" x="20" y="483.0234"/><line style="stroke:#181818;stroke-width:0.5;stroke-dasharray:5.0,5.0;" x1="65" x2="65" y1="81.2969" y2="662.8203"/><line style="stroke:#181818;stroke-width:0.5;stroke-dasharray:5.0,5.0;" x1="226.5" x2="226.5" y1="81.2969" y2="662.8203"/><line style="stroke:#181818;stroke-width:0.5;stroke-dasharray:5.0,5.0;" x1="383" x2="383" y1="81.2969" y2="662.8203"/><line style="stroke:#181818;stroke-width:0.5;stroke-dasharray:5.0,5.0;" x1="518" x2="518" y1="81.2969" y2="662.8203"/><line style="stroke:#181818;stroke-width:0.5;stroke-dasharray:5.0,5.0;" x1="603" x2="603" y1="81.2969" y2="662.8203"/><line style="stroke:#181818;stroke-width:0.5;stroke-dasharray:5.0,5.0;" x1="736" x2="736" y1="81.2969" y2="662.8203"/><rect fill="#E2E2F0" height="30.2969" rx="2.5" ry="2.5" style="stroke:#181818;stroke-width:0.5;" width="71" x="30" y="50"/><text fill="#000000" font-family="sans-serif" font-size="14" lengthAdjust="spacing" textLength="57" x="37" y="69.9951">Browser</text><rect fill="#E2E2F0" height="30.2969" rx="2.5" ry="2.5" style="stroke:#181818;stroke-width:0.5;" width="102" x="175.5" y="50"/><text fill="#000000" font-family="sans-serif" font-size="14" lengthAdjust="spacing" textLength="88" x="182.5" y="69.9951">WebConsole</text><rect fill="#E2E2F0" height="30.2969" rx="2.5" ry="2.5" style="stroke:#181818;stroke-width:0.5;" width="181" x="293" y="50"/><text fill="#000000" font-family="sans-serif" font-size="14" lengthAdjust="spacing" textLength="167" x="300" y="69.9951">PageResourceProviderX</text><rect fill="#E2E2F0" height="30.2969" rx="2.5" ry="2.5" style="stroke:#181818;stroke-width:0.5;" width="68" x="484" y="50"/><text fill="#000000" font-family="sans-serif" font-size="14" lengthAdjust="spacing" textLength="54" x="491" y="69.9951">ConletX</text><text fill="#000000" font-family="sans-serif" font-size="14" lengthAdjust="spacing" textLength="76" x="562" y="77.9951">Framework</text><ellipse cx="603" cy="13.5" fill="#E2E2F0" rx="8" ry="8" style="stroke:#181818;stroke-width:0.5;"/><path d="M603,21.5 L603,48.5 M590,29.5 L616,29.5 M603,48.5 L590,63.5 M603,48.5 L616,63.5 " fill="none" style="stroke:#181818;stroke-width:0.5;"/><rect fill="#E2E2F0" height="30.2969" rx="2.5" ry="2.5" style="stroke:#181818;stroke-width:0.5;" width="110" x="681" y="50"/><text fill="#000000" font-family="sans-serif" font-size="14" lengthAdjust="spacing" textLength="96" x="688" y="69.9951">ConsolePolicy</text><rect fill="#FFFFFF" height="297.3281" style="stroke:#181818;stroke-width:1.0;" width="10" x="221.5" y="112.4297"/><rect fill="#FFFFFF" height="29.1328" style="stroke:#181818;stroke-width:1.0;" width="10" x="226.5" y="218.9609"/><rect fill="#FFFFFF" height="29.1328" style="stroke:#181818;stroke-width:1.0;" width="10" x="226.5" y="337.4922"/><rect fill="#FFFFFF" height="29.1328" style="stroke:#181818;stroke-width:1.0;" width="10" x="221.5" y="550.4219"/><rect fill="#FFFFFF" height="29.1328" style="stroke:#181818;stroke-width:1.0;" width="10" x="221.5" y="615.6875"/><rect fill="#FFFFFF" height="29.1328" style="stroke:#181818;stroke-width:1.0;" width="10" x="378.5" y="189.8281"/><rect fill="#FFFFFF" height="29.1328" style="stroke:#181818;stroke-width:1.0;" width="10" x="513" y="308.3594"/><rect fill="#FFFFFF" height="29.1328" style="stroke:#181818;stroke-width:1.0;" width="10" x="513" y="521.2891"/><rect fill="#FFFFFF" height="184.7969" style="stroke:#181818;stroke-width:1.0;" width="10" x="731" y="409.7578"/><polygon fill="#181818" points="209.5,108.4297,219.5,112.4297,209.5,116.4297,213.5,112.4297" style="stroke:#181818;stroke-width:1.0;"/><line style="stroke:#181818;stroke-width:1.0;" x1="65.5" x2="215.5" y1="112.4297" y2="112.4297"/><text fill="#000000" font-family="sans-serif" font-size="13" lengthAdjust="spacing" textLength="98" x="72.5" y="107.3638">"consoleReady"</text><path d="M10,127.4297 L80,127.4297 L80,134.5625 L70,144.5625 L10,144.5625 L10,127.4297 " fill="#EEEEEE" style="stroke:#000000;stroke-width:1.5;"/><rect fill="none" height="254.1953" style="stroke:#000000;stroke-width:1.5;" width="562" x="10" y="127.4297"/><text fill="#000000" font-family="sans-serif" font-size="13" font-weight="bold" lengthAdjust="spacing" textLength="25" x="25" y="140.4966">par</text><path d="M20,151.5625 L97,151.5625 L97,158.6953 L87,168.6953 L20,168.6953 L20,151.5625 " fill="#EEEEEE" style="stroke:#000000;stroke-width:1.5;"/><rect fill="none" height="104.5313" style="stroke:#000000;stroke-width:1.5;" width="464" x="20" y="151.5625"/><text fill="#000000" font-family="sans-serif" font-size="13" font-weight="bold" lengthAdjust="spacing" textLength="32" x="35" y="164.6294">loop</text><text fill="#000000" font-family="sans-serif" font-size="11" font-weight="bold" lengthAdjust="spacing" textLength="208" x="112" y="163.7729">[for all page resource providers]</text><polygon fill="#181818" points="366.5,185.8281,376.5,189.8281,366.5,193.8281,370.5,189.8281" style="stroke:#181818;stroke-width:1.0;"/><line style="stroke:#181818;stroke-width:1.0;" x1="231.5" x2="372.5" y1="189.8281" y2="189.8281"/><text fill="#000000" font-family="sans-serif" font-size="13" lengthAdjust="spacing" textLength="90" x="238.5" y="184.7622">ConsoleReady</text><polygon fill="#181818" points="247.5,214.9609,237.5,218.9609,247.5,222.9609,243.5,218.9609" style="stroke:#181818;stroke-width:1.0;"/><line style="stroke:#181818;stroke-width:1.0;" x1="241.5" x2="382.5" y1="218.9609" y2="218.9609"/><text fill="#000000" font-family="sans-serif" font-size="13" lengthAdjust="spacing" textLength="123" x="253.5" y="213.895">AddPageResources</text><polygon fill="#181818" points="76.5,244.0938,66.5,248.0938,76.5,252.0938,72.5,248.0938" style="stroke:#181818;stroke-width:1.0;"/><line style="stroke:#181818;stroke-width:1.0;" x1="70.5" x2="220.5" y1="248.0938" y2="248.0938"/><text fill="#000000" font-family="sans-serif" font-size="13" lengthAdjust="spacing" textLength="132" x="82.5" y="243.0278">"addPageResources"</text><path d="M20,270.0938 L97,270.0938 L97,277.2266 L87,287.2266 L20,287.2266 L20,270.0938 " fill="#EEEEEE" style="stroke:#000000;stroke-width:1.5;"/><rect fill="none" height="104.5313" style="stroke:#000000;stroke-width:1.5;" width="542" x="20" y="270.0938"/><text fill="#000000" font-family="sans-serif" font-size="13" font-weight="bold" lengthAdjust="spacing" textLength="32" x="35" y="283.1606">loop</text><text fill="#000000" font-family="sans-serif" font-size="11" font-weight="bold" lengthAdjust="spacing" textLength="99" x="112" y="282.3042">[for all conlets]</text><polygon fill="#181818" points="501,304.3594,511,308.3594,501,312.3594,505,308.3594" style="stroke:#181818;stroke-width:1.0;"/><line style="stroke:#181818;stroke-width:1.0;" x1="231.5" x2="507" y1="308.3594" y2="308.3594"/><text fill="#000000" font-family="sans-serif" font-size="13" lengthAdjust="spacing" textLength="90" x="238.5" y="303.2935">ConsoleReady</text><polygon fill="#181818" points="247.5,333.4922,237.5,337.4922,247.5,341.4922,243.5,337.4922" style="stroke:#181818;stroke-width:1.0;"/><line style="stroke:#181818;stroke-width:1.0;" x1="241.5" x2="517" y1="337.4922" y2="337.4922"/><text fill="#000000" font-family="sans-serif" font-size="13" lengthAdjust="spacing" textLength="96" x="253.5" y="332.4263">AddConletType</text><polygon fill="#181818" points="76.5,362.625,66.5,366.625,76.5,370.625,72.5,366.625" style="stroke:#181818;stroke-width:1.0;"/><line style="stroke:#181818;stroke-width:1.0;" x1="70.5" x2="220.5" y1="366.625" y2="366.625"/><text fill="#000000" font-family="sans-serif" font-size="13" lengthAdjust="spacing" textLength="105" x="82.5" y="361.5591">"addConletType"</text><polygon fill="#181818" points="719,405.7578,729,409.7578,719,413.7578,723,409.7578" style="stroke:#181818;stroke-width:1.0;"/><line style="stroke:#181818;stroke-width:1.0;" x1="603" x2="725" y1="409.7578" y2="409.7578"/><text fill="#000000" font-family="sans-serif" font-size="13" lengthAdjust="spacing" textLength="109" x="610" y="404.6919">ConsolePrepared</text><polygon fill="#181818" points="237.5,434.8906,227.5,438.8906,237.5,442.8906,233.5,438.8906" style="stroke:#181818;stroke-width:1.0;"/><line style="stroke:#181818;stroke-width:1.0;" x1="231.5" x2="730" y1="438.8906" y2="438.8906"/><text fill="#000000" font-family="sans-serif" font-size="13" lengthAdjust="spacing" textLength="121" x="243.5" y="433.8247">LastConsoleLayout</text><polygon fill="#181818" points="76.5,464.0234,66.5,468.0234,76.5,472.0234,72.5,468.0234" style="stroke:#181818;stroke-width:1.0;"/><line style="stroke:#181818;stroke-width:1.0;" x1="70.5" x2="225.5" y1="468.0234" y2="468.0234"/><text fill="#000000" font-family="sans-serif" font-size="13" lengthAdjust="spacing" textLength="127" x="82.5" y="462.9575">"lastConsoleLayout"</text><path d="M20,483.0234 L97,483.0234 L97,490.1563 L87,500.1563 L20,500.1563 L20,483.0234 " fill="#EEEEEE" style="stroke:#000000;stroke-width:1.5;"/><rect fill="none" height="104.5313" style="stroke:#000000;stroke-width:1.5;" width="781" x="20" y="483.0234"/><text fill="#000000" font-family="sans-serif" font-size="13" font-weight="bold" lengthAdjust="spacing" textLength="32" x="35" y="496.0903">loop</text><text fill="#000000" font-family="sans-serif" font-size="11" font-weight="bold" lengthAdjust="spacing" textLength="202" x="112" y="495.2339">[for all conlets to be displayed]</text><polygon fill="#181818" points="534,517.2891,524,521.2891,534,525.2891,530,521.2891" style="stroke:#181818;stroke-width:1.0;"/><line style="stroke:#181818;stroke-width:1.0;" x1="528" x2="730" y1="521.2891" y2="521.2891"/><text fill="#000000" font-family="sans-serif" font-size="13" lengthAdjust="spacing" textLength="138" x="540" y="516.2231">RenderConletRequest</text><polygon fill="#181818" points="242.5,546.4219,232.5,550.4219,242.5,554.4219,238.5,550.4219" style="stroke:#181818;stroke-width:1.0;"/><line style="stroke:#181818;stroke-width:1.0;" x1="236.5" x2="517" y1="550.4219" y2="550.4219"/><text fill="#000000" font-family="sans-serif" font-size="13" lengthAdjust="spacing" textLength="86" x="248.5" y="545.356">RenderConlet</text><polygon fill="#181818" points="76.5,575.5547,66.5,579.5547,76.5,583.5547,72.5,579.5547" style="stroke:#181818;stroke-width:1.0;"/><line style="stroke:#181818;stroke-width:1.0;" x1="70.5" x2="225.5" y1="579.5547" y2="579.5547"/><text fill="#000000" font-family="sans-serif" font-size="13" lengthAdjust="spacing" textLength="93" x="82.5" y="574.4888">"renderConlet"</text><polygon fill="#181818" points="242.5,611.6875,232.5,615.6875,242.5,619.6875,238.5,615.6875" style="stroke:#181818;stroke-width:1.0;"/><line style="stroke:#181818;stroke-width:1.0;" x1="236.5" x2="602" y1="615.6875" y2="615.6875"/><text fill="#000000" font-family="sans-serif" font-size="13" lengthAdjust="spacing" textLength="120" x="248.5" y="610.6216">ConsoleConfigured</text><polygon fill="#181818" points="76.5,640.8203,66.5,644.8203,76.5,648.8203,72.5,644.8203" style="stroke:#181818;stroke-width:1.0;"/><line style="stroke:#181818;stroke-width:1.0;" x1="70.5" x2="225.5" y1="644.8203" y2="644.8203"/><text fill="#000000" font-family="sans-serif" font-size="13" lengthAdjust="spacing" textLength="128" x="82.5" y="639.7544">"consoleConfigured"</text><!--SRC=[dLAxRiCm3Dpr5OJt_a260cs0JXaCeq2xAXQJ6bL3XvAJ-kyhnK8akrBwqA87ZppoJc-TGjWHsIrz2X3mo7Gso71t3o-uNTF1aCOLLErqQb2giH8WMzkTfCK4vBDxoNxpInFrhZ23rDgzxn4O3GtS8lHC9qVBPaBw5Sjuvjh1cu2k0_Xr1UkaXvXwRIMR5N7Py7BE1wLINDAXmjyIPRN93nhKTlhA1N6LPLvMn8FAwktSqcYB-guluPyL3RWO2GyPrQR8yzWZP3l_Lkg_AaMYFqaKDWTp4Zsn_C0pyRk8nw2BJwn9T-ruLQTcTFyQNNw19XqovelvTQdPHXeRBXivqc15SMgzXBh9StQ39TWYgCxqMew-uU3Pl8kh-uqJ1NcwDdWSq5XnumCKp4-hY9ks5pqg3Sv9wKhSSlfYxvmtTMBcSjfyEBXjr-s7YydP-gKEssL-LVWbNm00]--></g></svg>