<?xml version="1.0" encoding="UTF-8" standalone="no"?><svg xmlns="http://www.w3.org/2000/svg" xmlns:xlink="http://www.w3.org/1999/xlink" contentScriptType="application/ecmascript" contentStyleType="text/css" height="289px" preserveAspectRatio="none" style="width:790px;height:289px;background:#FFFFFF;" version="1.1" viewBox="0 0 790 289" width="790px" zoomAndPan="magnify"><defs><filter height="300%" id="f164eyr9vyvzhi" width="300%" x="-1" y="-1"><feGaussianBlur result="blurOut" stdDeviation="2.0"/><feColorMatrix in="blurOut" result="blurOut2" type="matrix" values="0 0 0 0 0 0 0 0 0 0 0 0 0 0 0 0 0 0 .4 0"/><feOffset dx="4.0" dy="4.0" in="blurOut2" result="blurOut3"/><feBlend in="SourceGraphic" in2="blurOut3" mode="normal"/></filter></defs><g><!--MD5=[5623905afaf9879e491d1bb4a5ab29df]
cluster Conceptual WebConsole\n(WebConsole Gateway)--><rect fill="#FFFFFF" filter="url(#f164eyr9vyvzhi)" height="115" style="stroke:#000000;stroke-width:1.5;" width="302" x="122.5" y="55.53"/><text fill="#000000" font-family="sans-serif" font-size="14" font-weight="bold" lengthAdjust="spacing" textLength="193" x="177" y="70.5251">Conceptual WebConsole</text><text fill="#000000" font-family="sans-serif" font-size="14" font-weight="bold" lengthAdjust="spacing" textLength="185" x="181" y="86.822">(WebConsole Gateway)</text><!--MD5=[c877ba7516e1a150220202e9dba02972]
class WebConsole--><rect codeLine="7" fill="#FEFECE" filter="url(#f164eyr9vyvzhi)" height="48" id="WebConsole" style="stroke:#A80036;stroke-width:1.5;" width="109" x="299" y="106.53"/><ellipse cx="314" cy="122.53" fill="#ADD1B2" rx="11" ry="11" style="stroke:#A80036;stroke-width:1.0;"/><path d="M316.9688,128.1706 Q316.3906,128.4675 315.75,128.6081 Q315.1094,128.7644 314.4063,128.7644 Q311.9063,128.7644 310.5781,127.1237 Q309.2656,125.4675 309.2656,122.3425 Q309.2656,119.2175 310.5781,117.5612 Q311.9063,115.905 314.4063,115.905 Q315.1094,115.905 315.75,116.0612 Q316.4063,116.2175 316.9688,116.5144 L316.9688,119.2331 Q316.3438,118.655 315.75,118.3894 Q315.1563,118.1081 314.5313,118.1081 Q313.1875,118.1081 312.5,119.1862 Q311.8125,120.2487 311.8125,122.3425 Q311.8125,124.4362 312.5,125.5144 Q313.1875,126.5769 314.5313,126.5769 Q315.1563,126.5769 315.75,126.3112 Q316.3438,126.03 316.9688,125.4519 L316.9688,128.1706 Z " fill="#000000"/><text fill="#000000" font-family="sans-serif" font-size="12" lengthAdjust="spacing" textLength="77" x="328" y="126.6843">WebConsole</text><line style="stroke:#A80036;stroke-width:1.5;" x1="300" x2="407" y1="138.53" y2="138.53"/><line style="stroke:#A80036;stroke-width:1.5;" x1="300" x2="407" y1="146.53" y2="146.53"/><!--MD5=[8e7c77bc81ed333c178340787b26335b]
class ConsoleWeblet--><rect codeLine="8" fill="#FEFECE" filter="url(#f164eyr9vyvzhi)" height="48" id="ConsoleWeblet" style="stroke:#A80036;stroke-width:1.5;" width="125" x="139" y="106.53"/><ellipse cx="154" cy="122.53" fill="#ADD1B2" rx="11" ry="11" style="stroke:#A80036;stroke-width:1.0;"/><path d="M156.9688,128.1706 Q156.3906,128.4675 155.75,128.6081 Q155.1094,128.7644 154.4063,128.7644 Q151.9063,128.7644 150.5781,127.1237 Q149.2656,125.4675 149.2656,122.3425 Q149.2656,119.2175 150.5781,117.5612 Q151.9063,115.905 154.4063,115.905 Q155.1094,115.905 155.75,116.0612 Q156.4063,116.2175 156.9688,116.5144 L156.9688,119.2331 Q156.3438,118.655 155.75,118.3894 Q155.1563,118.1081 154.5313,118.1081 Q153.1875,118.1081 152.5,119.1862 Q151.8125,120.2487 151.8125,122.3425 Q151.8125,124.4362 152.5,125.5144 Q153.1875,126.5769 154.5313,126.5769 Q155.1563,126.5769 155.75,126.3112 Q156.3438,126.03 156.9688,125.4519 L156.9688,128.1706 Z " fill="#000000"/><text fill="#000000" font-family="sans-serif" font-size="12" lengthAdjust="spacing" textLength="93" x="168" y="126.6843">ConsoleWeblet</text><line style="stroke:#A80036;stroke-width:1.5;" x1="140" x2="263" y1="138.53" y2="138.53"/><line style="stroke:#A80036;stroke-width:1.5;" x1="140" x2="263" y1="146.53" y2="146.53"/><!--MD5=[aa9d1c2c7d4df697f0b259fe3af16504]
class ConletB--><rect fill="#FEFECE" filter="url(#f164eyr9vyvzhi)" height="48" id="ConletB" style="stroke:#A80036;stroke-width:1.5;" width="80" x="696.5" y="106.53"/><ellipse cx="711.5" cy="122.53" fill="#ADD1B2" rx="11" ry="11" style="stroke:#A80036;stroke-width:1.0;"/><path d="M714.4688,128.1706 Q713.8906,128.4675 713.25,128.6081 Q712.6094,128.7644 711.9063,128.7644 Q709.4063,128.7644 708.0781,127.1237 Q706.7656,125.4675 706.7656,122.3425 Q706.7656,119.2175 708.0781,117.5612 Q709.4063,115.905 711.9063,115.905 Q712.6094,115.905 713.25,116.0612 Q713.9063,116.2175 714.4688,116.5144 L714.4688,119.2331 Q713.8438,118.655 713.25,118.3894 Q712.6563,118.1081 712.0313,118.1081 Q710.6875,118.1081 710,119.1862 Q709.3125,120.2487 709.3125,122.3425 Q709.3125,124.4362 710,125.5144 Q710.6875,126.5769 712.0313,126.5769 Q712.6563,126.5769 713.25,126.3112 Q713.8438,126.03 714.4688,125.4519 L714.4688,128.1706 Z " fill="#000000"/><text fill="#000000" font-family="sans-serif" font-size="12" lengthAdjust="spacing" textLength="48" x="725.5" y="126.6843">ConletB</text><line style="stroke:#A80036;stroke-width:1.5;" x1="697.5" x2="775.5" y1="138.53" y2="138.53"/><line style="stroke:#A80036;stroke-width:1.5;" x1="697.5" x2="775.5" y1="146.53" y2="146.53"/><!--MD5=[e732bb3697ad711f07ac1bed2e25b714]
class ConletA--><rect fill="#FEFECE" filter="url(#f164eyr9vyvzhi)" height="48" id="ConletA" style="stroke:#A80036;stroke-width:1.5;" width="80" x="464.5" y="106.53"/><ellipse cx="479.5" cy="122.53" fill="#ADD1B2" rx="11" ry="11" style="stroke:#A80036;stroke-width:1.0;"/><path d="M482.4688,128.1706 Q481.8906,128.4675 481.25,128.6081 Q480.6094,128.7644 479.9063,128.7644 Q477.4063,128.7644 476.0781,127.1237 Q474.7656,125.4675 474.7656,122.3425 Q474.7656,119.2175 476.0781,117.5612 Q477.4063,115.905 479.9063,115.905 Q480.6094,115.905 481.25,116.0612 Q481.9063,116.2175 482.4688,116.5144 L482.4688,119.2331 Q481.8438,118.655 481.25,118.3894 Q480.6563,118.1081 480.0313,118.1081 Q478.6875,118.1081 478,119.1862 Q477.3125,120.2487 477.3125,122.3425 Q477.3125,124.4362 478,125.5144 Q478.6875,126.5769 480.0313,126.5769 Q480.6563,126.5769 481.25,126.3112 Q481.8438,126.03 482.4688,125.4519 L482.4688,128.1706 Z " fill="#000000"/><text fill="#000000" font-family="sans-serif" font-size="12" lengthAdjust="spacing" textLength="48" x="493.5" y="126.6843">ConletA</text><line style="stroke:#A80036;stroke-width:1.5;" x1="465.5" x2="543.5" y1="138.53" y2="138.53"/><line style="stroke:#A80036;stroke-width:1.5;" x1="465.5" x2="543.5" y1="146.53" y2="146.53"/><!--MD5=[e5b39205870f42380c23f93d5c7a8727]
class ConletAData--><rect codeLine="20" fill="#FEFECE" filter="url(#f164eyr9vyvzhi)" height="60.8047" id="ConletAData" style="stroke:#A80036;stroke-width:1.5;" width="111" x="466" y="214.53"/><ellipse cx="481.45" cy="230.53" fill="#ADD1B2" rx="11" ry="11" style="stroke:#A80036;stroke-width:1.0;"/><path d="M484.4188,236.1706 Q483.8406,236.4675 483.2,236.6081 Q482.5594,236.7644 481.8563,236.7644 Q479.3563,236.7644 478.0281,235.1237 Q476.7156,233.4675 476.7156,230.3425 Q476.7156,227.2175 478.0281,225.5612 Q479.3563,223.905 481.8563,223.905 Q482.5594,223.905 483.2,224.0612 Q483.8563,224.2175 484.4188,224.5144 L484.4188,227.2331 Q483.7938,226.655 483.2,226.3894 Q482.6063,226.1081 481.9813,226.1081 Q480.6375,226.1081 479.95,227.1862 Q479.2625,228.2487 479.2625,230.3425 Q479.2625,232.4362 479.95,233.5144 Q480.6375,234.5769 481.9813,234.5769 Q482.6063,234.5769 483.2,234.3112 Q483.7938,234.03 484.4188,233.4519 L484.4188,236.1706 Z " fill="#000000"/><text fill="#000000" font-family="sans-serif" font-size="12" lengthAdjust="spacing" textLength="78" x="495.55" y="234.6843">ConletAData</text><line style="stroke:#A80036;stroke-width:1.5;" x1="467" x2="576" y1="246.53" y2="246.53"/><rect fill="none" height="6" style="stroke:#C82930;stroke-width:1.0;" width="6" x="474" y="254.53"/><text fill="#000000" font-family="sans-serif" font-size="11" lengthAdjust="spacing" textLength="85" x="486" y="260.7404">conletId: String</text><line style="stroke:#A80036;stroke-width:1.5;" x1="467" x2="576" y1="267.3347" y2="267.3347"/><!--MD5=[16cf558dde0fd917d89f29c0e421b448]
class ConletBData--><rect codeLine="26" fill="#FEFECE" filter="url(#f164eyr9vyvzhi)" height="60.8047" id="ConletBData" style="stroke:#A80036;stroke-width:1.5;" width="111" x="638" y="214.53"/><ellipse cx="653.45" cy="230.53" fill="#ADD1B2" rx="11" ry="11" style="stroke:#A80036;stroke-width:1.0;"/><path d="M656.4188,236.1706 Q655.8406,236.4675 655.2,236.6081 Q654.5594,236.7644 653.8563,236.7644 Q651.3563,236.7644 650.0281,235.1237 Q648.7156,233.4675 648.7156,230.3425 Q648.7156,227.2175 650.0281,225.5612 Q651.3563,223.905 653.8563,223.905 Q654.5594,223.905 655.2,224.0612 Q655.8563,224.2175 656.4188,224.5144 L656.4188,227.2331 Q655.7938,226.655 655.2,226.3894 Q654.6063,226.1081 653.9813,226.1081 Q652.6375,226.1081 651.95,227.1862 Q651.2625,228.2487 651.2625,230.3425 Q651.2625,232.4362 651.95,233.5144 Q652.6375,234.5769 653.9813,234.5769 Q654.6063,234.5769 655.2,234.3112 Q655.7938,234.03 656.4188,233.4519 L656.4188,236.1706 Z " fill="#000000"/><text fill="#000000" font-family="sans-serif" font-size="12" lengthAdjust="spacing" textLength="78" x="667.55" y="234.6843">ConletBData</text><line style="stroke:#A80036;stroke-width:1.5;" x1="639" x2="748" y1="246.53" y2="246.53"/><rect fill="none" height="6" style="stroke:#C82930;stroke-width:1.0;" width="6" x="646" y="254.53"/><text fill="#000000" font-family="sans-serif" font-size="11" lengthAdjust="spacing" textLength="85" x="658" y="260.7404">conletId: String</text><line style="stroke:#A80036;stroke-width:1.5;" x1="639" x2="748" y1="267.3347" y2="267.3347"/><!--MD5=[2ca1536628238a7dc78c5d90808014f9]
class Session--><rect fill="#FEFECE" filter="url(#f164eyr9vyvzhi)" height="48" id="Session" style="stroke:#A80036;stroke-width:1.5;" width="81" x="580" y="106.53"/><ellipse cx="595" cy="122.53" fill="#ADD1B2" rx="11" ry="11" style="stroke:#A80036;stroke-width:1.0;"/><path d="M597.9688,128.1706 Q597.3906,128.4675 596.75,128.6081 Q596.1094,128.7644 595.4063,128.7644 Q592.9063,128.7644 591.5781,127.1237 Q590.2656,125.4675 590.2656,122.3425 Q590.2656,119.2175 591.5781,117.5612 Q592.9063,115.905 595.4063,115.905 Q596.1094,115.905 596.75,116.0612 Q597.4063,116.2175 597.9688,116.5144 L597.9688,119.2331 Q597.3438,118.655 596.75,118.3894 Q596.1563,118.1081 595.5313,118.1081 Q594.1875,118.1081 593.5,119.1862 Q592.8125,120.2487 592.8125,122.3425 Q592.8125,124.4362 593.5,125.5144 Q594.1875,126.5769 595.5313,126.5769 Q596.1563,126.5769 596.75,126.3112 Q597.3438,126.03 597.9688,125.4519 L597.9688,128.1706 Z " fill="#000000"/><text fill="#000000" font-family="sans-serif" font-size="12" lengthAdjust="spacing" textLength="49" x="609" y="126.6843">Session</text><line style="stroke:#A80036;stroke-width:1.5;" x1="581" x2="660" y1="138.53" y2="138.53"/><line style="stroke:#A80036;stroke-width:1.5;" x1="581" x2="660" y1="146.53" y2="146.53"/><!--MD5=[e9dede37b31fdda9664526f66258b036]
entity Browser--><rect fill="#FEFECE" filter="url(#f164eyr9vyvzhi)" height="46.2969" style="stroke:#A80036;stroke-width:1.5;" width="97" x="7" y="107.53"/><rect fill="#FEFECE" height="10" style="stroke:#A80036;stroke-width:1.5;" width="15" x="84" y="112.53"/><rect fill="#FEFECE" height="2" style="stroke:#A80036;stroke-width:1.5;" width="4" x="82" y="114.53"/><rect fill="#FEFECE" height="2" style="stroke:#A80036;stroke-width:1.5;" width="4" x="82" y="118.53"/><text fill="#000000" font-family="sans-serif" font-size="14" lengthAdjust="spacing" textLength="57" x="22" y="140.5251">Browser</text><!--MD5=[2e0cc40ed8ce48164a4caa0820c06361]
class PageResourceProvider--><rect fill="#FEFECE" filter="url(#f164eyr9vyvzhi)" height="48" id="PageResourceProvider" style="stroke:#A80036;stroke-width:1.5;" width="174" x="95.5" y="221.03"/><ellipse cx="110.5" cy="237.03" fill="#ADD1B2" rx="11" ry="11" style="stroke:#A80036;stroke-width:1.0;"/><path d="M113.4688,242.6706 Q112.8906,242.9675 112.25,243.1081 Q111.6094,243.2644 110.9063,243.2644 Q108.4063,243.2644 107.0781,241.6237 Q105.7656,239.9675 105.7656,236.8425 Q105.7656,233.7175 107.0781,232.0612 Q108.4063,230.405 110.9063,230.405 Q111.6094,230.405 112.25,230.5612 Q112.9063,230.7175 113.4688,231.0144 L113.4688,233.7331 Q112.8438,233.155 112.25,232.8894 Q111.6563,232.6081 111.0313,232.6081 Q109.6875,232.6081 109,233.6862 Q108.3125,234.7487 108.3125,236.8425 Q108.3125,238.9362 109,240.0144 Q109.6875,241.0769 111.0313,241.0769 Q111.6563,241.0769 112.25,240.8112 Q112.8438,240.53 113.4688,239.9519 L113.4688,242.6706 Z " fill="#000000"/><text fill="#000000" font-family="sans-serif" font-size="12" lengthAdjust="spacing" textLength="142" x="124.5" y="241.1843">PageResourceProvider</text><line style="stroke:#A80036;stroke-width:1.5;" x1="96.5" x2="268.5" y1="253.03" y2="253.03"/><line style="stroke:#A80036;stroke-width:1.5;" x1="96.5" x2="268.5" y1="261.03" y2="261.03"/><!--MD5=[1d5f5f01f83cadb9a721e12e840ac6fa]
class ConsolePolicy--><rect fill="#FEFECE" filter="url(#f164eyr9vyvzhi)" height="48" id="ConsolePolicy" style="stroke:#A80036;stroke-width:1.5;" width="117" x="305" y="221.03"/><ellipse cx="320" cy="237.03" fill="#ADD1B2" rx="11" ry="11" style="stroke:#A80036;stroke-width:1.0;"/><path d="M322.9688,242.6706 Q322.3906,242.9675 321.75,243.1081 Q321.1094,243.2644 320.4063,243.2644 Q317.9063,243.2644 316.5781,241.6237 Q315.2656,239.9675 315.2656,236.8425 Q315.2656,233.7175 316.5781,232.0612 Q317.9063,230.405 320.4063,230.405 Q321.1094,230.405 321.75,230.5612 Q322.4063,230.7175 322.9688,231.0144 L322.9688,233.7331 Q322.3438,233.155 321.75,232.8894 Q321.1563,232.6081 320.5313,232.6081 Q319.1875,232.6081 318.5,233.6862 Q317.8125,234.7487 317.8125,236.8425 Q317.8125,238.9362 318.5,240.0144 Q319.1875,241.0769 320.5313,241.0769 Q321.1563,241.0769 321.75,240.8112 Q322.3438,240.53 322.9688,239.9519 L322.9688,242.6706 Z " fill="#000000"/><text fill="#000000" font-family="sans-serif" font-size="12" lengthAdjust="spacing" textLength="85" x="334" y="241.1843">ConsolePolicy</text><line style="stroke:#A80036;stroke-width:1.5;" x1="306" x2="421" y1="253.03" y2="253.03"/><line style="stroke:#A80036;stroke-width:1.5;" x1="306" x2="421" y1="261.03" y2="261.03"/><!--MD5=[f9135f14f50401df77a66d45011c9203]
reverse link ConsoleWeblet to WebConsole--><path codeLine="10" d="M277.37,130.53 C284.48,130.53 291.59,130.53 298.7,130.53 " fill="none" id="ConsoleWeblet-backto-WebConsole" style="stroke:#A80036;stroke-width:1.0;"/><polygon fill="#A80036" points="264.14,130.53,270.14,134.53,276.14,130.53,270.14,126.53,264.14,130.53" style="stroke:#A80036;stroke-width:1.0;"/><text fill="#000000" font-family="sans-serif" font-size="13" lengthAdjust="spacing" textLength="8" x="271.8452" y="126.7374">1</text><text fill="#000000" font-family="sans-serif" font-size="13" lengthAdjust="spacing" textLength="8" x="283.1663" y="126.6445">1</text><!--MD5=[8f1ee31a650df62c960c9f767f1bbcdb]
link Browser to ConsoleWeblet--><path codeLine="13" d="M104.26,130.53 C115.78,130.53 127.31,130.53 138.83,130.53 " fill="none" id="Browser-ConsoleWeblet" style="stroke:#A80036;stroke-width:1.0;"/><text fill="#000000" font-family="sans-serif" font-size="13" lengthAdjust="spacing" textLength="7" x="111.9357" y="126.4833">*</text><text fill="#000000" font-family="sans-serif" font-size="13" lengthAdjust="spacing" textLength="7" x="124.1791" y="126.7374">*</text><!--MD5=[5169f33cc286eeb9efe90f026344df64]
link WebConsole to ConletB--><path codeLine="17" d="M369.76,106.31 C388.26,81.17 421.02,43.34 460.17,27.53 C502.75,10.33 626.27,6 666.83,27.53 C697.91,44.03 717.66,81.28 727.9,106.16 " fill="none" id="WebConsole-ConletB" style="stroke:#A80036;stroke-width:1.0;"/><text fill="#000000" font-family="sans-serif" font-size="13" lengthAdjust="spacing" textLength="8" x="364.7484" y="95.6613">1</text><text fill="#000000" font-family="sans-serif" font-size="13" lengthAdjust="spacing" textLength="8" x="717.5506" y="95.4792">1</text><!--MD5=[38083b06062ae99f74893c6aa1adc2bb]
link WebConsole to ConletA--><path codeLine="18" d="M408.06,147.15 C426.77,149.62 445.48,148.78 464.19,144.62 " fill="none" id="WebConsole-ConletA" style="stroke:#A80036;stroke-width:1.0;"/><text fill="#000000" font-family="sans-serif" font-size="13" lengthAdjust="spacing" textLength="8" x="415.929" y="145.4513">1</text><text fill="#000000" font-family="sans-serif" font-size="13" lengthAdjust="spacing" textLength="8" x="448.5742" y="109.8075">1</text><!--MD5=[da53ba1ddac4aa1999f9e0e4cbbb210a]
link ConletA to ConletAData--><path codeLine="24" d="M507.98,154.57 C510.58,171.8 514.17,195.5 516.99,214.18 " fill="none" id="ConletA-ConletAData" style="stroke:#A80036;stroke-width:1.0;"/><text fill="#000000" font-family="sans-serif" font-size="13" lengthAdjust="spacing" textLength="8" x="499.8468" y="174.736">1</text><text fill="#000000" font-family="sans-serif" font-size="13" lengthAdjust="spacing" textLength="7" x="508.3379" y="203.371">*</text><!--MD5=[55b38def413c543d3a9a3daad6dfb55e]
link ConletB to ConletBData--><path codeLine="30" d="M727.69,154.57 C721.11,171.8 712.05,195.5 704.91,214.18 " fill="none" id="ConletB-ConletBData" style="stroke:#A80036;stroke-width:1.0;"/><text fill="#000000" font-family="sans-serif" font-size="13" lengthAdjust="spacing" textLength="8" x="716.4074" y="174.736">1</text><text fill="#000000" font-family="sans-serif" font-size="13" lengthAdjust="spacing" textLength="7" x="699.5414" y="203.371">*</text><!--MD5=[3259560ff1140950e6e9f47e36f71eab]
reverse link Session to ConletAData--><path codeLine="32" d="M591.56,164.42 C577.71,180.15 561.25,198.86 547.77,214.18 " fill="none" id="Session-backto-ConletAData" style="stroke:#A80036;stroke-width:1.0;"/><polygon fill="#A80036" points="600.23,154.57,593.2634,156.432,592.3028,163.5788,599.2693,161.7168,600.23,154.57" style="stroke:#A80036;stroke-width:1.0;"/><text fill="#000000" font-family="sans-serif" font-size="13" lengthAdjust="spacing" textLength="8" x="586.0108" y="174.736">1</text><text fill="#000000" font-family="sans-serif" font-size="13" lengthAdjust="spacing" textLength="7" x="545.4663" y="203.371">*</text><!--MD5=[ba3a17c2b5d0fece48f8a3e1fd8b9b8e]
reverse link Session to ConletBData--><path codeLine="33" d="M642.72,165.77 C652.74,181.22 664.47,199.29 674.13,214.18 " fill="none" id="Session-backto-ConletBData" style="stroke:#A80036;stroke-width:1.0;"/><polygon fill="#A80036" points="635.45,154.57,635.3598,161.7805,641.981,164.637,642.0712,157.4265,635.45,154.57" style="stroke:#A80036;stroke-width:1.0;"/><text fill="#000000" font-family="sans-serif" font-size="13" lengthAdjust="spacing" textLength="8" x="630.2559" y="174.736">1</text><text fill="#000000" font-family="sans-serif" font-size="13" lengthAdjust="spacing" textLength="7" x="662.4131" y="203.371">*</text><!--MD5=[27f38c8778cb4293695308152cb97585]
link WebConsole to PageResourceProvider--><path codeLine="36" d="M318.48,154.57 C288.97,173.98 246.97,201.62 217.47,221.02 " fill="none" id="WebConsole-PageResourceProvider" style="stroke:#A80036;stroke-width:1.0;"/><text fill="#000000" font-family="sans-serif" font-size="13" lengthAdjust="spacing" textLength="8" x="300.4811" y="174.736">1</text><text fill="#000000" font-family="sans-serif" font-size="13" lengthAdjust="spacing" textLength="7" x="218.5342" y="210.0295">*</text><!--MD5=[752abe56e9d5dc85a901c920a3c71332]
link WebConsole to ConsolePolicy--><path codeLine="37" d="M355.55,154.57 C357.27,173.98 359.73,201.62 361.45,221.02 " fill="none" id="WebConsole-ConsolePolicy" style="stroke:#A80036;stroke-width:1.0;"/><text fill="#000000" font-family="sans-serif" font-size="13" lengthAdjust="spacing" textLength="8" x="347.0503" y="174.736">1</text><text fill="#000000" font-family="sans-serif" font-size="13" lengthAdjust="spacing" textLength="7" x="353.0278" y="210.0295">*</text><!--MD5=[45d5d485bea32b6f0d504516767bb24a]
@startuml
skinparam packageStyle rectangle
 allow_mixing
 
 component Browser
 
 package "Conceptual WebConsole\n(WebConsole Gateway)" {
    class WebConsole
 	  class ConsoleWeblet
 
    WebConsole "1" -left-* "1" ConsoleWeblet
 }
 
 ConsoleWeblet "*" -left- "*" Browser
 
 together {
 
   WebConsole "1" -right- "1" ConletB
   WebConsole "1" -right- "1" ConletA
 
   class ConletAData {
     -conletId: String
   }
 
   ConletAData "*" -up- "1" ConletA
 
   class ConletBData {
     -conletId: String
   }
 
   ConletBData "*" -up- "1" ConletB
   
   ConletAData "*" -up-* "1" Session
   ConletBData "*" -up-* "1" Session
 }
 
 WebConsole "1" -down- "*" PageResourceProvider
 WebConsole "1" -down- "*" ConsolePolicy
@enduml

PlantUML version 1.2022.1(Tue Feb 01 19:19:58 CET 2022)
(GPL source distribution)
Java Runtime: OpenJDK Runtime Environment
JVM: OpenJDK 64-Bit Server VM
Default Encoding: UTF-8
Language: de
Country: DE
--></g></svg>