<?xml version="1.0" encoding="UTF-8" standalone="no"?><svg xmlns="http://www.w3.org/2000/svg" xmlns:xlink="http://www.w3.org/1999/xlink" contentScriptType="application/ecmascript" contentStyleType="text/css" height="370px" preserveAspectRatio="none" style="width:593px;height:370px;background:#FFFFFF;" version="1.1" viewBox="0 0 593 370" width="593px" zoomAndPan="magnify"><defs><filter height="300%" id="f19zlpt0vpqxiu" width="300%" x="-1" y="-1"><feGaussianBlur result="blurOut" stdDeviation="2.0"/><feColorMatrix in="blurOut" result="blurOut2" type="matrix" values="0 0 0 0 0 0 0 0 0 0 0 0 0 0 0 0 0 0 .4 0"/><feOffset dx="4.0" dy="4.0" in="blurOut2" result="blurOut3"/><feBlend in="SourceGraphic" in2="blurOut3" mode="normal"/></filter></defs><g><!--MD5=[09585d0490525c26364ccfbc1c8786e4]
cluster org.jgrapes.http--><polygon fill="#FFFFFF" filter="url(#f19zlpt0vpqxiu)" points="289.5,6,423.5,6,430.5,28.2969,433.5,28.2969,433.5,105,289.5,105,289.5,6" style="stroke:#000000;stroke-width:1.5;"/><line style="stroke:#000000;stroke-width:1.5;" x1="289.5" x2="430.5" y1="28.2969" y2="28.2969"/><text fill="#000000" font-family="sans-serif" font-size="14" font-weight="bold" lengthAdjust="spacing" textLength="128" x="293.5" y="20.9951">org.jgrapes.http</text><!--MD5=[2ca1536628238a7dc78c5d90808014f9]
class Session--><rect codeLine="21" fill="#FEFECE" filter="url(#f19zlpt0vpqxiu)" height="48" id="Session" style="stroke:#A80036;stroke-width:1.5;" width="81" x="307" y="41"/><ellipse cx="322" cy="57" fill="#ADD1B2" rx="11" ry="11" style="stroke:#A80036;stroke-width:1.0;"/><path d="M324.9688,62.6406 Q324.3906,62.9375 323.75,63.0781 Q323.1094,63.2344 322.4063,63.2344 Q319.9063,63.2344 318.5781,61.5938 Q317.2656,59.9375 317.2656,56.8125 Q317.2656,53.6875 318.5781,52.0313 Q319.9063,50.375 322.4063,50.375 Q323.1094,50.375 323.75,50.5313 Q324.4063,50.6875 324.9688,50.9844 L324.9688,53.7031 Q324.3438,53.125 323.75,52.8594 Q323.1563,52.5781 322.5313,52.5781 Q321.1875,52.5781 320.5,53.6563 Q319.8125,54.7188 319.8125,56.8125 Q319.8125,58.9063 320.5,59.9844 Q321.1875,61.0469 322.5313,61.0469 Q323.1563,61.0469 323.75,60.7813 Q324.3438,60.5 324.9688,59.9219 L324.9688,62.6406 Z " fill="#000000"/><text fill="#000000" font-family="sans-serif" font-size="12" lengthAdjust="spacing" textLength="49" x="336" y="61.1543">Session</text><line style="stroke:#A80036;stroke-width:1.5;" x1="308" x2="387" y1="73" y2="73"/><line style="stroke:#A80036;stroke-width:1.5;" x1="308" x2="387" y1="81" y2="81"/><!--MD5=[613fdc74d15d5c12510d87f2ee39360f]
class ConsoleSession--><rect codeLine="1" fill="#FEFECE" filter="url(#f19zlpt0vpqxiu)" height="188.8516" id="ConsoleSession" style="stroke:#A80036;stroke-width:1.5;" width="469" x="7" y="168"/><ellipse cx="187.75" cy="184" fill="#ADD1B2" rx="11" ry="11" style="stroke:#A80036;stroke-width:1.0;"/><path d="M190.7188,189.6406 Q190.1406,189.9375 189.5,190.0781 Q188.8594,190.2344 188.1563,190.2344 Q185.6563,190.2344 184.3281,188.5938 Q183.0156,186.9375 183.0156,183.8125 Q183.0156,180.6875 184.3281,179.0313 Q185.6563,177.375 188.1563,177.375 Q188.8594,177.375 189.5,177.5313 Q190.1563,177.6875 190.7188,177.9844 L190.7188,180.7031 Q190.0938,180.125 189.5,179.8594 Q188.9063,179.5781 188.2813,179.5781 Q186.9375,179.5781 186.25,180.6563 Q185.5625,181.7188 185.5625,183.8125 Q185.5625,185.9063 186.25,186.9844 Q186.9375,188.0469 188.2813,188.0469 Q188.9063,188.0469 189.5,187.7813 Q190.0938,187.5 190.7188,186.9219 L190.7188,189.6406 Z " fill="#000000"/><text fill="#000000" font-family="sans-serif" font-size="12" lengthAdjust="spacing" textLength="99" x="208.25" y="188.1543">ConsoleSession</text><line style="stroke:#A80036;stroke-width:1.5;" x1="8" x2="475" y1="200" y2="200"/><rect fill="none" height="6" style="stroke:#C82930;stroke-width:1.0;" width="6" x="15" y="208"/><text fill="#000000" font-family="sans-serif" font-size="11" lengthAdjust="spacing" text-decoration="underline" textLength="272" x="27" y="214.2104">Map&lt;String,ConsoleSession&gt; consoleSessions</text><line style="stroke:#A80036;stroke-width:1.5;" x1="8" x2="475" y1="220.8047" y2="220.8047"/><ellipse cx="18" cy="231.8047" fill="#84BE84" rx="3" ry="3" style="stroke:#038048;stroke-width:1.0;"/><text fill="#000000" font-family="sans-serif" font-size="11" lengthAdjust="spacing" text-decoration="underline" textLength="443" x="27" y="235.0151">findOrCreate(String consoleSessionId, Manager component): ConsoleSession</text><ellipse cx="18" cy="244.6094" fill="#84BE84" rx="3" ry="3" style="stroke:#038048;stroke-width:1.0;"/><text fill="#000000" font-family="sans-serif" font-size="11" lengthAdjust="spacing" textLength="247" x="27" y="247.8198">setTimeout(timeout: long): ConsoleSession</text><ellipse cx="18" cy="257.4141" fill="#84BE84" rx="3" ry="3" style="stroke:#038048;stroke-width:1.0;"/><text fill="#000000" font-family="sans-serif" font-size="11" lengthAdjust="spacing" textLength="81" x="27" y="260.6245">refresh(): void</text><ellipse cx="18" cy="270.2188" fill="#84BE84" rx="3" ry="3" style="stroke:#038048;stroke-width:1.0;"/><text fill="#000000" font-family="sans-serif" font-size="11" lengthAdjust="spacing" textLength="411" x="27" y="273.4292">setUpstreamChannel(IOSubchannel upstreamChannel): ConsoleSession</text><ellipse cx="18" cy="283.0234" fill="#84BE84" rx="3" ry="3" style="stroke:#038048;stroke-width:1.0;"/><text fill="#000000" font-family="sans-serif" font-size="11" lengthAdjust="spacing" textLength="409" x="27" y="286.2339">setSessionSupplier(Session browserSessionSupplier): ConsoleSession</text><ellipse cx="18" cy="295.8281" fill="#84BE84" rx="3" ry="3" style="stroke:#038048;stroke-width:1.0;"/><text fill="#000000" font-family="sans-serif" font-size="11" lengthAdjust="spacing" textLength="164" x="27" y="299.0386">upstreamChannel(): Optional</text><ellipse cx="18" cy="308.6328" fill="#84BE84" rx="3" ry="3" style="stroke:#038048;stroke-width:1.0;"/><text fill="#000000" font-family="sans-serif" font-size="11" lengthAdjust="spacing" textLength="150" x="27" y="311.8433">consoleSessionId(): String</text><ellipse cx="18" cy="321.4375" fill="#84BE84" rx="3" ry="3" style="stroke:#038048;stroke-width:1.0;"/><text fill="#000000" font-family="sans-serif" font-size="11" lengthAdjust="spacing" textLength="156" x="27" y="324.6479">browserSession(): Optional</text><ellipse cx="18" cy="334.2422" fill="#84BE84" rx="3" ry="3" style="stroke:#038048;stroke-width:1.0;"/><text fill="#000000" font-family="sans-serif" font-size="11" lengthAdjust="spacing" textLength="85" x="27" y="337.4526">locale(): Locale</text><ellipse cx="18" cy="347.0469" fill="#84BE84" rx="3" ry="3" style="stroke:#038048;stroke-width:1.0;"/><text fill="#000000" font-family="sans-serif" font-size="11" lengthAdjust="spacing" textLength="166" x="27" y="350.2573">setLocale(Locale locale): void</text><!--MD5=[9caeff6bec59bb4e25ab212aaff96b64]
class IOSubchannel--><rect codeLine="14" fill="#FEFECE" filter="url(#f19zlpt0vpqxiu)" height="48" id="IOSubchannel" style="stroke:#A80036;stroke-width:1.5;" width="118" x="153.5" y="41"/><ellipse cx="168.5" cy="57" fill="#B4A7E5" rx="11" ry="11" style="stroke:#A80036;stroke-width:1.0;"/><path d="M164.4219,52.7656 L164.4219,50.6094 L171.8125,50.6094 L171.8125,52.7656 L169.3438,52.7656 L169.3438,60.8438 L171.8125,60.8438 L171.8125,63 L164.4219,63 L164.4219,60.8438 L166.8906,60.8438 L166.8906,52.7656 L164.4219,52.7656 Z " fill="#000000"/><text fill="#000000" font-family="sans-serif" font-size="12" font-style="italic" lengthAdjust="spacing" textLength="86" x="182.5" y="61.1543">IOSubchannel</text><line style="stroke:#A80036;stroke-width:1.5;" x1="154.5" x2="270.5" y1="73" y2="73"/><line style="stroke:#A80036;stroke-width:1.5;" x1="154.5" x2="270.5" y1="81" y2="81"/><!--MD5=[6b440b227fe6dadc2751521f55b23a08]
reverse link IOSubchannel to ConsoleSession--><path codeLine="16" d="M218.9,109.12 C221.48,126.5 224.56,147.28 227.6,167.82 " fill="none" id="IOSubchannel-backto-ConsoleSession" style="stroke:#A80036;stroke-width:1.0;stroke-dasharray:7.0,7.0;"/><polygon fill="none" points="211.95,110,215.94,89.19,225.8,107.95,211.95,110" style="stroke:#A80036;stroke-width:1.0;"/><!--MD5=[5af3b385e207b716a093b6716aa1f2d4]
reverse link ConsoleSession to ConsoleSession--><path codeLine="18" d="M489.03,245.87 C502.8,249.91 511,255.45 511,262.5 C511,271.52 497.57,278.08 476.21,282.17 " fill="none" id="ConsoleSession-backto-ConsoleSession" style="stroke:#A80036;stroke-width:1.0;"/><polygon fill="#A80036" points="476.21,242.83,481.1257,248.1059,487.8865,245.5976,482.9708,240.3216,476.21,242.83" style="stroke:#A80036;stroke-width:1.0;"/><text fill="#000000" font-family="sans-serif" font-size="13" lengthAdjust="spacing" textLength="63" x="517" y="267.0669">maintains</text><text fill="#000000" font-family="sans-serif" font-size="13" lengthAdjust="spacing" textLength="8" x="484.0427" y="239.01">1</text><text fill="#000000" font-family="sans-serif" font-size="13" lengthAdjust="spacing" textLength="7" x="484.0263" y="279.6408">*</text><!--MD5=[a04c2b5a1722b2826aa8e2aea0db2def]
reverse link Session to ConsoleSession--><path codeLine="24" d="M332.32,93.99 C321.72,113.55 306.89,140.89 292.29,167.82 " fill="none" id="Session-backto-ConsoleSession" style="stroke:#A80036;stroke-width:1.0;"/><polygon fill="#A80036" points="334.92,89.19,327.1289,95.2148,332.5478,93.5914,334.1712,99.0104,334.92,89.19" style="stroke:#A80036;stroke-width:1.0;"/><text fill="#000000" font-family="sans-serif" font-size="13" lengthAdjust="spacing" textLength="102" x="316.5" y="134.0669">browser session</text><text fill="#000000" font-family="sans-serif" font-size="13" lengthAdjust="spacing" textLength="8" x="322.8786" y="108.9975">1</text><text fill="#000000" font-family="sans-serif" font-size="13" lengthAdjust="spacing" textLength="7" x="288.9106" y="157.0745">*</text><!--MD5=[894e50131f1c3382482838d177630ab3]
@startuml
class ConsoleSession {
  -{static}Map<String,ConsoleSession> consoleSessions
  +{static}findOrCreate(String consoleSessionId, Manager component): ConsoleSession
  +setTimeout(timeout: long): ConsoleSession
  +refresh(): void
  +setUpstreamChannel(IOSubchannel upstreamChannel): ConsoleSession
  +setSessionSupplier(Session browserSessionSupplier): ConsoleSession
  +upstreamChannel(): Optional
  +consoleSessionId(): String
  +browserSession(): Optional
  +locale(): Locale
  +setLocale(Locale locale): void
 }
 Interface IOSubchannel {
 }
 IOSubchannel <|.. ConsoleSession

 ConsoleSession "1" *- - "*" ConsoleSession : maintains
 
 package org.jgrapes.http {
     class Session
 }
 
 ConsoleSession "*" -up-> "1" Session: browser session
@enduml

PlantUML version 1.2022.1(Tue Feb 01 18:19:58 UTC 2022)
(GPL source distribution)
Java Runtime: OpenJDK Runtime Environment
JVM: OpenJDK 64-Bit Server VM
Default Encoding: UTF-8
Language: en
Country: 
--></g></svg>