<?xml version="1.0" encoding="UTF-8" standalone="no"?><svg xmlns="http://www.w3.org/2000/svg" xmlns:xlink="http://www.w3.org/1999/xlink" contentScriptType="application/ecmascript" contentStyleType="text/css" height="370px" preserveAspectRatio="none" style="width:627px;height:370px;background:#FFFFFF;" version="1.1" viewBox="0 0 627 370" width="627px" zoomAndPan="magnify"><defs><filter height="300%" id="f8mld8dawlcxy" width="300%" x="-1" y="-1"><feGaussianBlur result="blurOut" stdDeviation="2.0"/><feColorMatrix in="blurOut" result="blurOut2" type="matrix" values="0 0 0 0 0 0 0 0 0 0 0 0 0 0 0 0 0 0 .4 0"/><feOffset dx="4.0" dy="4.0" in="blurOut2" result="blurOut3"/><feBlend in="SourceGraphic" in2="blurOut3" mode="normal"/></filter></defs><g><!--MD5=[09585d0490525c26364ccfbc1c8786e4]
cluster org.jgrapes.http--><polygon fill="#FFFFFF" filter="url(#f8mld8dawlcxy)" points="306.5,6,440.5,6,447.5,28.2969,450.5,28.2969,450.5,105,306.5,105,306.5,6" style="stroke:#000000;stroke-width:1.5;"/><line style="stroke:#000000;stroke-width:1.5;" x1="306.5" x2="447.5" y1="28.2969" y2="28.2969"/><text fill="#000000" font-family="sans-serif" font-size="14" font-weight="bold" lengthAdjust="spacing" textLength="128" x="310.5" y="20.9951">org.jgrapes.http</text><!--MD5=[2ca1536628238a7dc78c5d90808014f9]
class Session--><rect codeLine="23" fill="#FEFECE" filter="url(#f8mld8dawlcxy)" height="48" id="Session" style="stroke:#A80036;stroke-width:1.5;" width="81" x="324" y="41"/><ellipse cx="339" cy="57" fill="#ADD1B2" rx="11" ry="11" style="stroke:#A80036;stroke-width:1.0;"/><path d="M341.9688,62.6406 Q341.3906,62.9375 340.75,63.0781 Q340.1094,63.2344 339.4063,63.2344 Q336.9063,63.2344 335.5781,61.5938 Q334.2656,59.9375 334.2656,56.8125 Q334.2656,53.6875 335.5781,52.0313 Q336.9063,50.375 339.4063,50.375 Q340.1094,50.375 340.75,50.5313 Q341.4063,50.6875 341.9688,50.9844 L341.9688,53.7031 Q341.3438,53.125 340.75,52.8594 Q340.1563,52.5781 339.5313,52.5781 Q338.1875,52.5781 337.5,53.6563 Q336.8125,54.7188 336.8125,56.8125 Q336.8125,58.9063 337.5,59.9844 Q338.1875,61.0469 339.5313,61.0469 Q340.1563,61.0469 340.75,60.7813 Q341.3438,60.5 341.9688,59.9219 L341.9688,62.6406 Z " fill="#000000"/><text fill="#000000" font-family="sans-serif" font-size="12" lengthAdjust="spacing" textLength="49" x="353" y="61.1543">Session</text><line style="stroke:#A80036;stroke-width:1.5;" x1="325" x2="404" y1="73" y2="73"/><line style="stroke:#A80036;stroke-width:1.5;" x1="325" x2="404" y1="81" y2="81"/><!--MD5=[76582a984326da94844ffa89e116bd6b]
class ConsoleConnection--><rect codeLine="1" fill="#FEFECE" filter="url(#f8mld8dawlcxy)" height="188.8516" id="ConsoleConnection" style="stroke:#A80036;stroke-width:1.5;" width="503" x="7" y="168"/><ellipse cx="193.75" cy="184" fill="#ADD1B2" rx="11" ry="11" style="stroke:#A80036;stroke-width:1.0;"/><path d="M196.7188,189.6406 Q196.1406,189.9375 195.5,190.0781 Q194.8594,190.2344 194.1563,190.2344 Q191.6563,190.2344 190.3281,188.5938 Q189.0156,186.9375 189.0156,183.8125 Q189.0156,180.6875 190.3281,179.0313 Q191.6563,177.375 194.1563,177.375 Q194.8594,177.375 195.5,177.5313 Q196.1563,177.6875 196.7188,177.9844 L196.7188,180.7031 Q196.0938,180.125 195.5,179.8594 Q194.9063,179.5781 194.2813,179.5781 Q192.9375,179.5781 192.25,180.6563 Q191.5625,181.7188 191.5625,183.8125 Q191.5625,185.9063 192.25,186.9844 Q192.9375,188.0469 194.2813,188.0469 Q194.9063,188.0469 195.5,187.7813 Q196.0938,187.5 196.7188,186.9219 L196.7188,189.6406 Z " fill="#000000"/><text fill="#000000" font-family="sans-serif" font-size="12" lengthAdjust="spacing" textLength="121" x="214.25" y="188.1543">ConsoleConnection</text><line style="stroke:#A80036;stroke-width:1.5;" x1="8" x2="509" y1="200" y2="200"/><rect fill="none" height="6" style="stroke:#C82930;stroke-width:1.0;" width="6" x="15" y="208"/><text fill="#000000" font-family="sans-serif" font-size="11" lengthAdjust="spacing" text-decoration="underline" textLength="306" x="27" y="214.2104">Map&lt;String,ConsoleConnection&gt; consoleConnections</text><line style="stroke:#A80036;stroke-width:1.5;" x1="8" x2="509" y1="220.8047" y2="220.8047"/><ellipse cx="18" cy="231.8047" fill="#84BE84" rx="3" ry="3" style="stroke:#038048;stroke-width:1.0;"/><text fill="#000000" font-family="sans-serif" font-size="11" lengthAdjust="spacing" text-decoration="underline" textLength="477" x="27" y="235.0151">findOrCreate(String consoleConnectionId, Manager component): ConsoleConnection</text><ellipse cx="18" cy="244.6094" fill="#84BE84" rx="3" ry="3" style="stroke:#038048;stroke-width:1.0;"/><text fill="#000000" font-family="sans-serif" font-size="11" lengthAdjust="spacing" textLength="264" x="27" y="247.8198">setTimeout(timeout: long): ConsoleConnection</text><ellipse cx="18" cy="257.4141" fill="#84BE84" rx="3" ry="3" style="stroke:#038048;stroke-width:1.0;"/><text fill="#000000" font-family="sans-serif" font-size="11" lengthAdjust="spacing" textLength="81" x="27" y="260.6245">refresh(): void</text><ellipse cx="18" cy="270.2188" fill="#84BE84" rx="3" ry="3" style="stroke:#038048;stroke-width:1.0;"/><text fill="#000000" font-family="sans-serif" font-size="11" lengthAdjust="spacing" textLength="428" x="27" y="273.4292">setUpstreamChannel(IOSubchannel upstreamChannel): ConsoleConnection</text><ellipse cx="18" cy="283.0234" fill="#84BE84" rx="3" ry="3" style="stroke:#038048;stroke-width:1.0;"/><text fill="#000000" font-family="sans-serif" font-size="11" lengthAdjust="spacing" textLength="378" x="27" y="286.2339">setSessionSupplier(Session sessionSupplier): ConsoleConnection</text><ellipse cx="18" cy="295.8281" fill="#84BE84" rx="3" ry="3" style="stroke:#038048;stroke-width:1.0;"/><text fill="#000000" font-family="sans-serif" font-size="11" lengthAdjust="spacing" textLength="164" x="27" y="299.0386">upstreamChannel(): Optional</text><ellipse cx="18" cy="308.6328" fill="#84BE84" rx="3" ry="3" style="stroke:#038048;stroke-width:1.0;"/><text fill="#000000" font-family="sans-serif" font-size="11" lengthAdjust="spacing" textLength="167" x="27" y="311.8433">consoleConnectionId(): String</text><ellipse cx="18" cy="321.4375" fill="#84BE84" rx="3" ry="3" style="stroke:#038048;stroke-width:1.0;"/><text fill="#000000" font-family="sans-serif" font-size="11" lengthAdjust="spacing" textLength="108" x="27" y="324.6479">session(): Optional</text><ellipse cx="18" cy="334.2422" fill="#84BE84" rx="3" ry="3" style="stroke:#038048;stroke-width:1.0;"/><text fill="#000000" font-family="sans-serif" font-size="11" lengthAdjust="spacing" textLength="85" x="27" y="337.4526">locale(): Locale</text><ellipse cx="18" cy="347.0469" fill="#84BE84" rx="3" ry="3" style="stroke:#038048;stroke-width:1.0;"/><text fill="#000000" font-family="sans-serif" font-size="11" lengthAdjust="spacing" textLength="166" x="27" y="350.2573">setLocale(Locale locale): void</text><!--MD5=[9caeff6bec59bb4e25ab212aaff96b64]
class IOSubchannel--><rect codeLine="15" fill="#FEFECE" filter="url(#f8mld8dawlcxy)" height="48" id="IOSubchannel" style="stroke:#A80036;stroke-width:1.5;" width="118" x="170.5" y="41"/><ellipse cx="185.5" cy="57" fill="#B4A7E5" rx="11" ry="11" style="stroke:#A80036;stroke-width:1.0;"/><path d="M181.4219,52.7656 L181.4219,50.6094 L188.8125,50.6094 L188.8125,52.7656 L186.3438,52.7656 L186.3438,60.8438 L188.8125,60.8438 L188.8125,63 L181.4219,63 L181.4219,60.8438 L183.8906,60.8438 L183.8906,52.7656 L181.4219,52.7656 Z " fill="#000000"/><text fill="#000000" font-family="sans-serif" font-size="12" font-style="italic" lengthAdjust="spacing" textLength="86" x="199.5" y="61.1543">IOSubchannel</text><line style="stroke:#A80036;stroke-width:1.5;" x1="171.5" x2="287.5" y1="73" y2="73"/><line style="stroke:#A80036;stroke-width:1.5;" x1="171.5" x2="287.5" y1="81" y2="81"/><!--MD5=[c850e8d460ffb5cbe72924fa0ab7d2e3]
reverse link IOSubchannel to ConsoleConnection--><path codeLine="18" d="M235.9,109.12 C238.48,126.5 241.56,147.28 244.6,167.82 " fill="none" id="IOSubchannel-backto-ConsoleConnection" style="stroke:#A80036;stroke-width:1.0;stroke-dasharray:7.0,7.0;"/><polygon fill="none" points="228.95,110,232.94,89.19,242.8,107.95,228.95,110" style="stroke:#A80036;stroke-width:1.0;"/><!--MD5=[4be6b6fa76df3386079f38cd2dd87bbb]
reverse link ConsoleConnection to ConsoleConnection--><path codeLine="20" d="M523.19,246.31 C536.9,250.3 545,255.7 545,262.5 C545,271.2 531.72,277.61 510.42,281.72 " fill="none" id="ConsoleConnection-backto-ConsoleConnection" style="stroke:#A80036;stroke-width:1.0;"/><polygon fill="#A80036" points="510.42,243.28,515.3414,248.5507,522.0994,246.0351,517.1781,240.7644,510.42,243.28" style="stroke:#A80036;stroke-width:1.0;"/><text fill="#000000" font-family="sans-serif" font-size="13" lengthAdjust="spacing" textLength="63" x="551" y="267.0669">maintains</text><text fill="#000000" font-family="sans-serif" font-size="13" lengthAdjust="spacing" textLength="8" x="518.0176" y="239.5578">1</text><text fill="#000000" font-family="sans-serif" font-size="13" lengthAdjust="spacing" textLength="7" x="518.0028" y="279.139">*</text><!--MD5=[96f4ad7b55dad1e3e1a17f5811c981a9]
reverse link Session to ConsoleConnection--><path codeLine="26" d="M349.32,93.99 C338.72,113.55 323.89,140.89 309.29,167.82 " fill="none" id="Session-backto-ConsoleConnection" style="stroke:#A80036;stroke-width:1.0;"/><polygon fill="#A80036" points="351.92,89.19,344.1289,95.2148,349.5478,93.5914,351.1712,99.0104,351.92,89.19" style="stroke:#A80036;stroke-width:1.0;"/><text fill="#000000" font-family="sans-serif" font-size="13" lengthAdjust="spacing" textLength="102" x="333.5" y="134.0669">browser session</text><text fill="#000000" font-family="sans-serif" font-size="13" lengthAdjust="spacing" textLength="8" x="339.8786" y="108.9975">1</text><text fill="#000000" font-family="sans-serif" font-size="13" lengthAdjust="spacing" textLength="7" x="305.9106" y="157.0745">*</text><!--MD5=[00c4946f6edbc7a0a7f8762a267a95de]
@startuml
class ConsoleConnection {
  -{static}Map<String,ConsoleConnection> consoleConnections
  +{static}findOrCreate(String consoleConnectionId, Manager component): ConsoleConnection
  +setTimeout(timeout: long): ConsoleConnection
  +refresh(): void
  +setUpstreamChannel(IOSubchannel upstreamChannel): ConsoleConnection
  +setSessionSupplier(Session sessionSupplier): ConsoleConnection
  +upstreamChannel(): Optional
  +consoleConnectionId(): String
  +session(): Optional
  +locale(): Locale
  +setLocale(Locale locale): void
 }
 
 interface IOSubchannel {
 }
 
 IOSubchannel <|.. ConsoleConnection
 
 ConsoleConnection "1" *- - "*" ConsoleConnection : maintains
 
 package org.jgrapes.http {
     class Session
 }
 
 ConsoleConnection "*" -up-> "1" Session: browser session
@enduml

PlantUML version 1.2022.1(Tue Feb 01 18:19:58 UTC 2022)
(GPL source distribution)
Java Runtime: OpenJDK Runtime Environment
JVM: OpenJDK 64-Bit Server VM
Default Encoding: UTF-8
Language: en
Country: 
--></g></svg>