<?xml version="1.0" encoding="UTF-8" standalone="no"?><svg xmlns="http://www.w3.org/2000/svg" xmlns:xlink="http://www.w3.org/1999/xlink" contentScriptType="application/ecmascript" contentStyleType="text/css" height="385px" preserveAspectRatio="none" style="width:587px;height:385px;" version="1.1" viewBox="0 0 587 385" width="587px" zoomAndPan="magnify"><defs><filter height="300%" id="fd2v2mty7nnyk" width="300%" x="-1" y="-1"><feGaussianBlur result="blurOut" stdDeviation="2.0"/><feColorMatrix in="blurOut" result="blurOut2" type="matrix" values="0 0 0 0 0 0 0 0 0 0 0 0 0 0 0 0 0 0 .4 0"/><feOffset dx="4.0" dy="4.0" in="blurOut2" result="blurOut3"/><feBlend in="SourceGraphic" in2="blurOut3" mode="normal"/></filter></defs><g><!--cluster org.jgrapes.http--><polygon fill="#FFFFFF" filter="url(#fd2v2mty7nnyk)" points="283.5,24,417.5,24,424.5,46.2969,427.5,46.2969,427.5,123,283.5,123,283.5,24" style="stroke: #000000; stroke-width: 2.0;"/><line style="stroke: #000000; stroke-width: 2.0;" x1="283.5" x2="424.5" y1="46.2969" y2="46.2969"/><text fill="#000000" font-family="sans-serif" font-size="14" font-weight="bold" lengthAdjust="spacingAndGlyphs" textLength="128" x="287.5" y="38.9951">org.jgrapes.http</text><!--class Session--><rect fill="#FEFECE" filter="url(#fd2v2mty7nnyk)" height="48" id="Session" style="stroke: #A80036; stroke-width: 1.5;" width="81" x="301" y="59"/><ellipse cx="316" cy="75" fill="#ADD1B2" rx="11" ry="11" style="stroke: #A80036; stroke-width: 1.0;"/><path d="M318.9688,80.6406 Q318.3906,80.9375 317.75,81.0781 Q317.1094,81.2344 316.4063,81.2344 Q313.9063,81.2344 312.5781,79.5938 Q311.2656,77.9375 311.2656,74.8125 Q311.2656,71.6875 312.5781,70.0313 Q313.9063,68.375 316.4063,68.375 Q317.1094,68.375 317.75,68.5313 Q318.4063,68.6875 318.9688,68.9844 L318.9688,71.7031 Q318.3438,71.125 317.75,70.8594 Q317.1563,70.5781 316.5313,70.5781 Q315.1875,70.5781 314.5,71.6563 Q313.8125,72.7188 313.8125,74.8125 Q313.8125,76.9063 314.5,77.9844 Q315.1875,79.0469 316.5313,79.0469 Q317.1563,79.0469 317.75,78.7813 Q318.3438,78.5 318.9688,77.9219 L318.9688,80.6406 Z "/><text fill="#000000" font-family="sans-serif" font-size="12" lengthAdjust="spacingAndGlyphs" textLength="49" x="330" y="79.1543">Session</text><line style="stroke: #A80036; stroke-width: 1.5;" x1="302" x2="381" y1="91" y2="91"/><line style="stroke: #A80036; stroke-width: 1.5;" x1="302" x2="381" y1="99" y2="99"/><!--class ConsoleSession--><rect fill="#FEFECE" filter="url(#fd2v2mty7nnyk)" height="188.8516" id="ConsoleSession" style="stroke: #A80036; stroke-width: 1.5;" width="465" x="6" y="186"/><ellipse cx="184.75" cy="202" fill="#ADD1B2" rx="11" ry="11" style="stroke: #A80036; stroke-width: 1.0;"/><path d="M187.7188,207.6406 Q187.1406,207.9375 186.5,208.0781 Q185.8594,208.2344 185.1563,208.2344 Q182.6563,208.2344 181.3281,206.5938 Q180.0156,204.9375 180.0156,201.8125 Q180.0156,198.6875 181.3281,197.0313 Q182.6563,195.375 185.1563,195.375 Q185.8594,195.375 186.5,195.5313 Q187.1563,195.6875 187.7188,195.9844 L187.7188,198.7031 Q187.0938,198.125 186.5,197.8594 Q185.9063,197.5781 185.2813,197.5781 Q183.9375,197.5781 183.25,198.6563 Q182.5625,199.7188 182.5625,201.8125 Q182.5625,203.9063 183.25,204.9844 Q183.9375,206.0469 185.2813,206.0469 Q185.9063,206.0469 186.5,205.7813 Q187.0938,205.5 187.7188,204.9219 L187.7188,207.6406 Z "/><text fill="#000000" font-family="sans-serif" font-size="12" lengthAdjust="spacingAndGlyphs" textLength="99" x="205.25" y="206.1543">ConsoleSession</text><line style="stroke: #A80036; stroke-width: 1.5;" x1="7" x2="470" y1="218" y2="218"/><rect fill="none" height="6" style="stroke: #C82930; stroke-width: 1.0;" width="6" x="14" y="226.9023"/><text fill="#000000" font-family="sans-serif" font-size="11" lengthAdjust="spacingAndGlyphs" text-decoration="underline" textLength="271" x="26" y="232.2104">Map&lt;String,ConsoleSession&gt; consoleSessions</text><line style="stroke: #000000; stroke-width: 1.0;" x1="26" x2="297" y1="234.2104" y2="234.2104"/><line style="stroke: #A80036; stroke-width: 1.5;" x1="7" x2="470" y1="238.8047" y2="238.8047"/><ellipse cx="17" cy="250.707" fill="#84BE84" rx="3" ry="3" style="stroke: #038048; stroke-width: 1.0;"/><text fill="#000000" font-family="sans-serif" font-size="11" lengthAdjust="spacingAndGlyphs" text-decoration="underline" textLength="439" x="26" y="253.0151">findOrCreate(String consoleSessionId, Manager component): ConsoleSession</text><line style="stroke: #000000; stroke-width: 1.0;" x1="26" x2="465" y1="255.0151" y2="255.0151"/><ellipse cx="17" cy="263.5117" fill="#84BE84" rx="3" ry="3" style="stroke: #038048; stroke-width: 1.0;"/><text fill="#000000" font-family="sans-serif" font-size="11" lengthAdjust="spacingAndGlyphs" textLength="245" x="26" y="265.8198">setTimeout(timeout: long): ConsoleSession</text><ellipse cx="17" cy="276.3164" fill="#84BE84" rx="3" ry="3" style="stroke: #038048; stroke-width: 1.0;"/><text fill="#000000" font-family="sans-serif" font-size="11" lengthAdjust="spacingAndGlyphs" textLength="80" x="26" y="278.6245">refresh(): void</text><ellipse cx="17" cy="289.1211" fill="#84BE84" rx="3" ry="3" style="stroke: #038048; stroke-width: 1.0;"/><text fill="#000000" font-family="sans-serif" font-size="11" lengthAdjust="spacingAndGlyphs" textLength="409" x="26" y="291.4292">setUpstreamChannel(IOSubchannel upstreamChannel): ConsoleSession</text><ellipse cx="17" cy="301.9258" fill="#84BE84" rx="3" ry="3" style="stroke: #038048; stroke-width: 1.0;"/><text fill="#000000" font-family="sans-serif" font-size="11" lengthAdjust="spacingAndGlyphs" textLength="313" x="26" y="304.2339">setSession(Session browserSession): ConsoleSession</text><ellipse cx="17" cy="314.7305" fill="#84BE84" rx="3" ry="3" style="stroke: #038048; stroke-width: 1.0;"/><text fill="#000000" font-family="sans-serif" font-size="11" lengthAdjust="spacingAndGlyphs" textLength="163" x="26" y="317.0386">upstreamChannel(): Optional</text><ellipse cx="17" cy="327.5352" fill="#84BE84" rx="3" ry="3" style="stroke: #038048; stroke-width: 1.0;"/><text fill="#000000" font-family="sans-serif" font-size="11" lengthAdjust="spacingAndGlyphs" textLength="149" x="26" y="329.8433">consoleSessionId(): String</text><ellipse cx="17" cy="340.3398" fill="#84BE84" rx="3" ry="3" style="stroke: #038048; stroke-width: 1.0;"/><text fill="#000000" font-family="sans-serif" font-size="11" lengthAdjust="spacingAndGlyphs" textLength="154" x="26" y="342.6479">browserSession(): Session</text><ellipse cx="17" cy="353.1445" fill="#84BE84" rx="3" ry="3" style="stroke: #038048; stroke-width: 1.0;"/><text fill="#000000" font-family="sans-serif" font-size="11" lengthAdjust="spacingAndGlyphs" textLength="84" x="26" y="355.4526">locale(): Locale</text><ellipse cx="17" cy="365.9492" fill="#84BE84" rx="3" ry="3" style="stroke: #038048; stroke-width: 1.0;"/><text fill="#000000" font-family="sans-serif" font-size="11" lengthAdjust="spacingAndGlyphs" textLength="164" x="26" y="368.2573">setLocale(Locale locale): void</text><!--class IOSubchannel--><rect fill="#FEFECE" filter="url(#fd2v2mty7nnyk)" height="48" id="IOSubchannel" style="stroke: #A80036; stroke-width: 1.5;" width="113" x="153" y="59"/><ellipse cx="168" cy="75" fill="#B4A7E5" rx="11" ry="11" style="stroke: #A80036; stroke-width: 1.0;"/><path d="M163.9219,70.7656 L163.9219,68.6094 L171.3125,68.6094 L171.3125,70.7656 L168.8438,70.7656 L168.8438,78.8438 L171.3125,78.8438 L171.3125,81 L163.9219,81 L163.9219,78.8438 L166.3906,78.8438 L166.3906,70.7656 L163.9219,70.7656 Z "/><text fill="#000000" font-family="sans-serif" font-size="12" font-style="italic" lengthAdjust="spacingAndGlyphs" textLength="81" x="182" y="79.1543">IOSubchannel</text><line style="stroke: #A80036; stroke-width: 1.5;" x1="154" x2="265" y1="91" y2="91"/><line style="stroke: #A80036; stroke-width: 1.5;" x1="154" x2="265" y1="99" y2="99"/><!--link IOSubchannel to ConsoleSession--><path d="M215.9,127.12 C218.48,144.5 221.56,165.28 224.6,185.82 " fill="none" id="IOSubchannel-ConsoleSession" style="stroke: #A80036; stroke-width: 1.0; stroke-dasharray: 7.0,7.0;"/><polygon fill="none" points="208.95,128,212.94,107.19,222.8,125.95,208.95,128" style="stroke: #A80036; stroke-width: 1.0;"/><!--link ConsoleSession to ConsoleSession--><path d="M483.9,263.78 C497.75,267.83 506,273.4 506,280.5 C506,289.59 492.48,296.17 471.01,300.26 " fill="none" id="ConsoleSession-ConsoleSession" style="stroke: #A80036; stroke-width: 1.0;"/><polygon fill="#A80036" points="471.01,260.74,475.9314,266.0107,482.6894,263.4951,477.7681,258.2244,471.01,260.74" style="stroke: #A80036; stroke-width: 1.0;"/><text fill="#000000" font-family="sans-serif" font-size="13" lengthAdjust="spacingAndGlyphs" textLength="63" x="512" y="285.0669">maintains</text><text fill="#000000" font-family="sans-serif" font-size="13" lengthAdjust="spacingAndGlyphs" textLength="8" x="478.7705" y="256.917">1</text><text fill="#000000" font-family="sans-serif" font-size="13" lengthAdjust="spacingAndGlyphs" textLength="7" x="478.7541" y="297.7338">*</text><!--link Session to ConsoleSession--><path d="M326.75,111.99 C316.45,131.55 302.04,158.89 287.86,185.82 " fill="none" id="Session-ConsoleSession" style="stroke: #A80036; stroke-width: 1.0;"/><polygon fill="#A80036" points="329.28,107.19,321.551,113.2944,326.953,111.6155,328.6319,117.0175,329.28,107.19" style="stroke: #A80036; stroke-width: 1.0;"/><text fill="#000000" font-family="sans-serif" font-size="13" lengthAdjust="spacingAndGlyphs" textLength="102" x="311.5" y="152.0669">browser session</text><text fill="#000000" font-family="sans-serif" font-size="13" lengthAdjust="spacingAndGlyphs" textLength="8" x="317.3264" y="126.9975">1</text><text fill="#000000" font-family="sans-serif" font-size="13" lengthAdjust="spacingAndGlyphs" textLength="7" x="284.3712" y="175.0745">*</text><!--
@startuml
class ConsoleSession {
  -{static}Map<String,ConsoleSession> consoleSessions
  +{static}findOrCreate(String consoleSessionId, Manager component): ConsoleSession
  +setTimeout(timeout: long): ConsoleSession
  +refresh(): void
  +setUpstreamChannel(IOSubchannel upstreamChannel): ConsoleSession
  +setSession(Session browserSession): ConsoleSession
  +upstreamChannel(): Optional
  +consoleSessionId(): String
  +browserSession(): Session
  +locale(): Locale
  +setLocale(Locale locale): void
 }
 Interface IOSubchannel {
 }
 IOSubchannel <|.. ConsoleSession

 ConsoleSession "1" *- - "*" ConsoleSession : maintains
 
 package org.jgrapes.http {
     class Session
 }
 
 ConsoleSession "*" -up-> "1" Session: browser session
@enduml

PlantUML version 1.2017.18(Fri Oct 06 18:56:32 CEST 2017)
(GPL source distribution)
Java Runtime: OpenJDK Runtime Environment
JVM: OpenJDK 64-Bit Server VM
Java Version: 11.0.10+9
Operating System: Linux
OS Version: 5.10.21-200.fc33.x86_64
Default Encoding: UTF-8
Language: de
Country: DE
--></g></svg>