<?xml version="1.0" encoding="UTF-8" standalone="no"?><svg xmlns="http://www.w3.org/2000/svg" xmlns:xlink="http://www.w3.org/1999/xlink" contentScriptType="application/ecmascript" contentStyleType="text/css" height="676px" preserveAspectRatio="none" style="width:828px;height:676px;background:#FFFFFF;" version="1.1" viewBox="0 0 828 676" width="828px" zoomAndPan="magnify"><defs><filter height="300%" id="f19ftw368ty8jw" width="300%" x="-1" y="-1"><feGaussianBlur result="blurOut" stdDeviation="2.0"/><feColorMatrix in="blurOut" result="blurOut2" type="matrix" values="0 0 0 0 0 0 0 0 0 0 0 0 0 0 0 0 0 0 .4 0"/><feOffset dx="4.0" dy="4.0" in="blurOut2" result="blurOut3"/><feBlend in="SourceGraphic" in2="blurOut3" mode="normal"/></filter></defs><g><rect fill="#FFFFFF" filter="url(#f19ftw368ty8jw)" height="297.3281" style="stroke:#A80036;stroke-width:1.0;" width="10" x="223.5" y="119.4297"/><rect fill="#FFFFFF" filter="url(#f19ftw368ty8jw)" height="29.1328" style="stroke:#A80036;stroke-width:1.0;" width="10" x="228.5" y="225.9609"/><rect fill="#FFFFFF" filter="url(#f19ftw368ty8jw)" height="29.1328" style="stroke:#A80036;stroke-width:1.0;" width="10" x="228.5" y="344.4922"/><rect fill="#FFFFFF" filter="url(#f19ftw368ty8jw)" height="29.1328" style="stroke:#A80036;stroke-width:1.0;" width="10" x="223.5" y="557.4219"/><rect fill="#FFFFFF" filter="url(#f19ftw368ty8jw)" height="29.1328" style="stroke:#A80036;stroke-width:1.0;" width="10" x="223.5" y="622.6875"/><rect fill="#FFFFFF" filter="url(#f19ftw368ty8jw)" height="29.1328" style="stroke:#A80036;stroke-width:1.0;" width="10" x="380.5" y="196.8281"/><rect fill="#FFFFFF" filter="url(#f19ftw368ty8jw)" height="29.1328" style="stroke:#A80036;stroke-width:1.0;" width="10" x="521" y="315.3594"/><rect fill="#FFFFFF" filter="url(#f19ftw368ty8jw)" height="29.1328" style="stroke:#A80036;stroke-width:1.0;" width="10" x="521" y="528.2891"/><rect fill="#FFFFFF" filter="url(#f19ftw368ty8jw)" height="184.7969" style="stroke:#A80036;stroke-width:1.0;" width="10" x="742" y="416.7578"/><rect fill="#FFFFFF" filter="url(#f19ftw368ty8jw)" height="254.1953" style="stroke:#000000;stroke-width:2.0;" width="573" x="10" y="134.4297"/><rect fill="#FFFFFF" filter="url(#f19ftw368ty8jw)" height="104.5313" style="stroke:#000000;stroke-width:2.0;" width="469" x="20" y="158.5625"/><rect fill="#FFFFFF" filter="url(#f19ftw368ty8jw)" height="104.5313" style="stroke:#000000;stroke-width:2.0;" width="553" x="20" y="277.0938"/><rect fill="#FFFFFF" filter="url(#f19ftw368ty8jw)" height="104.5313" style="stroke:#000000;stroke-width:2.0;" width="794" x="20" y="490.0234"/><line style="stroke:#A80036;stroke-width:1.0;stroke-dasharray:5.0,5.0;" x1="67" x2="67" y1="88.2969" y2="669.8203"/><line style="stroke:#A80036;stroke-width:1.0;stroke-dasharray:5.0,5.0;" x1="228.5" x2="228.5" y1="88.2969" y2="669.8203"/><line style="stroke:#A80036;stroke-width:1.0;stroke-dasharray:5.0,5.0;" x1="385" x2="385" y1="88.2969" y2="669.8203"/><line style="stroke:#A80036;stroke-width:1.0;stroke-dasharray:5.0,5.0;" x1="526" x2="526" y1="88.2969" y2="669.8203"/><line style="stroke:#A80036;stroke-width:1.0;stroke-dasharray:5.0,5.0;" x1="614" x2="614" y1="88.2969" y2="669.8203"/><line style="stroke:#A80036;stroke-width:1.0;stroke-dasharray:5.0,5.0;" x1="747" x2="747" y1="88.2969" y2="669.8203"/><rect fill="#FEFECE" filter="url(#f19ftw368ty8jw)" height="30.2969" style="stroke:#A80036;stroke-width:1.5;" width="71" x="30" y="53"/><text fill="#000000" font-family="sans-serif" font-size="14" lengthAdjust="spacing" textLength="57" x="37" y="72.9951">Browser</text><rect fill="#FEFECE" filter="url(#f19ftw368ty8jw)" height="30.2969" style="stroke:#A80036;stroke-width:1.5;" width="102" x="175.5" y="53"/><text fill="#000000" font-family="sans-serif" font-size="14" lengthAdjust="spacing" textLength="88" x="182.5" y="72.9951">WebConsole</text><rect fill="#FEFECE" filter="url(#f19ftw368ty8jw)" height="30.2969" style="stroke:#A80036;stroke-width:1.5;" width="183" x="292" y="53"/><text fill="#000000" font-family="sans-serif" font-size="14" lengthAdjust="spacing" textLength="169" x="299" y="72.9951">PageResourceProviderX</text><rect fill="#FEFECE" filter="url(#f19ftw368ty8jw)" height="30.2969" style="stroke:#A80036;stroke-width:1.5;" width="70" x="489" y="53"/><text fill="#000000" font-family="sans-serif" font-size="14" lengthAdjust="spacing" textLength="56" x="496" y="72.9951">ConletX</text><text fill="#000000" font-family="sans-serif" font-size="14" lengthAdjust="spacing" textLength="76" x="573" y="84.9951">Framework</text><ellipse cx="614" cy="15" fill="#FEFECE" filter="url(#f19ftw368ty8jw)" rx="8" ry="8" style="stroke:#A80036;stroke-width:2.0;"/><path d="M614,23 L614,50 M601,31 L627,31 M614,50 L601,65 M614,50 L627,65 " fill="none" filter="url(#f19ftw368ty8jw)" style="stroke:#A80036;stroke-width:2.0;"/><rect fill="#FEFECE" filter="url(#f19ftw368ty8jw)" height="30.2969" style="stroke:#A80036;stroke-width:1.5;" width="110" x="690" y="53"/><text fill="#000000" font-family="sans-serif" font-size="14" lengthAdjust="spacing" textLength="96" x="697" y="72.9951">ConsolePolicy</text><rect fill="#FFFFFF" filter="url(#f19ftw368ty8jw)" height="297.3281" style="stroke:#A80036;stroke-width:1.0;" width="10" x="223.5" y="119.4297"/><rect fill="#FFFFFF" filter="url(#f19ftw368ty8jw)" height="29.1328" style="stroke:#A80036;stroke-width:1.0;" width="10" x="228.5" y="225.9609"/><rect fill="#FFFFFF" filter="url(#f19ftw368ty8jw)" height="29.1328" style="stroke:#A80036;stroke-width:1.0;" width="10" x="228.5" y="344.4922"/><rect fill="#FFFFFF" filter="url(#f19ftw368ty8jw)" height="29.1328" style="stroke:#A80036;stroke-width:1.0;" width="10" x="223.5" y="557.4219"/><rect fill="#FFFFFF" filter="url(#f19ftw368ty8jw)" height="29.1328" style="stroke:#A80036;stroke-width:1.0;" width="10" x="223.5" y="622.6875"/><rect fill="#FFFFFF" filter="url(#f19ftw368ty8jw)" height="29.1328" style="stroke:#A80036;stroke-width:1.0;" width="10" x="380.5" y="196.8281"/><rect fill="#FFFFFF" filter="url(#f19ftw368ty8jw)" height="29.1328" style="stroke:#A80036;stroke-width:1.0;" width="10" x="521" y="315.3594"/><rect fill="#FFFFFF" filter="url(#f19ftw368ty8jw)" height="29.1328" style="stroke:#A80036;stroke-width:1.0;" width="10" x="521" y="528.2891"/><rect fill="#FFFFFF" filter="url(#f19ftw368ty8jw)" height="184.7969" style="stroke:#A80036;stroke-width:1.0;" width="10" x="742" y="416.7578"/><polygon fill="#A80036" points="211.5,115.4297,221.5,119.4297,211.5,123.4297,215.5,119.4297" style="stroke:#A80036;stroke-width:1.0;"/><line style="stroke:#A80036;stroke-width:1.0;" x1="67.5" x2="217.5" y1="119.4297" y2="119.4297"/><text fill="#000000" font-family="sans-serif" font-size="13" lengthAdjust="spacing" textLength="98" x="74.5" y="114.3638">"consoleReady"</text><path d="M10,134.4297 L80,134.4297 L80,141.4297 L70,151.4297 L10,151.4297 L10,134.4297 " fill="#EEEEEE" style="stroke:#000000;stroke-width:1.0;"/><rect fill="none" height="254.1953" style="stroke:#000000;stroke-width:2.0;" width="573" x="10" y="134.4297"/><text fill="#000000" font-family="sans-serif" font-size="13" font-weight="bold" lengthAdjust="spacing" textLength="25" x="25" y="147.4966">par</text><path d="M20,158.5625 L97,158.5625 L97,165.5625 L87,175.5625 L20,175.5625 L20,158.5625 " fill="#EEEEEE" style="stroke:#000000;stroke-width:1.0;"/><rect fill="none" height="104.5313" style="stroke:#000000;stroke-width:2.0;" width="469" x="20" y="158.5625"/><text fill="#000000" font-family="sans-serif" font-size="13" font-weight="bold" lengthAdjust="spacing" textLength="32" x="35" y="171.6294">loop</text><text fill="#000000" font-family="sans-serif" font-size="11" font-weight="bold" lengthAdjust="spacing" textLength="208" x="112" y="170.7729">[for all page resource providers]</text><polygon fill="#A80036" points="368.5,192.8281,378.5,196.8281,368.5,200.8281,372.5,196.8281" style="stroke:#A80036;stroke-width:1.0;"/><line style="stroke:#A80036;stroke-width:1.0;" x1="233.5" x2="374.5" y1="196.8281" y2="196.8281"/><text fill="#000000" font-family="sans-serif" font-size="13" lengthAdjust="spacing" textLength="90" x="240.5" y="191.7622">ConsoleReady</text><polygon fill="#A80036" points="249.5,221.9609,239.5,225.9609,249.5,229.9609,245.5,225.9609" style="stroke:#A80036;stroke-width:1.0;"/><line style="stroke:#A80036;stroke-width:1.0;" x1="243.5" x2="384.5" y1="225.9609" y2="225.9609"/><text fill="#000000" font-family="sans-serif" font-size="13" lengthAdjust="spacing" textLength="123" x="255.5" y="220.895">AddPageResources</text><polygon fill="#A80036" points="78.5,251.0938,68.5,255.0938,78.5,259.0938,74.5,255.0938" style="stroke:#A80036;stroke-width:1.0;"/><line style="stroke:#A80036;stroke-width:1.0;" x1="72.5" x2="222.5" y1="255.0938" y2="255.0938"/><text fill="#000000" font-family="sans-serif" font-size="13" lengthAdjust="spacing" textLength="132" x="84.5" y="250.0278">"addPageResources"</text><path d="M20,277.0938 L97,277.0938 L97,284.0938 L87,294.0938 L20,294.0938 L20,277.0938 " fill="#EEEEEE" style="stroke:#000000;stroke-width:1.0;"/><rect fill="none" height="104.5313" style="stroke:#000000;stroke-width:2.0;" width="553" x="20" y="277.0938"/><text fill="#000000" font-family="sans-serif" font-size="13" font-weight="bold" lengthAdjust="spacing" textLength="32" x="35" y="290.1606">loop</text><text fill="#000000" font-family="sans-serif" font-size="11" font-weight="bold" lengthAdjust="spacing" textLength="99" x="112" y="289.3042">[for all conlets]</text><polygon fill="#A80036" points="509,311.3594,519,315.3594,509,319.3594,513,315.3594" style="stroke:#A80036;stroke-width:1.0;"/><line style="stroke:#A80036;stroke-width:1.0;" x1="233.5" x2="515" y1="315.3594" y2="315.3594"/><text fill="#000000" font-family="sans-serif" font-size="13" lengthAdjust="spacing" textLength="90" x="240.5" y="310.2935">ConsoleReady</text><polygon fill="#A80036" points="249.5,340.4922,239.5,344.4922,249.5,348.4922,245.5,344.4922" style="stroke:#A80036;stroke-width:1.0;"/><line style="stroke:#A80036;stroke-width:1.0;" x1="243.5" x2="525" y1="344.4922" y2="344.4922"/><text fill="#000000" font-family="sans-serif" font-size="13" lengthAdjust="spacing" textLength="96" x="255.5" y="339.4263">AddConletType</text><polygon fill="#A80036" points="78.5,369.625,68.5,373.625,78.5,377.625,74.5,373.625" style="stroke:#A80036;stroke-width:1.0;"/><line style="stroke:#A80036;stroke-width:1.0;" x1="72.5" x2="222.5" y1="373.625" y2="373.625"/><text fill="#000000" font-family="sans-serif" font-size="13" lengthAdjust="spacing" textLength="105" x="84.5" y="368.5591">"addConletType"</text><polygon fill="#A80036" points="730,412.7578,740,416.7578,730,420.7578,734,416.7578" style="stroke:#A80036;stroke-width:1.0;"/><line style="stroke:#A80036;stroke-width:1.0;" x1="614" x2="736" y1="416.7578" y2="416.7578"/><text fill="#000000" font-family="sans-serif" font-size="13" lengthAdjust="spacing" textLength="109" x="621" y="411.6919">ConsolePrepared</text><polygon fill="#A80036" points="239.5,441.8906,229.5,445.8906,239.5,449.8906,235.5,445.8906" style="stroke:#A80036;stroke-width:1.0;"/><line style="stroke:#A80036;stroke-width:1.0;" x1="233.5" x2="741" y1="445.8906" y2="445.8906"/><text fill="#000000" font-family="sans-serif" font-size="13" lengthAdjust="spacing" textLength="121" x="245.5" y="440.8247">LastConsoleLayout</text><polygon fill="#A80036" points="78.5,471.0234,68.5,475.0234,78.5,479.0234,74.5,475.0234" style="stroke:#A80036;stroke-width:1.0;"/><line style="stroke:#A80036;stroke-width:1.0;" x1="72.5" x2="227.5" y1="475.0234" y2="475.0234"/><text fill="#000000" font-family="sans-serif" font-size="13" lengthAdjust="spacing" textLength="127" x="84.5" y="469.9575">"lastConsoleLayout"</text><path d="M20,490.0234 L97,490.0234 L97,497.0234 L87,507.0234 L20,507.0234 L20,490.0234 " fill="#EEEEEE" style="stroke:#000000;stroke-width:1.0;"/><rect fill="none" height="104.5313" style="stroke:#000000;stroke-width:2.0;" width="794" x="20" y="490.0234"/><text fill="#000000" font-family="sans-serif" font-size="13" font-weight="bold" lengthAdjust="spacing" textLength="32" x="35" y="503.0903">loop</text><text fill="#000000" font-family="sans-serif" font-size="11" font-weight="bold" lengthAdjust="spacing" textLength="202" x="112" y="502.2339">[for all conlets to be displayed]</text><polygon fill="#A80036" points="542,524.2891,532,528.2891,542,532.2891,538,528.2891" style="stroke:#A80036;stroke-width:1.0;"/><line style="stroke:#A80036;stroke-width:1.0;" x1="536" x2="741" y1="528.2891" y2="528.2891"/><text fill="#000000" font-family="sans-serif" font-size="13" lengthAdjust="spacing" textLength="138" x="548" y="523.2231">RenderConletRequest</text><polygon fill="#A80036" points="244.5,553.4219,234.5,557.4219,244.5,561.4219,240.5,557.4219" style="stroke:#A80036;stroke-width:1.0;"/><line style="stroke:#A80036;stroke-width:1.0;" x1="238.5" x2="525" y1="557.4219" y2="557.4219"/><text fill="#000000" font-family="sans-serif" font-size="13" lengthAdjust="spacing" textLength="86" x="250.5" y="552.356">RenderConlet</text><polygon fill="#A80036" points="78.5,582.5547,68.5,586.5547,78.5,590.5547,74.5,586.5547" style="stroke:#A80036;stroke-width:1.0;"/><line style="stroke:#A80036;stroke-width:1.0;" x1="72.5" x2="227.5" y1="586.5547" y2="586.5547"/><text fill="#000000" font-family="sans-serif" font-size="13" lengthAdjust="spacing" textLength="93" x="84.5" y="581.4888">"renderConlet"</text><polygon fill="#A80036" points="244.5,618.6875,234.5,622.6875,244.5,626.6875,240.5,622.6875" style="stroke:#A80036;stroke-width:1.0;"/><line style="stroke:#A80036;stroke-width:1.0;" x1="238.5" x2="613" y1="622.6875" y2="622.6875"/><text fill="#000000" font-family="sans-serif" font-size="13" lengthAdjust="spacing" textLength="120" x="250.5" y="617.6216">ConsoleConfigured</text><polygon fill="#A80036" points="78.5,647.8203,68.5,651.8203,78.5,655.8203,74.5,651.8203" style="stroke:#A80036;stroke-width:1.0;"/><line style="stroke:#A80036;stroke-width:1.0;" x1="72.5" x2="227.5" y1="651.8203" y2="651.8203"/><text fill="#000000" font-family="sans-serif" font-size="13" lengthAdjust="spacing" textLength="128" x="84.5" y="646.7544">"consoleConfigured"</text><!--MD5=[d046bd5d614668c744eafb6d09055b98]
@startuml
hide footbox
 
 Browser -> WebConsole: "consoleReady"
 activate WebConsole
 
 par
 
     loop for all page resource providers
         WebConsole -> PageResourceProviderX: ConsoleReady
         activate PageResourceProviderX
         PageResourceProviderX -> WebConsole: AddPageResources
         deactivate PageResourceProviderX
         activate WebConsole
         WebConsole -> Browser: "addPageResources"
         deactivate WebConsole
     end
 
     loop for all conlets
         WebConsole -> ConletX: ConsoleReady
         activate ConletX
         ConletX -> WebConsole: AddConletType 
         deactivate ConletX
         activate WebConsole
         WebConsole -> Browser: "addConletType"
         deactivate WebConsole
     end
 
 end
 
 actor Framework
 Framework -> ConsolePolicy: ConsolePrepared
 deactivate WebConsole
 activate ConsolePolicy
 ConsolePolicy -> WebConsole: LastConsoleLayout
 WebConsole -> Browser: "lastConsoleLayout"
 loop for all conlets to be displayed
     ConsolePolicy -> ConletX: RenderConletRequest
     activate ConletX
     ConletX -> WebConsole: RenderConlet
     deactivate ConletX
     activate WebConsole
     WebConsole -> Browser: "renderConlet"
     deactivate WebConsole
 end
 deactivate ConsolePolicy
 Framework -> WebConsole: ConsoleConfigured
 activate WebConsole
 WebConsole -> Browser: "consoleConfigured"
 deactivate WebConsole
@enduml

PlantUML version 1.2022.1(Tue Feb 01 19:19:58 CET 2022)
(GPL source distribution)
Java Runtime: OpenJDK Runtime Environment
JVM: OpenJDK 64-Bit Server VM
Default Encoding: UTF-8
Language: de
Country: DE
--></g></svg>