<?xml version="1.0" encoding="us-ascii" standalone="no"?><svg xmlns="http://www.w3.org/2000/svg" xmlns:xlink="http://www.w3.org/1999/xlink" contentStyleType="text/css" height="262px" preserveAspectRatio="none" style="width:714px;height:262px;background:#FFFFFF;" version="1.1" viewBox="0 0 714 262" width="714px" zoomAndPan="magnify"><defs/><g><!--cluster Conceptual WebConsole\n(WebConsole Gateway)--><g id="cluster_Conceptual WebConsole\n(WebConsole Gateway)"><rect fill="none" height="113" rx="2.5" ry="2.5" style="stroke:#000000;stroke-width:1.5;" width="341" x="256.5" y="7"/><text fill="#000000" font-family="sans-serif" font-size="14" font-weight="bold" lengthAdjust="spacing" textLength="193" x="330.5" y="21.9951">Conceptual WebConsole</text><text fill="#000000" font-family="sans-serif" font-size="14" font-weight="bold" lengthAdjust="spacing" textLength="185" x="334.5" y="38.292">(WebConsole Gateway)</text></g><!--entity webConsole--><g id="elem_webConsole"><rect fill="#F1F1F1" height="46.2969" rx="2.5" ry="2.5" style="stroke:#181818;stroke-width:0.5;" width="128" x="453.5" y="58"/><rect fill="#F1F1F1" height="10" style="stroke:#181818;stroke-width:0.5;" width="15" x="561.5" y="63"/><rect fill="#F1F1F1" height="2" style="stroke:#181818;stroke-width:0.5;" width="4" x="559.5" y="65"/><rect fill="#F1F1F1" height="2" style="stroke:#181818;stroke-width:0.5;" width="4" x="559.5" y="69"/><text fill="#000000" font-family="sans-serif" font-size="14" lengthAdjust="spacing" textLength="88" x="468.5" y="90.9951">WebConsole</text></g><!--entity consoleWeblet--><g id="elem_consoleWeblet"><rect fill="#F1F1F1" height="46.2969" rx="2.5" ry="2.5" style="stroke:#181818;stroke-width:0.5;" width="145" x="273" y="58"/><rect fill="#F1F1F1" height="10" style="stroke:#181818;stroke-width:0.5;" width="15" x="398" y="63"/><rect fill="#F1F1F1" height="2" style="stroke:#181818;stroke-width:0.5;" width="4" x="396" y="65"/><rect fill="#F1F1F1" height="2" style="stroke:#181818;stroke-width:0.5;" width="4" x="396" y="69"/><text fill="#000000" font-family="sans-serif" font-size="14" lengthAdjust="spacing" textLength="105" x="288" y="90.9951">ConsoleWeblet</text></g><!--entity httpChannel--><g id="elem_httpChannel"><ellipse cx="164.5" cy="81" fill="#F1F1F1" rx="8" ry="8" style="stroke:#181818;stroke-width:0.5;"/><text fill="#000000" font-family="sans-serif" font-size="14" lengthAdjust="spacing" textLength="85" x="122" y="110.9951">httpChannel</text></g><!--entity consoleChannel--><g id="elem_consoleChannel"><ellipse cx="525.5" cy="224.5" fill="#F1F1F1" rx="8" ry="8" style="stroke:#181818;stroke-width:0.5;"/><text fill="#000000" font-family="sans-serif" font-size="14" lengthAdjust="spacing" textLength="112" x="469.5" y="254.4951">consoleChannel</text></g><!--entity httpServer--><g id="elem_httpServer"><rect fill="#F1F1F1" height="46.2969" rx="2.5" ry="2.5" style="stroke:#181818;stroke-width:0.5;" width="113" x="7" y="58"/><rect fill="#F1F1F1" height="10" style="stroke:#181818;stroke-width:0.5;" width="15" x="100" y="63"/><rect fill="#F1F1F1" height="2" style="stroke:#181818;stroke-width:0.5;" width="4" x="98" y="65"/><rect fill="#F1F1F1" height="2" style="stroke:#181818;stroke-width:0.5;" width="4" x="98" y="69"/><text fill="#000000" font-family="sans-serif" font-size="14" lengthAdjust="spacing" textLength="73" x="22" y="90.9951">HttpServer</text></g><!--entity sessionManager--><g id="elem_sessionManager"><rect fill="#F1F1F1" height="46.2969" rx="2.5" ry="2.5" style="stroke:#181818;stroke-width:0.5;" width="155" x="54" y="201.5"/><rect fill="#F1F1F1" height="10" style="stroke:#181818;stroke-width:0.5;" width="15" x="189" y="206.5"/><rect fill="#F1F1F1" height="2" style="stroke:#181818;stroke-width:0.5;" width="4" x="187" y="208.5"/><rect fill="#F1F1F1" height="2" style="stroke:#181818;stroke-width:0.5;" width="4" x="187" y="212.5"/><text fill="#000000" font-family="sans-serif" font-size="14" lengthAdjust="spacing" textLength="115" x="69" y="234.4951">SessionManager</text></g><!--entity conletA--><g id="elem_conletA"><rect fill="#F1F1F1" height="46.2969" rx="2.5" ry="2.5" style="stroke:#181818;stroke-width:0.5;" width="92" x="616.5" y="58"/><rect fill="#F1F1F1" height="10" style="stroke:#181818;stroke-width:0.5;" width="15" x="688.5" y="63"/><rect fill="#F1F1F1" height="2" style="stroke:#181818;stroke-width:0.5;" width="4" x="686.5" y="65"/><rect fill="#F1F1F1" height="2" style="stroke:#181818;stroke-width:0.5;" width="4" x="686.5" y="69"/><text fill="#000000" font-family="sans-serif" font-size="14" lengthAdjust="spacing" textLength="52" x="631.5" y="90.9951">conletA</text></g><!--entity conletB--><g id="elem_conletB"><rect fill="#F1F1F1" height="46.2969" rx="2.5" ry="2.5" style="stroke:#181818;stroke-width:0.5;" width="93" x="599" y="201.5"/><rect fill="#F1F1F1" height="10" style="stroke:#181818;stroke-width:0.5;" width="15" x="672" y="206.5"/><rect fill="#F1F1F1" height="2" style="stroke:#181818;stroke-width:0.5;" width="4" x="670" y="208.5"/><rect fill="#F1F1F1" height="2" style="stroke:#181818;stroke-width:0.5;" width="4" x="670" y="212.5"/><text fill="#000000" font-family="sans-serif" font-size="14" lengthAdjust="spacing" textLength="53" x="614" y="234.4951">conletB</text></g><g id="elem_consoleConnection"><rect fill="#F1F1F1" height="52.5938" style="stroke:#181818;stroke-width:0.5;" width="154" x="244.5" y="198"/><text fill="#000000" font-family="sans-serif" font-size="14" lengthAdjust="spacing" textLength="140" x="251.5" y="212.9951">consoleConnection:</text><text fill="#000000" font-family="sans-serif" font-size="14" lengthAdjust="spacing" textLength="137" x="253" y="229.292">ConsoleConnection</text><line style="stroke:#181818;stroke-width:0.5;" x1="245.5" x2="397.5" y1="234.5938" y2="234.5938"/></g><!--link httpServer to httpChannel--><g id="link_httpServer_httpChannel"><path codeLine="8" d="M120.31,81 C131.93,81 143.56,81 155.18,81 " fill="none" id="httpServer-httpChannel" style="stroke:#181818;stroke-width:1.0;stroke-dasharray:7.0,7.0;"/></g><!--link httpChannel to sessionManager--><g id="link_httpChannel_sessionManager"><path codeLine="11" d="M162.63,90.01 C157.7,111.18 144.18,169.14 136.68,201.29 " fill="none" id="httpChannel-sessionManager" style="stroke:#181818;stroke-width:1.0;stroke-dasharray:7.0,7.0;"/></g><!--reverse link consoleWeblet to webConsole--><g id="link_consoleWeblet_webConsole"><path codeLine="17" d="M430.06,81 C441.84,81 441.63,81 453.41,81 " fill="none" id="consoleWeblet-backto-webConsole" style="stroke:#181818;stroke-width:1.0;"/><polygon fill="#181818" points="418.06,81,424.06,85,430.06,81,424.06,77,418.06,81" style="stroke:#181818;stroke-width:1.0;"/><text fill="#000000" font-family="sans-serif" font-size="13" lengthAdjust="spacing" textLength="8" x="425.9553" y="77.285">1</text><text fill="#000000" font-family="sans-serif" font-size="13" lengthAdjust="spacing" textLength="8" x="437.5371" y="77.1902">1</text></g><!--link httpChannel to consoleWeblet--><g id="link_httpChannel_consoleWeblet"><path codeLine="20" d="M173.72,81 C192.09,81 234.78,81 272.99,81 " fill="none" id="httpChannel-consoleWeblet" style="stroke:#181818;stroke-width:1.0;stroke-dasharray:7.0,7.0;"/><text fill="#000000" font-family="sans-serif" font-size="13" lengthAdjust="spacing" textLength="43" x="201.75" y="29.0669">onGet,</text><text fill="#000000" font-family="sans-serif" font-size="13" lengthAdjust="spacing" textLength="52" x="197.25" y="44.1997">onInput,</text><text fill="#000000" font-family="sans-serif" font-size="13" lengthAdjust="spacing" textLength="63" x="191.75" y="59.3325">onClosed,</text><text fill="#000000" font-family="sans-serif" font-size="13" lengthAdjust="spacing" textLength="12" x="217.25" y="74.4653">...</text></g><!--link consoleWeblet to consoleChannel--><g id="link_consoleWeblet_consoleChannel"><path codeLine="21" d="M347.06,104.16 C349.53,123.36 355.94,150.7 372.5,168 C393.41,189.84 486.27,213.95 516.18,221.27 " fill="none" id="consoleWeblet-consoleChannel" style="stroke:#181818;stroke-width:1.0;stroke-dasharray:7.0,7.0;"/><text fill="#000000" font-family="sans-serif" font-size="13" lengthAdjust="spacing" textLength="138" x="373.5" y="149.0669">onConsoleCommand,</text><text fill="#000000" font-family="sans-serif" font-size="13" lengthAdjust="spacing" textLength="12" x="436.5" y="164.1997">...</text></g><!--link webConsole to consoleChannel--><g id="link_webConsole_consoleChannel"><path codeLine="23" d="M518.75,104.11 C520.56,136.13 523.83,193.93 525.04,215.28 " fill="none" id="webConsole-consoleChannel" style="stroke:#181818;stroke-width:1.0;"/><text fill="#000000" font-family="sans-serif" font-size="13" lengthAdjust="spacing" textLength="83" x="522.5" y="156.5669">(all handlers)</text></g><!--link conletA to consoleChannel--><g id="link_conletA_consoleChannel"><path codeLine="26" d="M652.97,104.01 C644.16,122.59 629.68,149.12 611.5,168 C587.84,192.58 551.29,211.51 534.5,219.44 " fill="none" id="conletA-consoleChannel" style="stroke:#181818;stroke-width:1.0;stroke-dasharray:7.0,7.0;"/></g><!--link consoleChannel to conletB--><g id="link_consoleChannel_conletB"><path codeLine="29" d="M534.88,224.5 C556.19,224.5 577.51,224.5 598.83,224.5 " fill="none" id="consoleChannel-conletB" style="stroke:#181818;stroke-width:1.0;stroke-dasharray:7.0,7.0;"/></g><!--link consoleConnection to consoleChannel--><g id="link_consoleConnection_consoleChannel"><path codeLine="32" d="M398.62,224.5 C443.76,224.5 489.81,224.5 510.42,224.5 " fill="none" id="consoleConnection-to-consoleChannel" style="stroke:#181818;stroke-width:1.0;"/><polygon fill="#181818" points="516.42,224.5,507.42,220.5,511.42,224.5,507.42,228.5,516.42,224.5" style="stroke:#181818;stroke-width:1.0;"/><polygon fill="#000000" points="461,215,451.9549,212.0611,451.9549,217.9389,461,215" style="stroke:#000000;stroke-width:1.0;"/><text fill="#000000" font-family="sans-serif" font-size="13" lengthAdjust="spacing" textLength="89" x="406.4113" y="237.0646">subchannel of</text></g><!--reverse link consoleWeblet to consoleConnection--><g id="link_consoleWeblet_consoleConnection"><path codeLine="33" d="M319.3932,113.8112 C312.6532,123.0412 312.96,124.57 309.5,136 C303.37,156.25 307.33,180.1 312.29,197.77 " fill="none" id="consoleWeblet-backto-consoleConnection" style="stroke:#181818;stroke-width:1.0;"/><polygon fill="#181818" points="326.47,104.12,319.7012,106.6067,319.3932,113.8112,326.162,111.3245,326.47,104.12" style="stroke:#181818;stroke-width:1.0;"/></g><!--link webConsole to conletA--><!--link conletA to conletB--><!--link httpChannel to consoleConnection--><!--SRC=[RP8zSuCm38Pt_mgTfoHNVDSrbwLXI3jqoj2XwVKSK836o1msJNEz_lSwV0GCU99UFv8bI-QSKI5BcKCXexDCS6-l2g74o4fA53AGIkdBPvxzP9GmOB1OGcfj4QQI25NjHvgCLdYNc5FoGXEI1Vxiu3sMtrXoaAQERLmsi46KMP9QuQVsykpHc4pJgoHNPPFBU18R-I2gOfAmxH9ug2d2mbPImHiUmwQ30orw1tRIuaLUbnn-6RWpAAQdwa8kTtSCjhBZ5TgQZORAhIHt-dZWZnm2XISRh6fxXFyvdlaYY1lkTGfhu9fsQ1yEfEc5YggnGgKDniuKGl196Z4QP9EbBIpKUIwfZsN3eeDW9dJXDWUS6oiipPBxutIuU_E9TSRqzJb-s_7RhkbfZ3v-kUK5tjreTn5PjnRhGzzBfmqdqgjitCsccSYKT7rkW9lg6BMaFat-THNC1Ov_iDx_zpIBOwIFOFe_yy2MUMEVWVnd_m40]--></g></svg>