<?xml version="1.0" encoding="UTF-8" standalone="no"?><svg xmlns="http://www.w3.org/2000/svg" xmlns:xlink="http://www.w3.org/1999/xlink" contentScriptType="application/ecmascript" contentStyleType="text/css" height="385px" preserveAspectRatio="none" style="width:591px;height:385px;" version="1.1" viewBox="0 0 591 385" width="591px" zoomAndPan="magnify"><defs><filter height="300%" id="f10j8a7kv5io05" width="300%" x="-1" y="-1"><feGaussianBlur result="blurOut" stdDeviation="2.0"/><feColorMatrix in="blurOut" result="blurOut2" type="matrix" values="0 0 0 0 0 0 0 0 0 0 0 0 0 0 0 0 0 0 .4 0"/><feOffset dx="4.0" dy="4.0" in="blurOut2" result="blurOut3"/><feBlend in="SourceGraphic" in2="blurOut3" mode="normal"/></filter></defs><g><!--cluster org.jgrapes.http--><polygon fill="#FFFFFF" filter="url(#f10j8a7kv5io05)" points="268.5,24,402.5,24,409.5,46.2969,412.5,46.2969,412.5,123,268.5,123,268.5,24" style="stroke: #000000; stroke-width: 2.0;"/><line style="stroke: #000000; stroke-width: 2.0;" x1="268.5" x2="409.5" y1="46.2969" y2="46.2969"/><text fill="#000000" font-family="sans-serif" font-size="14" font-weight="bold" lengthAdjust="spacingAndGlyphs" textLength="128" x="272.5" y="38.9951">org.jgrapes.http</text><!--class Session--><rect fill="#FEFECE" filter="url(#f10j8a7kv5io05)" height="48" id="Session" style="stroke: #A80036; stroke-width: 1.5;" width="81" x="287" y="59"/><ellipse cx="302" cy="75" fill="#ADD1B2" rx="11" ry="11" style="stroke: #A80036; stroke-width: 1.0;"/><path d="M304.9688,80.6406 Q304.3906,80.9375 303.75,81.0781 Q303.1094,81.2344 302.4063,81.2344 Q299.9063,81.2344 298.5781,79.5938 Q297.2656,77.9375 297.2656,74.8125 Q297.2656,71.6875 298.5781,70.0313 Q299.9063,68.375 302.4063,68.375 Q303.1094,68.375 303.75,68.5313 Q304.4063,68.6875 304.9688,68.9844 L304.9688,71.7031 Q304.3438,71.125 303.75,70.8594 Q303.1563,70.5781 302.5313,70.5781 Q301.1875,70.5781 300.5,71.6563 Q299.8125,72.7188 299.8125,74.8125 Q299.8125,76.9063 300.5,77.9844 Q301.1875,79.0469 302.5313,79.0469 Q303.1563,79.0469 303.75,78.7813 Q304.3438,78.5 304.9688,77.9219 L304.9688,80.6406 Z "/><text fill="#000000" font-family="sans-serif" font-size="12" lengthAdjust="spacingAndGlyphs" textLength="49" x="316" y="79.1543">Session</text><line style="stroke: #A80036; stroke-width: 1.5;" x1="288" x2="367" y1="91" y2="91"/><line style="stroke: #A80036; stroke-width: 1.5;" x1="288" x2="367" y1="99" y2="99"/><!--class ConsoleSession--><rect fill="#FEFECE" filter="url(#f10j8a7kv5io05)" height="188.8516" id="ConsoleSession" style="stroke: #A80036; stroke-width: 1.5;" width="469" x="6" y="186"/><ellipse cx="186.75" cy="202" fill="#ADD1B2" rx="11" ry="11" style="stroke: #A80036; stroke-width: 1.0;"/><path d="M189.7188,207.6406 Q189.1406,207.9375 188.5,208.0781 Q187.8594,208.2344 187.1563,208.2344 Q184.6563,208.2344 183.3281,206.5938 Q182.0156,204.9375 182.0156,201.8125 Q182.0156,198.6875 183.3281,197.0313 Q184.6563,195.375 187.1563,195.375 Q187.8594,195.375 188.5,195.5313 Q189.1563,195.6875 189.7188,195.9844 L189.7188,198.7031 Q189.0938,198.125 188.5,197.8594 Q187.9063,197.5781 187.2813,197.5781 Q185.9375,197.5781 185.25,198.6563 Q184.5625,199.7188 184.5625,201.8125 Q184.5625,203.9063 185.25,204.9844 Q185.9375,206.0469 187.2813,206.0469 Q187.9063,206.0469 188.5,205.7813 Q189.0938,205.5 189.7188,204.9219 L189.7188,207.6406 Z "/><text fill="#000000" font-family="sans-serif" font-size="12" lengthAdjust="spacingAndGlyphs" textLength="99" x="207.25" y="206.1543">ConsoleSession</text><line style="stroke: #A80036; stroke-width: 1.5;" x1="7" x2="474" y1="218" y2="218"/><rect fill="none" height="6" style="stroke: #C82930; stroke-width: 1.0;" width="6" x="14" y="226.9023"/><text fill="#000000" font-family="sans-serif" font-size="11" lengthAdjust="spacingAndGlyphs" text-decoration="underline" textLength="272" x="26" y="232.2104">Map&lt;String,ConsoleSession&gt; consoleSessions</text><line style="stroke: #000000; stroke-width: 1.0;" x1="26" x2="298" y1="234.2104" y2="234.2104"/><line style="stroke: #A80036; stroke-width: 1.5;" x1="7" x2="474" y1="238.8047" y2="238.8047"/><ellipse cx="17" cy="250.707" fill="#84BE84" rx="3" ry="3" style="stroke: #038048; stroke-width: 1.0;"/><text fill="#000000" font-family="sans-serif" font-size="11" lengthAdjust="spacingAndGlyphs" text-decoration="underline" textLength="443" x="26" y="253.0151">findOrCreate(String consoleSessionId, Manager component): ConsoleSession</text><line style="stroke: #000000; stroke-width: 1.0;" x1="26" x2="469" y1="255.0151" y2="255.0151"/><ellipse cx="17" cy="263.5117" fill="#84BE84" rx="3" ry="3" style="stroke: #038048; stroke-width: 1.0;"/><text fill="#000000" font-family="sans-serif" font-size="11" lengthAdjust="spacingAndGlyphs" textLength="247" x="26" y="265.8198">setTimeout(timeout: long): ConsoleSession</text><ellipse cx="17" cy="276.3164" fill="#84BE84" rx="3" ry="3" style="stroke: #038048; stroke-width: 1.0;"/><text fill="#000000" font-family="sans-serif" font-size="11" lengthAdjust="spacingAndGlyphs" textLength="81" x="26" y="278.6245">refresh(): void</text><ellipse cx="17" cy="289.1211" fill="#84BE84" rx="3" ry="3" style="stroke: #038048; stroke-width: 1.0;"/><text fill="#000000" font-family="sans-serif" font-size="11" lengthAdjust="spacingAndGlyphs" textLength="411" x="26" y="291.4292">setUpstreamChannel(IOSubchannel upstreamChannel): ConsoleSession</text><ellipse cx="17" cy="301.9258" fill="#84BE84" rx="3" ry="3" style="stroke: #038048; stroke-width: 1.0;"/><text fill="#000000" font-family="sans-serif" font-size="11" lengthAdjust="spacingAndGlyphs" textLength="315" x="26" y="304.2339">setSession(Session browserSession): ConsoleSession</text><ellipse cx="17" cy="314.7305" fill="#84BE84" rx="3" ry="3" style="stroke: #038048; stroke-width: 1.0;"/><text fill="#000000" font-family="sans-serif" font-size="11" lengthAdjust="spacingAndGlyphs" textLength="260" x="26" y="317.0386">upstreamChannel(): Optional&lt;IOSubchannel&gt;</text><ellipse cx="17" cy="327.5352" fill="#84BE84" rx="3" ry="3" style="stroke: #038048; stroke-width: 1.0;"/><text fill="#000000" font-family="sans-serif" font-size="11" lengthAdjust="spacingAndGlyphs" textLength="150" x="26" y="329.8433">consoleSessionId(): String</text><ellipse cx="17" cy="340.3398" fill="#84BE84" rx="3" ry="3" style="stroke: #038048; stroke-width: 1.0;"/><text fill="#000000" font-family="sans-serif" font-size="11" lengthAdjust="spacingAndGlyphs" textLength="155" x="26" y="342.6479">browserSession(): Session</text><ellipse cx="17" cy="353.1445" fill="#84BE84" rx="3" ry="3" style="stroke: #038048; stroke-width: 1.0;"/><text fill="#000000" font-family="sans-serif" font-size="11" lengthAdjust="spacingAndGlyphs" textLength="85" x="26" y="355.4526">locale(): Locale</text><ellipse cx="17" cy="365.9492" fill="#84BE84" rx="3" ry="3" style="stroke: #038048; stroke-width: 1.0;"/><text fill="#000000" font-family="sans-serif" font-size="11" lengthAdjust="spacingAndGlyphs" textLength="166" x="26" y="368.2573">setLocale(Locale locale): void</text><!--class IOSubchannel--><rect fill="#FEFECE" filter="url(#f10j8a7kv5io05)" height="48" id="IOSubchannel" style="stroke: #A80036; stroke-width: 1.5;" width="118" x="133.5" y="59"/><ellipse cx="148.5" cy="75" fill="#B4A7E5" rx="11" ry="11" style="stroke: #A80036; stroke-width: 1.0;"/><path d="M144.4219,70.7656 L144.4219,68.6094 L151.8125,68.6094 L151.8125,70.7656 L149.3438,70.7656 L149.3438,78.8438 L151.8125,78.8438 L151.8125,81 L144.4219,81 L144.4219,78.8438 L146.8906,78.8438 L146.8906,70.7656 L144.4219,70.7656 Z "/><text fill="#000000" font-family="sans-serif" font-size="12" font-style="italic" lengthAdjust="spacingAndGlyphs" textLength="86" x="162.5" y="79.1543">IOSubchannel</text><line style="stroke: #A80036; stroke-width: 1.5;" x1="134.5" x2="250.5" y1="91" y2="91"/><line style="stroke: #A80036; stroke-width: 1.5;" x1="134.5" x2="250.5" y1="99" y2="99"/><!--link IOSubchannel to ConsoleSession--><path d="M203.017,126.833 C207.299,144.274 212.429,165.168 217.499,185.819 " fill="none" id="IOSubchannel-ConsoleSession" style="stroke: #A80036; stroke-width: 1.0; stroke-dasharray: 7.0,7.0;"/><polygon fill="none" points="196.166,128.286,198.195,107.194,209.762,124.948,196.166,128.286" style="stroke: #A80036; stroke-width: 1.0;"/><!--link ConsoleSession to ConsoleSession--><path d="M488.03,263.869 C501.801,267.907 510,273.45 510,280.5 C510,289.5234 496.567,296.0795 475.21,300.1683 " fill="none" id="ConsoleSession-ConsoleSession" style="stroke: #A80036; stroke-width: 1.0;"/><polygon fill="#A80036" points="475.21,260.832,480.1262,266.1075,486.8867,263.5985,481.9706,258.323,475.21,260.832" style="stroke: #A80036; stroke-width: 1.0;"/><text fill="#000000" font-family="sans-serif" font-size="13" lengthAdjust="spacingAndGlyphs" textLength="63" x="516" y="285.0669">maintains</text><text fill="#000000" font-family="sans-serif" font-size="13" lengthAdjust="spacingAndGlyphs" textLength="8" x="483.0427" y="257.0121">1</text><text fill="#000000" font-family="sans-serif" font-size="13" lengthAdjust="spacingAndGlyphs" textLength="7" x="483.0263" y="297.6391">*</text><!--link Session to ConsoleSession--><path d="M315.042,111.994 C306.338,131.554 294.172,158.892 282.189,185.819 " fill="none" id="Session-ConsoleSession" style="stroke: #A80036; stroke-width: 1.0;"/><polygon fill="#A80036" points="317.178,107.194,309.8639,113.7897,315.1448,111.7619,317.1726,117.0429,317.178,107.194" style="stroke: #A80036; stroke-width: 1.0;"/><text fill="#000000" font-family="sans-serif" font-size="13" lengthAdjust="spacingAndGlyphs" textLength="102" x="302.5" y="152.0669">browser session</text><text fill="#000000" font-family="sans-serif" font-size="13" lengthAdjust="spacingAndGlyphs" textLength="8" x="305.687" y="127.0025">1</text><text fill="#000000" font-family="sans-serif" font-size="13" lengthAdjust="spacingAndGlyphs" textLength="7" x="278.1128" y="175.0734">*</text><!--
@startuml
class ConsoleSession {
  -{static}Map<String,ConsoleSession> consoleSessions
  +{static}findOrCreate(String consoleSessionId, Manager component): ConsoleSession
  +setTimeout(timeout: long): ConsoleSession
  +refresh(): void
  +setUpstreamChannel(IOSubchannel upstreamChannel): ConsoleSession
  +setSession(Session browserSession): ConsoleSession
  +upstreamChannel(): Optional<IOSubchannel>
  +consoleSessionId(): String
  +browserSession(): Session
  +locale(): Locale
  +setLocale(Locale locale): void
 }
 Interface IOSubchannel {
 }
 IOSubchannel <|.. ConsoleSession

 ConsoleSession "1" *- - "*" ConsoleSession : maintains
 
 package org.jgrapes.http {
     class Session
 }
 
 ConsoleSession "*" -up-> "1" Session: browser session
@enduml

PlantUML version 1.2017.18(Fri Oct 06 16:56:32 UTC 2017)
(GPL source distribution)
Java Runtime: OpenJDK Runtime Environment
JVM: OpenJDK 64-Bit Server VM
Java Version: 1.8.0_242-8u242-b08-0ubuntu3~16.04-b08
Operating System: Linux
OS Version: 4.15.0-1055-gcp
Default Encoding: UTF-8
Language: en
Country: US
--></g></svg>