<?xml version="1.0" encoding="us-ascii" standalone="no"?><svg xmlns="http://www.w3.org/2000/svg" xmlns:xlink="http://www.w3.org/1999/xlink" contentStyleType="text/css" height="260px" preserveAspectRatio="none" style="width:851px;height:260px;background:#FFFFFF;" version="1.1" viewBox="0 0 851 260" width="851px" zoomAndPan="magnify"><defs/><g><!--cluster Conceptual WebConsole\n(WebConsole Gateway)--><g id="cluster_Conceptual WebConsole\n(WebConsole Gateway)"><rect fill="none" height="103" rx="2.5" ry="2.5" style="stroke:#000000;stroke-width:1.5;" width="285" x="373" y="7"/><text fill="#000000" font-family="sans-serif" font-size="14" font-weight="bold" lengthAdjust="spacing" textLength="193" x="419" y="21.9951">Conceptual WebConsole</text><text fill="#000000" font-family="sans-serif" font-size="14" font-weight="bold" lengthAdjust="spacing" textLength="185" x="423" y="38.292">(WebConsole Gateway)</text></g><g id="elem_webConsole"><rect fill="#F1F1F1" height="36.2969" style="stroke:#181818;stroke-width:0.5;" width="100" x="542" y="58"/><text fill="#000000" font-family="sans-serif" font-size="14" lengthAdjust="spacing" textLength="86" x="549" y="72.9951">webConsole</text><line style="stroke:#181818;stroke-width:0.5;" x1="543" x2="641" y1="78.2969" y2="78.2969"/></g><g id="elem_consoleWeblet"><rect fill="#F1F1F1" height="36.2969" style="stroke:#181818;stroke-width:0.5;" width="117" x="389.5" y="58"/><text fill="#000000" font-family="sans-serif" font-size="14" lengthAdjust="spacing" textLength="103" x="396.5" y="72.9951">consoleWeblet</text><line style="stroke:#181818;stroke-width:0.5;" x1="390.5" x2="505.5" y1="78.2969" y2="78.2969"/></g><g id="elem_webletChannel"><rect fill="#F1F1F1" height="36.2969" style="stroke:#181818;stroke-width:0.5;" width="117" x="106.5" y="218"/><text fill="#000000" font-family="sans-serif" font-size="14" lengthAdjust="spacing" textLength="103" x="113.5" y="232.9951">webletChannel</text><line style="stroke:#181818;stroke-width:0.5;" x1="107.5" x2="222.5" y1="238.2969" y2="238.2969"/></g><g id="elem_consoleChannel"><rect fill="#F1F1F1" height="36.2969" style="stroke:#181818;stroke-width:0.5;" width="126" x="676" y="218"/><text fill="#000000" font-family="sans-serif" font-size="14" lengthAdjust="spacing" textLength="112" x="683" y="232.9951">consoleChannel</text><line style="stroke:#181818;stroke-width:0.5;" x1="677" x2="801" y1="238.2969" y2="238.2969"/></g><g id="elem_httpServer"><rect fill="#F1F1F1" height="36.2969" style="stroke:#181818;stroke-width:0.5;" width="86" x="7" y="58"/><text fill="#000000" font-family="sans-serif" font-size="14" lengthAdjust="spacing" textLength="72" x="14" y="72.9951">httpServer</text><line style="stroke:#181818;stroke-width:0.5;" x1="8" x2="92" y1="78.2969" y2="78.2969"/></g><g id="elem_sessionManager"><rect fill="#F1F1F1" height="36.2969" style="stroke:#181818;stroke-width:0.5;" width="128" x="128" y="58"/><text fill="#000000" font-family="sans-serif" font-size="14" lengthAdjust="spacing" textLength="114" x="135" y="72.9951">sessionManager</text><line style="stroke:#181818;stroke-width:0.5;" x1="129" x2="255" y1="78.2969" y2="78.2969"/></g><g id="elem_conletA"><rect fill="#F1F1F1" height="36.2969" style="stroke:#181818;stroke-width:0.5;" width="66" x="677" y="58"/><text fill="#000000" font-family="sans-serif" font-size="14" lengthAdjust="spacing" textLength="52" x="684" y="72.9951">conletA</text><line style="stroke:#181818;stroke-width:0.5;" x1="678" x2="742" y1="78.2969" y2="78.2969"/></g><g id="elem_conletB"><rect fill="#F1F1F1" height="36.2969" style="stroke:#181818;stroke-width:0.5;" width="67" x="778.5" y="58"/><text fill="#000000" font-family="sans-serif" font-size="14" lengthAdjust="spacing" textLength="53" x="785.5" y="72.9951">conletB</text><line style="stroke:#181818;stroke-width:0.5;" x1="779.5" x2="844.5" y1="78.2969" y2="78.2969"/></g><g id="elem_consoleConnection"><rect fill="#F1F1F1" height="36.2969" style="stroke:#181818;stroke-width:0.5;" width="295" x="258.5" y="218"/><text fill="#000000" font-family="sans-serif" font-size="14" lengthAdjust="spacing" textLength="281" x="265.5" y="232.9951">consoleConnection: ConsoleConnection</text><line style="stroke:#181818;stroke-width:0.5;" x1="259.5" x2="552.5" y1="238.2969" y2="238.2969"/></g><!--link httpServer to webletChannel--><g id="link_httpServer_webletChannel"><path codeLine="8" d="M62.53,94.21 C84.65,124.6 130.38,187.43 152.49,217.81 " fill="none" id="httpServer-webletChannel" style="stroke:#181818;stroke-width:1.0;"/></g><!--link sessionManager to webletChannel--><g id="link_sessionManager_webletChannel"><path codeLine="11" d="M189.06,94.21 C183.87,124.6 173.13,187.43 167.94,217.81 " fill="none" id="sessionManager-webletChannel" style="stroke:#181818;stroke-width:1.0;"/></g><!--reverse link consoleWeblet to webConsole--><g id="link_consoleWeblet_webConsole"><path codeLine="17" d="M518.78,76 C530.43,76 530.08,76 541.73,76 " fill="none" id="consoleWeblet-backto-webConsole" style="stroke:#181818;stroke-width:1.0;"/><polygon fill="#181818" points="506.78,76,512.78,80,518.78,76,512.78,72,506.78,76" style="stroke:#181818;stroke-width:1.0;"/><text fill="#000000" font-family="sans-serif" font-size="13" lengthAdjust="spacing" textLength="8" x="514.4313" y="72.1428">1</text><text fill="#000000" font-family="sans-serif" font-size="13" lengthAdjust="spacing" textLength="8" x="526.0983" y="72.0007">1</text></g><!--link consoleWeblet to webletChannel--><g id="link_consoleWeblet_webletChannel"><path codeLine="20" d="M404.3,94.02 C383.02,102.8 357.27,114.13 335,126 C280.86,154.86 221.3,195.2 189.03,217.84 " fill="none" id="consoleWeblet-webletChannel" style="stroke:#181818;stroke-width:1.0;"/><text fill="#000000" font-family="sans-serif" font-size="13" lengthAdjust="spacing" textLength="43" x="346" y="139.0669">onGet,</text><text fill="#000000" font-family="sans-serif" font-size="13" lengthAdjust="spacing" textLength="52" x="341.5" y="154.1997">onInput,</text><text fill="#000000" font-family="sans-serif" font-size="13" lengthAdjust="spacing" textLength="63" x="336" y="169.3325">onClosed,</text><text fill="#000000" font-family="sans-serif" font-size="13" lengthAdjust="spacing" textLength="12" x="361.5" y="184.4653">...</text></g><!--link consoleWeblet to consoleChannel--><g id="link_consoleWeblet_consoleChannel"><path codeLine="21" d="M442.49,94.03 C435.88,118.1 428.3,162.01 451,188 C465.62,204.74 595.55,220.62 675.81,228.95 " fill="none" id="consoleWeblet-consoleChannel" style="stroke:#181818;stroke-width:1.0;"/><text fill="#000000" font-family="sans-serif" font-size="13" lengthAdjust="spacing" textLength="110" x="466" y="146.5669">onConsoleReady,</text><text fill="#000000" font-family="sans-serif" font-size="13" lengthAdjust="spacing" textLength="138" x="452" y="161.6997">onConsoleCommand,</text><text fill="#000000" font-family="sans-serif" font-size="13" lengthAdjust="spacing" textLength="12" x="515" y="176.8325">...</text></g><!--link webConsole to consoleChannel--><g id="link_webConsole_consoleChannel"><path codeLine="23" d="M593.57,94.22 C596.62,118.12 605.37,161.39 630,188 C642.39,201.38 659.24,211.13 675.98,218.16 " fill="none" id="webConsole-consoleChannel" style="stroke:#181818;stroke-width:1.0;"/><text fill="#000000" font-family="sans-serif" font-size="13" lengthAdjust="spacing" textLength="83" x="631" y="161.5669">(all handlers)</text></g><!--link conletA to consoleChannel--><g id="link_conletA_consoleChannel"><path codeLine="26" d="M715.05,94.12 C717.69,103.48 720.8,115.31 723,126 C729.62,158.22 734.57,196.35 737.1,217.9 " fill="none" id="conletA-consoleChannel" style="stroke:#181818;stroke-width:1.0;"/></g><!--link conletB to consoleChannel--><g id="link_conletB_consoleChannel"><path codeLine="29" d="M804.05,94.21 C790.01,124.6 760.98,187.43 746.94,217.81 " fill="none" id="conletB-consoleChannel" style="stroke:#181818;stroke-width:1.0;"/></g><!--link consoleConnection to consoleChannel--><g id="link_consoleConnection_consoleChannel"><path codeLine="32" d="M553.51,236 C596.48,236 635.16,236 669.9,236 " fill="none" id="consoleConnection-to-consoleChannel" style="stroke:#181818;stroke-width:1.0;"/><polygon fill="#181818" points="675.9,236,666.9,232,670.9,236,666.9,240,675.9,236" style="stroke:#181818;stroke-width:1.0;"/><text fill="#000000" font-family="sans-serif" font-size="13" lengthAdjust="spacing" textLength="86" x="571.75" y="229.0669">main channel</text></g><!--reverse link consoleWeblet to consoleConnection--><g id="link_consoleWeblet_consoleConnection"><path codeLine="33" d="M430.0996,104.6797 C424.5896,113.7297 424.67,114.94 421,126 C410.6,157.37 407.41,196.12 406.43,217.95 " fill="none" id="consoleWeblet-backto-consoleConnection" style="stroke:#181818;stroke-width:1.0;"/><polygon fill="#181818" points="436.34,94.43,429.8032,97.4747,430.0996,104.6797,436.6364,101.635,436.34,94.43" style="stroke:#181818;stroke-width:1.0;"/></g><!--link webConsole to conletA--><!--link conletA to conletB--><!--link webletChannel to consoleConnection--><!--SRC=[VP4zJyCm48Pt_ugJfxOYaLWh5fgXOc2XGmUAq3Kv4bFd7CKkfKByTzmcpRVmTBvxxhqlUr1SO8av51WVCAMDEsk2acA7d6eIW5gRqtkklXMd0WIO_QSFmedscboK8JFfnXiRjaPJusu2cNF5XielAaN7XY0O2ZKPbgnLXf-HVLS-g_-VpAn701aPZgbmHzImfNrKDRNZMVk1DJewuNakuKU0V-rODT7rrcDjhmKlbVnhIP3t4W9D7ovONEq1_kjvqNUEseSbICDhSdSxDlp4nR6o8cqi9TuCmr1EYFGNNgdKRRqG9kTAf8PCdYEtOg8xmwJMp1yV_3VHLDgvx5p7ixw3Ht4pnlaZU7M3L__2yXOnFX0xV_8bH4EN1BGm0iLmX8VgAcFoCboEYY6koD5g5y5Krd1dfKepzvgf925-2oQMCWcinE3s4rY_y1y0]--></g></svg>