<?xml version="1.0" encoding="us-ascii" standalone="no"?><svg xmlns="http://www.w3.org/2000/svg" xmlns:xlink="http://www.w3.org/1999/xlink" contentStyleType="text/css" height="301px" preserveAspectRatio="none" style="width:905px;height:301px;background:#FFFFFF;" version="1.1" viewBox="0 0 905 301" width="905px" zoomAndPan="magnify"><defs/><g><!--cluster Conceptual WebConsole\n(WebConsole Gateway)--><g id="cluster_Conceptual WebConsole\n(WebConsole Gateway)"><rect fill="none" height="115" rx="2.5" ry="2.5" style="stroke:#000000;stroke-width:1.5;" width="325" x="488.5" y="71.7"/><text fill="#000000" font-family="sans-serif" font-size="14" font-weight="bold" lengthAdjust="spacing" textLength="193" x="554.5" y="86.6951">Conceptual WebConsole</text><text fill="#000000" font-family="sans-serif" font-size="14" font-weight="bold" lengthAdjust="spacing" textLength="185" x="558.5" y="102.992">(WebConsole Gateway)</text></g><!--class WebConsole--><g id="elem_WebConsole"><rect codeLine="7" fill="#F1F1F1" height="48" id="WebConsole" rx="2.5" ry="2.5" style="stroke:#181818;stroke-width:0.5;" width="120" x="677.5" y="122.7"/><ellipse cx="692.5" cy="138.7" fill="#ADD1B2" rx="11" ry="11" style="stroke:#181818;stroke-width:1.0;"/><path d="M695.4688,144.3406 Q694.8906,144.6375 694.25,144.7781 Q693.6094,144.9344 692.9063,144.9344 Q690.4063,144.9344 689.0781,143.2938 Q687.7656,141.6375 687.7656,138.5125 Q687.7656,135.3875 689.0781,133.7313 Q690.4063,132.075 692.9063,132.075 Q693.6094,132.075 694.25,132.2313 Q694.9063,132.3875 695.4688,132.6844 L695.4688,135.4031 Q694.8438,134.825 694.25,134.5594 Q693.6563,134.2781 693.0313,134.2781 Q691.6875,134.2781 691,135.3563 Q690.3125,136.4188 690.3125,138.5125 Q690.3125,140.6063 691,141.6844 Q691.6875,142.7469 693.0313,142.7469 Q693.6563,142.7469 694.25,142.4813 Q694.8438,142.2 695.4688,141.6219 L695.4688,144.3406 Z " fill="#000000"/><text fill="#000000" font-family="sans-serif" font-size="14" lengthAdjust="spacing" textLength="88" x="706.5" y="143.5467">WebConsole</text><line style="stroke:#181818;stroke-width:0.5;" x1="678.5" x2="796.5" y1="154.7" y2="154.7"/><line style="stroke:#181818;stroke-width:0.5;" x1="678.5" x2="796.5" y1="162.7" y2="162.7"/></g><!--class ConsoleWeblet--><g id="elem_ConsoleWeblet"><rect codeLine="8" fill="#F1F1F1" height="48" id="ConsoleWeblet" rx="2.5" ry="2.5" style="stroke:#181818;stroke-width:0.5;" width="137" x="505" y="122.7"/><ellipse cx="520" cy="138.7" fill="#ADD1B2" rx="11" ry="11" style="stroke:#181818;stroke-width:1.0;"/><path d="M522.9688,144.3406 Q522.3906,144.6375 521.75,144.7781 Q521.1094,144.9344 520.4063,144.9344 Q517.9063,144.9344 516.5781,143.2938 Q515.2656,141.6375 515.2656,138.5125 Q515.2656,135.3875 516.5781,133.7313 Q517.9063,132.075 520.4063,132.075 Q521.1094,132.075 521.75,132.2313 Q522.4063,132.3875 522.9688,132.6844 L522.9688,135.4031 Q522.3438,134.825 521.75,134.5594 Q521.1563,134.2781 520.5313,134.2781 Q519.1875,134.2781 518.5,135.3563 Q517.8125,136.4188 517.8125,138.5125 Q517.8125,140.6063 518.5,141.6844 Q519.1875,142.7469 520.5313,142.7469 Q521.1563,142.7469 521.75,142.4813 Q522.3438,142.2 522.9688,141.6219 L522.9688,144.3406 Z " fill="#000000"/><text fill="#000000" font-family="sans-serif" font-size="14" lengthAdjust="spacing" textLength="105" x="534" y="143.5467">ConsoleWeblet</text><line style="stroke:#181818;stroke-width:0.5;" x1="506" x2="641" y1="154.7" y2="154.7"/><line style="stroke:#181818;stroke-width:0.5;" x1="506" x2="641" y1="162.7" y2="162.7"/></g><!--entity Browser--><g id="elem_Browser"><rect fill="#F1F1F1" height="46.2969" rx="2.5" ry="2.5" style="stroke:#181818;stroke-width:0.5;" width="97" x="373" y="123.7"/><rect fill="#F1F1F1" height="10" style="stroke:#181818;stroke-width:0.5;" width="15" x="450" y="128.7"/><rect fill="#F1F1F1" height="2" style="stroke:#181818;stroke-width:0.5;" width="4" x="448" y="130.7"/><rect fill="#F1F1F1" height="2" style="stroke:#181818;stroke-width:0.5;" width="4" x="448" y="134.7"/><text fill="#000000" font-family="sans-serif" font-size="14" lengthAdjust="spacing" textLength="57" x="388" y="156.6951">Browser</text></g><!--class ConletB--><g id="elem_ConletB"><rect fill="#F1F1F1" height="48" id="ConletB" rx="2.5" ry="2.5" style="stroke:#181818;stroke-width:0.5;" width="87" x="7" y="122.7"/><ellipse cx="22" cy="138.7" fill="#ADD1B2" rx="11" ry="11" style="stroke:#181818;stroke-width:1.0;"/><path d="M24.9688,144.3406 Q24.3906,144.6375 23.75,144.7781 Q23.1094,144.9344 22.4063,144.9344 Q19.9063,144.9344 18.5781,143.2938 Q17.2656,141.6375 17.2656,138.5125 Q17.2656,135.3875 18.5781,133.7313 Q19.9063,132.075 22.4063,132.075 Q23.1094,132.075 23.75,132.2313 Q24.4063,132.3875 24.9688,132.6844 L24.9688,135.4031 Q24.3438,134.825 23.75,134.5594 Q23.1563,134.2781 22.5313,134.2781 Q21.1875,134.2781 20.5,135.3563 Q19.8125,136.4188 19.8125,138.5125 Q19.8125,140.6063 20.5,141.6844 Q21.1875,142.7469 22.5313,142.7469 Q23.1563,142.7469 23.75,142.4813 Q24.3438,142.2 24.9688,141.6219 L24.9688,144.3406 Z " fill="#000000"/><text fill="#000000" font-family="sans-serif" font-size="14" lengthAdjust="spacing" textLength="55" x="36" y="143.5467">ConletB</text><line style="stroke:#181818;stroke-width:0.5;" x1="8" x2="93" y1="154.7" y2="154.7"/><line style="stroke:#181818;stroke-width:0.5;" x1="8" x2="93" y1="162.7" y2="162.7"/></g><!--class ConletA--><g id="elem_ConletA"><rect fill="#F1F1F1" height="48" id="ConletA" rx="2.5" ry="2.5" style="stroke:#181818;stroke-width:0.5;" width="86" x="251.5" y="122.7"/><ellipse cx="266.5" cy="138.7" fill="#ADD1B2" rx="11" ry="11" style="stroke:#181818;stroke-width:1.0;"/><path d="M269.4688,144.3406 Q268.8906,144.6375 268.25,144.7781 Q267.6094,144.9344 266.9063,144.9344 Q264.4063,144.9344 263.0781,143.2938 Q261.7656,141.6375 261.7656,138.5125 Q261.7656,135.3875 263.0781,133.7313 Q264.4063,132.075 266.9063,132.075 Q267.6094,132.075 268.25,132.2313 Q268.9063,132.3875 269.4688,132.6844 L269.4688,135.4031 Q268.8438,134.825 268.25,134.5594 Q267.6563,134.2781 267.0313,134.2781 Q265.6875,134.2781 265,135.3563 Q264.3125,136.4188 264.3125,138.5125 Q264.3125,140.6063 265,141.6844 Q265.6875,142.7469 267.0313,142.7469 Q267.6563,142.7469 268.25,142.4813 Q268.8438,142.2 269.4688,141.6219 L269.4688,144.3406 Z " fill="#000000"/><text fill="#000000" font-family="sans-serif" font-size="14" lengthAdjust="spacing" textLength="54" x="280.5" y="143.5467">ConletA</text><line style="stroke:#181818;stroke-width:0.5;" x1="252.5" x2="336.5" y1="154.7" y2="154.7"/><line style="stroke:#181818;stroke-width:0.5;" x1="252.5" x2="336.5" y1="162.7" y2="162.7"/></g><!--class ConletAData--><g id="elem_ConletAData"><rect codeLine="20" fill="#F1F1F1" height="64.2969" id="ConletAData" rx="2.5" ry="2.5" style="stroke:#181818;stroke-width:0.5;" width="130" x="190.5" y="230.7"/><ellipse cx="210.9" cy="246.7" fill="#ADD1B2" rx="11" ry="11" style="stroke:#181818;stroke-width:1.0;"/><path d="M213.8688,252.3406 Q213.2906,252.6375 212.65,252.7781 Q212.0094,252.9344 211.3063,252.9344 Q208.8063,252.9344 207.4781,251.2938 Q206.1656,249.6375 206.1656,246.5125 Q206.1656,243.3875 207.4781,241.7313 Q208.8063,240.075 211.3063,240.075 Q212.0094,240.075 212.65,240.2313 Q213.3063,240.3875 213.8688,240.6844 L213.8688,243.4031 Q213.2438,242.825 212.65,242.5594 Q212.0563,242.2781 211.4313,242.2781 Q210.0875,242.2781 209.4,243.3563 Q208.7125,244.4188 208.7125,246.5125 Q208.7125,248.6063 209.4,249.6844 Q210.0875,250.7469 211.4313,250.7469 Q212.0563,250.7469 212.65,250.4813 Q213.2438,250.2 213.8688,249.6219 L213.8688,252.3406 Z " fill="#000000"/><text fill="#000000" font-family="sans-serif" font-size="14" lengthAdjust="spacing" textLength="86" x="226.1" y="251.5467">ConletAData</text><line style="stroke:#181818;stroke-width:0.5;" x1="191.5" x2="319.5" y1="262.7" y2="262.7"/><rect fill="none" height="6" style="stroke:#C82930;stroke-width:1.0;" width="6" x="198.5" y="273.3484"/><text fill="#000000" font-family="sans-serif" font-size="14" lengthAdjust="spacing" textLength="104" x="210.5" y="279.6951">conletId: String</text><line style="stroke:#181818;stroke-width:0.5;" x1="191.5" x2="319.5" y1="286.9969" y2="286.9969"/></g><!--class ConletBData--><g id="elem_ConletBData"><rect codeLine="26" fill="#F1F1F1" height="64.2969" id="ConletBData" rx="2.5" ry="2.5" style="stroke:#181818;stroke-width:0.5;" width="130" x="25.5" y="230.7"/><ellipse cx="45.45" cy="246.7" fill="#ADD1B2" rx="11" ry="11" style="stroke:#181818;stroke-width:1.0;"/><path d="M48.4188,252.3406 Q47.8406,252.6375 47.2,252.7781 Q46.5594,252.9344 45.8563,252.9344 Q43.3563,252.9344 42.0281,251.2938 Q40.7156,249.6375 40.7156,246.5125 Q40.7156,243.3875 42.0281,241.7313 Q43.3563,240.075 45.8563,240.075 Q46.5594,240.075 47.2,240.2313 Q47.8563,240.3875 48.4188,240.6844 L48.4188,243.4031 Q47.7938,242.825 47.2,242.5594 Q46.6063,242.2781 45.9813,242.2781 Q44.6375,242.2781 43.95,243.3563 Q43.2625,244.4188 43.2625,246.5125 Q43.2625,248.6063 43.95,249.6844 Q44.6375,250.7469 45.9813,250.7469 Q46.6063,250.7469 47.2,250.4813 Q47.7938,250.2 48.4188,249.6219 L48.4188,252.3406 Z " fill="#000000"/><text fill="#000000" font-family="sans-serif" font-size="14" lengthAdjust="spacing" textLength="87" x="60.55" y="251.5467">ConletBData</text><line style="stroke:#181818;stroke-width:0.5;" x1="26.5" x2="154.5" y1="262.7" y2="262.7"/><rect fill="none" height="6" style="stroke:#C82930;stroke-width:1.0;" width="6" x="33.5" y="273.3484"/><text fill="#000000" font-family="sans-serif" font-size="14" lengthAdjust="spacing" textLength="104" x="45.5" y="279.6951">conletId: String</text><line style="stroke:#181818;stroke-width:0.5;" x1="26.5" x2="154.5" y1="286.9969" y2="286.9969"/></g><!--class Session--><g id="elem_Session"><rect fill="#F1F1F1" height="48" id="Session" rx="2.5" ry="2.5" style="stroke:#181818;stroke-width:0.5;" width="87" x="129" y="122.7"/><ellipse cx="144" cy="138.7" fill="#ADD1B2" rx="11" ry="11" style="stroke:#181818;stroke-width:1.0;"/><path d="M146.9688,144.3406 Q146.3906,144.6375 145.75,144.7781 Q145.1094,144.9344 144.4063,144.9344 Q141.9063,144.9344 140.5781,143.2938 Q139.2656,141.6375 139.2656,138.5125 Q139.2656,135.3875 140.5781,133.7313 Q141.9063,132.075 144.4063,132.075 Q145.1094,132.075 145.75,132.2313 Q146.4063,132.3875 146.9688,132.6844 L146.9688,135.4031 Q146.3438,134.825 145.75,134.5594 Q145.1563,134.2781 144.5313,134.2781 Q143.1875,134.2781 142.5,135.3563 Q141.8125,136.4188 141.8125,138.5125 Q141.8125,140.6063 142.5,141.6844 Q143.1875,142.7469 144.5313,142.7469 Q145.1563,142.7469 145.75,142.4813 Q146.3438,142.2 146.9688,141.6219 L146.9688,144.3406 Z " fill="#000000"/><text fill="#000000" font-family="sans-serif" font-size="14" lengthAdjust="spacing" textLength="55" x="158" y="143.5467">Session</text><line style="stroke:#181818;stroke-width:0.5;" x1="130" x2="215" y1="154.7" y2="154.7"/><line style="stroke:#181818;stroke-width:0.5;" x1="130" x2="215" y1="162.7" y2="162.7"/></g><!--class PageResourceProvider--><g id="elem_PageResourceProvider"><rect fill="#F1F1F1" height="48" id="PageResourceProvider" rx="2.5" ry="2.5" style="stroke:#181818;stroke-width:0.5;" width="190" x="545.5" y="238.7"/><ellipse cx="560.5" cy="254.7" fill="#ADD1B2" rx="11" ry="11" style="stroke:#181818;stroke-width:1.0;"/><path d="M563.4688,260.3406 Q562.8906,260.6375 562.25,260.7781 Q561.6094,260.9344 560.9063,260.9344 Q558.4063,260.9344 557.0781,259.2938 Q555.7656,257.6375 555.7656,254.5125 Q555.7656,251.3875 557.0781,249.7313 Q558.4063,248.075 560.9063,248.075 Q561.6094,248.075 562.25,248.2313 Q562.9063,248.3875 563.4688,248.6844 L563.4688,251.4031 Q562.8438,250.825 562.25,250.5594 Q561.6563,250.2781 561.0313,250.2781 Q559.6875,250.2781 559,251.3563 Q558.3125,252.4188 558.3125,254.5125 Q558.3125,256.6063 559,257.6844 Q559.6875,258.7469 561.0313,258.7469 Q561.6563,258.7469 562.25,258.4813 Q562.8438,258.2 563.4688,257.6219 L563.4688,260.3406 Z " fill="#000000"/><text fill="#000000" font-family="sans-serif" font-size="14" lengthAdjust="spacing" textLength="158" x="574.5" y="259.5467">PageResourceProvider</text><line style="stroke:#181818;stroke-width:0.5;" x1="546.5" x2="734.5" y1="270.7" y2="270.7"/><line style="stroke:#181818;stroke-width:0.5;" x1="546.5" x2="734.5" y1="278.7" y2="278.7"/></g><!--class ConsolePolicy--><g id="elem_ConsolePolicy"><rect fill="#F1F1F1" height="48" id="ConsolePolicy" rx="2.5" ry="2.5" style="stroke:#181818;stroke-width:0.5;" width="128" x="770.5" y="238.7"/><ellipse cx="785.5" cy="254.7" fill="#ADD1B2" rx="11" ry="11" style="stroke:#181818;stroke-width:1.0;"/><path d="M788.4688,260.3406 Q787.8906,260.6375 787.25,260.7781 Q786.6094,260.9344 785.9063,260.9344 Q783.4063,260.9344 782.0781,259.2938 Q780.7656,257.6375 780.7656,254.5125 Q780.7656,251.3875 782.0781,249.7313 Q783.4063,248.075 785.9063,248.075 Q786.6094,248.075 787.25,248.2313 Q787.9063,248.3875 788.4688,248.6844 L788.4688,251.4031 Q787.8438,250.825 787.25,250.5594 Q786.6563,250.2781 786.0313,250.2781 Q784.6875,250.2781 784,251.3563 Q783.3125,252.4188 783.3125,254.5125 Q783.3125,256.6063 784,257.6844 Q784.6875,258.7469 786.0313,258.7469 Q786.6563,258.7469 787.25,258.4813 Q787.8438,258.2 788.4688,257.6219 L788.4688,260.3406 Z " fill="#000000"/><text fill="#000000" font-family="sans-serif" font-size="14" lengthAdjust="spacing" textLength="96" x="799.5" y="259.5467">ConsolePolicy</text><line style="stroke:#181818;stroke-width:0.5;" x1="771.5" x2="897.5" y1="270.7" y2="270.7"/><line style="stroke:#181818;stroke-width:0.5;" x1="771.5" x2="897.5" y1="278.7" y2="278.7"/></g><!--reverse link ConsoleWeblet to WebConsole--><g id="link_ConsoleWeblet_WebConsole"><path codeLine="10" d="M654.05,146.7 C665.85,146.7 665.66,146.7 677.47,146.7 " fill="none" id="ConsoleWeblet-backto-WebConsole" style="stroke:#181818;stroke-width:1.0;"/><polygon fill="#181818" points="642.05,146.7,648.05,150.7,654.05,146.7,648.05,142.7,642.05,146.7" style="stroke:#181818;stroke-width:1.0;"/><text fill="#000000" font-family="sans-serif" font-size="13" lengthAdjust="spacing" textLength="8" x="649.9852" y="142.9538">1</text><text fill="#000000" font-family="sans-serif" font-size="13" lengthAdjust="spacing" textLength="8" x="661.6663" y="142.8609">1</text></g><!--link Browser to ConsoleWeblet--><g id="link_Browser_ConsoleWeblet"><path codeLine="13" d="M470.19,146.7 C481.76,146.7 493.33,146.7 504.89,146.7 " fill="none" id="Browser-ConsoleWeblet" style="stroke:#181818;stroke-width:1.0;"/><text fill="#000000" font-family="sans-serif" font-size="13" lengthAdjust="spacing" textLength="7" x="477.8554" y="142.6533">*</text><text fill="#000000" font-family="sans-serif" font-size="13" lengthAdjust="spacing" textLength="7" x="490.003" y="142.9538">*</text></g><!--link WebConsole to ConletB--><g id="link_WebConsole_ConletB"><path codeLine="17" d="M725.28,122.26 C710.04,94.86 681.14,51.87 642,33.7 C590.3,9.7 179.51,7.29 129,33.7 C93.44,52.3 70.74,95.15 59.34,122.41 " fill="none" id="WebConsole-ConletB" style="stroke:#181818;stroke-width:1.0;"/><text fill="#000000" font-family="sans-serif" font-size="13" lengthAdjust="spacing" textLength="8" x="713.3264" y="111.5577">1</text><text fill="#000000" font-family="sans-serif" font-size="13" lengthAdjust="spacing" textLength="8" x="52.5198" y="111.7443">1</text></g><!--link WebConsole to ConletA--><g id="link_WebConsole_ConletA"><path codeLine="18" d="M725.28,122.26 C710.04,94.86 681.14,51.87 642,33.7 C587.78,8.53 425.97,6 373,33.7 C337.44,52.3 314.74,95.15 303.34,122.41 " fill="none" id="WebConsole-ConletA" style="stroke:#181818;stroke-width:1.0;"/><text fill="#000000" font-family="sans-serif" font-size="13" lengthAdjust="spacing" textLength="8" x="723.2764" y="111.5577">1</text><text fill="#000000" font-family="sans-serif" font-size="13" lengthAdjust="spacing" textLength="8" x="296.5198" y="111.7443">1</text></g><!--link ConletA to ConletAData--><g id="link_ConletA_ConletAData"><path codeLine="24" d="M286.61,170.77 C280.73,187.95 272.64,211.58 266.19,230.45 " fill="none" id="ConletA-ConletAData" style="stroke:#181818;stroke-width:1.0;"/><text fill="#000000" font-family="sans-serif" font-size="13" lengthAdjust="spacing" textLength="8" x="275.5632" y="190.9437">1</text><text fill="#000000" font-family="sans-serif" font-size="13" lengthAdjust="spacing" textLength="7" x="260.6055" y="219.675">*</text></g><!--link ConletB to ConletBData--><g id="link_ConletB_ConletBData"><path codeLine="30" d="M58.59,170.77 C64.62,187.95 72.92,211.58 79.54,230.45 " fill="none" id="ConletB-ConletBData" style="stroke:#181818;stroke-width:1.0;"/><text fill="#000000" font-family="sans-serif" font-size="13" lengthAdjust="spacing" textLength="8" x="51.6381" y="190.9437">1</text><text fill="#000000" font-family="sans-serif" font-size="13" lengthAdjust="spacing" textLength="7" x="69.6932" y="219.675">*</text></g><!--reverse link Session to ConletAData--><g id="link_Session_ConletAData"><path codeLine="32" d="M196.3601,180.4734 C208.8601,197.6534 219.01,211.58 232.75,230.45 " fill="none" id="Session-backto-ConletAData" style="stroke:#181818;stroke-width:1.0;"/><polygon fill="#181818" points="189.3,170.77,189.5956,177.975,196.3601,180.4734,196.0645,173.2683,189.3,170.77" style="stroke:#181818;stroke-width:1.0;"/><text fill="#000000" font-family="sans-serif" font-size="13" lengthAdjust="spacing" textLength="8" x="184.58" y="190.9437">1</text><text fill="#000000" font-family="sans-serif" font-size="13" lengthAdjust="spacing" textLength="7" x="220.582" y="219.675">*</text></g><!--reverse link Session to ConletBData--><g id="link_Session_ConletBData"><path codeLine="33" d="M148.9019,180.511 C136.5419,197.691 126.55,211.58 112.97,230.45 " fill="none" id="Session-backto-ConletBData" style="stroke:#181818;stroke-width:1.0;"/><polygon fill="#181818" points="155.91,170.77,149.159,173.3045,148.9019,180.511,155.653,177.9765,155.91,170.77" style="stroke:#181818;stroke-width:1.0;"/><text fill="#000000" font-family="sans-serif" font-size="13" lengthAdjust="spacing" textLength="8" x="142.6338" y="190.9437">1</text><text fill="#000000" font-family="sans-serif" font-size="13" lengthAdjust="spacing" textLength="7" x="109.7047" y="219.675">*</text></g><!--link WebConsole to PageResourceProvider--><g id="link_WebConsole_PageResourceProvider"><path codeLine="36" d="M717.87,170.77 C701.04,190.55 676.92,218.9 660.1,238.66 " fill="none" id="WebConsole-PageResourceProvider" style="stroke:#181818;stroke-width:1.0;"/><text fill="#000000" font-family="sans-serif" font-size="13" lengthAdjust="spacing" textLength="8" x="703.8148" y="190.9437">1</text><text fill="#000000" font-family="sans-serif" font-size="13" lengthAdjust="spacing" textLength="7" x="657.2256" y="227.6618">*</text></g><!--link WebConsole to ConsolePolicy--><g id="link_WebConsole_ConsolePolicy"><path codeLine="37" d="M757.13,170.77 C773.96,190.55 798.08,218.9 814.9,238.66 " fill="none" id="WebConsole-ConsolePolicy" style="stroke:#181818;stroke-width:1.0;"/><text fill="#000000" font-family="sans-serif" font-size="13" lengthAdjust="spacing" textLength="8" x="753.1352" y="190.9437">1</text><text fill="#000000" font-family="sans-serif" font-size="13" lengthAdjust="spacing" textLength="7" x="801.9806" y="227.6618">*</text></g><!--SRC=[bL8zJyGm39t9hx0wmKaTMDaeI8YjeWCB4ZAfwKMNnbMIKYh4VoT9Uz0xKS5vib-Udx_YTifqQB653kKE6whyg0aiIO-cqIG0jURXkLNloZG214XkEpPaF1IM1qSsWdCoP3Ti97M-HmsFz18YnvgUpFbF07VeQS3n8eCF0S6aHkSMR05dUt16mfic7-i4MoXbbndacbvzlad-4VqpPXnWa6ts6SbTJE2v8Ryb6viIlvIngjd6hAbCq2h-nRgUrBx7YT0jUfndXrmcxBw-WihRj6AO6eS3Ucgyx_wGBawJBjQaqsnhBKoxhiWvnMPDx8YKoXulg-R1J7Semzzv8CUzbLHQVbDrFCewVuPBragENm00]--></g></svg>