<?xml version="1.0" encoding="UTF-8" standalone="no"?><svg xmlns="http://www.w3.org/2000/svg" xmlns:xlink="http://www.w3.org/1999/xlink" contentScriptType="application/ecmascript" contentStyleType="text/css" height="390px" preserveAspectRatio="none" style="width:686px;height:390px;" version="1.1" viewBox="0 0 686 390" width="686px" zoomAndPan="magnify"><defs><filter height="300%" id="f1uu5sp7bbq4fy" width="300%" x="-1" y="-1"><feGaussianBlur result="blurOut" stdDeviation="2.0"/><feColorMatrix in="blurOut" result="blurOut2" type="matrix" values="0 0 0 0 0 0 0 0 0 0 0 0 0 0 0 0 0 0 .4 0"/><feOffset dx="4.0" dy="4.0" in="blurOut2" result="blurOut3"/><feBlend in="SourceGraphic" in2="blurOut3" mode="normal"/></filter></defs><g><!--cluster Conceptual WebConsole\n(WebConsole Gateway)--><rect fill="#FFFFFF" filter="url(#f1uu5sp7bbq4fy)" height="99" style="stroke: #000000; stroke-width: 2.0;" width="286" x="109.5" y="59"/><text fill="#000000" font-family="sans-serif" font-size="14" font-weight="bold" lengthAdjust="spacingAndGlyphs" textLength="193" x="156" y="73.9951">Conceptual WebConsole</text><text fill="#000000" font-family="sans-serif" font-size="14" font-weight="bold" lengthAdjust="spacingAndGlyphs" textLength="185" x="160" y="90.292">(WebConsole Gateway)</text><!--cluster ##18--><!--class WebConsole--><rect fill="#FEFECE" filter="url(#f1uu5sp7bbq4fy)" height="48" id="WebConsole" style="stroke: #A80036; stroke-width: 1.5;" width="109" x="278" y="102"/><ellipse cx="293" cy="118" fill="#ADD1B2" rx="11" ry="11" style="stroke: #A80036; stroke-width: 1.0;"/><path d="M295.9688,123.6406 Q295.3906,123.9375 294.75,124.0781 Q294.1094,124.2344 293.4063,124.2344 Q290.9063,124.2344 289.5781,122.5938 Q288.2656,120.9375 288.2656,117.8125 Q288.2656,114.6875 289.5781,113.0313 Q290.9063,111.375 293.4063,111.375 Q294.1094,111.375 294.75,111.5313 Q295.4063,111.6875 295.9688,111.9844 L295.9688,114.7031 Q295.3438,114.125 294.75,113.8594 Q294.1563,113.5781 293.5313,113.5781 Q292.1875,113.5781 291.5,114.6563 Q290.8125,115.7188 290.8125,117.8125 Q290.8125,119.9063 291.5,120.9844 Q292.1875,122.0469 293.5313,122.0469 Q294.1563,122.0469 294.75,121.7813 Q295.3438,121.5 295.9688,120.9219 L295.9688,123.6406 Z "/><text fill="#000000" font-family="sans-serif" font-size="12" lengthAdjust="spacingAndGlyphs" textLength="77" x="307" y="122.1543">WebConsole</text><line style="stroke: #A80036; stroke-width: 1.5;" x1="279" x2="386" y1="134" y2="134"/><line style="stroke: #A80036; stroke-width: 1.5;" x1="279" x2="386" y1="142" y2="142"/><!--class ConsoleWeblet--><rect fill="#FEFECE" filter="url(#f1uu5sp7bbq4fy)" height="48" id="ConsoleWeblet" style="stroke: #A80036; stroke-width: 1.5;" width="125" x="118" y="102"/><ellipse cx="133" cy="118" fill="#ADD1B2" rx="11" ry="11" style="stroke: #A80036; stroke-width: 1.0;"/><path d="M135.9688,123.6406 Q135.3906,123.9375 134.75,124.0781 Q134.1094,124.2344 133.4063,124.2344 Q130.9063,124.2344 129.5781,122.5938 Q128.2656,120.9375 128.2656,117.8125 Q128.2656,114.6875 129.5781,113.0313 Q130.9063,111.375 133.4063,111.375 Q134.1094,111.375 134.75,111.5313 Q135.4063,111.6875 135.9688,111.9844 L135.9688,114.7031 Q135.3438,114.125 134.75,113.8594 Q134.1563,113.5781 133.5313,113.5781 Q132.1875,113.5781 131.5,114.6563 Q130.8125,115.7188 130.8125,117.8125 Q130.8125,119.9063 131.5,120.9844 Q132.1875,122.0469 133.5313,122.0469 Q134.1563,122.0469 134.75,121.7813 Q135.3438,121.5 135.9688,120.9219 L135.9688,123.6406 Z "/><text fill="#000000" font-family="sans-serif" font-size="12" lengthAdjust="spacingAndGlyphs" textLength="93" x="147" y="122.1543">ConsoleWeblet</text><line style="stroke: #A80036; stroke-width: 1.5;" x1="119" x2="242" y1="134" y2="134"/><line style="stroke: #A80036; stroke-width: 1.5;" x1="119" x2="242" y1="142" y2="142"/><!--class ConletB--><rect fill="#FEFECE" filter="url(#f1uu5sp7bbq4fy)" height="48" id="ConletB" style="stroke: #A80036; stroke-width: 1.5;" width="80" x="560.5" y="102"/><ellipse cx="575.5" cy="118" fill="#ADD1B2" rx="11" ry="11" style="stroke: #A80036; stroke-width: 1.0;"/><path d="M578.4688,123.6406 Q577.8906,123.9375 577.25,124.0781 Q576.6094,124.2344 575.9063,124.2344 Q573.4063,124.2344 572.0781,122.5938 Q570.7656,120.9375 570.7656,117.8125 Q570.7656,114.6875 572.0781,113.0313 Q573.4063,111.375 575.9063,111.375 Q576.6094,111.375 577.25,111.5313 Q577.9063,111.6875 578.4688,111.9844 L578.4688,114.7031 Q577.8438,114.125 577.25,113.8594 Q576.6563,113.5781 576.0313,113.5781 Q574.6875,113.5781 574,114.6563 Q573.3125,115.7188 573.3125,117.8125 Q573.3125,119.9063 574,120.9844 Q574.6875,122.0469 576.0313,122.0469 Q576.6563,122.0469 577.25,121.7813 Q577.8438,121.5 578.4688,120.9219 L578.4688,123.6406 Z "/><text fill="#000000" font-family="sans-serif" font-size="12" lengthAdjust="spacingAndGlyphs" textLength="48" x="589.5" y="122.1543">ConletB</text><line style="stroke: #A80036; stroke-width: 1.5;" x1="561.5" x2="639.5" y1="134" y2="134"/><line style="stroke: #A80036; stroke-width: 1.5;" x1="561.5" x2="639.5" y1="142" y2="142"/><!--class ConletA--><rect fill="#FEFECE" filter="url(#f1uu5sp7bbq4fy)" height="48" id="ConletA" style="stroke: #A80036; stroke-width: 1.5;" width="80" x="427.5" y="102"/><ellipse cx="442.5" cy="118" fill="#ADD1B2" rx="11" ry="11" style="stroke: #A80036; stroke-width: 1.0;"/><path d="M445.4688,123.6406 Q444.8906,123.9375 444.25,124.0781 Q443.6094,124.2344 442.9063,124.2344 Q440.4063,124.2344 439.0781,122.5938 Q437.7656,120.9375 437.7656,117.8125 Q437.7656,114.6875 439.0781,113.0313 Q440.4063,111.375 442.9063,111.375 Q443.6094,111.375 444.25,111.5313 Q444.9063,111.6875 445.4688,111.9844 L445.4688,114.7031 Q444.8438,114.125 444.25,113.8594 Q443.6563,113.5781 443.0313,113.5781 Q441.6875,113.5781 441,114.6563 Q440.3125,115.7188 440.3125,117.8125 Q440.3125,119.9063 441,120.9844 Q441.6875,122.0469 443.0313,122.0469 Q443.6563,122.0469 444.25,121.7813 Q444.8438,121.5 445.4688,120.9219 L445.4688,123.6406 Z "/><text fill="#000000" font-family="sans-serif" font-size="12" lengthAdjust="spacingAndGlyphs" textLength="48" x="456.5" y="122.1543">ConletA</text><line style="stroke: #A80036; stroke-width: 1.5;" x1="428.5" x2="506.5" y1="134" y2="134"/><line style="stroke: #A80036; stroke-width: 1.5;" x1="428.5" x2="506.5" y1="142" y2="142"/><!--class ConletAData--><rect fill="#FEFECE" filter="url(#f1uu5sp7bbq4fy)" height="60.8047" id="ConletAData" style="stroke: #A80036; stroke-width: 1.5;" width="112" x="416.5" y="210"/><ellipse cx="432.4" cy="226" fill="#ADD1B2" rx="11" ry="11" style="stroke: #A80036; stroke-width: 1.0;"/><path d="M435.3688,231.6406 Q434.7906,231.9375 434.15,232.0781 Q433.5094,232.2344 432.8063,232.2344 Q430.3063,232.2344 428.9781,230.5938 Q427.6656,228.9375 427.6656,225.8125 Q427.6656,222.6875 428.9781,221.0313 Q430.3063,219.375 432.8063,219.375 Q433.5094,219.375 434.15,219.5313 Q434.8063,219.6875 435.3688,219.9844 L435.3688,222.7031 Q434.7438,222.125 434.15,221.8594 Q433.5563,221.5781 432.9313,221.5781 Q431.5875,221.5781 430.9,222.6563 Q430.2125,223.7188 430.2125,225.8125 Q430.2125,227.9063 430.9,228.9844 Q431.5875,230.0469 432.9313,230.0469 Q433.5563,230.0469 434.15,229.7813 Q434.7438,229.5 435.3688,228.9219 L435.3688,231.6406 Z "/><text fill="#000000" font-family="sans-serif" font-size="12" lengthAdjust="spacingAndGlyphs" textLength="78" x="446.6" y="230.1543">ConletAData</text><line style="stroke: #A80036; stroke-width: 1.5;" x1="417.5" x2="527.5" y1="242" y2="242"/><rect fill="none" height="6" style="stroke: #C82930; stroke-width: 1.0;" width="6" x="424.5" y="250.9023"/><text fill="#000000" font-family="sans-serif" font-size="11" lengthAdjust="spacingAndGlyphs" textLength="86" x="436.5" y="256.2104">conletId: String</text><line style="stroke: #A80036; stroke-width: 1.5;" x1="417.5" x2="527.5" y1="262.8047" y2="262.8047"/><!--class ConletBData--><rect fill="#FEFECE" filter="url(#f1uu5sp7bbq4fy)" height="60.8047" id="ConletBData" style="stroke: #A80036; stroke-width: 1.5;" width="112" x="563.5" y="210"/><ellipse cx="579.4" cy="226" fill="#ADD1B2" rx="11" ry="11" style="stroke: #A80036; stroke-width: 1.0;"/><path d="M582.3688,231.6406 Q581.7906,231.9375 581.15,232.0781 Q580.5094,232.2344 579.8063,232.2344 Q577.3063,232.2344 575.9781,230.5938 Q574.6656,228.9375 574.6656,225.8125 Q574.6656,222.6875 575.9781,221.0313 Q577.3063,219.375 579.8063,219.375 Q580.5094,219.375 581.15,219.5313 Q581.8063,219.6875 582.3688,219.9844 L582.3688,222.7031 Q581.7438,222.125 581.15,221.8594 Q580.5563,221.5781 579.9313,221.5781 Q578.5875,221.5781 577.9,222.6563 Q577.2125,223.7188 577.2125,225.8125 Q577.2125,227.9063 577.9,228.9844 Q578.5875,230.0469 579.9313,230.0469 Q580.5563,230.0469 581.15,229.7813 Q581.7438,229.5 582.3688,228.9219 L582.3688,231.6406 Z "/><text fill="#000000" font-family="sans-serif" font-size="12" lengthAdjust="spacingAndGlyphs" textLength="78" x="593.6" y="230.1543">ConletBData</text><line style="stroke: #A80036; stroke-width: 1.5;" x1="564.5" x2="674.5" y1="242" y2="242"/><rect fill="none" height="6" style="stroke: #C82930; stroke-width: 1.0;" width="6" x="571.5" y="250.9023"/><text fill="#000000" font-family="sans-serif" font-size="11" lengthAdjust="spacingAndGlyphs" textLength="86" x="583.5" y="256.2104">conletId: String</text><line style="stroke: #A80036; stroke-width: 1.5;" x1="564.5" x2="674.5" y1="262.8047" y2="262.8047"/><!--class Session--><rect fill="#FEFECE" filter="url(#f1uu5sp7bbq4fy)" height="48" id="Session" style="stroke: #A80036; stroke-width: 1.5;" width="81" x="505" y="331"/><ellipse cx="520" cy="347" fill="#ADD1B2" rx="11" ry="11" style="stroke: #A80036; stroke-width: 1.0;"/><path d="M522.9688,352.6406 Q522.3906,352.9375 521.75,353.0781 Q521.1094,353.2344 520.4063,353.2344 Q517.9063,353.2344 516.5781,351.5938 Q515.2656,349.9375 515.2656,346.8125 Q515.2656,343.6875 516.5781,342.0313 Q517.9063,340.375 520.4063,340.375 Q521.1094,340.375 521.75,340.5313 Q522.4063,340.6875 522.9688,340.9844 L522.9688,343.7031 Q522.3438,343.125 521.75,342.8594 Q521.1563,342.5781 520.5313,342.5781 Q519.1875,342.5781 518.5,343.6563 Q517.8125,344.7188 517.8125,346.8125 Q517.8125,348.9063 518.5,349.9844 Q519.1875,351.0469 520.5313,351.0469 Q521.1563,351.0469 521.75,350.7813 Q522.3438,350.5 522.9688,349.9219 L522.9688,352.6406 Z "/><text fill="#000000" font-family="sans-serif" font-size="12" lengthAdjust="spacingAndGlyphs" textLength="49" x="534" y="351.1543">Session</text><line style="stroke: #A80036; stroke-width: 1.5;" x1="506" x2="585" y1="363" y2="363"/><line style="stroke: #A80036; stroke-width: 1.5;" x1="506" x2="585" y1="371" y2="371"/><!--entity Browser--><rect fill="#FEFECE" filter="url(#f1uu5sp7bbq4fy)" height="36.2969" style="stroke: #A80036; stroke-width: 1.5;" width="77" x="6" y="108"/><rect fill="#FEFECE" height="5" style="stroke: #A80036; stroke-width: 1.5;" width="10" x="1" y="113"/><rect fill="#FEFECE" height="5" style="stroke: #A80036; stroke-width: 1.5;" width="10" x="1" y="134.2969"/><text fill="#000000" font-family="sans-serif" font-size="14" lengthAdjust="spacingAndGlyphs" textLength="57" x="16" y="130.9951">Browser</text><!--class PageResourceProvider--><rect fill="#FEFECE" filter="url(#f1uu5sp7bbq4fy)" height="48" id="PageResourceProvider" style="stroke: #A80036; stroke-width: 1.5;" width="174" x="54.5" y="216.5"/><ellipse cx="69.5" cy="232.5" fill="#ADD1B2" rx="11" ry="11" style="stroke: #A80036; stroke-width: 1.0;"/><path d="M72.4688,238.1406 Q71.8906,238.4375 71.25,238.5781 Q70.6094,238.7344 69.9063,238.7344 Q67.4063,238.7344 66.0781,237.0938 Q64.7656,235.4375 64.7656,232.3125 Q64.7656,229.1875 66.0781,227.5313 Q67.4063,225.875 69.9063,225.875 Q70.6094,225.875 71.25,226.0313 Q71.9063,226.1875 72.4688,226.4844 L72.4688,229.2031 Q71.8438,228.625 71.25,228.3594 Q70.6563,228.0781 70.0313,228.0781 Q68.6875,228.0781 68,229.1563 Q67.3125,230.2188 67.3125,232.3125 Q67.3125,234.4063 68,235.4844 Q68.6875,236.5469 70.0313,236.5469 Q70.6563,236.5469 71.25,236.2813 Q71.8438,236 72.4688,235.4219 L72.4688,238.1406 Z "/><text fill="#000000" font-family="sans-serif" font-size="12" lengthAdjust="spacingAndGlyphs" textLength="142" x="83.5" y="236.6543">PageResourceProvider</text><line style="stroke: #A80036; stroke-width: 1.5;" x1="55.5" x2="227.5" y1="248.5" y2="248.5"/><line style="stroke: #A80036; stroke-width: 1.5;" x1="55.5" x2="227.5" y1="256.5" y2="256.5"/><!--class ConsolePolicy--><rect fill="#FEFECE" filter="url(#f1uu5sp7bbq4fy)" height="48" id="ConsolePolicy" style="stroke: #A80036; stroke-width: 1.5;" width="117" x="264" y="216.5"/><ellipse cx="279" cy="232.5" fill="#ADD1B2" rx="11" ry="11" style="stroke: #A80036; stroke-width: 1.0;"/><path d="M281.9688,238.1406 Q281.3906,238.4375 280.75,238.5781 Q280.1094,238.7344 279.4063,238.7344 Q276.9063,238.7344 275.5781,237.0938 Q274.2656,235.4375 274.2656,232.3125 Q274.2656,229.1875 275.5781,227.5313 Q276.9063,225.875 279.4063,225.875 Q280.1094,225.875 280.75,226.0313 Q281.4063,226.1875 281.9688,226.4844 L281.9688,229.2031 Q281.3438,228.625 280.75,228.3594 Q280.1563,228.0781 279.5313,228.0781 Q278.1875,228.0781 277.5,229.1563 Q276.8125,230.2188 276.8125,232.3125 Q276.8125,234.4063 277.5,235.4844 Q278.1875,236.5469 279.5313,236.5469 Q280.1563,236.5469 280.75,236.2813 Q281.3438,236 281.9688,235.4219 L281.9688,238.1406 Z "/><text fill="#000000" font-family="sans-serif" font-size="12" lengthAdjust="spacingAndGlyphs" textLength="85" x="293" y="236.6543">ConsolePolicy</text><line style="stroke: #A80036; stroke-width: 1.5;" x1="265" x2="380" y1="248.5" y2="248.5"/><line style="stroke: #A80036; stroke-width: 1.5;" x1="265" x2="380" y1="256.5" y2="256.5"/><!--link ConsoleWeblet to WebConsole--><path d="M243.1406,126 C254.6596,126 266.1786,126 277.6976,126 " fill="none" id="ConsoleWeblet-WebConsole" style="stroke: #A80036; stroke-width: 1.0;"/><text fill="#000000" font-family="sans-serif" font-size="13" lengthAdjust="spacingAndGlyphs" textLength="8" x="250.8459" y="122.2074">1</text><text fill="#000000" font-family="sans-serif" font-size="13" lengthAdjust="spacingAndGlyphs" textLength="8" x="262.1635" y="122.1145">1</text><!--link Browser to ConsoleWeblet--><path d="M83.0156,126 C94.5665,126 106.1174,126 117.6683,126 " fill="none" id="Browser-ConsoleWeblet" style="stroke: #A80036; stroke-width: 1.0;"/><text fill="#000000" font-family="sans-serif" font-size="13" lengthAdjust="spacingAndGlyphs" textLength="7" x="91.0248" y="121.6216">*</text><text fill="#000000" font-family="sans-serif" font-size="13" lengthAdjust="spacingAndGlyphs" textLength="7" x="102.9987" y="122.2074">*</text><!--link WebConsole to ConletB--><path d="M346.6158,101.6235 C360.3344,80.6094 383.3005,51.7072 412.1667,39 C453.5221,20.7948 472.1043,21.6683 513.8333,39 C544.3512,51.6752 569.6852,80.8951 584.925,101.9784 " fill="none" id="WebConsole-ConletB" style="stroke: #A80036; stroke-width: 1.0;"/><text fill="#000000" font-family="sans-serif" font-size="13" lengthAdjust="spacingAndGlyphs" textLength="8" x="351.0315" y="90.9367">1</text><text fill="#000000" font-family="sans-serif" font-size="13" lengthAdjust="spacingAndGlyphs" textLength="8" x="574.2681" y="90.8465">1</text><!--link WebConsole to ConletA--><path d="M387.0801,143.3405 C400.4834,144.7088 413.8867,143.9479 427.29,141.0578 " fill="none" id="WebConsole-ConletA" style="stroke: #A80036; stroke-width: 1.0;"/><text fill="#000000" font-family="sans-serif" font-size="13" lengthAdjust="spacingAndGlyphs" textLength="8" x="394.9518" y="141.7386">1</text><text fill="#000000" font-family="sans-serif" font-size="13" lengthAdjust="spacingAndGlyphs" textLength="8" x="411.4151" y="104.0028">1</text><!--link ConletA to ConletAData--><path d="M468.5482,150.003 C469.3099,167.4463 470.3468,191.1912 471.1673,209.9818 " fill="none" id="ConletA-ConletAData" style="stroke: #A80036; stroke-width: 1.0;"/><text fill="#000000" font-family="sans-serif" font-size="13" lengthAdjust="spacingAndGlyphs" textLength="8" x="459.7918" y="170.1596">1</text><text fill="#000000" font-family="sans-serif" font-size="13" lengthAdjust="spacingAndGlyphs" textLength="7" x="463.1101" y="198.7681">*</text><!--link ConletB to ConletBData--><path d="M604.483,150.003 C607.3775,167.4463 611.3177,191.1912 614.4358,209.9818 " fill="none" id="ConletB-ConletBData" style="stroke: #A80036; stroke-width: 1.0;"/><text fill="#000000" font-family="sans-serif" font-size="13" lengthAdjust="spacingAndGlyphs" textLength="8" x="596.4786" y="170.1596">1</text><text fill="#000000" font-family="sans-serif" font-size="13" lengthAdjust="spacingAndGlyphs" textLength="7" x="605.5624" y="198.7681">*</text><!--link ConletAData to Session--><path d="M492.0627,271.1839 C501.5533,286.0699 513.007,304.0349 522.8723,319.5085 " fill="none" id="ConletAData-Session" style="stroke: #A80036; stroke-width: 1.0;"/><polygon fill="#A80036" points="530.0479,330.7634,530.1951,323.5538,523.5967,320.645,523.4495,327.8546,530.0479,330.7634" style="stroke: #A80036; stroke-width: 1.0;"/><text fill="#000000" font-family="sans-serif" font-size="13" lengthAdjust="spacingAndGlyphs" textLength="7" x="488.225" y="290.8005">*</text><text fill="#000000" font-family="sans-serif" font-size="13" lengthAdjust="spacingAndGlyphs" textLength="8" x="517.3065" y="320.1107">1</text><!--link ConletBData to Session--><path d="M599.6694,271.1839 C590.0487,286.0699 578.4382,304.0349 568.4377,319.5085 " fill="none" id="ConletBData-Session" style="stroke: #A80036; stroke-width: 1.0;"/><polygon fill="#A80036" points="561.1638,330.7634,567.78,327.8954,567.6774,320.685,561.0611,323.553,561.1638,330.7634" style="stroke: #A80036; stroke-width: 1.0;"/><text fill="#000000" font-family="sans-serif" font-size="13" lengthAdjust="spacingAndGlyphs" textLength="7" x="588.0762" y="290.8005">*</text><text fill="#000000" font-family="sans-serif" font-size="13" lengthAdjust="spacingAndGlyphs" textLength="8" x="556.0069" y="320.1107">1</text><!--link WebConsole to PageResourceProvider--><path d="M292.4601,150.003 C259.9715,169.4791 214.3781,196.8113 181.8156,216.3317 " fill="none" id="WebConsole-PageResourceProvider" style="stroke: #A80036; stroke-width: 1.0;"/><text fill="#000000" font-family="sans-serif" font-size="13" lengthAdjust="spacingAndGlyphs" textLength="8" x="273.1749" y="170.1596">1</text><text fill="#000000" font-family="sans-serif" font-size="13" lengthAdjust="spacingAndGlyphs" textLength="7" x="184.2496" y="205.3006">*</text><!--link WebConsole to ConsolePolicy--><path d="M330.4037,150.003 C328.7084,169.4135 326.3317,196.6273 324.628,216.1343 " fill="none" id="WebConsole-ConsolePolicy" style="stroke: #A80036; stroke-width: 1.0;"/><text fill="#000000" font-family="sans-serif" font-size="13" lengthAdjust="spacingAndGlyphs" textLength="8" x="320.8415" y="170.1596">1</text><text fill="#000000" font-family="sans-serif" font-size="13" lengthAdjust="spacingAndGlyphs" textLength="7" x="317.2936" y="205.4501">*</text><!--
@startuml
skinparam packageStyle rectangle
 allow_mixing
 
 component Browser
 
 package "Conceptual WebConsole\n(WebConsole Gateway)" {
    class WebConsole
 	  class ConsoleWeblet
 
    WebConsole "1" -left- "1" ConsoleWeblet
 }
 
 ConsoleWeblet "*" -left- "*" Browser
 
 together {
 
   WebConsole "1" -right- "1" ConletB
   WebConsole "1" -right- "1" ConletA
 
   class ConletAData {
     -conletId: String
   }
 
   ConletAData "*" -up- "1" ConletA
 
   class ConletBData {
     -conletId: String
   }
 
   ConletBData "*" -up- "1" ConletB
   
   ConletAData "*" -up-* "1" Session
   ConletBData "*" -up-* "1" Session
 }
 
 WebConsole "1" -down- "*" PageResourceProvider
 WebConsole "1" -down- "*" ConsolePolicy
@enduml

PlantUML version 1.2017.18(Fri Oct 06 16:56:32 UTC 2017)
(GPL source distribution)
Java Runtime: OpenJDK Runtime Environment
JVM: OpenJDK 64-Bit Server VM
Java Version: 1.8.0_282-b08
Operating System: Linux
OS Version: 5.4.0-1040-azure
Default Encoding: UTF-8
Language: en
Country: null
--></g></svg>