<?xml version="1.0" encoding="UTF-8" standalone="no"?><svg xmlns="http://www.w3.org/2000/svg" xmlns:xlink="http://www.w3.org/1999/xlink" contentScriptType="application/ecmascript" contentStyleType="text/css" height="479px" preserveAspectRatio="none" style="width:587px;height:479px;background:#FFFFFF;" version="1.1" viewBox="0 0 587 479" width="587px" zoomAndPan="magnify"><defs><filter height="300%" id="f1v0no66sbvric" width="300%" x="-1" y="-1"><feGaussianBlur result="blurOut" stdDeviation="2.0"/><feColorMatrix in="blurOut" result="blurOut2" type="matrix" values="0 0 0 0 0 0 0 0 0 0 0 0 0 0 0 0 0 0 .4 0"/><feOffset dx="4.0" dy="4.0" in="blurOut2" result="blurOut3"/><feBlend in="SourceGraphic" in2="blurOut3" mode="normal"/></filter></defs><g><rect fill="#FFFFFF" filter="url(#f1v0no66sbvric)" height="213.9297" style="stroke:#A80036;stroke-width:1.0;" width="10" x="52.5" y="100.5625"/><rect fill="#FFFFFF" filter="url(#f1v0no66sbvric)" height="29.1328" style="stroke:#A80036;stroke-width:1.0;" width="10" x="200.5" y="71.4297"/><rect fill="#FFFFFF" filter="url(#f1v0no66sbvric)" height="29.1328" style="stroke:#A80036;stroke-width:1.0;" width="10" x="200.5" y="129.6953"/><rect fill="#FFFFFF" filter="url(#f1v0no66sbvric)" height="29.1328" style="stroke:#A80036;stroke-width:1.0;" width="10" x="200.5" y="187.9609"/><rect fill="#FFFFFF" filter="url(#f1v0no66sbvric)" height="89.3984" style="stroke:#A80036;stroke-width:1.0;" width="10" x="200.5" y="246.2266"/><rect fill="#FFFFFF" filter="url(#f1v0no66sbvric)" height="68.2656" style="stroke:#A80036;stroke-width:1.0;" width="10" x="200.5" y="393.8906"/><rect fill="#FFFFFF" filter="url(#f1v0no66sbvric)" height="29.1328" style="stroke:#A80036;stroke-width:1.0;" width="10" x="395.5" y="335.625"/><rect fill="#FFFFFF" filter="url(#f1v0no66sbvric)" height="29.1328" style="stroke:#A80036;stroke-width:1.0;" width="10" x="515.5" y="364.7578"/><rect fill="#FFFFFF" filter="url(#f1v0no66sbvric)" height="46.2656" style="stroke:#000000;stroke-width:2.0;" width="267" x="10" y="261.2266"/><rect fill="#FFFFFF" filter="url(#f1v0no66sbvric)" height="46.2656" style="stroke:#000000;stroke-width:2.0;" width="267" x="10" y="408.8906"/><line style="stroke:#A80036;stroke-width:1.0;stroke-dasharray:5.0,5.0;" x1="57" x2="57" y1="40.2969" y2="472.1563"/><line style="stroke:#A80036;stroke-width:1.0;stroke-dasharray:5.0,5.0;" x1="205" x2="205" y1="40.2969" y2="472.1563"/><line style="stroke:#A80036;stroke-width:1.0;stroke-dasharray:5.0,5.0;" x1="400.5" x2="400.5" y1="40.2969" y2="472.1563"/><line style="stroke:#A80036;stroke-width:1.0;stroke-dasharray:5.0,5.0;" x1="520.5" x2="520.5" y1="40.2969" y2="472.1563"/><rect fill="#FEFECE" filter="url(#f1v0no66sbvric)" height="30.2969" style="stroke:#A80036;stroke-width:1.5;" width="71" x="20" y="5"/><text fill="#000000" font-family="sans-serif" font-size="14" lengthAdjust="spacing" textLength="57" x="27" y="24.9951">Browser</text><rect fill="#FEFECE" filter="url(#f1v0no66sbvric)" height="30.2969" style="stroke:#A80036;stroke-width:1.5;" width="119" x="144" y="5"/><text fill="#000000" font-family="sans-serif" font-size="14" lengthAdjust="spacing" textLength="105" x="151" y="24.9951">ConsoleWeblet</text><rect fill="#FEFECE" filter="url(#f1v0no66sbvric)" height="30.2969" style="stroke:#A80036;stroke-width:1.5;" width="102" x="347.5" y="5"/><text fill="#000000" font-family="sans-serif" font-size="14" lengthAdjust="spacing" textLength="88" x="354.5" y="24.9951">WebConsole</text><rect fill="#FEFECE" filter="url(#f1v0no66sbvric)" height="30.2969" style="stroke:#A80036;stroke-width:1.5;" width="110" x="463.5" y="5"/><text fill="#000000" font-family="sans-serif" font-size="14" lengthAdjust="spacing" textLength="96" x="470.5" y="24.9951">ConsolePolicy</text><rect fill="#FFFFFF" filter="url(#f1v0no66sbvric)" height="213.9297" style="stroke:#A80036;stroke-width:1.0;" width="10" x="52.5" y="100.5625"/><rect fill="#FFFFFF" filter="url(#f1v0no66sbvric)" height="29.1328" style="stroke:#A80036;stroke-width:1.0;" width="10" x="200.5" y="71.4297"/><rect fill="#FFFFFF" filter="url(#f1v0no66sbvric)" height="29.1328" style="stroke:#A80036;stroke-width:1.0;" width="10" x="200.5" y="129.6953"/><rect fill="#FFFFFF" filter="url(#f1v0no66sbvric)" height="29.1328" style="stroke:#A80036;stroke-width:1.0;" width="10" x="200.5" y="187.9609"/><rect fill="#FFFFFF" filter="url(#f1v0no66sbvric)" height="89.3984" style="stroke:#A80036;stroke-width:1.0;" width="10" x="200.5" y="246.2266"/><rect fill="#FFFFFF" filter="url(#f1v0no66sbvric)" height="68.2656" style="stroke:#A80036;stroke-width:1.0;" width="10" x="200.5" y="393.8906"/><rect fill="#FFFFFF" filter="url(#f1v0no66sbvric)" height="29.1328" style="stroke:#A80036;stroke-width:1.0;" width="10" x="395.5" y="335.625"/><rect fill="#FFFFFF" filter="url(#f1v0no66sbvric)" height="29.1328" style="stroke:#A80036;stroke-width:1.0;" width="10" x="515.5" y="364.7578"/><polygon fill="#A80036" points="188.5,67.4297,198.5,71.4297,188.5,75.4297,192.5,71.4297" style="stroke:#A80036;stroke-width:1.0;"/><line style="stroke:#A80036;stroke-width:1.0;" x1="57.5" x2="194.5" y1="71.4297" y2="71.4297"/><text fill="#000000" font-family="sans-serif" font-size="13" lengthAdjust="spacing" textLength="39" x="64.5" y="66.3638">"GET "</text><polygon fill="#A80036" points="73.5,96.5625,63.5,100.5625,73.5,104.5625,69.5,100.5625" style="stroke:#A80036;stroke-width:1.0;"/><line style="stroke:#A80036;stroke-width:1.0;" x1="67.5" x2="204.5" y1="100.5625" y2="100.5625"/><text fill="#000000" font-family="sans-serif" font-size="13" lengthAdjust="spacing" textLength="114" x="79.5" y="95.4966">"HTML document"</text><polygon fill="#A80036" points="188.5,125.6953,198.5,129.6953,188.5,133.6953,192.5,129.6953" style="stroke:#A80036;stroke-width:1.0;"/><line style="stroke:#A80036;stroke-width:1.0;" x1="62.5" x2="194.5" y1="129.6953" y2="129.6953"/><text fill="#000000" font-family="sans-serif" font-size="13" lengthAdjust="spacing" textLength="39" x="69.5" y="124.6294">"GET "</text><polygon fill="#A80036" points="73.5,154.8281,63.5,158.8281,73.5,162.8281,69.5,158.8281" style="stroke:#A80036;stroke-width:1.0;"/><line style="stroke:#A80036;stroke-width:1.0;" x1="67.5" x2="204.5" y1="158.8281" y2="158.8281"/><text fill="#000000" font-family="sans-serif" font-size="13" lengthAdjust="spacing" textLength="59" x="79.5" y="153.7622">Resource</text><polygon fill="#A80036" points="188.5,183.9609,198.5,187.9609,188.5,191.9609,192.5,187.9609" style="stroke:#A80036;stroke-width:1.0;"/><line style="stroke:#A80036;stroke-width:1.0;" x1="62.5" x2="194.5" y1="187.9609" y2="187.9609"/><text fill="#000000" font-family="sans-serif" font-size="13" lengthAdjust="spacing" textLength="39" x="69.5" y="182.895">"GET "</text><polygon fill="#A80036" points="73.5,213.0938,63.5,217.0938,73.5,221.0938,69.5,217.0938" style="stroke:#A80036;stroke-width:1.0;"/><line style="stroke:#A80036;stroke-width:1.0;" x1="67.5" x2="204.5" y1="217.0938" y2="217.0938"/><text fill="#000000" font-family="sans-serif" font-size="13" lengthAdjust="spacing" textLength="59" x="79.5" y="212.0278">Resource</text><polygon fill="#A80036" points="188.5,242.2266,198.5,246.2266,188.5,250.2266,192.5,246.2266" style="stroke:#A80036;stroke-width:1.0;"/><line style="stroke:#A80036;stroke-width:1.0;" x1="62.5" x2="194.5" y1="246.2266" y2="246.2266"/><text fill="#000000" font-family="sans-serif" font-size="13" lengthAdjust="spacing" textLength="39" x="69.5" y="241.1606">"GET "</text><path d="M10,261.2266 L87,261.2266 L87,268.2266 L77,278.2266 L10,278.2266 L10,261.2266 " fill="#EEEEEE" style="stroke:#000000;stroke-width:1.0;"/><rect fill="none" height="46.2656" style="stroke:#000000;stroke-width:2.0;" width="267" x="10" y="261.2266"/><text fill="#000000" font-family="sans-serif" font-size="13" font-weight="bold" lengthAdjust="spacing" textLength="32" x="25" y="274.2935">loop</text><text fill="#000000" font-family="sans-serif" font-size="11" font-weight="bold" lengthAdjust="spacing" textLength="131" x="102" y="273.437">[while request data]</text><polygon fill="#A80036" points="188.5,295.4922,198.5,299.4922,188.5,303.4922,192.5,299.4922" style="stroke:#A80036;stroke-width:1.0;"/><line style="stroke:#A80036;stroke-width:1.0;" x1="62.5" x2="194.5" y1="299.4922" y2="299.4922"/><text fill="#000000" font-family="sans-serif" font-size="13" lengthAdjust="spacing" textLength="107" x="69.5" y="294.4263">Input (JSON RPC)</text><polygon fill="#A80036" points="383.5,331.625,393.5,335.625,383.5,339.625,387.5,335.625" style="stroke:#A80036;stroke-width:1.0;"/><line style="stroke:#A80036;stroke-width:1.0;" x1="205.5" x2="389.5" y1="335.625" y2="335.625"/><text fill="#000000" font-family="sans-serif" font-size="13" lengthAdjust="spacing" textLength="166" x="212.5" y="330.5591">JsonInput("consoleReady")</text><polygon fill="#A80036" points="503.5,360.7578,513.5,364.7578,503.5,368.7578,507.5,364.7578" style="stroke:#A80036;stroke-width:1.0;"/><line style="stroke:#A80036;stroke-width:1.0;" x1="400.5" x2="509.5" y1="364.7578" y2="364.7578"/><text fill="#000000" font-family="sans-serif" font-size="13" lengthAdjust="spacing" textLength="90" x="407.5" y="359.6919">ConsoleReady</text><polygon fill="#A80036" points="221.5,389.8906,211.5,393.8906,221.5,397.8906,217.5,393.8906" style="stroke:#A80036;stroke-width:1.0;"/><line style="stroke:#A80036;stroke-width:1.0;" x1="215.5" x2="519.5" y1="393.8906" y2="393.8906"/><text fill="#000000" font-family="sans-serif" font-size="13" lengthAdjust="spacing" textLength="121" x="227.5" y="388.8247">LastConsoleLayout</text><path d="M10,408.8906 L87,408.8906 L87,415.8906 L77,425.8906 L10,425.8906 L10,408.8906 " fill="#EEEEEE" style="stroke:#000000;stroke-width:1.0;"/><rect fill="none" height="46.2656" style="stroke:#000000;stroke-width:2.0;" width="267" x="10" y="408.8906"/><text fill="#000000" font-family="sans-serif" font-size="13" font-weight="bold" lengthAdjust="spacing" textLength="32" x="25" y="421.9575">loop</text><text fill="#000000" font-family="sans-serif" font-size="11" font-weight="bold" lengthAdjust="spacing" textLength="131" x="102" y="421.1011">[while request data]</text><polygon fill="#A80036" points="68.5,443.1563,58.5,447.1563,68.5,451.1563,64.5,447.1563" style="stroke:#A80036;stroke-width:1.0;"/><line style="stroke:#A80036;stroke-width:1.0;" x1="62.5" x2="199.5" y1="447.1563" y2="447.1563"/><text fill="#000000" font-family="sans-serif" font-size="13" lengthAdjust="spacing" textLength="119" x="74.5" y="442.0903">Output (JSON RPC)</text><!--MD5=[86b76b396689821dfee08fc17bd20633]
@startuml
hide footbox
 
 Browser -> ConsoleWeblet: "GET "
 activate ConsoleWeblet
 ConsoleWeblet -> Browser: "HTML document"
 deactivate ConsoleWeblet
 activate Browser
 Browser -> ConsoleWeblet: "GET "
 activate ConsoleWeblet
 ConsoleWeblet -> Browser: Resource
 deactivate ConsoleWeblet
 Browser -> ConsoleWeblet: "GET "
 activate ConsoleWeblet
 ConsoleWeblet -> Browser: Resource
 deactivate ConsoleWeblet
 Browser -> ConsoleWeblet: "GET "
 activate ConsoleWeblet
 loop while request data
     Browser -> ConsoleWeblet: Input (JSON RPC)
 end
 deactivate Browser
 ConsoleWeblet -> WebConsole: JsonInput("consoleReady")
 deactivate ConsoleWeblet
 activate WebConsole
 WebConsole -> ConsolePolicy: ConsoleReady
 deactivate WebConsole
 activate ConsolePolicy
 ConsolePolicy -> ConsoleWeblet: LastConsoleLayout
 deactivate ConsolePolicy
 activate ConsoleWeblet
 loop while request data
     ConsoleWeblet -> Browser: Output (JSON RPC)
 end
 deactivate ConsoleWeblet
@enduml

PlantUML version 1.2022.1(Tue Feb 01 19:19:58 CET 2022)
(GPL source distribution)
Java Runtime: OpenJDK Runtime Environment
JVM: OpenJDK 64-Bit Server VM
Default Encoding: UTF-8
Language: de
Country: DE
--></g></svg>