<?xml version="1.0" encoding="UTF-8" standalone="no"?><svg xmlns="http://www.w3.org/2000/svg" xmlns:xlink="http://www.w3.org/1999/xlink" contentScriptType="application/ecmascript" contentStyleType="text/css" height="525px" preserveAspectRatio="none" style="width:777px;height:525px;background:#FFFFFF;" version="1.1" viewBox="0 0 777 525" width="777px" zoomAndPan="magnify"><defs><filter height="300%" id="f1g21ewmy2nq0e" width="300%" x="-1" y="-1"><feGaussianBlur result="blurOut" stdDeviation="2.0"/><feColorMatrix in="blurOut" result="blurOut2" type="matrix" values="0 0 0 0 0 0 0 0 0 0 0 0 0 0 0 0 0 0 .4 0"/><feOffset dx="4.0" dy="4.0" in="blurOut2" result="blurOut3"/><feBlend in="SourceGraphic" in2="blurOut3" mode="normal"/></filter></defs><g><rect fill="#FFFFFF" filter="url(#f1g21ewmy2nq0e)" height="29.1328" style="stroke:#A80036;stroke-width:1.0;" width="10" x="208.5" y="119.4297"/><rect fill="#FFFFFF" filter="url(#f1g21ewmy2nq0e)" height="29.1328" style="stroke:#A80036;stroke-width:1.0;" width="10" x="208.5" y="265.0938"/><rect fill="#FFFFFF" filter="url(#f1g21ewmy2nq0e)" height="29.1328" style="stroke:#A80036;stroke-width:1.0;" width="10" x="208.5" y="376.625"/><rect fill="#FFFFFF" filter="url(#f1g21ewmy2nq0e)" height="29.1328" style="stroke:#A80036;stroke-width:1.0;" width="10" x="208.5" y="441.8906"/><rect fill="#FFFFFF" filter="url(#f1g21ewmy2nq0e)" height="58.2656" style="stroke:#A80036;stroke-width:1.0;" width="10" x="388.5" y="148.5625"/><rect fill="#FFFFFF" filter="url(#f1g21ewmy2nq0e)" height="184.7969" style="stroke:#A80036;stroke-width:1.0;" width="10" x="388.5" y="235.9609"/><rect fill="#FFFFFF" filter="url(#f1g21ewmy2nq0e)" height="29.1328" style="stroke:#A80036;stroke-width:1.0;" width="10" x="388.5" y="471.0234"/><rect fill="#FFFFFF" filter="url(#f1g21ewmy2nq0e)" height="29.1328" style="stroke:#A80036;stroke-width:1.0;" width="10" x="558.5" y="177.6953"/><rect fill="#FFFFFF" filter="url(#f1g21ewmy2nq0e)" height="29.1328" style="stroke:#A80036;stroke-width:1.0;" width="10" x="711" y="347.4922"/><rect fill="#FFFFFF" filter="url(#f1g21ewmy2nq0e)" height="104.5313" style="stroke:#000000;stroke-width:2.0;" width="753" x="10" y="309.2266"/><line style="stroke:#A80036;stroke-width:1.0;stroke-dasharray:5.0,5.0;" x1="57" x2="57" y1="88.2969" y2="518.1563"/><line style="stroke:#A80036;stroke-width:1.0;stroke-dasharray:5.0,5.0;" x1="213.5" x2="213.5" y1="88.2969" y2="518.1563"/><line style="stroke:#A80036;stroke-width:1.0;stroke-dasharray:5.0,5.0;" x1="393" x2="393" y1="88.2969" y2="518.1563"/><line style="stroke:#A80036;stroke-width:1.0;stroke-dasharray:5.0,5.0;" x1="563" x2="563" y1="88.2969" y2="518.1563"/><line style="stroke:#A80036;stroke-width:1.0;stroke-dasharray:5.0,5.0;" x1="640" x2="640" y1="88.2969" y2="518.1563"/><line style="stroke:#A80036;stroke-width:1.0;stroke-dasharray:5.0,5.0;" x1="716" x2="716" y1="88.2969" y2="518.1563"/><rect fill="#FEFECE" filter="url(#f1g21ewmy2nq0e)" height="30.2969" style="stroke:#A80036;stroke-width:1.5;" width="71" x="20" y="53"/><text fill="#000000" font-family="sans-serif" font-size="14" lengthAdjust="spacing" textLength="57" x="27" y="72.9951">Browser</text><rect fill="#FEFECE" filter="url(#f1g21ewmy2nq0e)" height="30.2969" style="stroke:#A80036;stroke-width:1.5;" width="102" x="160.5" y="53"/><text fill="#000000" font-family="sans-serif" font-size="14" lengthAdjust="spacing" textLength="88" x="167.5" y="72.9951">WebConsole</text><rect fill="#FEFECE" filter="url(#f1g21ewmy2nq0e)" height="30.2969" style="stroke:#A80036;stroke-width:1.5;" width="209" x="287" y="53"/><text fill="#000000" font-family="sans-serif" font-size="14" lengthAdjust="spacing" textLength="195" x="294" y="72.9951">KVStoreBasedConsolePolicy</text><rect fill="#FEFECE" filter="url(#f1g21ewmy2nq0e)" height="30.2969" style="stroke:#A80036;stroke-width:1.5;" width="73" x="525" y="53"/><text fill="#000000" font-family="sans-serif" font-size="14" lengthAdjust="spacing" textLength="59" x="532" y="72.9951">KV Store</text><text fill="#000000" font-family="sans-serif" font-size="14" lengthAdjust="spacing" textLength="51" x="612" y="84.9951">System</text><ellipse cx="640.5" cy="15" fill="#FEFECE" filter="url(#f1g21ewmy2nq0e)" rx="8" ry="8" style="stroke:#A80036;stroke-width:2.0;"/><path d="M640.5,23 L640.5,50 M627.5,31 L653.5,31 M640.5,50 L627.5,65 M640.5,50 L653.5,65 " fill="none" filter="url(#f1g21ewmy2nq0e)" style="stroke:#A80036;stroke-width:2.0;"/><rect fill="#FEFECE" filter="url(#f1g21ewmy2nq0e)" height="30.2969" style="stroke:#A80036;stroke-width:1.5;" width="70" x="679" y="53"/><text fill="#000000" font-family="sans-serif" font-size="14" lengthAdjust="spacing" textLength="56" x="686" y="72.9951">ConletX</text><rect fill="#FFFFFF" filter="url(#f1g21ewmy2nq0e)" height="29.1328" style="stroke:#A80036;stroke-width:1.0;" width="10" x="208.5" y="119.4297"/><rect fill="#FFFFFF" filter="url(#f1g21ewmy2nq0e)" height="29.1328" style="stroke:#A80036;stroke-width:1.0;" width="10" x="208.5" y="265.0938"/><rect fill="#FFFFFF" filter="url(#f1g21ewmy2nq0e)" height="29.1328" style="stroke:#A80036;stroke-width:1.0;" width="10" x="208.5" y="376.625"/><rect fill="#FFFFFF" filter="url(#f1g21ewmy2nq0e)" height="29.1328" style="stroke:#A80036;stroke-width:1.0;" width="10" x="208.5" y="441.8906"/><rect fill="#FFFFFF" filter="url(#f1g21ewmy2nq0e)" height="58.2656" style="stroke:#A80036;stroke-width:1.0;" width="10" x="388.5" y="148.5625"/><rect fill="#FFFFFF" filter="url(#f1g21ewmy2nq0e)" height="184.7969" style="stroke:#A80036;stroke-width:1.0;" width="10" x="388.5" y="235.9609"/><rect fill="#FFFFFF" filter="url(#f1g21ewmy2nq0e)" height="29.1328" style="stroke:#A80036;stroke-width:1.0;" width="10" x="388.5" y="471.0234"/><rect fill="#FFFFFF" filter="url(#f1g21ewmy2nq0e)" height="29.1328" style="stroke:#A80036;stroke-width:1.0;" width="10" x="558.5" y="177.6953"/><rect fill="#FFFFFF" filter="url(#f1g21ewmy2nq0e)" height="29.1328" style="stroke:#A80036;stroke-width:1.0;" width="10" x="711" y="347.4922"/><polygon fill="#A80036" points="196.5,115.4297,206.5,119.4297,196.5,123.4297,200.5,119.4297" style="stroke:#A80036;stroke-width:1.0;"/><line style="stroke:#A80036;stroke-width:1.0;" x1="57.5" x2="202.5" y1="119.4297" y2="119.4297"/><text fill="#000000" font-family="sans-serif" font-size="13" lengthAdjust="spacing" textLength="98" x="64.5" y="114.3638">"consoleReady"</text><polygon fill="#A80036" points="376.5,144.5625,386.5,148.5625,376.5,152.5625,380.5,148.5625" style="stroke:#A80036;stroke-width:1.0;"/><line style="stroke:#A80036;stroke-width:1.0;" x1="213.5" x2="382.5" y1="148.5625" y2="148.5625"/><text fill="#000000" font-family="sans-serif" font-size="13" lengthAdjust="spacing" textLength="90" x="220.5" y="143.4966">ConsoleReady</text><polygon fill="#A80036" points="546.5,173.6953,556.5,177.6953,546.5,181.6953,550.5,177.6953" style="stroke:#A80036;stroke-width:1.0;"/><line style="stroke:#A80036;stroke-width:1.0;" x1="398.5" x2="552.5" y1="177.6953" y2="177.6953"/><text fill="#000000" font-family="sans-serif" font-size="13" lengthAdjust="spacing" textLength="132" x="405.5" y="172.6294">KeyValueStoreQuery</text><polygon fill="#A80036" points="404.5,202.8281,394.5,206.8281,404.5,210.8281,400.5,206.8281" style="stroke:#A80036;stroke-width:1.0;"/><line style="stroke:#A80036;stroke-width:1.0;" x1="398.5" x2="562.5" y1="206.8281" y2="206.8281"/><text fill="#000000" font-family="sans-serif" font-size="13" lengthAdjust="spacing" textLength="125" x="410.5" y="201.7622">KeyValueStoreData</text><polygon fill="#A80036" points="409.5,231.9609,399.5,235.9609,409.5,239.9609,405.5,235.9609" style="stroke:#A80036;stroke-width:1.0;"/><line style="stroke:#A80036;stroke-width:1.0;" x1="403.5" x2="639.5" y1="235.9609" y2="235.9609"/><text fill="#000000" font-family="sans-serif" font-size="13" lengthAdjust="spacing" textLength="109" x="415.5" y="230.895">ConsolePrepared</text><polygon fill="#A80036" points="229.5,261.0938,219.5,265.0938,229.5,269.0938,225.5,265.0938" style="stroke:#A80036;stroke-width:1.0;"/><line style="stroke:#A80036;stroke-width:1.0;" x1="223.5" x2="387.5" y1="265.0938" y2="265.0938"/><text fill="#000000" font-family="sans-serif" font-size="13" lengthAdjust="spacing" textLength="121" x="235.5" y="260.0278">LastConsoleLayout</text><polygon fill="#A80036" points="68.5,290.2266,58.5,294.2266,68.5,298.2266,64.5,294.2266" style="stroke:#A80036;stroke-width:1.0;"/><line style="stroke:#A80036;stroke-width:1.0;" x1="62.5" x2="212.5" y1="294.2266" y2="294.2266"/><text fill="#000000" font-family="sans-serif" font-size="13" lengthAdjust="spacing" textLength="127" x="74.5" y="289.1606">"lastConsoleLayout"</text><path d="M10,309.2266 L87,309.2266 L87,316.2266 L77,326.2266 L10,326.2266 L10,309.2266 " fill="#EEEEEE" style="stroke:#000000;stroke-width:1.0;"/><rect fill="none" height="104.5313" style="stroke:#000000;stroke-width:2.0;" width="753" x="10" y="309.2266"/><text fill="#000000" font-family="sans-serif" font-size="13" font-weight="bold" lengthAdjust="spacing" textLength="32" x="25" y="322.2935">loop</text><text fill="#000000" font-family="sans-serif" font-size="11" font-weight="bold" lengthAdjust="spacing" textLength="202" x="102" y="321.437">[for all conlets to be displayed]</text><polygon fill="#A80036" points="699,343.4922,709,347.4922,699,351.4922,703,347.4922" style="stroke:#A80036;stroke-width:1.0;"/><line style="stroke:#A80036;stroke-width:1.0;" x1="398.5" x2="705" y1="347.4922" y2="347.4922"/><text fill="#000000" font-family="sans-serif" font-size="13" lengthAdjust="spacing" textLength="138" x="405.5" y="342.4263">RenderConletRequest</text><polygon fill="#A80036" points="229.5,372.625,219.5,376.625,229.5,380.625,225.5,376.625" style="stroke:#A80036;stroke-width:1.0;"/><line style="stroke:#A80036;stroke-width:1.0;" x1="223.5" x2="715" y1="376.625" y2="376.625"/><text fill="#000000" font-family="sans-serif" font-size="13" lengthAdjust="spacing" textLength="86" x="235.5" y="371.5591">RenderConlet</text><polygon fill="#A80036" points="68.5,401.7578,58.5,405.7578,68.5,409.7578,64.5,405.7578" style="stroke:#A80036;stroke-width:1.0;"/><line style="stroke:#A80036;stroke-width:1.0;" x1="62.5" x2="212.5" y1="405.7578" y2="405.7578"/><text fill="#000000" font-family="sans-serif" font-size="13" lengthAdjust="spacing" textLength="93" x="74.5" y="400.6919">"renderConlet"</text><polygon fill="#A80036" points="196.5,437.8906,206.5,441.8906,196.5,445.8906,200.5,441.8906" style="stroke:#A80036;stroke-width:1.0;"/><line style="stroke:#A80036;stroke-width:1.0;" x1="57.5" x2="202.5" y1="441.8906" y2="441.8906"/><text fill="#000000" font-family="sans-serif" font-size="13" lengthAdjust="spacing" textLength="102" x="64.5" y="436.8247">"consoleLayout"</text><polygon fill="#A80036" points="376.5,467.0234,386.5,471.0234,376.5,475.0234,380.5,471.0234" style="stroke:#A80036;stroke-width:1.0;"/><line style="stroke:#A80036;stroke-width:1.0;" x1="213.5" x2="382.5" y1="471.0234" y2="471.0234"/><text fill="#000000" font-family="sans-serif" font-size="13" lengthAdjust="spacing" textLength="151" x="220.5" y="465.9575">ConsoleLayoutChanged</text><polygon fill="#A80036" points="551.5,496.1563,561.5,500.1563,551.5,504.1563,555.5,500.1563" style="stroke:#A80036;stroke-width:1.0;"/><line style="stroke:#A80036;stroke-width:1.0;" x1="393.5" x2="557.5" y1="500.1563" y2="500.1563"/><text fill="#000000" font-family="sans-serif" font-size="13" lengthAdjust="spacing" textLength="141" x="400.5" y="495.0903">KeyValueStoreUpdate</text><!--MD5=[f0f2094136c6522d74b8dc09ff306822]
@startuml
hide footbox
 
 Browser -> WebConsole: "consoleReady"
 activate WebConsole
 WebConsole -> KVStoreBasedConsolePolicy: ConsoleReady
 deactivate WebConsole
 activate KVStoreBasedConsolePolicy
 KVStoreBasedConsolePolicy -> "KV Store": KeyValueStoreQuery
 activate "KV Store"
 "KV Store" -> KVStoreBasedConsolePolicy: KeyValueStoreData
 deactivate "KV Store"
 deactivate KVStoreBasedConsolePolicy
 
 actor System
 System -> KVStoreBasedConsolePolicy: ConsolePrepared
 activate KVStoreBasedConsolePolicy
 KVStoreBasedConsolePolicy -> WebConsole: LastConsoleLayout
 activate WebConsole
 WebConsole -> Browser: "lastConsoleLayout"
 deactivate WebConsole
 loop for all conlets to be displayed
     KVStoreBasedConsolePolicy -> ConletX: RenderConletRequest
     activate ConletX
     ConletX -> WebConsole: RenderConlet
     deactivate ConletX
     activate WebConsole
     WebConsole -> Browser: "renderConlet"
     deactivate WebConsole
 end
 deactivate KVStoreBasedConsolePolicy
 
 Browser -> WebConsole: "consoleLayout"
 activate WebConsole
 WebConsole -> KVStoreBasedConsolePolicy: ConsoleLayoutChanged
 deactivate WebConsole
 activate KVStoreBasedConsolePolicy
 KVStoreBasedConsolePolicy -> "KV Store": KeyValueStoreUpdate
 deactivate KVStoreBasedConsolePolicy
@enduml

PlantUML version 1.2022.1(Tue Feb 01 19:19:58 CET 2022)
(GPL source distribution)
Java Runtime: OpenJDK Runtime Environment
JVM: OpenJDK 64-Bit Server VM
Default Encoding: UTF-8
Language: de
Country: DE
--></g></svg>