<?xml version="1.0" encoding="UTF-8" standalone="no"?><svg xmlns="http://www.w3.org/2000/svg" xmlns:xlink="http://www.w3.org/1999/xlink" contentScriptType="application/ecmascript" contentStyleType="text/css" height="528px" preserveAspectRatio="none" style="width:775px;height:528px;" version="1.1" viewBox="0 0 775 528" width="775px" zoomAndPan="magnify"><defs><filter height="300%" id="f1g21ewmy2nq0e" width="300%" x="-1" y="-1"><feGaussianBlur result="blurOut" stdDeviation="2.0"/><feColorMatrix in="blurOut" result="blurOut2" type="matrix" values="0 0 0 0 0 0 0 0 0 0 0 0 0 0 0 0 0 0 .4 0"/><feOffset dx="4.0" dy="4.0" in="blurOut2" result="blurOut3"/><feBlend in="SourceGraphic" in2="blurOut3" mode="normal"/></filter></defs><g><rect fill="#FFFFFF" filter="url(#f1g21ewmy2nq0e)" height="29.1328" style="stroke: #A80036; stroke-width: 1.0;" width="10" x="211.5" y="117.2969"/><rect fill="#FFFFFF" filter="url(#f1g21ewmy2nq0e)" height="29.1328" style="stroke: #A80036; stroke-width: 1.0;" width="10" x="211.5" y="262.9609"/><rect fill="#FFFFFF" filter="url(#f1g21ewmy2nq0e)" height="29.1328" style="stroke: #A80036; stroke-width: 1.0;" width="10" x="211.5" y="374.4922"/><rect fill="#FFFFFF" filter="url(#f1g21ewmy2nq0e)" height="29.1328" style="stroke: #A80036; stroke-width: 1.0;" width="10" x="211.5" y="439.7578"/><rect fill="#FFFFFF" filter="url(#f1g21ewmy2nq0e)" height="58.2656" style="stroke: #A80036; stroke-width: 1.0;" width="10" x="391.5" y="146.4297"/><rect fill="#FFFFFF" filter="url(#f1g21ewmy2nq0e)" height="184.9297" style="stroke: #A80036; stroke-width: 1.0;" width="10" x="391.5" y="233.8281"/><rect fill="#FFFFFF" filter="url(#f1g21ewmy2nq0e)" height="29.1328" style="stroke: #A80036; stroke-width: 1.0;" width="10" x="391.5" y="468.8906"/><rect fill="#FFFFFF" filter="url(#f1g21ewmy2nq0e)" height="29.1328" style="stroke: #A80036; stroke-width: 1.0;" width="10" x="561.5" y="175.5625"/><rect fill="#FFFFFF" filter="url(#f1g21ewmy2nq0e)" height="29.1328" style="stroke: #A80036; stroke-width: 1.0;" width="10" x="713" y="345.3594"/><rect fill="#FFFFFF" filter="url(#f1g21ewmy2nq0e)" height="104.5313" style="stroke: #000000; stroke-width: 2.0;" width="751" x="13" y="307.2266"/><line style="stroke: #A80036; stroke-width: 1.0; stroke-dasharray: 5.0,5.0;" x1="60" x2="60" y1="86.2969" y2="516.1563"/><line style="stroke: #A80036; stroke-width: 1.0; stroke-dasharray: 5.0,5.0;" x1="216.5" x2="216.5" y1="86.2969" y2="516.1563"/><line style="stroke: #A80036; stroke-width: 1.0; stroke-dasharray: 5.0,5.0;" x1="396" x2="396" y1="86.2969" y2="516.1563"/><line style="stroke: #A80036; stroke-width: 1.0; stroke-dasharray: 5.0,5.0;" x1="566" x2="566" y1="86.2969" y2="516.1563"/><line style="stroke: #A80036; stroke-width: 1.0; stroke-dasharray: 5.0,5.0;" x1="643" x2="643" y1="86.2969" y2="516.1563"/><line style="stroke: #A80036; stroke-width: 1.0; stroke-dasharray: 5.0,5.0;" x1="718" x2="718" y1="86.2969" y2="516.1563"/><rect fill="#FEFECE" filter="url(#f1g21ewmy2nq0e)" height="30.2969" style="stroke: #A80036; stroke-width: 1.5;" width="71" x="23" y="51"/><text fill="#000000" font-family="sans-serif" font-size="14" lengthAdjust="spacingAndGlyphs" textLength="57" x="30" y="70.9951">Browser</text><rect fill="#FEFECE" filter="url(#f1g21ewmy2nq0e)" height="30.2969" style="stroke: #A80036; stroke-width: 1.5;" width="102" x="163.5" y="51"/><text fill="#000000" font-family="sans-serif" font-size="14" lengthAdjust="spacingAndGlyphs" textLength="88" x="170.5" y="70.9951">WebConsole</text><rect fill="#FEFECE" filter="url(#f1g21ewmy2nq0e)" height="30.2969" style="stroke: #A80036; stroke-width: 1.5;" width="209" x="290" y="51"/><text fill="#000000" font-family="sans-serif" font-size="14" lengthAdjust="spacingAndGlyphs" textLength="195" x="297" y="70.9951">KVStoreBasedConsolePolicy</text><rect fill="#FEFECE" filter="url(#f1g21ewmy2nq0e)" height="30.2969" style="stroke: #A80036; stroke-width: 1.5;" width="73" x="528" y="51"/><text fill="#000000" font-family="sans-serif" font-size="14" lengthAdjust="spacingAndGlyphs" textLength="59" x="535" y="70.9951">KV Store</text><text fill="#000000" font-family="sans-serif" font-size="14" lengthAdjust="spacingAndGlyphs" textLength="51" x="615" y="82.9951">System</text><ellipse cx="643.5" cy="13" fill="#FEFECE" filter="url(#f1g21ewmy2nq0e)" rx="8" ry="8" style="stroke: #A80036; stroke-width: 2.0;"/><path d="M643.5,21 L643.5,48 M630.5,29 L656.5,29 M643.5,48 L630.5,63 M643.5,48 L656.5,63 " fill="#FEFECE" filter="url(#f1g21ewmy2nq0e)" style="stroke: #A80036; stroke-width: 2.0;"/><rect fill="#FEFECE" filter="url(#f1g21ewmy2nq0e)" height="30.2969" style="stroke: #A80036; stroke-width: 1.5;" width="68" x="682" y="51"/><text fill="#000000" font-family="sans-serif" font-size="14" lengthAdjust="spacingAndGlyphs" textLength="54" x="689" y="70.9951">ConletX</text><rect fill="#FFFFFF" filter="url(#f1g21ewmy2nq0e)" height="29.1328" style="stroke: #A80036; stroke-width: 1.0;" width="10" x="211.5" y="117.2969"/><rect fill="#FFFFFF" filter="url(#f1g21ewmy2nq0e)" height="29.1328" style="stroke: #A80036; stroke-width: 1.0;" width="10" x="211.5" y="262.9609"/><rect fill="#FFFFFF" filter="url(#f1g21ewmy2nq0e)" height="29.1328" style="stroke: #A80036; stroke-width: 1.0;" width="10" x="211.5" y="374.4922"/><rect fill="#FFFFFF" filter="url(#f1g21ewmy2nq0e)" height="29.1328" style="stroke: #A80036; stroke-width: 1.0;" width="10" x="211.5" y="439.7578"/><rect fill="#FFFFFF" filter="url(#f1g21ewmy2nq0e)" height="58.2656" style="stroke: #A80036; stroke-width: 1.0;" width="10" x="391.5" y="146.4297"/><rect fill="#FFFFFF" filter="url(#f1g21ewmy2nq0e)" height="184.9297" style="stroke: #A80036; stroke-width: 1.0;" width="10" x="391.5" y="233.8281"/><rect fill="#FFFFFF" filter="url(#f1g21ewmy2nq0e)" height="29.1328" style="stroke: #A80036; stroke-width: 1.0;" width="10" x="391.5" y="468.8906"/><rect fill="#FFFFFF" filter="url(#f1g21ewmy2nq0e)" height="29.1328" style="stroke: #A80036; stroke-width: 1.0;" width="10" x="561.5" y="175.5625"/><rect fill="#FFFFFF" filter="url(#f1g21ewmy2nq0e)" height="29.1328" style="stroke: #A80036; stroke-width: 1.0;" width="10" x="713" y="345.3594"/><polygon fill="#A80036" points="199.5,113.2969,209.5,117.2969,199.5,121.2969,203.5,117.2969" style="stroke: #A80036; stroke-width: 1.0;"/><line style="stroke: #A80036; stroke-width: 1.0;" x1="60.5" x2="205.5" y1="117.2969" y2="117.2969"/><text fill="#000000" font-family="sans-serif" font-size="13" lengthAdjust="spacingAndGlyphs" textLength="98" x="67.5" y="112.3638">"consoleReady"</text><polygon fill="#A80036" points="379.5,142.4297,389.5,146.4297,379.5,150.4297,383.5,146.4297" style="stroke: #A80036; stroke-width: 1.0;"/><line style="stroke: #A80036; stroke-width: 1.0;" x1="216.5" x2="385.5" y1="146.4297" y2="146.4297"/><text fill="#000000" font-family="sans-serif" font-size="13" lengthAdjust="spacingAndGlyphs" textLength="90" x="223.5" y="141.4966">ConsoleReady</text><polygon fill="#A80036" points="549.5,171.5625,559.5,175.5625,549.5,179.5625,553.5,175.5625" style="stroke: #A80036; stroke-width: 1.0;"/><line style="stroke: #A80036; stroke-width: 1.0;" x1="401.5" x2="555.5" y1="175.5625" y2="175.5625"/><text fill="#000000" font-family="sans-serif" font-size="13" lengthAdjust="spacingAndGlyphs" textLength="132" x="408.5" y="170.6294">KeyValueStoreQuery</text><polygon fill="#A80036" points="407.5,200.6953,397.5,204.6953,407.5,208.6953,403.5,204.6953" style="stroke: #A80036; stroke-width: 1.0;"/><line style="stroke: #A80036; stroke-width: 1.0;" x1="401.5" x2="565.5" y1="204.6953" y2="204.6953"/><text fill="#000000" font-family="sans-serif" font-size="13" lengthAdjust="spacingAndGlyphs" textLength="125" x="413.5" y="199.7622">KeyValueStoreData</text><polygon fill="#A80036" points="412.5,229.8281,402.5,233.8281,412.5,237.8281,408.5,233.8281" style="stroke: #A80036; stroke-width: 1.0;"/><line style="stroke: #A80036; stroke-width: 1.0;" x1="406.5" x2="642.5" y1="233.8281" y2="233.8281"/><text fill="#000000" font-family="sans-serif" font-size="13" lengthAdjust="spacingAndGlyphs" textLength="109" x="418.5" y="228.895">ConsolePrepared</text><polygon fill="#A80036" points="232.5,258.9609,222.5,262.9609,232.5,266.9609,228.5,262.9609" style="stroke: #A80036; stroke-width: 1.0;"/><line style="stroke: #A80036; stroke-width: 1.0;" x1="226.5" x2="390.5" y1="262.9609" y2="262.9609"/><text fill="#000000" font-family="sans-serif" font-size="13" lengthAdjust="spacingAndGlyphs" textLength="121" x="238.5" y="258.0278">LastConsoleLayout</text><polygon fill="#A80036" points="71.5,288.0938,61.5,292.0938,71.5,296.0938,67.5,292.0938" style="stroke: #A80036; stroke-width: 1.0;"/><line style="stroke: #A80036; stroke-width: 1.0;" x1="65.5" x2="215.5" y1="292.0938" y2="292.0938"/><text fill="#000000" font-family="sans-serif" font-size="13" lengthAdjust="spacingAndGlyphs" textLength="127" x="77.5" y="287.1606">"lastConsoleLayout"</text><rect fill="none" height="104.5313" style="stroke: #000000; stroke-width: 2.0;" width="751" x="13" y="307.2266"/><polygon fill="#EEEEEE" points="13,307.2266,90,307.2266,90,314.2266,80,324.2266,13,324.2266,13,307.2266" style="stroke: #000000; stroke-width: 2.0;"/><text fill="#000000" font-family="sans-serif" font-size="13" font-weight="bold" lengthAdjust="spacingAndGlyphs" textLength="32" x="28" y="320.2935">loop</text><text fill="#000000" font-family="sans-serif" font-size="11" font-weight="bold" lengthAdjust="spacingAndGlyphs" textLength="202" x="105" y="319.437">[for all conlets to be displayed]</text><polygon fill="#A80036" points="701,341.3594,711,345.3594,701,349.3594,705,345.3594" style="stroke: #A80036; stroke-width: 1.0;"/><line style="stroke: #A80036; stroke-width: 1.0;" x1="401.5" x2="707" y1="345.3594" y2="345.3594"/><text fill="#000000" font-family="sans-serif" font-size="13" lengthAdjust="spacingAndGlyphs" textLength="138" x="408.5" y="340.4263">RenderConletRequest</text><polygon fill="#A80036" points="232.5,370.4922,222.5,374.4922,232.5,378.4922,228.5,374.4922" style="stroke: #A80036; stroke-width: 1.0;"/><line style="stroke: #A80036; stroke-width: 1.0;" x1="226.5" x2="717" y1="374.4922" y2="374.4922"/><text fill="#000000" font-family="sans-serif" font-size="13" lengthAdjust="spacingAndGlyphs" textLength="86" x="238.5" y="369.5591">RenderConlet</text><polygon fill="#A80036" points="71.5,399.625,61.5,403.625,71.5,407.625,67.5,403.625" style="stroke: #A80036; stroke-width: 1.0;"/><line style="stroke: #A80036; stroke-width: 1.0;" x1="65.5" x2="215.5" y1="403.625" y2="403.625"/><text fill="#000000" font-family="sans-serif" font-size="13" lengthAdjust="spacingAndGlyphs" textLength="93" x="77.5" y="398.6919">"renderConlet"</text><polygon fill="#A80036" points="199.5,435.7578,209.5,439.7578,199.5,443.7578,203.5,439.7578" style="stroke: #A80036; stroke-width: 1.0;"/><line style="stroke: #A80036; stroke-width: 1.0;" x1="60.5" x2="205.5" y1="439.7578" y2="439.7578"/><text fill="#000000" font-family="sans-serif" font-size="13" lengthAdjust="spacingAndGlyphs" textLength="102" x="67.5" y="434.8247">"consoleLayout"</text><polygon fill="#A80036" points="379.5,464.8906,389.5,468.8906,379.5,472.8906,383.5,468.8906" style="stroke: #A80036; stroke-width: 1.0;"/><line style="stroke: #A80036; stroke-width: 1.0;" x1="216.5" x2="385.5" y1="468.8906" y2="468.8906"/><text fill="#000000" font-family="sans-serif" font-size="13" lengthAdjust="spacingAndGlyphs" textLength="151" x="223.5" y="463.9575">ConsoleLayoutChanged</text><polygon fill="#A80036" points="554.5,494.0234,564.5,498.0234,554.5,502.0234,558.5,498.0234" style="stroke: #A80036; stroke-width: 1.0;"/><line style="stroke: #A80036; stroke-width: 1.0;" x1="396.5" x2="560.5" y1="498.0234" y2="498.0234"/><text fill="#000000" font-family="sans-serif" font-size="13" lengthAdjust="spacingAndGlyphs" textLength="141" x="403.5" y="493.0903">KeyValueStoreUpdate</text><!--
@startuml
hide footbox
 
 Browser -> WebConsole: "consoleReady"
 activate WebConsole
 WebConsole -> KVStoreBasedConsolePolicy: ConsoleReady
 deactivate WebConsole
 activate KVStoreBasedConsolePolicy
 KVStoreBasedConsolePolicy -> "KV Store": KeyValueStoreQuery
 activate "KV Store"
 "KV Store" -> KVStoreBasedConsolePolicy: KeyValueStoreData
 deactivate "KV Store"
 deactivate KVStoreBasedConsolePolicy
 
 actor System
 System -> KVStoreBasedConsolePolicy: ConsolePrepared
 activate KVStoreBasedConsolePolicy
 KVStoreBasedConsolePolicy -> WebConsole: LastConsoleLayout
 activate WebConsole
 WebConsole -> Browser: "lastConsoleLayout"
 deactivate WebConsole
 loop for all conlets to be displayed
     KVStoreBasedConsolePolicy -> ConletX: RenderConletRequest
     activate ConletX
     ConletX -> WebConsole: RenderConlet
     deactivate ConletX
     activate WebConsole
     WebConsole -> Browser: "renderConlet"
     deactivate WebConsole
 end
 deactivate KVStoreBasedConsolePolicy
 
 Browser -> WebConsole: "consoleLayout"
 activate WebConsole
 WebConsole -> KVStoreBasedConsolePolicy: ConsoleLayoutChanged
 deactivate WebConsole
 activate KVStoreBasedConsolePolicy
 KVStoreBasedConsolePolicy -> "KV Store": KeyValueStoreUpdate
 deactivate KVStoreBasedConsolePolicy
@enduml

PlantUML version 1.2017.18(Fri Oct 06 16:56:32 UTC 2017)
(GPL source distribution)
Java Runtime: OpenJDK Runtime Environment
JVM: OpenJDK 64-Bit Server VM
Java Version: 11.0.10+9-LTS
Operating System: Linux
OS Version: 5.4.0-1043-azure
Default Encoding: UTF-8
Language: en
Country: 
--></g></svg>