<?xml version="1.0" encoding="UTF-8" standalone="no"?><svg xmlns="http://www.w3.org/2000/svg" xmlns:xlink="http://www.w3.org/1999/xlink" contentScriptType="application/ecmascript" contentStyleType="text/css" height="466px" preserveAspectRatio="none" style="width:749px;height:466px;background:#FFFFFF;" version="1.1" viewBox="0 0 749 466" width="749px" zoomAndPan="magnify"><defs><filter height="300%" id="f1cdrvw1q1cymn" width="300%" x="-1" y="-1"><feGaussianBlur result="blurOut" stdDeviation="2.0"/><feColorMatrix in="blurOut" result="blurOut2" type="matrix" values="0 0 0 0 0 0 0 0 0 0 0 0 0 0 0 0 0 0 .4 0"/><feOffset dx="4.0" dy="4.0" in="blurOut2" result="blurOut3"/><feBlend in="SourceGraphic" in2="blurOut3" mode="normal"/></filter></defs><g><rect fill="#FFFFFF" filter="url(#f1cdrvw1q1cymn)" height="29.1328" style="stroke:#A80036;stroke-width:1.0;" width="10" x="173.5" y="119.4297"/><rect fill="#FFFFFF" filter="url(#f1cdrvw1q1cymn)" height="184.7969" style="stroke:#A80036;stroke-width:1.0;" width="10" x="173.5" y="177.6953"/><rect fill="#FFFFFF" filter="url(#f1cdrvw1q1cymn)" height="29.1328" style="stroke:#A80036;stroke-width:1.0;" width="10" x="173.5" y="412.7578"/><rect fill="#FFFFFF" filter="url(#f1cdrvw1q1cymn)" height="29.1328" style="stroke:#A80036;stroke-width:1.0;" width="10" x="343.5" y="148.5625"/><rect fill="#FFFFFF" filter="url(#f1cdrvw1q1cymn)" height="9" style="stroke:#A80036;stroke-width:1.0;" width="10" x="343.5" y="441.8906"/><rect fill="#FFFFFF" filter="url(#f1cdrvw1q1cymn)" height="29.1328" style="stroke:#A80036;stroke-width:1.0;" width="10" x="445" y="206.8281"/><rect fill="#FFFFFF" filter="url(#f1cdrvw1q1cymn)" height="29.1328" style="stroke:#A80036;stroke-width:1.0;" width="10" x="445" y="318.3594"/><rect fill="#FFFFFF" filter="url(#f1cdrvw1q1cymn)" height="29.1328" style="stroke:#A80036;stroke-width:1.0;" width="10" x="445" y="383.625"/><rect fill="#FFFFFF" filter="url(#f1cdrvw1q1cymn)" height="29.1328" style="stroke:#A80036;stroke-width:1.0;" width="10" x="684.5" y="289.2266"/><rect fill="#FFFFFF" filter="url(#f1cdrvw1q1cymn)" height="104.5313" style="stroke:#000000;stroke-width:2.0;" width="673.5" x="62" y="250.9609"/><line style="stroke:#A80036;stroke-width:1.0;stroke-dasharray:5.0,5.0;" x1="33" x2="33" y1="88.2969" y2="459.8906"/><line style="stroke:#A80036;stroke-width:1.0;stroke-dasharray:5.0,5.0;" x1="178" x2="178" y1="88.2969" y2="459.8906"/><line style="stroke:#A80036;stroke-width:1.0;stroke-dasharray:5.0,5.0;" x1="348" x2="348" y1="88.2969" y2="459.8906"/><line style="stroke:#A80036;stroke-width:1.0;stroke-dasharray:5.0,5.0;" x1="450" x2="450" y1="88.2969" y2="459.8906"/><line style="stroke:#A80036;stroke-width:1.0;stroke-dasharray:5.0,5.0;" x1="605.5" x2="605.5" y1="88.2969" y2="459.8906"/><line style="stroke:#A80036;stroke-width:1.0;stroke-dasharray:5.0,5.0;" x1="689.5" x2="689.5" y1="88.2969" y2="459.8906"/><text fill="#000000" font-family="sans-serif" font-size="14" lengthAdjust="spacing" textLength="51" x="5" y="84.9951">System</text><ellipse cx="33.5" cy="15" fill="#FEFECE" filter="url(#f1cdrvw1q1cymn)" rx="8" ry="8" style="stroke:#A80036;stroke-width:2.0;"/><path d="M33.5,23 L33.5,50 M20.5,31 L46.5,31 M33.5,50 L20.5,65 M33.5,50 L46.5,65 " fill="none" filter="url(#f1cdrvw1q1cymn)" style="stroke:#A80036;stroke-width:2.0;"/><rect fill="#FEFECE" filter="url(#f1cdrvw1q1cymn)" height="30.2969" style="stroke:#A80036;stroke-width:1.5;" width="209" x="72" y="53"/><text fill="#000000" font-family="sans-serif" font-size="14" lengthAdjust="spacing" textLength="195" x="79" y="72.9951">KVStoreBasedConsolePolicy</text><rect fill="#FEFECE" filter="url(#f1cdrvw1q1cymn)" height="30.2969" style="stroke:#A80036;stroke-width:1.5;" width="73" x="310" y="53"/><text fill="#000000" font-family="sans-serif" font-size="14" lengthAdjust="spacing" textLength="59" x="317" y="72.9951">KV Store</text><rect fill="#FEFECE" filter="url(#f1cdrvw1q1cymn)" height="30.2969" style="stroke:#A80036;stroke-width:1.5;" width="102" x="397" y="53"/><text fill="#000000" font-family="sans-serif" font-size="14" lengthAdjust="spacing" textLength="88" x="404" y="72.9951">WebConsole</text><rect fill="#FEFECE" filter="url(#f1cdrvw1q1cymn)" height="30.2969" style="stroke:#A80036;stroke-width:1.5;" width="71" x="568.5" y="53"/><text fill="#000000" font-family="sans-serif" font-size="14" lengthAdjust="spacing" textLength="57" x="575.5" y="72.9951">Browser</text><rect fill="#FEFECE" filter="url(#f1cdrvw1q1cymn)" height="30.2969" style="stroke:#A80036;stroke-width:1.5;" width="68" x="653.5" y="53"/><text fill="#000000" font-family="sans-serif" font-size="14" lengthAdjust="spacing" textLength="54" x="660.5" y="72.9951">ConletX</text><rect fill="#FFFFFF" filter="url(#f1cdrvw1q1cymn)" height="29.1328" style="stroke:#A80036;stroke-width:1.0;" width="10" x="173.5" y="119.4297"/><rect fill="#FFFFFF" filter="url(#f1cdrvw1q1cymn)" height="184.7969" style="stroke:#A80036;stroke-width:1.0;" width="10" x="173.5" y="177.6953"/><rect fill="#FFFFFF" filter="url(#f1cdrvw1q1cymn)" height="29.1328" style="stroke:#A80036;stroke-width:1.0;" width="10" x="173.5" y="412.7578"/><rect fill="#FFFFFF" filter="url(#f1cdrvw1q1cymn)" height="29.1328" style="stroke:#A80036;stroke-width:1.0;" width="10" x="343.5" y="148.5625"/><rect fill="#FFFFFF" filter="url(#f1cdrvw1q1cymn)" height="9" style="stroke:#A80036;stroke-width:1.0;" width="10" x="343.5" y="441.8906"/><rect fill="#FFFFFF" filter="url(#f1cdrvw1q1cymn)" height="29.1328" style="stroke:#A80036;stroke-width:1.0;" width="10" x="445" y="206.8281"/><rect fill="#FFFFFF" filter="url(#f1cdrvw1q1cymn)" height="29.1328" style="stroke:#A80036;stroke-width:1.0;" width="10" x="445" y="318.3594"/><rect fill="#FFFFFF" filter="url(#f1cdrvw1q1cymn)" height="29.1328" style="stroke:#A80036;stroke-width:1.0;" width="10" x="445" y="383.625"/><rect fill="#FFFFFF" filter="url(#f1cdrvw1q1cymn)" height="29.1328" style="stroke:#A80036;stroke-width:1.0;" width="10" x="684.5" y="289.2266"/><polygon fill="#A80036" points="161.5,115.4297,171.5,119.4297,161.5,123.4297,165.5,119.4297" style="stroke:#A80036;stroke-width:1.0;"/><line style="stroke:#A80036;stroke-width:1.0;" x1="33.5" x2="167.5" y1="119.4297" y2="119.4297"/><text fill="#000000" font-family="sans-serif" font-size="13" lengthAdjust="spacing" textLength="109" x="40.5" y="114.3638">ConsolePrepared</text><polygon fill="#A80036" points="331.5,144.5625,341.5,148.5625,331.5,152.5625,335.5,148.5625" style="stroke:#A80036;stroke-width:1.0;"/><line style="stroke:#A80036;stroke-width:1.0;" x1="178.5" x2="337.5" y1="148.5625" y2="148.5625"/><text fill="#000000" font-family="sans-serif" font-size="13" lengthAdjust="spacing" textLength="132" x="185.5" y="143.4966">KeyValueStoreQuery</text><polygon fill="#A80036" points="194.5,173.6953,184.5,177.6953,194.5,181.6953,190.5,177.6953" style="stroke:#A80036;stroke-width:1.0;"/><line style="stroke:#A80036;stroke-width:1.0;" x1="188.5" x2="347.5" y1="177.6953" y2="177.6953"/><text fill="#000000" font-family="sans-serif" font-size="13" lengthAdjust="spacing" textLength="125" x="200.5" y="172.6294">KeyValueStoreData</text><polygon fill="#A80036" points="433,202.8281,443,206.8281,433,210.8281,437,206.8281" style="stroke:#A80036;stroke-width:1.0;"/><line style="stroke:#A80036;stroke-width:1.0;" x1="183.5" x2="439" y1="206.8281" y2="206.8281"/><text fill="#000000" font-family="sans-serif" font-size="13" lengthAdjust="spacing" textLength="121" x="190.5" y="201.7622">LastConsoleLayout</text><polygon fill="#A80036" points="594,231.9609,604,235.9609,594,239.9609,598,235.9609" style="stroke:#A80036;stroke-width:1.0;"/><line style="stroke:#A80036;stroke-width:1.0;" x1="450" x2="600" y1="235.9609" y2="235.9609"/><text fill="#000000" font-family="sans-serif" font-size="13" lengthAdjust="spacing" textLength="127" x="457" y="230.895">"lastConsoleLayout"</text><path d="M62,250.9609 L139,250.9609 L139,257.9609 L129,267.9609 L62,267.9609 L62,250.9609 " fill="#EEEEEE" style="stroke:#000000;stroke-width:1.0;"/><rect fill="none" height="104.5313" style="stroke:#000000;stroke-width:2.0;" width="673.5" x="62" y="250.9609"/><text fill="#000000" font-family="sans-serif" font-size="13" font-weight="bold" lengthAdjust="spacing" textLength="32" x="77" y="264.0278">loop</text><text fill="#000000" font-family="sans-serif" font-size="11" font-weight="bold" lengthAdjust="spacing" textLength="202" x="154" y="263.1714">[for all conlets to be displayed]</text><polygon fill="#A80036" points="672.5,285.2266,682.5,289.2266,672.5,293.2266,676.5,289.2266" style="stroke:#A80036;stroke-width:1.0;"/><line style="stroke:#A80036;stroke-width:1.0;" x1="183.5" x2="678.5" y1="289.2266" y2="289.2266"/><text fill="#000000" font-family="sans-serif" font-size="13" lengthAdjust="spacing" textLength="138" x="190.5" y="284.1606">RenderConletRequest</text><polygon fill="#A80036" points="466,314.3594,456,318.3594,466,322.3594,462,318.3594" style="stroke:#A80036;stroke-width:1.0;"/><line style="stroke:#A80036;stroke-width:1.0;" x1="460" x2="688.5" y1="318.3594" y2="318.3594"/><text fill="#000000" font-family="sans-serif" font-size="13" lengthAdjust="spacing" textLength="86" x="472" y="313.2935">RenderConlet</text><polygon fill="#A80036" points="594,343.4922,604,347.4922,594,351.4922,598,347.4922" style="stroke:#A80036;stroke-width:1.0;"/><line style="stroke:#A80036;stroke-width:1.0;" x1="450" x2="600" y1="347.4922" y2="347.4922"/><text fill="#000000" font-family="sans-serif" font-size="13" lengthAdjust="spacing" textLength="93" x="457" y="342.4263">"renderConlet"</text><polygon fill="#A80036" points="466,379.625,456,383.625,466,387.625,462,383.625" style="stroke:#A80036;stroke-width:1.0;"/><line style="stroke:#A80036;stroke-width:1.0;" x1="460" x2="605" y1="383.625" y2="383.625"/><text fill="#000000" font-family="sans-serif" font-size="13" lengthAdjust="spacing" textLength="102" x="472" y="378.5591">"consoleLayout"</text><polygon fill="#A80036" points="194.5,408.7578,184.5,412.7578,194.5,416.7578,190.5,412.7578" style="stroke:#A80036;stroke-width:1.0;"/><line style="stroke:#A80036;stroke-width:1.0;" x1="188.5" x2="449" y1="412.7578" y2="412.7578"/><text fill="#000000" font-family="sans-serif" font-size="13" lengthAdjust="spacing" textLength="151" x="200.5" y="407.6919">ConsoleLayoutChanged</text><polygon fill="#A80036" points="331.5,437.8906,341.5,441.8906,331.5,445.8906,335.5,441.8906" style="stroke:#A80036;stroke-width:1.0;"/><line style="stroke:#A80036;stroke-width:1.0;" x1="178.5" x2="337.5" y1="441.8906" y2="441.8906"/><text fill="#000000" font-family="sans-serif" font-size="13" lengthAdjust="spacing" textLength="141" x="185.5" y="436.8247">KeyValueStoreUpdate</text><!--MD5=[87c1808a06df9baac7e1e7fff29b81a5]
@startuml
hide footbox
 
 actor System
 System -> KVStoreBasedConsolePolicy: ConsolePrepared
 activate KVStoreBasedConsolePolicy
 KVStoreBasedConsolePolicy -> "KV Store": KeyValueStoreQuery
 deactivate KVStoreBasedConsolePolicy
 activate "KV Store"
 "KV Store" -> KVStoreBasedConsolePolicy: KeyValueStoreData
 deactivate "KV Store"
 activate KVStoreBasedConsolePolicy
 KVStoreBasedConsolePolicy -> WebConsole: LastConsoleLayout
 activate WebConsole
 WebConsole -> Browser: "lastConsoleLayout"
 deactivate WebConsole
 loop for all conlets to be displayed
     KVStoreBasedConsolePolicy -> ConletX: RenderConletRequest
     activate ConletX
     ConletX -> WebConsole: RenderConlet
     deactivate ConletX
     activate WebConsole
     WebConsole -> Browser: "renderConlet"
     deactivate WebConsole
 end
 deactivate KVStoreBasedConsolePolicy
 
 Browser -> WebConsole: "consoleLayout"
 activate WebConsole
 WebConsole -> KVStoreBasedConsolePolicy: ConsoleLayoutChanged
 deactivate WebConsole
 activate KVStoreBasedConsolePolicy
 KVStoreBasedConsolePolicy -> "KV Store": KeyValueStoreUpdate
 deactivate KVStoreBasedConsolePolicy
 activate "KV Store"
 deactivate "KV Store"
@enduml

PlantUML version 1.2022.1(Tue Feb 01 18:19:58 UTC 2022)
(GPL source distribution)
Java Runtime: OpenJDK Runtime Environment
JVM: OpenJDK 64-Bit Server VM
Default Encoding: UTF-8
Language: en
Country: 
--></g></svg>