<?xml version="1.0" encoding="UTF-8" standalone="no"?><svg xmlns="http://www.w3.org/2000/svg" xmlns:xlink="http://www.w3.org/1999/xlink" contentScriptType="application/ecmascript" contentStyleType="text/css" height="331px" preserveAspectRatio="none" style="width:381px;height:331px;background:#FFFFFF;" version="1.1" viewBox="0 0 381 331" width="381px" zoomAndPan="magnify"><defs><filter height="300%" id="fv4s3bdn97mhh" width="300%" x="-1" y="-1"><feGaussianBlur result="blurOut" stdDeviation="2.0"/><feColorMatrix in="blurOut" result="blurOut2" type="matrix" values="0 0 0 0 0 0 0 0 0 0 0 0 0 0 0 0 0 0 .4 0"/><feOffset dx="4.0" dy="4.0" in="blurOut2" result="blurOut3"/><feBlend in="SourceGraphic" in2="blurOut3" mode="normal"/></filter></defs><g><rect fill="#FFFFFF" filter="url(#fv4s3bdn97mhh)" height="21.1328" style="stroke:#A80036;stroke-width:1.0;" width="10" x="68" y="50.2969"/><rect fill="#FFFFFF" filter="url(#fv4s3bdn97mhh)" height="242.7969" style="stroke:#A80036;stroke-width:1.0;" width="10" x="213" y="71.4297"/><rect fill="#FFFFFF" filter="url(#fv4s3bdn97mhh)" height="28" style="stroke:#A80036;stroke-width:1.0;" width="10" x="218" y="108.5625"/><rect fill="#FFFFFF" filter="url(#fv4s3bdn97mhh)" height="133.5313" style="stroke:#A80036;stroke-width:1.0;" width="10" x="218" y="180.6953"/><rect fill="#FFFFFF" filter="url(#fv4s3bdn97mhh)" height="46.2656" style="stroke:#000000;stroke-width:2.0;" width="249.5" x="10" y="200.6953"/><rect fill="#FFFFFF" filter="url(#fv4s3bdn97mhh)" height="46.2656" style="stroke:#000000;stroke-width:2.0;" width="249.5" x="10" y="260.9609"/><line style="stroke:#A80036;stroke-width:1.0;stroke-dasharray:5.0,5.0;" x1="73" x2="73" y1="40.2969" y2="324.2266"/><line style="stroke:#A80036;stroke-width:1.0;stroke-dasharray:5.0,5.0;" x1="217.5" x2="217.5" y1="40.2969" y2="324.2266"/><rect fill="#FEFECE" filter="url(#fv4s3bdn97mhh)" height="30.2969" style="stroke:#A80036;stroke-width:1.5;" width="102" x="20" y="5"/><text fill="#000000" font-family="sans-serif" font-size="14" lengthAdjust="spacing" textLength="88" x="27" y="24.9951">WebConsole</text><rect fill="#FEFECE" filter="url(#fv4s3bdn97mhh)" height="30.2969" style="stroke:#A80036;stroke-width:1.5;" width="59" x="186.5" y="5"/><text fill="#000000" font-family="sans-serif" font-size="14" lengthAdjust="spacing" textLength="45" x="193.5" y="24.9951">Conlet</text><rect fill="#FFFFFF" filter="url(#fv4s3bdn97mhh)" height="21.1328" style="stroke:#A80036;stroke-width:1.0;" width="10" x="68" y="50.2969"/><rect fill="#FFFFFF" filter="url(#fv4s3bdn97mhh)" height="242.7969" style="stroke:#A80036;stroke-width:1.0;" width="10" x="213" y="71.4297"/><rect fill="#FFFFFF" filter="url(#fv4s3bdn97mhh)" height="28" style="stroke:#A80036;stroke-width:1.0;" width="10" x="218" y="108.5625"/><rect fill="#FFFFFF" filter="url(#fv4s3bdn97mhh)" height="133.5313" style="stroke:#A80036;stroke-width:1.0;" width="10" x="218" y="180.6953"/><polygon fill="#A80036" points="201,67.4297,211,71.4297,201,75.4297,205,71.4297" style="stroke:#A80036;stroke-width:1.0;"/><line style="stroke:#A80036;stroke-width:1.0;" x1="73" x2="207" y1="71.4297" y2="71.4297"/><text fill="#000000" font-family="sans-serif" font-size="13" lengthAdjust="spacing" textLength="116" x="80" y="66.3638">NotifyConletModel</text><line style="stroke:#A80036;stroke-width:1.0;" x1="228" x2="270" y1="100.5625" y2="100.5625"/><line style="stroke:#A80036;stroke-width:1.0;" x1="270" x2="270" y1="100.5625" y2="113.5625"/><line style="stroke:#A80036;stroke-width:1.0;" x1="229" x2="270" y1="113.5625" y2="113.5625"/><polygon fill="#A80036" points="239,109.5625,229,113.5625,239,117.5625,235,113.5625" style="stroke:#A80036;stroke-width:1.0;"/><text fill="#000000" font-family="sans-serif" font-size="13" lengthAdjust="spacing" textLength="116" x="235" y="95.4966">stateFromSession</text><line style="stroke:#A80036;stroke-width:1.0;" x1="223" x2="270" y1="167.6953" y2="167.6953"/><line style="stroke:#A80036;stroke-width:1.0;" x1="270" x2="270" y1="167.6953" y2="180.6953"/><line style="stroke:#A80036;stroke-width:1.0;" x1="229" x2="270" y1="180.6953" y2="180.6953"/><polygon fill="#A80036" points="239,176.6953,229,180.6953,239,184.6953,235,180.6953" style="stroke:#A80036;stroke-width:1.0;"/><text fill="#000000" font-family="sans-serif" font-size="13" lengthAdjust="spacing" textLength="139" x="235" y="162.6294">doUpdateConletState</text><path d="M10,200.6953 L80,200.6953 L80,207.6953 L70,217.6953 L10,217.6953 L10,200.6953 " fill="#EEEEEE" style="stroke:#000000;stroke-width:1.0;"/><rect fill="none" height="46.2656" style="stroke:#000000;stroke-width:2.0;" width="249.5" x="10" y="200.6953"/><text fill="#000000" font-family="sans-serif" font-size="13" font-weight="bold" lengthAdjust="spacing" textLength="25" x="25" y="213.7622">opt</text><polygon fill="#A80036" points="84,234.9609,74,238.9609,84,242.9609,80,238.9609" style="stroke:#A80036;stroke-width:1.0;"/><line style="stroke:#A80036;stroke-width:1.0;" x1="78" x2="217" y1="238.9609" y2="238.9609"/><text fill="#000000" font-family="sans-serif" font-size="13" lengthAdjust="spacing" textLength="86" x="90" y="233.895">RenderConlet</text><path d="M10,260.9609 L80,260.9609 L80,267.9609 L70,277.9609 L10,277.9609 L10,260.9609 " fill="#EEEEEE" style="stroke:#000000;stroke-width:1.0;"/><rect fill="none" height="46.2656" style="stroke:#000000;stroke-width:2.0;" width="249.5" x="10" y="260.9609"/><text fill="#000000" font-family="sans-serif" font-size="13" font-weight="bold" lengthAdjust="spacing" textLength="25" x="25" y="274.0278">opt</text><polygon fill="#A80036" points="84,295.2266,74,299.2266,84,303.2266,80,299.2266" style="stroke:#A80036;stroke-width:1.0;"/><line style="stroke:#A80036;stroke-width:1.0;" x1="78" x2="217" y1="299.2266" y2="299.2266"/><text fill="#000000" font-family="sans-serif" font-size="13" lengthAdjust="spacing" textLength="107" x="90" y="294.1606">NotifyConletView</text><!--MD5=[ea39c550b93f98fceeb26b8392213e43]
@startuml
hide footbox
 
 activate WebConsole
 WebConsole -> Conlet: NotifyConletModel
 deactivate WebConsole
 activate Conlet
 Conlet -> Conlet: stateFromSession
 activate Conlet
 deactivate Conlet
 Conlet -> Conlet: doUpdateConletState
 activate Conlet
 opt
     Conlet -> WebConsole: RenderConlet
 end opt 
 opt 
     Conlet -> WebConsole: NotifyConletView
 end opt 
 deactivate Conlet
 deactivate Conlet
@enduml

PlantUML version 1.2022.1(Tue Feb 01 18:19:58 UTC 2022)
(GPL source distribution)
Java Runtime: OpenJDK Runtime Environment
JVM: OpenJDK 64-Bit Server VM
Default Encoding: UTF-8
Language: en
Country: 
--></g></svg>