<?xml version="1.0" encoding="us-ascii" standalone="no"?><svg xmlns="http://www.w3.org/2000/svg" xmlns:xlink="http://www.w3.org/1999/xlink" contentStyleType="text/css" height="533px" preserveAspectRatio="none" style="width:379px;height:533px;background:#FFFFFF;" version="1.1" viewBox="0 0 379 533" width="379px" zoomAndPan="magnify"><defs/><g><rect fill="#FFFFFF" height="21.1328" style="stroke:#181818;stroke-width:1.0;" width="10" x="66" y="46.2969"/><rect fill="#FFFFFF" height="449.3281" style="stroke:#181818;stroke-width:1.0;" width="10" x="211" y="67.4297"/><rect fill="#FFFFFF" height="28" style="stroke:#181818;stroke-width:1.0;" width="10" x="216" y="104.5625"/><rect fill="#FFFFFF" height="28" style="stroke:#181818;stroke-width:1.0;" width="10" x="216" y="200.8281"/><rect fill="#FFFFFF" height="28" style="stroke:#181818;stroke-width:1.0;" width="10" x="216" y="297.0938"/><rect fill="#FFFFFF" height="133.5313" style="stroke:#181818;stroke-width:1.0;" width="10" x="216" y="383.2266"/><rect fill="none" height="192.5313" style="stroke:#000000;stroke-width:1.5;" width="175" x="166.5" y="154.5625"/><rect fill="none" height="89.2656" style="stroke:#000000;stroke-width:1.5;" width="150.5" x="176.5" y="250.8281"/><rect fill="none" height="46.2656" style="stroke:#000000;stroke-width:1.5;" width="245.5" x="10" y="403.2266"/><rect fill="none" height="46.2656" style="stroke:#000000;stroke-width:1.5;" width="245.5" x="10" y="463.4922"/><line style="stroke:#181818;stroke-width:0.5;stroke-dasharray:5.0,5.0;" x1="71" x2="71" y1="36.2969" y2="526.7578"/><line style="stroke:#181818;stroke-width:0.5;stroke-dasharray:5.0,5.0;" x1="215.5" x2="215.5" y1="36.2969" y2="526.7578"/><rect fill="#E2E2F0" height="30.2969" rx="2.5" ry="2.5" style="stroke:#181818;stroke-width:0.5;" width="102" x="20" y="5"/><text fill="#000000" font-family="sans-serif" font-size="14" lengthAdjust="spacing" textLength="88" x="27" y="24.9951">WebConsole</text><rect fill="#E2E2F0" height="30.2969" rx="2.5" ry="2.5" style="stroke:#181818;stroke-width:0.5;" width="59" x="186.5" y="5"/><text fill="#000000" font-family="sans-serif" font-size="14" lengthAdjust="spacing" textLength="45" x="193.5" y="24.9951">Conlet</text><rect fill="#FFFFFF" height="21.1328" style="stroke:#181818;stroke-width:1.0;" width="10" x="66" y="46.2969"/><rect fill="#FFFFFF" height="449.3281" style="stroke:#181818;stroke-width:1.0;" width="10" x="211" y="67.4297"/><rect fill="#FFFFFF" height="28" style="stroke:#181818;stroke-width:1.0;" width="10" x="216" y="104.5625"/><rect fill="#FFFFFF" height="28" style="stroke:#181818;stroke-width:1.0;" width="10" x="216" y="200.8281"/><rect fill="#FFFFFF" height="28" style="stroke:#181818;stroke-width:1.0;" width="10" x="216" y="297.0938"/><rect fill="#FFFFFF" height="133.5313" style="stroke:#181818;stroke-width:1.0;" width="10" x="216" y="383.2266"/><polygon fill="#181818" points="199,63.4297,209,67.4297,199,71.4297,203,67.4297" style="stroke:#181818;stroke-width:1.0;"/><line style="stroke:#181818;stroke-width:1.0;" x1="71" x2="205" y1="67.4297" y2="67.4297"/><text fill="#000000" font-family="sans-serif" font-size="13" lengthAdjust="spacing" textLength="116" x="78" y="62.3638">NotifyConletModel</text><line style="stroke:#181818;stroke-width:1.0;" x1="226" x2="268" y1="96.5625" y2="96.5625"/><line style="stroke:#181818;stroke-width:1.0;" x1="268" x2="268" y1="96.5625" y2="109.5625"/><line style="stroke:#181818;stroke-width:1.0;" x1="227" x2="268" y1="109.5625" y2="109.5625"/><polygon fill="#181818" points="237,105.5625,227,109.5625,237,113.5625,233,109.5625" style="stroke:#181818;stroke-width:1.0;"/><text fill="#000000" font-family="sans-serif" font-size="13" lengthAdjust="spacing" textLength="116" x="233" y="91.4966">stateFromSession</text><path d="M166.5,154.5625 L236.5,154.5625 L236.5,161.6953 L226.5,171.6953 L166.5,171.6953 L166.5,154.5625 " fill="#EEEEEE" style="stroke:#000000;stroke-width:1.5;"/><rect fill="none" height="192.5313" style="stroke:#000000;stroke-width:1.5;" width="175" x="166.5" y="154.5625"/><text fill="#000000" font-family="sans-serif" font-size="13" font-weight="bold" lengthAdjust="spacing" textLength="25" x="181.5" y="167.6294">opt</text><text fill="#000000" font-family="sans-serif" font-size="11" font-weight="bold" lengthAdjust="spacing" textLength="85" x="251.5" y="166.7729">[if not found]</text><line style="stroke:#181818;stroke-width:1.0;" x1="226" x2="268" y1="192.8281" y2="192.8281"/><line style="stroke:#181818;stroke-width:1.0;" x1="268" x2="268" y1="192.8281" y2="205.8281"/><line style="stroke:#181818;stroke-width:1.0;" x1="227" x2="268" y1="205.8281" y2="205.8281"/><polygon fill="#181818" points="237,201.8281,227,205.8281,237,209.8281,233,205.8281" style="stroke:#181818;stroke-width:1.0;"/><text fill="#000000" font-family="sans-serif" font-size="13" lengthAdjust="spacing" textLength="89" x="233" y="187.7622">recreateState</text><path d="M176.5,250.8281 L246.5,250.8281 L246.5,257.9609 L236.5,267.9609 L176.5,267.9609 L176.5,250.8281 " fill="#EEEEEE" style="stroke:#000000;stroke-width:1.5;"/><rect fill="none" height="89.2656" style="stroke:#000000;stroke-width:1.5;" width="150.5" x="176.5" y="250.8281"/><text fill="#000000" font-family="sans-serif" font-size="13" font-weight="bold" lengthAdjust="spacing" textLength="25" x="191.5" y="263.895">opt</text><text fill="#000000" font-family="sans-serif" font-size="11" font-weight="bold" lengthAdjust="spacing" textLength="56" x="261.5" y="263.0386">[if state]</text><line style="stroke:#181818;stroke-width:1.0;" x1="226" x2="268" y1="289.0938" y2="289.0938"/><line style="stroke:#181818;stroke-width:1.0;" x1="268" x2="268" y1="289.0938" y2="302.0938"/><line style="stroke:#181818;stroke-width:1.0;" x1="227" x2="268" y1="302.0938" y2="302.0938"/><polygon fill="#181818" points="237,298.0938,227,302.0938,237,306.0938,233,302.0938" style="stroke:#181818;stroke-width:1.0;"/><text fill="#000000" font-family="sans-serif" font-size="13" lengthAdjust="spacing" textLength="82" x="233" y="284.0278">putInSession</text><line style="stroke:#181818;stroke-width:1.0;" x1="221" x2="268" y1="370.2266" y2="370.2266"/><line style="stroke:#181818;stroke-width:1.0;" x1="268" x2="268" y1="370.2266" y2="383.2266"/><line style="stroke:#181818;stroke-width:1.0;" x1="227" x2="268" y1="383.2266" y2="383.2266"/><polygon fill="#181818" points="237,379.2266,227,383.2266,237,387.2266,233,383.2266" style="stroke:#181818;stroke-width:1.0;"/><text fill="#000000" font-family="sans-serif" font-size="13" lengthAdjust="spacing" textLength="139" x="233" y="365.1606">doUpdateConletState</text><path d="M10,403.2266 L80,403.2266 L80,410.3594 L70,420.3594 L10,420.3594 L10,403.2266 " fill="#EEEEEE" style="stroke:#000000;stroke-width:1.5;"/><rect fill="none" height="46.2656" style="stroke:#000000;stroke-width:1.5;" width="245.5" x="10" y="403.2266"/><text fill="#000000" font-family="sans-serif" font-size="13" font-weight="bold" lengthAdjust="spacing" textLength="25" x="25" y="416.2935">opt</text><polygon fill="#181818" points="82,437.4922,72,441.4922,82,445.4922,78,441.4922" style="stroke:#181818;stroke-width:1.0;"/><line style="stroke:#181818;stroke-width:1.0;" x1="76" x2="215" y1="441.4922" y2="441.4922"/><text fill="#000000" font-family="sans-serif" font-size="13" lengthAdjust="spacing" textLength="86" x="88" y="436.4263">RenderConlet</text><path d="M10,463.4922 L80,463.4922 L80,470.625 L70,480.625 L10,480.625 L10,463.4922 " fill="#EEEEEE" style="stroke:#000000;stroke-width:1.5;"/><rect fill="none" height="46.2656" style="stroke:#000000;stroke-width:1.5;" width="245.5" x="10" y="463.4922"/><text fill="#000000" font-family="sans-serif" font-size="13" font-weight="bold" lengthAdjust="spacing" textLength="25" x="25" y="476.5591">opt</text><polygon fill="#181818" points="82,497.7578,72,501.7578,82,505.7578,78,501.7578" style="stroke:#181818;stroke-width:1.0;"/><line style="stroke:#181818;stroke-width:1.0;" x1="76" x2="215" y1="501.7578" y2="501.7578"/><text fill="#000000" font-family="sans-serif" font-size="13" lengthAdjust="spacing" textLength="107" x="88" y="496.6919">NotifyConletView</text><!--SRC=[VP7F3i8W3CRlF4LVm1VOmOk9YGSzQDJpDhf8Cka2dN_UNWXi8uBs0ANq-tuft9H4w8YuePS00NNBwb4pmXMR3MbBFOeaXzKQNDeZLt0WLjqxdFOaiHSWiQYVYw5Pn3qri-pkjuRk9xHMaIw84lEfH0E3wa0Jknb6BGNuoDqDjWQTyEGfeIdpyb50-8WOkwZBc67adPu7cA9e-OU6MdgYM9AS9EayI2SCvpXMwNc-NsJvbWgE3e1cQeuq477zhKi__gBmcMeBCsMb3m00]--></g></svg>