<?xml version="1.0" encoding="UTF-8" standalone="no"?><svg xmlns="http://www.w3.org/2000/svg" xmlns:xlink="http://www.w3.org/1999/xlink" contentScriptType="application/ecmascript" contentStyleType="text/css" height="334px" preserveAspectRatio="none" style="width:389px;height:334px;" version="1.1" viewBox="0 0 389 334" width="389px" zoomAndPan="magnify"><defs><filter height="300%" id="fv4s3bdn97mhh" width="300%" x="-1" y="-1"><feGaussianBlur result="blurOut" stdDeviation="2.0"/><feColorMatrix in="blurOut" result="blurOut2" type="matrix" values="0 0 0 0 0 0 0 0 0 0 0 0 0 0 0 0 0 0 .4 0"/><feOffset dx="4.0" dy="4.0" in="blurOut2" result="blurOut3"/><feBlend in="SourceGraphic" in2="blurOut3" mode="normal"/></filter></defs><g><rect fill="#FFFFFF" filter="url(#fv4s3bdn97mhh)" height="21" style="stroke: #A80036; stroke-width: 1.0;" width="10" x="71" y="48.2969"/><rect fill="#FFFFFF" filter="url(#fv4s3bdn97mhh)" height="242.9297" style="stroke: #A80036; stroke-width: 1.0;" width="10" x="216" y="69.2969"/><rect fill="#FFFFFF" filter="url(#fv4s3bdn97mhh)" height="28" style="stroke: #A80036; stroke-width: 1.0;" width="10" x="221" y="106.4297"/><rect fill="#FFFFFF" filter="url(#fv4s3bdn97mhh)" height="133.6641" style="stroke: #A80036; stroke-width: 1.0;" width="10" x="221" y="178.5625"/><rect fill="#FFFFFF" filter="url(#fv4s3bdn97mhh)" height="46.2656" style="stroke: #000000; stroke-width: 2.0;" width="249.5" x="13" y="198.6953"/><rect fill="#FFFFFF" filter="url(#fv4s3bdn97mhh)" height="46.2656" style="stroke: #000000; stroke-width: 2.0;" width="249.5" x="13" y="258.9609"/><line style="stroke: #A80036; stroke-width: 1.0; stroke-dasharray: 5.0,5.0;" x1="76" x2="76" y1="38.2969" y2="322.2266"/><line style="stroke: #A80036; stroke-width: 1.0; stroke-dasharray: 5.0,5.0;" x1="220.5" x2="220.5" y1="38.2969" y2="322.2266"/><rect fill="#FEFECE" filter="url(#fv4s3bdn97mhh)" height="30.2969" style="stroke: #A80036; stroke-width: 1.5;" width="102" x="23" y="3"/><text fill="#000000" font-family="sans-serif" font-size="14" lengthAdjust="spacingAndGlyphs" textLength="88" x="30" y="22.9951">WebConsole</text><rect fill="#FEFECE" filter="url(#fv4s3bdn97mhh)" height="30.2969" style="stroke: #A80036; stroke-width: 1.5;" width="59" x="189.5" y="3"/><text fill="#000000" font-family="sans-serif" font-size="14" lengthAdjust="spacingAndGlyphs" textLength="45" x="196.5" y="22.9951">Conlet</text><rect fill="#FFFFFF" filter="url(#fv4s3bdn97mhh)" height="21" style="stroke: #A80036; stroke-width: 1.0;" width="10" x="71" y="48.2969"/><rect fill="#FFFFFF" filter="url(#fv4s3bdn97mhh)" height="242.9297" style="stroke: #A80036; stroke-width: 1.0;" width="10" x="216" y="69.2969"/><rect fill="#FFFFFF" filter="url(#fv4s3bdn97mhh)" height="28" style="stroke: #A80036; stroke-width: 1.0;" width="10" x="221" y="106.4297"/><rect fill="#FFFFFF" filter="url(#fv4s3bdn97mhh)" height="133.6641" style="stroke: #A80036; stroke-width: 1.0;" width="10" x="221" y="178.5625"/><polygon fill="#A80036" points="204,65.2969,214,69.2969,204,73.2969,208,69.2969" style="stroke: #A80036; stroke-width: 1.0;"/><line style="stroke: #A80036; stroke-width: 1.0;" x1="76" x2="210" y1="69.2969" y2="69.2969"/><text fill="#000000" font-family="sans-serif" font-size="13" lengthAdjust="spacingAndGlyphs" textLength="116" x="83" y="64.3638">NotifyConletModel</text><line style="stroke: #A80036; stroke-width: 1.0;" x1="231" x2="273" y1="98.5625" y2="98.5625"/><line style="stroke: #A80036; stroke-width: 1.0;" x1="273" x2="273" y1="98.5625" y2="111.5625"/><line style="stroke: #A80036; stroke-width: 1.0;" x1="232" x2="273" y1="111.5625" y2="111.5625"/><polygon fill="#A80036" points="242,107.5625,232,111.5625,242,115.5625,238,111.5625" style="stroke: #A80036; stroke-width: 1.0;"/><text fill="#000000" font-family="sans-serif" font-size="13" lengthAdjust="spacingAndGlyphs" textLength="116" x="238" y="93.4966">stateFromSession</text><line style="stroke: #A80036; stroke-width: 1.0;" x1="226" x2="273" y1="165.6953" y2="165.6953"/><line style="stroke: #A80036; stroke-width: 1.0;" x1="273" x2="273" y1="165.6953" y2="178.6953"/><line style="stroke: #A80036; stroke-width: 1.0;" x1="232" x2="273" y1="178.6953" y2="178.6953"/><polygon fill="#A80036" points="242,174.6953,232,178.6953,242,182.6953,238,178.6953" style="stroke: #A80036; stroke-width: 1.0;"/><text fill="#000000" font-family="sans-serif" font-size="13" lengthAdjust="spacingAndGlyphs" textLength="139" x="238" y="160.6294">doUpdateConletState</text><rect fill="none" height="46.2656" style="stroke: #000000; stroke-width: 2.0;" width="249.5" x="13" y="198.6953"/><polygon fill="#EEEEEE" points="13,198.6953,83,198.6953,83,205.6953,73,215.6953,13,215.6953,13,198.6953" style="stroke: #000000; stroke-width: 2.0;"/><text fill="#000000" font-family="sans-serif" font-size="13" font-weight="bold" lengthAdjust="spacingAndGlyphs" textLength="25" x="28" y="211.7622">opt</text><polygon fill="#A80036" points="87,232.8281,77,236.8281,87,240.8281,83,236.8281" style="stroke: #A80036; stroke-width: 1.0;"/><line style="stroke: #A80036; stroke-width: 1.0;" x1="81" x2="220" y1="236.8281" y2="236.8281"/><text fill="#000000" font-family="sans-serif" font-size="13" lengthAdjust="spacingAndGlyphs" textLength="86" x="93" y="231.895">RenderConlet</text><rect fill="none" height="46.2656" style="stroke: #000000; stroke-width: 2.0;" width="249.5" x="13" y="258.9609"/><polygon fill="#EEEEEE" points="13,258.9609,83,258.9609,83,265.9609,73,275.9609,13,275.9609,13,258.9609" style="stroke: #000000; stroke-width: 2.0;"/><text fill="#000000" font-family="sans-serif" font-size="13" font-weight="bold" lengthAdjust="spacingAndGlyphs" textLength="25" x="28" y="272.0278">opt</text><polygon fill="#A80036" points="87,293.0938,77,297.0938,87,301.0938,83,297.0938" style="stroke: #A80036; stroke-width: 1.0;"/><line style="stroke: #A80036; stroke-width: 1.0;" x1="81" x2="220" y1="297.0938" y2="297.0938"/><text fill="#000000" font-family="sans-serif" font-size="13" lengthAdjust="spacingAndGlyphs" textLength="107" x="93" y="292.1606">NotifyConletView</text><!--
@startuml
hide footbox
 
 activate WebConsole
 WebConsole -> Conlet: NotifyConletModel
 deactivate WebConsole
 activate Conlet
 Conlet -> Conlet: stateFromSession
 activate Conlet
 deactivate Conlet
 Conlet -> Conlet: doUpdateConletState
 activate Conlet
 opt
     Conlet -> WebConsole: RenderConlet
 end opt 
 opt 
     Conlet -> WebConsole: NotifyConletView
 end opt 
 deactivate Conlet
 deactivate Conlet
@enduml

PlantUML version 1.2017.18(Fri Oct 06 16:56:32 UTC 2017)
(GPL source distribution)
Java Runtime: OpenJDK Runtime Environment
JVM: OpenJDK 64-Bit Server VM
Java Version: 15.0.6+5-MTS
Operating System: Linux
OS Version: 5.11.0-1028-azure
Default Encoding: UTF-8
Language: en
Country: 
--></g></svg>