<?xml version="1.0" encoding="UTF-8" standalone="no"?><svg xmlns="http://www.w3.org/2000/svg" xmlns:xlink="http://www.w3.org/1999/xlink" contentScriptType="application/ecmascript" contentStyleType="text/css" height="262px" preserveAspectRatio="none" style="width:382px;height:262px;" version="1.1" viewBox="0 0 382 262" width="382px" zoomAndPan="magnify"><defs><filter height="300%" id="fgkej4vxk45da" width="300%" x="-1" y="-1"><feGaussianBlur result="blurOut" stdDeviation="2.0"/><feColorMatrix in="blurOut" result="blurOut2" type="matrix" values="0 0 0 0 0 0 0 0 0 0 0 0 0 0 0 0 0 0 .4 0"/><feOffset dx="4.0" dy="4.0" in="blurOut2" result="blurOut3"/><feBlend in="SourceGraphic" in2="blurOut3" mode="normal"/></filter></defs><g><rect fill="#FFFFFF" filter="url(#fgkej4vxk45da)" height="21" style="stroke: #A80036; stroke-width: 1.0;" width="10" x="71" y="48.2969"/><rect fill="#FFFFFF" filter="url(#fgkej4vxk45da)" height="170.7969" style="stroke: #A80036; stroke-width: 1.0;" width="10" x="216" y="69.2969"/><rect fill="#FFFFFF" filter="url(#fgkej4vxk45da)" height="133.6641" style="stroke: #A80036; stroke-width: 1.0;" width="10" x="221" y="106.4297"/><rect fill="#FFFFFF" filter="url(#fgkej4vxk45da)" height="46.2656" style="stroke: #000000; stroke-width: 2.0;" width="249.5" x="13" y="126.5625"/><rect fill="#FFFFFF" filter="url(#fgkej4vxk45da)" height="46.2656" style="stroke: #000000; stroke-width: 2.0;" width="249.5" x="13" y="186.8281"/><line style="stroke: #A80036; stroke-width: 1.0; stroke-dasharray: 5.0,5.0;" x1="76" x2="76" y1="38.2969" y2="250.0938"/><line style="stroke: #A80036; stroke-width: 1.0; stroke-dasharray: 5.0,5.0;" x1="220.5" x2="220.5" y1="38.2969" y2="250.0938"/><rect fill="#FEFECE" filter="url(#fgkej4vxk45da)" height="30.2969" style="stroke: #A80036; stroke-width: 1.5;" width="102" x="23" y="3"/><text fill="#000000" font-family="sans-serif" font-size="14" lengthAdjust="spacingAndGlyphs" textLength="88" x="30" y="22.9951">WebConsole</text><rect fill="#FEFECE" filter="url(#fgkej4vxk45da)" height="30.2969" style="stroke: #A80036; stroke-width: 1.5;" width="59" x="189.5" y="3"/><text fill="#000000" font-family="sans-serif" font-size="14" lengthAdjust="spacingAndGlyphs" textLength="45" x="196.5" y="22.9951">Conlet</text><rect fill="#FFFFFF" filter="url(#fgkej4vxk45da)" height="21" style="stroke: #A80036; stroke-width: 1.0;" width="10" x="71" y="48.2969"/><rect fill="#FFFFFF" filter="url(#fgkej4vxk45da)" height="170.7969" style="stroke: #A80036; stroke-width: 1.0;" width="10" x="216" y="69.2969"/><rect fill="#FFFFFF" filter="url(#fgkej4vxk45da)" height="133.6641" style="stroke: #A80036; stroke-width: 1.0;" width="10" x="221" y="106.4297"/><polygon fill="#A80036" points="204,65.2969,214,69.2969,204,73.2969,208,69.2969" style="stroke: #A80036; stroke-width: 1.0;"/><line style="stroke: #A80036; stroke-width: 1.0;" x1="76" x2="210" y1="69.2969" y2="69.2969"/><text fill="#000000" font-family="sans-serif" font-size="13" lengthAdjust="spacingAndGlyphs" textLength="116" x="83" y="64.3638">NotifyConletModel</text><line style="stroke: #A80036; stroke-width: 1.0;" x1="226" x2="273" y1="93.5625" y2="93.5625"/><line style="stroke: #A80036; stroke-width: 1.0;" x1="273" x2="273" y1="93.5625" y2="106.5625"/><line style="stroke: #A80036; stroke-width: 1.0;" x1="232" x2="273" y1="106.5625" y2="106.5625"/><polygon fill="#A80036" points="242,102.5625,232,106.5625,242,110.5625,238,106.5625" style="stroke: #A80036; stroke-width: 1.0;"/><text fill="#000000" font-family="sans-serif" font-size="13" lengthAdjust="spacingAndGlyphs" textLength="132" x="238" y="88.4966">doNotifyConletModel</text><rect fill="none" height="46.2656" style="stroke: #000000; stroke-width: 2.0;" width="249.5" x="13" y="126.5625"/><polygon fill="#EEEEEE" points="13,126.5625,83,126.5625,83,133.5625,73,143.5625,13,143.5625,13,126.5625" style="stroke: #000000; stroke-width: 2.0;"/><text fill="#000000" font-family="sans-serif" font-size="13" font-weight="bold" lengthAdjust="spacingAndGlyphs" textLength="25" x="28" y="139.6294">opt</text><polygon fill="#A80036" points="87,160.6953,77,164.6953,87,168.6953,83,164.6953" style="stroke: #A80036; stroke-width: 1.0;"/><line style="stroke: #A80036; stroke-width: 1.0;" x1="81" x2="220" y1="164.6953" y2="164.6953"/><text fill="#000000" font-family="sans-serif" font-size="13" lengthAdjust="spacingAndGlyphs" textLength="86" x="93" y="159.7622">RenderConlet</text><rect fill="none" height="46.2656" style="stroke: #000000; stroke-width: 2.0;" width="249.5" x="13" y="186.8281"/><polygon fill="#EEEEEE" points="13,186.8281,83,186.8281,83,193.8281,73,203.8281,13,203.8281,13,186.8281" style="stroke: #000000; stroke-width: 2.0;"/><text fill="#000000" font-family="sans-serif" font-size="13" font-weight="bold" lengthAdjust="spacingAndGlyphs" textLength="25" x="28" y="199.895">opt</text><polygon fill="#A80036" points="87,220.9609,77,224.9609,87,228.9609,83,224.9609" style="stroke: #A80036; stroke-width: 1.0;"/><line style="stroke: #A80036; stroke-width: 1.0;" x1="81" x2="220" y1="224.9609" y2="224.9609"/><text fill="#000000" font-family="sans-serif" font-size="13" lengthAdjust="spacingAndGlyphs" textLength="107" x="93" y="220.0278">NotifyConletView</text><!--
@startuml
hide footbox
 
 activate WebConsole
 WebConsole -> Conlet: NotifyConletModel
 deactivate WebConsole
 activate Conlet
 Conlet -> Conlet: doNotifyConletModel
 activate Conlet
 opt
     Conlet -> WebConsole: RenderConlet
 end opt 
 opt 
     Conlet -> WebConsole: NotifyConletView
 end opt 
 deactivate Conlet
 deactivate Conlet
 activate WebConsole
 deactivate WebConsole
@enduml

PlantUML version 1.2017.18(Fri Oct 06 16:56:32 UTC 2017)
(GPL source distribution)
Java Runtime: OpenJDK Runtime Environment
JVM: OpenJDK 64-Bit Server VM
Java Version: 11.0.11+9-LTS
Operating System: Linux
OS Version: 5.8.0-1033-azure
Default Encoding: UTF-8
Language: en
Country: 
--></g></svg>