<?xml version="1.0" encoding="UTF-8" standalone="no"?><svg xmlns="http://www.w3.org/2000/svg" xmlns:xlink="http://www.w3.org/1999/xlink" contentScriptType="application/ecmascript" contentStyleType="text/css" height="456px" preserveAspectRatio="none" style="width:981px;height:456px;background:#FFFFFF;" version="1.1" viewBox="0 0 981 456" width="981px" zoomAndPan="magnify"><defs><filter height="300%" id="f1s6vkgezteb0" width="300%" x="-1" y="-1"><feGaussianBlur result="blurOut" stdDeviation="2.0"/><feColorMatrix in="blurOut" result="blurOut2" type="matrix" values="0 0 0 0 0 0 0 0 0 0 0 0 0 0 0 0 0 0 .4 0"/><feOffset dx="4.0" dy="4.0" in="blurOut2" result="blurOut3"/><feBlend in="SourceGraphic" in2="blurOut3" mode="normal"/></filter></defs><g><!--MD5=[636cf508bc3531bba9d5aac6865a8790]
cluster org.jgrapes--><polygon fill="#FFFFFF" filter="url(#f1s6vkgezteb0)" points="16,6,113,6,120,28.2969,964,28.2969,964,449,16,449,16,6" style="stroke:#000000;stroke-width:1.5;"/><line style="stroke:#000000;stroke-width:1.5;" x1="16" x2="120" y1="28.2969" y2="28.2969"/><text fill="#000000" font-family="sans-serif" font-size="14" font-weight="bold" lengthAdjust="spacing" textLength="91" x="20" y="20.9951">org.jgrapes</text><polygon fill="#FFFFFF" filter="url(#f1s6vkgezteb0)" points="364.5,41,579.5,41,586.5,63.2969,593.5,63.2969,593.5,93.5938,364.5,93.5938,364.5,41" style="stroke:#000000;stroke-width:1.5;"/><line style="stroke:#000000;stroke-width:1.5;" x1="364.5" x2="586.5" y1="63.2969" y2="63.2969"/><text fill="#000000" font-family="sans-serif" font-size="14" font-weight="bold" lengthAdjust="spacing" textLength="209" x="368.5" y="55.9951">JGrapes Core Components</text><a href="../../webconsole/base/package-summary.html#package.description" target="_parent" title="../../webconsole/base/package-summary.html#package.description" xlink:actuate="onRequest" xlink:href="../../webconsole/base/package-summary.html#package.description" xlink:show="new" xlink:title="../../webconsole/base/package-summary.html#package.description" xlink:type="simple"><polygon fill="#FFFFFF" filter="url(#f1s6vkgezteb0)" points="351.5,154,592.5,154,599.5,176.2969,606.5,176.2969,606.5,206.5938,351.5,206.5938,351.5,154" style="stroke:#000000;stroke-width:1.5;"/><line style="stroke:#000000;stroke-width:1.5;" x1="351.5" x2="599.5" y1="176.2969" y2="176.2969"/><text fill="#000000" font-family="sans-serif" font-size="14" font-weight="bold" lengthAdjust="spacing" textLength="235" x="355.5" y="168.9951">org.jgrapes.webconsole.base</text></a><a href="../../webconsole/vuejs/package-summary.html#package.description" target="_parent" title="../../webconsole/vuejs/package-summary.html#package.description" xlink:actuate="onRequest" xlink:href="../../webconsole/vuejs/package-summary.html#package.description" xlink:show="new" xlink:title="../../webconsole/vuejs/package-summary.html#package.description" xlink:type="simple"><polygon fill="#FFFFFF" filter="url(#f1s6vkgezteb0)" points="32.5,267,277.5,267,284.5,289.2969,291.5,289.2969,291.5,319.5938,32.5,319.5938,32.5,267" style="stroke:#000000;stroke-width:1.5;"/><line style="stroke:#000000;stroke-width:1.5;" x1="32.5" x2="284.5" y1="289.2969" y2="289.2969"/><text fill="#000000" font-family="sans-serif" font-size="14" font-weight="bold" lengthAdjust="spacing" textLength="239" x="36.5" y="281.9951">org.jgrapes.webconsole.vuejs</text></a><a href="../../webconsole/bootstrap4/package-summary.html#package.description" target="_parent" title="../../webconsole/bootstrap4/package-summary.html#package.description" xlink:actuate="onRequest" xlink:href="../../webconsole/bootstrap4/package-summary.html#package.description" xlink:show="new" xlink:title="../../webconsole/bootstrap4/package-summary.html#package.description" xlink:type="simple"><polygon fill="#FFFFFF" filter="url(#f1s6vkgezteb0)" points="327,267,617,267,624,289.2969,631,289.2969,631,319.5938,327,319.5938,327,267" style="stroke:#000000;stroke-width:1.5;"/><line style="stroke:#000000;stroke-width:1.5;" x1="327" x2="624" y1="289.2969" y2="289.2969"/><text fill="#000000" font-family="sans-serif" font-size="14" font-weight="bold" lengthAdjust="spacing" textLength="284" x="331" y="281.9951">org.jgrapes.webconsole.bootstrap4</text></a><a href="../../webconsole/jqueryui/package-summary.html#package.description" target="_parent" title="../../webconsole/jqueryui/package-summary.html#package.description" xlink:actuate="onRequest" xlink:href="../../webconsole/jqueryui/package-summary.html#package.description" xlink:show="new" xlink:title="../../webconsole/jqueryui/package-summary.html#package.description" xlink:type="simple"><polygon fill="#FFFFFF" filter="url(#f1s6vkgezteb0)" points="666.5,267,933.5,267,940.5,289.2969,947.5,289.2969,947.5,319.5938,666.5,319.5938,666.5,267" style="stroke:#000000;stroke-width:1.5;"/><line style="stroke:#000000;stroke-width:1.5;" x1="666.5" x2="940.5" y1="289.2969" y2="289.2969"/><text fill="#000000" font-family="sans-serif" font-size="14" font-weight="bold" lengthAdjust="spacing" textLength="261" x="670.5" y="281.9951">org.jgrapes.webconsole.jqueryui</text></a><polygon fill="#FFFFFF" filter="url(#f1s6vkgezteb0)" points="590.5,380,933.5,380,940.5,402.2969,947.5,402.2969,947.5,432.5938,590.5,432.5938,590.5,380" style="stroke:#000000;stroke-width:1.5;"/><line style="stroke:#000000;stroke-width:1.5;" x1="590.5" x2="940.5" y1="402.2969" y2="402.2969"/><text fill="#000000" font-family="sans-serif" font-size="14" font-weight="bold" lengthAdjust="spacing" textLength="337" x="594.5" y="394.9951">org.jgrapes.webconsole.jqueryui.themes.*</text><!--MD5=[f2fbd0e793b70277dc64714e9c465722]
reverse link JGrapes Core Components to org.jgrapes.webconsole.base--><path d="M479,99.43 C479,116.59 479,137.67 479,153.89 " fill="none" id="JGrapes Core Components-backto-org.jgrapes.webconsole.base" style="stroke:#A80036;stroke-width:1.0;stroke-dasharray:7.0,7.0;"/><polygon fill="#A80036" points="479,94.24,475,103.24,479,99.24,483,103.24,479,94.24" style="stroke:#A80036;stroke-width:1.0;"/><!--MD5=[af65c0293423f5c3ba6c0e11ad7b7a22]
reverse link org.jgrapes.webconsole.base to org.jgrapes.webconsole.jqueryui--><path d="M559.69,208.81 C612.13,226.55 680.05,249.54 731.44,266.93 " fill="none" id="org.jgrapes.webconsole.base-backto-org.jgrapes.webconsole.jqueryui" style="stroke:#A80036;stroke-width:1.0;stroke-dasharray:7.0,7.0;"/><polygon fill="#A80036" points="554.66,207.11,561.9092,213.777,559.3977,208.7083,564.4664,206.1967,554.66,207.11" style="stroke:#A80036;stroke-width:1.0;"/><!--MD5=[18493eeedb0d65fe0161d9359f5232c5]
reverse link org.jgrapes.webconsole.jqueryui to org.jgrapes.webconsole.jqueryui.themes.*--><path d="M796.56,324.99 C790.66,342.23 783.37,363.53 777.77,379.89 " fill="none" id="org.jgrapes.webconsole.jqueryui-backto-org.jgrapes.webconsole.jqueryui.themes.*" style="stroke:#A80036;stroke-width:1.0;stroke-dasharray:7.0,7.0;"/><polygon fill="#A80036" points="798.19,320.24,791.4968,327.465,796.5746,324.9719,799.0678,330.0497,798.19,320.24" style="stroke:#A80036;stroke-width:1.0;"/><!--MD5=[948d17a65d250ef8d1495f1916554b4b]
reverse link org.jgrapes.webconsole.base to org.jgrapes.webconsole.bootstrap4--><path d="M479,212.43 C479,229.59 479,250.67 479,266.89 " fill="none" id="org.jgrapes.webconsole.base-backto-org.jgrapes.webconsole.bootstrap4" style="stroke:#A80036;stroke-width:1.0;stroke-dasharray:7.0,7.0;"/><polygon fill="#A80036" points="479,207.24,475,216.24,479,212.24,483,216.24,479,207.24" style="stroke:#A80036;stroke-width:1.0;"/><!--MD5=[993b1f2101d8ebc50dbb0d9f4bb52804]
reverse link org.jgrapes.webconsole.base to org.jgrapes.webconsole.vuejs--><path d="M401.02,208.81 C350.34,226.55 284.7,249.54 235.03,266.93 " fill="none" id="org.jgrapes.webconsole.base-backto-org.jgrapes.webconsole.vuejs" style="stroke:#A80036;stroke-width:1.0;stroke-dasharray:7.0,7.0;"/><polygon fill="#A80036" points="405.88,207.11,396.0628,206.321,401.1629,208.7681,398.7158,213.8683,405.88,207.11" style="stroke:#A80036;stroke-width:1.0;"/><!--MD5=[e82311a888782e0c0592143ead7b0145]
@startuml
skinparam svgLinkTarget _parent
 
 package org.jgrapes {
     package "JGrapes Core Components" {
     }
 
     package org.jgrapes.webconsole.base       [[../../webconsole/base/package-summary.html#package.description]] {
     }
 
     package org.jgrapes.webconsole.vuejs       [[../../webconsole/vuejs/package-summary.html#package.description]] {
     }
 
     package org.jgrapes.webconsole.bootstrap4       [[../../webconsole/bootstrap4/package-summary.html#package.description]] {
     }
 
     package org.jgrapes.webconsole.jqueryui       [[../../webconsole/jqueryui/package-summary.html#package.description]] {
     }
 
     package "org.jgrapes.webconsole.jqueryui.themes.*" {
     }
 }
 
 "JGrapes Core Components" <.. org.jgrapes.webconsole.base
 org.jgrapes.webconsole.base <.. "org.jgrapes.webconsole.jqueryui"
 org.jgrapes.webconsole.jqueryui <.. "org.jgrapes.webconsole.jqueryui.themes.*"
 org.jgrapes.webconsole.base <.. "org.jgrapes.webconsole.bootstrap4"
 org.jgrapes.webconsole.base <.. "org.jgrapes.webconsole.vuejs"
@enduml

PlantUML version 1.2022.1(Tue Feb 01 19:19:58 CET 2022)
(GPL source distribution)
Java Runtime: OpenJDK Runtime Environment
JVM: OpenJDK 64-Bit Server VM
Default Encoding: UTF-8
Language: de
Country: DE
--></g></svg>