<?xml version="1.0" encoding="UTF-8" standalone="no"?><svg xmlns="http://www.w3.org/2000/svg" xmlns:xlink="http://www.w3.org/1999/xlink" contentScriptType="application/ecmascript" contentStyleType="text/css" height="479px" preserveAspectRatio="none" style="width:992px;height:479px;" version="1.1" viewBox="0 0 992 479" width="992px" zoomAndPan="magnify"><defs><filter height="300%" id="f109x4nxf5axes" width="300%" x="-1" y="-1"><feGaussianBlur result="blurOut" stdDeviation="2.0"/><feColorMatrix in="blurOut" result="blurOut2" type="matrix" values="0 0 0 0 0 0 0 0 0 0 0 0 0 0 0 0 0 0 .4 0"/><feOffset dx="4.0" dy="4.0" in="blurOut2" result="blurOut3"/><feBlend in="SourceGraphic" in2="blurOut3" mode="normal"/></filter></defs><g><!--cluster org.jgrapes--><polygon fill="#FFFFFF" filter="url(#f109x4nxf5axes)" points="22,24,119,24,126,46.2969,970,46.2969,970,467,22,467,22,24" style="stroke: #000000; stroke-width: 2.0;"/><line style="stroke: #000000; stroke-width: 2.0;" x1="22" x2="126" y1="46.2969" y2="46.2969"/><text fill="#000000" font-family="sans-serif" font-size="14" font-weight="bold" lengthAdjust="spacingAndGlyphs" textLength="91" x="26" y="38.9951">org.jgrapes</text><polygon fill="#FFFFFF" filter="url(#f109x4nxf5axes)" points="370.5,59,585.5,59,592.5,81.2969,599.5,81.2969,599.5,111.5938,370.5,111.5938,370.5,59" style="stroke: #000000; stroke-width: 2.0;"/><line style="stroke: #000000; stroke-width: 2.0;" x1="370.5" x2="592.5" y1="81.2969" y2="81.2969"/><text fill="#000000" font-family="sans-serif" font-size="14" font-weight="bold" lengthAdjust="spacingAndGlyphs" textLength="209" x="374.5" y="73.9951">JGrapes Core Components</text><a target="_parent" xlink:actuate="onRequest" xlink:href="org/jgrapes/webconsole/base/package-summary.html#package.description" xlink:show="new" xlink:title="org/jgrapes/webconsole/base/package-summary.html#package.description" xlink:type="simple"><polygon fill="#FFFFFF" filter="url(#f109x4nxf5axes)" points="357.5,172,598.5,172,605.5,194.2969,612.5,194.2969,612.5,224.5938,357.5,224.5938,357.5,172" style="stroke: #000000; stroke-width: 2.0;"/><line style="stroke: #000000; stroke-width: 2.0;" x1="357.5" x2="605.5" y1="194.2969" y2="194.2969"/><text fill="#000000" font-family="sans-serif" font-size="14" font-weight="bold" lengthAdjust="spacingAndGlyphs" textLength="235" x="361.5" y="186.9951">org.jgrapes.webconsole.base</text></a><a target="_parent" xlink:actuate="onRequest" xlink:href="org/jgrapes/webconsole/vuejs/package-summary.html#package.description" xlink:show="new" xlink:title="org/jgrapes/webconsole/vuejs/package-summary.html#package.description" xlink:type="simple"><polygon fill="#FFFFFF" filter="url(#f109x4nxf5axes)" points="38.5,285,283.5,285,290.5,307.2969,297.5,307.2969,297.5,337.5938,38.5,337.5938,38.5,285" style="stroke: #000000; stroke-width: 2.0;"/><line style="stroke: #000000; stroke-width: 2.0;" x1="38.5" x2="290.5" y1="307.2969" y2="307.2969"/><text fill="#000000" font-family="sans-serif" font-size="14" font-weight="bold" lengthAdjust="spacingAndGlyphs" textLength="239" x="42.5" y="299.9951">org.jgrapes.webconsole.vuejs</text></a><a target="_parent" xlink:actuate="onRequest" xlink:href="org/jgrapes/webconsole/bootstrap4/package-summary.html#package.description" xlink:show="new" xlink:title="org/jgrapes/webconsole/bootstrap4/package-summary.html#package.description" xlink:type="simple"><polygon fill="#FFFFFF" filter="url(#f109x4nxf5axes)" points="333,285,623,285,630,307.2969,637,307.2969,637,337.5938,333,337.5938,333,285" style="stroke: #000000; stroke-width: 2.0;"/><line style="stroke: #000000; stroke-width: 2.0;" x1="333" x2="630" y1="307.2969" y2="307.2969"/><text fill="#000000" font-family="sans-serif" font-size="14" font-weight="bold" lengthAdjust="spacingAndGlyphs" textLength="284" x="337" y="299.9951">org.jgrapes.webconsole.bootstrap4</text></a><a target="_parent" xlink:actuate="onRequest" xlink:href="org/jgrapes/webconsole/jqueryui/package-summary.html#package.description" xlink:show="new" xlink:title="org/jgrapes/webconsole/jqueryui/package-summary.html#package.description" xlink:type="simple"><polygon fill="#FFFFFF" filter="url(#f109x4nxf5axes)" points="672.5,285,939.5,285,946.5,307.2969,953.5,307.2969,953.5,337.5938,672.5,337.5938,672.5,285" style="stroke: #000000; stroke-width: 2.0;"/><line style="stroke: #000000; stroke-width: 2.0;" x1="672.5" x2="946.5" y1="307.2969" y2="307.2969"/><text fill="#000000" font-family="sans-serif" font-size="14" font-weight="bold" lengthAdjust="spacingAndGlyphs" textLength="261" x="676.5" y="299.9951">org.jgrapes.webconsole.jqueryui</text></a><polygon fill="#FFFFFF" filter="url(#f109x4nxf5axes)" points="596.5,398,939.5,398,946.5,420.2969,953.5,420.2969,953.5,450.5938,596.5,450.5938,596.5,398" style="stroke: #000000; stroke-width: 2.0;"/><line style="stroke: #000000; stroke-width: 2.0;" x1="596.5" x2="946.5" y1="420.2969" y2="420.2969"/><text fill="#000000" font-family="sans-serif" font-size="14" font-weight="bold" lengthAdjust="spacingAndGlyphs" textLength="337" x="600.5" y="412.9951">org.jgrapes.webconsole.jqueryui.themes.*</text><!--link JGrapes Core Components to org.jgrapes.webconsole.base--><path d="M485,117.43 C485,134.59 485,155.67 485,171.89 " fill="none" id="JGrapes Core Components-org.jgrapes.webconsole.base" style="stroke: #A80036; stroke-width: 1.0; stroke-dasharray: 7.0,7.0;"/><polygon fill="#A80036" points="485,112.24,481,121.24,485,117.24,489,121.24,485,112.24" style="stroke: #A80036; stroke-width: 1.0;"/><!--link org.jgrapes.webconsole.base to org.jgrapes.webconsole.jqueryui--><path d="M565.69,226.81 C618.13,244.55 686.05,267.54 737.44,284.93 " fill="none" id="org.jgrapes.webconsole.base-org.jgrapes.webconsole.jqueryui" style="stroke: #A80036; stroke-width: 1.0; stroke-dasharray: 7.0,7.0;"/><polygon fill="#A80036" points="560.66,225.11,567.9092,231.777,565.3977,226.7083,570.4664,224.1967,560.66,225.11" style="stroke: #A80036; stroke-width: 1.0;"/><!--link org.jgrapes.webconsole.jqueryui to org.jgrapes.webconsole.jqueryui.themes.*--><path d="M802.56,342.99 C796.66,360.23 789.37,381.53 783.77,397.89 " fill="none" id="org.jgrapes.webconsole.jqueryui-org.jgrapes.webconsole.jqueryui.themes.*" style="stroke: #A80036; stroke-width: 1.0; stroke-dasharray: 7.0,7.0;"/><polygon fill="#A80036" points="804.19,338.24,797.4968,345.465,802.5746,342.9719,805.0678,348.0497,804.19,338.24" style="stroke: #A80036; stroke-width: 1.0;"/><!--link org.jgrapes.webconsole.base to org.jgrapes.webconsole.bootstrap4--><path d="M485,230.43 C485,247.59 485,268.67 485,284.89 " fill="none" id="org.jgrapes.webconsole.base-org.jgrapes.webconsole.bootstrap4" style="stroke: #A80036; stroke-width: 1.0; stroke-dasharray: 7.0,7.0;"/><polygon fill="#A80036" points="485,225.24,481,234.24,485,230.24,489,234.24,485,225.24" style="stroke: #A80036; stroke-width: 1.0;"/><!--link org.jgrapes.webconsole.base to org.jgrapes.webconsole.vuejs--><path d="M407.02,226.81 C356.34,244.55 290.7,267.54 241.03,284.93 " fill="none" id="org.jgrapes.webconsole.base-org.jgrapes.webconsole.vuejs" style="stroke: #A80036; stroke-width: 1.0; stroke-dasharray: 7.0,7.0;"/><polygon fill="#A80036" points="411.88,225.11,402.0628,224.321,407.1629,226.7681,404.7158,231.8683,411.88,225.11" style="stroke: #A80036; stroke-width: 1.0;"/><!--
@startuml
skinparam svgLinkTarget _parent
 
 package org.jgrapes {
     package "JGrapes Core Components" {
     }
 
     package org.jgrapes.webconsole.base       [[org/jgrapes/webconsole/base/package-summary.html#package.description]] {
     }
 
     package org.jgrapes.webconsole.vuejs       [[org/jgrapes/webconsole/vuejs/package-summary.html#package.description]] {
     }
 
     package org.jgrapes.webconsole.bootstrap4       [[org/jgrapes/webconsole/bootstrap4/package-summary.html#package.description]] {
     }
 
     package org.jgrapes.webconsole.jqueryui       [[org/jgrapes/webconsole/jqueryui/package-summary.html#package.description]] {
     }
 
     package "org.jgrapes.webconsole.jqueryui.themes.*" {
     }
 }
 
 "JGrapes Core Components" <.. org.jgrapes.webconsole.base
 org.jgrapes.webconsole.base <.. "org.jgrapes.webconsole.jqueryui"
 org.jgrapes.webconsole.jqueryui <.. "org.jgrapes.webconsole.jqueryui.themes.*"
 org.jgrapes.webconsole.base <.. "org.jgrapes.webconsole.bootstrap4"
 org.jgrapes.webconsole.base <.. "org.jgrapes.webconsole.vuejs"
@enduml

PlantUML version 1.2017.18(Fri Oct 06 16:56:32 UTC 2017)
(GPL source distribution)
Java Runtime: OpenJDK Runtime Environment
JVM: OpenJDK 64-Bit Server VM
Java Version: 11.0.14+9-LTS
Operating System: Linux
OS Version: 5.11.0-1025-azure
Default Encoding: UTF-8
Language: en
Country: 
--></g></svg>