<?xml version="1.0" encoding="us-ascii" standalone="no"?><svg xmlns="http://www.w3.org/2000/svg" xmlns:xlink="http://www.w3.org/1999/xlink" contentStyleType="text/css" height="343px" preserveAspectRatio="none" style="width:961px;height:343px;background:#FFFFFF;" version="1.1" viewBox="0 0 961 343" width="961px" zoomAndPan="magnify"><defs/><g><!--cluster org.jgrapes--><g id="cluster_org.jgrapes"><path d="M8.5,6 L100.5,6 A3.75,3.75 0 0 1 103,8.5 L110,28.2969 L951.5,28.2969 A2.5,2.5 0 0 1 954,30.7969 L954,333.5 A2.5,2.5 0 0 1 951.5,336 L8.5,336 A2.5,2.5 0 0 1 6,333.5 L6,8.5 A2.5,2.5 0 0 1 8.5,6 " fill="none" style="stroke:#000000;stroke-width:1.5;"/><line style="stroke:#000000;stroke-width:1.5;" x1="6" x2="110" y1="28.2969" y2="28.2969"/><text fill="#000000" font-family="sans-serif" font-size="14" font-weight="bold" lengthAdjust="spacing" textLength="91" x="10" y="20.9951">org.jgrapes</text></g><path d="M430,267 L640,267 A3.75,3.75 0 0 1 642.5,269.5 L649.5,289.2969 L654,289.2969 A2.5,2.5 0 0 1 656.5,291.7969 L656.5,317.0938 A2.5,2.5 0 0 1 654,319.5938 L430,319.5938 A2.5,2.5 0 0 1 427.5,317.0938 L427.5,269.5 A2.5,2.5 0 0 1 430,267 " fill="#F1F1F1" style="stroke:#181818;stroke-width:0.5;"/><line style="stroke:#181818;stroke-width:0.5;" x1="427.5" x2="649.5" y1="289.2969" y2="289.2969"/><text fill="#000000" font-family="sans-serif" font-size="14" font-weight="bold" lengthAdjust="spacing" textLength="209" x="431.5" y="281.9951">JGrapes Core Components</text><a href="../../webconsole/base/package-summary.html#package.description" target="_parent" title="../../webconsole/base/package-summary.html#package.description" xlink:actuate="onRequest" xlink:href="../../webconsole/base/package-summary.html#package.description" xlink:show="new" xlink:title="../../webconsole/base/package-summary.html#package.description" xlink:type="simple"><path d="M417,154 L653,154 A3.75,3.75 0 0 1 655.5,156.5 L662.5,176.2969 L667,176.2969 A2.5,2.5 0 0 1 669.5,178.7969 L669.5,204.0938 A2.5,2.5 0 0 1 667,206.5938 L417,206.5938 A2.5,2.5 0 0 1 414.5,204.0938 L414.5,156.5 A2.5,2.5 0 0 1 417,154 " fill="#F1F1F1" style="stroke:#181818;stroke-width:0.5;"/><line style="stroke:#181818;stroke-width:0.5;" x1="414.5" x2="662.5" y1="176.2969" y2="176.2969"/><text fill="#000000" font-family="sans-serif" font-size="14" font-weight="bold" lengthAdjust="spacing" textLength="235" x="418.5" y="168.9951">org.jgrapes.webconsole.base</text></a><a href="../../webconsole/vuejs/package-summary.html#package.description" target="_parent" title="../../webconsole/vuejs/package-summary.html#package.description" xlink:actuate="onRequest" xlink:href="../../webconsole/vuejs/package-summary.html#package.description" xlink:show="new" xlink:title="../../webconsole/vuejs/package-summary.html#package.description" xlink:type="simple"><path d="M681,41 L921,41 A3.75,3.75 0 0 1 923.5,43.5 L930.5,63.2969 L935,63.2969 A2.5,2.5 0 0 1 937.5,65.7969 L937.5,91.0938 A2.5,2.5 0 0 1 935,93.5938 L681,93.5938 A2.5,2.5 0 0 1 678.5,91.0938 L678.5,43.5 A2.5,2.5 0 0 1 681,41 " fill="#F1F1F1" style="stroke:#181818;stroke-width:0.5;"/><line style="stroke:#181818;stroke-width:0.5;" x1="678.5" x2="930.5" y1="63.2969" y2="63.2969"/><text fill="#000000" font-family="sans-serif" font-size="14" font-weight="bold" lengthAdjust="spacing" textLength="239" x="682.5" y="55.9951">org.jgrapes.webconsole.vuejs</text></a><a href="../../webconsole/bootstrap4/package-summary.html#package.description" target="_parent" title="../../webconsole/bootstrap4/package-summary.html#package.description" xlink:actuate="onRequest" xlink:href="../../webconsole/bootstrap4/package-summary.html#package.description" xlink:show="new" xlink:title="../../webconsole/bootstrap4/package-summary.html#package.description" xlink:type="simple"><path d="M341.5,41 L626.5,41 A3.75,3.75 0 0 1 629,43.5 L636,63.2969 L640.5,63.2969 A2.5,2.5 0 0 1 643,65.7969 L643,91.0938 A2.5,2.5 0 0 1 640.5,93.5938 L341.5,93.5938 A2.5,2.5 0 0 1 339,91.0938 L339,43.5 A2.5,2.5 0 0 1 341.5,41 " fill="#F1F1F1" style="stroke:#181818;stroke-width:0.5;"/><line style="stroke:#181818;stroke-width:0.5;" x1="339" x2="636" y1="63.2969" y2="63.2969"/><text fill="#000000" font-family="sans-serif" font-size="14" font-weight="bold" lengthAdjust="spacing" textLength="284" x="343" y="55.9951">org.jgrapes.webconsole.bootstrap4</text></a><a href="../../webconsole/jqueryui/package-summary.html#package.description" target="_parent" title="../../webconsole/jqueryui/package-summary.html#package.description" xlink:actuate="onRequest" xlink:href="../../webconsole/jqueryui/package-summary.html#package.description" xlink:show="new" xlink:title="../../webconsole/jqueryui/package-summary.html#package.description" xlink:type="simple"><path d="M25,41 L287,41 A3.75,3.75 0 0 1 289.5,43.5 L296.5,63.2969 L301,63.2969 A2.5,2.5 0 0 1 303.5,65.7969 L303.5,91.0938 A2.5,2.5 0 0 1 301,93.5938 L25,93.5938 A2.5,2.5 0 0 1 22.5,91.0938 L22.5,43.5 A2.5,2.5 0 0 1 25,41 " fill="#F1F1F1" style="stroke:#181818;stroke-width:0.5;"/><line style="stroke:#181818;stroke-width:0.5;" x1="22.5" x2="296.5" y1="63.2969" y2="63.2969"/><text fill="#000000" font-family="sans-serif" font-size="14" font-weight="bold" lengthAdjust="spacing" textLength="261" x="26.5" y="55.9951">org.jgrapes.webconsole.jqueryui</text></a><path d="M25,154 L363,154 A3.75,3.75 0 0 1 365.5,156.5 L372.5,176.2969 L377,176.2969 A2.5,2.5 0 0 1 379.5,178.7969 L379.5,204.0938 A2.5,2.5 0 0 1 377,206.5938 L25,206.5938 A2.5,2.5 0 0 1 22.5,204.0938 L22.5,156.5 A2.5,2.5 0 0 1 25,154 " fill="#F1F1F1" style="stroke:#181818;stroke-width:0.5;"/><line style="stroke:#181818;stroke-width:0.5;" x1="22.5" x2="372.5" y1="176.2969" y2="176.2969"/><text fill="#000000" font-family="sans-serif" font-size="14" font-weight="bold" lengthAdjust="spacing" textLength="337" x="26.5" y="168.9951">org.jgrapes.webconsole.jqueryui.themes.*</text><!--link org.jgrapes.webconsole.base to JGrapes Core Components--><g id="link_org.jgrapes.webconsole.base_JGrapes Core Components"><path codeLine="28" d="M542,207.24 C542,225.18 542,242.99 542,260.89 " fill="none" id="org.jgrapes.webconsole.base-to-JGrapes Core Components" style="stroke:#181818;stroke-width:1.0;stroke-dasharray:7.0,7.0;"/><polygon fill="#181818" points="542,266.89,546,257.89,542,261.89,538,257.89,542,266.89" style="stroke:#181818;stroke-width:1.0;"/></g><!--link org.jgrapes.webconsole.jqueryui to org.jgrapes.webconsole.base--><g id="link_org.jgrapes.webconsole.jqueryui_org.jgrapes.webconsole.base"><path codeLine="29" d="M250.43,94.11 C311.75,112.06 387.6318,134.2939 448.9318,152.2439 " fill="none" id="org.jgrapes.webconsole.jqueryui-to-org.jgrapes.webconsole.base" style="stroke:#181818;stroke-width:1.0;stroke-dasharray:7.0,7.0;"/><polygon fill="#181818" points="454.69,153.93,447.1768,147.562,449.8915,152.5249,444.9286,155.2396,454.69,153.93" style="stroke:#181818;stroke-width:1.0;"/></g><!--reverse link org.jgrapes.webconsole.jqueryui to org.jgrapes.webconsole.jqueryui.themes.*--><g id="link_org.jgrapes.webconsole.jqueryui_org.jgrapes.webconsole.jqueryui.themes.*"><path codeLine="30" d="M173.7529,99.9167 C179.8929,117.8567 186.11,135.99 192.23,153.89 " fill="none" id="org.jgrapes.webconsole.jqueryui-backto-org.jgrapes.webconsole.jqueryui.themes.*" style="stroke:#181818;stroke-width:1.0;stroke-dasharray:7.0,7.0;"/><polygon fill="#181818" points="171.81,94.24,170.9398,104.0503,173.4291,98.9706,178.5088,101.4598,171.81,94.24" style="stroke:#181818;stroke-width:1.0;"/></g><!--link org.jgrapes.webconsole.bootstrap4 to org.jgrapes.webconsole.base--><g id="link_org.jgrapes.webconsole.bootstrap4_org.jgrapes.webconsole.base"><path codeLine="31" d="M502.83,94.24 C511.07,112.18 519.5036,130.5386 527.7336,148.4386 " fill="none" id="org.jgrapes.webconsole.bootstrap4-to-org.jgrapes.webconsole.base" style="stroke:#181818;stroke-width:1.0;stroke-dasharray:7.0,7.0;"/><polygon fill="#181818" points="530.24,153.89,530.1146,144.0419,528.1513,149.3472,522.8461,147.3838,530.24,153.89" style="stroke:#181818;stroke-width:1.0;"/></g><!--link org.jgrapes.webconsole.vuejs to org.jgrapes.webconsole.base--><g id="link_org.jgrapes.webconsole.vuejs_org.jgrapes.webconsole.base"><path codeLine="32" d="M746.64,94.11 C703.68,112.03 652.0474,133.5797 609.0474,151.5197 " fill="none" id="org.jgrapes.webconsole.vuejs-to-org.jgrapes.webconsole.base" style="stroke:#181818;stroke-width:1.0;stroke-dasharray:7.0,7.0;"/><polygon fill="#181818" points="603.51,153.83,613.3563,154.0562,608.1245,151.9048,610.2759,146.673,603.51,153.83" style="stroke:#181818;stroke-width:1.0;"/></g><!--SRC=[jL8zQyCm4DtrAmvrA_IyT2nTEXHAnsmX5Daz5DdHHtLoIYZzxvMTkF5Yku56287ktRttT3fkZ0igAWkyrw_6DIiLDILuoq5oIO00pbUcBYdv2Cux4X1KrIXDuAF6MaSLYE5BGBS6IBuy7-DFFb8-RCYLBh4S4hyxyd75Y0m_gQoyOxyZB1KJ7DTwZLZaVKQB3YrE37VSMglY0RV9xcvEGNmdhg89oNYtsLmglc-fvcdr7hwYVEbzufJ3zpCT-Csvef7wewLuQCsqZI7ZFqp81HUOjcGpT3iUffvbReOG7wUdKYoAofvWHa0iDky1yOAtJLiwV_aVJCcvqLwi_m40]--></g></svg>