<?xml version="1.0" encoding="UTF-8" standalone="no"?><svg xmlns="http://www.w3.org/2000/svg" xmlns:xlink="http://www.w3.org/1999/xlink" contentScriptType="application/ecmascript" contentStyleType="text/css" height="343px" preserveAspectRatio="none" style="width:981px;height:343px;background:#FFFFFF;" version="1.1" viewBox="0 0 981 343" width="981px" zoomAndPan="magnify"><defs><filter height="300%" id="f12hxq3rlmdoes" width="300%" x="-1" y="-1"><feGaussianBlur result="blurOut" stdDeviation="2.0"/><feColorMatrix in="blurOut" result="blurOut2" type="matrix" values="0 0 0 0 0 0 0 0 0 0 0 0 0 0 0 0 0 0 .4 0"/><feOffset dx="4.0" dy="4.0" in="blurOut2" result="blurOut3"/><feBlend in="SourceGraphic" in2="blurOut3" mode="normal"/></filter></defs><g><!--MD5=[636cf508bc3531bba9d5aac6865a8790]
cluster org.jgrapes--><polygon fill="#FFFFFF" filter="url(#f12hxq3rlmdoes)" points="16,6,113,6,120,28.2969,964,28.2969,964,336,16,336,16,6" style="stroke:#000000;stroke-width:1.5;"/><line style="stroke:#000000;stroke-width:1.5;" x1="16" x2="120" y1="28.2969" y2="28.2969"/><text fill="#000000" font-family="sans-serif" font-size="14" font-weight="bold" lengthAdjust="spacing" textLength="91" x="20" y="20.9951">org.jgrapes</text><polygon fill="#FFFFFF" filter="url(#f12hxq3rlmdoes)" points="437.5,267,652.5,267,659.5,289.2969,666.5,289.2969,666.5,319.5938,437.5,319.5938,437.5,267" style="stroke:#000000;stroke-width:1.5;"/><line style="stroke:#000000;stroke-width:1.5;" x1="437.5" x2="659.5" y1="289.2969" y2="289.2969"/><text fill="#000000" font-family="sans-serif" font-size="14" font-weight="bold" lengthAdjust="spacing" textLength="209" x="441.5" y="281.9951">JGrapes Core Components</text><a href="../../webconsole/base/package-summary.html#package.description" target="_parent" title="../../webconsole/base/package-summary.html#package.description" xlink:actuate="onRequest" xlink:href="../../webconsole/base/package-summary.html#package.description" xlink:show="new" xlink:title="../../webconsole/base/package-summary.html#package.description" xlink:type="simple"><polygon fill="#FFFFFF" filter="url(#f12hxq3rlmdoes)" points="424.5,154,665.5,154,672.5,176.2969,679.5,176.2969,679.5,206.5938,424.5,206.5938,424.5,154" style="stroke:#000000;stroke-width:1.5;"/><line style="stroke:#000000;stroke-width:1.5;" x1="424.5" x2="672.5" y1="176.2969" y2="176.2969"/><text fill="#000000" font-family="sans-serif" font-size="14" font-weight="bold" lengthAdjust="spacing" textLength="235" x="428.5" y="168.9951">org.jgrapes.webconsole.base</text></a><a href="../../webconsole/vuejs/package-summary.html#package.description" target="_parent" title="../../webconsole/vuejs/package-summary.html#package.description" xlink:actuate="onRequest" xlink:href="../../webconsole/vuejs/package-summary.html#package.description" xlink:show="new" xlink:title="../../webconsole/vuejs/package-summary.html#package.description" xlink:type="simple"><polygon fill="#FFFFFF" filter="url(#f12hxq3rlmdoes)" points="688.5,41,933.5,41,940.5,63.2969,947.5,63.2969,947.5,93.5938,688.5,93.5938,688.5,41" style="stroke:#000000;stroke-width:1.5;"/><line style="stroke:#000000;stroke-width:1.5;" x1="688.5" x2="940.5" y1="63.2969" y2="63.2969"/><text fill="#000000" font-family="sans-serif" font-size="14" font-weight="bold" lengthAdjust="spacing" textLength="239" x="692.5" y="55.9951">org.jgrapes.webconsole.vuejs</text></a><a href="../../webconsole/bootstrap4/package-summary.html#package.description" target="_parent" title="../../webconsole/bootstrap4/package-summary.html#package.description" xlink:actuate="onRequest" xlink:href="../../webconsole/bootstrap4/package-summary.html#package.description" xlink:show="new" xlink:title="../../webconsole/bootstrap4/package-summary.html#package.description" xlink:type="simple"><polygon fill="#FFFFFF" filter="url(#f12hxq3rlmdoes)" points="349,41,639,41,646,63.2969,653,63.2969,653,93.5938,349,93.5938,349,41" style="stroke:#000000;stroke-width:1.5;"/><line style="stroke:#000000;stroke-width:1.5;" x1="349" x2="646" y1="63.2969" y2="63.2969"/><text fill="#000000" font-family="sans-serif" font-size="14" font-weight="bold" lengthAdjust="spacing" textLength="284" x="353" y="55.9951">org.jgrapes.webconsole.bootstrap4</text></a><a href="../../webconsole/jqueryui/package-summary.html#package.description" target="_parent" title="../../webconsole/jqueryui/package-summary.html#package.description" xlink:actuate="onRequest" xlink:href="../../webconsole/jqueryui/package-summary.html#package.description" xlink:show="new" xlink:title="../../webconsole/jqueryui/package-summary.html#package.description" xlink:type="simple"><polygon fill="#FFFFFF" filter="url(#f12hxq3rlmdoes)" points="32.5,41,299.5,41,306.5,63.2969,313.5,63.2969,313.5,93.5938,32.5,93.5938,32.5,41" style="stroke:#000000;stroke-width:1.5;"/><line style="stroke:#000000;stroke-width:1.5;" x1="32.5" x2="306.5" y1="63.2969" y2="63.2969"/><text fill="#000000" font-family="sans-serif" font-size="14" font-weight="bold" lengthAdjust="spacing" textLength="261" x="36.5" y="55.9951">org.jgrapes.webconsole.jqueryui</text></a><polygon fill="#FFFFFF" filter="url(#f12hxq3rlmdoes)" points="32.5,154,375.5,154,382.5,176.2969,389.5,176.2969,389.5,206.5938,32.5,206.5938,32.5,154" style="stroke:#000000;stroke-width:1.5;"/><line style="stroke:#000000;stroke-width:1.5;" x1="32.5" x2="382.5" y1="176.2969" y2="176.2969"/><text fill="#000000" font-family="sans-serif" font-size="14" font-weight="bold" lengthAdjust="spacing" textLength="337" x="36.5" y="168.9951">org.jgrapes.webconsole.jqueryui.themes.*</text><!--MD5=[95a5542b8c988adc3bbd3575db658d05]
link org.jgrapes.webconsole.base to JGrapes Core Components--><path d="M552,207.24 C552,223.5 552,244.58 552,261.71 " fill="none" id="org.jgrapes.webconsole.base-to-JGrapes Core Components" style="stroke:#A80036;stroke-width:1.0;stroke-dasharray:7.0,7.0;"/><polygon fill="#A80036" points="552,266.89,556.0257,257.9015,552.0143,261.89,548.0257,257.8786,552,266.89" style="stroke:#A80036;stroke-width:1.0;"/><!--MD5=[f35bbf898142dc955649f3add96fece3]
link org.jgrapes.webconsole.jqueryui to org.jgrapes.webconsole.base--><path d="M260.43,94.11 C320.07,111.57 398.94,134.67 459.61,152.44 " fill="none" id="org.jgrapes.webconsole.jqueryui-to-org.jgrapes.webconsole.base" style="stroke:#A80036;stroke-width:1.0;stroke-dasharray:7.0,7.0;"/><polygon fill="#A80036" points="464.69,153.93,457.17,147.57,459.89,152.53,454.93,155.25,464.69,153.93" style="stroke:#A80036;stroke-width:1.0;"/><!--MD5=[18493eeedb0d65fe0161d9359f5232c5]
reverse link org.jgrapes.webconsole.jqueryui to org.jgrapes.webconsole.jqueryui.themes.*--><path d="M183.44,98.99 C189.34,116.23 196.63,137.53 202.23,153.89 " fill="none" id="org.jgrapes.webconsole.jqueryui-backto-org.jgrapes.webconsole.jqueryui.themes.*" style="stroke:#A80036;stroke-width:1.0;stroke-dasharray:7.0,7.0;"/><polygon fill="#A80036" points="181.81,94.24,180.9322,104.0497,183.4254,98.9719,188.5032,101.465,181.81,94.24" style="stroke:#A80036;stroke-width:1.0;"/><!--MD5=[930e11d49adac47956ce2fa3b592f9ad]
link org.jgrapes.webconsole.bootstrap4 to org.jgrapes.webconsole.base--><path d="M512.83,94.24 C520.36,110.64 530.15,131.94 538.06,149.16 " fill="none" id="org.jgrapes.webconsole.bootstrap4-to-org.jgrapes.webconsole.base" style="stroke:#A80036;stroke-width:1.0;stroke-dasharray:7.0,7.0;"/><polygon fill="#A80036" points="540.24,153.89,540.12,144.0419,538.1538,149.346,532.8496,147.3798,540.24,153.89" style="stroke:#A80036;stroke-width:1.0;"/><!--MD5=[ae8b537ffbaec01f4a793084fc7d005d]
link org.jgrapes.webconsole.vuejs to org.jgrapes.webconsole.base--><path d="M756.64,94.11 C715.27,111.37 660.73,134.13 618.35,151.81 " fill="none" id="org.jgrapes.webconsole.vuejs-to-org.jgrapes.webconsole.base" style="stroke:#A80036;stroke-width:1.0;stroke-dasharray:7.0,7.0;"/><polygon fill="#A80036" points="613.51,153.83,623.3564,154.05,618.1233,151.9019,620.2714,146.6687,613.51,153.83" style="stroke:#A80036;stroke-width:1.0;"/><!--MD5=[905a91be92c9f8f2bd6b6c9d64eb8332]
@startuml
skinparam svgLinkTarget _parent
 
 package org.jgrapes {
     package "JGrapes Core Components" {
     }
 
     package org.jgrapes.webconsole.base       [[../../webconsole/base/package-summary.html#package.description]] {
     }
 
     package org.jgrapes.webconsole.vuejs       [[../../webconsole/vuejs/package-summary.html#package.description]] {
     }
 
     package org.jgrapes.webconsole.bootstrap4       [[../../webconsole/bootstrap4/package-summary.html#package.description]] {
     }
 
     package org.jgrapes.webconsole.jqueryui       [[../../webconsole/jqueryui/package-summary.html#package.description]] {
     }
 
     package "org.jgrapes.webconsole.jqueryui.themes.*" {
     }
 }
 
 org.jgrapes.webconsole.base ..> "JGrapes Core Components"
 "org.jgrapes.webconsole.jqueryui" ..> org.jgrapes.webconsole.base
 org.jgrapes.webconsole.jqueryui <.. "org.jgrapes.webconsole.jqueryui.themes.*"
 "org.jgrapes.webconsole.bootstrap4" ..> org.jgrapes.webconsole.base
 "org.jgrapes.webconsole.vuejs" ..> org.jgrapes.webconsole.base
@enduml

PlantUML version 1.2022.1(Tue Feb 01 18:19:58 UTC 2022)
(GPL source distribution)
Java Runtime: OpenJDK Runtime Environment
JVM: OpenJDK 64-Bit Server VM
Default Encoding: UTF-8
Language: en
Country: 
--></g></svg>