<?xml version="1.0" encoding="us-ascii" standalone="no"?><svg xmlns="http://www.w3.org/2000/svg" xmlns:xlink="http://www.w3.org/1999/xlink" contentStyleType="text/css" height="512px" preserveAspectRatio="none" style="width:524px;height:512px;background:#FFFFFF;" version="1.1" viewBox="0 0 524 512" width="524px" zoomAndPan="magnify"><defs/><g><!--cluster org--><g id="cluster_org"><path d="M8.5,6 L36.5,6 A3.75,3.75 0 0 1 39,8.5 L46,28.2969 L514.5,28.2969 A2.5,2.5 0 0 1 517,30.7969 L517,503.36 A2.5,2.5 0 0 1 514.5,505.86 L8.5,505.86 A2.5,2.5 0 0 1 6,503.36 L6,8.5 A2.5,2.5 0 0 1 8.5,6 " fill="none" style="stroke:#000000;stroke-width:1.5;"/><line style="stroke:#000000;stroke-width:1.5;" x1="6" x2="46" y1="28.2969" y2="28.2969"/><text fill="#000000" font-family="sans-serif" font-size="14" font-weight="bold" lengthAdjust="spacing" textLength="27" x="10" y="20.9951">org</text></g><!--cluster jgrapes--><g id="cluster_jgrapes"><path d="M32.5,49 L92.5,49 A3.75,3.75 0 0 1 95,51.5 L102,71.2969 L490.5,71.2969 A2.5,2.5 0 0 1 493,73.7969 L493,479.36 A2.5,2.5 0 0 1 490.5,481.86 L32.5,481.86 A2.5,2.5 0 0 1 30,479.36 L30,51.5 A2.5,2.5 0 0 1 32.5,49 " fill="none" style="stroke:#000000;stroke-width:1.5;"/><line style="stroke:#000000;stroke-width:1.5;" x1="30" x2="102" y1="71.2969" y2="71.2969"/><text fill="#000000" font-family="sans-serif" font-size="14" font-weight="bold" lengthAdjust="spacing" textLength="59" x="34" y="63.9951">jgrapes</text></g><!--cluster webconsole--><g id="cluster_webconsole"><path d="M56.5,92 L153.5,92 A3.75,3.75 0 0 1 156,94.5 L163,114.2969 L466.5,114.2969 A2.5,2.5 0 0 1 469,116.7969 L469,394.36 A2.5,2.5 0 0 1 466.5,396.86 L56.5,396.86 A2.5,2.5 0 0 1 54,394.36 L54,94.5 A2.5,2.5 0 0 1 56.5,92 " fill="none" style="stroke:#000000;stroke-width:1.5;"/><line style="stroke:#000000;stroke-width:1.5;" x1="54" x2="163" y1="114.2969" y2="114.2969"/><text fill="#000000" font-family="sans-serif" font-size="14" font-weight="bold" lengthAdjust="spacing" textLength="96" x="58" y="106.9951">webconsole</text></g><!--cluster jqueryui--><g id="cluster_jqueryui"><a href="../../webconsole/jqueryui/package-summary.html#package.description" target="_parent" title="../../webconsole/jqueryui/package-summary.html#package.description" xlink:actuate="onRequest" xlink:href="../../webconsole/jqueryui/package-summary.html#package.description" xlink:show="new" xlink:title="../../webconsole/jqueryui/package-summary.html#package.description" xlink:type="simple"><path d="M300.5,143 L365.5,143 A3.75,3.75 0 0 1 368,145.5 L375,165.2969 L434.5,165.2969 A2.5,2.5 0 0 1 437,167.7969 L437,362.36 A2.5,2.5 0 0 1 434.5,364.86 L300.5,364.86 A2.5,2.5 0 0 1 298,362.36 L298,145.5 A2.5,2.5 0 0 1 300.5,143 " fill="none" style="stroke:#000000;stroke-width:1.5;"/><line style="stroke:#000000;stroke-width:1.5;" x1="298" x2="375" y1="165.2969" y2="165.2969"/><text fill="#000000" font-family="sans-serif" font-size="14" font-weight="bold" lengthAdjust="spacing" textLength="64" x="302" y="157.9951">jqueryui</text></a></g><!--cluster themes--><g id="cluster_themes"><path d="M332.5,228.86 L392.5,228.86 A3.75,3.75 0 0 1 395,231.36 L402,251.1569 L402.5,251.1569 A2.5,2.5 0 0 1 405,253.6569 L405,330.36 A2.5,2.5 0 0 1 402.5,332.86 L332.5,332.86 A2.5,2.5 0 0 1 330,330.36 L330,231.36 A2.5,2.5 0 0 1 332.5,228.86 " fill="none" style="stroke:#000000;stroke-width:1.5;"/><line style="stroke:#000000;stroke-width:1.5;" x1="330" x2="402" y1="251.1569" y2="251.1569"/><text fill="#000000" font-family="sans-serif" font-size="14" font-weight="bold" lengthAdjust="spacing" textLength="59" x="334" y="243.8551">themes</text></g><path d="M131,412.86 L341,412.86 A3.75,3.75 0 0 1 343.5,415.36 L350.5,435.1569 L355,435.1569 A2.5,2.5 0 0 1 357.5,437.6569 L357.5,462.9538 A2.5,2.5 0 0 1 355,465.4538 L131,465.4538 A2.5,2.5 0 0 1 128.5,462.9538 L128.5,415.36 A2.5,2.5 0 0 1 131,412.86 " fill="#F1F1F1" style="stroke:#181818;stroke-width:0.5;"/><line style="stroke:#181818;stroke-width:0.5;" x1="128.5" x2="350.5" y1="435.1569" y2="435.1569"/><text fill="#000000" font-family="sans-serif" font-size="14" font-weight="bold" lengthAdjust="spacing" textLength="209" x="132.5" y="427.8551">JGrapes Core Components</text><a href="../../webconsole/base/package-summary.html#package.description" target="_parent" title="../../webconsole/base/package-summary.html#package.description" xlink:actuate="onRequest" xlink:href="../../webconsole/base/package-summary.html#package.description" xlink:show="new" xlink:title="../../webconsole/base/package-summary.html#package.description" xlink:type="simple"><path d="M216.5,263.86 L255.5,263.86 A3.75,3.75 0 0 1 258,266.36 L265,286.1569 L269.5,286.1569 A2.5,2.5 0 0 1 272,288.6569 L272,313.9538 A2.5,2.5 0 0 1 269.5,316.4538 L216.5,316.4538 A2.5,2.5 0 0 1 214,313.9538 L214,266.36 A2.5,2.5 0 0 1 216.5,263.86 " fill="#F1F1F1" style="stroke:#181818;stroke-width:0.5;"/><line style="stroke:#181818;stroke-width:0.5;" x1="214" x2="265" y1="286.1569" y2="286.1569"/><text fill="#000000" font-family="sans-serif" font-size="14" font-weight="bold" lengthAdjust="spacing" textLength="38" x="218" y="278.8551">base</text></a><a href="../../webconsole/vuejs/package-summary.html#package.description" target="_parent" title="../../webconsole/vuejs/package-summary.html#package.description" xlink:actuate="onRequest" xlink:href="../../webconsole/vuejs/package-summary.html#package.description" xlink:show="new" xlink:title="../../webconsole/vuejs/package-summary.html#package.description" xlink:type="simple"><path d="M214.5,143.86 L257.5,143.86 A3.75,3.75 0 0 1 260,146.36 L267,166.1569 L271.5,166.1569 A2.5,2.5 0 0 1 274,168.6569 L274,193.9538 A2.5,2.5 0 0 1 271.5,196.4538 L214.5,196.4538 A2.5,2.5 0 0 1 212,193.9538 L212,146.36 A2.5,2.5 0 0 1 214.5,143.86 " fill="#F1F1F1" style="stroke:#181818;stroke-width:0.5;"/><line style="stroke:#181818;stroke-width:0.5;" x1="212" x2="267" y1="166.1569" y2="166.1569"/><text fill="#000000" font-family="sans-serif" font-size="14" font-weight="bold" lengthAdjust="spacing" textLength="42" x="216" y="158.8551">vuejs</text></a><a href="../../webconsole/bootstrap4/package-summary.html#package.description" target="_parent" title="../../webconsole/bootstrap4/package-summary.html#package.description" xlink:actuate="onRequest" xlink:href="../../webconsole/bootstrap4/package-summary.html#package.description" xlink:show="new" xlink:title="../../webconsole/bootstrap4/package-summary.html#package.description" xlink:type="simple"><path d="M72,143.86 L160,143.86 A3.75,3.75 0 0 1 162.5,146.36 L169.5,166.1569 L174,166.1569 A2.5,2.5 0 0 1 176.5,168.6569 L176.5,193.9538 A2.5,2.5 0 0 1 174,196.4538 L72,196.4538 A2.5,2.5 0 0 1 69.5,193.9538 L69.5,146.36 A2.5,2.5 0 0 1 72,143.86 " fill="#F1F1F1" style="stroke:#181818;stroke-width:0.5;"/><line style="stroke:#181818;stroke-width:0.5;" x1="69.5" x2="169.5" y1="166.1569" y2="166.1569"/><text fill="#000000" font-family="sans-serif" font-size="14" font-weight="bold" lengthAdjust="spacing" textLength="87" x="73.5" y="158.8551">bootstrap4</text></a><path d="M349,263.86 L357,263.86 A3.75,3.75 0 0 1 359.5,266.36 L366.5,286.1569 L371,286.1569 A2.5,2.5 0 0 1 373.5,288.6569 L373.5,313.9538 A2.5,2.5 0 0 1 371,316.4538 L349,316.4538 A2.5,2.5 0 0 1 346.5,313.9538 L346.5,266.36 A2.5,2.5 0 0 1 349,263.86 " fill="#F1F1F1" style="stroke:#181818;stroke-width:0.5;"/><line style="stroke:#181818;stroke-width:0.5;" x1="346.5" x2="366.5" y1="286.1569" y2="286.1569"/><text fill="#000000" font-family="sans-serif" font-size="14" font-weight="bold" lengthAdjust="spacing" textLength="7" x="350.5" y="278.8551">*</text><!--link base to JGrapes Core Components--><g id="link_base_JGrapes Core Components"><path codeLine="27" d="M243,316.97 C243,343.78 243,379.66 243,406.55 " fill="none" id="base-to-JGrapes Core Components" style="stroke:#181818;stroke-width:1.0;stroke-dasharray:7.0,7.0;"/><polygon fill="#181818" points="243,412.55,247,403.55,243,407.55,239,403.55,243,412.55" style="stroke:#181818;stroke-width:1.0;"/></g><!--link jqueryui to base--><g id="link_jqueryui_base"><path codeLine="28" d="M297.9084,241.7709 C297.7437,241.9487 297.579,242.1261 297.4141,242.3032 C296.7546,243.0117 296.0937,243.7144 295.4317,244.4112 C292.784,247.1984 290.1207,249.8916 287.4736,252.48 C282.1794,257.6569 281.4843,258.4856 276.5743,262.7406 " fill="none" id="jqueryui-to-base" style="stroke:#181818;stroke-width:1.0;stroke-dasharray:7.0,7.0;"/><polygon fill="#181818" points="272.04,266.67,281.461,263.7987,275.8186,263.3955,276.2218,257.753,272.04,266.67" style="stroke:#181818;stroke-width:1.0;"/></g><!--reverse link jqueryui to *--><g id="link_jqueryui_*"><path codeLine="29" d="M335.696,177.1712 C336.016,178.2712 339.59,190.32 343,204.86 C347.62,224.53 352.09,246.95 355.29,263.75 " fill="none" id="jqueryui-backto-*" style="stroke:#181818;stroke-width:1.0;stroke-dasharray:7.0,7.0;"/><polygon fill="#181818" points="334.02,171.41,332.6932,181.1691,335.4166,176.211,340.3747,178.9344,334.02,171.41" style="stroke:#181818;stroke-width:1.0;"/></g><!--link bootstrap4 to base--><g id="link_bootstrap4_base"><path codeLine="30" d="M149.04,196.96 C169.17,216.76 192.6224,239.8226 212.7324,259.6026 " fill="none" id="bootstrap4-to-base" style="stroke:#181818;stroke-width:1.0;stroke-dasharray:7.0,7.0;"/><polygon fill="#181818" points="217.01,263.81,213.3985,254.6472,213.4453,260.3038,207.7887,260.3506,217.01,263.81" style="stroke:#181818;stroke-width:1.0;"/></g><!--link vuejs to base--><g id="link_vuejs_base"><path codeLine="31" d="M243,196.96 C243,216.76 243,238.03 243,257.81 " fill="none" id="vuejs-to-base" style="stroke:#181818;stroke-width:1.0;stroke-dasharray:7.0,7.0;"/><polygon fill="#181818" points="243,263.81,247,254.81,243,258.81,239,254.81,243,263.81" style="stroke:#181818;stroke-width:1.0;"/></g><!--SRC=[jL8zRy8m4DtzAontG-AoTAnO690gHZQ4AYSz6IVuepw72bNzxtK2WIn9YWGdoyEzk_UUpqULjbu6QJWTrLhRQYE3miW_KX9jP9nnBujAAkGkA2XLa1w9_p3UH0U9zzKvltG1qsMyiwcRH5Vusn3rEtfay8rvuIov0q8k2Vavjbk0B9qRcZLeTc6OKssC32VOHtDukIJX4wa8saVjx6vth_YnnfA6rLluYVAvSv5YIh-EJE1QyqGZvLUDuLJhOHjTnIDCY0aN4FTe4ZJhBrFBChP308lXhMIJeg8b615WayDx0xZZRSEMRb_-3rDYRBKd-_y0]--></g></svg>