<?xml version="1.0" encoding="UTF-8" standalone="no"?><svg xmlns="http://www.w3.org/2000/svg" xmlns:xlink="http://www.w3.org/1999/xlink" contentScriptType="application/ecmascript" contentStyleType="text/css" height="405px" preserveAspectRatio="none" style="width:713px;height:405px;" version="1.1" viewBox="0 0 713 405" width="713px" zoomAndPan="magnify"><defs><filter height="300%" id="fxd3zbbisrry5" width="300%" x="-1" y="-1"><feGaussianBlur result="blurOut" stdDeviation="2.0"/><feColorMatrix in="blurOut" result="blurOut2" type="matrix" values="0 0 0 0 0 0 0 0 0 0 0 0 0 0 0 0 0 0 .4 0"/><feOffset dx="4.0" dy="4.0" in="blurOut2" result="blurOut3"/><feBlend in="SourceGraphic" in2="blurOut3" mode="normal"/></filter></defs><g><!--cluster Conceptual WebConsole\n(WebConsole Gateway)--><rect fill="#FFFFFF" filter="url(#fxd3zbbisrry5)" height="115" style="stroke: #000000; stroke-width: 2.0;" width="302" x="101.5" y="66"/><text fill="#000000" font-family="sans-serif" font-size="14" font-weight="bold" lengthAdjust="spacingAndGlyphs" textLength="193" x="156" y="80.9951">Conceptual WebConsole</text><text fill="#000000" font-family="sans-serif" font-size="14" font-weight="bold" lengthAdjust="spacingAndGlyphs" textLength="185" x="160" y="97.292">(WebConsole Gateway)</text><!--cluster ##18--><!--class WebConsole--><rect fill="#FEFECE" filter="url(#fxd3zbbisrry5)" height="48" id="WebConsole" style="stroke: #A80036; stroke-width: 1.5;" width="109" x="278" y="117"/><ellipse cx="293" cy="133" fill="#ADD1B2" rx="11" ry="11" style="stroke: #A80036; stroke-width: 1.0;"/><path d="M295.9688,138.6406 Q295.3906,138.9375 294.75,139.0859 Q294.1094,139.2344 293.4063,139.2344 Q290.9063,139.2344 289.5859,137.5859 Q288.2656,135.9375 288.2656,132.8125 Q288.2656,129.6875 289.5859,128.0313 Q290.9063,126.375 293.4063,126.375 Q294.1094,126.375 294.7578,126.5313 Q295.4063,126.6875 295.9688,126.9844 L295.9688,129.7031 Q295.3438,129.125 294.75,128.8516 Q294.1563,128.5781 293.5313,128.5781 Q292.1875,128.5781 291.5,129.6484 Q290.8125,130.7188 290.8125,132.8125 Q290.8125,134.9063 291.5,135.9766 Q292.1875,137.0469 293.5313,137.0469 Q294.1563,137.0469 294.75,136.7734 Q295.3438,136.5 295.9688,135.9219 L295.9688,138.6406 Z "/><text fill="#000000" font-family="sans-serif" font-size="12" lengthAdjust="spacingAndGlyphs" textLength="77" x="307" y="137.1543">WebConsole</text><line style="stroke: #A80036; stroke-width: 1.5;" x1="279" x2="386" y1="149" y2="149"/><line style="stroke: #A80036; stroke-width: 1.5;" x1="279" x2="386" y1="157" y2="157"/><!--class ConsoleWeblet--><rect fill="#FEFECE" filter="url(#fxd3zbbisrry5)" height="48" id="ConsoleWeblet" style="stroke: #A80036; stroke-width: 1.5;" width="125" x="118" y="117"/><ellipse cx="133" cy="133" fill="#ADD1B2" rx="11" ry="11" style="stroke: #A80036; stroke-width: 1.0;"/><path d="M135.9688,138.6406 Q135.3906,138.9375 134.75,139.0859 Q134.1094,139.2344 133.4063,139.2344 Q130.9063,139.2344 129.5859,137.5859 Q128.2656,135.9375 128.2656,132.8125 Q128.2656,129.6875 129.5859,128.0313 Q130.9063,126.375 133.4063,126.375 Q134.1094,126.375 134.7578,126.5313 Q135.4063,126.6875 135.9688,126.9844 L135.9688,129.7031 Q135.3438,129.125 134.75,128.8516 Q134.1563,128.5781 133.5313,128.5781 Q132.1875,128.5781 131.5,129.6484 Q130.8125,130.7188 130.8125,132.8125 Q130.8125,134.9063 131.5,135.9766 Q132.1875,137.0469 133.5313,137.0469 Q134.1563,137.0469 134.75,136.7734 Q135.3438,136.5 135.9688,135.9219 L135.9688,138.6406 Z "/><text fill="#000000" font-family="sans-serif" font-size="12" lengthAdjust="spacingAndGlyphs" textLength="93" x="147" y="137.1543">ConsoleWeblet</text><line style="stroke: #A80036; stroke-width: 1.5;" x1="119" x2="242" y1="149" y2="149"/><line style="stroke: #A80036; stroke-width: 1.5;" x1="119" x2="242" y1="157" y2="157"/><!--class PortletB--><rect fill="#FEFECE" filter="url(#fxd3zbbisrry5)" height="48" id="PortletB" style="stroke: #A80036; stroke-width: 1.5;" width="82" x="586.5" y="117"/><ellipse cx="601.5" cy="133" fill="#ADD1B2" rx="11" ry="11" style="stroke: #A80036; stroke-width: 1.0;"/><path d="M604.4688,138.6406 Q603.8906,138.9375 603.25,139.0859 Q602.6094,139.2344 601.9063,139.2344 Q599.4063,139.2344 598.0859,137.5859 Q596.7656,135.9375 596.7656,132.8125 Q596.7656,129.6875 598.0859,128.0313 Q599.4063,126.375 601.9063,126.375 Q602.6094,126.375 603.2578,126.5313 Q603.9063,126.6875 604.4688,126.9844 L604.4688,129.7031 Q603.8438,129.125 603.25,128.8516 Q602.6563,128.5781 602.0313,128.5781 Q600.6875,128.5781 600,129.6484 Q599.3125,130.7188 599.3125,132.8125 Q599.3125,134.9063 600,135.9766 Q600.6875,137.0469 602.0313,137.0469 Q602.6563,137.0469 603.25,136.7734 Q603.8438,136.5 604.4688,135.9219 L604.4688,138.6406 Z "/><text fill="#000000" font-family="sans-serif" font-size="12" lengthAdjust="spacingAndGlyphs" textLength="50" x="615.5" y="137.1543">PortletB</text><line style="stroke: #A80036; stroke-width: 1.5;" x1="587.5" x2="667.5" y1="149" y2="149"/><line style="stroke: #A80036; stroke-width: 1.5;" x1="587.5" x2="667.5" y1="157" y2="157"/><!--class PortletA--><rect fill="#FEFECE" filter="url(#fxd3zbbisrry5)" height="48" id="PortletA" style="stroke: #A80036; stroke-width: 1.5;" width="82" x="450.5" y="117"/><ellipse cx="465.5" cy="133" fill="#ADD1B2" rx="11" ry="11" style="stroke: #A80036; stroke-width: 1.0;"/><path d="M468.4688,138.6406 Q467.8906,138.9375 467.25,139.0859 Q466.6094,139.2344 465.9063,139.2344 Q463.4063,139.2344 462.0859,137.5859 Q460.7656,135.9375 460.7656,132.8125 Q460.7656,129.6875 462.0859,128.0313 Q463.4063,126.375 465.9063,126.375 Q466.6094,126.375 467.2578,126.5313 Q467.9063,126.6875 468.4688,126.9844 L468.4688,129.7031 Q467.8438,129.125 467.25,128.8516 Q466.6563,128.5781 466.0313,128.5781 Q464.6875,128.5781 464,129.6484 Q463.3125,130.7188 463.3125,132.8125 Q463.3125,134.9063 464,135.9766 Q464.6875,137.0469 466.0313,137.0469 Q466.6563,137.0469 467.25,136.7734 Q467.8438,136.5 468.4688,135.9219 L468.4688,138.6406 Z "/><text fill="#000000" font-family="sans-serif" font-size="12" lengthAdjust="spacingAndGlyphs" textLength="50" x="479.5" y="137.1543">PortletA</text><line style="stroke: #A80036; stroke-width: 1.5;" x1="451.5" x2="531.5" y1="149" y2="149"/><line style="stroke: #A80036; stroke-width: 1.5;" x1="451.5" x2="531.5" y1="157" y2="157"/><!--class PortletAData--><rect fill="#FEFECE" filter="url(#fxd3zbbisrry5)" height="60.8047" id="PortletAData" style="stroke: #A80036; stroke-width: 1.5;" width="112" x="443.5" y="225"/><ellipse cx="458.5" cy="241" fill="#ADD1B2" rx="11" ry="11" style="stroke: #A80036; stroke-width: 1.0;"/><path d="M461.4688,246.6406 Q460.8906,246.9375 460.25,247.0859 Q459.6094,247.2344 458.9063,247.2344 Q456.4063,247.2344 455.0859,245.5859 Q453.7656,243.9375 453.7656,240.8125 Q453.7656,237.6875 455.0859,236.0313 Q456.4063,234.375 458.9063,234.375 Q459.6094,234.375 460.2578,234.5313 Q460.9063,234.6875 461.4688,234.9844 L461.4688,237.7031 Q460.8438,237.125 460.25,236.8516 Q459.6563,236.5781 459.0313,236.5781 Q457.6875,236.5781 457,237.6484 Q456.3125,238.7188 456.3125,240.8125 Q456.3125,242.9063 457,243.9766 Q457.6875,245.0469 459.0313,245.0469 Q459.6563,245.0469 460.25,244.7734 Q460.8438,244.5 461.4688,243.9219 L461.4688,246.6406 Z "/><text fill="#000000" font-family="sans-serif" font-size="12" lengthAdjust="spacingAndGlyphs" textLength="80" x="472.5" y="245.1543">PortletAData</text><line style="stroke: #A80036; stroke-width: 1.5;" x1="444.5" x2="554.5" y1="257" y2="257"/><rect fill="none" height="6" style="stroke: #C82930; stroke-width: 1.0;" width="6" x="451.5" y="265.9023"/><text fill="#000000" font-family="sans-serif" font-size="11" lengthAdjust="spacingAndGlyphs" textLength="86" x="463.5" y="271.2104">conletId: String</text><line style="stroke: #A80036; stroke-width: 1.5;" x1="444.5" x2="554.5" y1="277.8047" y2="277.8047"/><!--class PortletBData--><rect fill="#FEFECE" filter="url(#fxd3zbbisrry5)" height="60.8047" id="PortletBData" style="stroke: #A80036; stroke-width: 1.5;" width="112" x="590.5" y="225"/><ellipse cx="605.5" cy="241" fill="#ADD1B2" rx="11" ry="11" style="stroke: #A80036; stroke-width: 1.0;"/><path d="M608.4688,246.6406 Q607.8906,246.9375 607.25,247.0859 Q606.6094,247.2344 605.9063,247.2344 Q603.4063,247.2344 602.0859,245.5859 Q600.7656,243.9375 600.7656,240.8125 Q600.7656,237.6875 602.0859,236.0313 Q603.4063,234.375 605.9063,234.375 Q606.6094,234.375 607.2578,234.5313 Q607.9063,234.6875 608.4688,234.9844 L608.4688,237.7031 Q607.8438,237.125 607.25,236.8516 Q606.6563,236.5781 606.0313,236.5781 Q604.6875,236.5781 604,237.6484 Q603.3125,238.7188 603.3125,240.8125 Q603.3125,242.9063 604,243.9766 Q604.6875,245.0469 606.0313,245.0469 Q606.6563,245.0469 607.25,244.7734 Q607.8438,244.5 608.4688,243.9219 L608.4688,246.6406 Z "/><text fill="#000000" font-family="sans-serif" font-size="12" lengthAdjust="spacingAndGlyphs" textLength="80" x="619.5" y="245.1543">PortletBData</text><line style="stroke: #A80036; stroke-width: 1.5;" x1="591.5" x2="701.5" y1="257" y2="257"/><rect fill="none" height="6" style="stroke: #C82930; stroke-width: 1.0;" width="6" x="598.5" y="265.9023"/><text fill="#000000" font-family="sans-serif" font-size="11" lengthAdjust="spacingAndGlyphs" textLength="86" x="610.5" y="271.2104">conletId: String</text><line style="stroke: #A80036; stroke-width: 1.5;" x1="591.5" x2="701.5" y1="277.8047" y2="277.8047"/><!--class Session--><rect fill="#FEFECE" filter="url(#fxd3zbbisrry5)" height="48" id="Session" style="stroke: #A80036; stroke-width: 1.5;" width="81" x="532" y="346"/><ellipse cx="547" cy="362" fill="#ADD1B2" rx="11" ry="11" style="stroke: #A80036; stroke-width: 1.0;"/><path d="M549.9688,367.6406 Q549.3906,367.9375 548.75,368.0859 Q548.1094,368.2344 547.4063,368.2344 Q544.9063,368.2344 543.5859,366.5859 Q542.2656,364.9375 542.2656,361.8125 Q542.2656,358.6875 543.5859,357.0313 Q544.9063,355.375 547.4063,355.375 Q548.1094,355.375 548.7578,355.5313 Q549.4063,355.6875 549.9688,355.9844 L549.9688,358.7031 Q549.3438,358.125 548.75,357.8516 Q548.1563,357.5781 547.5313,357.5781 Q546.1875,357.5781 545.5,358.6484 Q544.8125,359.7188 544.8125,361.8125 Q544.8125,363.9063 545.5,364.9766 Q546.1875,366.0469 547.5313,366.0469 Q548.1563,366.0469 548.75,365.7734 Q549.3438,365.5 549.9688,364.9219 L549.9688,367.6406 Z "/><text fill="#000000" font-family="sans-serif" font-size="12" lengthAdjust="spacingAndGlyphs" textLength="49" x="561" y="366.1543">Session</text><line style="stroke: #A80036; stroke-width: 1.5;" x1="533" x2="612" y1="378" y2="378"/><line style="stroke: #A80036; stroke-width: 1.5;" x1="533" x2="612" y1="386" y2="386"/><!--entity Browser--><rect fill="#FEFECE" filter="url(#fxd3zbbisrry5)" height="36.2969" style="stroke: #A80036; stroke-width: 1.5;" width="77" x="6" y="123"/><rect fill="#FEFECE" height="5" style="stroke: #A80036; stroke-width: 1.5;" width="10" x="1" y="128"/><rect fill="#FEFECE" height="5" style="stroke: #A80036; stroke-width: 1.5;" width="10" x="1" y="149.2969"/><text fill="#000000" font-family="sans-serif" font-size="14" lengthAdjust="spacingAndGlyphs" textLength="57" x="16" y="145.9951">Browser</text><!--class PageResourceProvider--><rect fill="#FEFECE" filter="url(#fxd3zbbisrry5)" height="48" id="PageResourceProvider" style="stroke: #A80036; stroke-width: 1.5;" width="174" x="83.5" y="231.5"/><ellipse cx="98.5" cy="247.5" fill="#ADD1B2" rx="11" ry="11" style="stroke: #A80036; stroke-width: 1.0;"/><path d="M101.4688,253.1406 Q100.8906,253.4375 100.25,253.5859 Q99.6094,253.7344 98.9063,253.7344 Q96.4063,253.7344 95.0859,252.0859 Q93.7656,250.4375 93.7656,247.3125 Q93.7656,244.1875 95.0859,242.5313 Q96.4063,240.875 98.9063,240.875 Q99.6094,240.875 100.2578,241.0313 Q100.9063,241.1875 101.4688,241.4844 L101.4688,244.2031 Q100.8438,243.625 100.25,243.3516 Q99.6563,243.0781 99.0313,243.0781 Q97.6875,243.0781 97,244.1484 Q96.3125,245.2188 96.3125,247.3125 Q96.3125,249.4063 97,250.4766 Q97.6875,251.5469 99.0313,251.5469 Q99.6563,251.5469 100.25,251.2734 Q100.8438,251 101.4688,250.4219 L101.4688,253.1406 Z "/><text fill="#000000" font-family="sans-serif" font-size="12" lengthAdjust="spacingAndGlyphs" textLength="142" x="112.5" y="251.6543">PageResourceProvider</text><line style="stroke: #A80036; stroke-width: 1.5;" x1="84.5" x2="256.5" y1="263.5" y2="263.5"/><line style="stroke: #A80036; stroke-width: 1.5;" x1="84.5" x2="256.5" y1="271.5" y2="271.5"/><!--class PortalPolicy--><rect fill="#FEFECE" filter="url(#fxd3zbbisrry5)" height="48" id="PortalPolicy" style="stroke: #A80036; stroke-width: 1.5;" width="104" x="292.5" y="231.5"/><ellipse cx="307.5" cy="247.5" fill="#ADD1B2" rx="11" ry="11" style="stroke: #A80036; stroke-width: 1.0;"/><path d="M310.4688,253.1406 Q309.8906,253.4375 309.25,253.5859 Q308.6094,253.7344 307.9063,253.7344 Q305.4063,253.7344 304.0859,252.0859 Q302.7656,250.4375 302.7656,247.3125 Q302.7656,244.1875 304.0859,242.5313 Q305.4063,240.875 307.9063,240.875 Q308.6094,240.875 309.2578,241.0313 Q309.9063,241.1875 310.4688,241.4844 L310.4688,244.2031 Q309.8438,243.625 309.25,243.3516 Q308.6563,243.0781 308.0313,243.0781 Q306.6875,243.0781 306,244.1484 Q305.3125,245.2188 305.3125,247.3125 Q305.3125,249.4063 306,250.4766 Q306.6875,251.5469 308.0313,251.5469 Q308.6563,251.5469 309.25,251.2734 Q309.8438,251 310.4688,250.4219 L310.4688,253.1406 Z "/><text fill="#000000" font-family="sans-serif" font-size="12" lengthAdjust="spacingAndGlyphs" textLength="72" x="321.5" y="251.6543">PortalPolicy</text><line style="stroke: #A80036; stroke-width: 1.5;" x1="293.5" x2="395.5" y1="263.5" y2="263.5"/><line style="stroke: #A80036; stroke-width: 1.5;" x1="293.5" x2="395.5" y1="271.5" y2="271.5"/><!--link ConsoleWeblet to WebConsole--><path d="M243.141,141 C254.66,141 266.179,141 277.698,141 " fill="none" id="ConsoleWeblet-WebConsole" style="stroke: #A80036; stroke-width: 1.0;"/><text fill="#000000" font-family="sans-serif" font-size="13" lengthAdjust="spacingAndGlyphs" textLength="8" x="250.8464" y="137.2074">1</text><text fill="#000000" font-family="sans-serif" font-size="13" lengthAdjust="spacingAndGlyphs" textLength="8" x="262.164" y="137.1145">1</text><!--link Browser to ConsoleWeblet--><path d="M83.0156,141 C94.5665,141 106.117,141 117.668,141 " fill="none" id="Browser-ConsoleWeblet" style="stroke: #A80036; stroke-width: 1.0;"/><text fill="#000000" font-family="sans-serif" font-size="13" lengthAdjust="spacingAndGlyphs" textLength="7" x="91.0248" y="136.6216">*</text><text fill="#000000" font-family="sans-serif" font-size="13" lengthAdjust="spacingAndGlyphs" textLength="7" x="102.9984" y="137.2074">*</text><!--link WebConsole to PortletB--><path d="M348.76,116.781 C367.256,91.638 400.022,53.815 439.167,38 C479.826,21.573 497.923,19.829 537.833,38 C573.22,54.111 600.067,91.851 614.793,116.896 " fill="none" id="WebConsole-PortletB" style="stroke: #A80036; stroke-width: 1.0;"/><text fill="#000000" font-family="sans-serif" font-size="13" lengthAdjust="spacingAndGlyphs" textLength="8" x="343.9016" y="105.7369">1</text><text fill="#000000" font-family="sans-serif" font-size="13" lengthAdjust="spacingAndGlyphs" textLength="8" x="604.1808" y="106.1301">1</text><!--link WebConsole to PortletA--><path d="M387.156,157.242 C408.215,160.222 429.274,159.413 450.333,154.815 " fill="none" id="WebConsole-PortletA" style="stroke: #A80036; stroke-width: 1.0;"/><text fill="#000000" font-family="sans-serif" font-size="13" lengthAdjust="spacingAndGlyphs" textLength="8" x="395.0379" y="155.4925">1</text><text fill="#000000" font-family="sans-serif" font-size="13" lengthAdjust="spacingAndGlyphs" textLength="8" x="434.5699" y="120.5998">1</text><!--link PortletA to PortletAData--><path d="M493.138,165.038 C494.363,182.266 496.049,205.97 497.377,224.65 " fill="none" id="PortletA-PortletAData" style="stroke: #A80036; stroke-width: 1.0;"/><text fill="#000000" font-family="sans-serif" font-size="13" lengthAdjust="spacingAndGlyphs" textLength="8" x="484.5327" y="185.2035">1</text><text fill="#000000" font-family="sans-serif" font-size="13" lengthAdjust="spacingAndGlyphs" textLength="7" x="489.2173" y="213.841">*</text><!--link PortletB to PortletBData--><path d="M631.391,165.038 C634.3,182.266 638.304,205.97 641.459,224.65 " fill="none" id="PortletB-PortletBData" style="stroke: #A80036; stroke-width: 1.0;"/><text fill="#000000" font-family="sans-serif" font-size="13" lengthAdjust="spacingAndGlyphs" textLength="8" x="623.3631" y="185.2035">1</text><text fill="#000000" font-family="sans-serif" font-size="13" lengthAdjust="spacingAndGlyphs" textLength="7" x="632.6974" y="213.841">*</text><!--link PortletAData to Session--><path d="M518.68,286.058 C528.307,300.895 540.028,318.957 550.07,334.4339 " fill="none" id="PortletAData-Session" style="stroke: #A80036; stroke-width: 1.0;"/><polygon fill="#A80036" points="557.361,345.6686,557.4506,338.4581,550.8291,335.6021,550.7396,342.8126,557.361,345.6686" style="stroke: #A80036; stroke-width: 1.0;"/><text fill="#000000" font-family="sans-serif" font-size="13" lengthAdjust="spacingAndGlyphs" textLength="7" x="514.914" y="306.0082">*</text><text fill="#000000" font-family="sans-serif" font-size="13" lengthAdjust="spacingAndGlyphs" textLength="8" x="544.6959" y="334.9928">1</text><!--link PortletBData to Session--><path d="M627.057,286.058 C617.298,300.895 605.417,318.957 595.237,334.4339 " fill="none" id="PortletBData-Session" style="stroke: #A80036; stroke-width: 1.0;"/><polygon fill="#A80036" points="587.847,345.6686,594.4863,342.8543,594.442,335.6433,587.8028,338.4576,587.847,345.6686" style="stroke: #A80036; stroke-width: 1.0;"/><text fill="#000000" font-family="sans-serif" font-size="13" lengthAdjust="spacingAndGlyphs" textLength="7" x="615.325" y="306.0082">*</text><text fill="#000000" font-family="sans-serif" font-size="13" lengthAdjust="spacingAndGlyphs" textLength="8" x="582.6128" y="334.9928">1</text><!--link WebConsole to PageResourceProvider--><path d="M299.326,165.038 C271.37,184.451 231.573,212.088 203.63,231.493 " fill="none" id="WebConsole-PageResourceProvider" style="stroke: #A80036; stroke-width: 1.0;"/><text fill="#000000" font-family="sans-serif" font-size="13" lengthAdjust="spacingAndGlyphs" textLength="8" x="281.8002" y="185.2035">1</text><text fill="#000000" font-family="sans-serif" font-size="13" lengthAdjust="spacingAndGlyphs" textLength="7" x="204.2227" y="220.5032">*</text><!--link WebConsole to PortalPolicy--><path d="M334.957,165.038 C337.028,184.451 339.976,212.088 342.046,231.493 " fill="none" id="WebConsole-PortalPolicy" style="stroke: #A80036; stroke-width: 1.0;"/><text fill="#000000" font-family="sans-serif" font-size="13" lengthAdjust="spacingAndGlyphs" textLength="8" x="326.5616" y="185.2035">1</text><text fill="#000000" font-family="sans-serif" font-size="13" lengthAdjust="spacingAndGlyphs" textLength="7" x="333.5203" y="220.5032">*</text><!--
@startuml
skinparam packageStyle rectangle
 allow_mixing
 
 component Browser
 
 package "Conceptual WebConsole\n(WebConsole Gateway)" {
    class WebConsole
 	  class ConsoleWeblet
 
    WebConsole "1" -left- "1" ConsoleWeblet
 }
 
 ConsoleWeblet "*" -left- "*" Browser
 
 together {
 
   WebConsole "1" -right- "1" PortletB
   WebConsole "1" -right- "1" PortletA
 
   class PortletAData {
     -conletId: String
   }
 
   PortletAData "*" -up- "1" PortletA
 
   class PortletBData {
     -conletId: String
   }
 
   PortletBData "*" -up- "1" PortletB
   
   PortletAData "*" -up-* "1" Session
   PortletBData "*" -up-* "1" Session
 }
 
 WebConsole "1" -down- "*" PageResourceProvider
 WebConsole "1" -down- "*" PortalPolicy
@enduml

PlantUML version 1.2017.18(Fri Oct 06 16:56:32 UTC 2017)
(GPL source distribution)
Java Runtime: OpenJDK Runtime Environment
JVM: OpenJDK 64-Bit Server VM
Java Version: 1.8.0_222-8u222-b10-1ubuntu1~16.04.1-b10
Operating System: Linux
OS Version: 4.15.0-1050-gcp
Default Encoding: UTF-8
Language: en
Country: US
--></g></svg>