<?xml version="1.0" encoding="UTF-8" standalone="no"?><svg xmlns="http://www.w3.org/2000/svg" xmlns:xlink="http://www.w3.org/1999/xlink" contentScriptType="application/ecmascript" contentStyleType="text/css" height="405px" preserveAspectRatio="none" style="width:720px;height:405px;" version="1.1" viewBox="0 0 720 405" width="720px" zoomAndPan="magnify"><defs><filter height="300%" id="f2a0at8ejeobj" width="300%" x="-1" y="-1"><feGaussianBlur result="blurOut" stdDeviation="2.0"/><feColorMatrix in="blurOut" result="blurOut2" type="matrix" values="0 0 0 0 0 0 0 0 0 0 0 0 0 0 0 0 0 0 .4 0"/><feOffset dx="4.0" dy="4.0" in="blurOut2" result="blurOut3"/><feBlend in="SourceGraphic" in2="blurOut3" mode="normal"/></filter></defs><g><!--cluster Conceptual WebConsole\n(WebConsole Gateway)--><rect fill="#FFFFFF" filter="url(#f2a0at8ejeobj)" height="115" style="stroke: #000000; stroke-width: 2.0;" width="302" x="101.5" y="66"/><text fill="#000000" font-family="sans-serif" font-size="14" font-weight="bold" lengthAdjust="spacingAndGlyphs" textLength="193" x="156" y="80.9951">Conceptual WebConsole</text><text fill="#000000" font-family="sans-serif" font-size="14" font-weight="bold" lengthAdjust="spacingAndGlyphs" textLength="185" x="160" y="97.292">(WebConsole Gateway)</text><!--cluster ##18--><!--class WebConsole--><rect fill="#FEFECE" filter="url(#f2a0at8ejeobj)" height="48" id="WebConsole" style="stroke: #A80036; stroke-width: 1.5;" width="109" x="278" y="117"/><ellipse cx="293" cy="133" fill="#ADD1B2" rx="11" ry="11" style="stroke: #A80036; stroke-width: 1.0;"/><path d="M295.9688,138.6406 Q295.3906,138.9375 294.75,139.0859 Q294.1094,139.2344 293.4063,139.2344 Q290.9063,139.2344 289.5859,137.5859 Q288.2656,135.9375 288.2656,132.8125 Q288.2656,129.6875 289.5859,128.0313 Q290.9063,126.375 293.4063,126.375 Q294.1094,126.375 294.7578,126.5313 Q295.4063,126.6875 295.9688,126.9844 L295.9688,129.7031 Q295.3438,129.125 294.75,128.8516 Q294.1563,128.5781 293.5313,128.5781 Q292.1875,128.5781 291.5,129.6484 Q290.8125,130.7188 290.8125,132.8125 Q290.8125,134.9063 291.5,135.9766 Q292.1875,137.0469 293.5313,137.0469 Q294.1563,137.0469 294.75,136.7734 Q295.3438,136.5 295.9688,135.9219 L295.9688,138.6406 Z "/><text fill="#000000" font-family="sans-serif" font-size="12" lengthAdjust="spacingAndGlyphs" textLength="77" x="307" y="137.1543">WebConsole</text><line style="stroke: #A80036; stroke-width: 1.5;" x1="279" x2="386" y1="149" y2="149"/><line style="stroke: #A80036; stroke-width: 1.5;" x1="279" x2="386" y1="157" y2="157"/><!--class ConsoleWeblet--><rect fill="#FEFECE" filter="url(#f2a0at8ejeobj)" height="48" id="ConsoleWeblet" style="stroke: #A80036; stroke-width: 1.5;" width="125" x="118" y="117"/><ellipse cx="133" cy="133" fill="#ADD1B2" rx="11" ry="11" style="stroke: #A80036; stroke-width: 1.0;"/><path d="M135.9688,138.6406 Q135.3906,138.9375 134.75,139.0859 Q134.1094,139.2344 133.4063,139.2344 Q130.9063,139.2344 129.5859,137.5859 Q128.2656,135.9375 128.2656,132.8125 Q128.2656,129.6875 129.5859,128.0313 Q130.9063,126.375 133.4063,126.375 Q134.1094,126.375 134.7578,126.5313 Q135.4063,126.6875 135.9688,126.9844 L135.9688,129.7031 Q135.3438,129.125 134.75,128.8516 Q134.1563,128.5781 133.5313,128.5781 Q132.1875,128.5781 131.5,129.6484 Q130.8125,130.7188 130.8125,132.8125 Q130.8125,134.9063 131.5,135.9766 Q132.1875,137.0469 133.5313,137.0469 Q134.1563,137.0469 134.75,136.7734 Q135.3438,136.5 135.9688,135.9219 L135.9688,138.6406 Z "/><text fill="#000000" font-family="sans-serif" font-size="12" lengthAdjust="spacingAndGlyphs" textLength="93" x="147" y="137.1543">ConsoleWeblet</text><line style="stroke: #A80036; stroke-width: 1.5;" x1="119" x2="242" y1="149" y2="149"/><line style="stroke: #A80036; stroke-width: 1.5;" x1="119" x2="242" y1="157" y2="157"/><!--class PortletB--><rect fill="#FEFECE" filter="url(#f2a0at8ejeobj)" height="48" id="PortletB" style="stroke: #A80036; stroke-width: 1.5;" width="82" x="589.5" y="117"/><ellipse cx="604.5" cy="133" fill="#ADD1B2" rx="11" ry="11" style="stroke: #A80036; stroke-width: 1.0;"/><path d="M607.4688,138.6406 Q606.8906,138.9375 606.25,139.0859 Q605.6094,139.2344 604.9063,139.2344 Q602.4063,139.2344 601.0859,137.5859 Q599.7656,135.9375 599.7656,132.8125 Q599.7656,129.6875 601.0859,128.0313 Q602.4063,126.375 604.9063,126.375 Q605.6094,126.375 606.2578,126.5313 Q606.9063,126.6875 607.4688,126.9844 L607.4688,129.7031 Q606.8438,129.125 606.25,128.8516 Q605.6563,128.5781 605.0313,128.5781 Q603.6875,128.5781 603,129.6484 Q602.3125,130.7188 602.3125,132.8125 Q602.3125,134.9063 603,135.9766 Q603.6875,137.0469 605.0313,137.0469 Q605.6563,137.0469 606.25,136.7734 Q606.8438,136.5 607.4688,135.9219 L607.4688,138.6406 Z "/><text fill="#000000" font-family="sans-serif" font-size="12" lengthAdjust="spacingAndGlyphs" textLength="50" x="618.5" y="137.1543">PortletB</text><line style="stroke: #A80036; stroke-width: 1.5;" x1="590.5" x2="670.5" y1="149" y2="149"/><line style="stroke: #A80036; stroke-width: 1.5;" x1="590.5" x2="670.5" y1="157" y2="157"/><!--class PortletA--><rect fill="#FEFECE" filter="url(#f2a0at8ejeobj)" height="48" id="PortletA" style="stroke: #A80036; stroke-width: 1.5;" width="82" x="451.5" y="117"/><ellipse cx="466.5" cy="133" fill="#ADD1B2" rx="11" ry="11" style="stroke: #A80036; stroke-width: 1.0;"/><path d="M469.4688,138.6406 Q468.8906,138.9375 468.25,139.0859 Q467.6094,139.2344 466.9063,139.2344 Q464.4063,139.2344 463.0859,137.5859 Q461.7656,135.9375 461.7656,132.8125 Q461.7656,129.6875 463.0859,128.0313 Q464.4063,126.375 466.9063,126.375 Q467.6094,126.375 468.2578,126.5313 Q468.9063,126.6875 469.4688,126.9844 L469.4688,129.7031 Q468.8438,129.125 468.25,128.8516 Q467.6563,128.5781 467.0313,128.5781 Q465.6875,128.5781 465,129.6484 Q464.3125,130.7188 464.3125,132.8125 Q464.3125,134.9063 465,135.9766 Q465.6875,137.0469 467.0313,137.0469 Q467.6563,137.0469 468.25,136.7734 Q468.8438,136.5 469.4688,135.9219 L469.4688,138.6406 Z "/><text fill="#000000" font-family="sans-serif" font-size="12" lengthAdjust="spacingAndGlyphs" textLength="50" x="480.5" y="137.1543">PortletA</text><line style="stroke: #A80036; stroke-width: 1.5;" x1="452.5" x2="532.5" y1="149" y2="149"/><line style="stroke: #A80036; stroke-width: 1.5;" x1="452.5" x2="532.5" y1="157" y2="157"/><!--class PortletAData--><rect fill="#FEFECE" filter="url(#f2a0at8ejeobj)" height="60.8047" id="PortletAData" style="stroke: #A80036; stroke-width: 1.5;" width="115" x="444" y="225"/><ellipse cx="460.35" cy="241" fill="#ADD1B2" rx="11" ry="11" style="stroke: #A80036; stroke-width: 1.0;"/><path d="M463.3188,246.6406 Q462.7406,246.9375 462.1,247.0859 Q461.4594,247.2344 460.7563,247.2344 Q458.2563,247.2344 456.9359,245.5859 Q455.6156,243.9375 455.6156,240.8125 Q455.6156,237.6875 456.9359,236.0313 Q458.2563,234.375 460.7563,234.375 Q461.4594,234.375 462.1078,234.5313 Q462.7563,234.6875 463.3188,234.9844 L463.3188,237.7031 Q462.6938,237.125 462.1,236.8516 Q461.5063,236.5781 460.8813,236.5781 Q459.5375,236.5781 458.85,237.6484 Q458.1625,238.7188 458.1625,240.8125 Q458.1625,242.9063 458.85,243.9766 Q459.5375,245.0469 460.8813,245.0469 Q461.5063,245.0469 462.1,244.7734 Q462.6938,244.5 463.3188,243.9219 L463.3188,246.6406 Z "/><text fill="#000000" font-family="sans-serif" font-size="12" lengthAdjust="spacingAndGlyphs" textLength="80" x="474.65" y="245.1543">PortletAData</text><line style="stroke: #A80036; stroke-width: 1.5;" x1="445" x2="558" y1="257" y2="257"/><rect fill="none" height="6" style="stroke: #C82930; stroke-width: 1.0;" width="6" x="452" y="265.9023"/><text fill="#000000" font-family="sans-serif" font-size="11" lengthAdjust="spacingAndGlyphs" textLength="89" x="464" y="271.2104">portletId: String</text><line style="stroke: #A80036; stroke-width: 1.5;" x1="445" x2="558" y1="277.8047" y2="277.8047"/><!--class PortletBData--><rect fill="#FEFECE" filter="url(#f2a0at8ejeobj)" height="60.8047" id="PortletBData" style="stroke: #A80036; stroke-width: 1.5;" width="115" x="594" y="225"/><ellipse cx="610.35" cy="241" fill="#ADD1B2" rx="11" ry="11" style="stroke: #A80036; stroke-width: 1.0;"/><path d="M613.3188,246.6406 Q612.7406,246.9375 612.1,247.0859 Q611.4594,247.2344 610.7563,247.2344 Q608.2563,247.2344 606.9359,245.5859 Q605.6156,243.9375 605.6156,240.8125 Q605.6156,237.6875 606.9359,236.0313 Q608.2563,234.375 610.7563,234.375 Q611.4594,234.375 612.1078,234.5313 Q612.7563,234.6875 613.3188,234.9844 L613.3188,237.7031 Q612.6938,237.125 612.1,236.8516 Q611.5063,236.5781 610.8813,236.5781 Q609.5375,236.5781 608.85,237.6484 Q608.1625,238.7188 608.1625,240.8125 Q608.1625,242.9063 608.85,243.9766 Q609.5375,245.0469 610.8813,245.0469 Q611.5063,245.0469 612.1,244.7734 Q612.6938,244.5 613.3188,243.9219 L613.3188,246.6406 Z "/><text fill="#000000" font-family="sans-serif" font-size="12" lengthAdjust="spacingAndGlyphs" textLength="80" x="624.65" y="245.1543">PortletBData</text><line style="stroke: #A80036; stroke-width: 1.5;" x1="595" x2="708" y1="257" y2="257"/><rect fill="none" height="6" style="stroke: #C82930; stroke-width: 1.0;" width="6" x="602" y="265.9023"/><text fill="#000000" font-family="sans-serif" font-size="11" lengthAdjust="spacingAndGlyphs" textLength="89" x="614" y="271.2104">portletId: String</text><line style="stroke: #A80036; stroke-width: 1.5;" x1="595" x2="708" y1="277.8047" y2="277.8047"/><!--class Session--><rect fill="#FEFECE" filter="url(#f2a0at8ejeobj)" height="48" id="Session" style="stroke: #A80036; stroke-width: 1.5;" width="81" x="536" y="346"/><ellipse cx="551" cy="362" fill="#ADD1B2" rx="11" ry="11" style="stroke: #A80036; stroke-width: 1.0;"/><path d="M553.9688,367.6406 Q553.3906,367.9375 552.75,368.0859 Q552.1094,368.2344 551.4063,368.2344 Q548.9063,368.2344 547.5859,366.5859 Q546.2656,364.9375 546.2656,361.8125 Q546.2656,358.6875 547.5859,357.0313 Q548.9063,355.375 551.4063,355.375 Q552.1094,355.375 552.7578,355.5313 Q553.4063,355.6875 553.9688,355.9844 L553.9688,358.7031 Q553.3438,358.125 552.75,357.8516 Q552.1563,357.5781 551.5313,357.5781 Q550.1875,357.5781 549.5,358.6484 Q548.8125,359.7188 548.8125,361.8125 Q548.8125,363.9063 549.5,364.9766 Q550.1875,366.0469 551.5313,366.0469 Q552.1563,366.0469 552.75,365.7734 Q553.3438,365.5 553.9688,364.9219 L553.9688,367.6406 Z "/><text fill="#000000" font-family="sans-serif" font-size="12" lengthAdjust="spacingAndGlyphs" textLength="49" x="565" y="366.1543">Session</text><line style="stroke: #A80036; stroke-width: 1.5;" x1="537" x2="616" y1="378" y2="378"/><line style="stroke: #A80036; stroke-width: 1.5;" x1="537" x2="616" y1="386" y2="386"/><!--entity Browser--><rect fill="#FEFECE" filter="url(#f2a0at8ejeobj)" height="36.2969" style="stroke: #A80036; stroke-width: 1.5;" width="77" x="6" y="123"/><rect fill="#FEFECE" height="5" style="stroke: #A80036; stroke-width: 1.5;" width="10" x="1" y="128"/><rect fill="#FEFECE" height="5" style="stroke: #A80036; stroke-width: 1.5;" width="10" x="1" y="149.2969"/><text fill="#000000" font-family="sans-serif" font-size="14" lengthAdjust="spacingAndGlyphs" textLength="57" x="16" y="145.9951">Browser</text><!--class PageResourceProvider--><rect fill="#FEFECE" filter="url(#f2a0at8ejeobj)" height="48" id="PageResourceProvider" style="stroke: #A80036; stroke-width: 1.5;" width="174" x="83.5" y="231.5"/><ellipse cx="98.5" cy="247.5" fill="#ADD1B2" rx="11" ry="11" style="stroke: #A80036; stroke-width: 1.0;"/><path d="M101.4688,253.1406 Q100.8906,253.4375 100.25,253.5859 Q99.6094,253.7344 98.9063,253.7344 Q96.4063,253.7344 95.0859,252.0859 Q93.7656,250.4375 93.7656,247.3125 Q93.7656,244.1875 95.0859,242.5313 Q96.4063,240.875 98.9063,240.875 Q99.6094,240.875 100.2578,241.0313 Q100.9063,241.1875 101.4688,241.4844 L101.4688,244.2031 Q100.8438,243.625 100.25,243.3516 Q99.6563,243.0781 99.0313,243.0781 Q97.6875,243.0781 97,244.1484 Q96.3125,245.2188 96.3125,247.3125 Q96.3125,249.4063 97,250.4766 Q97.6875,251.5469 99.0313,251.5469 Q99.6563,251.5469 100.25,251.2734 Q100.8438,251 101.4688,250.4219 L101.4688,253.1406 Z "/><text fill="#000000" font-family="sans-serif" font-size="12" lengthAdjust="spacingAndGlyphs" textLength="142" x="112.5" y="251.6543">PageResourceProvider</text><line style="stroke: #A80036; stroke-width: 1.5;" x1="84.5" x2="256.5" y1="263.5" y2="263.5"/><line style="stroke: #A80036; stroke-width: 1.5;" x1="84.5" x2="256.5" y1="271.5" y2="271.5"/><!--class PortalPolicy--><rect fill="#FEFECE" filter="url(#f2a0at8ejeobj)" height="48" id="PortalPolicy" style="stroke: #A80036; stroke-width: 1.5;" width="104" x="292.5" y="231.5"/><ellipse cx="307.5" cy="247.5" fill="#ADD1B2" rx="11" ry="11" style="stroke: #A80036; stroke-width: 1.0;"/><path d="M310.4688,253.1406 Q309.8906,253.4375 309.25,253.5859 Q308.6094,253.7344 307.9063,253.7344 Q305.4063,253.7344 304.0859,252.0859 Q302.7656,250.4375 302.7656,247.3125 Q302.7656,244.1875 304.0859,242.5313 Q305.4063,240.875 307.9063,240.875 Q308.6094,240.875 309.2578,241.0313 Q309.9063,241.1875 310.4688,241.4844 L310.4688,244.2031 Q309.8438,243.625 309.25,243.3516 Q308.6563,243.0781 308.0313,243.0781 Q306.6875,243.0781 306,244.1484 Q305.3125,245.2188 305.3125,247.3125 Q305.3125,249.4063 306,250.4766 Q306.6875,251.5469 308.0313,251.5469 Q308.6563,251.5469 309.25,251.2734 Q309.8438,251 310.4688,250.4219 L310.4688,253.1406 Z "/><text fill="#000000" font-family="sans-serif" font-size="12" lengthAdjust="spacingAndGlyphs" textLength="72" x="321.5" y="251.6543">PortalPolicy</text><line style="stroke: #A80036; stroke-width: 1.5;" x1="293.5" x2="395.5" y1="263.5" y2="263.5"/><line style="stroke: #A80036; stroke-width: 1.5;" x1="293.5" x2="395.5" y1="271.5" y2="271.5"/><!--link ConsoleWeblet to WebConsole--><path d="M243.141,141 C254.66,141 266.179,141 277.698,141 " fill="none" id="ConsoleWeblet-WebConsole" style="stroke: #A80036; stroke-width: 1.0;"/><text fill="#000000" font-family="sans-serif" font-size="13" lengthAdjust="spacingAndGlyphs" textLength="8" x="250.8464" y="137.2074">1</text><text fill="#000000" font-family="sans-serif" font-size="13" lengthAdjust="spacingAndGlyphs" textLength="8" x="262.164" y="137.1145">1</text><!--link Browser to ConsoleWeblet--><path d="M83.0156,141 C94.5665,141 106.117,141 117.668,141 " fill="none" id="Browser-ConsoleWeblet" style="stroke: #A80036; stroke-width: 1.0;"/><text fill="#000000" font-family="sans-serif" font-size="13" lengthAdjust="spacingAndGlyphs" textLength="7" x="91.0248" y="136.6216">*</text><text fill="#000000" font-family="sans-serif" font-size="13" lengthAdjust="spacingAndGlyphs" textLength="7" x="102.9984" y="137.2074">*</text><!--link WebConsole to PortletB--><path d="M348.76,116.781 C367.256,91.638 400.022,53.815 439.167,38 C480.238,21.407 498.419,19.866 538.833,38 C574.651,54.072 602.198,91.823 617.37,116.881 " fill="none" id="WebConsole-PortletB" style="stroke: #A80036; stroke-width: 1.0;"/><text fill="#000000" font-family="sans-serif" font-size="13" lengthAdjust="spacingAndGlyphs" textLength="8" x="343.9016" y="105.7369">1</text><text fill="#000000" font-family="sans-serif" font-size="13" lengthAdjust="spacingAndGlyphs" textLength="8" x="606.7356" y="106.1114">1</text><!--link WebConsole to PortletA--><path d="M387.188,157.198 C408.579,160.244 429.971,159.429 451.362,154.752 " fill="none" id="WebConsole-PortletA" style="stroke: #A80036; stroke-width: 1.0;"/><text fill="#000000" font-family="sans-serif" font-size="13" lengthAdjust="spacingAndGlyphs" textLength="8" x="395.0742" y="155.4426">1</text><text fill="#000000" font-family="sans-serif" font-size="13" lengthAdjust="spacingAndGlyphs" textLength="8" x="435.6039" y="120.6736">1</text><!--link PortletA to PortletAData--><path d="M494.343,165.038 C495.721,182.266 497.618,205.97 499.112,224.65 " fill="none" id="PortletA-PortletAData" style="stroke: #A80036; stroke-width: 1.0;"/><text fill="#000000" font-family="sans-serif" font-size="13" lengthAdjust="spacingAndGlyphs" textLength="8" x="485.7903" y="185.2035">1</text><text fill="#000000" font-family="sans-serif" font-size="13" lengthAdjust="spacingAndGlyphs" textLength="7" x="490.8976" y="213.841">*</text><!--link PortletB to PortletBData--><path d="M634.8,165.038 C638.016,182.266 642.441,205.97 645.928,224.65 " fill="none" id="PortletB-PortletBData" style="stroke: #A80036; stroke-width: 1.0;"/><text fill="#000000" font-family="sans-serif" font-size="13" lengthAdjust="spacingAndGlyphs" textLength="8" x="626.8769" y="185.2035">1</text><text fill="#000000" font-family="sans-serif" font-size="13" lengthAdjust="spacingAndGlyphs" textLength="7" x="637.0569" y="213.841">*</text><!--link PortletAData to Session--><path d="M521.205,286.058 C531.097,300.895 543.138,318.957 553.456,334.4339 " fill="none" id="PortletAData-Session" style="stroke: #A80036; stroke-width: 1.0;"/><polygon fill="#A80036" points="560.946,345.6686,560.9457,338.4575,554.2892,335.6843,554.2895,342.8954,560.946,345.6686" style="stroke: #A80036; stroke-width: 1.0;"/><text fill="#000000" font-family="sans-serif" font-size="13" lengthAdjust="spacingAndGlyphs" textLength="7" x="517.5473" y="306.0082">*</text><text fill="#000000" font-family="sans-serif" font-size="13" lengthAdjust="spacingAndGlyphs" textLength="8" x="548.1797" y="334.9928">1</text><!--link PortletBData to Session--><path d="M631.795,286.058 C621.903,300.895 609.862,318.957 599.544,334.4339 " fill="none" id="PortletBData-Session" style="stroke: #A80036; stroke-width: 1.0;"/><polygon fill="#A80036" points="592.054,345.6686,598.7105,342.8954,598.7108,335.6843,592.0543,338.4575,592.054,345.6686" style="stroke: #A80036; stroke-width: 1.0;"/><text fill="#000000" font-family="sans-serif" font-size="13" lengthAdjust="spacingAndGlyphs" textLength="7" x="620.009" y="306.0082">*</text><text fill="#000000" font-family="sans-serif" font-size="13" lengthAdjust="spacingAndGlyphs" textLength="8" x="586.8703" y="334.9928">1</text><!--link WebConsole to PageResourceProvider--><path d="M299.326,165.038 C271.37,184.451 231.573,212.088 203.63,231.493 " fill="none" id="WebConsole-PageResourceProvider" style="stroke: #A80036; stroke-width: 1.0;"/><text fill="#000000" font-family="sans-serif" font-size="13" lengthAdjust="spacingAndGlyphs" textLength="8" x="281.8002" y="185.2035">1</text><text fill="#000000" font-family="sans-serif" font-size="13" lengthAdjust="spacingAndGlyphs" textLength="7" x="204.2227" y="220.5032">*</text><!--link WebConsole to PortalPolicy--><path d="M334.957,165.038 C337.028,184.451 339.976,212.088 342.046,231.493 " fill="none" id="WebConsole-PortalPolicy" style="stroke: #A80036; stroke-width: 1.0;"/><text fill="#000000" font-family="sans-serif" font-size="13" lengthAdjust="spacingAndGlyphs" textLength="8" x="326.5616" y="185.2035">1</text><text fill="#000000" font-family="sans-serif" font-size="13" lengthAdjust="spacingAndGlyphs" textLength="7" x="333.5203" y="220.5032">*</text><!--
@startuml
skinparam packageStyle rectangle
 allow_mixing
 
 component Browser
 
 package "Conceptual WebConsole\n(WebConsole Gateway)" {
    class WebConsole
 	  class ConsoleWeblet
 
    WebConsole "1" -left- "1" ConsoleWeblet
 }
 
 ConsoleWeblet "*" -left- "*" Browser
 
 together {
 
   WebConsole "1" -right- "1" PortletB
   WebConsole "1" -right- "1" PortletA
 
   class PortletAData {
     -portletId: String
   }
 
   PortletAData "*" -up- "1" PortletA
 
   class PortletBData {
     -portletId: String
   }
 
   PortletBData "*" -up- "1" PortletB
   
   PortletAData "*" -up-* "1" Session
   PortletBData "*" -up-* "1" Session
 }
 
 WebConsole "1" -down- "*" PageResourceProvider
 WebConsole "1" -down- "*" PortalPolicy
@enduml

PlantUML version 1.2017.18(Fri Oct 06 16:56:32 UTC 2017)
(GPL source distribution)
Java Runtime: OpenJDK Runtime Environment
JVM: OpenJDK 64-Bit Server VM
Java Version: 1.8.0_222-8u222-b10-1ubuntu1~16.04.1-b10
Operating System: Linux
OS Version: 4.15.0-1050-gcp
Default Encoding: UTF-8
Language: en
Country: US
--></g></svg>