<?xml version="1.0" encoding="UTF-8" standalone="no"?><svg xmlns="http://www.w3.org/2000/svg" xmlns:xlink="http://www.w3.org/1999/xlink" contentScriptType="application/ecmascript" contentStyleType="text/css" height="230px" preserveAspectRatio="none" style="width:344px;height:230px;" version="1.1" viewBox="0 0 344 230" width="344px" zoomAndPan="magnify"><defs><filter height="300%" id="fbeyv886pkrvw" width="300%" x="-1" y="-1"><feGaussianBlur result="blurOut" stdDeviation="2.0"/><feColorMatrix in="blurOut" result="blurOut2" type="matrix" values="0 0 0 0 0 0 0 0 0 0 0 0 0 0 0 0 0 0 .4 0"/><feOffset dx="4.0" dy="4.0" in="blurOut2" result="blurOut3"/><feBlend in="SourceGraphic" in2="blurOut3" mode="normal"/></filter></defs><g><rect fill="#FFFFFF" filter="url(#fbeyv886pkrvw)" height="21" style="stroke: #A80036; stroke-width: 1.0;" width="10" x="71" y="48.2969"/><rect fill="#FFFFFF" filter="url(#fbeyv886pkrvw)" height="139.6641" style="stroke: #A80036; stroke-width: 1.0;" width="10" x="207" y="69.2969"/><rect fill="#FFFFFF" filter="url(#fbeyv886pkrvw)" height="102.5313" style="stroke: #A80036; stroke-width: 1.0;" width="10" x="212" y="106.4297"/><rect fill="#FFFFFF" filter="url(#fbeyv886pkrvw)" height="46.2656" style="stroke: #000000; stroke-width: 2.0;" width="240.5" x="13" y="155.6953"/><line style="stroke: #A80036; stroke-width: 1.0; stroke-dasharray: 5.0,5.0;" x1="76" x2="76" y1="38.2969" y2="218.9609"/><line style="stroke: #A80036; stroke-width: 1.0; stroke-dasharray: 5.0,5.0;" x1="211.5" x2="211.5" y1="38.2969" y2="218.9609"/><rect fill="#FEFECE" filter="url(#fbeyv886pkrvw)" height="30.2969" style="stroke: #A80036; stroke-width: 1.5;" width="102" x="23" y="3"/><text fill="#000000" font-family="sans-serif" font-size="14" lengthAdjust="spacingAndGlyphs" textLength="88" x="30" y="22.9951">WebConsole</text><rect fill="#FEFECE" filter="url(#fbeyv886pkrvw)" height="30.2969" style="stroke: #A80036; stroke-width: 1.5;" width="59" x="180.5" y="3"/><text fill="#000000" font-family="sans-serif" font-size="14" lengthAdjust="spacingAndGlyphs" textLength="45" x="187.5" y="22.9951">Conlet</text><rect fill="#FFFFFF" filter="url(#fbeyv886pkrvw)" height="21" style="stroke: #A80036; stroke-width: 1.0;" width="10" x="71" y="48.2969"/><rect fill="#FFFFFF" filter="url(#fbeyv886pkrvw)" height="139.6641" style="stroke: #A80036; stroke-width: 1.0;" width="10" x="207" y="69.2969"/><rect fill="#FFFFFF" filter="url(#fbeyv886pkrvw)" height="102.5313" style="stroke: #A80036; stroke-width: 1.0;" width="10" x="212" y="106.4297"/><polygon fill="#A80036" points="195,65.2969,205,69.2969,195,73.2969,199,69.2969" style="stroke: #A80036; stroke-width: 1.0;"/><line style="stroke: #A80036; stroke-width: 1.0;" x1="76" x2="201" y1="69.2969" y2="69.2969"/><text fill="#000000" font-family="sans-serif" font-size="13" lengthAdjust="spacingAndGlyphs" textLength="86" x="83" y="64.3638">RenderConlet</text><line style="stroke: #A80036; stroke-width: 1.0;" x1="217" x2="264" y1="93.5625" y2="93.5625"/><line style="stroke: #A80036; stroke-width: 1.0;" x1="264" x2="264" y1="93.5625" y2="106.5625"/><line style="stroke: #A80036; stroke-width: 1.0;" x1="223" x2="264" y1="106.5625" y2="106.5625"/><polygon fill="#A80036" points="233,102.5625,223,106.5625,233,110.5625,229,106.5625" style="stroke: #A80036; stroke-width: 1.0;"/><text fill="#000000" font-family="sans-serif" font-size="13" lengthAdjust="spacingAndGlyphs" textLength="103" x="229" y="88.4966">doRenderPortlet</text><polygon fill="#A80036" points="87,136.5625,77,140.5625,87,144.5625,83,140.5625" style="stroke: #A80036; stroke-width: 1.0;"/><line style="stroke: #A80036; stroke-width: 1.0;" x1="81" x2="211" y1="140.5625" y2="140.5625"/><text fill="#000000" font-family="sans-serif" font-size="13" lengthAdjust="spacingAndGlyphs" textLength="86" x="93" y="135.6294">RenderConlet</text><rect fill="none" height="46.2656" style="stroke: #000000; stroke-width: 2.0;" width="240.5" x="13" y="155.6953"/><polygon fill="#EEEEEE" points="13,155.6953,83,155.6953,83,162.6953,73,172.6953,13,172.6953,13,155.6953" style="stroke: #000000; stroke-width: 2.0;"/><text fill="#000000" font-family="sans-serif" font-size="13" font-weight="bold" lengthAdjust="spacingAndGlyphs" textLength="25" x="28" y="168.7622">opt</text><polygon fill="#A80036" points="87,189.8281,77,193.8281,87,197.8281,83,193.8281" style="stroke: #A80036; stroke-width: 1.0;"/><line style="stroke: #A80036; stroke-width: 1.0;" x1="81" x2="211" y1="193.8281" y2="193.8281"/><text fill="#000000" font-family="sans-serif" font-size="13" lengthAdjust="spacingAndGlyphs" textLength="107" x="93" y="188.895">NotifyConletView</text><!--
@startuml
hide footbox
 
 activate WebConsole
 WebConsole -> Conlet: RenderConlet
 deactivate WebConsole
 activate Conlet
 Conlet -> Conlet: doRenderPortlet
 activate Conlet
 Conlet -> WebConsole: RenderConlet 
 opt 
     Conlet -> WebConsole: NotifyConletView
 end opt 
 deactivate Conlet
 deactivate Conlet
 activate WebConsole
 deactivate WebConsole
@enduml

PlantUML version 1.2017.18(Fri Oct 06 16:56:32 UTC 2017)
(GPL source distribution)
Java Runtime: OpenJDK Runtime Environment
JVM: OpenJDK 64-Bit Server VM
Java Version: 1.8.0_222-8u222-b10-1ubuntu1~16.04.1-b10
Operating System: Linux
OS Version: 4.15.0-1050-gcp
Default Encoding: UTF-8
Language: en
Country: US
--></g></svg>