<?xml version="1.0" encoding="UTF-8" standalone="no"?><svg xmlns="http://www.w3.org/2000/svg" xmlns:xlink="http://www.w3.org/1999/xlink" contentScriptType="application/ecmascript" contentStyleType="text/css" height="508px" preserveAspectRatio="none" style="width:410px;height:508px;" version="1.1" viewBox="0 0 410 508" width="410px" zoomAndPan="magnify"><defs><filter height="300%" id="fs1xn2zlkug0" width="300%" x="-1" y="-1"><feGaussianBlur result="blurOut" stdDeviation="2.0"/><feColorMatrix in="blurOut" result="blurOut2" type="matrix" values="0 0 0 0 0 0 0 0 0 0 0 0 0 0 0 0 0 0 .4 0"/><feOffset dx="4.0" dy="4.0" in="blurOut2" result="blurOut3"/><feBlend in="SourceGraphic" in2="blurOut3" mode="normal"/></filter></defs><g><rect fill="#FFFFFF" filter="url(#fs1xn2zlkug0)" height="21" style="stroke: #A80036; stroke-width: 1.0;" width="10" x="71" y="48.2969"/><rect fill="#FFFFFF" filter="url(#fs1xn2zlkug0)" height="30" style="stroke: #A80036; stroke-width: 1.0;" width="10" x="71" y="315.9609"/><rect fill="#FFFFFF" filter="url(#fs1xn2zlkug0)" height="30" style="stroke: #A80036; stroke-width: 1.0;" width="10" x="71" y="399.2266"/><rect fill="#FFFFFF" filter="url(#fs1xn2zlkug0)" height="418.1953" style="stroke: #A80036; stroke-width: 1.0;" width="10" x="238" y="69.2969"/><rect fill="#FFFFFF" filter="url(#fs1xn2zlkug0)" height="28" style="stroke: #A80036; stroke-width: 1.0;" width="10" x="243" y="106.4297"/><rect fill="#FFFFFF" filter="url(#fs1xn2zlkug0)" height="28" style="stroke: #A80036; stroke-width: 1.0;" width="10" x="243" y="202.6953"/><rect fill="#FFFFFF" filter="url(#fs1xn2zlkug0)" height="162.5313" style="stroke: #A80036; stroke-width: 1.0;" width="10" x="243" y="281.8281"/><rect fill="#FFFFFF" filter="url(#fs1xn2zlkug0)" height="89.2656" style="stroke: #000000; stroke-width: 2.0;" width="175" x="201.5" y="156.5625"/><rect fill="#FFFFFF" filter="url(#fs1xn2zlkug0)" height="76.2656" style="stroke: #000000; stroke-width: 2.0;" width="271.5" x="13" y="361.0938"/><line style="stroke: #A80036; stroke-width: 1.0; stroke-dasharray: 5.0,5.0;" x1="76" x2="76" y1="38.2969" y2="496.4922"/><line style="stroke: #A80036; stroke-width: 1.0; stroke-dasharray: 5.0,5.0;" x1="242.5" x2="242.5" y1="38.2969" y2="496.4922"/><rect fill="#FEFECE" filter="url(#fs1xn2zlkug0)" height="30.2969" style="stroke: #A80036; stroke-width: 1.5;" width="102" x="23" y="3"/><text fill="#000000" font-family="sans-serif" font-size="14" lengthAdjust="spacingAndGlyphs" textLength="88" x="30" y="22.9951">WebConsole</text><rect fill="#FEFECE" filter="url(#fs1xn2zlkug0)" height="30.2969" style="stroke: #A80036; stroke-width: 1.5;" width="59" x="211.5" y="3"/><text fill="#000000" font-family="sans-serif" font-size="14" lengthAdjust="spacingAndGlyphs" textLength="45" x="218.5" y="22.9951">Conlet</text><rect fill="#FFFFFF" filter="url(#fs1xn2zlkug0)" height="21" style="stroke: #A80036; stroke-width: 1.0;" width="10" x="71" y="48.2969"/><rect fill="#FFFFFF" filter="url(#fs1xn2zlkug0)" height="30" style="stroke: #A80036; stroke-width: 1.0;" width="10" x="71" y="315.9609"/><rect fill="#FFFFFF" filter="url(#fs1xn2zlkug0)" height="30" style="stroke: #A80036; stroke-width: 1.0;" width="10" x="71" y="399.2266"/><rect fill="#FFFFFF" filter="url(#fs1xn2zlkug0)" height="418.1953" style="stroke: #A80036; stroke-width: 1.0;" width="10" x="238" y="69.2969"/><rect fill="#FFFFFF" filter="url(#fs1xn2zlkug0)" height="28" style="stroke: #A80036; stroke-width: 1.0;" width="10" x="243" y="106.4297"/><rect fill="#FFFFFF" filter="url(#fs1xn2zlkug0)" height="28" style="stroke: #A80036; stroke-width: 1.0;" width="10" x="243" y="202.6953"/><rect fill="#FFFFFF" filter="url(#fs1xn2zlkug0)" height="162.5313" style="stroke: #A80036; stroke-width: 1.0;" width="10" x="243" y="281.8281"/><polygon fill="#A80036" points="226,65.2969,236,69.2969,226,73.2969,230,69.2969" style="stroke: #A80036; stroke-width: 1.0;"/><line style="stroke: #A80036; stroke-width: 1.0;" x1="76" x2="232" y1="69.2969" y2="69.2969"/><text fill="#000000" font-family="sans-serif" font-size="13" lengthAdjust="spacingAndGlyphs" textLength="138" x="83" y="64.3638">RenderConletRequest</text><line style="stroke: #A80036; stroke-width: 1.0;" x1="253" x2="295" y1="98.5625" y2="98.5625"/><line style="stroke: #A80036; stroke-width: 1.0;" x1="295" x2="295" y1="98.5625" y2="111.5625"/><line style="stroke: #A80036; stroke-width: 1.0;" x1="254" x2="295" y1="111.5625" y2="111.5625"/><polygon fill="#A80036" points="264,107.5625,254,111.5625,264,115.5625,260,111.5625" style="stroke: #A80036; stroke-width: 1.0;"/><text fill="#000000" font-family="sans-serif" font-size="13" lengthAdjust="spacingAndGlyphs" textLength="116" x="260" y="93.4966">stateFromSession</text><rect fill="none" height="89.2656" style="stroke: #000000; stroke-width: 2.0;" width="175" x="201.5" y="156.5625"/><polygon fill="#EEEEEE" points="201.5,156.5625,271.5,156.5625,271.5,163.5625,261.5,173.5625,201.5,173.5625,201.5,156.5625" style="stroke: #000000; stroke-width: 2.0;"/><text fill="#000000" font-family="sans-serif" font-size="13" font-weight="bold" lengthAdjust="spacingAndGlyphs" textLength="25" x="216.5" y="169.6294">opt</text><text fill="#000000" font-family="sans-serif" font-size="11" font-weight="bold" lengthAdjust="spacingAndGlyphs" textLength="85" x="286.5" y="168.7729">[if not found]</text><line style="stroke: #A80036; stroke-width: 1.0;" x1="253" x2="295" y1="194.8281" y2="194.8281"/><line style="stroke: #A80036; stroke-width: 1.0;" x1="295" x2="295" y1="194.8281" y2="207.8281"/><line style="stroke: #A80036; stroke-width: 1.0;" x1="254" x2="295" y1="207.8281" y2="207.8281"/><polygon fill="#A80036" points="264,203.8281,254,207.8281,264,211.8281,260,207.8281" style="stroke: #A80036; stroke-width: 1.0;"/><text fill="#000000" font-family="sans-serif" font-size="13" lengthAdjust="spacingAndGlyphs" textLength="89" x="260" y="189.7622">recreateState</text><line style="stroke: #A80036; stroke-width: 1.0;" x1="248" x2="295" y1="268.9609" y2="268.9609"/><line style="stroke: #A80036; stroke-width: 1.0;" x1="295" x2="295" y1="268.9609" y2="281.9609"/><line style="stroke: #A80036; stroke-width: 1.0;" x1="254" x2="295" y1="281.9609" y2="281.9609"/><polygon fill="#A80036" points="264,277.9609,254,281.9609,264,285.9609,260,281.9609" style="stroke: #A80036; stroke-width: 1.0;"/><text fill="#000000" font-family="sans-serif" font-size="13" lengthAdjust="spacingAndGlyphs" textLength="102" x="260" y="263.895">doRenderConlet</text><polygon fill="#A80036" points="92,311.9609,82,315.9609,92,319.9609,88,315.9609" style="stroke: #A80036; stroke-width: 1.0;"/><line style="stroke: #A80036; stroke-width: 1.0;" x1="86" x2="242" y1="315.9609" y2="315.9609"/><text fill="#000000" font-family="sans-serif" font-size="13" lengthAdjust="spacingAndGlyphs" textLength="86" x="98" y="311.0278">RenderConlet</text><rect fill="none" height="76.2656" style="stroke: #000000; stroke-width: 2.0;" width="271.5" x="13" y="361.0938"/><polygon fill="#EEEEEE" points="13,361.0938,83,361.0938,83,368.0938,73,378.0938,13,378.0938,13,361.0938" style="stroke: #000000; stroke-width: 2.0;"/><text fill="#000000" font-family="sans-serif" font-size="13" font-weight="bold" lengthAdjust="spacingAndGlyphs" textLength="25" x="28" y="374.1606">opt</text><polygon fill="#A80036" points="92,395.2266,82,399.2266,92,403.2266,88,399.2266" style="stroke: #A80036; stroke-width: 1.0;"/><line style="stroke: #A80036; stroke-width: 1.0;" x1="86" x2="242" y1="399.2266" y2="399.2266"/><text fill="#000000" font-family="sans-serif" font-size="13" lengthAdjust="spacingAndGlyphs" textLength="107" x="98" y="394.2935">NotifyConletView</text><line style="stroke: #A80036; stroke-width: 1.0;" x1="248" x2="290" y1="465.4922" y2="465.4922"/><line style="stroke: #A80036; stroke-width: 1.0;" x1="290" x2="290" y1="465.4922" y2="478.4922"/><line style="stroke: #A80036; stroke-width: 1.0;" x1="249" x2="290" y1="478.4922" y2="478.4922"/><polygon fill="#A80036" points="259,474.4922,249,478.4922,259,482.4922,255,478.4922" style="stroke: #A80036; stroke-width: 1.0;"/><text fill="#000000" font-family="sans-serif" font-size="13" lengthAdjust="spacingAndGlyphs" textLength="143" x="255" y="460.4263">update conlet tracking</text><!--
@startuml
hide footbox
 
 activate WebConsole
 WebConsole -> Conlet: RenderConletRequest
 deactivate WebConsole
 activate Conlet
 Conlet -> Conlet: stateFromSession
 activate Conlet
 deactivate Conlet
 opt if not found
     Conlet -> Conlet: recreateState
     activate Conlet
     deactivate Conlet
 end opt
 Conlet -> Conlet: doRenderConlet
 activate Conlet
 Conlet -> WebConsole: RenderConlet 
 activate WebConsole
 deactivate WebConsole
 opt 
     Conlet -> WebConsole: NotifyConletView
 activate WebConsole
 deactivate WebConsole
 end opt 
 deactivate Conlet
 Conlet -> Conlet: update conlet tracking
@enduml

PlantUML version 1.2017.18(Fri Oct 06 16:56:32 UTC 2017)
(GPL source distribution)
Java Runtime: OpenJDK Runtime Environment
JVM: OpenJDK 64-Bit Server VM
Java Version: 15.0.6+5-MTS
Operating System: Linux
OS Version: 5.11.0-1028-azure
Default Encoding: UTF-8
Language: en
Country: 
--></g></svg>