<?xml version="1.0" encoding="UTF-8" standalone="no"?><svg xmlns="http://www.w3.org/2000/svg" xmlns:xlink="http://www.w3.org/1999/xlink" contentScriptType="application/ecmascript" contentStyleType="text/css" height="363px" preserveAspectRatio="none" style="width:415px;height:363px;" version="1.1" viewBox="0 0 415 363" width="415px" zoomAndPan="magnify"><defs><filter height="300%" id="f1s8yazmchw0gp" width="300%" x="-1" y="-1"><feGaussianBlur result="blurOut" stdDeviation="2.0"/><feColorMatrix in="blurOut" result="blurOut2" type="matrix" values="0 0 0 0 0 0 0 0 0 0 0 0 0 0 0 0 0 0 .4 0"/><feOffset dx="4.0" dy="4.0" in="blurOut2" result="blurOut3"/><feBlend in="SourceGraphic" in2="blurOut3" mode="normal"/></filter></defs><g><rect fill="#FFFFFF" filter="url(#f1s8yazmchw0gp)" height="21" style="stroke: #A80036; stroke-width: 1.0;" width="10" x="71" y="48.2969"/><rect fill="#FFFFFF" filter="url(#f1s8yazmchw0gp)" height="30" style="stroke: #A80036; stroke-width: 1.0;" width="10" x="71" y="140.5625"/><rect fill="#FFFFFF" filter="url(#f1s8yazmchw0gp)" height="30" style="stroke: #A80036; stroke-width: 1.0;" width="10" x="71" y="223.8281"/><rect fill="#FFFFFF" filter="url(#f1s8yazmchw0gp)" height="256.6641" style="stroke: #A80036; stroke-width: 1.0;" width="10" x="238" y="69.2969"/><rect fill="#FFFFFF" filter="url(#f1s8yazmchw0gp)" height="162.5313" style="stroke: #A80036; stroke-width: 1.0;" width="10" x="243" y="106.4297"/><rect fill="#FFFFFF" filter="url(#f1s8yazmchw0gp)" height="28" style="stroke: #A80036; stroke-width: 1.0;" width="10" x="243" y="297.9609"/><rect fill="#FFFFFF" filter="url(#f1s8yazmchw0gp)" height="76.2656" style="stroke: #000000; stroke-width: 2.0;" width="271.5" x="13" y="185.6953"/><line style="stroke: #A80036; stroke-width: 1.0; stroke-dasharray: 5.0,5.0;" x1="76" x2="76" y1="38.2969" y2="351.0938"/><line style="stroke: #A80036; stroke-width: 1.0; stroke-dasharray: 5.0,5.0;" x1="242.5" x2="242.5" y1="38.2969" y2="351.0938"/><rect fill="#FEFECE" filter="url(#f1s8yazmchw0gp)" height="30.2969" style="stroke: #A80036; stroke-width: 1.5;" width="102" x="23" y="3"/><text fill="#000000" font-family="sans-serif" font-size="14" lengthAdjust="spacingAndGlyphs" textLength="88" x="30" y="22.9951">WebConsole</text><rect fill="#FEFECE" filter="url(#f1s8yazmchw0gp)" height="30.2969" style="stroke: #A80036; stroke-width: 1.5;" width="59" x="211.5" y="3"/><text fill="#000000" font-family="sans-serif" font-size="14" lengthAdjust="spacingAndGlyphs" textLength="45" x="218.5" y="22.9951">Conlet</text><rect fill="#FFFFFF" filter="url(#f1s8yazmchw0gp)" height="21" style="stroke: #A80036; stroke-width: 1.0;" width="10" x="71" y="48.2969"/><rect fill="#FFFFFF" filter="url(#f1s8yazmchw0gp)" height="30" style="stroke: #A80036; stroke-width: 1.0;" width="10" x="71" y="140.5625"/><rect fill="#FFFFFF" filter="url(#f1s8yazmchw0gp)" height="30" style="stroke: #A80036; stroke-width: 1.0;" width="10" x="71" y="223.8281"/><rect fill="#FFFFFF" filter="url(#f1s8yazmchw0gp)" height="256.6641" style="stroke: #A80036; stroke-width: 1.0;" width="10" x="238" y="69.2969"/><rect fill="#FFFFFF" filter="url(#f1s8yazmchw0gp)" height="162.5313" style="stroke: #A80036; stroke-width: 1.0;" width="10" x="243" y="106.4297"/><rect fill="#FFFFFF" filter="url(#f1s8yazmchw0gp)" height="28" style="stroke: #A80036; stroke-width: 1.0;" width="10" x="243" y="297.9609"/><polygon fill="#A80036" points="226,65.2969,236,69.2969,226,73.2969,230,69.2969" style="stroke: #A80036; stroke-width: 1.0;"/><line style="stroke: #A80036; stroke-width: 1.0;" x1="76" x2="232" y1="69.2969" y2="69.2969"/><text fill="#000000" font-family="sans-serif" font-size="13" lengthAdjust="spacingAndGlyphs" textLength="138" x="83" y="64.3638">RenderConletRequest</text><line style="stroke: #A80036; stroke-width: 1.0;" x1="248" x2="295" y1="93.5625" y2="93.5625"/><line style="stroke: #A80036; stroke-width: 1.0;" x1="295" x2="295" y1="93.5625" y2="106.5625"/><line style="stroke: #A80036; stroke-width: 1.0;" x1="254" x2="295" y1="106.5625" y2="106.5625"/><polygon fill="#A80036" points="264,102.5625,254,106.5625,264,110.5625,260,106.5625" style="stroke: #A80036; stroke-width: 1.0;"/><text fill="#000000" font-family="sans-serif" font-size="13" lengthAdjust="spacingAndGlyphs" textLength="102" x="260" y="88.4966">doRenderConlet</text><polygon fill="#A80036" points="92,136.5625,82,140.5625,92,144.5625,88,140.5625" style="stroke: #A80036; stroke-width: 1.0;"/><line style="stroke: #A80036; stroke-width: 1.0;" x1="86" x2="242" y1="140.5625" y2="140.5625"/><text fill="#000000" font-family="sans-serif" font-size="13" lengthAdjust="spacingAndGlyphs" textLength="86" x="98" y="135.6294">RenderConlet</text><rect fill="none" height="76.2656" style="stroke: #000000; stroke-width: 2.0;" width="271.5" x="13" y="185.6953"/><polygon fill="#EEEEEE" points="13,185.6953,83,185.6953,83,192.6953,73,202.6953,13,202.6953,13,185.6953" style="stroke: #000000; stroke-width: 2.0;"/><text fill="#000000" font-family="sans-serif" font-size="13" font-weight="bold" lengthAdjust="spacingAndGlyphs" textLength="25" x="28" y="198.7622">opt</text><polygon fill="#A80036" points="92,219.8281,82,223.8281,92,227.8281,88,223.8281" style="stroke: #A80036; stroke-width: 1.0;"/><line style="stroke: #A80036; stroke-width: 1.0;" x1="86" x2="242" y1="223.8281" y2="223.8281"/><text fill="#000000" font-family="sans-serif" font-size="13" lengthAdjust="spacingAndGlyphs" textLength="107" x="98" y="218.895">NotifyConletView</text><line style="stroke: #A80036; stroke-width: 1.0;" x1="253" x2="295" y1="290.0938" y2="290.0938"/><line style="stroke: #A80036; stroke-width: 1.0;" x1="295" x2="295" y1="290.0938" y2="303.0938"/><line style="stroke: #A80036; stroke-width: 1.0;" x1="254" x2="295" y1="303.0938" y2="303.0938"/><polygon fill="#A80036" points="264,299.0938,254,303.0938,264,307.0938,260,303.0938" style="stroke: #A80036; stroke-width: 1.0;"/><text fill="#000000" font-family="sans-serif" font-size="13" lengthAdjust="spacingAndGlyphs" textLength="143" x="260" y="285.0278">trackConlet.addModes</text><!--
@startuml
hide footbox
 
 activate WebConsole
 WebConsole -> Conlet: RenderConletRequest
 deactivate WebConsole
 activate Conlet
 Conlet -> Conlet: doRenderConlet
 activate Conlet
 Conlet -> WebConsole: RenderConlet 
 activate WebConsole
 deactivate WebConsole
 opt 
     Conlet -> WebConsole: NotifyConletView
 activate WebConsole
 deactivate WebConsole
 end opt 
 deactivate Conlet
 Conlet -> Conlet: trackConlet.addModes
 activate Conlet
 deactivate Conlet
 deactivate Conlet
@enduml

PlantUML version 1.2017.18(Fri Oct 06 16:56:32 UTC 2017)
(GPL source distribution)
Java Runtime: OpenJDK Runtime Environment
JVM: OpenJDK 64-Bit Server VM
Java Version: 11.0.10+9-LTS
Operating System: Linux
OS Version: 5.4.0-1043-azure
Default Encoding: UTF-8
Language: en
Country: 
--></g></svg>