<?xml version="1.0" encoding="us-ascii" standalone="no"?><svg xmlns="http://www.w3.org/2000/svg" xmlns:xlink="http://www.w3.org/1999/xlink" contentStyleType="text/css" height="501px" preserveAspectRatio="none" style="width:400px;height:501px;background:#FFFFFF;" version="1.1" viewBox="0 0 400 501" width="400px" zoomAndPan="magnify"><defs/><g><rect fill="#FFFFFF" height="21.1328" style="stroke:#181818;stroke-width:1.0;" width="10" x="66" y="46.2969"/><rect fill="#FFFFFF" height="30" style="stroke:#181818;stroke-width:1.0;" width="10" x="66" y="314.0938"/><rect fill="#FFFFFF" height="30" style="stroke:#181818;stroke-width:1.0;" width="10" x="66" y="397.3594"/><rect fill="#FFFFFF" height="418.0625" style="stroke:#181818;stroke-width:1.0;" width="10" x="233" y="67.4297"/><rect fill="#FFFFFF" height="28" style="stroke:#181818;stroke-width:1.0;" width="10" x="238" y="104.5625"/><rect fill="#FFFFFF" height="28" style="stroke:#181818;stroke-width:1.0;" width="10" x="238" y="200.8281"/><rect fill="#FFFFFF" height="162.3984" style="stroke:#181818;stroke-width:1.0;" width="10" x="238" y="279.9609"/><rect fill="none" height="89.2656" style="stroke:#000000;stroke-width:1.5;" width="175" x="198.5" y="154.5625"/><rect fill="none" height="76.2656" style="stroke:#000000;stroke-width:1.5;" width="267.5" x="10" y="359.0938"/><line style="stroke:#181818;stroke-width:0.5;stroke-dasharray:5.0,5.0;" x1="71" x2="71" y1="36.2969" y2="494.4922"/><line style="stroke:#181818;stroke-width:0.5;stroke-dasharray:5.0,5.0;" x1="237.5" x2="237.5" y1="36.2969" y2="494.4922"/><rect fill="#E2E2F0" height="30.2969" rx="2.5" ry="2.5" style="stroke:#181818;stroke-width:0.5;" width="102" x="20" y="5"/><text fill="#000000" font-family="sans-serif" font-size="14" lengthAdjust="spacing" textLength="88" x="27" y="24.9951">WebConsole</text><rect fill="#E2E2F0" height="30.2969" rx="2.5" ry="2.5" style="stroke:#181818;stroke-width:0.5;" width="59" x="208.5" y="5"/><text fill="#000000" font-family="sans-serif" font-size="14" lengthAdjust="spacing" textLength="45" x="215.5" y="24.9951">Conlet</text><rect fill="#FFFFFF" height="21.1328" style="stroke:#181818;stroke-width:1.0;" width="10" x="66" y="46.2969"/><rect fill="#FFFFFF" height="30" style="stroke:#181818;stroke-width:1.0;" width="10" x="66" y="314.0938"/><rect fill="#FFFFFF" height="30" style="stroke:#181818;stroke-width:1.0;" width="10" x="66" y="397.3594"/><rect fill="#FFFFFF" height="418.0625" style="stroke:#181818;stroke-width:1.0;" width="10" x="233" y="67.4297"/><rect fill="#FFFFFF" height="28" style="stroke:#181818;stroke-width:1.0;" width="10" x="238" y="104.5625"/><rect fill="#FFFFFF" height="28" style="stroke:#181818;stroke-width:1.0;" width="10" x="238" y="200.8281"/><rect fill="#FFFFFF" height="162.3984" style="stroke:#181818;stroke-width:1.0;" width="10" x="238" y="279.9609"/><polygon fill="#181818" points="221,63.4297,231,67.4297,221,71.4297,225,67.4297" style="stroke:#181818;stroke-width:1.0;"/><line style="stroke:#181818;stroke-width:1.0;" x1="71" x2="227" y1="67.4297" y2="67.4297"/><text fill="#000000" font-family="sans-serif" font-size="13" lengthAdjust="spacing" textLength="138" x="78" y="62.3638">RenderConletRequest</text><line style="stroke:#181818;stroke-width:1.0;" x1="248" x2="290" y1="96.5625" y2="96.5625"/><line style="stroke:#181818;stroke-width:1.0;" x1="290" x2="290" y1="96.5625" y2="109.5625"/><line style="stroke:#181818;stroke-width:1.0;" x1="249" x2="290" y1="109.5625" y2="109.5625"/><polygon fill="#181818" points="259,105.5625,249,109.5625,259,113.5625,255,109.5625" style="stroke:#181818;stroke-width:1.0;"/><text fill="#000000" font-family="sans-serif" font-size="13" lengthAdjust="spacing" textLength="116" x="255" y="91.4966">stateFromSession</text><path d="M198.5,154.5625 L268.5,154.5625 L268.5,161.6953 L258.5,171.6953 L198.5,171.6953 L198.5,154.5625 " fill="#EEEEEE" style="stroke:#000000;stroke-width:1.5;"/><rect fill="none" height="89.2656" style="stroke:#000000;stroke-width:1.5;" width="175" x="198.5" y="154.5625"/><text fill="#000000" font-family="sans-serif" font-size="13" font-weight="bold" lengthAdjust="spacing" textLength="25" x="213.5" y="167.6294">opt</text><text fill="#000000" font-family="sans-serif" font-size="11" font-weight="bold" lengthAdjust="spacing" textLength="85" x="283.5" y="166.7729">[if not found]</text><line style="stroke:#181818;stroke-width:1.0;" x1="248" x2="290" y1="192.8281" y2="192.8281"/><line style="stroke:#181818;stroke-width:1.0;" x1="290" x2="290" y1="192.8281" y2="205.8281"/><line style="stroke:#181818;stroke-width:1.0;" x1="249" x2="290" y1="205.8281" y2="205.8281"/><polygon fill="#181818" points="259,201.8281,249,205.8281,259,209.8281,255,205.8281" style="stroke:#181818;stroke-width:1.0;"/><text fill="#000000" font-family="sans-serif" font-size="13" lengthAdjust="spacing" textLength="89" x="255" y="187.7622">recreateState</text><line style="stroke:#181818;stroke-width:1.0;" x1="243" x2="290" y1="266.9609" y2="266.9609"/><line style="stroke:#181818;stroke-width:1.0;" x1="290" x2="290" y1="266.9609" y2="279.9609"/><line style="stroke:#181818;stroke-width:1.0;" x1="249" x2="290" y1="279.9609" y2="279.9609"/><polygon fill="#181818" points="259,275.9609,249,279.9609,259,283.9609,255,279.9609" style="stroke:#181818;stroke-width:1.0;"/><text fill="#000000" font-family="sans-serif" font-size="13" lengthAdjust="spacing" textLength="102" x="255" y="261.895">doRenderConlet</text><polygon fill="#181818" points="87,310.0938,77,314.0938,87,318.0938,83,314.0938" style="stroke:#181818;stroke-width:1.0;"/><line style="stroke:#181818;stroke-width:1.0;" x1="81" x2="237" y1="314.0938" y2="314.0938"/><text fill="#000000" font-family="sans-serif" font-size="13" lengthAdjust="spacing" textLength="86" x="93" y="309.0278">RenderConlet</text><path d="M10,359.0938 L80,359.0938 L80,366.2266 L70,376.2266 L10,376.2266 L10,359.0938 " fill="#EEEEEE" style="stroke:#000000;stroke-width:1.5;"/><rect fill="none" height="76.2656" style="stroke:#000000;stroke-width:1.5;" width="267.5" x="10" y="359.0938"/><text fill="#000000" font-family="sans-serif" font-size="13" font-weight="bold" lengthAdjust="spacing" textLength="25" x="25" y="372.1606">opt</text><polygon fill="#181818" points="87,393.3594,77,397.3594,87,401.3594,83,397.3594" style="stroke:#181818;stroke-width:1.0;"/><line style="stroke:#181818;stroke-width:1.0;" x1="81" x2="237" y1="397.3594" y2="397.3594"/><text fill="#000000" font-family="sans-serif" font-size="13" lengthAdjust="spacing" textLength="107" x="93" y="392.2935">NotifyConletView</text><line style="stroke:#181818;stroke-width:1.0;" x1="243" x2="285" y1="463.4922" y2="463.4922"/><line style="stroke:#181818;stroke-width:1.0;" x1="285" x2="285" y1="463.4922" y2="476.4922"/><line style="stroke:#181818;stroke-width:1.0;" x1="244" x2="285" y1="476.4922" y2="476.4922"/><polygon fill="#181818" points="254,472.4922,244,476.4922,254,480.4922,250,476.4922" style="stroke:#181818;stroke-width:1.0;"/><text fill="#000000" font-family="sans-serif" font-size="13" lengthAdjust="spacing" textLength="143" x="250" y="458.4263">update conlet tracking</text><!--SRC=[bP1D3i8W48Ntd68ku0LSk35nwQ9DTDt2L8cLgJ2jUdiXL4LBJPmDC3_VyDvHAuI6Y6kw2H1GITP3nGXxhDTa7BKeaZiiLk2lBV8I2ZGARNmLUEdHiG25MS8h6Tl5UAOunxw-iNGkqJbD9ZEKm9yfwXXq0uROg-YD4X1YIhSeBVh1Cco9JHDMYCmABpEioVrPKMh2JvblDpwTc_DyniYWzrjZYjuIw-OUQpkDr__eerJ8MZsLttSgDCXOO5l9apQ71m00]--></g></svg>