<?xml version="1.0" encoding="UTF-8" standalone="no"?><svg xmlns="http://www.w3.org/2000/svg" xmlns:xlink="http://www.w3.org/1999/xlink" contentScriptType="application/ecmascript" contentStyleType="text/css" height="505px" preserveAspectRatio="none" style="width:402px;height:505px;background:#FFFFFF;" version="1.1" viewBox="0 0 402 505" width="402px" zoomAndPan="magnify"><defs><filter height="300%" id="fs1xn2zlkug0" width="300%" x="-1" y="-1"><feGaussianBlur result="blurOut" stdDeviation="2.0"/><feColorMatrix in="blurOut" result="blurOut2" type="matrix" values="0 0 0 0 0 0 0 0 0 0 0 0 0 0 0 0 0 0 .4 0"/><feOffset dx="4.0" dy="4.0" in="blurOut2" result="blurOut3"/><feBlend in="SourceGraphic" in2="blurOut3" mode="normal"/></filter></defs><g><rect fill="#FFFFFF" filter="url(#fs1xn2zlkug0)" height="21.1328" style="stroke:#A80036;stroke-width:1.0;" width="10" x="68" y="50.2969"/><rect fill="#FFFFFF" filter="url(#fs1xn2zlkug0)" height="30" style="stroke:#A80036;stroke-width:1.0;" width="10" x="68" y="318.0938"/><rect fill="#FFFFFF" filter="url(#fs1xn2zlkug0)" height="30" style="stroke:#A80036;stroke-width:1.0;" width="10" x="68" y="401.3594"/><rect fill="#FFFFFF" filter="url(#fs1xn2zlkug0)" height="418.0625" style="stroke:#A80036;stroke-width:1.0;" width="10" x="235" y="71.4297"/><rect fill="#FFFFFF" filter="url(#fs1xn2zlkug0)" height="28" style="stroke:#A80036;stroke-width:1.0;" width="10" x="240" y="108.5625"/><rect fill="#FFFFFF" filter="url(#fs1xn2zlkug0)" height="28" style="stroke:#A80036;stroke-width:1.0;" width="10" x="240" y="204.8281"/><rect fill="#FFFFFF" filter="url(#fs1xn2zlkug0)" height="162.3984" style="stroke:#A80036;stroke-width:1.0;" width="10" x="240" y="283.9609"/><rect fill="#FFFFFF" filter="url(#fs1xn2zlkug0)" height="89.2656" style="stroke:#000000;stroke-width:2.0;" width="175" x="198.5" y="158.5625"/><rect fill="#FFFFFF" filter="url(#fs1xn2zlkug0)" height="76.2656" style="stroke:#000000;stroke-width:2.0;" width="271.5" x="10" y="363.0938"/><line style="stroke:#A80036;stroke-width:1.0;stroke-dasharray:5.0,5.0;" x1="73" x2="73" y1="40.2969" y2="498.4922"/><line style="stroke:#A80036;stroke-width:1.0;stroke-dasharray:5.0,5.0;" x1="239.5" x2="239.5" y1="40.2969" y2="498.4922"/><rect fill="#FEFECE" filter="url(#fs1xn2zlkug0)" height="30.2969" style="stroke:#A80036;stroke-width:1.5;" width="102" x="20" y="5"/><text fill="#000000" font-family="sans-serif" font-size="14" lengthAdjust="spacing" textLength="88" x="27" y="24.9951">WebConsole</text><rect fill="#FEFECE" filter="url(#fs1xn2zlkug0)" height="30.2969" style="stroke:#A80036;stroke-width:1.5;" width="59" x="208.5" y="5"/><text fill="#000000" font-family="sans-serif" font-size="14" lengthAdjust="spacing" textLength="45" x="215.5" y="24.9951">Conlet</text><rect fill="#FFFFFF" filter="url(#fs1xn2zlkug0)" height="21.1328" style="stroke:#A80036;stroke-width:1.0;" width="10" x="68" y="50.2969"/><rect fill="#FFFFFF" filter="url(#fs1xn2zlkug0)" height="30" style="stroke:#A80036;stroke-width:1.0;" width="10" x="68" y="318.0938"/><rect fill="#FFFFFF" filter="url(#fs1xn2zlkug0)" height="30" style="stroke:#A80036;stroke-width:1.0;" width="10" x="68" y="401.3594"/><rect fill="#FFFFFF" filter="url(#fs1xn2zlkug0)" height="418.0625" style="stroke:#A80036;stroke-width:1.0;" width="10" x="235" y="71.4297"/><rect fill="#FFFFFF" filter="url(#fs1xn2zlkug0)" height="28" style="stroke:#A80036;stroke-width:1.0;" width="10" x="240" y="108.5625"/><rect fill="#FFFFFF" filter="url(#fs1xn2zlkug0)" height="28" style="stroke:#A80036;stroke-width:1.0;" width="10" x="240" y="204.8281"/><rect fill="#FFFFFF" filter="url(#fs1xn2zlkug0)" height="162.3984" style="stroke:#A80036;stroke-width:1.0;" width="10" x="240" y="283.9609"/><polygon fill="#A80036" points="223,67.4297,233,71.4297,223,75.4297,227,71.4297" style="stroke:#A80036;stroke-width:1.0;"/><line style="stroke:#A80036;stroke-width:1.0;" x1="73" x2="229" y1="71.4297" y2="71.4297"/><text fill="#000000" font-family="sans-serif" font-size="13" lengthAdjust="spacing" textLength="138" x="80" y="66.3638">RenderConletRequest</text><line style="stroke:#A80036;stroke-width:1.0;" x1="250" x2="292" y1="100.5625" y2="100.5625"/><line style="stroke:#A80036;stroke-width:1.0;" x1="292" x2="292" y1="100.5625" y2="113.5625"/><line style="stroke:#A80036;stroke-width:1.0;" x1="251" x2="292" y1="113.5625" y2="113.5625"/><polygon fill="#A80036" points="261,109.5625,251,113.5625,261,117.5625,257,113.5625" style="stroke:#A80036;stroke-width:1.0;"/><text fill="#000000" font-family="sans-serif" font-size="13" lengthAdjust="spacing" textLength="116" x="257" y="95.4966">stateFromSession</text><path d="M198.5,158.5625 L268.5,158.5625 L268.5,165.5625 L258.5,175.5625 L198.5,175.5625 L198.5,158.5625 " fill="#EEEEEE" style="stroke:#000000;stroke-width:1.0;"/><rect fill="none" height="89.2656" style="stroke:#000000;stroke-width:2.0;" width="175" x="198.5" y="158.5625"/><text fill="#000000" font-family="sans-serif" font-size="13" font-weight="bold" lengthAdjust="spacing" textLength="25" x="213.5" y="171.6294">opt</text><text fill="#000000" font-family="sans-serif" font-size="11" font-weight="bold" lengthAdjust="spacing" textLength="85" x="283.5" y="170.7729">[if not found]</text><line style="stroke:#A80036;stroke-width:1.0;" x1="250" x2="292" y1="196.8281" y2="196.8281"/><line style="stroke:#A80036;stroke-width:1.0;" x1="292" x2="292" y1="196.8281" y2="209.8281"/><line style="stroke:#A80036;stroke-width:1.0;" x1="251" x2="292" y1="209.8281" y2="209.8281"/><polygon fill="#A80036" points="261,205.8281,251,209.8281,261,213.8281,257,209.8281" style="stroke:#A80036;stroke-width:1.0;"/><text fill="#000000" font-family="sans-serif" font-size="13" lengthAdjust="spacing" textLength="89" x="257" y="191.7622">recreateState</text><line style="stroke:#A80036;stroke-width:1.0;" x1="245" x2="292" y1="270.9609" y2="270.9609"/><line style="stroke:#A80036;stroke-width:1.0;" x1="292" x2="292" y1="270.9609" y2="283.9609"/><line style="stroke:#A80036;stroke-width:1.0;" x1="251" x2="292" y1="283.9609" y2="283.9609"/><polygon fill="#A80036" points="261,279.9609,251,283.9609,261,287.9609,257,283.9609" style="stroke:#A80036;stroke-width:1.0;"/><text fill="#000000" font-family="sans-serif" font-size="13" lengthAdjust="spacing" textLength="102" x="257" y="265.895">doRenderConlet</text><polygon fill="#A80036" points="89,314.0938,79,318.0938,89,322.0938,85,318.0938" style="stroke:#A80036;stroke-width:1.0;"/><line style="stroke:#A80036;stroke-width:1.0;" x1="83" x2="239" y1="318.0938" y2="318.0938"/><text fill="#000000" font-family="sans-serif" font-size="13" lengthAdjust="spacing" textLength="86" x="95" y="313.0278">RenderConlet</text><path d="M10,363.0938 L80,363.0938 L80,370.0938 L70,380.0938 L10,380.0938 L10,363.0938 " fill="#EEEEEE" style="stroke:#000000;stroke-width:1.0;"/><rect fill="none" height="76.2656" style="stroke:#000000;stroke-width:2.0;" width="271.5" x="10" y="363.0938"/><text fill="#000000" font-family="sans-serif" font-size="13" font-weight="bold" lengthAdjust="spacing" textLength="25" x="25" y="376.1606">opt</text><polygon fill="#A80036" points="89,397.3594,79,401.3594,89,405.3594,85,401.3594" style="stroke:#A80036;stroke-width:1.0;"/><line style="stroke:#A80036;stroke-width:1.0;" x1="83" x2="239" y1="401.3594" y2="401.3594"/><text fill="#000000" font-family="sans-serif" font-size="13" lengthAdjust="spacing" textLength="107" x="95" y="396.2935">NotifyConletView</text><line style="stroke:#A80036;stroke-width:1.0;" x1="245" x2="287" y1="467.4922" y2="467.4922"/><line style="stroke:#A80036;stroke-width:1.0;" x1="287" x2="287" y1="467.4922" y2="480.4922"/><line style="stroke:#A80036;stroke-width:1.0;" x1="246" x2="287" y1="480.4922" y2="480.4922"/><polygon fill="#A80036" points="256,476.4922,246,480.4922,256,484.4922,252,480.4922" style="stroke:#A80036;stroke-width:1.0;"/><text fill="#000000" font-family="sans-serif" font-size="13" lengthAdjust="spacing" textLength="143" x="252" y="462.4263">update conlet tracking</text><!--MD5=[30299a82cb6e4ab7205cb3c59c6455d3]
@startuml
hide footbox
 
 activate WebConsole
 WebConsole -> Conlet: RenderConletRequest
 deactivate WebConsole
 activate Conlet
 Conlet -> Conlet: stateFromSession
 activate Conlet
 deactivate Conlet
 opt if not found
     Conlet -> Conlet: recreateState
     activate Conlet
     deactivate Conlet
 end opt
 Conlet -> Conlet: doRenderConlet
 activate Conlet
 Conlet -> WebConsole: RenderConlet 
 activate WebConsole
 deactivate WebConsole
 opt 
     Conlet -> WebConsole: NotifyConletView
 activate WebConsole
 deactivate WebConsole
 end opt 
 deactivate Conlet
 Conlet -> Conlet: update conlet tracking
@enduml

PlantUML version 1.2022.1(Tue Feb 01 19:19:58 CET 2022)
(GPL source distribution)
Java Runtime: OpenJDK Runtime Environment
JVM: OpenJDK 64-Bit Server VM
Default Encoding: UTF-8
Language: de
Country: DE
--></g></svg>