<?xml version="1.0" encoding="us-ascii" standalone="no"?><svg xmlns="http://www.w3.org/2000/svg" xmlns:xlink="http://www.w3.org/1999/xlink" contentStyleType="text/css" height="604px" preserveAspectRatio="none" style="width:400px;height:604px;background:#FFFFFF;" version="1.1" viewBox="0 0 400 604" width="400px" zoomAndPan="magnify"><defs/><g><rect fill="#FFFFFF" height="21.1328" style="stroke:#181818;stroke-width:1.0;" width="10" x="66" y="46.2969"/><rect fill="#FFFFFF" height="30" style="stroke:#181818;stroke-width:1.0;" width="10" x="66" y="417.3594"/><rect fill="#FFFFFF" height="30" style="stroke:#181818;stroke-width:1.0;" width="10" x="66" y="500.625"/><rect fill="#FFFFFF" height="521.3281" style="stroke:#181818;stroke-width:1.0;" width="10" x="233" y="67.4297"/><rect fill="#FFFFFF" height="28" style="stroke:#181818;stroke-width:1.0;" width="10" x="238" y="104.5625"/><rect fill="#FFFFFF" height="28" style="stroke:#181818;stroke-width:1.0;" width="10" x="238" y="200.8281"/><rect fill="#FFFFFF" height="28" style="stroke:#181818;stroke-width:1.0;" width="10" x="238" y="297.0938"/><rect fill="#FFFFFF" height="162.3984" style="stroke:#181818;stroke-width:1.0;" width="10" x="238" y="383.2266"/><rect fill="none" height="192.5313" style="stroke:#000000;stroke-width:1.5;" width="175" x="188.5" y="154.5625"/><rect fill="none" height="89.2656" style="stroke:#000000;stroke-width:1.5;" width="150.5" x="198.5" y="250.8281"/><rect fill="none" height="76.2656" style="stroke:#000000;stroke-width:1.5;" width="267.5" x="10" y="462.3594"/><line style="stroke:#181818;stroke-width:0.5;stroke-dasharray:5.0,5.0;" x1="71" x2="71" y1="36.2969" y2="597.7578"/><line style="stroke:#181818;stroke-width:0.5;stroke-dasharray:5.0,5.0;" x1="237.5" x2="237.5" y1="36.2969" y2="597.7578"/><rect fill="#E2E2F0" height="30.2969" rx="2.5" ry="2.5" style="stroke:#181818;stroke-width:0.5;" width="102" x="20" y="5"/><text fill="#000000" font-family="sans-serif" font-size="14" lengthAdjust="spacing" textLength="88" x="27" y="24.9951">WebConsole</text><rect fill="#E2E2F0" height="30.2969" rx="2.5" ry="2.5" style="stroke:#181818;stroke-width:0.5;" width="59" x="208.5" y="5"/><text fill="#000000" font-family="sans-serif" font-size="14" lengthAdjust="spacing" textLength="45" x="215.5" y="24.9951">Conlet</text><rect fill="#FFFFFF" height="21.1328" style="stroke:#181818;stroke-width:1.0;" width="10" x="66" y="46.2969"/><rect fill="#FFFFFF" height="30" style="stroke:#181818;stroke-width:1.0;" width="10" x="66" y="417.3594"/><rect fill="#FFFFFF" height="30" style="stroke:#181818;stroke-width:1.0;" width="10" x="66" y="500.625"/><rect fill="#FFFFFF" height="521.3281" style="stroke:#181818;stroke-width:1.0;" width="10" x="233" y="67.4297"/><rect fill="#FFFFFF" height="28" style="stroke:#181818;stroke-width:1.0;" width="10" x="238" y="104.5625"/><rect fill="#FFFFFF" height="28" style="stroke:#181818;stroke-width:1.0;" width="10" x="238" y="200.8281"/><rect fill="#FFFFFF" height="28" style="stroke:#181818;stroke-width:1.0;" width="10" x="238" y="297.0938"/><rect fill="#FFFFFF" height="162.3984" style="stroke:#181818;stroke-width:1.0;" width="10" x="238" y="383.2266"/><polygon fill="#181818" points="221,63.4297,231,67.4297,221,71.4297,225,67.4297" style="stroke:#181818;stroke-width:1.0;"/><line style="stroke:#181818;stroke-width:1.0;" x1="71" x2="227" y1="67.4297" y2="67.4297"/><text fill="#000000" font-family="sans-serif" font-size="13" lengthAdjust="spacing" textLength="138" x="78" y="62.3638">RenderConletRequest</text><line style="stroke:#181818;stroke-width:1.0;" x1="248" x2="290" y1="96.5625" y2="96.5625"/><line style="stroke:#181818;stroke-width:1.0;" x1="290" x2="290" y1="96.5625" y2="109.5625"/><line style="stroke:#181818;stroke-width:1.0;" x1="249" x2="290" y1="109.5625" y2="109.5625"/><polygon fill="#181818" points="259,105.5625,249,109.5625,259,113.5625,255,109.5625" style="stroke:#181818;stroke-width:1.0;"/><text fill="#000000" font-family="sans-serif" font-size="13" lengthAdjust="spacing" textLength="116" x="255" y="91.4966">stateFromSession</text><path d="M188.5,154.5625 L258.5,154.5625 L258.5,161.6953 L248.5,171.6953 L188.5,171.6953 L188.5,154.5625 " fill="#EEEEEE" style="stroke:#000000;stroke-width:1.5;"/><rect fill="none" height="192.5313" style="stroke:#000000;stroke-width:1.5;" width="175" x="188.5" y="154.5625"/><text fill="#000000" font-family="sans-serif" font-size="13" font-weight="bold" lengthAdjust="spacing" textLength="25" x="203.5" y="167.6294">opt</text><text fill="#000000" font-family="sans-serif" font-size="11" font-weight="bold" lengthAdjust="spacing" textLength="85" x="273.5" y="166.7729">[if not found]</text><line style="stroke:#181818;stroke-width:1.0;" x1="248" x2="290" y1="192.8281" y2="192.8281"/><line style="stroke:#181818;stroke-width:1.0;" x1="290" x2="290" y1="192.8281" y2="205.8281"/><line style="stroke:#181818;stroke-width:1.0;" x1="249" x2="290" y1="205.8281" y2="205.8281"/><polygon fill="#181818" points="259,201.8281,249,205.8281,259,209.8281,255,205.8281" style="stroke:#181818;stroke-width:1.0;"/><text fill="#000000" font-family="sans-serif" font-size="13" lengthAdjust="spacing" textLength="89" x="255" y="187.7622">recreateState</text><path d="M198.5,250.8281 L268.5,250.8281 L268.5,257.9609 L258.5,267.9609 L198.5,267.9609 L198.5,250.8281 " fill="#EEEEEE" style="stroke:#000000;stroke-width:1.5;"/><rect fill="none" height="89.2656" style="stroke:#000000;stroke-width:1.5;" width="150.5" x="198.5" y="250.8281"/><text fill="#000000" font-family="sans-serif" font-size="13" font-weight="bold" lengthAdjust="spacing" textLength="25" x="213.5" y="263.895">opt</text><text fill="#000000" font-family="sans-serif" font-size="11" font-weight="bold" lengthAdjust="spacing" textLength="56" x="283.5" y="263.0386">[if state]</text><line style="stroke:#181818;stroke-width:1.0;" x1="248" x2="290" y1="289.0938" y2="289.0938"/><line style="stroke:#181818;stroke-width:1.0;" x1="290" x2="290" y1="289.0938" y2="302.0938"/><line style="stroke:#181818;stroke-width:1.0;" x1="249" x2="290" y1="302.0938" y2="302.0938"/><polygon fill="#181818" points="259,298.0938,249,302.0938,259,306.0938,255,302.0938" style="stroke:#181818;stroke-width:1.0;"/><text fill="#000000" font-family="sans-serif" font-size="13" lengthAdjust="spacing" textLength="82" x="255" y="284.0278">putInSession</text><line style="stroke:#181818;stroke-width:1.0;" x1="243" x2="290" y1="370.2266" y2="370.2266"/><line style="stroke:#181818;stroke-width:1.0;" x1="290" x2="290" y1="370.2266" y2="383.2266"/><line style="stroke:#181818;stroke-width:1.0;" x1="249" x2="290" y1="383.2266" y2="383.2266"/><polygon fill="#181818" points="259,379.2266,249,383.2266,259,387.2266,255,383.2266" style="stroke:#181818;stroke-width:1.0;"/><text fill="#000000" font-family="sans-serif" font-size="13" lengthAdjust="spacing" textLength="102" x="255" y="365.1606">doRenderConlet</text><polygon fill="#181818" points="87,413.3594,77,417.3594,87,421.3594,83,417.3594" style="stroke:#181818;stroke-width:1.0;"/><line style="stroke:#181818;stroke-width:1.0;" x1="81" x2="237" y1="417.3594" y2="417.3594"/><text fill="#000000" font-family="sans-serif" font-size="13" lengthAdjust="spacing" textLength="86" x="93" y="412.2935">RenderConlet</text><path d="M10,462.3594 L80,462.3594 L80,469.4922 L70,479.4922 L10,479.4922 L10,462.3594 " fill="#EEEEEE" style="stroke:#000000;stroke-width:1.5;"/><rect fill="none" height="76.2656" style="stroke:#000000;stroke-width:1.5;" width="267.5" x="10" y="462.3594"/><text fill="#000000" font-family="sans-serif" font-size="13" font-weight="bold" lengthAdjust="spacing" textLength="25" x="25" y="475.4263">opt</text><polygon fill="#181818" points="87,496.625,77,500.625,87,504.625,83,500.625" style="stroke:#181818;stroke-width:1.0;"/><line style="stroke:#181818;stroke-width:1.0;" x1="81" x2="237" y1="500.625" y2="500.625"/><text fill="#000000" font-family="sans-serif" font-size="13" lengthAdjust="spacing" textLength="107" x="93" y="495.5591">NotifyConletView</text><line style="stroke:#181818;stroke-width:1.0;" x1="243" x2="285" y1="566.7578" y2="566.7578"/><line style="stroke:#181818;stroke-width:1.0;" x1="285" x2="285" y1="566.7578" y2="579.7578"/><line style="stroke:#181818;stroke-width:1.0;" x1="244" x2="285" y1="579.7578" y2="579.7578"/><polygon fill="#181818" points="254,575.7578,244,579.7578,254,583.7578,250,579.7578" style="stroke:#181818;stroke-width:1.0;"/><text fill="#000000" font-family="sans-serif" font-size="13" lengthAdjust="spacing" textLength="143" x="250" y="561.6919">update conlet tracking</text><!--SRC=[bL593i8m3Bpd5Vu07-301Gc92uTMWdDfN8WeSKbSbj-JA5q2JP7m9OwN6Ndch2H2HSH7UWeGK9IixWKZ7F2u9csfHX7bi5Y1Isla9MIe9Phmo_3MecK14fC8Gp6CY-wDuIox_iRGDKTh5Ud4KWJUbwXXK1LeOdT5gwK07rDqWwL1jvXxbZ0qmVAHeF3HqTXnEqtJjBpLmm5z925_i3bXFQCOaocJf5Z_dmgFHdoQDcVtZ8TUWszvO-WTiQfUeRTN-FWFlJiLaYvFpsyRwGVAq61Jb1UbJsy0]--></g></svg>