<?xml version="1.0" encoding="UTF-8" standalone="no"?><svg xmlns="http://www.w3.org/2000/svg" xmlns:xlink="http://www.w3.org/1999/xlink" contentScriptType="application/ecmascript" contentStyleType="text/css" height="342px" preserveAspectRatio="none" style="width:294px;height:342px;" version="1.1" viewBox="0 0 294 342" width="294px" zoomAndPan="magnify"><defs><filter height="300%" id="fheam54zhmv6v" width="300%" x="-1" y="-1"><feGaussianBlur result="blurOut" stdDeviation="2.0"/><feColorMatrix in="blurOut" result="blurOut2" type="matrix" values="0 0 0 0 0 0 0 0 0 0 0 0 0 0 0 0 0 0 .4 0"/><feOffset dx="4.0" dy="4.0" in="blurOut2" result="blurOut3"/><feBlend in="SourceGraphic" in2="blurOut3" mode="normal"/></filter></defs><g><!--cluster org.jgrapes--><polygon fill="#FFFFFF" filter="url(#fheam54zhmv6v)" points="14,16,111,16,118,38.2969,272,38.2969,272,330,14,330,14,16" style="stroke: #000000; stroke-width: 2.0;"/><line style="stroke: #000000; stroke-width: 2.0;" x1="14" x2="118" y1="38.2969" y2="38.2969"/><text fill="#000000" font-family="sans-serif" font-size="14" font-weight="bold" lengthAdjust="spacingAndGlyphs" textLength="91" x="18" y="30.9951">org.jgrapes</text><polygon fill="#FFFFFF" filter="url(#fheam54zhmv6v)" points="62,43,210,43,217,65.2969,224,65.2969,224,95.5938,62,95.5938,62,43" style="stroke: #000000; stroke-width: 2.0;"/><line style="stroke: #000000; stroke-width: 2.0;" x1="62" x2="217" y1="65.2969" y2="65.2969"/><text fill="#000000" font-family="sans-serif" font-size="14" font-weight="bold" lengthAdjust="spacingAndGlyphs" textLength="142" x="66" y="57.9951">Core Components</text><a target="_parent" xlink:actuate="onRequest" xlink:href="org/jgrapes/portal/package-summary.html#package.description" xlink:show="new" xlink:title="org/jgrapes/portal/package-summary.html#package.description" xlink:type="simple"><polygon fill="#FFFFFF" filter="url(#fheam54zhmv6v)" points="61,156,211,156,218,178.2969,225,178.2969,225,208.5938,61,208.5938,61,156" style="stroke: #000000; stroke-width: 2.0;"/><line style="stroke: #000000; stroke-width: 2.0;" x1="61" x2="218" y1="178.2969" y2="178.2969"/><text fill="#000000" font-family="sans-serif" font-size="14" font-weight="bold" lengthAdjust="spacingAndGlyphs" textLength="144" x="65" y="170.9951">org.jgrapes.portal</text></a><polygon fill="#FFFFFF" filter="url(#fheam54zhmv6v)" points="22.5,269,249.5,269,256.5,291.2969,263.5,291.2969,263.5,321.5938,22.5,321.5938,22.5,269" style="stroke: #000000; stroke-width: 2.0;"/><line style="stroke: #000000; stroke-width: 2.0;" x1="22.5" x2="256.5" y1="291.2969" y2="291.2969"/><text fill="#000000" font-family="sans-serif" font-size="14" font-weight="bold" lengthAdjust="spacingAndGlyphs" textLength="221" x="26.5" y="283.9951">org.jgrapes.portal.themes.*</text><!--link Core Components to org.jgrapes.portal--><path d="M143,101.4849 C143,118.6766 143,139.6249 143,155.9128 " fill="none" id="Core Components-org.jgrapes.portal" style="stroke: #A80036; stroke-width: 1.0; stroke-dasharray: 7.0,7.0;"/><polygon fill="#A80036" points="143,96.2794,139,105.2794,143,101.2794,147,105.2794,143,96.2794" style="stroke: #A80036; stroke-width: 1.0;"/><!--link org.jgrapes.portal to org.jgrapes.portal.themes.*--><path d="M143,214.4849 C143,231.6766 143,252.6249 143,268.9128 " fill="none" id="org.jgrapes.portal-org.jgrapes.portal.themes.*" style="stroke: #A80036; stroke-width: 1.0; stroke-dasharray: 7.0,7.0;"/><polygon fill="#A80036" points="143,209.2794,139,218.2794,143,214.2794,147,218.2794,143,209.2794" style="stroke: #A80036; stroke-width: 1.0;"/><!--
@startuml
skinparam svgLinkTarget _parent

package org.jgrapes {
    package "Core Components" {
    }

    package org.jgrapes.portal [[org/jgrapes/portal/package-summary.html#package.description]] {
    }

    package "org.jgrapes.portal.themes.*" {
    }
}

"Core Components" <.. org.jgrapes.portal
org.jgrapes.portal <.. "org.jgrapes.portal.themes.*"
@enduml

PlantUML version 1.2017.18(Fri Oct 06 18:56:32 CEST 2017)
(GPL source distribution)
Java Runtime: OpenJDK Runtime Environment
JVM: OpenJDK 64-Bit Server VM
Java Version: 1.8.0_171-b10
Operating System: Linux
OS Version: 4.16.4-200.fc27.x86_64
Default Encoding: UTF-8
Language: de
Country: DE
--></g></svg>