<?xml version="1.0" encoding="UTF-8" standalone="no"?><svg xmlns="http://www.w3.org/2000/svg" xmlns:xlink="http://www.w3.org/1999/xlink" contentScriptType="application/ecmascript" contentStyleType="text/css" height="370px" preserveAspectRatio="none" style="width:312px;height:370px;" version="1.1" viewBox="0 0 312 370" width="312px" zoomAndPan="magnify"><defs><filter height="300%" id="fheam54zhmv6v" width="300%" x="-1" y="-1"><feGaussianBlur result="blurOut" stdDeviation="2.0"/><feColorMatrix in="blurOut" result="blurOut2" type="matrix" values="0 0 0 0 0 0 0 0 0 0 0 0 0 0 0 0 0 0 .4 0"/><feOffset dx="4.0" dy="4.0" in="blurOut2" result="blurOut3"/><feBlend in="SourceGraphic" in2="blurOut3" mode="normal"/></filter></defs><g><!--cluster org.jgrapes--><polygon fill="#FFFFFF" filter="url(#fheam54zhmv6v)" points="22,24,118,24,125,46.29,290,46.29,290,358,22,358,22,24" style="stroke: #000000; stroke-width: 2.0;"/><line style="stroke: #000000; stroke-width: 2.0;" x1="22" x2="125" y1="46.29" y2="46.29"/><text fill="#000000" font-family="sans-serif" font-size="14" font-weight="bold" lengthAdjust="spacingAndGlyphs" textLength="90" x="26" y="39.3027">org.jgrapes</text><polygon fill="#FFFFFF" filter="url(#fheam54zhmv6v)" points="76,60.5,222,60.5,229,82.79,236,82.79,236,113.0801,76,113.0801,76,60.5" style="stroke: #000000; stroke-width: 2.0;"/><line style="stroke: #000000; stroke-width: 2.0;" x1="76" x2="229" y1="82.79" y2="82.79"/><text fill="#000000" font-family="sans-serif" font-size="14" font-weight="bold" lengthAdjust="spacingAndGlyphs" textLength="140" x="80" y="75.8027">Core Components</text><a target="_parent" xlink:actuate="onRequest" xlink:href="org/jgrapes/portal/package-summary.html#package.description" xlink:show="new" xlink:title="org/jgrapes/portal/package-summary.html#package.description" xlink:type="simple"><polygon fill="#FFFFFF" filter="url(#fheam54zhmv6v)" points="75,174.5,223,174.5,230,196.79,237,196.79,237,227.0801,75,227.0801,75,174.5" style="stroke: #000000; stroke-width: 2.0;"/><line style="stroke: #000000; stroke-width: 2.0;" x1="75" x2="230" y1="196.79" y2="196.79"/><text fill="#000000" font-family="sans-serif" font-size="14" font-weight="bold" lengthAdjust="spacingAndGlyphs" textLength="142" x="79" y="189.8027">org.jgrapes.portal</text></a><polygon fill="#FFFFFF" filter="url(#fheam54zhmv6v)" points="38,288.5,260,288.5,267,310.79,274,310.79,274,341.0801,38,341.0801,38,288.5" style="stroke: #000000; stroke-width: 2.0;"/><line style="stroke: #000000; stroke-width: 2.0;" x1="38" x2="267" y1="310.79" y2="310.79"/><text fill="#000000" font-family="sans-serif" font-size="14" font-weight="bold" lengthAdjust="spacingAndGlyphs" textLength="216" x="42" y="303.8027">org.jgrapes.portal.themes.*</text><!--link Core Components to org.jgrapes.portal--><path d="M156,118.969 C156,136.416 156,157.944 156,174.425 " fill="none" id="Core Components-org.jgrapes.portal" style="stroke: #A80036; stroke-width: 1.0; stroke-dasharray: 7.0,7.0;"/><polygon fill="#A80036" points="156,113.695,152,122.695,156,118.695,160,122.695,156,113.695" style="stroke: #A80036; stroke-width: 1.0;"/><!--link org.jgrapes.portal to org.jgrapes.portal.themes.*--><path d="M156,232.969 C156,250.416 156,271.944 156,288.4245 " fill="none" id="org.jgrapes.portal-org.jgrapes.portal.themes.*" style="stroke: #A80036; stroke-width: 1.0; stroke-dasharray: 7.0,7.0;"/><polygon fill="#A80036" points="156,227.695,152,236.695,156,232.695,160,236.695,156,227.695" style="stroke: #A80036; stroke-width: 1.0;"/><!--
@startuml
skinparam svgLinkTarget _parent

package org.jgrapes {
    package "Core Components" {
    }

    package org.jgrapes.portal [[org/jgrapes/portal/package-summary.html#package.description]] {
    }

    package "org.jgrapes.portal.themes.*" {
    }
}

"Core Components" <.. org.jgrapes.portal
org.jgrapes.portal <.. "org.jgrapes.portal.themes.*"
@enduml

PlantUML version 1.2017.18(Fri Oct 06 16:56:32 UTC 2017)
(GPL source distribution)
Java Runtime: Java(TM) SE Runtime Environment
JVM: Java HotSpot(TM) 64-Bit Server VM
Java Version: 9.0.1+11
Operating System: Linux
OS Version: 4.14.12-041412-generic
Default Encoding: UTF-8
Language: en
Country: US
--></g></svg>