<?xml version="1.0" encoding="UTF-8" standalone="no"?><svg xmlns="http://www.w3.org/2000/svg" xmlns:xlink="http://www.w3.org/1999/xlink" contentScriptType="application/ecmascript" contentStyleType="text/css" height="455px" preserveAspectRatio="none" style="width:573px;height:455px;" version="1.1" viewBox="0 0 573 455" width="573px" zoomAndPan="magnify"><defs><filter height="300%" id="fiea6ywut53ht" width="300%" x="-1" y="-1"><feGaussianBlur result="blurOut" stdDeviation="2.0"/><feColorMatrix in="blurOut" result="blurOut2" type="matrix" values="0 0 0 0 0 0 0 0 0 0 0 0 0 0 0 0 0 0 .4 0"/><feOffset dx="4.0" dy="4.0" in="blurOut2" result="blurOut3"/><feBlend in="SourceGraphic" in2="blurOut3" mode="normal"/></filter></defs><g><!--cluster org.jgrapes--><polygon fill="#FFFFFF" filter="url(#fiea6ywut53ht)" points="14,16,111,16,118,38.2969,551,38.2969,551,443,14,443,14,16" style="stroke: #000000; stroke-width: 2.0;"/><line style="stroke: #000000; stroke-width: 2.0;" x1="14" x2="118" y1="38.2969" y2="38.2969"/><text fill="#000000" font-family="sans-serif" font-size="14" font-weight="bold" lengthAdjust="spacingAndGlyphs" textLength="91" x="18" y="30.9951">org.jgrapes</text><polygon fill="#FFFFFF" filter="url(#fiea6ywut53ht)" points="173.5,43,388.5,43,395.5,65.2969,402.5,65.2969,402.5,95.5938,173.5,95.5938,173.5,43" style="stroke: #000000; stroke-width: 2.0;"/><line style="stroke: #000000; stroke-width: 2.0;" x1="173.5" x2="395.5" y1="65.2969" y2="65.2969"/><text fill="#000000" font-family="sans-serif" font-size="14" font-weight="bold" lengthAdjust="spacingAndGlyphs" textLength="209" x="177.5" y="57.9951">JGrapes Core Components</text><a target="_parent" xlink:actuate="onRequest" xlink:href="org/jgrapes/portal/base/package-summary.html#package.description" xlink:show="new" xlink:title="org/jgrapes/portal/base/package-summary.html#package.description" xlink:type="simple"><polygon fill="#FFFFFF" filter="url(#fiea6ywut53ht)" points="185.5,156,376.5,156,383.5,178.2969,390.5,178.2969,390.5,208.5938,185.5,208.5938,185.5,156" style="stroke: #000000; stroke-width: 2.0;"/><line style="stroke: #000000; stroke-width: 2.0;" x1="185.5" x2="383.5" y1="178.2969" y2="178.2969"/><text fill="#000000" font-family="sans-serif" font-size="14" font-weight="bold" lengthAdjust="spacingAndGlyphs" textLength="185" x="189.5" y="170.9951">org.jgrapes.portal.base</text></a><a target="_parent" xlink:actuate="onRequest" xlink:href="org/jgrapes/portal/bootstrap4/package-summary.html#package.description" xlink:show="new" xlink:title="org/jgrapes/portal/bootstrap4/package-summary.html#package.description" xlink:type="simple"><polygon fill="#FFFFFF" filter="url(#fiea6ywut53ht)" points="22,269,262,269,269,291.2969,276,291.2969,276,321.5938,22,321.5938,22,269" style="stroke: #000000; stroke-width: 2.0;"/><line style="stroke: #000000; stroke-width: 2.0;" x1="22" x2="269" y1="291.2969" y2="291.2969"/><text fill="#000000" font-family="sans-serif" font-size="14" font-weight="bold" lengthAdjust="spacingAndGlyphs" textLength="234" x="26" y="283.9951">org.jgrapes.portal.bootstrap4</text></a><a target="_parent" xlink:actuate="onRequest" xlink:href="org/jgrapes/portal/jqueryui/package-summary.html#package.description" xlink:show="new" xlink:title="org/jgrapes/portal/jqueryui/package-summary.html#package.description" xlink:type="simple"><polygon fill="#FFFFFF" filter="url(#fiea6ywut53ht)" points="311.5,269,528.5,269,535.5,291.2969,542.5,291.2969,542.5,321.5938,311.5,321.5938,311.5,269" style="stroke: #000000; stroke-width: 2.0;"/><line style="stroke: #000000; stroke-width: 2.0;" x1="311.5" x2="535.5" y1="291.2969" y2="291.2969"/><text fill="#000000" font-family="sans-serif" font-size="14" font-weight="bold" lengthAdjust="spacingAndGlyphs" textLength="211" x="315.5" y="283.9951">org.jgrapes.portal.jqueryui</text></a><polygon fill="#FFFFFF" filter="url(#fiea6ywut53ht)" points="305,382,529,382,536,404.2969,543,404.2969,543,434.5938,305,434.5938,305,382" style="stroke: #000000; stroke-width: 2.0;"/><line style="stroke: #000000; stroke-width: 2.0;" x1="305" x2="536" y1="404.2969" y2="404.2969"/><text fill="#000000" font-family="sans-serif" font-size="14" font-weight="bold" lengthAdjust="spacingAndGlyphs" textLength="218" x="309" y="396.9951">org.jgrapes.portal.themes.*</text><!--link JGrapes Core Components to org.jgrapes.portal.base--><path d="M288,101.4849 C288,118.6766 288,139.6249 288,155.9128 " fill="none" id="JGrapes Core Components-org.jgrapes.portal.base" style="stroke: #A80036; stroke-width: 1.0; stroke-dasharray: 7.0,7.0;"/><polygon fill="#A80036" points="288,96.2794,284,105.2794,288,101.2794,292,105.2794,288,96.2794" style="stroke: #A80036; stroke-width: 1.0;"/><!--link org.jgrapes.portal.base to org.jgrapes.portal.jqueryui--><path d="M324.9046,212.5015 C346.4836,230.0442 373.4826,251.9931 394.2954,268.9128 " fill="none" id="org.jgrapes.portal.base-org.jgrapes.portal.jqueryui" style="stroke: #A80036; stroke-width: 1.0; stroke-dasharray: 7.0,7.0;"/><polygon fill="#A80036" points="320.9411,209.2794,325.4014,218.0604,324.8208,212.4334,330.4478,211.8528,320.9411,209.2794" style="stroke: #A80036; stroke-width: 1.0;"/><!--link org.jgrapes.portal.jqueryui to org.jgrapes.portal.themes.*--><path d="M426.1508,327.4849 C425.6944,344.6766 425.1383,365.6249 424.7059,381.9128 " fill="none" id="org.jgrapes.portal.jqueryui-org.jgrapes.portal.themes.*" style="stroke: #A80036; stroke-width: 1.0; stroke-dasharray: 7.0,7.0;"/><polygon fill="#A80036" points="426.289,322.2794,422.0515,331.1701,426.1563,327.2776,430.0487,331.3824,426.289,322.2794" style="stroke: #A80036; stroke-width: 1.0;"/><!--link org.jgrapes.portal.base to org.jgrapes.portal.bootstrap4--><path d="M251.0954,212.5015 C229.5164,230.0442 202.5174,251.9931 181.7046,268.9128 " fill="none" id="org.jgrapes.portal.base-org.jgrapes.portal.bootstrap4" style="stroke: #A80036; stroke-width: 1.0; stroke-dasharray: 7.0,7.0;"/><polygon fill="#A80036" points="255.0589,209.2794,245.5522,211.8528,251.1792,212.4334,250.5986,218.0604,255.0589,209.2794" style="stroke: #A80036; stroke-width: 1.0;"/><!--
@startuml
skinparam svgLinkTarget _parent

package org.jgrapes {
    package "JGrapes Core Components" {
    }

    package org.jgrapes.portal.base [[org/jgrapes/portal/base/package-summary.html#package.description]] {
    }

    package org.jgrapes.portal.bootstrap4 [[org/jgrapes/portal/bootstrap4/package-summary.html#package.description]] {
    }

    package org.jgrapes.portal.jqueryui [[org/jgrapes/portal/jqueryui/package-summary.html#package.description]] {
    }

    package "org.jgrapes.portal.themes.*" {
    }
}

"JGrapes Core Components" <.. org.jgrapes.portal.base
org.jgrapes.portal.base <.. "org.jgrapes.portal.jqueryui"
org.jgrapes.portal.jqueryui <.. "org.jgrapes.portal.themes.*"
org.jgrapes.portal.base <.. "org.jgrapes.portal.bootstrap4"
@enduml

PlantUML version 1.2017.18(Fri Oct 06 18:56:32 CEST 2017)
(GPL source distribution)
Java Runtime: Java(TM) SE Runtime Environment
JVM: Java HotSpot(TM) 64-Bit Server VM
Java Version: 1.8.0_181-b13
Operating System: Linux
OS Version: 4.20.5-100.fc28.x86_64
Default Encoding: UTF-8
Language: de
Country: DE
--></g></svg>