<?xml version="1.0" encoding="UTF-8" standalone="no"?><svg xmlns="http://www.w3.org/2000/svg" xmlns:xlink="http://www.w3.org/1999/xlink" contentScriptType="application/ecmascript" contentStyleType="text/css" height="479px" preserveAspectRatio="none" style="width:596px;height:479px;" version="1.1" viewBox="0 0 596 479" width="596px" zoomAndPan="magnify"><defs><filter height="300%" id="fiea6ywut53ht" width="300%" x="-1" y="-1"><feGaussianBlur result="blurOut" stdDeviation="2.0"/><feColorMatrix in="blurOut" result="blurOut2" type="matrix" values="0 0 0 0 0 0 0 0 0 0 0 0 0 0 0 0 0 0 .4 0"/><feOffset dx="4.0" dy="4.0" in="blurOut2" result="blurOut3"/><feBlend in="SourceGraphic" in2="blurOut3" mode="normal"/></filter></defs><g><!--cluster org.jgrapes--><polygon fill="#FFFFFF" filter="url(#fiea6ywut53ht)" points="22,24,119,24,126,46.2969,574,46.2969,574,467,22,467,22,24" style="stroke: #000000; stroke-width: 2.0;"/><line style="stroke: #000000; stroke-width: 2.0;" x1="22" x2="126" y1="46.2969" y2="46.2969"/><text fill="#000000" font-family="sans-serif" font-size="14" font-weight="bold" lengthAdjust="spacingAndGlyphs" textLength="91" x="26" y="38.9951">org.jgrapes</text><polygon fill="#FFFFFF" filter="url(#fiea6ywut53ht)" points="189.5,59,404.5,59,411.5,81.2969,418.5,81.2969,418.5,111.5938,189.5,111.5938,189.5,59" style="stroke: #000000; stroke-width: 2.0;"/><line style="stroke: #000000; stroke-width: 2.0;" x1="189.5" x2="411.5" y1="81.2969" y2="81.2969"/><text fill="#000000" font-family="sans-serif" font-size="14" font-weight="bold" lengthAdjust="spacingAndGlyphs" textLength="209" x="193.5" y="73.9951">JGrapes Core Components</text><a target="_parent" xlink:actuate="onRequest" xlink:href="org/jgrapes/portal/base/package-summary.html#package.description" xlink:show="new" xlink:title="org/jgrapes/portal/base/package-summary.html#package.description" xlink:type="simple"><polygon fill="#FFFFFF" filter="url(#fiea6ywut53ht)" points="201.5,172,392.5,172,399.5,194.2969,406.5,194.2969,406.5,224.5938,201.5,224.5938,201.5,172" style="stroke: #000000; stroke-width: 2.0;"/><line style="stroke: #000000; stroke-width: 2.0;" x1="201.5" x2="399.5" y1="194.2969" y2="194.2969"/><text fill="#000000" font-family="sans-serif" font-size="14" font-weight="bold" lengthAdjust="spacingAndGlyphs" textLength="185" x="205.5" y="186.9951">org.jgrapes.portal.base</text></a><a target="_parent" xlink:actuate="onRequest" xlink:href="org/jgrapes/portal/bootstrap4/package-summary.html#package.description" xlink:show="new" xlink:title="org/jgrapes/portal/bootstrap4/package-summary.html#package.description" xlink:type="simple"><polygon fill="#FFFFFF" filter="url(#fiea6ywut53ht)" points="38,285,278,285,285,307.2969,292,307.2969,292,337.5938,38,337.5938,38,285" style="stroke: #000000; stroke-width: 2.0;"/><line style="stroke: #000000; stroke-width: 2.0;" x1="38" x2="285" y1="307.2969" y2="307.2969"/><text fill="#000000" font-family="sans-serif" font-size="14" font-weight="bold" lengthAdjust="spacingAndGlyphs" textLength="234" x="42" y="299.9951">org.jgrapes.portal.bootstrap4</text></a><a target="_parent" xlink:actuate="onRequest" xlink:href="org/jgrapes/portal/jqueryui/package-summary.html#package.description" xlink:show="new" xlink:title="org/jgrapes/portal/jqueryui/package-summary.html#package.description" xlink:type="simple"><polygon fill="#FFFFFF" filter="url(#fiea6ywut53ht)" points="327.5,285,544.5,285,551.5,307.2969,558.5,307.2969,558.5,337.5938,327.5,337.5938,327.5,285" style="stroke: #000000; stroke-width: 2.0;"/><line style="stroke: #000000; stroke-width: 2.0;" x1="327.5" x2="551.5" y1="307.2969" y2="307.2969"/><text fill="#000000" font-family="sans-serif" font-size="14" font-weight="bold" lengthAdjust="spacingAndGlyphs" textLength="211" x="331.5" y="299.9951">org.jgrapes.portal.jqueryui</text></a><polygon fill="#FFFFFF" filter="url(#fiea6ywut53ht)" points="320,398,544,398,551,420.2969,558,420.2969,558,450.5938,320,450.5938,320,398" style="stroke: #000000; stroke-width: 2.0;"/><line style="stroke: #000000; stroke-width: 2.0;" x1="320" x2="551" y1="420.2969" y2="420.2969"/><text fill="#000000" font-family="sans-serif" font-size="14" font-weight="bold" lengthAdjust="spacingAndGlyphs" textLength="218" x="324" y="412.9951">org.jgrapes.portal.themes.*</text><!--link JGrapes Core Components to org.jgrapes.portal.base--><path d="M304,117.434 C304,134.591 304,155.672 304,171.895 " fill="none" id="JGrapes Core Components-org.jgrapes.portal.base" style="stroke: #A80036; stroke-width: 1.0; stroke-dasharray: 7.0,7.0;"/><polygon fill="#A80036" points="304,112.245,300,121.245,304,117.245,308,121.245,304,112.245" style="stroke: #A80036; stroke-width: 1.0;"/><!--link org.jgrapes.portal.base to org.jgrapes.portal.jqueryui--><path d="M340.259,228.455 C362.164,245.948 389.832,268.042 410.936,284.895 " fill="none" id="org.jgrapes.portal.base-org.jgrapes.portal.jqueryui" style="stroke: #A80036; stroke-width: 1.0; stroke-dasharray: 7.0,7.0;"/><polygon fill="#A80036" points="336.239,225.245,340.7758,233.9867,340.1461,228.365,345.7678,227.7353,336.239,225.245" style="stroke: #A80036; stroke-width: 1.0;"/><!--link org.jgrapes.portal.jqueryui to org.jgrapes.portal.themes.*--><path d="M441.885,343.434 C441.267,360.591 440.507,381.672 439.923,397.895 " fill="none" id="org.jgrapes.portal.jqueryui-org.jgrapes.portal.themes.*" style="stroke: #A80036; stroke-width: 1.0; stroke-dasharray: 7.0,7.0;"/><polygon fill="#A80036" points="442.072,338.245,437.7506,347.0952,441.892,343.2418,445.7454,347.3832,442.072,338.245" style="stroke: #A80036; stroke-width: 1.0;"/><!--link org.jgrapes.portal.base to org.jgrapes.portal.bootstrap4--><path d="M267.741,228.455 C245.836,245.948 218.168,268.042 197.064,284.895 " fill="none" id="org.jgrapes.portal.base-org.jgrapes.portal.bootstrap4" style="stroke: #A80036; stroke-width: 1.0; stroke-dasharray: 7.0,7.0;"/><polygon fill="#A80036" points="271.761,225.245,262.2322,227.7353,267.8539,228.365,267.2242,233.9867,271.761,225.245" style="stroke: #A80036; stroke-width: 1.0;"/><!--
@startuml
skinparam svgLinkTarget _parent

package org.jgrapes {
    package "JGrapes Core Components" {
    }

    package org.jgrapes.portal.base [[org/jgrapes/portal/base/package-summary.html#package.description]] {
    }

    package org.jgrapes.portal.bootstrap4 [[org/jgrapes/portal/bootstrap4/package-summary.html#package.description]] {
    }

    package org.jgrapes.portal.jqueryui [[org/jgrapes/portal/jqueryui/package-summary.html#package.description]] {
    }

    package "org.jgrapes.portal.themes.*" {
    }
}

"JGrapes Core Components" <.. org.jgrapes.portal.base
org.jgrapes.portal.base <.. "org.jgrapes.portal.jqueryui"
org.jgrapes.portal.jqueryui <.. "org.jgrapes.portal.themes.*"
org.jgrapes.portal.base <.. "org.jgrapes.portal.bootstrap4"
@enduml

PlantUML version 1.2017.18(Fri Oct 06 16:56:32 UTC 2017)
(GPL source distribution)
Java Runtime: OpenJDK Runtime Environment
JVM: OpenJDK 64-Bit Server VM
Java Version: 1.8.0_222-8u222-b10-1ubuntu1~16.04.1-b10
Operating System: Linux
OS Version: 4.15.0-1050-gcp
Default Encoding: UTF-8
Language: en
Country: US
--></g></svg>