<?xml version="1.0" encoding="UTF-8" standalone="no"?><svg xmlns="http://www.w3.org/2000/svg" xmlns:xlink="http://www.w3.org/1999/xlink" contentScriptType="application/ecmascript" contentStyleType="text/css" height="484px" preserveAspectRatio="none" style="width:596px;height:484px;" version="1.1" viewBox="0 0 596 484" width="596px" zoomAndPan="magnify"><defs><filter height="300%" id="fiea6ywut53ht" width="300%" x="-1" y="-1"><feGaussianBlur result="blurOut" stdDeviation="2.0"/><feColorMatrix in="blurOut" result="blurOut2" type="matrix" values="0 0 0 0 0 0 0 0 0 0 0 0 0 0 0 0 0 0 .4 0"/><feOffset dx="4.0" dy="4.0" in="blurOut2" result="blurOut3"/><feBlend in="SourceGraphic" in2="blurOut3" mode="normal"/></filter></defs><g><!--cluster org.jgrapes--><polygon fill="#FFFFFF" filter="url(#fiea6ywut53ht)" points="22,24,119,24,126,46.2969,574,46.2969,574,472,22,472,22,24" style="stroke: #000000; stroke-width: 2.0;"/><line style="stroke: #000000; stroke-width: 2.0;" x1="22" x2="126" y1="46.2969" y2="46.2969"/><text fill="#000000" font-family="sans-serif" font-size="14" font-weight="bold" lengthAdjust="spacingAndGlyphs" textLength="91" x="26" y="38.9951">org.jgrapes</text><polygon fill="#FFFFFF" filter="url(#fiea6ywut53ht)" points="189.75,60.5,404.75,60.5,411.75,82.7969,418.75,82.7969,418.75,113.0938,189.75,113.0938,189.75,60.5" style="stroke: #000000; stroke-width: 2.0;"/><line style="stroke: #000000; stroke-width: 2.0;" x1="189.75" x2="411.75" y1="82.7969" y2="82.7969"/><text fill="#000000" font-family="sans-serif" font-size="14" font-weight="bold" lengthAdjust="spacingAndGlyphs" textLength="209" x="193.75" y="75.4951">JGrapes Core Components</text><a target="_parent" xlink:actuate="onRequest" xlink:href="org/jgrapes/portal/base/package-summary.html#package.description" xlink:show="new" xlink:title="org/jgrapes/portal/base/package-summary.html#package.description" xlink:type="simple"><polygon fill="#FFFFFF" filter="url(#fiea6ywut53ht)" points="201.75,174.5,392.75,174.5,399.75,196.7969,406.75,196.7969,406.75,227.0938,201.75,227.0938,201.75,174.5" style="stroke: #000000; stroke-width: 2.0;"/><line style="stroke: #000000; stroke-width: 2.0;" x1="201.75" x2="399.75" y1="196.7969" y2="196.7969"/><text fill="#000000" font-family="sans-serif" font-size="14" font-weight="bold" lengthAdjust="spacingAndGlyphs" textLength="185" x="205.75" y="189.4951">org.jgrapes.portal.base</text></a><a target="_parent" xlink:actuate="onRequest" xlink:href="org/jgrapes/portal/bootstrap4/package-summary.html#package.description" xlink:show="new" xlink:title="org/jgrapes/portal/bootstrap4/package-summary.html#package.description" xlink:type="simple"><polygon fill="#FFFFFF" filter="url(#fiea6ywut53ht)" points="38,288.5,278,288.5,285,310.7969,292,310.7969,292,341.0938,38,341.0938,38,288.5" style="stroke: #000000; stroke-width: 2.0;"/><line style="stroke: #000000; stroke-width: 2.0;" x1="38" x2="285" y1="310.7969" y2="310.7969"/><text fill="#000000" font-family="sans-serif" font-size="14" font-weight="bold" lengthAdjust="spacingAndGlyphs" textLength="234" x="42" y="303.4951">org.jgrapes.portal.bootstrap4</text></a><a target="_parent" xlink:actuate="onRequest" xlink:href="org/jgrapes/portal/jqueryui/package-summary.html#package.description" xlink:show="new" xlink:title="org/jgrapes/portal/jqueryui/package-summary.html#package.description" xlink:type="simple"><polygon fill="#FFFFFF" filter="url(#fiea6ywut53ht)" points="327.75,288.5,544.75,288.5,551.75,310.7969,558.75,310.7969,558.75,341.0938,327.75,341.0938,327.75,288.5" style="stroke: #000000; stroke-width: 2.0;"/><line style="stroke: #000000; stroke-width: 2.0;" x1="327.75" x2="551.75" y1="310.7969" y2="310.7969"/><text fill="#000000" font-family="sans-serif" font-size="14" font-weight="bold" lengthAdjust="spacingAndGlyphs" textLength="211" x="331.75" y="303.4951">org.jgrapes.portal.jqueryui</text></a><polygon fill="#FFFFFF" filter="url(#fiea6ywut53ht)" points="320,402.5,544,402.5,551,424.7969,558,424.7969,558,455.0938,320,455.0938,320,402.5" style="stroke: #000000; stroke-width: 2.0;"/><line style="stroke: #000000; stroke-width: 2.0;" x1="320" x2="551" y1="424.7969" y2="424.7969"/><text fill="#000000" font-family="sans-serif" font-size="14" font-weight="bold" lengthAdjust="spacingAndGlyphs" textLength="218" x="324" y="417.4951">org.jgrapes.portal.themes.*</text><!--link JGrapes Core Components to org.jgrapes.portal.base--><path d="M304,118.969 C304,136.416 304,157.944 304,174.425 " fill="none" id="JGrapes Core Components-org.jgrapes.portal.base" style="stroke: #A80036; stroke-width: 1.0; stroke-dasharray: 7.0,7.0;"/><polygon fill="#A80036" points="304,113.695,300,122.695,304,118.695,308,122.695,304,113.695" style="stroke: #A80036; stroke-width: 1.0;"/><!--link org.jgrapes.portal.base to org.jgrapes.portal.jqueryui--><path d="M339.938,230.957 C362.005,248.738 390.012,271.305 411.259,288.425 " fill="none" id="org.jgrapes.portal.base-org.jgrapes.portal.jqueryui" style="stroke: #A80036; stroke-width: 1.0; stroke-dasharray: 7.0,7.0;"/><polygon fill="#A80036" points="335.889,227.695,340.3868,236.4568,339.7822,230.8324,345.4066,230.2278,335.889,227.695" style="stroke: #A80036; stroke-width: 1.0;"/><!--link org.jgrapes.portal.jqueryui to org.jgrapes.portal.themes.*--><path d="M441.894,346.969 C441.271,364.416 440.502,385.944 439.913,402.4245 " fill="none" id="org.jgrapes.portal.jqueryui-org.jgrapes.portal.themes.*" style="stroke: #A80036; stroke-width: 1.0; stroke-dasharray: 7.0,7.0;"/><polygon fill="#A80036" points="442.082,341.695,437.7631,350.5464,441.9034,346.6918,445.758,350.8321,442.082,341.695" style="stroke: #A80036; stroke-width: 1.0;"/><!--link org.jgrapes.portal.base to org.jgrapes.portal.bootstrap4--><path d="M268.062,230.957 C245.995,248.738 217.988,271.305 196.741,288.425 " fill="none" id="org.jgrapes.portal.base-org.jgrapes.portal.bootstrap4" style="stroke: #A80036; stroke-width: 1.0; stroke-dasharray: 7.0,7.0;"/><polygon fill="#A80036" points="272.111,227.695,262.5934,230.2278,268.2178,230.8324,267.6132,236.4568,272.111,227.695" style="stroke: #A80036; stroke-width: 1.0;"/><!--
@startuml
skinparam svgLinkTarget _parent

package org.jgrapes {
    package "JGrapes Core Components" {
    }

    package org.jgrapes.portal.base [[org/jgrapes/portal/base/package-summary.html#package.description]] {
    }

    package org.jgrapes.portal.bootstrap4 [[org/jgrapes/portal/bootstrap4/package-summary.html#package.description]] {
    }

    package org.jgrapes.portal.jqueryui [[org/jgrapes/portal/jqueryui/package-summary.html#package.description]] {
    }

    package "org.jgrapes.portal.themes.*" {
    }
}

"JGrapes Core Components" <.. org.jgrapes.portal.base
org.jgrapes.portal.base <.. "org.jgrapes.portal.jqueryui"
org.jgrapes.portal.jqueryui <.. "org.jgrapes.portal.themes.*"
org.jgrapes.portal.base <.. "org.jgrapes.portal.bootstrap4"
@enduml

PlantUML version 1.2017.18(Fri Oct 06 16:56:32 UTC 2017)
(GPL source distribution)
Java Runtime: Java(TM) SE Runtime Environment
JVM: Java HotSpot(TM) 64-Bit Server VM
Java Version: 1.8.0_151-b12
Operating System: Linux
OS Version: 4.4.0-112-generic
Default Encoding: UTF-8
Language: en
Country: US
--></g></svg>