<?xml version="1.0" encoding="UTF-8" standalone="no"?><svg xmlns="http://www.w3.org/2000/svg" xmlns:xlink="http://www.w3.org/1999/xlink" contentScriptType="application/ecmascript" contentStyleType="text/css" height="479px" preserveAspectRatio="none" style="width:892px;height:479px;" version="1.1" viewBox="0 0 892 479" width="892px" zoomAndPan="magnify"><defs><filter height="300%" id="fmo27enh2iwq6" width="300%" x="-1" y="-1"><feGaussianBlur result="blurOut" stdDeviation="2.0"/><feColorMatrix in="blurOut" result="blurOut2" type="matrix" values="0 0 0 0 0 0 0 0 0 0 0 0 0 0 0 0 0 0 .4 0"/><feOffset dx="4.0" dy="4.0" in="blurOut2" result="blurOut3"/><feBlend in="SourceGraphic" in2="blurOut3" mode="normal"/></filter></defs><g><!--cluster org.jgrapes--><polygon fill="#FFFFFF" filter="url(#fmo27enh2iwq6)" points="22,24,119,24,126,46.2969,870,46.2969,870,467,22,467,22,24" style="stroke: #000000; stroke-width: 2.0;"/><line style="stroke: #000000; stroke-width: 2.0;" x1="22" x2="126" y1="46.2969" y2="46.2969"/><text fill="#000000" font-family="sans-serif" font-size="14" font-weight="bold" lengthAdjust="spacingAndGlyphs" textLength="91" x="26" y="38.9951">org.jgrapes</text><polygon fill="#FFFFFF" filter="url(#fmo27enh2iwq6)" points="320.5,59,535.5,59,542.5,81.2969,549.5,81.2969,549.5,111.5938,320.5,111.5938,320.5,59" style="stroke: #000000; stroke-width: 2.0;"/><line style="stroke: #000000; stroke-width: 2.0;" x1="320.5" x2="542.5" y1="81.2969" y2="81.2969"/><text fill="#000000" font-family="sans-serif" font-size="14" font-weight="bold" lengthAdjust="spacingAndGlyphs" textLength="209" x="324.5" y="73.9951">JGrapes Core Components</text><a target="_parent" xlink:actuate="onRequest" xlink:href="org/jgrapes/webcon/base/package-summary.html#package.description" xlink:show="new" xlink:title="org/jgrapes/webcon/base/package-summary.html#package.description" xlink:type="simple"><polygon fill="#FFFFFF" filter="url(#fmo27enh2iwq6)" points="324,172,532,172,539,194.2969,546,194.2969,546,224.5938,324,224.5938,324,172" style="stroke: #000000; stroke-width: 2.0;"/><line style="stroke: #000000; stroke-width: 2.0;" x1="324" x2="539" y1="194.2969" y2="194.2969"/><text fill="#000000" font-family="sans-serif" font-size="14" font-weight="bold" lengthAdjust="spacingAndGlyphs" textLength="202" x="328" y="186.9951">org.jgrapes.webcon.base</text></a><a target="_parent" xlink:actuate="onRequest" xlink:href="org/jgrapes/webcon/vuejs/package-summary.html#package.description" xlink:show="new" xlink:title="org/jgrapes/webcon/vuejs/package-summary.html#package.description" xlink:type="simple"><polygon fill="#FFFFFF" filter="url(#fmo27enh2iwq6)" points="38,285,250,285,257,307.2969,264,307.2969,264,337.5938,38,337.5938,38,285" style="stroke: #000000; stroke-width: 2.0;"/><line style="stroke: #000000; stroke-width: 2.0;" x1="38" x2="257" y1="307.2969" y2="307.2969"/><text fill="#000000" font-family="sans-serif" font-size="14" font-weight="bold" lengthAdjust="spacingAndGlyphs" textLength="206" x="42" y="299.9951">org.jgrapes.webcon.vuejs</text></a><a target="_parent" xlink:actuate="onRequest" xlink:href="org/jgrapes/webcon/bootstrap4/package-summary.html#package.description" xlink:show="new" xlink:title="org/jgrapes/webcon/bootstrap4/package-summary.html#package.description" xlink:type="simple"><polygon fill="#FFFFFF" filter="url(#fmo27enh2iwq6)" points="299.5,285,556.5,285,563.5,307.2969,570.5,307.2969,570.5,337.5938,299.5,337.5938,299.5,285" style="stroke: #000000; stroke-width: 2.0;"/><line style="stroke: #000000; stroke-width: 2.0;" x1="299.5" x2="563.5" y1="307.2969" y2="307.2969"/><text fill="#000000" font-family="sans-serif" font-size="14" font-weight="bold" lengthAdjust="spacingAndGlyphs" textLength="251" x="303.5" y="299.9951">org.jgrapes.webcon.bootstrap4</text></a><a target="_parent" xlink:actuate="onRequest" xlink:href="org/jgrapes/webcon/jqueryui/package-summary.html#package.description" xlink:show="new" xlink:title="org/jgrapes/webcon/jqueryui/package-summary.html#package.description" xlink:type="simple"><polygon fill="#FFFFFF" filter="url(#fmo27enh2iwq6)" points="606,285,840,285,847,307.2969,854,307.2969,854,337.5938,606,337.5938,606,285" style="stroke: #000000; stroke-width: 2.0;"/><line style="stroke: #000000; stroke-width: 2.0;" x1="606" x2="847" y1="307.2969" y2="307.2969"/><text fill="#000000" font-family="sans-serif" font-size="14" font-weight="bold" lengthAdjust="spacingAndGlyphs" textLength="228" x="610" y="299.9951">org.jgrapes.webcon.jqueryui</text></a><polygon fill="#FFFFFF" filter="url(#fmo27enh2iwq6)" points="530,398,840,398,847,420.2969,854,420.2969,854,450.5938,530,450.5938,530,398" style="stroke: #000000; stroke-width: 2.0;"/><line style="stroke: #000000; stroke-width: 2.0;" x1="530" x2="847" y1="420.2969" y2="420.2969"/><text fill="#000000" font-family="sans-serif" font-size="14" font-weight="bold" lengthAdjust="spacingAndGlyphs" textLength="304" x="534" y="412.9951">org.jgrapes.webcon.jqueryui.themes.*</text><!--link JGrapes Core Components to org.jgrapes.webcon.base--><path d="M435,117.434 C435,134.591 435,155.672 435,171.895 " fill="none" id="JGrapes Core Components-org.jgrapes.webcon.base" style="stroke: #A80036; stroke-width: 1.0; stroke-dasharray: 7.0,7.0;"/><polygon fill="#A80036" points="435,112.245,431,121.245,435,117.245,439,121.245,435,112.245" style="stroke: #A80036; stroke-width: 1.0;"/><!--link org.jgrapes.webcon.base to org.jgrapes.webcon.jqueryui--><path d="M507.855,226.913 C554.981,244.645 615.912,267.572 662.038,284.928 " fill="none" id="org.jgrapes.webcon.base-org.jgrapes.webcon.jqueryui" style="stroke: #A80036; stroke-width: 1.0; stroke-dasharray: 7.0,7.0;"/><polygon fill="#A80036" points="503.049,225.105,510.065,232.017,507.729,226.865,512.881,224.529,503.049,225.105" style="stroke: #A80036; stroke-width: 1.0;"/><!--link org.jgrapes.webcon.jqueryui to org.jgrapes.webcon.jqueryui.themes.*--><path d="M719.562,342.991 C713.661,360.227 706.368,381.532 700.766,397.895 " fill="none" id="org.jgrapes.webcon.jqueryui-org.jgrapes.webcon.jqueryui.themes.*" style="stroke: #A80036; stroke-width: 1.0; stroke-dasharray: 7.0,7.0;"/><polygon fill="#A80036" points="721.187,338.245,714.4873,345.464,719.5674,342.9754,722.056,348.0554,721.187,338.245" style="stroke: #A80036; stroke-width: 1.0;"/><!--link org.jgrapes.webcon.base to org.jgrapes.webcon.bootstrap4--><path d="M435,230.434 C435,247.591 435,268.672 435,284.895 " fill="none" id="org.jgrapes.webcon.base-org.jgrapes.webcon.bootstrap4" style="stroke: #A80036; stroke-width: 1.0; stroke-dasharray: 7.0,7.0;"/><polygon fill="#A80036" points="435,225.245,431,234.245,435,230.245,439,234.245,435,225.245" style="stroke: #A80036; stroke-width: 1.0;"/><!--link org.jgrapes.webcon.base to org.jgrapes.webcon.vuejs--><path d="M364.596,227.017 C319.347,244.702 260.963,267.521 216.674,284.832 " fill="none" id="org.jgrapes.webcon.base-org.jgrapes.webcon.vuejs" style="stroke: #A80036; stroke-width: 1.0; stroke-dasharray: 7.0,7.0;"/><polygon fill="#A80036" points="369.488,225.105,359.6494,224.6553,364.831,226.9249,362.5613,232.1065,369.488,225.105" style="stroke: #A80036; stroke-width: 1.0;"/><!--
@startuml
skinparam svgLinkTarget _parent

package org.jgrapes {
    package "JGrapes Core Components" {
    }

    package org.jgrapes.webcon.base [[org/jgrapes/webcon/base/package-summary.html#package.description]] {
    }

    package org.jgrapes.webcon.vuejs [[org/jgrapes/webcon/vuejs/package-summary.html#package.description]] {
    }

    package org.jgrapes.webcon.bootstrap4 [[org/jgrapes/webcon/bootstrap4/package-summary.html#package.description]] {
    }

    package org.jgrapes.webcon.jqueryui [[org/jgrapes/webcon/jqueryui/package-summary.html#package.description]] {
    }

    package "org.jgrapes.webcon.jqueryui.themes.*" {
    }
}

"JGrapes Core Components" <.. org.jgrapes.webcon.base
org.jgrapes.webcon.base <.. "org.jgrapes.webcon.jqueryui"
org.jgrapes.webcon.jqueryui <.. "org.jgrapes.webcon.jqueryui.themes.*"
org.jgrapes.webcon.base <.. "org.jgrapes.webcon.bootstrap4"
org.jgrapes.webcon.base <.. "org.jgrapes.webcon.vuejs"
@enduml

PlantUML version 1.2017.18(Fri Oct 06 16:56:32 UTC 2017)
(GPL source distribution)
Java Runtime: OpenJDK Runtime Environment
JVM: OpenJDK 64-Bit Server VM
Java Version: 1.8.0_222-8u222-b10-1ubuntu1~16.04.1-b10
Operating System: Linux
OS Version: 4.15.0-1050-gcp
Default Encoding: UTF-8
Language: en
Country: US
--></g></svg>