<?xml version="1.0" encoding="UTF-8" standalone="no"?><svg xmlns="http://www.w3.org/2000/svg" xmlns:xlink="http://www.w3.org/1999/xlink" contentScriptType="application/ecmascript" contentStyleType="text/css" height="455px" preserveAspectRatio="none" style="width:968px;height:455px;" version="1.1" viewBox="0 0 968 455" width="968px" zoomAndPan="magnify"><defs><filter height="300%" id="fx2p6i8b36v54" width="300%" x="-1" y="-1"><feGaussianBlur result="blurOut" stdDeviation="2.0"/><feColorMatrix in="blurOut" result="blurOut2" type="matrix" values="0 0 0 0 0 0 0 0 0 0 0 0 0 0 0 0 0 0 .4 0"/><feOffset dx="4.0" dy="4.0" in="blurOut2" result="blurOut3"/><feBlend in="SourceGraphic" in2="blurOut3" mode="normal"/></filter></defs><g><!--cluster org.jgrapes--><polygon fill="#FFFFFF" filter="url(#fx2p6i8b36v54)" points="14,16,111,16,118,38.2969,946,38.2969,946,443,14,443,14,16" style="stroke: #000000; stroke-width: 2.0;"/><line style="stroke: #000000; stroke-width: 2.0;" x1="14" x2="118" y1="38.2969" y2="38.2969"/><text fill="#000000" font-family="sans-serif" font-size="14" font-weight="bold" lengthAdjust="spacingAndGlyphs" textLength="91" x="18" y="30.9951">org.jgrapes</text><polygon fill="#FFFFFF" filter="url(#fx2p6i8b36v54)" points="354.5,43,569.5,43,576.5,65.2969,583.5,65.2969,583.5,95.5938,354.5,95.5938,354.5,43" style="stroke: #000000; stroke-width: 2.0;"/><line style="stroke: #000000; stroke-width: 2.0;" x1="354.5" x2="576.5" y1="65.2969" y2="65.2969"/><text fill="#000000" font-family="sans-serif" font-size="14" font-weight="bold" lengthAdjust="spacingAndGlyphs" textLength="209" x="358.5" y="57.9951">JGrapes Core Components</text><a target="_parent" xlink:actuate="onRequest" xlink:href="org/jgrapes/webconsole/base/package-summary.html#package.description" xlink:show="new" xlink:title="org/jgrapes/webconsole/base/package-summary.html#package.description" xlink:type="simple"><polygon fill="#FFFFFF" filter="url(#fx2p6i8b36v54)" points="341.5,156,582.5,156,589.5,178.2969,596.5,178.2969,596.5,208.5938,341.5,208.5938,341.5,156" style="stroke: #000000; stroke-width: 2.0;"/><line style="stroke: #000000; stroke-width: 2.0;" x1="341.5" x2="589.5" y1="178.2969" y2="178.2969"/><text fill="#000000" font-family="sans-serif" font-size="14" font-weight="bold" lengthAdjust="spacingAndGlyphs" textLength="235" x="345.5" y="170.9951">org.jgrapes.webconsole.base</text></a><a target="_parent" xlink:actuate="onRequest" xlink:href="org/jgrapes/webconsole/vuejs/package-summary.html#package.description" xlink:show="new" xlink:title="org/jgrapes/webconsole/vuejs/package-summary.html#package.description" xlink:type="simple"><polygon fill="#FFFFFF" filter="url(#fx2p6i8b36v54)" points="22.5,269,267.5,269,274.5,291.2969,281.5,291.2969,281.5,321.5938,22.5,321.5938,22.5,269" style="stroke: #000000; stroke-width: 2.0;"/><line style="stroke: #000000; stroke-width: 2.0;" x1="22.5" x2="274.5" y1="291.2969" y2="291.2969"/><text fill="#000000" font-family="sans-serif" font-size="14" font-weight="bold" lengthAdjust="spacingAndGlyphs" textLength="239" x="26.5" y="283.9951">org.jgrapes.webconsole.vuejs</text></a><a target="_parent" xlink:actuate="onRequest" xlink:href="org/jgrapes/webconsole/bootstrap4/package-summary.html#package.description" xlink:show="new" xlink:title="org/jgrapes/webconsole/bootstrap4/package-summary.html#package.description" xlink:type="simple"><polygon fill="#FFFFFF" filter="url(#fx2p6i8b36v54)" points="317,269,607,269,614,291.2969,621,291.2969,621,321.5938,317,321.5938,317,269" style="stroke: #000000; stroke-width: 2.0;"/><line style="stroke: #000000; stroke-width: 2.0;" x1="317" x2="614" y1="291.2969" y2="291.2969"/><text fill="#000000" font-family="sans-serif" font-size="14" font-weight="bold" lengthAdjust="spacingAndGlyphs" textLength="284" x="321" y="283.9951">org.jgrapes.webconsole.bootstrap4</text></a><a target="_parent" xlink:actuate="onRequest" xlink:href="org/jgrapes/webconsole/jqueryui/package-summary.html#package.description" xlink:show="new" xlink:title="org/jgrapes/webconsole/jqueryui/package-summary.html#package.description" xlink:type="simple"><polygon fill="#FFFFFF" filter="url(#fx2p6i8b36v54)" points="656.5,269,923.5,269,930.5,291.2969,937.5,291.2969,937.5,321.5938,656.5,321.5938,656.5,269" style="stroke: #000000; stroke-width: 2.0;"/><line style="stroke: #000000; stroke-width: 2.0;" x1="656.5" x2="930.5" y1="291.2969" y2="291.2969"/><text fill="#000000" font-family="sans-serif" font-size="14" font-weight="bold" lengthAdjust="spacingAndGlyphs" textLength="261" x="660.5" y="283.9951">org.jgrapes.webconsole.jqueryui</text></a><polygon fill="#FFFFFF" filter="url(#fx2p6i8b36v54)" points="580.5,382,923.5,382,930.5,404.2969,937.5,404.2969,937.5,434.5938,580.5,434.5938,580.5,382" style="stroke: #000000; stroke-width: 2.0;"/><line style="stroke: #000000; stroke-width: 2.0;" x1="580.5" x2="930.5" y1="404.2969" y2="404.2969"/><text fill="#000000" font-family="sans-serif" font-size="14" font-weight="bold" lengthAdjust="spacingAndGlyphs" textLength="337" x="584.5" y="396.9951">org.jgrapes.webconsole.jqueryui.themes.*</text><!--link JGrapes Core Components to org.jgrapes.webconsole.base--><path d="M469,101.4849 C469,118.6766 469,139.6249 469,155.9128 " fill="none" id="JGrapes Core Components-org.jgrapes.webconsole.base" style="stroke: #A80036; stroke-width: 1.0; stroke-dasharray: 7.0,7.0;"/><polygon fill="#A80036" points="469,96.2794,465,105.2794,469,101.2794,473,105.2794,469,96.2794" style="stroke: #A80036; stroke-width: 1.0;"/><!--link org.jgrapes.webconsole.base to org.jgrapes.webconsole.jqueryui--><path d="M551.2731,210.8441 C602.9754,228.6561 669.2357,251.4836 719.9193,268.9447 " fill="none" id="org.jgrapes.webconsole.base-org.jgrapes.webconsole.jqueryui" style="stroke: #A80036; stroke-width: 1.0; stroke-dasharray: 7.0,7.0;"/><polygon fill="#A80036" points="546.3161,209.1363,553.5224,215.8496,551.0434,210.7649,556.1282,208.2859,546.3161,209.1363" style="stroke: #A80036; stroke-width: 1.0;"/><!--link org.jgrapes.webconsole.jqueryui to org.jgrapes.webconsole.jqueryui.themes.*--><path d="M786.3933,327.0411 C780.5843,344.315 773.4654,365.4845 767.9408,381.9128 " fill="none" id="org.jgrapes.webconsole.jqueryui-org.jgrapes.webconsole.jqueryui.themes.*" style="stroke: #A80036; stroke-width: 1.0; stroke-dasharray: 7.0,7.0;"/><polygon fill="#A80036" points="787.9945,322.2794,781.3343,329.5349,786.4007,327.0186,788.917,332.085,787.9945,322.2794" style="stroke: #A80036; stroke-width: 1.0;"/><!--link org.jgrapes.webconsole.base to org.jgrapes.webconsole.bootstrap4--><path d="M469,214.4849 C469,231.6766 469,252.6249 469,268.9128 " fill="none" id="org.jgrapes.webconsole.base-org.jgrapes.webconsole.bootstrap4" style="stroke: #A80036; stroke-width: 1.0; stroke-dasharray: 7.0,7.0;"/><polygon fill="#A80036" points="469,209.2794,465,218.2794,469,214.2794,473,218.2794,469,209.2794" style="stroke: #A80036; stroke-width: 1.0;"/><!--link org.jgrapes.webconsole.base to org.jgrapes.webconsole.vuejs--><path d="M389.4861,210.8441 C339.5177,228.6561 275.4795,251.4836 226.4957,268.9447 " fill="none" id="org.jgrapes.webconsole.base-org.jgrapes.webconsole.vuejs" style="stroke: #A80036; stroke-width: 1.0; stroke-dasharray: 7.0,7.0;"/><polygon fill="#A80036" points="394.2768,209.1363,384.4562,208.3905,389.5671,210.8152,387.1424,215.926,394.2768,209.1363" style="stroke: #A80036; stroke-width: 1.0;"/><!--
@startuml
skinparam svgLinkTarget _parent

package org.jgrapes {
    package "JGrapes Core Components" {
    }

    package org.jgrapes.webconsole.base [[org/jgrapes/webconsole/base/package-summary.html#package.description]] {
    }

    package org.jgrapes.webconsole.vuejs [[org/jgrapes/webconsole/vuejs/package-summary.html#package.description]] {
    }

    package org.jgrapes.webconsole.bootstrap4 [[org/jgrapes/webconsole/bootstrap4/package-summary.html#package.description]] {
    }

    package org.jgrapes.webconsole.jqueryui [[org/jgrapes/webconsole/jqueryui/package-summary.html#package.description]] {
    }

    package "org.jgrapes.webconsole.jqueryui.themes.*" {
    }
}

"JGrapes Core Components" <.. org.jgrapes.webconsole.base
org.jgrapes.webconsole.base <.. "org.jgrapes.webconsole.jqueryui"
org.jgrapes.webconsole.jqueryui <.. "org.jgrapes.webconsole.jqueryui.themes.*"
org.jgrapes.webconsole.base <.. "org.jgrapes.webconsole.bootstrap4"
org.jgrapes.webconsole.base <.. "org.jgrapes.webconsole.vuejs"
@enduml

PlantUML version 1.2017.18(Fri Oct 06 16:56:32 UTC 2017)
(GPL source distribution)
Java Runtime: OpenJDK Runtime Environment
JVM: OpenJDK 64-Bit Server VM
Java Version: 1.8.0_282-b08
Operating System: Linux
OS Version: 5.4.0-1039-azure
Default Encoding: UTF-8
Language: en
Country: null
--></g></svg>