<?xml version="1.0" encoding="UTF-8" standalone="no"?><svg xmlns="http://www.w3.org/2000/svg" xmlns:xlink="http://www.w3.org/1999/xlink" contentScriptType="application/ecmascript" contentStyleType="text/css" height="479px" preserveAspectRatio="none" style="width:992px;height:479px;" version="1.1" viewBox="0 0 992 479" width="992px" zoomAndPan="magnify"><defs><filter height="300%" id="fx2p6i8b36v54" width="300%" x="-1" y="-1"><feGaussianBlur result="blurOut" stdDeviation="2.0"/><feColorMatrix in="blurOut" result="blurOut2" type="matrix" values="0 0 0 0 0 0 0 0 0 0 0 0 0 0 0 0 0 0 .4 0"/><feOffset dx="4.0" dy="4.0" in="blurOut2" result="blurOut3"/><feBlend in="SourceGraphic" in2="blurOut3" mode="normal"/></filter></defs><g><!--cluster org.jgrapes--><polygon fill="#FFFFFF" filter="url(#fx2p6i8b36v54)" points="22,24,119,24,126,46.2969,970,46.2969,970,467,22,467,22,24" style="stroke: #000000; stroke-width: 2.0;"/><line style="stroke: #000000; stroke-width: 2.0;" x1="22" x2="126" y1="46.2969" y2="46.2969"/><text fill="#000000" font-family="sans-serif" font-size="14" font-weight="bold" lengthAdjust="spacingAndGlyphs" textLength="91" x="26" y="38.9951">org.jgrapes</text><polygon fill="#FFFFFF" filter="url(#fx2p6i8b36v54)" points="370.5,59,585.5,59,592.5,81.2969,599.5,81.2969,599.5,111.5938,370.5,111.5938,370.5,59" style="stroke: #000000; stroke-width: 2.0;"/><line style="stroke: #000000; stroke-width: 2.0;" x1="370.5" x2="592.5" y1="81.2969" y2="81.2969"/><text fill="#000000" font-family="sans-serif" font-size="14" font-weight="bold" lengthAdjust="spacingAndGlyphs" textLength="209" x="374.5" y="73.9951">JGrapes Core Components</text><a target="_parent" xlink:actuate="onRequest" xlink:href="org/jgrapes/webconsole/base/package-summary.html#package.description" xlink:show="new" xlink:title="org/jgrapes/webconsole/base/package-summary.html#package.description" xlink:type="simple"><polygon fill="#FFFFFF" filter="url(#fx2p6i8b36v54)" points="357.5,172,598.5,172,605.5,194.2969,612.5,194.2969,612.5,224.5938,357.5,224.5938,357.5,172" style="stroke: #000000; stroke-width: 2.0;"/><line style="stroke: #000000; stroke-width: 2.0;" x1="357.5" x2="605.5" y1="194.2969" y2="194.2969"/><text fill="#000000" font-family="sans-serif" font-size="14" font-weight="bold" lengthAdjust="spacingAndGlyphs" textLength="235" x="361.5" y="186.9951">org.jgrapes.webconsole.base</text></a><a target="_parent" xlink:actuate="onRequest" xlink:href="org/jgrapes/webconsole/vuejs/package-summary.html#package.description" xlink:show="new" xlink:title="org/jgrapes/webconsole/vuejs/package-summary.html#package.description" xlink:type="simple"><polygon fill="#FFFFFF" filter="url(#fx2p6i8b36v54)" points="38.5,285,283.5,285,290.5,307.2969,297.5,307.2969,297.5,337.5938,38.5,337.5938,38.5,285" style="stroke: #000000; stroke-width: 2.0;"/><line style="stroke: #000000; stroke-width: 2.0;" x1="38.5" x2="290.5" y1="307.2969" y2="307.2969"/><text fill="#000000" font-family="sans-serif" font-size="14" font-weight="bold" lengthAdjust="spacingAndGlyphs" textLength="239" x="42.5" y="299.9951">org.jgrapes.webconsole.vuejs</text></a><a target="_parent" xlink:actuate="onRequest" xlink:href="org/jgrapes/webconsole/bootstrap4/package-summary.html#package.description" xlink:show="new" xlink:title="org/jgrapes/webconsole/bootstrap4/package-summary.html#package.description" xlink:type="simple"><polygon fill="#FFFFFF" filter="url(#fx2p6i8b36v54)" points="333,285,623,285,630,307.2969,637,307.2969,637,337.5938,333,337.5938,333,285" style="stroke: #000000; stroke-width: 2.0;"/><line style="stroke: #000000; stroke-width: 2.0;" x1="333" x2="630" y1="307.2969" y2="307.2969"/><text fill="#000000" font-family="sans-serif" font-size="14" font-weight="bold" lengthAdjust="spacingAndGlyphs" textLength="284" x="337" y="299.9951">org.jgrapes.webconsole.bootstrap4</text></a><a target="_parent" xlink:actuate="onRequest" xlink:href="org/jgrapes/webconsole/jqueryui/package-summary.html#package.description" xlink:show="new" xlink:title="org/jgrapes/webconsole/jqueryui/package-summary.html#package.description" xlink:type="simple"><polygon fill="#FFFFFF" filter="url(#fx2p6i8b36v54)" points="672.5,285,939.5,285,946.5,307.2969,953.5,307.2969,953.5,337.5938,672.5,337.5938,672.5,285" style="stroke: #000000; stroke-width: 2.0;"/><line style="stroke: #000000; stroke-width: 2.0;" x1="672.5" x2="946.5" y1="307.2969" y2="307.2969"/><text fill="#000000" font-family="sans-serif" font-size="14" font-weight="bold" lengthAdjust="spacingAndGlyphs" textLength="261" x="676.5" y="299.9951">org.jgrapes.webconsole.jqueryui</text></a><polygon fill="#FFFFFF" filter="url(#fx2p6i8b36v54)" points="596.5,398,939.5,398,946.5,420.2969,953.5,420.2969,953.5,450.5938,596.5,450.5938,596.5,398" style="stroke: #000000; stroke-width: 2.0;"/><line style="stroke: #000000; stroke-width: 2.0;" x1="596.5" x2="946.5" y1="420.2969" y2="420.2969"/><text fill="#000000" font-family="sans-serif" font-size="14" font-weight="bold" lengthAdjust="spacingAndGlyphs" textLength="337" x="600.5" y="412.9951">org.jgrapes.webconsole.jqueryui.themes.*</text><!--link JGrapes Core Components to org.jgrapes.webconsole.base--><path d="M485,117.434 C485,134.591 485,155.672 485,171.895 " fill="none" id="JGrapes Core Components-org.jgrapes.webconsole.base" style="stroke: #A80036; stroke-width: 1.0; stroke-dasharray: 7.0,7.0;"/><polygon fill="#A80036" points="485,112.245,481,121.245,485,117.245,489,121.245,485,112.245" style="stroke: #A80036; stroke-width: 1.0;"/><!--link org.jgrapes.webconsole.base to org.jgrapes.webconsole.jqueryui--><path d="M565.687,226.806 C618.129,244.553 686.046,267.537 737.435,284.928 " fill="none" id="org.jgrapes.webconsole.base-org.jgrapes.webconsole.jqueryui" style="stroke: #A80036; stroke-width: 1.0; stroke-dasharray: 7.0,7.0;"/><polygon fill="#A80036" points="560.662,225.105,567.9052,231.7786,565.3982,226.7075,570.4692,224.2006,560.662,225.105" style="stroke: #A80036; stroke-width: 1.0;"/><!--link org.jgrapes.webconsole.jqueryui to org.jgrapes.webconsole.jqueryui.themes.*--><path d="M802.562,342.991 C796.661,360.227 789.368,381.532 783.766,397.895 " fill="none" id="org.jgrapes.webconsole.jqueryui-org.jgrapes.webconsole.jqueryui.themes.*" style="stroke: #A80036; stroke-width: 1.0; stroke-dasharray: 7.0,7.0;"/><polygon fill="#A80036" points="804.187,338.245,797.4873,345.464,802.5674,342.9754,805.056,348.0554,804.187,338.245" style="stroke: #A80036; stroke-width: 1.0;"/><!--link org.jgrapes.webconsole.base to org.jgrapes.webconsole.bootstrap4--><path d="M485,230.434 C485,247.591 485,268.672 485,284.895 " fill="none" id="org.jgrapes.webconsole.base-org.jgrapes.webconsole.bootstrap4" style="stroke: #A80036; stroke-width: 1.0; stroke-dasharray: 7.0,7.0;"/><polygon fill="#A80036" points="485,225.245,481,234.245,485,230.245,489,234.245,485,225.245" style="stroke: #A80036; stroke-width: 1.0;"/><!--link org.jgrapes.webconsole.base to org.jgrapes.webconsole.vuejs--><path d="M407.019,226.806 C356.336,244.553 290.696,267.537 241.03,284.928 " fill="none" id="org.jgrapes.webconsole.base-org.jgrapes.webconsole.vuejs" style="stroke: #A80036; stroke-width: 1.0; stroke-dasharray: 7.0,7.0;"/><polygon fill="#A80036" points="411.876,225.105,402.0597,224.3052,407.1571,226.758,404.7044,231.8554,411.876,225.105" style="stroke: #A80036; stroke-width: 1.0;"/><!--
@startuml
skinparam svgLinkTarget _parent

package org.jgrapes {
    package "JGrapes Core Components" {
    }

    package org.jgrapes.webconsole.base [[org/jgrapes/webconsole/base/package-summary.html#package.description]] {
    }

    package org.jgrapes.webconsole.vuejs [[org/jgrapes/webconsole/vuejs/package-summary.html#package.description]] {
    }

    package org.jgrapes.webconsole.bootstrap4 [[org/jgrapes/webconsole/bootstrap4/package-summary.html#package.description]] {
    }

    package org.jgrapes.webconsole.jqueryui [[org/jgrapes/webconsole/jqueryui/package-summary.html#package.description]] {
    }

    package "org.jgrapes.webconsole.jqueryui.themes.*" {
    }
}

"JGrapes Core Components" <.. org.jgrapes.webconsole.base
org.jgrapes.webconsole.base <.. "org.jgrapes.webconsole.jqueryui"
org.jgrapes.webconsole.jqueryui <.. "org.jgrapes.webconsole.jqueryui.themes.*"
org.jgrapes.webconsole.base <.. "org.jgrapes.webconsole.bootstrap4"
org.jgrapes.webconsole.base <.. "org.jgrapes.webconsole.vuejs"
@enduml

PlantUML version 1.2017.18(Fri Oct 06 16:56:32 UTC 2017)
(GPL source distribution)
Java Runtime: OpenJDK Runtime Environment
JVM: OpenJDK 64-Bit Server VM
Java Version: 1.8.0_222-8u222-b10-1ubuntu1~16.04.1-b10
Operating System: Linux
OS Version: 4.15.0-1050-gcp
Default Encoding: UTF-8
Language: en
Country: US
--></g></svg>