<?xml version="1.0" encoding="UTF-8" standalone="no"?><svg xmlns="http://www.w3.org/2000/svg" xmlns:xlink="http://www.w3.org/1999/xlink" contentScriptType="application/ecmascript" contentStyleType="text/css" height="229px" preserveAspectRatio="none" style="width:548px;height:229px;" version="1.1" viewBox="0 0 548 229" width="548px" zoomAndPan="magnify"><defs><filter height="300%" id="f1b9fsqho7p279" width="300%" x="-1" y="-1"><feGaussianBlur result="blurOut" stdDeviation="2.0"/><feColorMatrix in="blurOut" result="blurOut2" type="matrix" values="0 0 0 0 0 0 0 0 0 0 0 0 0 0 0 0 0 0 .4 0"/><feOffset dx="4.0" dy="4.0" in="blurOut2" result="blurOut3"/><feBlend in="SourceGraphic" in2="blurOut3" mode="normal"/></filter></defs><g><!--cluster org.jgrapes--><polygon fill="#FFFFFF" filter="url(#f1b9fsqho7p279)" points="14,16,111,16,118,38.2969,526,38.2969,526,217,14,217,14,16" style="stroke: #000000; stroke-width: 2.0;"/><line style="stroke: #000000; stroke-width: 2.0;" x1="14" x2="118" y1="38.2969" y2="38.2969"/><text fill="#000000" font-family="sans-serif" font-size="14" font-weight="bold" lengthAdjust="spacingAndGlyphs" textLength="91" x="18" y="30.9951">org.jgrapes</text><a target="_parent" xlink:actuate="onRequest" xlink:href="org/jgrapes/core/package-summary.html#package.description" xlink:show="new" xlink:title="org/jgrapes/core/package-summary.html#package.description" xlink:type="simple"><polygon fill="#FFFFFF" filter="url(#f1b9fsqho7p279)" points="188.5,43,325.5,43,332.5,65.2969,339.5,65.2969,339.5,95.5938,188.5,95.5938,188.5,43" style="stroke: #000000; stroke-width: 2.0;"/><line style="stroke: #000000; stroke-width: 2.0;" x1="188.5" x2="332.5" y1="65.2969" y2="65.2969"/><text fill="#000000" font-family="sans-serif" font-size="14" font-weight="bold" lengthAdjust="spacingAndGlyphs" textLength="131" x="192.5" y="57.9951">org.jgrapes.core</text></a><a target="_parent" xlink:actuate="onRequest" xlink:href="org/jgrapes/util/package-summary.html#package.description" xlink:show="new" xlink:title="org/jgrapes/util/package-summary.html#package.description" xlink:type="simple"><polygon fill="#FFFFFF" filter="url(#f1b9fsqho7p279)" points="374.5,156,503.5,156,510.5,178.2969,517.5,178.2969,517.5,208.5938,374.5,208.5938,374.5,156" style="stroke: #000000; stroke-width: 2.0;"/><line style="stroke: #000000; stroke-width: 2.0;" x1="374.5" x2="510.5" y1="178.2969" y2="178.2969"/><text fill="#000000" font-family="sans-serif" font-size="14" font-weight="bold" lengthAdjust="spacingAndGlyphs" textLength="123" x="378.5" y="170.9951">org.jgrapes.util</text></a><a target="_parent" xlink:actuate="onRequest" xlink:href="org/jgrapes/io/package-summary.html#package.description" xlink:show="new" xlink:title="org/jgrapes/io/package-summary.html#package.description" xlink:type="simple"><polygon fill="#FFFFFF" filter="url(#f1b9fsqho7p279)" points="22.5,156,139.5,156,146.5,178.2969,153.5,178.2969,153.5,208.5938,22.5,208.5938,22.5,156" style="stroke: #000000; stroke-width: 2.0;"/><line style="stroke: #000000; stroke-width: 2.0;" x1="22.5" x2="146.5" y1="178.2969" y2="178.2969"/><text fill="#000000" font-family="sans-serif" font-size="14" font-weight="bold" lengthAdjust="spacingAndGlyphs" textLength="111" x="26.5" y="170.9951">org.jgrapes.io</text></a><a target="_parent" xlink:actuate="onRequest" xlink:href="org/jgrapes/http/package-summary.html#package.description" xlink:show="new" xlink:title="org/jgrapes/http/package-summary.html#package.description" xlink:type="simple"><polygon fill="#FFFFFF" filter="url(#f1b9fsqho7p279)" points="189,156,325,156,332,178.2969,339,178.2969,339,208.5938,189,208.5938,189,156" style="stroke: #000000; stroke-width: 2.0;"/><line style="stroke: #000000; stroke-width: 2.0;" x1="189" x2="332" y1="178.2969" y2="178.2969"/><text fill="#000000" font-family="sans-serif" font-size="14" font-weight="bold" lengthAdjust="spacingAndGlyphs" textLength="130" x="193" y="170.9951">org.jgrapes.http</text></a><!--link org.jgrapes.core to org.jgrapes.io--><path d="M217.9507,99.0657 C190.5167,116.6796 155.9817,138.8526 129.4102,155.9128 " fill="none" id="org.jgrapes.core-org.jgrapes.io" style="stroke: #A80036; stroke-width: 1.0; stroke-dasharray: 7.0,7.0;"/><polygon fill="#A80036" points="222.2905,96.2794,212.556,97.776,218.0831,98.9808,216.8783,104.5079,222.2905,96.2794" style="stroke: #A80036; stroke-width: 1.0;"/><!--link org.jgrapes.core to org.jgrapes.util--><path d="M311.6191,99.0657 C339.9884,116.6796 375.7007,138.8526 403.1781,155.9128 " fill="none" id="org.jgrapes.core-org.jgrapes.util" style="stroke: #A80036; stroke-width: 1.0; stroke-dasharray: 7.0,7.0;"/><polygon fill="#A80036" points="307.1315,96.2794,312.6677,104.425,311.3793,98.9168,316.8875,97.6285,307.1315,96.2794" style="stroke: #A80036; stroke-width: 1.0;"/><!--link org.jgrapes.core to org.jgrapes.http--><path d="M264,101.4849 C264,118.6766 264,139.6249 264,155.9128 " fill="none" id="org.jgrapes.core-org.jgrapes.http" style="stroke: #A80036; stroke-width: 1.0; stroke-dasharray: 7.0,7.0;"/><polygon fill="#A80036" points="264,96.2794,260,105.2794,264,101.2794,268,105.2794,264,96.2794" style="stroke: #A80036; stroke-width: 1.0;"/><!--link org.jgrapes.io to org.jgrapes.http--><path d="M158.8387,182.5 C168.749,182.5 178.6594,182.5 188.5697,182.5 " fill="none" id="org.jgrapes.io-org.jgrapes.http" style="stroke: #A80036; stroke-width: 1.0; stroke-dasharray: 7.0,7.0;"/><polygon fill="#A80036" points="153.6563,182.5,162.6563,186.5,158.6563,182.5,162.6563,178.5,153.6563,182.5" style="stroke: #A80036; stroke-width: 1.0;"/><!--
@startuml
skinparam svgLinkTarget _parent

package org.jgrapes {
    package org.jgrapes.core [[org/jgrapes/core/package-summary.html#package.description]] {
    }

    package org.jgrapes.util [[org/jgrapes/util/package-summary.html#package.description]] {
    }

    package org.jgrapes.io [[org/jgrapes/io/package-summary.html#package.description]] {
    }

    package org.jgrapes.http [[org/jgrapes/http/package-summary.html#package.description]] {
    }
}

org.jgrapes.core <.. org.jgrapes.io
org.jgrapes.core <.. org.jgrapes.util
org.jgrapes.core <.. org.jgrapes.http
org.jgrapes.io <.right. org.jgrapes.http
@enduml

PlantUML version 1.2017.18(Fri Oct 06 18:56:32 CEST 2017)
(GPL source distribution)
Java Runtime: OpenJDK Runtime Environment
JVM: OpenJDK 64-Bit Server VM
Java Version: 1.8.0_151-b12
Operating System: Linux
OS Version: 4.14.11-300.fc27.x86_64
Default Encoding: UTF-8
Language: de
Country: DE
--></g></svg>