<?xml version="1.0" encoding="UTF-8" standalone="no"?><svg xmlns="http://www.w3.org/2000/svg" xmlns:xlink="http://www.w3.org/1999/xlink" contentScriptType="application/ecmascript" contentStyleType="text/css" height="248px" preserveAspectRatio="none" style="width:378px;height:248px;" version="1.1" viewBox="0 0 378 248" width="378px" zoomAndPan="magnify"><defs><filter height="300%" id="fwcbkjh" width="300%" x="-1" y="-1"><feGaussianBlur result="blurOut" stdDeviation="2.0"/><feColorMatrix in="blurOut" result="blurOut2" type="matrix" values="0 0 0 0 0 0 0 0 0 0 0 0 0 0 0 0 0 0 .4 0"/><feOffset dx="4.0" dy="4.0" in="blurOut2" result="blurOut3"/><feBlend in="SourceGraphic" in2="blurOut3" mode="normal"/></filter></defs><g><!--cluster org.jgrapes--><polygon fill="#FFFFFF" filter="url(#fwcbkjh)" points="22,24,119,24,126,46.2969,371,46.2969,371,241,22,241,22,24" style="stroke: #000000; stroke-width: 2.0;"/><line style="stroke: #000000; stroke-width: 2.0;" x1="22" x2="126" y1="46.2969" y2="46.2969"/><text fill="#000000" font-family="sans-serif" font-size="14" font-weight="bold" lengthAdjust="spacingAndGlyphs" textLength="91" x="26" y="38.9951">org.jgrapes</text><a target="_parent" xlink:actuate="onRequest" xlink:href="org/jgrapes/core/package-summary.html#package.description" xlink:show="new" xlink:title="org/jgrapes/core/package-summary.html#package.description" xlink:type="simple"><polygon fill="#FFFFFF" filter="url(#fwcbkjh)" points="120.5,59,257.5,59,264.5,81.2969,271.5,81.2969,271.5,111.5938,120.5,111.5938,120.5,59" style="stroke: #000000; stroke-width: 2.0;"/><line style="stroke: #000000; stroke-width: 2.0;" x1="120.5" x2="264.5" y1="81.2969" y2="81.2969"/><text fill="#000000" font-family="sans-serif" font-size="14" font-weight="bold" lengthAdjust="spacingAndGlyphs" textLength="131" x="124.5" y="73.9951">org.jgrapes.core</text></a><a target="_parent" xlink:actuate="onRequest" xlink:href="org/jgrapes/io/package-summary.html#package.description" xlink:show="new" xlink:title="org/jgrapes/io/package-summary.html#package.description" xlink:type="simple"><polygon fill="#FFFFFF" filter="url(#fwcbkjh)" points="38.5,172,155.5,172,162.5,194.2969,169.5,194.2969,169.5,224.5938,38.5,224.5938,38.5,172" style="stroke: #000000; stroke-width: 2.0;"/><line style="stroke: #000000; stroke-width: 2.0;" x1="38.5" x2="162.5" y1="194.2969" y2="194.2969"/><text fill="#000000" font-family="sans-serif" font-size="14" font-weight="bold" lengthAdjust="spacingAndGlyphs" textLength="111" x="42.5" y="186.9951">org.jgrapes.io</text></a><a target="_parent" xlink:actuate="onRequest" xlink:href="org/jgrapes/http/package-summary.html#package.description" xlink:show="new" xlink:title="org/jgrapes/http/package-summary.html#package.description" xlink:type="simple"><polygon fill="#FFFFFF" filter="url(#fwcbkjh)" points="205,172,341,172,348,194.2969,355,194.2969,355,224.5938,205,224.5938,205,172" style="stroke: #000000; stroke-width: 2.0;"/><line style="stroke: #000000; stroke-width: 2.0;" x1="205" x2="348" y1="194.2969" y2="194.2969"/><text fill="#000000" font-family="sans-serif" font-size="14" font-weight="bold" lengthAdjust="spacingAndGlyphs" textLength="130" x="209" y="186.9951">org.jgrapes.http</text></a><path d="M171.0389,116.1587 C156.8472,133.5899 139.2501,155.2037 125.6462,171.9128 " fill="none" style="stroke: #A80036; stroke-width: 1.0; stroke-dasharray: 7.0,7.0;"/><polygon fill="#A80036" points="174.1973,112.2794,165.413,116.7333,171.0405,116.1568,171.6169,121.7842,174.1973,112.2794" style="stroke: #A80036; stroke-width: 1.0;"/><path d="M219.1179,116.599 C232.018,133.9528 247.9195,155.3441 260.2361,171.9128 " fill="none" style="stroke: #A80036; stroke-width: 1.0; stroke-dasharray: 7.0,7.0;"/><polygon fill="#A80036" points="215.9068,112.2794,218.0656,121.8887,218.8896,116.2922,224.4861,117.1162,215.9068,112.2794" style="stroke: #A80036; stroke-width: 1.0;"/><path d="M174.8387,198.5 C184.749,198.5 194.6594,198.5 204.5697,198.5 " fill="none" style="stroke: #A80036; stroke-width: 1.0; stroke-dasharray: 7.0,7.0;"/><polygon fill="#A80036" points="169.6563,198.5,178.6563,202.5,174.6563,198.5,178.6563,194.5,169.6563,198.5" style="stroke: #A80036; stroke-width: 1.0;"/></g></svg>