<?xml version="1.0" encoding="UTF-8" standalone="no"?><svg xmlns="http://www.w3.org/2000/svg" xmlns:xlink="http://www.w3.org/1999/xlink" contentScriptType="application/ecmascript" contentStyleType="text/css" height="248px" preserveAspectRatio="none" style="width:374px;height:248px;" version="1.1" viewBox="0 0 374 248" width="374px" zoomAndPan="magnify"><defs><filter height="300%" id="fmrh8c6" width="300%" x="-1" y="-1"><feGaussianBlur result="blurOut" stdDeviation="2.0"/><feColorMatrix in="blurOut" result="blurOut2" type="matrix" values="0 0 0 0 0 0 0 0 0 0 0 0 0 0 0 0 0 0 .4 0"/><feOffset dx="4.0" dy="4.0" in="blurOut2" result="blurOut3"/><feBlend in="SourceGraphic" in2="blurOut3" mode="normal"/></filter></defs><g><!--cluster org.jgrapes--><polygon fill="#FFFFFF" filter="url(#fmrh8c6)" points="22,24,119,24,126,46.2969,367,46.2969,367,241,22,241,22,24" style="stroke: #000000; stroke-width: 2.0;"/><line style="stroke: #000000; stroke-width: 2.0;" x1="22" x2="126" y1="46.2969" y2="46.2969"/><text fill="#000000" font-family="sans-serif" font-size="14" font-weight="bold" lengthAdjust="spacingAndGlyphs" textLength="91" x="26" y="38.9951">org.jgrapes</text><a target="_parent" xlink:actuate="onRequest" xlink:href="org/jgrapes/core/package-summary.html#package.description" xlink:show="new" xlink:title="org/jgrapes/core/package-summary.html#package.description" xlink:type="simple"><polygon fill="#FFFFFF" filter="url(#fmrh8c6)" points="118,59,256,59,263,81.2969,270,81.2969,270,111.5938,118,111.5938,118,59" style="stroke: #000000; stroke-width: 2.0;"/><line style="stroke: #000000; stroke-width: 2.0;" x1="118" x2="263" y1="81.2969" y2="81.2969"/><text fill="#000000" font-family="sans-serif" font-size="14" font-weight="bold" lengthAdjust="spacingAndGlyphs" textLength="132" x="122" y="73.9951">org.jgrapes.core</text></a><a target="_parent" xlink:actuate="onRequest" xlink:href="org/jgrapes/io/package-summary.html#package.description" xlink:show="new" xlink:title="org/jgrapes/io/package-summary.html#package.description" xlink:type="simple"><polygon fill="#FFFFFF" filter="url(#fmrh8c6)" points="38,172,154,172,161,194.2969,168,194.2969,168,224.5938,38,224.5938,38,172" style="stroke: #000000; stroke-width: 2.0;"/><line style="stroke: #000000; stroke-width: 2.0;" x1="38" x2="161" y1="194.2969" y2="194.2969"/><text fill="#000000" font-family="sans-serif" font-size="14" font-weight="bold" lengthAdjust="spacingAndGlyphs" textLength="110" x="42" y="186.9951">org.jgrapes.io</text></a><a target="_parent" xlink:actuate="onRequest" xlink:href="org/jgrapes/http/package-summary.html#package.description" xlink:show="new" xlink:title="org/jgrapes/http/package-summary.html#package.description" xlink:type="simple"><polygon fill="#FFFFFF" filter="url(#fmrh8c6)" points="203,172,337,172,344,194.2969,351,194.2969,351,224.5938,203,224.5938,203,172" style="stroke: #000000; stroke-width: 2.0;"/><line style="stroke: #000000; stroke-width: 2.0;" x1="203" x2="344" y1="194.2969" y2="194.2969"/><text fill="#000000" font-family="sans-serif" font-size="14" font-weight="bold" lengthAdjust="spacingAndGlyphs" textLength="128" x="207" y="186.9951">org.jgrapes.http</text></a><path d="M169.365,116.55 C155.172,133.862 137.521,155.392 123.991,171.895 " fill="none" style="stroke: #A80036; stroke-width: 1.0; stroke-dasharray: 7.0,7.0;"/><polygon fill="#A80036" points="172.894,112.245,164.0941,116.6679,169.7235,116.1113,170.2802,121.7407,172.894,112.245" style="stroke: #A80036; stroke-width: 1.0;"/><path d="M216.47,116.55 C229.415,133.862 245.514,155.392 257.854,171.895 " fill="none" style="stroke: #A80036; stroke-width: 1.0; stroke-dasharray: 7.0,7.0;"/><polygon fill="#A80036" points="213.25,112.245,215.4363,121.8481,216.2443,116.2493,221.8431,117.0573,213.25,112.245" style="stroke: #A80036; stroke-width: 1.0;"/><path d="M173.358,198.5 C183.125,198.5 192.892,198.5 202.659,198.5 " fill="none" style="stroke: #A80036; stroke-width: 1.0; stroke-dasharray: 7.0,7.0;"/><polygon fill="#A80036" points="168.25,198.5,177.25,202.5,173.25,198.5,177.25,194.5,168.25,198.5" style="stroke: #A80036; stroke-width: 1.0;"/></g></svg>