<?xml version="1.0" encoding="UTF-8" standalone="no"?><svg xmlns="http://www.w3.org/2000/svg" xmlns:xlink="http://www.w3.org/1999/xlink" contentScriptType="application/ecmascript" contentStyleType="text/css" height="474px" preserveAspectRatio="none" style="width:557px;height:474px;" version="1.1" viewBox="0 0 557 474" width="557px" zoomAndPan="magnify"><defs><filter height="300%" id="f4xcz4c" width="300%" x="-1" y="-1"><feGaussianBlur result="blurOut" stdDeviation="2.0"/><feColorMatrix in="blurOut" result="blurOut2" type="matrix" values="0 0 0 0 0 0 0 0 0 0 0 0 0 0 0 0 0 0 .4 0"/><feOffset dx="4.0" dy="4.0" in="blurOut2" result="blurOut3"/><feBlend in="SourceGraphic" in2="blurOut3" mode="normal"/></filter></defs><g><!--cluster org.jgrapes--><polygon fill="#FFFFFF" filter="url(#f4xcz4c)" points="22,24,119,24,126,46.2969,550,46.2969,550,467,22,467,22,24" style="stroke: #000000; stroke-width: 2.0;"/><line style="stroke: #000000; stroke-width: 2.0;" x1="22" x2="126" y1="46.2969" y2="46.2969"/><text fill="#000000" font-family="sans-serif" font-size="14" font-weight="bold" lengthAdjust="spacingAndGlyphs" textLength="91" x="26" y="38.9951">org.jgrapes</text><a target="_parent" xlink:actuate="onRequest" xlink:href="org/jgrapes/core/package-summary.html#package.description" xlink:show="new" xlink:title="org/jgrapes/core/package-summary.html#package.description" xlink:type="simple"><polygon fill="#FFFFFF" filter="url(#f4xcz4c)" points="204.5,59,341.5,59,348.5,81.2969,355.5,81.2969,355.5,111.5938,204.5,111.5938,204.5,59" style="stroke: #000000; stroke-width: 2.0;"/><line style="stroke: #000000; stroke-width: 2.0;" x1="204.5" x2="348.5" y1="81.2969" y2="81.2969"/><text fill="#000000" font-family="sans-serif" font-size="14" font-weight="bold" lengthAdjust="spacingAndGlyphs" textLength="131" x="208.5" y="73.9951">org.jgrapes.core</text></a><a target="_parent" xlink:actuate="onRequest" xlink:href="org/jgrapes/util/package-summary.html#package.description" xlink:show="new" xlink:title="org/jgrapes/util/package-summary.html#package.description" xlink:type="simple"><polygon fill="#FFFFFF" filter="url(#f4xcz4c)" points="390.5,172,519.5,172,526.5,194.2969,533.5,194.2969,533.5,224.5938,390.5,224.5938,390.5,172" style="stroke: #000000; stroke-width: 2.0;"/><line style="stroke: #000000; stroke-width: 2.0;" x1="390.5" x2="526.5" y1="194.2969" y2="194.2969"/><text fill="#000000" font-family="sans-serif" font-size="14" font-weight="bold" lengthAdjust="spacingAndGlyphs" textLength="123" x="394.5" y="186.9951">org.jgrapes.util</text></a><a target="_parent" xlink:actuate="onRequest" xlink:href="org/jgrapes/io/package-summary.html#package.description" xlink:show="new" xlink:title="org/jgrapes/io/package-summary.html#package.description" xlink:type="simple"><polygon fill="#FFFFFF" filter="url(#f4xcz4c)" points="38.5,172,155.5,172,162.5,194.2969,169.5,194.2969,169.5,224.5938,38.5,224.5938,38.5,172" style="stroke: #000000; stroke-width: 2.0;"/><line style="stroke: #000000; stroke-width: 2.0;" x1="38.5" x2="162.5" y1="194.2969" y2="194.2969"/><text fill="#000000" font-family="sans-serif" font-size="14" font-weight="bold" lengthAdjust="spacingAndGlyphs" textLength="111" x="42.5" y="186.9951">org.jgrapes.io</text></a><a target="_parent" xlink:actuate="onRequest" xlink:href="org/jgrapes/http/package-summary.html#package.description" xlink:show="new" xlink:title="org/jgrapes/http/package-summary.html#package.description" xlink:type="simple"><polygon fill="#FFFFFF" filter="url(#f4xcz4c)" points="205,172,341,172,348,194.2969,355,194.2969,355,224.5938,205,224.5938,205,172" style="stroke: #000000; stroke-width: 2.0;"/><line style="stroke: #000000; stroke-width: 2.0;" x1="205" x2="348" y1="194.2969" y2="194.2969"/><text fill="#000000" font-family="sans-serif" font-size="14" font-weight="bold" lengthAdjust="spacingAndGlyphs" textLength="130" x="209" y="186.9951">org.jgrapes.http</text></a><a target="_parent" xlink:actuate="onRequest" xlink:href="org/jgrapes/portal/package-summary.html#package.description" xlink:show="new" xlink:title="org/jgrapes/portal/package-summary.html#package.description" xlink:type="simple"><polygon fill="#FFFFFF" filter="url(#f4xcz4c)" points="198,285,348,285,355,307.2969,362,307.2969,362,337.5938,198,337.5938,198,285" style="stroke: #000000; stroke-width: 2.0;"/><line style="stroke: #000000; stroke-width: 2.0;" x1="198" x2="355" y1="307.2969" y2="307.2969"/><text fill="#000000" font-family="sans-serif" font-size="14" font-weight="bold" lengthAdjust="spacingAndGlyphs" textLength="144" x="202" y="299.9951">org.jgrapes.portal</text></a><polygon fill="#FFFFFF" filter="url(#f4xcz4c)" points="159.5,398,386.5,398,393.5,420.2969,400.5,420.2969,400.5,450.5938,159.5,450.5938,159.5,398" style="stroke: #000000; stroke-width: 2.0;"/><line style="stroke: #000000; stroke-width: 2.0;" x1="159.5" x2="393.5" y1="420.2969" y2="420.2969"/><text fill="#000000" font-family="sans-serif" font-size="14" font-weight="bold" lengthAdjust="spacingAndGlyphs" textLength="221" x="163.5" y="412.9951">org.jgrapes.portal.themes.*</text><path d="M233.9507,115.0657 C206.5167,132.6796 171.9817,154.8526 145.4102,171.9128 " fill="none" style="stroke: #A80036; stroke-width: 1.0; stroke-dasharray: 7.0,7.0;"/><polygon fill="#A80036" points="238.2905,112.2794,228.556,113.776,234.0831,114.9808,232.8783,120.5079,238.2905,112.2794" style="stroke: #A80036; stroke-width: 1.0;"/><path d="M327.6191,115.0657 C355.9884,132.6796 391.7007,154.8526 419.1781,171.9128 " fill="none" style="stroke: #A80036; stroke-width: 1.0; stroke-dasharray: 7.0,7.0;"/><polygon fill="#A80036" points="323.1315,112.2794,328.6677,120.425,327.3793,114.9168,332.8875,113.6285,323.1315,112.2794" style="stroke: #A80036; stroke-width: 1.0;"/><path d="M280,117.4849 C280,134.6766 280,155.6249 280,171.9128 " fill="none" style="stroke: #A80036; stroke-width: 1.0; stroke-dasharray: 7.0,7.0;"/><polygon fill="#A80036" points="280,112.2794,276,121.2794,280,117.2794,284,121.2794,280,112.2794" style="stroke: #A80036; stroke-width: 1.0;"/><path d="M174.8387,198.5 C184.749,198.5 194.6594,198.5 204.5697,198.5 " fill="none" style="stroke: #A80036; stroke-width: 1.0; stroke-dasharray: 7.0,7.0;"/><polygon fill="#A80036" points="169.6563,198.5,178.6563,202.5,174.6563,198.5,178.6563,194.5,169.6563,198.5" style="stroke: #A80036; stroke-width: 1.0;"/><path d="M280,230.4849 C280,247.6766 280,268.6249 280,284.9128 " fill="none" style="stroke: #A80036; stroke-width: 1.0; stroke-dasharray: 7.0,7.0;"/><polygon fill="#A80036" points="280,225.2794,276,234.2794,280,230.2794,284,234.2794,280,225.2794" style="stroke: #A80036; stroke-width: 1.0;"/><path d="M280,343.4849 C280,360.6766 280,381.6249 280,397.9128 " fill="none" style="stroke: #A80036; stroke-width: 1.0; stroke-dasharray: 7.0,7.0;"/><polygon fill="#A80036" points="280,338.2794,276,347.2794,280,343.2794,284,347.2794,280,338.2794" style="stroke: #A80036; stroke-width: 1.0;"/></g></svg>