<?xml version="1.0" encoding="UTF-8" standalone="yes"?><svg xmlns="http://www.w3.org/2000/svg" xmlns:xlink="http://www.w3.org/1999/xlink" height="280px" style="width:374px;height:280px;" version="1.1" viewBox="0 0 374 280" width="374px"><defs><filter height="300%" id="f1" width="300%" x="-1" y="-1"><feGaussianBlur result="blurOut" stdDeviation="2.0"/><feColorMatrix in="blurOut" result="blurOut2" type="matrix" values="0 0 0 0 0 0 0 0 0 0 0 0 0 0 0 0 0 0 .4 0"/><feOffset dx="4.0" dy="4.0" in="blurOut2" result="blurOut3"/><feBlend in="SourceGraphic" in2="blurOut3" mode="normal"/></filter></defs><g><polygon fill="#FFFFFF" filter="url(#f1)" points="22,24,119,24,126,46.2969,367,46.2969,367,273,22,273,22,24" style="stroke: #000000; stroke-width: 2.0;"/><line style="stroke: #000000; stroke-width: 2.0;" x1="22" x2="126" y1="46.2969" y2="46.2969"/><text fill="#000000" font-family="sans-serif" font-size="14" font-weight="bold" lengthAdjust="spacingAndGlyphs" textLength="91" x="26" y="38.9951">org.jgrapes</text><polygon fill="#FFFFFF" filter="url(#f1)" points="118,59,256,59,263,81.2969,270,81.2969,270,127.8906,118,127.8906,118,59" style="stroke: #000000; stroke-width: 2.0;"/><line style="stroke: #000000; stroke-width: 2.0;" x1="118" x2="263" y1="81.2969" y2="81.2969"/><text fill="#000000" font-family="sans-serif" font-size="14" font-weight="bold" lengthAdjust="spacingAndGlyphs" textLength="132" x="122" y="73.9951">org.jgrapes.core</text><polygon fill="#FFFFFF" filter="url(#f1)" points="38,188,154,188,161,210.2969,168,210.2969,168,256.8906,38,256.8906,38,188" style="stroke: #000000; stroke-width: 2.0;"/><line style="stroke: #000000; stroke-width: 2.0;" x1="38" x2="161" y1="210.2969" y2="210.2969"/><text fill="#000000" font-family="sans-serif" font-size="14" font-weight="bold" lengthAdjust="spacingAndGlyphs" textLength="110" x="42" y="202.9951">org.jgrapes.io</text><polygon fill="#FFFFFF" filter="url(#f1)" points="203,188,337,188,344,210.2969,351,210.2969,351,256.8906,203,256.8906,203,188" style="stroke: #000000; stroke-width: 2.0;"/><line style="stroke: #000000; stroke-width: 2.0;" x1="203" x2="344" y1="210.2969" y2="210.2969"/><text fill="#000000" font-family="sans-serif" font-size="14" font-weight="bold" lengthAdjust="spacingAndGlyphs" textLength="128" x="207" y="202.9951">org.jgrapes.http</text><path d="M166.714,132.581 C154.169,150.088 139.412,170.684 127.26,187.642 " fill="none" style="stroke: #A80036; stroke-width: 1.0; stroke-dasharray: 7.0,7.0;"/><polygon fill="#A80036" points="169.853,128.2,161.359,133.1851,166.9403,132.264,167.8614,137.8454,169.853,128.2" style="stroke: #A80036; stroke-width: 1.0;"/><path d="M218.887,132.581 C230.329,150.088 243.789,170.684 254.873,187.642 " fill="none" style="stroke: #A80036; stroke-width: 1.0; stroke-dasharray: 7.0,7.0;"/><polygon fill="#A80036" points="216.025,128.2,217.6006,137.922,218.7605,132.3854,224.2971,133.5453,216.025,128.2" style="stroke: #A80036; stroke-width: 1.0;"/><path d="M173.358,222.5 C183.125,222.5 192.892,222.5 202.659,222.5 " fill="none" style="stroke: #A80036; stroke-width: 1.0; stroke-dasharray: 7.0,7.0;"/><polygon fill="#A80036" points="168.25,222.5,177.25,226.5,173.25,222.5,177.25,218.5,168.25,222.5" style="stroke: #A80036; stroke-width: 1.0;"/></g></svg>