<?xml version="1.0" encoding="UTF-8" standalone="no"?><svg xmlns="http://www.w3.org/2000/svg" xmlns:xlink="http://www.w3.org/1999/xlink" contentScriptType="application/ecmascript" contentStyleType="text/css" height="385px" preserveAspectRatio="none" style="width:580px;height:385px;" version="1.1" viewBox="0 0 580 385" width="580px" zoomAndPan="magnify"><defs><filter height="300%" id="f115ia0z1rez2k" width="300%" x="-1" y="-1"><feGaussianBlur result="blurOut" stdDeviation="2.0"/><feColorMatrix in="blurOut" result="blurOut2" type="matrix" values="0 0 0 0 0 0 0 0 0 0 0 0 0 0 0 0 0 0 .4 0"/><feOffset dx="4.0" dy="4.0" in="blurOut2" result="blurOut3"/><feBlend in="SourceGraphic" in2="blurOut3" mode="normal"/></filter></defs><g><!--cluster org.jgrapes.http--><polygon fill="#FFFFFF" filter="url(#f115ia0z1rez2k)" points="263,24,397,24,404,46.2969,407,46.2969,407,123,263,123,263,24" style="stroke: #000000; stroke-width: 2.0;"/><line style="stroke: #000000; stroke-width: 2.0;" x1="263" x2="404" y1="46.2969" y2="46.2969"/><text fill="#000000" font-family="sans-serif" font-size="14" font-weight="bold" lengthAdjust="spacingAndGlyphs" textLength="128" x="267" y="38.9951">org.jgrapes.http</text><!--class Session--><rect fill="#FEFECE" filter="url(#f115ia0z1rez2k)" height="48" id="Session" style="stroke: #A80036; stroke-width: 1.5;" width="81" x="281.5" y="59"/><ellipse cx="296.5" cy="75" fill="#ADD1B2" rx="11" ry="11" style="stroke: #A80036; stroke-width: 1.0;"/><path d="M299.4688,80.6406 Q298.8906,80.9375 298.25,81.0859 Q297.6094,81.2344 296.9063,81.2344 Q294.4063,81.2344 293.0859,79.5859 Q291.7656,77.9375 291.7656,74.8125 Q291.7656,71.6875 293.0859,70.0313 Q294.4063,68.375 296.9063,68.375 Q297.6094,68.375 298.2578,68.5313 Q298.9063,68.6875 299.4688,68.9844 L299.4688,71.7031 Q298.8438,71.125 298.25,70.8516 Q297.6563,70.5781 297.0313,70.5781 Q295.6875,70.5781 295,71.6484 Q294.3125,72.7188 294.3125,74.8125 Q294.3125,76.9063 295,77.9766 Q295.6875,79.0469 297.0313,79.0469 Q297.6563,79.0469 298.25,78.7734 Q298.8438,78.5 299.4688,77.9219 L299.4688,80.6406 Z "/><text fill="#000000" font-family="sans-serif" font-size="12" lengthAdjust="spacingAndGlyphs" textLength="49" x="310.5" y="79.1543">Session</text><line style="stroke: #A80036; stroke-width: 1.5;" x1="282.5" x2="361.5" y1="91" y2="91"/><line style="stroke: #A80036; stroke-width: 1.5;" x1="282.5" x2="361.5" y1="99" y2="99"/><!--class ConsoleSession--><rect fill="#FEFECE" filter="url(#f115ia0z1rez2k)" height="188.8516" id="ConsoleSession" style="stroke: #A80036; stroke-width: 1.5;" width="458" x="6" y="186"/><ellipse cx="181.25" cy="202" fill="#ADD1B2" rx="11" ry="11" style="stroke: #A80036; stroke-width: 1.0;"/><path d="M184.2188,207.6406 Q183.6406,207.9375 183,208.0859 Q182.3594,208.2344 181.6563,208.2344 Q179.1563,208.2344 177.8359,206.5859 Q176.5156,204.9375 176.5156,201.8125 Q176.5156,198.6875 177.8359,197.0313 Q179.1563,195.375 181.6563,195.375 Q182.3594,195.375 183.0078,195.5313 Q183.6563,195.6875 184.2188,195.9844 L184.2188,198.7031 Q183.5938,198.125 183,197.8516 Q182.4063,197.5781 181.7813,197.5781 Q180.4375,197.5781 179.75,198.6484 Q179.0625,199.7188 179.0625,201.8125 Q179.0625,203.9063 179.75,204.9766 Q180.4375,206.0469 181.7813,206.0469 Q182.4063,206.0469 183,205.7734 Q183.5938,205.5 184.2188,204.9219 L184.2188,207.6406 Z "/><text fill="#000000" font-family="sans-serif" font-size="12" lengthAdjust="spacingAndGlyphs" textLength="99" x="201.75" y="206.1543">ConsoleSession</text><line style="stroke: #A80036; stroke-width: 1.5;" x1="7" x2="463" y1="218" y2="218"/><rect fill="none" height="6" style="stroke: #C82930; stroke-width: 1.0;" width="6" x="14" y="226.9023"/><text fill="#000000" font-family="sans-serif" font-size="11" lengthAdjust="spacingAndGlyphs" text-decoration="underline" textLength="261" x="26" y="232.2104">Map&lt;String,ConsoleSession&gt; portalSessions</text><line style="stroke: #000000; stroke-width: 1.0;" x1="26" x2="287" y1="234.2104" y2="234.2104"/><line style="stroke: #A80036; stroke-width: 1.5;" x1="7" x2="463" y1="238.8047" y2="238.8047"/><ellipse cx="17" cy="250.707" fill="#84BE84" rx="3" ry="3" style="stroke: #038048; stroke-width: 1.0;"/><text fill="#000000" font-family="sans-serif" font-size="11" lengthAdjust="spacingAndGlyphs" text-decoration="underline" textLength="432" x="26" y="253.0151">findOrCreate(String portalSessionId, Manager component): ConsoleSession</text><line style="stroke: #000000; stroke-width: 1.0;" x1="26" x2="458" y1="255.0151" y2="255.0151"/><ellipse cx="17" cy="263.5117" fill="#84BE84" rx="3" ry="3" style="stroke: #038048; stroke-width: 1.0;"/><text fill="#000000" font-family="sans-serif" font-size="11" lengthAdjust="spacingAndGlyphs" textLength="247" x="26" y="265.8198">setTimeout(timeout: long): ConsoleSession</text><ellipse cx="17" cy="276.3164" fill="#84BE84" rx="3" ry="3" style="stroke: #038048; stroke-width: 1.0;"/><text fill="#000000" font-family="sans-serif" font-size="11" lengthAdjust="spacingAndGlyphs" textLength="81" x="26" y="278.6245">refresh(): void</text><ellipse cx="17" cy="289.1211" fill="#84BE84" rx="3" ry="3" style="stroke: #038048; stroke-width: 1.0;"/><text fill="#000000" font-family="sans-serif" font-size="11" lengthAdjust="spacingAndGlyphs" textLength="411" x="26" y="291.4292">setUpstreamChannel(IOSubchannel upstreamChannel): ConsoleSession</text><ellipse cx="17" cy="301.9258" fill="#84BE84" rx="3" ry="3" style="stroke: #038048; stroke-width: 1.0;"/><text fill="#000000" font-family="sans-serif" font-size="11" lengthAdjust="spacingAndGlyphs" textLength="315" x="26" y="304.2339">setSession(Session browserSession): ConsoleSession</text><ellipse cx="17" cy="314.7305" fill="#84BE84" rx="3" ry="3" style="stroke: #038048; stroke-width: 1.0;"/><text fill="#000000" font-family="sans-serif" font-size="11" lengthAdjust="spacingAndGlyphs" textLength="260" x="26" y="317.0386">upstreamChannel(): Optional&lt;IOSubchannel&gt;</text><ellipse cx="17" cy="327.5352" fill="#84BE84" rx="3" ry="3" style="stroke: #038048; stroke-width: 1.0;"/><text fill="#000000" font-family="sans-serif" font-size="11" lengthAdjust="spacingAndGlyphs" textLength="139" x="26" y="329.8433">portalSessionId(): String</text><ellipse cx="17" cy="340.3398" fill="#84BE84" rx="3" ry="3" style="stroke: #038048; stroke-width: 1.0;"/><text fill="#000000" font-family="sans-serif" font-size="11" lengthAdjust="spacingAndGlyphs" textLength="155" x="26" y="342.6479">browserSession(): Session</text><ellipse cx="17" cy="353.1445" fill="#84BE84" rx="3" ry="3" style="stroke: #038048; stroke-width: 1.0;"/><text fill="#000000" font-family="sans-serif" font-size="11" lengthAdjust="spacingAndGlyphs" textLength="85" x="26" y="355.4526">locale(): Locale</text><ellipse cx="17" cy="365.9492" fill="#84BE84" rx="3" ry="3" style="stroke: #038048; stroke-width: 1.0;"/><text fill="#000000" font-family="sans-serif" font-size="11" lengthAdjust="spacingAndGlyphs" textLength="166" x="26" y="368.2573">setLocale(Locale locale): void</text><!--class IOSubchannel--><rect fill="#FEFECE" filter="url(#f115ia0z1rez2k)" height="48" id="IOSubchannel" style="stroke: #A80036; stroke-width: 1.5;" width="118" x="128" y="59"/><ellipse cx="143" cy="75" fill="#B4A7E5" rx="11" ry="11" style="stroke: #A80036; stroke-width: 1.0;"/><path d="M138.9219,70.7656 L138.9219,68.6094 L146.3125,68.6094 L146.3125,70.7656 L143.8438,70.7656 L143.8438,78.8438 L146.3125,78.8438 L146.3125,81 L138.9219,81 L138.9219,78.8438 L141.3906,78.8438 L141.3906,70.7656 L138.9219,70.7656 Z "/><text fill="#000000" font-family="sans-serif" font-size="12" font-style="italic" lengthAdjust="spacingAndGlyphs" textLength="86" x="157" y="79.1543">IOSubchannel</text><line style="stroke: #A80036; stroke-width: 1.5;" x1="129" x2="245" y1="91" y2="91"/><line style="stroke: #A80036; stroke-width: 1.5;" x1="129" x2="245" y1="99" y2="99"/><!--link IOSubchannel to ConsoleSession--><path d="M197.517,126.833 C201.799,144.274 206.929,165.168 211.999,185.819 " fill="none" id="IOSubchannel-ConsoleSession" style="stroke: #A80036; stroke-width: 1.0; stroke-dasharray: 7.0,7.0;"/><polygon fill="none" points="190.666,128.286,192.695,107.194,204.262,124.948,190.666,128.286" style="stroke: #A80036; stroke-width: 1.0;"/><!--link ConsoleSession to ConsoleSession--><path d="M476.897,263.697 C490.737,267.749 499,273.35 499,280.5 C499,289.6523 485.462,296.2663 464.018,300.342 " fill="none" id="ConsoleSession-ConsoleSession" style="stroke: #A80036; stroke-width: 1.0;"/><polygon fill="#A80036" points="464.018,260.658,468.939,265.9291,475.6972,263.414,470.7763,258.1429,464.018,260.658" style="stroke: #A80036; stroke-width: 1.0;"/><text fill="#000000" font-family="sans-serif" font-size="13" lengthAdjust="spacingAndGlyphs" textLength="63" x="505" y="285.0669">maintains</text><text fill="#000000" font-family="sans-serif" font-size="13" lengthAdjust="spacingAndGlyphs" textLength="8" x="471.6639" y="256.8323">1</text><text fill="#000000" font-family="sans-serif" font-size="13" lengthAdjust="spacingAndGlyphs" textLength="7" x="471.6475" y="297.8185">*</text><!--link Session to ConsoleSession--><path d="M309.542,111.994 C300.838,131.554 288.672,158.892 276.689,185.819 " fill="none" id="Session-ConsoleSession" style="stroke: #A80036; stroke-width: 1.0;"/><polygon fill="#A80036" points="311.678,107.194,304.3639,113.7897,309.6448,111.7619,311.6726,117.0429,311.678,107.194" style="stroke: #A80036; stroke-width: 1.0;"/><text fill="#000000" font-family="sans-serif" font-size="13" lengthAdjust="spacingAndGlyphs" textLength="102" x="297" y="152.0669">browser session</text><text fill="#000000" font-family="sans-serif" font-size="13" lengthAdjust="spacingAndGlyphs" textLength="8" x="300.187" y="127.0025">1</text><text fill="#000000" font-family="sans-serif" font-size="13" lengthAdjust="spacingAndGlyphs" textLength="7" x="272.6128" y="175.0734">*</text><!--
@startuml
class ConsoleSession {
  -{static}Map<String,ConsoleSession> portalSessions
  +{static}findOrCreate(String portalSessionId, Manager component): ConsoleSession
  +setTimeout(timeout: long): ConsoleSession
  +refresh(): void
  +setUpstreamChannel(IOSubchannel upstreamChannel): ConsoleSession
  +setSession(Session browserSession): ConsoleSession
  +upstreamChannel(): Optional<IOSubchannel>
  +portalSessionId(): String
  +browserSession(): Session
  +locale(): Locale
  +setLocale(Locale locale): void
 }
 Interface IOSubchannel {
 }
 IOSubchannel <|.. ConsoleSession

 ConsoleSession "1" *- - "*" ConsoleSession : maintains
 
 package org.jgrapes.http {
     class Session
 }
 
 ConsoleSession "*" -up-> "1" Session: browser session
@enduml

PlantUML version 1.2017.18(Fri Oct 06 16:56:32 UTC 2017)
(GPL source distribution)
Java Runtime: OpenJDK Runtime Environment
JVM: OpenJDK 64-Bit Server VM
Java Version: 1.8.0_222-8u222-b10-1ubuntu1~16.04.1-b10
Operating System: Linux
OS Version: 4.15.0-1050-gcp
Default Encoding: UTF-8
Language: en
Country: US
--></g></svg>