<?xml version="1.0" encoding="UTF-8" standalone="no"?><svg xmlns="http://www.w3.org/2000/svg" xmlns:xlink="http://www.w3.org/1999/xlink" contentScriptType="application/ecmascript" contentStyleType="text/css" height="528px" preserveAspectRatio="none" style="width:761px;height:528px;" version="1.1" viewBox="0 0 761 528" width="761px" zoomAndPan="magnify"><defs><filter height="300%" id="f1hnrwhcb86gkr" width="300%" x="-1" y="-1"><feGaussianBlur result="blurOut" stdDeviation="2.0"/><feColorMatrix in="blurOut" result="blurOut2" type="matrix" values="0 0 0 0 0 0 0 0 0 0 0 0 0 0 0 0 0 0 .4 0"/><feOffset dx="4.0" dy="4.0" in="blurOut2" result="blurOut3"/><feBlend in="SourceGraphic" in2="blurOut3" mode="normal"/></filter></defs><g><rect fill="#FFFFFF" filter="url(#f1hnrwhcb86gkr)" height="29.1328" style="stroke: #A80036; stroke-width: 1.0;" width="10" x="197.5" y="117.2969"/><rect fill="#FFFFFF" filter="url(#f1hnrwhcb86gkr)" height="29.1328" style="stroke: #A80036; stroke-width: 1.0;" width="10" x="197.5" y="262.9609"/><rect fill="#FFFFFF" filter="url(#f1hnrwhcb86gkr)" height="29.1328" style="stroke: #A80036; stroke-width: 1.0;" width="10" x="197.5" y="374.4922"/><rect fill="#FFFFFF" filter="url(#f1hnrwhcb86gkr)" height="29.1328" style="stroke: #A80036; stroke-width: 1.0;" width="10" x="197.5" y="439.7578"/><rect fill="#FFFFFF" filter="url(#f1hnrwhcb86gkr)" height="58.2656" style="stroke: #A80036; stroke-width: 1.0;" width="10" x="377.5" y="146.4297"/><rect fill="#FFFFFF" filter="url(#f1hnrwhcb86gkr)" height="184.9297" style="stroke: #A80036; stroke-width: 1.0;" width="10" x="377.5" y="233.8281"/><rect fill="#FFFFFF" filter="url(#f1hnrwhcb86gkr)" height="29.1328" style="stroke: #A80036; stroke-width: 1.0;" width="10" x="377.5" y="468.8906"/><rect fill="#FFFFFF" filter="url(#f1hnrwhcb86gkr)" height="29.1328" style="stroke: #A80036; stroke-width: 1.0;" width="10" x="547.5" y="175.5625"/><rect fill="#FFFFFF" filter="url(#f1hnrwhcb86gkr)" height="29.1328" style="stroke: #A80036; stroke-width: 1.0;" width="10" x="699" y="345.3594"/><rect fill="#FFFFFF" filter="url(#f1hnrwhcb86gkr)" height="104.5313" style="stroke: #000000; stroke-width: 2.0;" width="737" x="13" y="307.2266"/><line style="stroke: #A80036; stroke-width: 1.0; stroke-dasharray: 5.0,5.0;" x1="60" x2="60" y1="86.2969" y2="516.1563"/><line style="stroke: #A80036; stroke-width: 1.0; stroke-dasharray: 5.0,5.0;" x1="202.5" x2="202.5" y1="86.2969" y2="516.1563"/><line style="stroke: #A80036; stroke-width: 1.0; stroke-dasharray: 5.0,5.0;" x1="382" x2="382" y1="86.2969" y2="516.1563"/><line style="stroke: #A80036; stroke-width: 1.0; stroke-dasharray: 5.0,5.0;" x1="552" x2="552" y1="86.2969" y2="516.1563"/><line style="stroke: #A80036; stroke-width: 1.0; stroke-dasharray: 5.0,5.0;" x1="629" x2="629" y1="86.2969" y2="516.1563"/><line style="stroke: #A80036; stroke-width: 1.0; stroke-dasharray: 5.0,5.0;" x1="704" x2="704" y1="86.2969" y2="516.1563"/><rect fill="#FEFECE" filter="url(#f1hnrwhcb86gkr)" height="30.2969" style="stroke: #A80036; stroke-width: 1.5;" width="71" x="23" y="51"/><text fill="#000000" font-family="sans-serif" font-size="14" lengthAdjust="spacingAndGlyphs" textLength="57" x="30" y="70.9951">Browser</text><rect fill="#FEFECE" filter="url(#f1hnrwhcb86gkr)" height="30.2969" style="stroke: #A80036; stroke-width: 1.5;" width="102" x="149.5" y="51"/><text fill="#000000" font-family="sans-serif" font-size="14" lengthAdjust="spacingAndGlyphs" textLength="88" x="156.5" y="70.9951">WebConsole</text><rect fill="#FEFECE" filter="url(#f1hnrwhcb86gkr)" height="30.2969" style="stroke: #A80036; stroke-width: 1.5;" width="209" x="276" y="51"/><text fill="#000000" font-family="sans-serif" font-size="14" lengthAdjust="spacingAndGlyphs" textLength="195" x="283" y="70.9951">KVStoreBasedConsolePolicy</text><rect fill="#FEFECE" filter="url(#f1hnrwhcb86gkr)" height="30.2969" style="stroke: #A80036; stroke-width: 1.5;" width="73" x="514" y="51"/><text fill="#000000" font-family="sans-serif" font-size="14" lengthAdjust="spacingAndGlyphs" textLength="59" x="521" y="70.9951">KV Store</text><text fill="#000000" font-family="sans-serif" font-size="14" lengthAdjust="spacingAndGlyphs" textLength="51" x="601" y="82.9951">System</text><ellipse cx="629.5" cy="13" fill="#FEFECE" filter="url(#f1hnrwhcb86gkr)" rx="8" ry="8" style="stroke: #A80036; stroke-width: 2.0;"/><path d="M629.5,21 L629.5,48 M616.5,29 L642.5,29 M629.5,48 L616.5,63 M629.5,48 L642.5,63 " fill="#FEFECE" filter="url(#f1hnrwhcb86gkr)" style="stroke: #A80036; stroke-width: 2.0;"/><rect fill="#FEFECE" filter="url(#f1hnrwhcb86gkr)" height="30.2969" style="stroke: #A80036; stroke-width: 1.5;" width="68" x="668" y="51"/><text fill="#000000" font-family="sans-serif" font-size="14" lengthAdjust="spacingAndGlyphs" textLength="54" x="675" y="70.9951">PortletX</text><rect fill="#FFFFFF" filter="url(#f1hnrwhcb86gkr)" height="29.1328" style="stroke: #A80036; stroke-width: 1.0;" width="10" x="197.5" y="117.2969"/><rect fill="#FFFFFF" filter="url(#f1hnrwhcb86gkr)" height="29.1328" style="stroke: #A80036; stroke-width: 1.0;" width="10" x="197.5" y="262.9609"/><rect fill="#FFFFFF" filter="url(#f1hnrwhcb86gkr)" height="29.1328" style="stroke: #A80036; stroke-width: 1.0;" width="10" x="197.5" y="374.4922"/><rect fill="#FFFFFF" filter="url(#f1hnrwhcb86gkr)" height="29.1328" style="stroke: #A80036; stroke-width: 1.0;" width="10" x="197.5" y="439.7578"/><rect fill="#FFFFFF" filter="url(#f1hnrwhcb86gkr)" height="58.2656" style="stroke: #A80036; stroke-width: 1.0;" width="10" x="377.5" y="146.4297"/><rect fill="#FFFFFF" filter="url(#f1hnrwhcb86gkr)" height="184.9297" style="stroke: #A80036; stroke-width: 1.0;" width="10" x="377.5" y="233.8281"/><rect fill="#FFFFFF" filter="url(#f1hnrwhcb86gkr)" height="29.1328" style="stroke: #A80036; stroke-width: 1.0;" width="10" x="377.5" y="468.8906"/><rect fill="#FFFFFF" filter="url(#f1hnrwhcb86gkr)" height="29.1328" style="stroke: #A80036; stroke-width: 1.0;" width="10" x="547.5" y="175.5625"/><rect fill="#FFFFFF" filter="url(#f1hnrwhcb86gkr)" height="29.1328" style="stroke: #A80036; stroke-width: 1.0;" width="10" x="699" y="345.3594"/><polygon fill="#A80036" points="185.5,113.2969,195.5,117.2969,185.5,121.2969,189.5,117.2969" style="stroke: #A80036; stroke-width: 1.0;"/><line style="stroke: #A80036; stroke-width: 1.0;" x1="60.5" x2="191.5" y1="117.2969" y2="117.2969"/><text fill="#000000" font-family="sans-serif" font-size="13" lengthAdjust="spacingAndGlyphs" textLength="86" x="67.5" y="112.3638">"portalReady"</text><polygon fill="#A80036" points="365.5,142.4297,375.5,146.4297,365.5,150.4297,369.5,146.4297" style="stroke: #A80036; stroke-width: 1.0;"/><line style="stroke: #A80036; stroke-width: 1.0;" x1="202.5" x2="371.5" y1="146.4297" y2="146.4297"/><text fill="#000000" font-family="sans-serif" font-size="13" lengthAdjust="spacingAndGlyphs" textLength="90" x="209.5" y="141.4966">ConsoleReady</text><polygon fill="#A80036" points="535.5,171.5625,545.5,175.5625,535.5,179.5625,539.5,175.5625" style="stroke: #A80036; stroke-width: 1.0;"/><line style="stroke: #A80036; stroke-width: 1.0;" x1="387.5" x2="541.5" y1="175.5625" y2="175.5625"/><text fill="#000000" font-family="sans-serif" font-size="13" lengthAdjust="spacingAndGlyphs" textLength="132" x="394.5" y="170.6294">KeyValueStoreQuery</text><polygon fill="#A80036" points="393.5,200.6953,383.5,204.6953,393.5,208.6953,389.5,204.6953" style="stroke: #A80036; stroke-width: 1.0;"/><line style="stroke: #A80036; stroke-width: 1.0;" x1="387.5" x2="551.5" y1="204.6953" y2="204.6953"/><text fill="#000000" font-family="sans-serif" font-size="13" lengthAdjust="spacingAndGlyphs" textLength="125" x="399.5" y="199.7622">KeyValueStoreData</text><polygon fill="#A80036" points="398.5,229.8281,388.5,233.8281,398.5,237.8281,394.5,233.8281" style="stroke: #A80036; stroke-width: 1.0;"/><line style="stroke: #A80036; stroke-width: 1.0;" x1="392.5" x2="628.5" y1="233.8281" y2="233.8281"/><text fill="#000000" font-family="sans-serif" font-size="13" lengthAdjust="spacingAndGlyphs" textLength="109" x="404.5" y="228.895">ConsolePrepared</text><polygon fill="#A80036" points="218.5,258.9609,208.5,262.9609,218.5,266.9609,214.5,262.9609" style="stroke: #A80036; stroke-width: 1.0;"/><line style="stroke: #A80036; stroke-width: 1.0;" x1="212.5" x2="376.5" y1="262.9609" y2="262.9609"/><text fill="#000000" font-family="sans-serif" font-size="13" lengthAdjust="spacingAndGlyphs" textLength="121" x="224.5" y="258.0278">LastConsoleLayout</text><polygon fill="#A80036" points="71.5,288.0938,61.5,292.0938,71.5,296.0938,67.5,292.0938" style="stroke: #A80036; stroke-width: 1.0;"/><line style="stroke: #A80036; stroke-width: 1.0;" x1="65.5" x2="201.5" y1="292.0938" y2="292.0938"/><text fill="#000000" font-family="sans-serif" font-size="13" lengthAdjust="spacingAndGlyphs" textLength="113" x="77.5" y="287.1606">"lastPortalLayout"</text><rect fill="none" height="104.5313" style="stroke: #000000; stroke-width: 2.0;" width="737" x="13" y="307.2266"/><polygon fill="#EEEEEE" points="13,307.2266,90,307.2266,90,314.2266,80,324.2266,13,324.2266,13,307.2266" style="stroke: #000000; stroke-width: 2.0;"/><text fill="#000000" font-family="sans-serif" font-size="13" font-weight="bold" lengthAdjust="spacingAndGlyphs" textLength="32" x="28" y="320.2935">loop</text><text fill="#000000" font-family="sans-serif" font-size="11" font-weight="bold" lengthAdjust="spacingAndGlyphs" textLength="205" x="105" y="319.437">[for all portlets to be displayed]</text><polygon fill="#A80036" points="687,341.3594,697,345.3594,687,349.3594,691,345.3594" style="stroke: #A80036; stroke-width: 1.0;"/><line style="stroke: #A80036; stroke-width: 1.0;" x1="387.5" x2="693" y1="345.3594" y2="345.3594"/><text fill="#000000" font-family="sans-serif" font-size="13" lengthAdjust="spacingAndGlyphs" textLength="172" x="394.5" y="340.4263">RenderComponentRequest</text><polygon fill="#A80036" points="218.5,370.4922,208.5,374.4922,218.5,378.4922,214.5,374.4922" style="stroke: #A80036; stroke-width: 1.0;"/><line style="stroke: #A80036; stroke-width: 1.0;" x1="212.5" x2="703" y1="374.4922" y2="374.4922"/><text fill="#000000" font-family="sans-serif" font-size="13" lengthAdjust="spacingAndGlyphs" textLength="120" x="224.5" y="369.5591">RenderComponent</text><polygon fill="#A80036" points="71.5,399.625,61.5,403.625,71.5,407.625,67.5,403.625" style="stroke: #A80036; stroke-width: 1.0;"/><line style="stroke: #A80036; stroke-width: 1.0;" x1="65.5" x2="201.5" y1="403.625" y2="403.625"/><text fill="#000000" font-family="sans-serif" font-size="13" lengthAdjust="spacingAndGlyphs" textLength="94" x="77.5" y="398.6919">"renderPortlet"</text><polygon fill="#A80036" points="185.5,435.7578,195.5,439.7578,185.5,443.7578,189.5,439.7578" style="stroke: #A80036; stroke-width: 1.0;"/><line style="stroke: #A80036; stroke-width: 1.0;" x1="60.5" x2="191.5" y1="439.7578" y2="439.7578"/><text fill="#000000" font-family="sans-serif" font-size="13" lengthAdjust="spacingAndGlyphs" textLength="90" x="67.5" y="434.8247">"portalLayout"</text><polygon fill="#A80036" points="365.5,464.8906,375.5,468.8906,365.5,472.8906,369.5,468.8906" style="stroke: #A80036; stroke-width: 1.0;"/><line style="stroke: #A80036; stroke-width: 1.0;" x1="202.5" x2="371.5" y1="468.8906" y2="468.8906"/><text fill="#000000" font-family="sans-serif" font-size="13" lengthAdjust="spacingAndGlyphs" textLength="151" x="209.5" y="463.9575">ConsoleLayoutChanged</text><polygon fill="#A80036" points="540.5,494.0234,550.5,498.0234,540.5,502.0234,544.5,498.0234" style="stroke: #A80036; stroke-width: 1.0;"/><line style="stroke: #A80036; stroke-width: 1.0;" x1="382.5" x2="546.5" y1="498.0234" y2="498.0234"/><text fill="#000000" font-family="sans-serif" font-size="13" lengthAdjust="spacingAndGlyphs" textLength="141" x="389.5" y="493.0903">KeyValueStoreUpdate</text><!--
@startuml
hide footbox
 
 Browser -> WebConsole: "portalReady"
 activate WebConsole
 WebConsole -> KVStoreBasedConsolePolicy: ConsoleReady
 deactivate WebConsole
 activate KVStoreBasedConsolePolicy
 KVStoreBasedConsolePolicy -> "KV Store": KeyValueStoreQuery
 activate "KV Store"
 "KV Store" -> KVStoreBasedConsolePolicy: KeyValueStoreData
 deactivate "KV Store"
 deactivate KVStoreBasedConsolePolicy
 
 actor System
 System -> KVStoreBasedConsolePolicy: ConsolePrepared
 activate KVStoreBasedConsolePolicy
 KVStoreBasedConsolePolicy -> WebConsole: LastConsoleLayout
 activate WebConsole
 WebConsole -> Browser: "lastPortalLayout"
 deactivate WebConsole
 loop for all portlets to be displayed
     KVStoreBasedConsolePolicy -> PortletX: RenderComponentRequest
     activate PortletX
     PortletX -> WebConsole: RenderComponent
     deactivate PortletX
     activate WebConsole
     WebConsole -> Browser: "renderPortlet"
     deactivate WebConsole
 end
 deactivate KVStoreBasedConsolePolicy
 
 Browser -> WebConsole: "portalLayout"
 activate WebConsole
 WebConsole -> KVStoreBasedConsolePolicy: ConsoleLayoutChanged
 deactivate WebConsole
 activate KVStoreBasedConsolePolicy
 KVStoreBasedConsolePolicy -> "KV Store": KeyValueStoreUpdate
 deactivate KVStoreBasedConsolePolicy
@enduml

PlantUML version 1.2017.18(Fri Oct 06 16:56:32 UTC 2017)
(GPL source distribution)
Java Runtime: OpenJDK Runtime Environment
JVM: OpenJDK 64-Bit Server VM
Java Version: 1.8.0_222-8u222-b10-1ubuntu1~16.04.1-b10
Operating System: Linux
OS Version: 4.15.0-1050-gcp
Default Encoding: UTF-8
Language: en
Country: US
--></g></svg>