<?xml version="1.0" encoding="UTF-8" standalone="no"?><svg xmlns="http://www.w3.org/2000/svg" xmlns:xlink="http://www.w3.org/1999/xlink" contentScriptType="application/ecmascript" contentStyleType="text/css" height="262px" preserveAspectRatio="none" style="width:417px;height:262px;" version="1.1" viewBox="0 0 417 262" width="417px" zoomAndPan="magnify"><defs><filter height="300%" id="f1uo16m6ge6267" width="300%" x="-1" y="-1"><feGaussianBlur result="blurOut" stdDeviation="2.0"/><feColorMatrix in="blurOut" result="blurOut2" type="matrix" values="0 0 0 0 0 0 0 0 0 0 0 0 0 0 0 0 0 0 .4 0"/><feOffset dx="4.0" dy="4.0" in="blurOut2" result="blurOut3"/><feBlend in="SourceGraphic" in2="blurOut3" mode="normal"/></filter></defs><g><rect fill="#FFFFFF" filter="url(#f1uo16m6ge6267)" height="21" style="stroke: #A80036; stroke-width: 1.0;" width="10" x="71" y="48.2969"/><rect fill="#FFFFFF" filter="url(#f1uo16m6ge6267)" height="170.7969" style="stroke: #A80036; stroke-width: 1.0;" width="10" x="250" y="69.2969"/><rect fill="#FFFFFF" filter="url(#f1uo16m6ge6267)" height="133.6641" style="stroke: #A80036; stroke-width: 1.0;" width="10" x="255" y="106.4297"/><rect fill="#FFFFFF" filter="url(#f1uo16m6ge6267)" height="46.2656" style="stroke: #000000; stroke-width: 2.0;" width="330.5" x="13" y="126.5625"/><rect fill="#FFFFFF" filter="url(#f1uo16m6ge6267)" height="46.2656" style="stroke: #000000; stroke-width: 2.0;" width="330.5" x="13" y="186.8281"/><line style="stroke: #A80036; stroke-width: 1.0; stroke-dasharray: 5.0,5.0;" x1="76" x2="76" y1="38.2969" y2="250.0938"/><line style="stroke: #A80036; stroke-width: 1.0; stroke-dasharray: 5.0,5.0;" x1="254.5" x2="254.5" y1="38.2969" y2="250.0938"/><rect fill="#FEFECE" filter="url(#f1uo16m6ge6267)" height="30.2969" style="stroke: #A80036; stroke-width: 1.5;" width="102" x="23" y="3"/><text fill="#000000" font-family="sans-serif" font-size="14" lengthAdjust="spacingAndGlyphs" textLength="88" x="30" y="22.9951">WebConsole</text><rect fill="#FEFECE" filter="url(#f1uo16m6ge6267)" height="30.2969" style="stroke: #A80036; stroke-width: 1.5;" width="153" x="176.5" y="3"/><text fill="#000000" font-family="sans-serif" font-size="14" lengthAdjust="spacingAndGlyphs" textLength="139" x="183.5" y="22.9951">ConsoleComponent</text><rect fill="#FFFFFF" filter="url(#f1uo16m6ge6267)" height="21" style="stroke: #A80036; stroke-width: 1.0;" width="10" x="71" y="48.2969"/><rect fill="#FFFFFF" filter="url(#f1uo16m6ge6267)" height="170.7969" style="stroke: #A80036; stroke-width: 1.0;" width="10" x="250" y="69.2969"/><rect fill="#FFFFFF" filter="url(#f1uo16m6ge6267)" height="133.6641" style="stroke: #A80036; stroke-width: 1.0;" width="10" x="255" y="106.4297"/><polygon fill="#A80036" points="238,65.2969,248,69.2969,238,73.2969,242,69.2969" style="stroke: #A80036; stroke-width: 1.0;"/><line style="stroke: #A80036; stroke-width: 1.0;" x1="76" x2="244" y1="69.2969" y2="69.2969"/><text fill="#000000" font-family="sans-serif" font-size="13" lengthAdjust="spacingAndGlyphs" textLength="150" x="83" y="64.3638">NotifyComponentModel</text><line style="stroke: #A80036; stroke-width: 1.0;" x1="260" x2="307" y1="93.5625" y2="93.5625"/><line style="stroke: #A80036; stroke-width: 1.0;" x1="307" x2="307" y1="93.5625" y2="106.5625"/><line style="stroke: #A80036; stroke-width: 1.0;" x1="266" x2="307" y1="106.5625" y2="106.5625"/><polygon fill="#A80036" points="276,102.5625,266,106.5625,276,110.5625,272,106.5625" style="stroke: #A80036; stroke-width: 1.0;"/><text fill="#000000" font-family="sans-serif" font-size="13" lengthAdjust="spacingAndGlyphs" textLength="133" x="272" y="88.4966">doNotifyPortletModel</text><rect fill="none" height="46.2656" style="stroke: #000000; stroke-width: 2.0;" width="330.5" x="13" y="126.5625"/><polygon fill="#EEEEEE" points="13,126.5625,83,126.5625,83,133.5625,73,143.5625,13,143.5625,13,126.5625" style="stroke: #000000; stroke-width: 2.0;"/><text fill="#000000" font-family="sans-serif" font-size="13" font-weight="bold" lengthAdjust="spacingAndGlyphs" textLength="25" x="28" y="139.6294">opt</text><polygon fill="#A80036" points="87,160.6953,77,164.6953,87,168.6953,83,164.6953" style="stroke: #A80036; stroke-width: 1.0;"/><line style="stroke: #A80036; stroke-width: 1.0;" x1="81" x2="254" y1="164.6953" y2="164.6953"/><text fill="#000000" font-family="sans-serif" font-size="13" lengthAdjust="spacingAndGlyphs" textLength="120" x="93" y="159.7622">RenderComponent</text><rect fill="none" height="46.2656" style="stroke: #000000; stroke-width: 2.0;" width="330.5" x="13" y="186.8281"/><polygon fill="#EEEEEE" points="13,186.8281,83,186.8281,83,193.8281,73,203.8281,13,203.8281,13,186.8281" style="stroke: #000000; stroke-width: 2.0;"/><text fill="#000000" font-family="sans-serif" font-size="13" font-weight="bold" lengthAdjust="spacingAndGlyphs" textLength="25" x="28" y="199.895">opt</text><polygon fill="#A80036" points="87,220.9609,77,224.9609,87,228.9609,83,224.9609" style="stroke: #A80036; stroke-width: 1.0;"/><line style="stroke: #A80036; stroke-width: 1.0;" x1="81" x2="254" y1="224.9609" y2="224.9609"/><text fill="#000000" font-family="sans-serif" font-size="13" lengthAdjust="spacingAndGlyphs" textLength="108" x="93" y="220.0278">NotifyPortletView</text><!--
@startuml
hide footbox
 
 activate WebConsole
 WebConsole -> ConsoleComponent: NotifyComponentModel
 deactivate WebConsole
 activate ConsoleComponent
 ConsoleComponent -> ConsoleComponent: doNotifyPortletModel
 activate ConsoleComponent
 opt
     ConsoleComponent -> WebConsole: RenderComponent
 end opt 
 opt 
     ConsoleComponent -> WebConsole: NotifyPortletView
 end opt 
 deactivate ConsoleComponent
 deactivate ConsoleComponent
 activate WebConsole
 deactivate WebConsole
@enduml

PlantUML version 1.2017.18(Fri Oct 06 16:56:32 UTC 2017)
(GPL source distribution)
Java Runtime: OpenJDK Runtime Environment
JVM: OpenJDK 64-Bit Server VM
Java Version: 1.8.0_222-8u222-b10-1ubuntu1~16.04.1-b10
Operating System: Linux
OS Version: 4.15.0-1050-gcp
Default Encoding: UTF-8
Language: en
Country: US
--></g></svg>