<?xml version="1.0" encoding="UTF-8" standalone="no"?><svg xmlns="http://www.w3.org/2000/svg" xmlns:xlink="http://www.w3.org/1999/xlink" contentScriptType="application/ecmascript" contentStyleType="text/css" height="679px" preserveAspectRatio="none" style="width:816px;height:679px;" version="1.1" viewBox="0 0 816 679" width="816px" zoomAndPan="magnify"><defs><filter height="300%" id="f10bzmfxi31tcq" width="300%" x="-1" y="-1"><feGaussianBlur result="blurOut" stdDeviation="2.0"/><feColorMatrix in="blurOut" result="blurOut2" type="matrix" values="0 0 0 0 0 0 0 0 0 0 0 0 0 0 0 0 0 0 .4 0"/><feOffset dx="4.0" dy="4.0" in="blurOut2" result="blurOut3"/><feBlend in="SourceGraphic" in2="blurOut3" mode="normal"/></filter></defs><g><rect fill="#FFFFFF" filter="url(#f10bzmfxi31tcq)" height="297.3281" style="stroke: #A80036; stroke-width: 1.0;" width="10" x="226.5" y="117.2969"/><rect fill="#FFFFFF" filter="url(#f10bzmfxi31tcq)" height="29.1328" style="stroke: #A80036; stroke-width: 1.0;" width="10" x="231.5" y="223.8281"/><rect fill="#FFFFFF" filter="url(#f10bzmfxi31tcq)" height="29.1328" style="stroke: #A80036; stroke-width: 1.0;" width="10" x="231.5" y="342.3594"/><rect fill="#FFFFFF" filter="url(#f10bzmfxi31tcq)" height="29.1328" style="stroke: #A80036; stroke-width: 1.0;" width="10" x="226.5" y="555.2891"/><rect fill="#FFFFFF" filter="url(#f10bzmfxi31tcq)" height="29.1328" style="stroke: #A80036; stroke-width: 1.0;" width="10" x="226.5" y="620.5547"/><rect fill="#FFFFFF" filter="url(#f10bzmfxi31tcq)" height="29.1328" style="stroke: #A80036; stroke-width: 1.0;" width="10" x="383.5" y="194.6953"/><rect fill="#FFFFFF" filter="url(#f10bzmfxi31tcq)" height="29.1328" style="stroke: #A80036; stroke-width: 1.0;" width="10" x="522" y="313.2266"/><rect fill="#FFFFFF" filter="url(#f10bzmfxi31tcq)" height="29.1328" style="stroke: #A80036; stroke-width: 1.0;" width="10" x="522" y="526.1563"/><rect fill="#FFFFFF" filter="url(#f10bzmfxi31tcq)" height="184.9297" style="stroke: #A80036; stroke-width: 1.0;" width="10" x="742" y="414.625"/><rect fill="#FFFFFF" filter="url(#f10bzmfxi31tcq)" height="254.1953" style="stroke: #000000; stroke-width: 2.0;" width="570" x="13" y="132.4297"/><rect fill="#FFFFFF" filter="url(#f10bzmfxi31tcq)" height="104.5313" style="stroke: #000000; stroke-width: 2.0;" width="468" x="23" y="156.5625"/><rect fill="#FFFFFF" filter="url(#f10bzmfxi31tcq)" height="104.5313" style="stroke: #000000; stroke-width: 2.0;" width="550" x="23" y="275.0938"/><rect fill="#FFFFFF" filter="url(#f10bzmfxi31tcq)" height="104.5313" style="stroke: #000000; stroke-width: 2.0;" width="782" x="23" y="488.0234"/><line style="stroke: #A80036; stroke-width: 1.0; stroke-dasharray: 5.0,5.0;" x1="70" x2="70" y1="86.2969" y2="667.8203"/><line style="stroke: #A80036; stroke-width: 1.0; stroke-dasharray: 5.0,5.0;" x1="231.5" x2="231.5" y1="86.2969" y2="667.8203"/><line style="stroke: #A80036; stroke-width: 1.0; stroke-dasharray: 5.0,5.0;" x1="388" x2="388" y1="86.2969" y2="667.8203"/><line style="stroke: #A80036; stroke-width: 1.0; stroke-dasharray: 5.0,5.0;" x1="527" x2="527" y1="86.2969" y2="667.8203"/><line style="stroke: #A80036; stroke-width: 1.0; stroke-dasharray: 5.0,5.0;" x1="614" x2="614" y1="86.2969" y2="667.8203"/><line style="stroke: #A80036; stroke-width: 1.0; stroke-dasharray: 5.0,5.0;" x1="747" x2="747" y1="86.2969" y2="667.8203"/><rect fill="#FEFECE" filter="url(#f10bzmfxi31tcq)" height="30.2969" style="stroke: #A80036; stroke-width: 1.5;" width="71" x="33" y="51"/><text fill="#000000" font-family="sans-serif" font-size="14" lengthAdjust="spacingAndGlyphs" textLength="57" x="40" y="70.9951">Browser</text><rect fill="#FEFECE" filter="url(#f10bzmfxi31tcq)" height="30.2969" style="stroke: #A80036; stroke-width: 1.5;" width="102" x="178.5" y="51"/><text fill="#000000" font-family="sans-serif" font-size="14" lengthAdjust="spacingAndGlyphs" textLength="88" x="185.5" y="70.9951">WebConsole</text><rect fill="#FEFECE" filter="url(#f10bzmfxi31tcq)" height="30.2969" style="stroke: #A80036; stroke-width: 1.5;" width="181" x="296" y="51"/><text fill="#000000" font-family="sans-serif" font-size="14" lengthAdjust="spacingAndGlyphs" textLength="167" x="303" y="70.9951">PageResourceProviderX</text><rect fill="#FEFECE" filter="url(#f10bzmfxi31tcq)" height="30.2969" style="stroke: #A80036; stroke-width: 1.5;" width="68" x="491" y="51"/><text fill="#000000" font-family="sans-serif" font-size="14" lengthAdjust="spacingAndGlyphs" textLength="54" x="498" y="70.9951">PortletX</text><text fill="#000000" font-family="sans-serif" font-size="14" lengthAdjust="spacingAndGlyphs" textLength="76" x="573" y="82.9951">Framework</text><ellipse cx="614" cy="13" fill="#FEFECE" filter="url(#f10bzmfxi31tcq)" rx="8" ry="8" style="stroke: #A80036; stroke-width: 2.0;"/><path d="M614,21 L614,48 M601,29 L627,29 M614,48 L601,63 M614,48 L627,63 " fill="#FEFECE" filter="url(#f10bzmfxi31tcq)" style="stroke: #A80036; stroke-width: 2.0;"/><rect fill="#FEFECE" filter="url(#f10bzmfxi31tcq)" height="30.2969" style="stroke: #A80036; stroke-width: 1.5;" width="92" x="699" y="51"/><text fill="#000000" font-family="sans-serif" font-size="14" lengthAdjust="spacingAndGlyphs" textLength="78" x="706" y="70.9951">PortalPolicy</text><rect fill="#FFFFFF" filter="url(#f10bzmfxi31tcq)" height="297.3281" style="stroke: #A80036; stroke-width: 1.0;" width="10" x="226.5" y="117.2969"/><rect fill="#FFFFFF" filter="url(#f10bzmfxi31tcq)" height="29.1328" style="stroke: #A80036; stroke-width: 1.0;" width="10" x="231.5" y="223.8281"/><rect fill="#FFFFFF" filter="url(#f10bzmfxi31tcq)" height="29.1328" style="stroke: #A80036; stroke-width: 1.0;" width="10" x="231.5" y="342.3594"/><rect fill="#FFFFFF" filter="url(#f10bzmfxi31tcq)" height="29.1328" style="stroke: #A80036; stroke-width: 1.0;" width="10" x="226.5" y="555.2891"/><rect fill="#FFFFFF" filter="url(#f10bzmfxi31tcq)" height="29.1328" style="stroke: #A80036; stroke-width: 1.0;" width="10" x="226.5" y="620.5547"/><rect fill="#FFFFFF" filter="url(#f10bzmfxi31tcq)" height="29.1328" style="stroke: #A80036; stroke-width: 1.0;" width="10" x="383.5" y="194.6953"/><rect fill="#FFFFFF" filter="url(#f10bzmfxi31tcq)" height="29.1328" style="stroke: #A80036; stroke-width: 1.0;" width="10" x="522" y="313.2266"/><rect fill="#FFFFFF" filter="url(#f10bzmfxi31tcq)" height="29.1328" style="stroke: #A80036; stroke-width: 1.0;" width="10" x="522" y="526.1563"/><rect fill="#FFFFFF" filter="url(#f10bzmfxi31tcq)" height="184.9297" style="stroke: #A80036; stroke-width: 1.0;" width="10" x="742" y="414.625"/><polygon fill="#A80036" points="214.5,113.2969,224.5,117.2969,214.5,121.2969,218.5,117.2969" style="stroke: #A80036; stroke-width: 1.0;"/><line style="stroke: #A80036; stroke-width: 1.0;" x1="70.5" x2="220.5" y1="117.2969" y2="117.2969"/><text fill="#000000" font-family="sans-serif" font-size="13" lengthAdjust="spacingAndGlyphs" textLength="86" x="77.5" y="112.3638">"portalReady"</text><rect fill="none" height="254.1953" style="stroke: #000000; stroke-width: 2.0;" width="570" x="13" y="132.4297"/><polygon fill="#EEEEEE" points="13,132.4297,83,132.4297,83,139.4297,73,149.4297,13,149.4297,13,132.4297" style="stroke: #000000; stroke-width: 2.0;"/><text fill="#000000" font-family="sans-serif" font-size="13" font-weight="bold" lengthAdjust="spacingAndGlyphs" textLength="25" x="28" y="145.4966">par</text><rect fill="none" height="104.5313" style="stroke: #000000; stroke-width: 2.0;" width="468" x="23" y="156.5625"/><polygon fill="#EEEEEE" points="23,156.5625,100,156.5625,100,163.5625,90,173.5625,23,173.5625,23,156.5625" style="stroke: #000000; stroke-width: 2.0;"/><text fill="#000000" font-family="sans-serif" font-size="13" font-weight="bold" lengthAdjust="spacingAndGlyphs" textLength="32" x="38" y="169.6294">loop</text><text fill="#000000" font-family="sans-serif" font-size="11" font-weight="bold" lengthAdjust="spacingAndGlyphs" textLength="208" x="115" y="168.7729">[for all page resource providers]</text><polygon fill="#A80036" points="371.5,190.6953,381.5,194.6953,371.5,198.6953,375.5,194.6953" style="stroke: #A80036; stroke-width: 1.0;"/><line style="stroke: #A80036; stroke-width: 1.0;" x1="236.5" x2="377.5" y1="194.6953" y2="194.6953"/><text fill="#000000" font-family="sans-serif" font-size="13" lengthAdjust="spacingAndGlyphs" textLength="90" x="243.5" y="189.7622">ConsoleReady</text><polygon fill="#A80036" points="252.5,219.8281,242.5,223.8281,252.5,227.8281,248.5,223.8281" style="stroke: #A80036; stroke-width: 1.0;"/><line style="stroke: #A80036; stroke-width: 1.0;" x1="246.5" x2="387.5" y1="223.8281" y2="223.8281"/><text fill="#000000" font-family="sans-serif" font-size="13" lengthAdjust="spacingAndGlyphs" textLength="123" x="258.5" y="218.895">AddPageResources</text><polygon fill="#A80036" points="81.5,248.9609,71.5,252.9609,81.5,256.9609,77.5,252.9609" style="stroke: #A80036; stroke-width: 1.0;"/><line style="stroke: #A80036; stroke-width: 1.0;" x1="75.5" x2="225.5" y1="252.9609" y2="252.9609"/><text fill="#000000" font-family="sans-serif" font-size="13" lengthAdjust="spacingAndGlyphs" textLength="132" x="87.5" y="248.0278">"addPageResources"</text><rect fill="none" height="104.5313" style="stroke: #000000; stroke-width: 2.0;" width="550" x="23" y="275.0938"/><polygon fill="#EEEEEE" points="23,275.0938,100,275.0938,100,282.0938,90,292.0938,23,292.0938,23,275.0938" style="stroke: #000000; stroke-width: 2.0;"/><text fill="#000000" font-family="sans-serif" font-size="13" font-weight="bold" lengthAdjust="spacingAndGlyphs" textLength="32" x="38" y="288.1606">loop</text><text fill="#000000" font-family="sans-serif" font-size="11" font-weight="bold" lengthAdjust="spacingAndGlyphs" textLength="102" x="115" y="287.3042">[for all portlets]</text><polygon fill="#A80036" points="510,309.2266,520,313.2266,510,317.2266,514,313.2266" style="stroke: #A80036; stroke-width: 1.0;"/><line style="stroke: #A80036; stroke-width: 1.0;" x1="236.5" x2="516" y1="313.2266" y2="313.2266"/><text fill="#000000" font-family="sans-serif" font-size="13" lengthAdjust="spacingAndGlyphs" textLength="90" x="243.5" y="308.2935">ConsoleReady</text><polygon fill="#A80036" points="252.5,338.3594,242.5,342.3594,252.5,346.3594,248.5,342.3594" style="stroke: #A80036; stroke-width: 1.0;"/><line style="stroke: #A80036; stroke-width: 1.0;" x1="246.5" x2="526" y1="342.3594" y2="342.3594"/><text fill="#000000" font-family="sans-serif" font-size="13" lengthAdjust="spacingAndGlyphs" textLength="130" x="258.5" y="337.4263">AddComponentType</text><polygon fill="#A80036" points="81.5,367.4922,71.5,371.4922,81.5,375.4922,77.5,371.4922" style="stroke: #A80036; stroke-width: 1.0;"/><line style="stroke: #A80036; stroke-width: 1.0;" x1="75.5" x2="225.5" y1="371.4922" y2="371.4922"/><text fill="#000000" font-family="sans-serif" font-size="13" lengthAdjust="spacingAndGlyphs" textLength="106" x="87.5" y="366.5591">"addPortletType"</text><polygon fill="#A80036" points="730,410.625,740,414.625,730,418.625,734,414.625" style="stroke: #A80036; stroke-width: 1.0;"/><line style="stroke: #A80036; stroke-width: 1.0;" x1="614" x2="736" y1="414.625" y2="414.625"/><text fill="#000000" font-family="sans-serif" font-size="13" lengthAdjust="spacingAndGlyphs" textLength="109" x="621" y="409.6919">ConsolePrepared</text><polygon fill="#A80036" points="242.5,439.7578,232.5,443.7578,242.5,447.7578,238.5,443.7578" style="stroke: #A80036; stroke-width: 1.0;"/><line style="stroke: #A80036; stroke-width: 1.0;" x1="236.5" x2="741" y1="443.7578" y2="443.7578"/><text fill="#000000" font-family="sans-serif" font-size="13" lengthAdjust="spacingAndGlyphs" textLength="121" x="248.5" y="438.8247">LastConsoleLayout</text><polygon fill="#A80036" points="81.5,468.8906,71.5,472.8906,81.5,476.8906,77.5,472.8906" style="stroke: #A80036; stroke-width: 1.0;"/><line style="stroke: #A80036; stroke-width: 1.0;" x1="75.5" x2="230.5" y1="472.8906" y2="472.8906"/><text fill="#000000" font-family="sans-serif" font-size="13" lengthAdjust="spacingAndGlyphs" textLength="113" x="87.5" y="467.9575">"lastPortalLayout"</text><rect fill="none" height="104.5313" style="stroke: #000000; stroke-width: 2.0;" width="782" x="23" y="488.0234"/><polygon fill="#EEEEEE" points="23,488.0234,100,488.0234,100,495.0234,90,505.0234,23,505.0234,23,488.0234" style="stroke: #000000; stroke-width: 2.0;"/><text fill="#000000" font-family="sans-serif" font-size="13" font-weight="bold" lengthAdjust="spacingAndGlyphs" textLength="32" x="38" y="501.0903">loop</text><text fill="#000000" font-family="sans-serif" font-size="11" font-weight="bold" lengthAdjust="spacingAndGlyphs" textLength="205" x="115" y="500.2339">[for all portlets to be displayed]</text><polygon fill="#A80036" points="543,522.1563,533,526.1563,543,530.1563,539,526.1563" style="stroke: #A80036; stroke-width: 1.0;"/><line style="stroke: #A80036; stroke-width: 1.0;" x1="537" x2="741" y1="526.1563" y2="526.1563"/><text fill="#000000" font-family="sans-serif" font-size="13" lengthAdjust="spacingAndGlyphs" textLength="172" x="549" y="521.2231">RenderComponentRequest</text><polygon fill="#A80036" points="247.5,551.2891,237.5,555.2891,247.5,559.2891,243.5,555.2891" style="stroke: #A80036; stroke-width: 1.0;"/><line style="stroke: #A80036; stroke-width: 1.0;" x1="241.5" x2="526" y1="555.2891" y2="555.2891"/><text fill="#000000" font-family="sans-serif" font-size="13" lengthAdjust="spacingAndGlyphs" textLength="120" x="253.5" y="550.356">RenderComponent</text><polygon fill="#A80036" points="81.5,580.4219,71.5,584.4219,81.5,588.4219,77.5,584.4219" style="stroke: #A80036; stroke-width: 1.0;"/><line style="stroke: #A80036; stroke-width: 1.0;" x1="75.5" x2="230.5" y1="584.4219" y2="584.4219"/><text fill="#000000" font-family="sans-serif" font-size="13" lengthAdjust="spacingAndGlyphs" textLength="94" x="87.5" y="579.4888">"renderPortlet"</text><polygon fill="#A80036" points="247.5,616.5547,237.5,620.5547,247.5,624.5547,243.5,620.5547" style="stroke: #A80036; stroke-width: 1.0;"/><line style="stroke: #A80036; stroke-width: 1.0;" x1="241.5" x2="613" y1="620.5547" y2="620.5547"/><text fill="#000000" font-family="sans-serif" font-size="13" lengthAdjust="spacingAndGlyphs" textLength="120" x="253.5" y="615.6216">ConsoleConfigured</text><polygon fill="#A80036" points="81.5,645.6875,71.5,649.6875,81.5,653.6875,77.5,649.6875" style="stroke: #A80036; stroke-width: 1.0;"/><line style="stroke: #A80036; stroke-width: 1.0;" x1="75.5" x2="230.5" y1="649.6875" y2="649.6875"/><text fill="#000000" font-family="sans-serif" font-size="13" lengthAdjust="spacingAndGlyphs" textLength="116" x="87.5" y="644.7544">"portalConfigured"</text><!--
@startuml
hide footbox
 
 Browser -> WebConsole: "portalReady"
 activate WebConsole
 
 par
 
     loop for all page resource providers
         WebConsole -> PageResourceProviderX: ConsoleReady
         activate PageResourceProviderX
         PageResourceProviderX -> WebConsole: AddPageResources
         deactivate PageResourceProviderX
         activate WebConsole
         WebConsole -> Browser: "addPageResources"
         deactivate WebConsole
     end
 
     loop for all portlets
         WebConsole -> PortletX: ConsoleReady
         activate PortletX
         PortletX -> WebConsole: AddComponentType 
         deactivate PortletX
         activate WebConsole
         WebConsole -> Browser: "addPortletType"
         deactivate WebConsole
     end
 
 end
 
 actor Framework
 Framework -> PortalPolicy: ConsolePrepared
 deactivate WebConsole
 activate PortalPolicy
 PortalPolicy -> WebConsole: LastConsoleLayout
 WebConsole -> Browser: "lastPortalLayout"
 loop for all portlets to be displayed
     PortalPolicy -> PortletX: RenderComponentRequest
     activate PortletX
     PortletX -> WebConsole: RenderComponent
     deactivate PortletX
     activate WebConsole
     WebConsole -> Browser: "renderPortlet"
     deactivate WebConsole
 end
 deactivate PortalPolicy
 Framework -> WebConsole: ConsoleConfigured
 activate WebConsole
 WebConsole -> Browser: "portalConfigured"
 deactivate WebConsole
@enduml

PlantUML version 1.2017.18(Fri Oct 06 16:56:32 UTC 2017)
(GPL source distribution)
Java Runtime: OpenJDK Runtime Environment
JVM: OpenJDK 64-Bit Server VM
Java Version: 1.8.0_222-8u222-b10-1ubuntu1~16.04.1-b10
Operating System: Linux
OS Version: 4.15.0-1050-gcp
Default Encoding: UTF-8
Language: en
Country: US
--></g></svg>