<?xml version="1.0" encoding="UTF-8" standalone="no"?><svg xmlns="http://www.w3.org/2000/svg" xmlns:xlink="http://www.w3.org/1999/xlink" contentScriptType="application/ecmascript" contentStyleType="text/css" height="132px" preserveAspectRatio="none" style="width:528px;height:132px;" version="1.1" viewBox="0 0 528 132" width="528px" zoomAndPan="magnify"><defs><filter height="300%" id="f17dwaq4k71bhw" width="300%" x="-1" y="-1"><feGaussianBlur result="blurOut" stdDeviation="2.0"/><feColorMatrix in="blurOut" result="blurOut2" type="matrix" values="0 0 0 0 0 0 0 0 0 0 0 0 0 0 0 0 0 0 .4 0"/><feOffset dx="4.0" dy="4.0" in="blurOut2" result="blurOut3"/><feBlend in="SourceGraphic" in2="blurOut3" mode="normal"/></filter></defs><g><!--class Component--><rect fill="#FEFECE" filter="url(#f17dwaq4k71bhw)" height="73.6094" id="Component" style="stroke: #A80036; stroke-width: 1.5;" width="154" x="6" y="31.42"/><ellipse cx="43.5" cy="47.42" fill="#ADD1B2" rx="11" ry="11" style="stroke: #A80036; stroke-width: 1.0;"/><path d="M46.4688,53.0606 Q45.8906,53.3575 45.25,53.4981 Q44.6094,53.6544 43.9063,53.6544 Q41.4063,53.6544 40.0781,52.0138 Q38.7656,50.3575 38.7656,47.2325 Q38.7656,44.1075 40.0781,42.4513 Q41.4063,40.795 43.9063,40.795 Q44.6094,40.795 45.25,40.9513 Q45.9063,41.1075 46.4688,41.4044 L46.4688,44.1231 Q45.8438,43.545 45.25,43.2794 Q44.6563,42.9981 44.0313,42.9981 Q42.6875,42.9981 42,44.0763 Q41.3125,45.1388 41.3125,47.2325 Q41.3125,49.3263 42,50.4044 Q42.6875,51.4669 44.0313,51.4669 Q44.6563,51.4669 45.25,51.2013 Q45.8438,50.92 46.4688,50.3419 L46.4688,53.0606 Z "/><text fill="#000000" font-family="sans-serif" font-size="12" lengthAdjust="spacingAndGlyphs" textLength="72" x="62.5" y="51.5743">Component</text><line style="stroke: #A80036; stroke-width: 1.5;" x1="7" x2="159" y1="63.42" y2="63.42"/><line style="stroke: #A80036; stroke-width: 1.5;" x1="7" x2="159" y1="71.42" y2="71.42"/><ellipse cx="17" cy="83.3223" fill="#84BE84" rx="3" ry="3" style="stroke: #038048; stroke-width: 1.0;"/><text fill="#000000" font-family="sans-serif" font-size="11" lengthAdjust="spacingAndGlyphs" textLength="128" x="26" y="85.6304">fire(event: Event): void</text><ellipse cx="17" cy="96.127" fill="#84BE84" rx="3" ry="3" style="stroke: #038048; stroke-width: 1.0;"/><text fill="#000000" font-family="sans-serif" font-size="11" lengthAdjust="spacingAndGlyphs" textLength="117" x="26" y="98.4351">onSomeEvent(): void</text><!--class SomeChannel--><rect fill="#FEFECE" filter="url(#f17dwaq4k71bhw)" height="60.8047" id="SomeChannel" style="stroke: #A80036; stroke-width: 1.5;" width="179" x="338.5" y="37.92"/><ellipse cx="380.95" cy="53.92" fill="#ADD1B2" rx="11" ry="11" style="stroke: #A80036; stroke-width: 1.0;"/><path d="M383.9188,59.5606 Q383.3406,59.8575 382.7,59.9981 Q382.0594,60.1544 381.3563,60.1544 Q378.8563,60.1544 377.5281,58.5138 Q376.2156,56.8575 376.2156,53.7325 Q376.2156,50.6075 377.5281,48.9513 Q378.8563,47.295 381.3563,47.295 Q382.0594,47.295 382.7,47.4513 Q383.3563,47.6075 383.9188,47.9044 L383.9188,50.6231 Q383.2938,50.045 382.7,49.7794 Q382.1063,49.4981 381.4813,49.4981 Q380.1375,49.4981 379.45,50.5763 Q378.7625,51.6388 378.7625,53.7325 Q378.7625,55.8263 379.45,56.9044 Q380.1375,57.9669 381.4813,57.9669 Q382.1063,57.9669 382.7,57.7013 Q383.2938,57.42 383.9188,56.8419 L383.9188,59.5606 Z "/><text fill="#000000" font-family="sans-serif" font-size="12" lengthAdjust="spacingAndGlyphs" textLength="86" x="401.05" y="58.0743">SomeChannel</text><line style="stroke: #A80036; stroke-width: 1.5;" x1="339.5" x2="516.5" y1="69.92" y2="69.92"/><line style="stroke: #A80036; stroke-width: 1.5;" x1="339.5" x2="516.5" y1="77.92" y2="77.92"/><ellipse cx="349.5" cy="89.8223" fill="#84BE84" rx="3" ry="3" style="stroke: #038048; stroke-width: 1.0;"/><text fill="#000000" font-family="sans-serif" font-size="11" lengthAdjust="spacingAndGlyphs" textLength="153" x="358.5" y="92.1304">forward(event: Event): void</text><!--link Component to SomeChannel--><!--link Component to SomeChannel--><path d="M160.12,102.64 C169.93,105.83 179.97,108.57 189.75,110.42 C215.73,115.35 282.68,114.88 308.75,110.42 C321.95,108.17 335.63,104.6 348.81,100.48 " fill="none" id="Component-SomeChannel" style="stroke: #A80036; stroke-width: 1.0; stroke-dasharray: 7.0,7.0;"/><polygon fill="#A80036" points="353.65,98.93,343.8578,97.875,348.8897,100.4596,346.3051,105.4915,353.65,98.93" style="stroke: #A80036; stroke-width: 1.0;"/><text fill="#000000" font-family="sans-serif" font-size="13" lengthAdjust="spacingAndGlyphs" textLength="22" x="190.75" y="95.4869">&lt;&gt;</text><polygon fill="#FBFB77" filter="url(#f17dwaq4k71bhw)" points="218.75,76.42,218.75,101.42,299.75,101.42,299.75,86.42,289.75,76.42,218.75,76.42" style="stroke: #A80036; stroke-width: 1.0;"/><line style="stroke: #A80036; stroke-width: 1.0;" x1="289.75" x2="289.75" y1="76.42" y2="86.42"/><line style="stroke: #A80036; stroke-width: 1.0;" x1="299.75" x2="289.75" y1="86.42" y2="86.42"/><text fill="#000000" font-family="sans-serif" font-size="13" lengthAdjust="spacingAndGlyphs" textLength="60" x="224.75" y="93.4869">fire event</text><text fill="#000000" font-family="sans-serif" font-size="13" lengthAdjust="spacingAndGlyphs" textLength="23" x="312.9434" y="118.8703">0..*</text><!--link Component to SomeChannel--><path d="M165.73,68.42 C217.8,68.42 285,68.42 338.33,68.42 " fill="none" id="Component-SomeChannel" style="stroke: #A80036; stroke-width: 1.0; stroke-dasharray: 7.0,7.0;"/><polygon fill="#A80036" points="160.42,68.42,169.42,72.42,165.42,68.42,169.42,64.42,160.42,68.42" style="stroke: #A80036; stroke-width: 1.0;"/><polygon fill="#FBFB77" filter="url(#f17dwaq4k71bhw)" points="182.25,16.42,182.25,56.42,288.25,56.42,288.25,26.42,278.25,16.42,182.25,16.42" style="stroke: #A80036; stroke-width: 1.0;"/><line style="stroke: #A80036; stroke-width: 1.0;" x1="278.25" x2="278.25" y1="16.42" y2="26.42"/><line style="stroke: #A80036; stroke-width: 1.0;" x1="288.25" x2="278.25" y1="26.42" y2="26.42"/><text fill="#000000" font-family="sans-serif" font-size="13" lengthAdjust="spacingAndGlyphs" textLength="81" x="188.25" y="33.4869">invoke event</text><text fill="#000000" font-family="sans-serif" font-size="13" lengthAdjust="spacingAndGlyphs" textLength="55" x="188.25" y="48.6197">handlers</text><text fill="#000000" font-family="sans-serif" font-size="13" lengthAdjust="spacingAndGlyphs" textLength="22" x="298.25" y="43.0533">&lt;&gt;</text><text fill="#000000" font-family="sans-serif" font-size="13" lengthAdjust="spacingAndGlyphs" textLength="23" x="168.0616" y="81.1539">0..*</text><!--
@startuml
class Component {
  + fire(event: Event): void
  + onSomeEvent(): void
 }
 
 class SomeChannel {
  + forward(event: Event): void
 }
 
 Component -[hidden]right-> SomeChannel
 
 Component ..> "0..*" SomeChannel : <>
 note right on link: fire event
 
 Component "0..*" <.. SomeChannel : <>
 note left on link
 invoke event 
 handlers
 end note
@enduml

PlantUML version 1.2017.18(Fri Oct 06 16:56:32 UTC 2017)
(GPL source distribution)
Java Runtime: OpenJDK Runtime Environment
JVM: OpenJDK 64-Bit Server VM
Java Version: 15.0.5+3-MTS
Operating System: Linux
OS Version: 5.11.0-1025-azure
Default Encoding: UTF-8
Language: en
Country: 
--></g></svg>