<?xml version="1.0" encoding="UTF-8" standalone="no"?><svg xmlns="http://www.w3.org/2000/svg" xmlns:xlink="http://www.w3.org/1999/xlink" contentScriptType="application/ecmascript" contentStyleType="text/css" height="535px" preserveAspectRatio="none" style="width:771px;height:535px;background:#FFFFFF;" version="1.1" viewBox="0 0 771 535" width="771px" zoomAndPan="magnify"><defs><filter height="300%" id="fooq7eku6rafo" width="300%" x="-1" y="-1"><feGaussianBlur result="blurOut" stdDeviation="2.0"/><feColorMatrix in="blurOut" result="blurOut2" type="matrix" values="0 0 0 0 0 0 0 0 0 0 0 0 0 0 0 0 0 0 .4 0"/><feOffset dx="4.0" dy="4.0" in="blurOut2" result="blurOut3"/><feBlend in="SourceGraphic" in2="blurOut3" mode="normal"/></filter></defs><g><!--MD5=[b24ed8d4ae84bae9290d9aab401637c7]
class Manager--><rect codeLine="1" fill="#FEFECE" filter="url(#fooq7eku6rafo)" height="150.4375" id="Manager" style="stroke:#A80036;stroke-width:1.5;" width="385" x="287.5" y="135"/><ellipse cx="450.25" cy="151" fill="#B4A7E5" rx="11" ry="11" style="stroke:#A80036;stroke-width:1.0;"/><path d="M446.1719,146.7656 L446.1719,144.6094 L453.5625,144.6094 L453.5625,146.7656 L451.0938,146.7656 L451.0938,154.8438 L453.5625,154.8438 L453.5625,157 L446.1719,157 L446.1719,154.8438 L448.6406,154.8438 L448.6406,146.7656 L446.1719,146.7656 Z " fill="#000000"/><text fill="#000000" font-family="sans-serif" font-size="12" font-style="italic" lengthAdjust="spacing" textLength="51" x="470.75" y="155.1543">Manager</text><line style="stroke:#A80036;stroke-width:1.5;" x1="288.5" x2="671.5" y1="167" y2="167"/><line style="stroke:#A80036;stroke-width:1.5;" x1="288.5" x2="671.5" y1="175" y2="175"/><text fill="#000000" font-family="sans-serif" font-size="11" lengthAdjust="spacing" textLength="89" x="293.5" y="189.2104">T attach(T child)</text><text fill="#000000" font-family="sans-serif" font-size="11" lengthAdjust="spacing" textLength="141" x="293.5" y="202.0151">ComponentType detach()</text><text fill="#000000" font-family="sans-serif" font-size="11" lengthAdjust="spacing" textLength="76" x="293.5" y="214.8198">List children()</text><text fill="#000000" font-family="sans-serif" font-size="11" lengthAdjust="spacing" textLength="140" x="293.5" y="227.6245">ComponentType parent()</text><text fill="#000000" font-family="sans-serif" font-size="11" lengthAdjust="spacing" textLength="126" x="293.5" y="240.4292">ComponentType root()</text><text fill="#000000" font-family="sans-serif" font-size="11" lengthAdjust="spacing" textLength="101" x="293.5" y="253.2339">Channel channel()</text><text fill="#000000" font-family="sans-serif" font-size="11" lengthAdjust="spacing" textLength="241" x="293.5" y="266.0386">Event fire(Event event, Channel[] channels)</text><text fill="#000000" font-family="sans-serif" font-size="11" lengthAdjust="spacing" textLength="373" x="293.5" y="278.8433">void addHandler(Method method, HandlerScope scope, int priority)</text><!--MD5=[6aab0676cf34802cefb399a4f3777211]
class ComponentType--><rect codeLine="11" fill="#FEFECE" filter="url(#fooq7eku6rafo)" height="48" id="ComponentType" style="stroke:#A80036;stroke-width:1.5;" width="128" x="369.5" y="7"/><ellipse cx="384.5" cy="23" fill="#B4A7E5" rx="11" ry="11" style="stroke:#A80036;stroke-width:1.0;"/><path d="M380.4219,18.7656 L380.4219,16.6094 L387.8125,16.6094 L387.8125,18.7656 L385.3438,18.7656 L385.3438,26.8438 L387.8125,26.8438 L387.8125,29 L380.4219,29 L380.4219,26.8438 L382.8906,26.8438 L382.8906,18.7656 L380.4219,18.7656 Z " fill="#000000"/><text fill="#000000" font-family="sans-serif" font-size="12" font-style="italic" lengthAdjust="spacing" textLength="96" x="398.5" y="27.1543">ComponentType</text><line style="stroke:#A80036;stroke-width:1.5;" x1="370.5" x2="496.5" y1="39" y2="39"/><line style="stroke:#A80036;stroke-width:1.5;" x1="370.5" x2="496.5" y1="47" y2="47"/><!--MD5=[3c2870178938703b691604ee53b17d27]
class ComponentWithOwnBaseClass--><rect codeLine="12" fill="#FFDEAD" filter="url(#fooq7eku6rafo)" height="60.8047" id="ComponentWithOwnBaseClass" style="stroke:#A80036;stroke-width:1.5;" width="221" x="7" y="179.5"/><ellipse cx="22" cy="195.5" fill="#ADD1B2" rx="11" ry="11" style="stroke:#A80036;stroke-width:1.0;"/><path d="M24.9688,201.1406 Q24.3906,201.4375 23.75,201.5781 Q23.1094,201.7344 22.4063,201.7344 Q19.9063,201.7344 18.5781,200.0938 Q17.2656,198.4375 17.2656,195.3125 Q17.2656,192.1875 18.5781,190.5313 Q19.9063,188.875 22.4063,188.875 Q23.1094,188.875 23.75,189.0313 Q24.4063,189.1875 24.9688,189.4844 L24.9688,192.2031 Q24.3438,191.625 23.75,191.3594 Q23.1563,191.0781 22.5313,191.0781 Q21.1875,191.0781 20.5,192.1563 Q19.8125,193.2188 19.8125,195.3125 Q19.8125,197.4063 20.5,198.4844 Q21.1875,199.5469 22.5313,199.5469 Q23.1563,199.5469 23.75,199.2813 Q24.3438,199 24.9688,198.4219 L24.9688,201.1406 Z " fill="#000000"/><text fill="#000000" font-family="sans-serif" font-size="12" lengthAdjust="spacing" textLength="189" x="36" y="199.6543">ComponentWithOwnBaseClass</text><line style="stroke:#A80036;stroke-width:1.5;" x1="8" x2="227" y1="211.5" y2="211.5"/><rect fill="none" height="6" style="stroke:#C82930;stroke-width:1.0;" width="6" x="15" y="219.5"/><text fill="#000000" font-family="sans-serif" font-size="11" lengthAdjust="spacing" textLength="128" x="27" y="225.7104">&lt;&gt; manager: Manager</text><line style="stroke:#A80036;stroke-width:1.5;" x1="8" x2="227" y1="232.3047" y2="232.3047"/><!--MD5=[7f8c79c77805f9e7051039117b4b9313]
class SomeComponent--><rect codeLine="15" fill="#FFDEAD" filter="url(#fooq7eku6rafo)" height="48" id="SomeComponent" style="stroke:#A80036;stroke-width:1.5;" width="139" x="545" y="473"/><ellipse cx="560" cy="489" fill="#ADD1B2" rx="11" ry="11" style="stroke:#A80036;stroke-width:1.0;"/><path d="M562.9688,494.6406 Q562.3906,494.9375 561.75,495.0781 Q561.1094,495.2344 560.4063,495.2344 Q557.9063,495.2344 556.5781,493.5938 Q555.2656,491.9375 555.2656,488.8125 Q555.2656,485.6875 556.5781,484.0313 Q557.9063,482.375 560.4063,482.375 Q561.1094,482.375 561.75,482.5313 Q562.4063,482.6875 562.9688,482.9844 L562.9688,485.7031 Q562.3438,485.125 561.75,484.8594 Q561.1563,484.5781 560.5313,484.5781 Q559.1875,484.5781 558.5,485.6563 Q557.8125,486.7188 557.8125,488.8125 Q557.8125,490.9063 558.5,491.9844 Q559.1875,493.0469 560.5313,493.0469 Q561.1563,493.0469 561.75,492.7813 Q562.3438,492.5 562.9688,491.9219 L562.9688,494.6406 Z " fill="#000000"/><text fill="#000000" font-family="sans-serif" font-size="12" lengthAdjust="spacing" textLength="107" x="574" y="493.1543">SomeComponent</text><line style="stroke:#A80036;stroke-width:1.5;" x1="546" x2="683" y1="505" y2="505"/><line style="stroke:#A80036;stroke-width:1.5;" x1="546" x2="683" y1="513" y2="513"/><!--MD5=[4e13963c9dc916a21a8436ef39422b32]
class Component--><rect fill="#FEFECE" filter="url(#fooq7eku6rafo)" height="48" id="Component" style="stroke:#A80036;stroke-width:1.5;" width="104" x="562.5" y="365"/><ellipse cx="577.5" cy="381" fill="#ADD1B2" rx="11" ry="11" style="stroke:#A80036;stroke-width:1.0;"/><path d="M580.4688,386.6406 Q579.8906,386.9375 579.25,387.0781 Q578.6094,387.2344 577.9063,387.2344 Q575.4063,387.2344 574.0781,385.5938 Q572.7656,383.9375 572.7656,380.8125 Q572.7656,377.6875 574.0781,376.0313 Q575.4063,374.375 577.9063,374.375 Q578.6094,374.375 579.25,374.5313 Q579.9063,374.6875 580.4688,374.9844 L580.4688,377.7031 Q579.8438,377.125 579.25,376.8594 Q578.6563,376.5781 578.0313,376.5781 Q576.6875,376.5781 576,377.6563 Q575.3125,378.7188 575.3125,380.8125 Q575.3125,382.9063 576,383.9844 Q576.6875,385.0469 578.0313,385.0469 Q578.6563,385.0469 579.25,384.7813 Q579.8438,384.5 580.4688,383.9219 L580.4688,386.6406 Z " fill="#000000"/><text fill="#000000" font-family="sans-serif" font-size="12" lengthAdjust="spacing" textLength="72" x="591.5" y="385.1543">Component</text><line style="stroke:#A80036;stroke-width:1.5;" x1="563.5" x2="665.5" y1="397" y2="397"/><line style="stroke:#A80036;stroke-width:1.5;" x1="563.5" x2="665.5" y1="405" y2="405"/><!--MD5=[22841b6545e64a8ba1f7c81ed7fb0617]
link ComponentWithOwnBaseClass to Manager--><path codeLine="17" d="M275.22,210 C275.22,210 260.21,210 276.84,210 " fill="none" id="ComponentWithOwnBaseClass-Manager" style="stroke:#A80036;stroke-width:1.0;"/><polygon fill="#A80036" points="279.22,195,285.2788,202.7647,283.6318,197.3529,289.0435,195.7059,279.22,195" style="stroke:#A80036;stroke-width:1.0;"/><line style="stroke:#A80036;stroke-width:1.0;" x1="283.6318" x2="283.22" y1="197.3529" y2="202.5"/><polygon fill="#A80036" points="287.22,210,281.22,206,275.22,210,281.22,214,287.22,210" style="stroke:#A80036;stroke-width:1.0;"/><text fill="#000000" font-family="sans-serif" font-size="13" lengthAdjust="spacing" textLength="8" x="271.5333" y="206.768">1</text><!--MD5=[cb48049fe135acf266411df6235f3113]
reverse link Manager to Component--><path codeLine="18" d="M548.84,301.27 C566.65,324.79 584.33,348.15 596.85,364.68 " fill="none" id="Manager-backto-Component" style="stroke:#A80036;stroke-width:1.0;stroke-dasharray:7.0,7.0;"/><polygon fill="none" points="543.04,305.21,536.55,285.04,554.2,296.76,543.04,305.21" style="stroke:#A80036;stroke-width:1.0;"/><!--MD5=[fcbf2857813274fb09800bdcdb35816e]
reverse link ComponentType to Component--><path codeLine="19" d="M517.68,45.63 C591.23,59.47 689.86,83.34 713.5,115 C764.02,182.67 749.2,228.47 713.5,305 C701.69,330.31 677.96,350.63 656.68,364.83 " fill="none" id="ComponentType-backto-Component" style="stroke:#A80036;stroke-width:1.0;stroke-dasharray:7.0,7.0;"/><polygon fill="none" points="516.11,52.46,497.68,42,518.61,38.69,516.11,52.46" style="stroke:#A80036;stroke-width:1.0;"/><!--MD5=[56a1f45bab99fe864d3bb6d3ca566a5d]
reverse link Component to SomeComponent--><path codeLine="20" d="M614.5,433.02 C614.5,446.58 614.5,461.04 614.5,472.68 " fill="none" id="Component-backto-SomeComponent" style="stroke:#A80036;stroke-width:1.0;"/><polygon fill="none" points="607.5,433,614.5,413,621.5,433,607.5,433" style="stroke:#A80036;stroke-width:1.0;"/><!--MD5=[4cea3149a496b090049c300cc3c9da33]
reverse link ComponentType to ComponentWithOwnBaseClass--><path codeLine="21" d="M353.36,62.85 C319.27,77.11 279.6,95.26 245.5,115 C212.69,133.99 178.2,159.7 153.3,179.43 " fill="none" id="ComponentType-backto-ComponentWithOwnBaseClass" style="stroke:#A80036;stroke-width:1.0;stroke-dasharray:7.0,7.0;"/><polygon fill="none" points="351.01,56.24,372.17,55.12,356.32,69.19,351.01,56.24" style="stroke:#A80036;stroke-width:1.0;"/><!--MD5=[bdd5a67c9384b75dad74a0dddba9fc67]
@startuml
interface Manager {
   T attach(T child)
   ComponentType detach()
   List children()
   ComponentType parent()
   ComponentType root()
   Channel channel()
   Event fire(Event event, Channel[] channels)
   void addHandler(Method method, HandlerScope scope, int priority)
 }
 interface ComponentType
 class ComponentWithOwnBaseClass #NavajoWhite {
   -<> manager: Manager 
 }
 class SomeComponent #NavajoWhite
 
 ComponentWithOwnBaseClass *-> "1" Manager
 Manager <|.. Component
 ComponentType <|.. Component
 Component <|- - SomeComponent
 ComponentType <|.. ComponentWithOwnBaseClass
@enduml

PlantUML version 1.2022.1(Tue Feb 01 19:19:58 CET 2022)
(GPL source distribution)
Java Runtime: OpenJDK Runtime Environment
JVM: OpenJDK 64-Bit Server VM
Default Encoding: UTF-8
Language: de
Country: DE
--></g></svg>