<?xml version="1.0" encoding="UTF-8" standalone="no"?><svg xmlns="http://www.w3.org/2000/svg" xmlns:xlink="http://www.w3.org/1999/xlink" contentScriptType="application/ecmascript" contentStyleType="text/css" height="134px" preserveAspectRatio="none" style="width:524px;height:134px;" version="1.1" viewBox="0 0 524 134" width="524px" zoomAndPan="magnify"><defs><filter height="300%" id="f15vj1q8d3jtbw" width="300%" x="-1" y="-1"><feGaussianBlur result="blurOut" stdDeviation="2.0"/><feColorMatrix in="blurOut" result="blurOut2" type="matrix" values="0 0 0 0 0 0 0 0 0 0 0 0 0 0 0 0 0 0 .4 0"/><feOffset dx="4.0" dy="4.0" in="blurOut2" result="blurOut3"/><feBlend in="SourceGraphic" in2="blurOut3" mode="normal"/></filter></defs><g><!--class Component--><rect fill="#FEFECE" filter="url(#f15vj1q8d3jtbw)" height="73.5986" id="Component" style="stroke: #A80036; stroke-width: 1.5;" width="145" x="6" y="32.7964"/><ellipse cx="42.15" cy="48.7964" fill="#ADD1B2" rx="11" ry="11" style="stroke: #A80036; stroke-width: 1.0;"/><path d="M42.2438,55.1089 Q39.3844,55.1089 37.8219,53.4214 Q36.2594,51.7339 36.2594,48.6558 Q36.2594,45.5933 37.8531,43.898 Q39.4469,42.2027 42.3375,42.2027 Q44.9781,42.2027 47.1188,42.7495 L47.1188,44.687 Q43.6813,43.4995 42.3063,43.4995 Q41.3063,43.4995 40.2125,44.8589 Q39.1188,46.2183 39.1188,48.6714 Q39.1188,51.0308 40.2906,52.3902 Q41.4625,53.7495 42.4781,53.7495 Q44.2281,53.7495 47.1031,52.2495 L47.1031,54.1714 Q45.4,55.1089 42.2438,55.1089 Z "/><text fill="#000000" font-family="sans-serif" font-size="12" lengthAdjust="spacingAndGlyphs" textLength="66" x="60.85" y="53.2173">Component</text><line style="stroke: #A80036; stroke-width: 1.5;" x1="7" x2="150" y1="64.7964" y2="64.7964"/><line style="stroke: #A80036; stroke-width: 1.5;" x1="7" x2="150" y1="72.7964" y2="72.7964"/><ellipse cx="17" cy="84.6961" fill="#84BE84" rx="3" ry="3" style="stroke: #038048; stroke-width: 1.0;"/><text fill="#000000" font-family="sans-serif" font-size="11" lengthAdjust="spacingAndGlyphs" textLength="119" x="26" y="87.2485">fire(event: Event): void</text><ellipse cx="17" cy="97.4954" fill="#84BE84" rx="3" ry="3" style="stroke: #038048; stroke-width: 1.0;"/><text fill="#000000" font-family="sans-serif" font-size="11" lengthAdjust="spacingAndGlyphs" textLength="109" x="26" y="100.0479">onSomeEvent(): void</text><!--class SomeChannel--><rect fill="#FEFECE" filter="url(#f15vj1q8d3jtbw)" height="60.7993" id="SomeChannel" style="stroke: #A80036; stroke-width: 1.5;" width="169" x="344" y="39.2964"/><ellipse cx="386" cy="55.2964" fill="#ADD1B2" rx="11" ry="11" style="stroke: #A80036; stroke-width: 1.0;"/><path d="M386.0938,61.6089 Q383.2344,61.6089 381.6719,59.9214 Q380.1094,58.2339 380.1094,55.1558 Q380.1094,52.0933 381.7031,50.398 Q383.2969,48.7027 386.1875,48.7027 Q388.8281,48.7027 390.9688,49.2495 L390.9688,51.187 Q387.5313,49.9995 386.1563,49.9995 Q385.1563,49.9995 384.0625,51.3589 Q382.9688,52.7183 382.9688,55.1714 Q382.9688,57.5308 384.1406,58.8902 Q385.3125,60.2495 386.3281,60.2495 Q388.0781,60.2495 390.9531,58.7495 L390.9531,60.6714 Q389.25,61.6089 386.0938,61.6089 Z "/><text fill="#000000" font-family="sans-serif" font-size="12" lengthAdjust="spacingAndGlyphs" textLength="77" x="406" y="59.7173">SomeChannel</text><line style="stroke: #A80036; stroke-width: 1.5;" x1="345" x2="512" y1="71.2964" y2="71.2964"/><line style="stroke: #A80036; stroke-width: 1.5;" x1="345" x2="512" y1="79.2964" y2="79.2964"/><ellipse cx="355" cy="91.1961" fill="#84BE84" rx="3" ry="3" style="stroke: #038048; stroke-width: 1.0;"/><text fill="#000000" font-family="sans-serif" font-size="11" lengthAdjust="spacingAndGlyphs" textLength="143" x="364" y="93.7485">forward(event: Event): void</text><!--link Component to SomeChannel--><!--link Component to SomeChannel--><path d="M150.575,104.323 C160.443,107.8097 170.589,110.7973 180.5,112.7964 C209.472,118.6404 284.418,118.0663 313.5,112.7964 C326.831,110.3807 340.629,106.5062 353.839,102.048 " fill="none" id="Component-SomeChannel" style="stroke: #A80036; stroke-width: 1.0; stroke-dasharray: 7.0,7.0;"/><polygon fill="#A80036" points="358.677,100.3808,348.8647,99.5331,353.9501,102.0107,351.4725,107.0961,358.677,100.3808" style="stroke: #A80036; stroke-width: 1.0;"/><text fill="#000000" font-family="sans-serif" font-size="13" lengthAdjust="spacingAndGlyphs" textLength="36" x="181.5" y="97.1489">«call»</text><polygon fill="#FBFB77" filter="url(#f15vj1q8d3jtbw)" points="223.5,77.7964,223.5,102.7964,303.5,102.7964,303.5,87.7964,293.5,77.7964,223.5,77.7964" style="stroke: #A80036; stroke-width: 1.0;"/><line style="stroke: #A80036; stroke-width: 1.0;" x1="293.5" x2="293.5" y1="77.7964" y2="87.7964"/><line style="stroke: #A80036; stroke-width: 1.0;" x1="303.5" x2="293.5" y1="87.7964" y2="87.7964"/><text fill="#000000" font-family="sans-serif" font-size="13" lengthAdjust="spacingAndGlyphs" textLength="59" x="229.5" y="95.1489">fire event</text><text fill="#000000" font-family="sans-serif" font-size="13" lengthAdjust="spacingAndGlyphs" textLength="22" x="318.801" y="120.622">0..*</text><!--link Component to SomeChannel--><path d="M156.098,69.7964 C211.785,69.7964 286.685,69.7964 343.812,69.7964 " fill="none" id="Component-SomeChannel" style="stroke: #A80036; stroke-width: 1.0; stroke-dasharray: 7.0,7.0;"/><polygon fill="#A80036" points="150.77,69.7964,159.77,73.7964,155.77,69.7964,159.77,65.7964,150.77,69.7964" style="stroke: #A80036; stroke-width: 1.0;"/><polygon fill="#FBFB77" filter="url(#f15vj1q8d3jtbw)" points="173,16.796,173,56.796,278,56.796,278,26.796,268,16.796,173,16.796" style="stroke: #A80036; stroke-width: 1.0;"/><line style="stroke: #A80036; stroke-width: 1.0;" x1="268" x2="268" y1="16.796" y2="26.796"/><line style="stroke: #A80036; stroke-width: 1.0;" x1="278" x2="268" y1="26.796" y2="26.796"/><text fill="#000000" font-family="sans-serif" font-size="13" lengthAdjust="spacingAndGlyphs" textLength="80" x="179" y="34.1485">invoke event</text><text fill="#000000" font-family="sans-serif" font-size="13" lengthAdjust="spacingAndGlyphs" textLength="54" x="179" y="49.275">handlers</text><text fill="#000000" font-family="sans-serif" font-size="13" lengthAdjust="spacingAndGlyphs" textLength="36" x="288" y="43.7118">«call»</text><text fill="#000000" font-family="sans-serif" font-size="13" lengthAdjust="spacingAndGlyphs" textLength="22" x="158.9669" y="82.9132">0..*</text><!--
@startuml
class Component {
  + fire(event: Event): void
  + onSomeEvent(): void
 }
 
 class SomeChannel {
  + forward(event: Event): void
 }
 
 Component -[hidden]right-> SomeChannel
 
 Component ..> "0..*" SomeChannel : <<call>>
 note right on link: fire event
 
 Component "0..*" <.. SomeChannel : <<call>>
 note left on link
 invoke event 
 handlers
 end note
@enduml

PlantUML version 1.2017.18(Fri Oct 06 16:56:32 UTC 2017)
(GPL source distribution)
Java Runtime: Java(TM) SE Runtime Environment
JVM: Java HotSpot(TM) 64-Bit Server VM
Java Version: 9.0.1+11
Operating System: Linux
OS Version: 4.14.12-041412-generic
Default Encoding: UTF-8
Language: en
Country: US
--></g></svg>