<?xml version="1.0" encoding="us-ascii" standalone="no"?><svg xmlns="http://www.w3.org/2000/svg" xmlns:xlink="http://www.w3.org/1999/xlink" contentStyleType="text/css" height="122px" preserveAspectRatio="none" style="width:596px;height:122px;background:#FFFFFF;" version="1.1" viewBox="0 0 596 122" width="596px" zoomAndPan="magnify"><defs/><g><!--class Component--><g id="elem_Component"><rect codeLine="1" fill="#F1F1F1" height="80.5938" id="Component" rx="2.5" ry="2.5" style="stroke:#181818;stroke-width:0.5;" width="181" x="7" y="26.29"/><ellipse cx="52.25" cy="42.29" fill="#ADD1B2" rx="11" ry="11" style="stroke:#181818;stroke-width:1.0;"/><path d="M55.2188,47.9306 Q54.6406,48.2275 54,48.3681 Q53.3594,48.5244 52.6563,48.5244 Q50.1563,48.5244 48.8281,46.8838 Q47.5156,45.2275 47.5156,42.1025 Q47.5156,38.9775 48.8281,37.3213 Q50.1563,35.665 52.6563,35.665 Q53.3594,35.665 54,35.8213 Q54.6563,35.9775 55.2188,36.2744 L55.2188,38.9931 Q54.5938,38.415 54,38.1494 Q53.4063,37.8681 52.7813,37.8681 Q51.4375,37.8681 50.75,38.9463 Q50.0625,40.0088 50.0625,42.1025 Q50.0625,44.1963 50.75,45.2744 Q51.4375,46.3369 52.7813,46.3369 Q53.4063,46.3369 54,46.0713 Q54.5938,45.79 55.2188,45.2119 L55.2188,47.9306 Z " fill="#000000"/><text fill="#000000" font-family="sans-serif" font-size="14" lengthAdjust="spacing" textLength="82" x="72.75" y="47.1367">Component</text><line style="stroke:#181818;stroke-width:0.5;" x1="8" x2="187" y1="58.29" y2="58.29"/><line style="stroke:#181818;stroke-width:0.5;" x1="8" x2="187" y1="66.29" y2="66.29"/><ellipse cx="18" cy="79.9384" fill="#84BE84" rx="3" ry="3" style="stroke:#038048;stroke-width:1.0;"/><text fill="#000000" font-family="sans-serif" font-size="14" lengthAdjust="spacing" textLength="155" x="27" y="83.2851">fire(event: Event): void</text><ellipse cx="18" cy="96.2353" fill="#84BE84" rx="3" ry="3" style="stroke:#038048;stroke-width:1.0;"/><text fill="#000000" font-family="sans-serif" font-size="14" lengthAdjust="spacing" textLength="144" x="27" y="99.582">onSomeEvent(): void</text></g><!--class SomeChannel--><g id="elem_SomeChannel"><rect codeLine="6" fill="#F1F1F1" height="64.2969" id="SomeChannel" rx="2.5" ry="2.5" style="stroke:#181818;stroke-width:0.5;" width="211" x="378" y="34.79"/><ellipse cx="430.75" cy="50.79" fill="#ADD1B2" rx="11" ry="11" style="stroke:#181818;stroke-width:1.0;"/><path d="M433.7188,56.4306 Q433.1406,56.7275 432.5,56.8681 Q431.8594,57.0244 431.1563,57.0244 Q428.6563,57.0244 427.3281,55.3838 Q426.0156,53.7275 426.0156,50.6025 Q426.0156,47.4775 427.3281,45.8213 Q428.6563,44.165 431.1563,44.165 Q431.8594,44.165 432.5,44.3213 Q433.1563,44.4775 433.7188,44.7744 L433.7188,47.4931 Q433.0938,46.915 432.5,46.6494 Q431.9063,46.3681 431.2813,46.3681 Q429.9375,46.3681 429.25,47.4463 Q428.5625,48.5088 428.5625,50.6025 Q428.5625,52.6963 429.25,53.7744 Q429.9375,54.8369 431.2813,54.8369 Q431.9063,54.8369 432.5,54.5713 Q433.0938,54.29 433.7188,53.7119 L433.7188,56.4306 Z " fill="#000000"/><text fill="#000000" font-family="sans-serif" font-size="14" lengthAdjust="spacing" textLength="97" x="451.25" y="55.6367">SomeChannel</text><line style="stroke:#181818;stroke-width:0.5;" x1="379" x2="588" y1="66.79" y2="66.79"/><line style="stroke:#181818;stroke-width:0.5;" x1="379" x2="588" y1="74.79" y2="74.79"/><ellipse cx="389" cy="88.4384" fill="#84BE84" rx="3" ry="3" style="stroke:#038048;stroke-width:1.0;"/><text fill="#000000" font-family="sans-serif" font-size="14" lengthAdjust="spacing" textLength="185" x="398" y="91.7851">forward(event: Event): void</text></g><!--link Component to SomeChannel--><!--link Component to SomeChannel--><g id="link_Component_SomeChannel"><path codeLine="12" d="M188.26,98.62 C198.19,101.14 208.24,103.28 218,104.79 C246.55,109.18 319.38,108.72 348,104.79 C358.65,103.32 363.7861,102.5558 374.6861,100.1058 " fill="none" id="Component-to-SomeChannel-1" style="stroke:#181818;stroke-width:1.0;stroke-dasharray:7.0,7.0;"/><polygon fill="#181818" points="380.54,98.79,370.8819,96.8611,375.6617,99.8865,372.6363,104.6663,380.54,98.79" style="stroke:#181818;stroke-width:1.0;"/><text fill="#000000" font-family="sans-serif" font-size="13" lengthAdjust="spacing" textLength="37" x="219" y="91.8569">&#171;call&#187;</text><path d="M262,74.79 L262,99.79 L343,99.79 L343,84.79 L333,74.79 L262,74.79 " fill="#FEFFDD" style="stroke:#181818;stroke-width:0.5;"/><path d="M333,74.79 L333,84.79 L343,84.79 L333,74.79 " fill="#FEFFDD" style="stroke:#181818;stroke-width:0.5;"/><text fill="#000000" font-family="sans-serif" font-size="13" lengthAdjust="spacing" textLength="60" x="268" y="91.8569">fire event</text><text fill="#000000" font-family="sans-serif" font-size="13" lengthAdjust="spacing" textLength="23" x="346.9882" y="114.4907">0..*</text></g><!--reverse link Component to SomeChannel--><g id="link_Component_SomeChannel"><path codeLine="15" d="M194.49,66.79 C251.21,66.79 318.44,66.79 377.74,66.79 " fill="none" id="Component-backto-SomeChannel" style="stroke:#181818;stroke-width:1.0;stroke-dasharray:7.0,7.0;"/><polygon fill="#181818" points="188.49,66.79,197.49,70.79,193.49,66.79,197.49,62.79,188.49,66.79" style="stroke:#181818;stroke-width:1.0;"/><path d="M210.5,18.79 L210.5,58.79 L316.5,58.79 L316.5,28.79 L306.5,18.79 L210.5,18.79 " fill="#FEFFDD" style="stroke:#181818;stroke-width:0.5;"/><path d="M306.5,18.79 L306.5,28.79 L316.5,28.79 L306.5,18.79 " fill="#FEFFDD" style="stroke:#181818;stroke-width:0.5;"/><text fill="#000000" font-family="sans-serif" font-size="13" lengthAdjust="spacing" textLength="81" x="216.5" y="35.8569">invoke event</text><text fill="#000000" font-family="sans-serif" font-size="13" lengthAdjust="spacing" textLength="55" x="216.5" y="50.9897">handlers</text><text fill="#000000" font-family="sans-serif" font-size="13" lengthAdjust="spacing" textLength="37" x="322.5" y="43.4233">&#171;call&#187;</text><text fill="#000000" font-family="sans-serif" font-size="13" lengthAdjust="spacing" textLength="23" x="196.0166" y="79.4275">0..*</text></g><!--SRC=[VS-n3e8m40RWlK_nnmarDCw4T24-WQDn8FIGXd8rXU1WV7TBWoY9SMhotztNkygMVO_2TJV7n0CU0jYZDfuI6aEGuJWzsmoZCpeM7PzSHp5Eblmf8515RAeMJSbCziqvVo-z_Yt6oSy2wRanMXDVlBasGwg-kNMdb0gRWvIxpUhB37bUbTOg9S1k84GeR0rhkCtYROYRhBcPogNyprcg5qt0yEZQsGjS6DAMV2z0h6F_2m00]--></g></svg>