<?xml version="1.0" encoding="UTF-8" standalone="no"?><svg xmlns="http://www.w3.org/2000/svg" xmlns:xlink="http://www.w3.org/1999/xlink" contentScriptType="application/ecmascript" contentStyleType="text/css" height="493px" preserveAspectRatio="none" style="width:767px;height:493px;" version="1.1" viewBox="0 0 767 493" width="767px" zoomAndPan="magnify"><defs><filter height="300%" id="f1evercgjnt8vh" width="300%" x="-1" y="-1"><feGaussianBlur result="blurOut" stdDeviation="2.0"/><feColorMatrix in="blurOut" result="blurOut2" type="matrix" values="0 0 0 0 0 0 0 0 0 0 0 0 0 0 0 0 0 0 .4 0"/><feOffset dx="4.0" dy="4.0" in="blurOut2" result="blurOut3"/><feBlend in="SourceGraphic" in2="blurOut3" mode="normal"/></filter></defs><g><!--class Manager--><rect fill="#FEFECE" filter="url(#f1evercgjnt8vh)" height="150.4375" id="Manager" style="stroke: #A80036; stroke-width: 1.5;" width="391" x="307.5" y="116"/><ellipse cx="471.25" cy="132" fill="#B4A7E5" rx="11" ry="11" style="stroke: #A80036; stroke-width: 1.0;"/><path d="M467.1719,127.7656 L467.1719,125.6094 L474.5625,125.6094 L474.5625,127.7656 L472.0938,127.7656 L472.0938,135.8438 L474.5625,135.8438 L474.5625,138 L467.1719,138 L467.1719,135.8438 L469.6406,135.8438 L469.6406,127.7656 L467.1719,127.7656 Z "/><text fill="#000000" font-family="sans-serif" font-size="12" font-style="italic" lengthAdjust="spacingAndGlyphs" textLength="55" x="491.75" y="136.1543">Manager</text><line style="stroke: #A80036; stroke-width: 1.5;" x1="308.5" x2="697.5" y1="148" y2="148"/><line style="stroke: #A80036; stroke-width: 1.5;" x1="308.5" x2="697.5" y1="156" y2="156"/><text fill="#000000" font-family="sans-serif" font-size="11" lengthAdjust="spacingAndGlyphs" textLength="91" x="313.5" y="170.2104">T attach(T child)</text><text fill="#000000" font-family="sans-serif" font-size="11" lengthAdjust="spacingAndGlyphs" textLength="142" x="313.5" y="183.0151">ComponentType detach()</text><text fill="#000000" font-family="sans-serif" font-size="11" lengthAdjust="spacingAndGlyphs" textLength="187" x="313.5" y="195.8198">List&lt;ComponentType&gt; children()</text><text fill="#000000" font-family="sans-serif" font-size="11" lengthAdjust="spacingAndGlyphs" textLength="141" x="313.5" y="208.6245">ComponentType parent()</text><text fill="#000000" font-family="sans-serif" font-size="11" lengthAdjust="spacingAndGlyphs" textLength="127" x="313.5" y="221.4292">ComponentType root()</text><text fill="#000000" font-family="sans-serif" font-size="11" lengthAdjust="spacingAndGlyphs" textLength="102" x="313.5" y="234.2339">Channel channel()</text><text fill="#000000" font-family="sans-serif" font-size="11" lengthAdjust="spacingAndGlyphs" textLength="295" x="313.5" y="247.0386">Event&lt;T&gt; fire(Event&lt;T&gt; event, Channel[] channels)</text><text fill="#000000" font-family="sans-serif" font-size="11" lengthAdjust="spacingAndGlyphs" textLength="379" x="313.5" y="259.8433">void addHandler(Method method, HandlerScope scope, int priority)</text><!--class ComponentType--><rect fill="#FEFECE" filter="url(#f1evercgjnt8vh)" height="48" id="ComponentType" style="stroke: #A80036; stroke-width: 1.5;" width="133" x="378.5" y="8"/><ellipse cx="393.5" cy="24" fill="#B4A7E5" rx="11" ry="11" style="stroke: #A80036; stroke-width: 1.0;"/><path d="M389.4219,19.7656 L389.4219,17.6094 L396.8125,17.6094 L396.8125,19.7656 L394.3438,19.7656 L394.3438,27.8438 L396.8125,27.8438 L396.8125,30 L389.4219,30 L389.4219,27.8438 L391.8906,27.8438 L391.8906,19.7656 L389.4219,19.7656 Z "/><text fill="#000000" font-family="sans-serif" font-size="12" font-style="italic" lengthAdjust="spacingAndGlyphs" textLength="101" x="407.5" y="28.1543">ComponentType</text><line style="stroke: #A80036; stroke-width: 1.5;" x1="379.5" x2="510.5" y1="40" y2="40"/><line style="stroke: #A80036; stroke-width: 1.5;" x1="379.5" x2="510.5" y1="48" y2="48"/><!--class ComponentWithOwnBaseClass--><rect fill="#FFDEAD" filter="url(#f1evercgjnt8vh)" height="60.8047" id="ComponentWithOwnBaseClass" style="stroke: #A80036; stroke-width: 1.5;" width="266" x="6" y="160.5"/><rect fill="#FFDEAD" height="32" style="stroke: #A80036; stroke-width: 1.5;" width="266" x="6" y="160.5"/><ellipse cx="41.25" cy="176.5" fill="#ADD1B2" rx="11" ry="11" style="stroke: #A80036; stroke-width: 1.0;"/><path d="M44.2188,182.1406 Q43.6406,182.4375 43,182.5859 Q42.3594,182.7344 41.6563,182.7344 Q39.1563,182.7344 37.8359,181.0859 Q36.5156,179.4375 36.5156,176.3125 Q36.5156,173.1875 37.8359,171.5313 Q39.1563,169.875 41.6563,169.875 Q42.3594,169.875 43.0078,170.0313 Q43.6563,170.1875 44.2188,170.4844 L44.2188,173.2031 Q43.5938,172.625 43,172.3516 Q42.4063,172.0781 41.7813,172.0781 Q40.4375,172.0781 39.75,173.1484 Q39.0625,174.2188 39.0625,176.3125 Q39.0625,178.4063 39.75,179.4766 Q40.4375,180.5469 41.7813,180.5469 Q42.4063,180.5469 43,180.2734 Q43.5938,180 44.2188,179.4219 L44.2188,182.1406 Z "/><text fill="#000000" font-family="sans-serif" font-size="12" lengthAdjust="spacingAndGlyphs" textLength="189" x="59.75" y="180.6543">ComponentWithOwnBaseClass</text><line style="stroke: #A80036; stroke-width: 1.5;" x1="7" x2="271" y1="192.5" y2="192.5"/><rect fill="none" height="6" style="stroke: #C82930; stroke-width: 1.0;" width="6" x="14" y="201.4023"/><text fill="#000000" font-family="sans-serif" font-size="11" lengthAdjust="spacingAndGlyphs" textLength="240" x="26" y="206.7104">«ComponentManager» manager: Manager</text><line style="stroke: #A80036; stroke-width: 1.5;" x1="7" x2="271" y1="213.3047" y2="213.3047"/><!--class SomeComponent--><rect fill="#FFDEAD" filter="url(#f1evercgjnt8vh)" height="48" id="SomeComponent" style="stroke: #A80036; stroke-width: 1.5;" width="139" x="557.5" y="434"/><rect fill="#FFDEAD" height="32" style="stroke: #A80036; stroke-width: 1.5;" width="139" x="557.5" y="434"/><ellipse cx="572.5" cy="450" fill="#ADD1B2" rx="11" ry="11" style="stroke: #A80036; stroke-width: 1.0;"/><path d="M575.4688,455.6406 Q574.8906,455.9375 574.25,456.0859 Q573.6094,456.2344 572.9063,456.2344 Q570.4063,456.2344 569.0859,454.5859 Q567.7656,452.9375 567.7656,449.8125 Q567.7656,446.6875 569.0859,445.0313 Q570.4063,443.375 572.9063,443.375 Q573.6094,443.375 574.2578,443.5313 Q574.9063,443.6875 575.4688,443.9844 L575.4688,446.7031 Q574.8438,446.125 574.25,445.8516 Q573.6563,445.5781 573.0313,445.5781 Q571.6875,445.5781 571,446.6484 Q570.3125,447.7188 570.3125,449.8125 Q570.3125,451.9063 571,452.9766 Q571.6875,454.0469 573.0313,454.0469 Q573.6563,454.0469 574.25,453.7734 Q574.8438,453.5 575.4688,452.9219 L575.4688,455.6406 Z "/><text fill="#000000" font-family="sans-serif" font-size="12" lengthAdjust="spacingAndGlyphs" textLength="107" x="586.5" y="454.1543">SomeComponent</text><line style="stroke: #A80036; stroke-width: 1.5;" x1="558.5" x2="695.5" y1="466" y2="466"/><line style="stroke: #A80036; stroke-width: 1.5;" x1="558.5" x2="695.5" y1="474" y2="474"/><!--class Component--><rect fill="#FEFECE" filter="url(#f1evercgjnt8vh)" height="48" id="Component" style="stroke: #A80036; stroke-width: 1.5;" width="104" x="575" y="326"/><ellipse cx="590" cy="342" fill="#ADD1B2" rx="11" ry="11" style="stroke: #A80036; stroke-width: 1.0;"/><path d="M592.9688,347.6406 Q592.3906,347.9375 591.75,348.0859 Q591.1094,348.2344 590.4063,348.2344 Q587.9063,348.2344 586.5859,346.5859 Q585.2656,344.9375 585.2656,341.8125 Q585.2656,338.6875 586.5859,337.0313 Q587.9063,335.375 590.4063,335.375 Q591.1094,335.375 591.7578,335.5313 Q592.4063,335.6875 592.9688,335.9844 L592.9688,338.7031 Q592.3438,338.125 591.75,337.8516 Q591.1563,337.5781 590.5313,337.5781 Q589.1875,337.5781 588.5,338.6484 Q587.8125,339.7188 587.8125,341.8125 Q587.8125,343.9063 588.5,344.9766 Q589.1875,346.0469 590.5313,346.0469 Q591.1563,346.0469 591.75,345.7734 Q592.3438,345.5 592.9688,344.9219 L592.9688,347.6406 Z "/><text fill="#000000" font-family="sans-serif" font-size="12" lengthAdjust="spacingAndGlyphs" textLength="72" x="604" y="346.1543">Component</text><line style="stroke: #A80036; stroke-width: 1.5;" x1="576" x2="678" y1="358" y2="358"/><line style="stroke: #A80036; stroke-width: 1.5;" x1="576" x2="678" y1="366" y2="366"/><!--link ComponentWithOwnBaseClass to Manager--><path d="M285.48,191 C288.455,191 291.429,191 294.404,191 " fill="none" id="ComponentWithOwnBaseClass-Manager" style="stroke: #A80036; stroke-width: 1.0;"/><polygon fill="#A80036" points="307.446,191,298.446,187,302.446,191,298.446,195,307.446,191" style="stroke: #A80036; stroke-width: 1.0;"/><line style="stroke: #A80036; stroke-width: 1.0;" x1="302.446" x2="294.446" y1="191" y2="191"/><polygon fill="#A80036" points="272.301,191,278.301,195,284.301,191,278.301,187,272.301,191" style="stroke: #A80036; stroke-width: 1.0;"/><text fill="#000000" font-family="sans-serif" font-size="13" lengthAdjust="spacingAndGlyphs" textLength="8" x="291.6509" y="187.768">1</text><!--link Manager to Component--><path d="M574.285,282.256 C587.009,298.366 599.198,313.8 608.645,325.76 " fill="none" id="Manager-Component" style="stroke: #A80036; stroke-width: 1.0; stroke-dasharray: 7.0,7.0;"/><polygon fill="none" points="568.635,286.396,561.732,266.362,579.621,277.719,568.635,286.396" style="stroke: #A80036; stroke-width: 1.0;"/><!--link ComponentType to Component--><path d="M531.379,47.988 C602.007,62.21 693.716,85.869 716,116 C755.642,169.6 742.582,204.862 716,266 C705.301,290.607 683.314,311.226 663.871,325.758 " fill="none" id="ComponentType-Component" style="stroke: #A80036; stroke-width: 1.0; stroke-dasharray: 7.0,7.0;"/><polygon fill="none" points="529.923,54.836,511.63,44.142,532.599,41.094,529.923,54.836" style="stroke: #A80036; stroke-width: 1.0;"/><!--link Component to SomeComponent--><path d="M627,394.0236 C627,407.5792 627,422.0381 627,433.6784 " fill="none" id="Component-SomeComponent" style="stroke: #A80036; stroke-width: 1.0;"/><polygon fill="none" points="620,394.0005,627,374,634,394.0004,620,394.0005" style="stroke: #A80036; stroke-width: 1.0;"/><!--link ComponentType to ComponentWithOwnBaseClass--><path d="M382.001,65.323 C327.534,93.269 249.456,133.328 196.621,160.436 " fill="none" id="ComponentType-ComponentWithOwnBaseClass" style="stroke: #A80036; stroke-width: 1.0; stroke-dasharray: 7.0,7.0;"/><polygon fill="none" points="378.859,59.068,399.849,56.166,385.25,71.524,378.859,59.068" style="stroke: #A80036; stroke-width: 1.0;"/><!--
@startuml
interface Manager {
   T attach(T child)
   ComponentType detach()
   List<ComponentType> children()
   ComponentType parent()
   ComponentType root()
   Channel channel()
   Event<T> fire(Event<T> event, Channel[] channels)
   void addHandler(Method method, HandlerScope scope, int priority)
 }
 interface ComponentType
 class ComponentWithOwnBaseClass #NavajoWhite {
   -<<ComponentManager>> manager: Manager 
 }
 class SomeComponent #NavajoWhite
 
 ComponentWithOwnBaseClass *-> "1" Manager
 Manager <|.. Component
 ComponentType <|.. Component
 Component <|- - SomeComponent
 ComponentType <|.. ComponentWithOwnBaseClass
@enduml

PlantUML version 1.2017.18(Fri Oct 06 16:56:32 UTC 2017)
(GPL source distribution)
Java Runtime: OpenJDK Runtime Environment
JVM: OpenJDK 64-Bit Server VM
Java Version: 1.8.0_222-8u222-b10-1ubuntu1~16.04.1-b10
Operating System: Linux
OS Version: 4.15.0-1050-gcp
Default Encoding: UTF-8
Language: en
Country: US
--></g></svg>