<?xml version="1.0" encoding="UTF-8" standalone="no"?><svg xmlns="http://www.w3.org/2000/svg" xmlns:xlink="http://www.w3.org/1999/xlink" contentScriptType="application/ecmascript" contentStyleType="text/css" height="252px" preserveAspectRatio="none" style="width:631px;height:252px;" version="1.1" viewBox="0 0 631 252" width="631px" zoomAndPan="magnify"><defs><filter height="300%" id="f11paiee7xh8qr" width="300%" x="-1" y="-1"><feGaussianBlur result="blurOut" stdDeviation="2.0"/><feColorMatrix in="blurOut" result="blurOut2" type="matrix" values="0 0 0 0 0 0 0 0 0 0 0 0 0 0 0 0 0 0 .4 0"/><feOffset dx="4.0" dy="4.0" in="blurOut2" result="blurOut3"/><feBlend in="SourceGraphic" in2="blurOut3" mode="normal"/></filter></defs><g><!--class Eligible--><rect fill="#FEFECE" filter="url(#f11paiee7xh8qr)" height="73.6094" id="Eligible" style="stroke: #A80036; stroke-width: 1.5;" width="224" x="396" y="8"/><ellipse cx="481.75" cy="24" fill="#B4A7E5" rx="11" ry="11" style="stroke: #A80036; stroke-width: 1.0;"/><path d="M477.6719,19.7656 L477.6719,17.6094 L485.0625,17.6094 L485.0625,19.7656 L482.5938,19.7656 L482.5938,27.8438 L485.0625,27.8438 L485.0625,30 L477.6719,30 L477.6719,27.8438 L480.1406,27.8438 L480.1406,19.7656 L477.6719,19.7656 Z "/><text fill="#000000" font-family="sans-serif" font-size="12" font-style="italic" lengthAdjust="spacingAndGlyphs" textLength="44" x="502.25" y="28.1543">Eligible</text><line style="stroke: #A80036; stroke-width: 1.5;" x1="397" x2="619" y1="40" y2="40"/><line style="stroke: #A80036; stroke-width: 1.5;" x1="397" x2="619" y1="48" y2="48"/><text fill="#000000" font-family="sans-serif" font-size="11" lengthAdjust="spacingAndGlyphs" textLength="136" x="402" y="62.2104">Object defaultCriterion()</text><text fill="#000000" font-family="sans-serif" font-size="11" lengthAdjust="spacingAndGlyphs" textLength="212" x="402" y="75.0151">boolean isEligibleFor(Object criterion)</text><!--class Event--><rect fill="#FEFECE" filter="url(#f11paiee7xh8qr)" height="73.6094" id="Event" style="stroke: #A80036; stroke-width: 1.5;" width="238" x="123" y="8"/><ellipse cx="220.25" cy="24" fill="#ADD1B2" rx="11" ry="11" style="stroke: #A80036; stroke-width: 1.0;"/><path d="M223.2188,29.6406 Q222.6406,29.9375 222,30.0781 Q221.3594,30.2344 220.6563,30.2344 Q218.1563,30.2344 216.8281,28.5938 Q215.5156,26.9375 215.5156,23.8125 Q215.5156,20.6875 216.8281,19.0313 Q218.1563,17.375 220.6563,17.375 Q221.3594,17.375 222,17.5313 Q222.6563,17.6875 223.2188,17.9844 L223.2188,20.7031 Q222.5938,20.125 222,19.8594 Q221.4063,19.5781 220.7813,19.5781 Q219.4375,19.5781 218.75,20.6563 Q218.0625,21.7188 218.0625,23.8125 Q218.0625,25.9063 218.75,26.9844 Q219.4375,28.0469 220.7813,28.0469 Q221.4063,28.0469 222,27.7813 Q222.5938,27.5 223.2188,26.9219 L223.2188,29.6406 Z "/><text fill="#000000" font-family="sans-serif" font-size="12" lengthAdjust="spacingAndGlyphs" textLength="35" x="240.75" y="28.1543">Event</text><line style="stroke: #A80036; stroke-width: 1.5;" x1="124" x2="360" y1="40" y2="40"/><line style="stroke: #A80036; stroke-width: 1.5;" x1="124" x2="360" y1="48" y2="48"/><ellipse cx="134" cy="59.9023" fill="#84BE84" rx="3" ry="3" style="stroke: #038048; stroke-width: 1.0;"/><text fill="#000000" font-family="sans-serif" font-size="11" lengthAdjust="spacingAndGlyphs" textLength="136" x="143" y="62.2104">Object defaultCriterion()</text><ellipse cx="134" cy="72.707" fill="#84BE84" rx="3" ry="3" style="stroke: #038048; stroke-width: 1.0;"/><text fill="#000000" font-family="sans-serif" font-size="11" lengthAdjust="spacingAndGlyphs" textLength="212" x="143" y="75.0151">boolean isEligibleFor(Object criterion)</text><!--class NamedEvent--><rect fill="#FEFECE" filter="url(#f11paiee7xh8qr)" height="99.2188" id="NamedEvent" style="stroke: #A80036; stroke-width: 1.5;" width="238" x="6" y="142"/><ellipse cx="81.25" cy="158" fill="#ADD1B2" rx="11" ry="11" style="stroke: #A80036; stroke-width: 1.0;"/><path d="M84.2188,163.6406 Q83.6406,163.9375 83,164.0781 Q82.3594,164.2344 81.6563,164.2344 Q79.1563,164.2344 77.8281,162.5938 Q76.5156,160.9375 76.5156,157.8125 Q76.5156,154.6875 77.8281,153.0313 Q79.1563,151.375 81.6563,151.375 Q82.3594,151.375 83,151.5313 Q83.6563,151.6875 84.2188,151.9844 L84.2188,154.7031 Q83.5938,154.125 83,153.8594 Q82.4063,153.5781 81.7813,153.5781 Q80.4375,153.5781 79.75,154.6563 Q79.0625,155.7188 79.0625,157.8125 Q79.0625,159.9063 79.75,160.9844 Q80.4375,162.0469 81.7813,162.0469 Q82.4063,162.0469 83,161.7813 Q83.5938,161.5 84.2188,160.9219 L84.2188,163.6406 Z "/><text fill="#000000" font-family="sans-serif" font-size="12" lengthAdjust="spacingAndGlyphs" textLength="79" x="101.75" y="162.1543">NamedEvent</text><line style="stroke: #A80036; stroke-width: 1.5;" x1="7" x2="243" y1="174" y2="174"/><rect fill="none" height="6" style="stroke: #C82930; stroke-width: 1.0;" width="6" x="14" y="182.9023"/><text fill="#000000" font-family="sans-serif" font-size="11" lengthAdjust="spacingAndGlyphs" textLength="70" x="26" y="188.2104">String name</text><line style="stroke: #A80036; stroke-width: 1.5;" x1="7" x2="243" y1="194.8047" y2="194.8047"/><ellipse cx="17" cy="206.707" fill="#84BE84" rx="3" ry="3" style="stroke: #038048; stroke-width: 1.0;"/><text fill="#000000" font-family="sans-serif" font-size="11" lengthAdjust="spacingAndGlyphs" textLength="149" x="26" y="209.0151">NamedEvent(String name)</text><ellipse cx="17" cy="219.5117" fill="#84BE84" rx="3" ry="3" style="stroke: #038048; stroke-width: 1.0;"/><text fill="#000000" font-family="sans-serif" font-size="11" lengthAdjust="spacingAndGlyphs" textLength="136" x="26" y="221.8198">Object defaultCriterion()</text><ellipse cx="17" cy="232.3164" fill="#84BE84" rx="3" ry="3" style="stroke: #038048; stroke-width: 1.0;"/><text fill="#000000" font-family="sans-serif" font-size="11" lengthAdjust="spacingAndGlyphs" textLength="212" x="26" y="234.6245">boolean isEligibleFor(Object criterion)</text><!--class UserEventType--><rect fill="#FFDEAD" filter="url(#f11paiee7xh8qr)" height="60.8047" id="UserEventType" style="stroke: #A80036; stroke-width: 1.5;" width="162" x="279" y="161"/><rect fill="#FFDEAD" height="32" style="stroke: #A80036; stroke-width: 1.5;" width="162" x="279" y="161"/><ellipse cx="310.65" cy="177" fill="#ADD1B2" rx="11" ry="11" style="stroke: #A80036; stroke-width: 1.0;"/><path d="M313.6188,182.6406 Q313.0406,182.9375 312.4,183.0781 Q311.7594,183.2344 311.0563,183.2344 Q308.5563,183.2344 307.2281,181.5938 Q305.9156,179.9375 305.9156,176.8125 Q305.9156,173.6875 307.2281,172.0313 Q308.5563,170.375 311.0563,170.375 Q311.7594,170.375 312.4,170.5313 Q313.0563,170.6875 313.6188,170.9844 L313.6188,173.7031 Q312.9938,173.125 312.4,172.8594 Q311.8063,172.5781 311.1813,172.5781 Q309.8375,172.5781 309.15,173.6563 Q308.4625,174.7188 308.4625,176.8125 Q308.4625,178.9063 309.15,179.9844 Q309.8375,181.0469 311.1813,181.0469 Q311.8063,181.0469 312.4,180.7813 Q312.9938,180.5 313.6188,179.9219 L313.6188,182.6406 Z "/><text fill="#000000" font-family="sans-serif" font-size="12" lengthAdjust="spacingAndGlyphs" textLength="93" x="328.35" y="181.1543">UserEventType</text><line style="stroke: #A80036; stroke-width: 1.5;" x1="280" x2="440" y1="193" y2="193"/><line style="stroke: #A80036; stroke-width: 1.5;" x1="280" x2="440" y1="201" y2="201"/><ellipse cx="290" cy="212.9023" fill="#84BE84" rx="3" ry="3" style="stroke: #038048; stroke-width: 1.0;"/><text fill="#000000" font-family="sans-serif" font-size="11" lengthAdjust="spacingAndGlyphs" textLength="136" x="299" y="215.2104">Object defaultCriterion()</text><!--link Event to Eligible--><path d="M361.23,45 C366.11,45 370.99,45 375.87,45 " fill="none" id="Event-Eligible" style="stroke: #A80036; stroke-width: 1.0; stroke-dasharray: 7.0,7.0;"/><polygon fill="none" points="375.92,38,395.92,45,375.92,52,375.92,38" style="stroke: #A80036; stroke-width: 1.0;"/><!--link Event to NamedEvent--><path d="M200.16,97.68 C188.52,112.05 175.93,127.6 164.43,141.8 " fill="none" id="Event-NamedEvent" style="stroke: #A80036; stroke-width: 1.0;"/><polygon fill="none" points="194.75,93.23,212.78,82.09,205.63,102.04,194.75,93.23" style="stroke: #A80036; stroke-width: 1.0;"/><!--link Event to UserEventType--><path d="M284.17,97.63 C301.44,118.79 320.82,142.53 335.67,160.7 " fill="none" id="Event-UserEventType" style="stroke: #A80036; stroke-width: 1.0;"/><polygon fill="none" points="278.7,102.01,271.47,82.09,289.54,93.15,278.7,102.01" style="stroke: #A80036; stroke-width: 1.0;"/><!--
@startuml
interface Eligible {
 	Object defaultCriterion()
 	boolean isEligibleFor(Object criterion)
 }
 
 class Event {
 	+Object defaultCriterion()
 	+boolean isEligibleFor(Object criterion)
 }
 
 Event .right.|> Eligible
 
 class NamedEvent {
 	-String name
 	+NamedEvent(String name)
 	+Object defaultCriterion()
 	+boolean isEligibleFor(Object criterion)
 }
 Event <|- - NamedEvent
 
 class UserEventType #NavajoWhite {
 	+Object defaultCriterion()
 }
 Event <|- - UserEventType
@enduml

PlantUML version 1.2017.18(Fri Oct 06 16:56:32 UTC 2017)
(GPL source distribution)
Java Runtime: OpenJDK Runtime Environment
JVM: OpenJDK 64-Bit Server VM
Java Version: 15.0.6+5-MTS
Operating System: Linux
OS Version: 5.11.0-1027-azure
Default Encoding: UTF-8
Language: en
Country: 
--></g></svg>