<?xml version="1.0" encoding="us-ascii" standalone="no"?><svg xmlns="http://www.w3.org/2000/svg" xmlns:xlink="http://www.w3.org/1999/xlink" contentStyleType="text/css" height="271px" preserveAspectRatio="none" style="width:734px;height:271px;background:#FFFFFF;" version="1.1" viewBox="0 0 734 271" width="734px" zoomAndPan="magnify"><defs/><g><!--class Eligible--><g id="elem_Eligible"><rect codeLine="1" fill="#F1F1F1" height="80.5938" id="Eligible" rx="2.5" ry="2.5" style="stroke:#181818;stroke-width:0.5;" width="268" x="459" y="10"/><ellipse cx="564.75" cy="26" fill="#B4A7E5" rx="11" ry="11" style="stroke:#181818;stroke-width:1.0;"/><path d="M560.6719,21.7656 L560.6719,19.6094 L568.0625,19.6094 L568.0625,21.7656 L565.5938,21.7656 L565.5938,29.8438 L568.0625,29.8438 L568.0625,32 L560.6719,32 L560.6719,29.8438 L563.1406,29.8438 L563.1406,21.7656 L560.6719,21.7656 Z " fill="#000000"/><text fill="#000000" font-family="sans-serif" font-size="14" font-style="italic" lengthAdjust="spacing" textLength="48" x="585.25" y="30.8467">Eligible</text><line style="stroke:#181818;stroke-width:0.5;" x1="460" x2="726" y1="42" y2="42"/><line style="stroke:#181818;stroke-width:0.5;" x1="460" x2="726" y1="50" y2="50"/><text fill="#000000" font-family="sans-serif" font-size="14" lengthAdjust="spacing" textLength="164" x="465" y="66.9951">Object defaultCriterion()</text><text fill="#000000" font-family="sans-serif" font-size="14" lengthAdjust="spacing" textLength="256" x="465" y="83.292">boolean isEligibleFor(Object criterion)</text></g><!--class Event--><g id="elem_Event"><rect codeLine="6" fill="#F1F1F1" height="80.5938" id="Event" rx="2.5" ry="2.5" style="stroke:#181818;stroke-width:0.5;" width="282" x="142" y="10"/><ellipse cx="253.75" cy="26" fill="#ADD1B2" rx="11" ry="11" style="stroke:#181818;stroke-width:1.0;"/><path d="M256.7188,31.6406 Q256.1406,31.9375 255.5,32.0781 Q254.8594,32.2344 254.1563,32.2344 Q251.6563,32.2344 250.3281,30.5938 Q249.0156,28.9375 249.0156,25.8125 Q249.0156,22.6875 250.3281,21.0313 Q251.6563,19.375 254.1563,19.375 Q254.8594,19.375 255.5,19.5313 Q256.1563,19.6875 256.7188,19.9844 L256.7188,22.7031 Q256.0938,22.125 255.5,21.8594 Q254.9063,21.5781 254.2813,21.5781 Q252.9375,21.5781 252.25,22.6563 Q251.5625,23.7188 251.5625,25.8125 Q251.5625,27.9063 252.25,28.9844 Q252.9375,30.0469 254.2813,30.0469 Q254.9063,30.0469 255.5,29.7813 Q256.0938,29.5 256.7188,28.9219 L256.7188,31.6406 Z " fill="#000000"/><text fill="#000000" font-family="sans-serif" font-size="14" lengthAdjust="spacing" textLength="39" x="274.25" y="30.8467">Event</text><rect fill="#FFFFFF" height="15.9688" style="stroke:#181818;stroke-width:1.0;stroke-dasharray:2.0,2.0;" width="9" x="418" y="7"/><text fill="#000000" font-family="sans-serif" font-size="12" font-style="italic" lengthAdjust="spacing" textLength="7" x="419" y="19.1387">T</text><line style="stroke:#181818;stroke-width:0.5;" x1="143" x2="423" y1="42" y2="42"/><line style="stroke:#181818;stroke-width:0.5;" x1="143" x2="423" y1="50" y2="50"/><ellipse cx="153" cy="63.6484" fill="#84BE84" rx="3" ry="3" style="stroke:#038048;stroke-width:1.0;"/><text fill="#000000" font-family="sans-serif" font-size="14" lengthAdjust="spacing" textLength="164" x="162" y="66.9951">Object defaultCriterion()</text><ellipse cx="153" cy="79.9453" fill="#84BE84" rx="3" ry="3" style="stroke:#038048;stroke-width:1.0;"/><text fill="#000000" font-family="sans-serif" font-size="14" lengthAdjust="spacing" textLength="256" x="162" y="83.292">boolean isEligibleFor(Object criterion)</text></g><!--class NamedEvent--><g id="elem_NamedEvent"><rect codeLine="13" fill="#F1F1F1" height="113.1875" id="NamedEvent" rx="2.5" ry="2.5" style="stroke:#181818;stroke-width:0.5;" width="282" x="7" y="151"/><ellipse cx="99.75" cy="167" fill="#ADD1B2" rx="11" ry="11" style="stroke:#181818;stroke-width:1.0;"/><path d="M102.7188,172.6406 Q102.1406,172.9375 101.5,173.0781 Q100.8594,173.2344 100.1563,173.2344 Q97.6563,173.2344 96.3281,171.5938 Q95.0156,169.9375 95.0156,166.8125 Q95.0156,163.6875 96.3281,162.0313 Q97.6563,160.375 100.1563,160.375 Q100.8594,160.375 101.5,160.5313 Q102.1563,160.6875 102.7188,160.9844 L102.7188,163.7031 Q102.0938,163.125 101.5,162.8594 Q100.9063,162.5781 100.2813,162.5781 Q98.9375,162.5781 98.25,163.6563 Q97.5625,164.7188 97.5625,166.8125 Q97.5625,168.9063 98.25,169.9844 Q98.9375,171.0469 100.2813,171.0469 Q100.9063,171.0469 101.5,170.7813 Q102.0938,170.5 102.7188,169.9219 L102.7188,172.6406 Z " fill="#000000"/><text fill="#000000" font-family="sans-serif" font-size="14" lengthAdjust="spacing" textLength="88" x="120.25" y="171.8467">NamedEvent</text><line style="stroke:#181818;stroke-width:0.5;" x1="8" x2="288" y1="183" y2="183"/><rect fill="none" height="6" style="stroke:#C82930;stroke-width:1.0;" width="6" x="15" y="193.6484"/><text fill="#000000" font-family="sans-serif" font-size="14" lengthAdjust="spacing" textLength="83" x="27" y="199.9951">String name</text><line style="stroke:#181818;stroke-width:0.5;" x1="8" x2="288" y1="207.2969" y2="207.2969"/><ellipse cx="18" cy="220.9453" fill="#84BE84" rx="3" ry="3" style="stroke:#038048;stroke-width:1.0;"/><text fill="#000000" font-family="sans-serif" font-size="14" lengthAdjust="spacing" textLength="181" x="27" y="224.292">NamedEvent(String name)</text><ellipse cx="18" cy="237.2422" fill="#84BE84" rx="3" ry="3" style="stroke:#038048;stroke-width:1.0;"/><text fill="#000000" font-family="sans-serif" font-size="14" lengthAdjust="spacing" textLength="164" x="27" y="240.5889">Object defaultCriterion()</text><ellipse cx="18" cy="253.5391" fill="#84BE84" rx="3" ry="3" style="stroke:#038048;stroke-width:1.0;"/><text fill="#000000" font-family="sans-serif" font-size="14" lengthAdjust="spacing" textLength="256" x="27" y="256.8857">boolean isEligibleFor(Object criterion)</text></g><!--class UserEventType--><g id="elem_UserEventType"><rect codeLine="21" fill="#FFDEAD" height="64.2969" id="UserEventType" rx="2.5" ry="2.5" style="stroke:#181818;stroke-width:0.5;" width="190" x="324" y="175.5"/><ellipse cx="362.85" cy="191.5" fill="#ADD1B2" rx="11" ry="11" style="stroke:#181818;stroke-width:1.0;"/><path d="M365.8188,197.1406 Q365.2406,197.4375 364.6,197.5781 Q363.9594,197.7344 363.2563,197.7344 Q360.7563,197.7344 359.4281,196.0938 Q358.1156,194.4375 358.1156,191.3125 Q358.1156,188.1875 359.4281,186.5313 Q360.7563,184.875 363.2563,184.875 Q363.9594,184.875 364.6,185.0313 Q365.2563,185.1875 365.8188,185.4844 L365.8188,188.2031 Q365.1938,187.625 364.6,187.3594 Q364.0063,187.0781 363.3813,187.0781 Q362.0375,187.0781 361.35,188.1563 Q360.6625,189.2188 360.6625,191.3125 Q360.6625,193.4063 361.35,194.4844 Q362.0375,195.5469 363.3813,195.5469 Q364.0063,195.5469 364.6,195.2813 Q365.1938,195 365.8188,194.4219 L365.8188,197.1406 Z " fill="#000000"/><text fill="#000000" font-family="sans-serif" font-size="14" lengthAdjust="spacing" textLength="105" x="382.15" y="196.3467">UserEventType</text><line style="stroke:#181818;stroke-width:0.5;" x1="325" x2="513" y1="207.5" y2="207.5"/><line style="stroke:#181818;stroke-width:0.5;" x1="325" x2="513" y1="215.5" y2="215.5"/><ellipse cx="335" cy="229.1484" fill="#84BE84" rx="3" ry="3" style="stroke:#038048;stroke-width:1.0;"/><text fill="#000000" font-family="sans-serif" font-size="14" lengthAdjust="spacing" textLength="164" x="344" y="232.4951">Object defaultCriterion()</text></g><!--link Event to Eligible--><g id="link_Event_Eligible"><path codeLine="11" d="M424.07,50.5 C435.62,50.5 429.17,50.5 440.72,50.5 " fill="none" id="Event-to-Eligible" style="stroke:#181818;stroke-width:1.0;stroke-dasharray:7.0,7.0;"/><polygon fill="none" points="458.72,50.5,440.72,44.5,440.72,56.5,458.72,50.5" style="stroke:#181818;stroke-width:1.0;"/></g><!--reverse link Event to NamedEvent--><g id="link_Event_NamedEvent"><path codeLine="19" d="M236.7623,104.5873 C220.9123,122.7973 213.63,131.15 196.36,150.98 " fill="none" id="Event-backto-NamedEvent" style="stroke:#181818;stroke-width:1.0;"/><polygon fill="none" points="248.58,91.01,232.2366,100.6481,241.2881,108.5265,248.58,91.01" style="stroke:#181818;stroke-width:1.0;"/></g><!--reverse link Event to UserEventType--><g id="link_Event_UserEventType"><path codeLine="24" d="M329.5417,104.54 C352.5217,130.73 370.38,151.08 391.68,175.36 " fill="none" id="Event-backto-UserEventType" style="stroke:#181818;stroke-width:1.0;"/><polygon fill="none" points="317.67,91.01,325.0317,108.4973,334.0517,100.5828,317.67,91.01" style="stroke:#181818;stroke-width:1.0;"/></g><!--SRC=[hP313e8m44JFyXMRU84G-0B2nU0H3s8ybx90IMrDMqcC-EyM586BniJhpkoRsMN2e2e9HKWugrZE4MuEh7PvWzH0WIMvSBDHpBgO5AvdjLnAZaG0q-FALYhtjK57gtNU7N20Sg8r92qA4sNn0FS_qVtVy0COGiMgseHT_BvYYax92OkdhGyFzaOnKO6mupvkajsPulsrvZCzwe9WrcPgUD2eXb5sFIEiKzAIHXvhY_ZwhYLy0Ne0]--></g></svg>