<?xml version="1.0" encoding="UTF-8" standalone="no"?><svg xmlns="http://www.w3.org/2000/svg" xmlns:xlink="http://www.w3.org/1999/xlink" contentScriptType="application/ecmascript" contentStyleType="text/css" height="254px" preserveAspectRatio="none" style="width:635px;height:254px;background:#FFFFFF;" version="1.1" viewBox="0 0 635 254" width="635px" zoomAndPan="magnify"><defs><filter height="300%" id="f11paiee7xh8qr" width="300%" x="-1" y="-1"><feGaussianBlur result="blurOut" stdDeviation="2.0"/><feColorMatrix in="blurOut" result="blurOut2" type="matrix" values="0 0 0 0 0 0 0 0 0 0 0 0 0 0 0 0 0 0 .4 0"/><feOffset dx="4.0" dy="4.0" in="blurOut2" result="blurOut3"/><feBlend in="SourceGraphic" in2="blurOut3" mode="normal"/></filter></defs><g><!--MD5=[6d32c84611c1939dadff1d2d4b11af2e]
class Eligible--><rect codeLine="1" fill="#FEFECE" filter="url(#f11paiee7xh8qr)" height="73.6094" id="Eligible" style="stroke:#A80036;stroke-width:1.5;" width="224" x="397" y="7"/><ellipse cx="482.75" cy="23" fill="#B4A7E5" rx="11" ry="11" style="stroke:#A80036;stroke-width:1.0;"/><path d="M478.6719,18.7656 L478.6719,16.6094 L486.0625,16.6094 L486.0625,18.7656 L483.5938,18.7656 L483.5938,26.8438 L486.0625,26.8438 L486.0625,29 L478.6719,29 L478.6719,26.8438 L481.1406,26.8438 L481.1406,18.7656 L478.6719,18.7656 Z " fill="#000000"/><text fill="#000000" font-family="sans-serif" font-size="12" font-style="italic" lengthAdjust="spacing" textLength="44" x="503.25" y="27.1543">Eligible</text><line style="stroke:#A80036;stroke-width:1.5;" x1="398" x2="620" y1="39" y2="39"/><line style="stroke:#A80036;stroke-width:1.5;" x1="398" x2="620" y1="47" y2="47"/><text fill="#000000" font-family="sans-serif" font-size="11" lengthAdjust="spacing" textLength="136" x="403" y="61.2104">Object defaultCriterion()</text><text fill="#000000" font-family="sans-serif" font-size="11" lengthAdjust="spacing" textLength="212" x="403" y="74.0151">boolean isEligibleFor(Object criterion)</text><!--MD5=[ac13618b1a974308c1f12eb6c57723dc]
class Event--><rect codeLine="6" fill="#FEFECE" filter="url(#f11paiee7xh8qr)" height="73.6094" id="Event" style="stroke:#A80036;stroke-width:1.5;" width="238" x="124" y="7"/><ellipse cx="221.25" cy="23" fill="#ADD1B2" rx="11" ry="11" style="stroke:#A80036;stroke-width:1.0;"/><path d="M224.2188,28.6406 Q223.6406,28.9375 223,29.0781 Q222.3594,29.2344 221.6563,29.2344 Q219.1563,29.2344 217.8281,27.5938 Q216.5156,25.9375 216.5156,22.8125 Q216.5156,19.6875 217.8281,18.0313 Q219.1563,16.375 221.6563,16.375 Q222.3594,16.375 223,16.5313 Q223.6563,16.6875 224.2188,16.9844 L224.2188,19.7031 Q223.5938,19.125 223,18.8594 Q222.4063,18.5781 221.7813,18.5781 Q220.4375,18.5781 219.75,19.6563 Q219.0625,20.7188 219.0625,22.8125 Q219.0625,24.9063 219.75,25.9844 Q220.4375,27.0469 221.7813,27.0469 Q222.4063,27.0469 223,26.7813 Q223.5938,26.5 224.2188,25.9219 L224.2188,28.6406 Z " fill="#000000"/><text fill="#000000" font-family="sans-serif" font-size="12" lengthAdjust="spacing" textLength="35" x="241.75" y="27.1543">Event</text><line style="stroke:#A80036;stroke-width:1.5;" x1="125" x2="361" y1="39" y2="39"/><line style="stroke:#A80036;stroke-width:1.5;" x1="125" x2="361" y1="47" y2="47"/><ellipse cx="135" cy="58" fill="#84BE84" rx="3" ry="3" style="stroke:#038048;stroke-width:1.0;"/><text fill="#000000" font-family="sans-serif" font-size="11" lengthAdjust="spacing" textLength="136" x="144" y="61.2104">Object defaultCriterion()</text><ellipse cx="135" cy="70.8047" fill="#84BE84" rx="3" ry="3" style="stroke:#038048;stroke-width:1.0;"/><text fill="#000000" font-family="sans-serif" font-size="11" lengthAdjust="spacing" textLength="212" x="144" y="74.0151">boolean isEligibleFor(Object criterion)</text><!--MD5=[18edc12e3b80591085d622512996a365]
class NamedEvent--><rect codeLine="13" fill="#FEFECE" filter="url(#f11paiee7xh8qr)" height="99.2188" id="NamedEvent" style="stroke:#A80036;stroke-width:1.5;" width="238" x="7" y="141"/><ellipse cx="82.25" cy="157" fill="#ADD1B2" rx="11" ry="11" style="stroke:#A80036;stroke-width:1.0;"/><path d="M85.2188,162.6406 Q84.6406,162.9375 84,163.0781 Q83.3594,163.2344 82.6563,163.2344 Q80.1563,163.2344 78.8281,161.5938 Q77.5156,159.9375 77.5156,156.8125 Q77.5156,153.6875 78.8281,152.0313 Q80.1563,150.375 82.6563,150.375 Q83.3594,150.375 84,150.5313 Q84.6563,150.6875 85.2188,150.9844 L85.2188,153.7031 Q84.5938,153.125 84,152.8594 Q83.4063,152.5781 82.7813,152.5781 Q81.4375,152.5781 80.75,153.6563 Q80.0625,154.7188 80.0625,156.8125 Q80.0625,158.9063 80.75,159.9844 Q81.4375,161.0469 82.7813,161.0469 Q83.4063,161.0469 84,160.7813 Q84.5938,160.5 85.2188,159.9219 L85.2188,162.6406 Z " fill="#000000"/><text fill="#000000" font-family="sans-serif" font-size="12" lengthAdjust="spacing" textLength="79" x="102.75" y="161.1543">NamedEvent</text><line style="stroke:#A80036;stroke-width:1.5;" x1="8" x2="244" y1="173" y2="173"/><rect fill="none" height="6" style="stroke:#C82930;stroke-width:1.0;" width="6" x="15" y="181"/><text fill="#000000" font-family="sans-serif" font-size="11" lengthAdjust="spacing" textLength="70" x="27" y="187.2104">String name</text><line style="stroke:#A80036;stroke-width:1.5;" x1="8" x2="244" y1="193.8047" y2="193.8047"/><ellipse cx="18" cy="204.8047" fill="#84BE84" rx="3" ry="3" style="stroke:#038048;stroke-width:1.0;"/><text fill="#000000" font-family="sans-serif" font-size="11" lengthAdjust="spacing" textLength="149" x="27" y="208.0151">NamedEvent(String name)</text><ellipse cx="18" cy="217.6094" fill="#84BE84" rx="3" ry="3" style="stroke:#038048;stroke-width:1.0;"/><text fill="#000000" font-family="sans-serif" font-size="11" lengthAdjust="spacing" textLength="136" x="27" y="220.8198">Object defaultCriterion()</text><ellipse cx="18" cy="230.4141" fill="#84BE84" rx="3" ry="3" style="stroke:#038048;stroke-width:1.0;"/><text fill="#000000" font-family="sans-serif" font-size="11" lengthAdjust="spacing" textLength="212" x="27" y="233.6245">boolean isEligibleFor(Object criterion)</text><!--MD5=[72d804b0bfbbb8acb6a079fcff14a0ee]
class UserEventType--><rect codeLine="21" fill="#FFDEAD" filter="url(#f11paiee7xh8qr)" height="60.8047" id="UserEventType" style="stroke:#A80036;stroke-width:1.5;" width="162" x="280" y="160"/><ellipse cx="311.65" cy="176" fill="#ADD1B2" rx="11" ry="11" style="stroke:#A80036;stroke-width:1.0;"/><path d="M314.6188,181.6406 Q314.0406,181.9375 313.4,182.0781 Q312.7594,182.2344 312.0563,182.2344 Q309.5563,182.2344 308.2281,180.5938 Q306.9156,178.9375 306.9156,175.8125 Q306.9156,172.6875 308.2281,171.0313 Q309.5563,169.375 312.0563,169.375 Q312.7594,169.375 313.4,169.5313 Q314.0563,169.6875 314.6188,169.9844 L314.6188,172.7031 Q313.9938,172.125 313.4,171.8594 Q312.8063,171.5781 312.1813,171.5781 Q310.8375,171.5781 310.15,172.6563 Q309.4625,173.7188 309.4625,175.8125 Q309.4625,177.9063 310.15,178.9844 Q310.8375,180.0469 312.1813,180.0469 Q312.8063,180.0469 313.4,179.7813 Q313.9938,179.5 314.6188,178.9219 L314.6188,181.6406 Z " fill="#000000"/><text fill="#000000" font-family="sans-serif" font-size="12" lengthAdjust="spacing" textLength="93" x="329.35" y="180.1543">UserEventType</text><line style="stroke:#A80036;stroke-width:1.5;" x1="281" x2="441" y1="192" y2="192"/><line style="stroke:#A80036;stroke-width:1.5;" x1="281" x2="441" y1="200" y2="200"/><ellipse cx="291" cy="211" fill="#84BE84" rx="3" ry="3" style="stroke:#038048;stroke-width:1.0;"/><text fill="#000000" font-family="sans-serif" font-size="11" lengthAdjust="spacing" textLength="136" x="300" y="214.2104">Object defaultCriterion()</text><!--MD5=[23dbec55b219d683677de26a340874a5]
link Event to Eligible--><path codeLine="11" d="M362.23,44 C367.11,44 371.99,44 376.87,44 " fill="none" id="Event-to-Eligible" style="stroke:#A80036;stroke-width:1.0;stroke-dasharray:7.0,7.0;"/><polygon fill="none" points="376.92,37,396.92,44,376.92,51,376.92,37" style="stroke:#A80036;stroke-width:1.0;"/><!--MD5=[e1d64dbacbf0b9b254e7af4d5f77d4d2]
reverse link Event to NamedEvent--><path codeLine="19" d="M201.16,96.68 C189.52,111.05 176.93,126.6 165.43,140.8 " fill="none" id="Event-backto-NamedEvent" style="stroke:#A80036;stroke-width:1.0;"/><polygon fill="none" points="195.75,92.23,213.78,81.09,206.63,101.04,195.75,92.23" style="stroke:#A80036;stroke-width:1.0;"/><!--MD5=[2a4d5d9f0089c8d14bc25ab3d9f5abc1]
reverse link Event to UserEventType--><path codeLine="24" d="M285.17,96.63 C302.44,117.79 321.82,141.53 336.67,159.7 " fill="none" id="Event-backto-UserEventType" style="stroke:#A80036;stroke-width:1.0;"/><polygon fill="none" points="279.7,101.01,272.47,81.09,290.54,92.15,279.7,101.01" style="stroke:#A80036;stroke-width:1.0;"/><!--MD5=[09d398ad369c273573a1fb2acc9b5b18]
@startuml
interface Eligible {
 	Object defaultCriterion()
 	boolean isEligibleFor(Object criterion)
 }
 
 class Event {
 	+Object defaultCriterion()
 	+boolean isEligibleFor(Object criterion)
 }
 
 Event .right.|> Eligible
 
 class NamedEvent {
 	-String name
 	+NamedEvent(String name)
 	+Object defaultCriterion()
 	+boolean isEligibleFor(Object criterion)
 }
 Event <|- - NamedEvent
 
 class UserEventType #NavajoWhite {
 	+Object defaultCriterion()
 }
 Event <|- - UserEventType
@enduml

PlantUML version 1.2022.1(Tue Feb 01 18:19:58 UTC 2022)
(GPL source distribution)
Java Runtime: OpenJDK Runtime Environment
JVM: OpenJDK 64-Bit Server VM
Default Encoding: UTF-8
Language: en
Country: 
--></g></svg>