<?xml version="1.0" encoding="UTF-8" standalone="no"?><svg xmlns="http://www.w3.org/2000/svg" xmlns:xlink="http://www.w3.org/1999/xlink" contentScriptType="application/ecmascript" contentStyleType="text/css" height="253px" preserveAspectRatio="none" style="width:403px;height:253px;" version="1.1" viewBox="0 0 403 253" width="403px" zoomAndPan="magnify"><defs><filter height="300%" id="fqdgdfyzpccxq" width="300%" x="-1" y="-1"><feGaussianBlur result="blurOut" stdDeviation="2.0"/><feColorMatrix in="blurOut" result="blurOut2" type="matrix" values="0 0 0 0 0 0 0 0 0 0 0 0 0 0 0 0 0 0 .4 0"/><feOffset dx="4.0" dy="4.0" in="blurOut2" result="blurOut3"/><feBlend in="SourceGraphic" in2="blurOut3" mode="normal"/></filter></defs><g><!--cluster org.jgrapes--><polygon fill="#FFFFFF" filter="url(#fqdgdfyzpccxq)" points="22,24,119,24,126,46.2969,381,46.2969,381,241,22,241,22,24" style="stroke: #000000; stroke-width: 2.0;"/><line style="stroke: #000000; stroke-width: 2.0;" x1="22" x2="126" y1="46.2969" y2="46.2969"/><text fill="#000000" font-family="sans-serif" font-size="14" font-weight="bold" lengthAdjust="spacingAndGlyphs" textLength="91" x="26" y="38.9951">org.jgrapes</text><a target="_parent" xlink:actuate="onRequest" xlink:href="../core/package-summary.html" xlink:show="new" xlink:title="../core/package-summary.html" xlink:type="simple"><polygon fill="#FFFFFF" filter="url(#fqdgdfyzpccxq)" points="38,59,176,59,183,81.2969,190,81.2969,190,111.5938,38,111.5938,38,59" style="stroke: #000000; stroke-width: 2.0;"/><line style="stroke: #000000; stroke-width: 2.0;" x1="38" x2="183" y1="81.2969" y2="81.2969"/><text fill="#000000" font-family="sans-serif" font-size="14" font-weight="bold" lengthAdjust="spacingAndGlyphs" textLength="132" x="42" y="73.9951">org.jgrapes.core</text></a><a target="_parent" xlink:actuate="onRequest" xlink:href="../util/package-summary.html" xlink:show="new" xlink:title="../util/package-summary.html" xlink:type="simple"><polygon fill="#FFFFFF" filter="url(#fqdgdfyzpccxq)" points="225,59,351,59,358,81.2969,365,81.2969,365,111.5938,225,111.5938,225,59" style="stroke: #000000; stroke-width: 2.0;"/><line style="stroke: #000000; stroke-width: 2.0;" x1="225" x2="358" y1="81.2969" y2="81.2969"/><text fill="#000000" font-family="sans-serif" font-size="14" font-weight="bold" lengthAdjust="spacingAndGlyphs" textLength="120" x="229" y="73.9951">org.jgrapes.util</text></a><a target="_parent" xlink:actuate="onRequest" xlink:href="../io/package-summary.html" xlink:show="new" xlink:title="../io/package-summary.html" xlink:type="simple"><polygon fill="#FFFFFF" filter="url(#fqdgdfyzpccxq)" points="50,172,166,172,173,194.2969,180,194.2969,180,224.5938,50,224.5938,50,172" style="stroke: #000000; stroke-width: 2.0;"/><line style="stroke: #000000; stroke-width: 2.0;" x1="50" x2="173" y1="194.2969" y2="194.2969"/><text fill="#000000" font-family="sans-serif" font-size="14" font-weight="bold" lengthAdjust="spacingAndGlyphs" textLength="110" x="54" y="186.9951">org.jgrapes.io</text></a><a target="_parent" xlink:actuate="onRequest" xlink:href="../http/package-summary.html" xlink:show="new" xlink:title="../http/package-summary.html" xlink:type="simple"><polygon fill="#FFFFFF" filter="url(#fqdgdfyzpccxq)" points="215,172,349,172,356,194.2969,363,194.2969,363,224.5938,215,224.5938,215,172" style="stroke: #000000; stroke-width: 2.0;"/><line style="stroke: #000000; stroke-width: 2.0;" x1="215" x2="356" y1="194.2969" y2="194.2969"/><text fill="#000000" font-family="sans-serif" font-size="14" font-weight="bold" lengthAdjust="spacingAndGlyphs" textLength="128" x="219" y="186.9951">org.jgrapes.http</text></a><!--link org.jgrapes.core to org.jgrapes.util--><path d="M195.18,85.5 C205.08,85.5 214.97,85.5 224.87,85.5 " fill="none" id="org.jgrapes.core-org.jgrapes.util" style="stroke: #A80036; stroke-width: 1.0; stroke-dasharray: 7.0,7.0;"/><polygon fill="#A80036" points="190.01,85.5,199.01,89.5,195.01,85.5,199.01,81.5,190.01,85.5" style="stroke: #A80036; stroke-width: 1.0;"/><!--link org.jgrapes.core to org.jgrapes.io--><path d="M114.28,117.43 C114.43,134.59 114.62,155.67 114.77,171.89 " fill="none" id="org.jgrapes.core-org.jgrapes.io" style="stroke: #A80036; stroke-width: 1.0; stroke-dasharray: 7.0,7.0;"/><polygon fill="#A80036" points="114.23,112.24,110.3073,121.274,114.2729,117.2398,118.307,121.2054,114.23,112.24" style="stroke: #A80036; stroke-width: 1.0;"/><!--link org.jgrapes.util to org.jgrapes.io--><path d="M248.75,115.02 C220.27,132.58 184.08,154.9 156.52,171.89 " fill="none" id="org.jgrapes.util-org.jgrapes.io" style="stroke: #A80036; stroke-width: 1.0; stroke-dasharray: 7.0,7.0;"/><polygon fill="#A80036" points="253.25,112.24,243.4875,113.5411,248.9893,114.8565,247.6739,120.3583,253.25,112.24" style="stroke: #A80036; stroke-width: 1.0;"/><!--link org.jgrapes.io to org.jgrapes.http--><path d="M185.36,198.5 C195.12,198.5 204.89,198.5 214.66,198.5 " fill="none" id="org.jgrapes.io-org.jgrapes.http" style="stroke: #A80036; stroke-width: 1.0; stroke-dasharray: 7.0,7.0;"/><polygon fill="#A80036" points="180.25,198.5,189.25,202.5,185.25,198.5,189.25,194.5,180.25,198.5" style="stroke: #A80036; stroke-width: 1.0;"/><!--
@startuml
skinparam svgLinkTarget _parent
 
 package org.jgrapes {
     package org.jgrapes.core [[../core/package-summary.html]] {
     }
 
     package org.jgrapes.util [[../util/package-summary.html]] {
     }
 
     package org.jgrapes.io [[../io/package-summary.html]] {
     }
 
     package org.jgrapes.http [[../http/package-summary.html]] {
     }
 }
 
 org.jgrapes.core <.right. org.jgrapes.util
 org.jgrapes.core <.. org.jgrapes.io
 org.jgrapes.util <.. org.jgrapes.io
 org.jgrapes.io <.right. org.jgrapes.http
@enduml

PlantUML version 1.2017.18(Fri Oct 06 16:56:32 UTC 2017)
(GPL source distribution)
Java Runtime: OpenJDK Runtime Environment
JVM: OpenJDK 64-Bit Server VM
Java Version: 15.0.6+5-MTS
Operating System: Linux
OS Version: 5.11.0-1028-azure
Default Encoding: UTF-8
Language: en
Country: 
--></g></svg>