<?xml version="1.0" encoding="UTF-8" standalone="no"?><svg xmlns="http://www.w3.org/2000/svg" xmlns:xlink="http://www.w3.org/1999/xlink" contentScriptType="application/ecmascript" contentStyleType="text/css" height="295px" preserveAspectRatio="none" style="width:578px;height:295px;" version="1.1" viewBox="0 0 578 295" width="578px" zoomAndPan="magnify"><defs><filter height="300%" id="ffiv31zvsnyiz" width="300%" x="-1" y="-1"><feGaussianBlur result="blurOut" stdDeviation="2.0"/><feColorMatrix in="blurOut" result="blurOut2" type="matrix" values="0 0 0 0 0 0 0 0 0 0 0 0 0 0 0 0 0 0 .4 0"/><feOffset dx="4.0" dy="4.0" in="blurOut2" result="blurOut3"/><feBlend in="SourceGraphic" in2="blurOut3" mode="normal"/></filter></defs><g><rect fill="#FFFFFF" filter="url(#ffiv31zvsnyiz)" height="50.1328" style="stroke: #A80036; stroke-width: 1.0;" width="10" x="31.5" y="96.2969"/><rect fill="#FFFFFF" filter="url(#ffiv31zvsnyiz)" height="155.7969" style="stroke: #A80036; stroke-width: 1.0;" width="10" x="363" y="117.2969"/><rect fill="#FFFFFF" filter="url(#ffiv31zvsnyiz)" height="75.3984" style="stroke: #000000; stroke-width: 2.0;" width="280" x="287.5" y="190.6953"/><line style="stroke: #A80036; stroke-width: 1.0; stroke-dasharray: 5.0,5.0;" x1="36" x2="36" y1="86.2969" y2="283.0938"/><line style="stroke: #A80036; stroke-width: 1.0; stroke-dasharray: 5.0,5.0;" x1="246.5" x2="246.5" y1="86.2969" y2="283.0938"/><line style="stroke: #A80036; stroke-width: 1.0; stroke-dasharray: 5.0,5.0;" x1="367.5" x2="367.5" y1="86.2969" y2="283.0938"/><line style="stroke: #A80036; stroke-width: 1.0; stroke-dasharray: 5.0,5.0;" x1="519.5" x2="519.5" y1="86.2969" y2="283.0938"/><rect fill="#FEFECE" filter="url(#ffiv31zvsnyiz)" height="30.2969" style="stroke: #A80036; stroke-width: 1.5;" width="53" x="8" y="51"/><text fill="#000000" font-family="sans-serif" font-size="14" lengthAdjust="spacingAndGlyphs" textLength="39" x="15" y="70.9951">Portal</text><text fill="#000000" font-family="sans-serif" font-size="14" lengthAdjust="spacingAndGlyphs" textLength="76" x="205.5" y="82.9951">Framework</text><ellipse cx="246.5" cy="13" fill="#FEFECE" filter="url(#ffiv31zvsnyiz)" rx="8" ry="8" style="stroke: #A80036; stroke-width: 2.0;"/><path d="M246.5,21 L246.5,48 M233.5,29 L259.5,29 M246.5,48 L233.5,63 M246.5,48 L259.5,63 " fill="#FEFECE" filter="url(#ffiv31zvsnyiz)" style="stroke: #A80036; stroke-width: 2.0;"/><rect fill="#FEFECE" filter="url(#ffiv31zvsnyiz)" height="30.2969" style="stroke: #A80036; stroke-width: 1.5;" width="137" x="297.5" y="51"/><text fill="#000000" font-family="sans-serif" font-size="14" lengthAdjust="spacingAndGlyphs" textLength="123" x="304.5" y="70.9951">ResourceProvider</text><rect fill="#FEFECE" filter="url(#ffiv31zvsnyiz)" height="30.2969" style="stroke: #A80036; stroke-width: 1.5;" width="71" x="482.5" y="51"/><text fill="#000000" font-family="sans-serif" font-size="14" lengthAdjust="spacingAndGlyphs" textLength="57" x="489.5" y="70.9951">Browser</text><rect fill="#FFFFFF" filter="url(#ffiv31zvsnyiz)" height="50.1328" style="stroke: #A80036; stroke-width: 1.0;" width="10" x="31.5" y="96.2969"/><rect fill="#FFFFFF" filter="url(#ffiv31zvsnyiz)" height="155.7969" style="stroke: #A80036; stroke-width: 1.0;" width="10" x="363" y="117.2969"/><polygon fill="#A80036" points="351,113.2969,361,117.2969,351,121.2969,355,117.2969" style="stroke: #A80036; stroke-width: 1.0;"/><line style="stroke: #A80036; stroke-width: 1.0;" x1="41.5" x2="357" y1="117.2969" y2="117.2969"/><text fill="#000000" font-family="sans-serif" font-size="13" lengthAdjust="spacingAndGlyphs" textLength="111" x="48.5" y="112.3638">ResourceRequest</text><polygon fill="#A80036" points="47.5,142.4297,37.5,146.4297,47.5,150.4297,43.5,146.4297" style="stroke: #A80036; stroke-width: 1.0;"/><line style="stroke: #A80036; stroke-width: 1.0;" x1="41.5" x2="245.5" y1="146.4297" y2="146.4297"/><text fill="#000000" font-family="sans-serif" font-size="13" lengthAdjust="spacingAndGlyphs" textLength="181" x="53.5" y="141.4966">ResourceRequestCompleted</text><polygon fill="#A80036" points="508,171.5625,518,175.5625,508,179.5625,512,175.5625" style="stroke: #A80036; stroke-width: 1.0;"/><line style="stroke: #A80036; stroke-width: 1.0;" x1="373" x2="514" y1="175.5625" y2="175.5625"/><text fill="#000000" font-family="sans-serif" font-size="13" lengthAdjust="spacingAndGlyphs" textLength="123" x="380" y="170.6294">"Response Header"</text><rect fill="none" height="75.3984" style="stroke: #000000; stroke-width: 2.0;" width="280" x="287.5" y="190.6953"/><polygon fill="#EEEEEE" points="287.5,190.6953,364.5,190.6953,364.5,197.6953,354.5,207.6953,287.5,207.6953,287.5,190.6953" style="stroke: #000000; stroke-width: 2.0;"/><text fill="#000000" font-family="sans-serif" font-size="13" font-weight="bold" lengthAdjust="spacingAndGlyphs" textLength="32" x="302.5" y="203.7622">loop</text><text fill="#000000" font-family="sans-serif" font-size="11" font-weight="bold" lengthAdjust="spacingAndGlyphs" textLength="117" x="379.5" y="202.9058">[until end of data]</text><polygon fill="#A80036" points="508,224.8281,518,228.8281,508,232.8281,512,228.8281" style="stroke: #A80036; stroke-width: 1.0;"/><line style="stroke: #A80036; stroke-width: 1.0;" x1="373" x2="514" y1="228.8281" y2="228.8281"/><text fill="#000000" font-family="sans-serif" font-size="13" lengthAdjust="spacingAndGlyphs" textLength="44" x="380" y="223.895">Output</text><polygon fill="#A80036" points="508,253.9609,518,257.9609,508,261.9609,512,257.9609" style="stroke: #A80036; stroke-width: 1.0;"/><line style="stroke: #A80036; stroke-width: 1.0;" x1="373" x2="514" y1="257.9609" y2="257.9609"/><text fill="#000000" font-family="sans-serif" font-size="13" lengthAdjust="spacingAndGlyphs" textLength="107" x="380" y="253.0278">"Response body"</text><!--
@startuml
hide footbox
 
 activate Portal
 actor Framework
 Portal -> ResourceProvider: ResourceRequest
 activate ResourceProvider
 Framework -> Portal: ResourceRequestCompleted
 deactivate Portal
 ResourceProvider -> Browser: "Response Header"
 loop until end of data
     ResourceProvider -> Browser: Output
     ResourceProvider -> Browser: "Response body"
     deactivate Portal
 end loop
 deactivate ResourceProvider
 deactivate Browser
@enduml

PlantUML version 1.2017.18(Fri Oct 06 16:56:32 UTC 2017)
(GPL source distribution)
Java Runtime: Java(TM) SE Runtime Environment
JVM: Java HotSpot(TM) 64-Bit Server VM
Java Version: 1.8.0_151-b12
Operating System: Linux
OS Version: 4.4.0-101-generic
Default Encoding: UTF-8
Language: en
Country: US
--></g></svg>