<?xml version="1.0" encoding="UTF-8" standalone="no"?><svg xmlns="http://www.w3.org/2000/svg" xmlns:xlink="http://www.w3.org/1999/xlink" contentScriptType="application/ecmascript" contentStyleType="text/css" height="297px" preserveAspectRatio="none" style="width:524px;height:297px;" version="1.1" viewBox="0 0 524 297" width="524px" zoomAndPan="magnify"><defs><filter height="300%" id="f1b4gyys4ambw3" width="300%" x="-1" y="-1"><feGaussianBlur result="blurOut" stdDeviation="2.0"/><feColorMatrix in="blurOut" result="blurOut2" type="matrix" values="0 0 0 0 0 0 0 0 0 0 0 0 0 0 0 0 0 0 .4 0"/><feOffset dx="4.0" dy="4.0" in="blurOut2" result="blurOut3"/><feBlend in="SourceGraphic" in2="blurOut3" mode="normal"/></filter></defs><g><rect fill="#FFFFFF" filter="url(#f1b4gyys4ambw3)" height="68.3984" style="stroke: #A80036; stroke-width: 1.0;" width="10" x="150.5" y="117.2969"/><rect fill="#FFFFFF" filter="url(#f1b4gyys4ambw3)" height="68.3984" style="stroke: #A80036; stroke-width: 1.0;" width="10" x="446" y="206.6953"/><rect fill="#FFFFFF" filter="url(#f1b4gyys4ambw3)" height="46.2656" style="stroke: #000000; stroke-width: 2.0;" width="241" x="117" y="132.4297"/><rect fill="#FFFFFF" filter="url(#f1b4gyys4ambw3)" height="46.2656" style="stroke: #000000; stroke-width: 2.0;" width="500.5" x="13" y="221.8281"/><line style="stroke: #A80036; stroke-width: 1.0; stroke-dasharray: 5.0,5.0;" x1="60" x2="60" y1="86.2969" y2="285.0938"/><line style="stroke: #A80036; stroke-width: 1.0; stroke-dasharray: 5.0,5.0;" x1="155" x2="155" y1="86.2969" y2="285.0938"/><line style="stroke: #A80036; stroke-width: 1.0; stroke-dasharray: 5.0,5.0;" x1="247" x2="247" y1="86.2969" y2="285.0938"/><line style="stroke: #A80036; stroke-width: 1.0; stroke-dasharray: 5.0,5.0;" x1="330" x2="330" y1="86.2969" y2="285.0938"/><line style="stroke: #A80036; stroke-width: 1.0; stroke-dasharray: 5.0,5.0;" x1="450.5" x2="450.5" y1="86.2969" y2="285.0938"/><rect fill="#FEFECE" filter="url(#f1b4gyys4ambw3)" height="30.2969" style="stroke: #A80036; stroke-width: 1.5;" width="71" x="23" y="51"/><text fill="#000000" font-family="sans-serif" font-size="14" lengthAdjust="spacingAndGlyphs" textLength="57" x="30" y="70.9951">Browser</text><rect fill="#FEFECE" filter="url(#f1b4gyys4ambw3)" height="30.2969" style="stroke: #A80036; stroke-width: 1.5;" width="53" x="127" y="51"/><text fill="#000000" font-family="sans-serif" font-size="14" lengthAdjust="spacingAndGlyphs" textLength="39" x="134" y="70.9951">Portal</text><rect fill="#FEFECE" filter="url(#f1b4gyys4ambw3)" height="30.2969" style="stroke: #A80036; stroke-width: 1.5;" width="59" x="216" y="51"/><text fill="#000000" font-family="sans-serif" font-size="14" lengthAdjust="spacingAndGlyphs" textLength="45" x="223" y="70.9951">Portlet</text><text fill="#000000" font-family="sans-serif" font-size="14" lengthAdjust="spacingAndGlyphs" textLength="76" x="289" y="82.9951">Framework</text><ellipse cx="330" cy="13" fill="#FEFECE" filter="url(#f1b4gyys4ambw3)" rx="8" ry="8" style="stroke: #A80036; stroke-width: 2.0;"/><path d="M330,21 L330,48 M317,29 L343,29 M330,48 L317,63 M330,48 L343,63 " fill="#FEFECE" filter="url(#f1b4gyys4ambw3)" style="stroke: #A80036; stroke-width: 2.0;"/><rect fill="#FEFECE" filter="url(#f1b4gyys4ambw3)" height="30.2969" style="stroke: #A80036; stroke-width: 1.5;" width="101" x="398.5" y="51"/><text fill="#000000" font-family="sans-serif" font-size="14" lengthAdjust="spacingAndGlyphs" textLength="87" x="405.5" y="70.9951">PortalWeblet</text><rect fill="#FFFFFF" filter="url(#f1b4gyys4ambw3)" height="68.3984" style="stroke: #A80036; stroke-width: 1.0;" width="10" x="150.5" y="117.2969"/><rect fill="#FFFFFF" filter="url(#f1b4gyys4ambw3)" height="68.3984" style="stroke: #A80036; stroke-width: 1.0;" width="10" x="446" y="206.6953"/><polygon fill="#A80036" points="138.5,113.2969,148.5,117.2969,138.5,121.2969,142.5,117.2969" style="stroke: #A80036; stroke-width: 1.0;"/><line style="stroke: #A80036; stroke-width: 1.0;" x1="60.5" x2="144.5" y1="117.2969" y2="117.2969"/><text fill="#000000" font-family="sans-serif" font-size="13" lengthAdjust="spacingAndGlyphs" textLength="71" x="67.5" y="112.3638">"setLocale"</text><rect fill="none" height="46.2656" style="stroke: #000000; stroke-width: 2.0;" width="241" x="117" y="132.4297"/><polygon fill="#EEEEEE" points="117,132.4297,194,132.4297,194,139.4297,184,149.4297,117,149.4297,117,132.4297" style="stroke: #000000; stroke-width: 2.0;"/><text fill="#000000" font-family="sans-serif" font-size="13" font-weight="bold" lengthAdjust="spacingAndGlyphs" textLength="32" x="132" y="145.4966">loop</text><text fill="#000000" font-family="sans-serif" font-size="11" font-weight="bold" lengthAdjust="spacingAndGlyphs" textLength="144" x="209" y="144.6401">[for localized portlets]</text><polygon fill="#A80036" points="235.5,166.5625,245.5,170.5625,235.5,174.5625,239.5,170.5625" style="stroke: #A80036; stroke-width: 1.0;"/><line style="stroke: #A80036; stroke-width: 1.0;" x1="160.5" x2="241.5" y1="170.5625" y2="170.5625"/><text fill="#000000" font-family="sans-serif" font-size="13" lengthAdjust="spacingAndGlyphs" textLength="63" x="167.5" y="165.6294">SetLocale</text><polygon fill="#A80036" points="434,202.6953,444,206.6953,434,210.6953,438,206.6953" style="stroke: #A80036; stroke-width: 1.0;"/><line style="stroke: #A80036; stroke-width: 1.0;" x1="330" x2="440" y1="206.6953" y2="206.6953"/><text fill="#000000" font-family="sans-serif" font-size="13" lengthAdjust="spacingAndGlyphs" textLength="97" x="337" y="201.7622">SetLocaleDone</text><rect fill="none" height="46.2656" style="stroke: #000000; stroke-width: 2.0;" width="500.5" x="13" y="221.8281"/><polygon fill="#EEEEEE" points="13,221.8281,83,221.8281,83,228.8281,73,238.8281,13,238.8281,13,221.8281" style="stroke: #000000; stroke-width: 2.0;"/><text fill="#000000" font-family="sans-serif" font-size="13" font-weight="bold" lengthAdjust="spacingAndGlyphs" textLength="25" x="28" y="234.895">opt</text><text fill="#000000" font-family="sans-serif" font-size="11" font-weight="bold" lengthAdjust="spacingAndGlyphs" textLength="120" x="98" y="234.0386">[reload requested]</text><polygon fill="#A80036" points="71.5,255.9609,61.5,259.9609,71.5,263.9609,67.5,259.9609" style="stroke: #A80036; stroke-width: 1.0;"/><line style="stroke: #A80036; stroke-width: 1.0;" x1="65.5" x2="445" y1="259.9609" y2="259.9609"/><text fill="#000000" font-family="sans-serif" font-size="13" lengthAdjust="spacingAndGlyphs" textLength="50" x="77.5" y="255.0278">"reload"</text><!--
@startuml
hide footbox
 
 Browser -> Portal: "setLocale"
 activate Portal
 loop for localized portlets
     Portal -> Portlet: SetLocale
 end loop
 deactivate Portal
 actor Framework
 Framework -> PortalWeblet: SetLocaleDone
 activate PortalWeblet
 opt reload requested
     PortalWeblet -> Browser: "reload"
 end
 deactivate PortalWeblet
@enduml

PlantUML version 1.2017.18(Fri Oct 06 16:56:32 UTC 2017)
(GPL source distribution)
Java Runtime: OpenJDK Runtime Environment
JVM: OpenJDK 64-Bit Server VM
Java Version: 1.8.0_222-8u222-b10-1ubuntu1~16.04.1-b10
Operating System: Linux
OS Version: 4.15.0-1050-gcp
Default Encoding: UTF-8
Language: en
Country: US
--></g></svg>