<?xml version="1.0" encoding="UTF-8" standalone="no"?><svg xmlns="http://www.w3.org/2000/svg" xmlns:xlink="http://www.w3.org/1999/xlink" contentScriptType="application/ecmascript" contentStyleType="text/css" height="370px" preserveAspectRatio="none" style="width:314px;height:370px;" version="1.1" viewBox="0 0 314 370" width="314px" zoomAndPan="magnify"><defs><filter height="300%" id="fheam54zhmv6v" width="300%" x="-1" y="-1"><feGaussianBlur result="blurOut" stdDeviation="2.0"/><feColorMatrix in="blurOut" result="blurOut2" type="matrix" values="0 0 0 0 0 0 0 0 0 0 0 0 0 0 0 0 0 0 .4 0"/><feOffset dx="4.0" dy="4.0" in="blurOut2" result="blurOut3"/><feBlend in="SourceGraphic" in2="blurOut3" mode="normal"/></filter></defs><g><!--cluster org.jgrapes--><polygon fill="#FFFFFF" filter="url(#fheam54zhmv6v)" points="22,24,119,24,126,46.2969,292,46.2969,292,358,22,358,22,24" style="stroke: #000000; stroke-width: 2.0;"/><line style="stroke: #000000; stroke-width: 2.0;" x1="22" x2="126" y1="46.2969" y2="46.2969"/><text fill="#000000" font-family="sans-serif" font-size="14" font-weight="bold" lengthAdjust="spacingAndGlyphs" textLength="91" x="26" y="38.9951">org.jgrapes</text><polygon fill="#FFFFFF" filter="url(#fheam54zhmv6v)" points="75.75,60.5,224.75,60.5,231.75,82.7969,238.75,82.7969,238.75,113.0938,75.75,113.0938,75.75,60.5" style="stroke: #000000; stroke-width: 2.0;"/><line style="stroke: #000000; stroke-width: 2.0;" x1="75.75" x2="231.75" y1="82.7969" y2="82.7969"/><text fill="#000000" font-family="sans-serif" font-size="14" font-weight="bold" lengthAdjust="spacingAndGlyphs" textLength="143" x="79.75" y="75.4951">Core Components</text><a target="_parent" xlink:actuate="onRequest" xlink:href="org/jgrapes/portal/package-summary.html#package.description" xlink:show="new" xlink:title="org/jgrapes/portal/package-summary.html#package.description" xlink:type="simple"><polygon fill="#FFFFFF" filter="url(#fheam54zhmv6v)" points="76,174.5,224,174.5,231,196.7969,238,196.7969,238,227.0938,76,227.0938,76,174.5" style="stroke: #000000; stroke-width: 2.0;"/><line style="stroke: #000000; stroke-width: 2.0;" x1="76" x2="231" y1="196.7969" y2="196.7969"/><text fill="#000000" font-family="sans-serif" font-size="14" font-weight="bold" lengthAdjust="spacingAndGlyphs" textLength="142" x="80" y="189.4951">org.jgrapes.portal</text></a><polygon fill="#FFFFFF" filter="url(#fheam54zhmv6v)" points="38,288.5,262,288.5,269,310.7969,276,310.7969,276,341.0938,38,341.0938,38,288.5" style="stroke: #000000; stroke-width: 2.0;"/><line style="stroke: #000000; stroke-width: 2.0;" x1="38" x2="269" y1="310.7969" y2="310.7969"/><text fill="#000000" font-family="sans-serif" font-size="14" font-weight="bold" lengthAdjust="spacingAndGlyphs" textLength="218" x="42" y="303.4951">org.jgrapes.portal.themes.*</text><!--link Core Components to org.jgrapes.portal--><path d="M157,118.969 C157,136.416 157,157.944 157,174.425 " fill="none" id="Core Components-org.jgrapes.portal" style="stroke: #A80036; stroke-width: 1.0; stroke-dasharray: 7.0,7.0;"/><polygon fill="#A80036" points="157,113.695,153,122.695,157,118.695,161,122.695,157,113.695" style="stroke: #A80036; stroke-width: 1.0;"/><!--link org.jgrapes.portal to org.jgrapes.portal.themes.*--><path d="M157,232.969 C157,250.416 157,271.944 157,288.4245 " fill="none" id="org.jgrapes.portal-org.jgrapes.portal.themes.*" style="stroke: #A80036; stroke-width: 1.0; stroke-dasharray: 7.0,7.0;"/><polygon fill="#A80036" points="157,227.695,153,236.695,157,232.695,161,236.695,157,227.695" style="stroke: #A80036; stroke-width: 1.0;"/><!--
@startuml
skinparam svgLinkTarget _parent

package org.jgrapes {
    package "Core Components" {
    }

    package org.jgrapes.portal [[org/jgrapes/portal/package-summary.html#package.description]] {
    }

    package "org.jgrapes.portal.themes.*" {
    }
}

"Core Components" <.. org.jgrapes.portal
org.jgrapes.portal <.. "org.jgrapes.portal.themes.*"
@enduml

PlantUML version 1.2017.18(Fri Oct 06 16:56:32 UTC 2017)
(GPL source distribution)
Java Runtime: Java(TM) SE Runtime Environment
JVM: Java HotSpot(TM) 64-Bit Server VM
Java Version: 1.8.0_151-b12
Operating System: Linux
OS Version: 4.4.0-101-generic
Default Encoding: UTF-8
Language: en
Country: US
--></g></svg>